<svg width="33" height="34" viewBox="0 0 33 34" fill="none" xmlns="http://www.w3.org/2000/svg">

<g id="Design">


<g id="&#224;&#184;&#136;&#224;&#184;&#177;&#224;&#184;&#154;&#224;&#184;&#132;&#224;&#184;&#185;&#224;&#185;&#136;&#224;&#184;&#132;&#224;&#184;&#185;&#224;&#185;&#136;&#224;&#184;&#171;&#224;&#184;&#185;">


<g id="&#224;&#184;&#170;&#224;&#184;&#163;&#224;&#185;&#137;&#224;&#184;&#178;&#224;&#184;&#135;&#224;&#184;&#171;&#224;&#185;&#137;&#224;&#184;&#173;&#224;&#184;&#135;">

<g id="Frame 427322078">
<g id="Group 21808405">
<g id="Group 21808042">
<g id="Group 21808036">
<g id="Group 21808034">
<g id="Frame 427322076">
<g id="Frame 427322075">
<g id="Group 21807980">
<path id="Star 10" d="M14.9375 1.73926C15.2287 0.0863237 17.6014 0.0863208 17.8926 1.73926L19.7969 12.5674C19.8435 12.8318 20.0914 13.0118 20.3574 12.9756L30.6211 11.5801C32.2319 11.3611 32.992 13.5025 31.6035 14.3477L22.3594 19.9736C22.1473 20.1027 22.0621 20.3682 22.1592 20.5967L26.542 30.915C27.1912 32.4432 25.2449 33.7376 24.0869 32.5479L16.7734 25.0332C16.5772 24.8317 16.2529 24.8317 16.0566 25.0332L8.74316 32.5479C7.58514 33.7376 5.6389 32.4432 6.28809 30.915L10.6709 20.5967C10.768 20.3682 10.6828 20.1027 10.4707 19.9736L1.22656 14.3477C-0.161954 13.5025 0.598219 11.3611 2.20898 11.5801L12.4727 12.9756C12.7387 13.0118 12.9866 12.8318 13.0332 12.5674L14.9375 1.73926Z" fill="#D9D9D9" stroke="#373032"/>
</g>
</g>
</g>
</g>
</g>
</g>
</g>
</g>
</g>
</g>
</g>
</svg>
