<svg width="270" height="44" viewBox="0 0 270 44" fill="none" xmlns="http://www.w3.org/2000/svg">
<path d="M128.276 20.4292C128.258 19.7918 128.016 19.1903 127.662 18.8976C127.373 18.656 127.025 18.6336 126.627 18.8302C119.696 22.2437 112.89 25.3627 105.852 26.028C98.758 26.6978 91.7217 24.453 85.4968 19.5367C83.1928 17.7154 81.0091 15.6701 78.9002 13.6933C75.3508 10.3643 71.6784 6.92125 67.4416 4.6054C60.1348 0.616466 49.1924 -1.73727 40.3981 3.62241C36.4141 6.04649 33.3026 10.1623 30.2929 14.1429C29.0053 15.8463 27.6701 17.6098 26.2859 19.219C19.9124 26.623 11.8892 30.2823 1.7619 30.4038C1.37926 30.4088 1.07582 30.5556 0.853995 30.8471C0.614074 31.1625 0.486615 31.6335 0.501117 32.1417C0.519642 32.7907 0.830308 33.8842 1.87732 33.8719C12.6761 33.7459 21.3416 29.7156 28.3695 21.5463C29.656 20.0516 30.9157 18.3579 32.1325 16.7241C35.2128 12.5857 38.3949 8.30916 42.6819 6.13216C50.9526 1.93085 61.6473 3.7508 71.2946 11.0003C73.9224 12.9741 76.3632 15.2266 78.7267 17.4048C83.1381 21.4764 87.3057 25.3198 92.6079 27.5288C104.574 32.5105 116.827 27.3872 127.373 22.1921C128.225 21.7739 128.292 20.8197 128.281 20.432L128.276 20.4292Z" fill="#6ABF73" stroke="#372F32" stroke-miterlimit="10"/>
<path d="M122.905 19.8436C122.926 20.5787 123.203 21.2726 123.607 21.6104C123.936 21.8892 124.334 21.9151 124.788 21.6885C132.696 17.7535 140.46 14.1583 148.491 13.3934C156.585 12.6233 164.615 15.2151 171.719 20.8882C174.349 22.9899 176.841 25.3498 179.248 27.6308C183.3 31.472 187.491 35.4448 192.326 38.1176C200.665 42.7214 213.152 45.4403 223.185 39.2611C227.73 36.4664 231.279 31.72 234.712 27.1295C236.18 25.1651 237.703 23.1313 239.282 21.2757C246.552 12.7375 255.705 8.51948 267.261 8.38294C267.698 8.37726 268.044 8.20802 268.297 7.87192C268.57 7.50809 268.716 6.96485 268.699 6.37875C268.678 5.63004 268.323 4.36869 267.128 4.38244C254.806 4.5239 244.92 9.16974 236.904 18.5904C235.436 20.314 233.999 22.2673 232.612 24.1514C229.098 28.9239 225.469 33.8557 220.578 36.3653C211.142 41.2086 198.938 39.1055 187.928 30.7398C184.929 28.4622 182.143 25.8631 179.445 23.3497C174.41 18.6516 169.653 14.2169 163.602 11.6669C149.947 5.91629 135.967 11.8216 123.935 17.8103C122.963 18.2924 122.887 19.3931 122.9 19.8403L122.905 19.8436Z" fill="#6ABF73" stroke="#372F32" stroke-miterlimit="10"/>
</svg>
