<svg width="41" height="41" viewBox="0 0 41 41" fill="none" xmlns="http://www.w3.org/2000/svg">
<circle cx="20.5" cy="20.5" r="20" fill="#FEFDF5" stroke="#372F32"/>
<circle cx="20.5" cy="20.5" r="17" fill="#C9FACE" stroke="#372F32"/>
<path d="M21.3984 28C21.2251 28 21.1384 27.9133 21.1384 27.74V25.16H14.1784C14.0051 25.16 13.9184 25.0733 13.9184 24.9V24.24C13.9184 24.1067 13.9518 24 14.0184 23.92L21.7584 13.48C21.8384 13.3733 21.9451 13.32 22.0784 13.32H23.5784C23.7518 13.32 23.8384 13.4067 23.8384 13.58V22.62H25.7384C25.9118 22.62 25.9984 22.7067 25.9984 22.88V24.9C25.9984 25.0733 25.9118 25.16 25.7384 25.16H23.8384V27.74C23.8384 27.9133 23.7518 28 23.5784 28H21.3984ZM17.7984 22.62H21.1384V18L17.7984 22.62Z" fill="#372F32"/>
</svg>
