<svg width="41" height="41" viewBox="0 0 41 41" fill="none" xmlns="http://www.w3.org/2000/svg">
<circle cx="20.5" cy="20.5" r="20" fill="#FEFDF5" stroke="#372F32"/>
<circle cx="20.5" cy="20.5" r="17" fill="#C9FACE" stroke="#372F32"/>
<path d="M20.6584 28.28C19.3384 28.28 18.205 27.9333 17.2584 27.24C16.325 26.5467 15.6717 25.58 15.2984 24.34C15.285 24.3133 15.2784 24.28 15.2784 24.24C15.2784 24.1333 15.345 24.06 15.4784 24.02L17.4384 23.54L17.5184 23.52C17.6384 23.52 17.7184 23.5867 17.7584 23.72C17.985 24.3333 18.3317 24.8067 18.7984 25.14C19.2784 25.4733 19.8517 25.64 20.5184 25.64C21.305 25.64 21.9317 25.4267 22.3984 25C22.865 24.5733 23.0984 23.9933 23.0984 23.26C23.0984 22.5 22.865 21.9 22.3984 21.46C21.9317 21.0067 21.2984 20.78 20.4984 20.78C19.9917 20.78 19.505 20.8667 19.0384 21.04C18.585 21.2133 18.0917 21.5 17.5584 21.9C17.505 21.94 17.4384 21.96 17.3584 21.96L17.1984 21.92L16.0384 21.38C15.8917 21.3133 15.8317 21.2067 15.8584 21.06L16.5384 13.56C16.5517 13.4 16.6384 13.32 16.7984 13.32H24.8384C25.0117 13.32 25.0984 13.4067 25.0984 13.58V15.6C25.0984 15.7733 25.0117 15.86 24.8384 15.86H18.5784L18.2384 19.48C19.0917 18.7867 20.1117 18.44 21.2984 18.44C22.1917 18.44 22.985 18.6467 23.6784 19.06C24.3717 19.46 24.9117 20.0267 25.2984 20.76C25.685 21.48 25.8784 22.32 25.8784 23.28C25.8784 24.2533 25.6584 25.12 25.2184 25.88C24.7784 26.64 24.1584 27.2333 23.3584 27.66C22.5717 28.0733 21.6717 28.28 20.6584 28.28Z" fill="#372F32"/>
</svg>
