<svg width="379" height="545" viewBox="0 0 379 545" fill="none" xmlns="http://www.w3.org/2000/svg">
<path d="M180.949 2.73096C186.262 -0.243976 192.738 -0.243981 198.051 2.73096L369.551 98.7729C375.077 101.868 378.5 107.708 378.5 114.042V526.925C378.5 536.59 370.665 544.425 361 544.425H18C8.33516 544.425 0.500231 536.59 0.5 526.925V114.042L0.509766 113.45C0.715761 107.346 4.09539 101.771 9.44922 98.7729L180.949 2.73096Z" fill="#80CBE8" stroke="#352F31"/>
<path d="M180.949 2.73096C186.262 -0.243976 192.738 -0.243981 198.051 2.73096L369.551 98.7729C375.077 101.868 378.5 107.708 378.5 114.042V526.925C378.5 536.59 370.665 544.425 361 544.425H18C8.33516 544.425 0.500231 536.59 0.5 526.925V114.042L0.509766 113.45C0.715761 107.346 4.09539 101.771 9.44922 98.7729L180.949 2.73096Z" fill="#80CBE8" stroke="#352F31"/>
<path d="M181.515 26.6328C186.813 23.6781 193.263 23.6781 198.562 26.6328L355.6 114.211C361.141 117.301 364.576 123.15 364.576 129.495V506.978C364.576 516.643 356.741 524.478 347.076 524.478H33C23.335 524.478 15.5 516.643 15.5 506.978V129.495C15.5 123.15 18.9349 117.301 24.4766 114.211L181.515 26.6328Z" fill="#FEFDF5" stroke="#352F31"/>
</svg>
