<?xml version="1.0" encoding="UTF-8"?>
<svg id="Layer_1" data-name="Layer 1" xmlns="http://www.w3.org/2000/svg" viewBox="0 0 1080 1080">
  <defs>
    <style>
      .cls-1 {
        fill: #82cae8;
        stroke: #382f32;
        stroke-miterlimit: 10;
        stroke-width: 3.22px;
      }
    </style>
  </defs>
  <path class="cls-1" d="M800.14,855.89c-1.41,0-2.86-.69-3.7-1.74-.71-.9-.93-2.01-.65-3.28,9.88-44.25,5.41-91.32-12.57-132.54-9.33-21.38-23.21-39.84-36.64-57.69-10.89-14.49-22.16-29.47-30.78-45.78-17.11-32.41-18.53-69.63-4.22-110.6,7.19-20.58,17.32-40.31,27.13-59.39,9.3-18.1,18.93-36.82,26.12-56.39,11.7-31.85,19.83-77.86-7.89-116.2-18.21-25.19-47.78-40.23-79.07-40.23-8.29,0-16.54,1.07-24.52,3.18-20.22,5.35-37.02,17.52-53.27,29.31-11.96,8.67-24.32,17.64-37.8,23.61-11.23,4.98-22.91,7.5-34.73,7.5-4.54,0-9.2-.37-13.86-1.1-14.66-2.31-28.88-7.89-42.62-13.3-4.2-1.65-8.4-3.3-12.61-4.86-18.14-6.73-36.27-10.15-53.87-10.15-22.87,0-44.29,5.74-63.67,17.07-31.55,18.45-54.19,50.37-62.11,87.58-.37,1.74-1.4,2.62-3.06,2.62-1.4,0-2.85-.69-3.7-1.75-.73-.91-.96-2.03-.69-3.32,8.6-40.4,34.79-75.7,70.06-94.44,19.11-10.15,40.7-15.73,62.44-16.15l2.17-.02c23.33,0,44.87,7.15,62.85,14.14l5.46,2.14c17.24,6.8,35.08,13.82,53.97,13.82,1.26,0,2.54-.03,3.81-.1,19.47-1,36.62-11.03,50.83-20.7,4.71-3.2,9.33-6.54,13.94-9.88,9.74-7.04,19.82-14.32,30.5-20.04,15.99-8.57,33.56-13.09,50.79-13.09l2.38.03c37,.88,71.31,21.68,89.57,54.3,22.03,39.34,12.91,83.86,1.38,114.27-6.95,18.34-16.09,36.14-24.93,53.35-11.16,21.72-22.69,44.18-30.1,68.17-8.13,26.3-9.55,49.2-4.35,70.03,5.05,20.26,16.13,37.55,26.3,51.77,4.54,6.35,9.28,12.56,14.02,18.77,6.78,8.88,13.79,18.06,20.04,27.5,10.58,16.01,19.06,33.63,25.21,52.38,12.45,38.01,14.37,79.01,5.54,118.57-.39,1.75-1.45,2.64-3.12,2.64h0Z"/>
</svg>