<?xml version="1.0" encoding="UTF-8"?>
<svg id="Layer_1" data-name="Layer 1" xmlns="http://www.w3.org/2000/svg" viewBox="0 0 1080 1080">
  <defs>
    <style>
      .cls-1 {
        fill: #fffef6;
      }

      .cls-1, .cls-2 {
        stroke: #382f32;
        stroke-miterlimit: 10;
        stroke-width: 5.07px;
      }

      .cls-2 {
        fill: #fbe200;
      }
    </style>
  </defs>
  <g>
    <g id="_Radial_Repeat_" data-name="&amp;lt;Radial Repeat&amp;gt;">
      <path class="cls-1" d="M414.44,629.77c21.95-43.19,74.08-91.09,110.96-76.58,36.75,14.45,42.99,84.82,28.77,131.9-16.58,54.91-68.03,101.45-89.8,91.97-9.99-4.35-13.08-20.23-13.86-35.22-11.63,10.32-25.64,19.62-36.2,15.4-22.41-8.95-25.43-77.18.13-127.47Z"/>
    </g>
    <g id="_Radial_Repeat_-2" data-name="&amp;lt;Radial Repeat&amp;gt;">
      <path class="cls-1" d="M403.01,468.88c48.44-.05,114.79,24.65,118.61,64.1,3.81,39.31-56.06,76.81-104.46,85.52-56.45,10.15-121.28-14.56-122.72-38.26-.66-10.88,12.08-20.84,25.09-28.33-14.48-5.68-29.12-13.94-30.16-25.27-2.2-24.03,57.22-57.7,113.64-57.76Z"/>
    </g>
    <g id="_Radial_Repeat_-3" data-name="&amp;lt;Radial Repeat&amp;gt;">
      <path class="cls-1" d="M541.18,385.66c22.04,43.14,30.15,113.47-3.27,134.79-33.3,21.24-93.89-15.08-123.62-54.26-34.67-45.69-42.09-114.67-21.62-126.71,9.39-5.52,24.05,1.31,36.64,9.49-1.52-15.48-.8-32.28,8.82-38.34,20.41-12.87,77.39,24.79,103.05,75.03Z"/>
    </g>
    <g id="_Radial_Repeat_-4" data-name="&amp;lt;Radial Repeat&amp;gt;">
      <path class="cls-1" d="M678.05,470.98c-28.43,39.22-87.42,78.38-121.58,58.28-34.04-20.03-29.19-90.51-7.78-134.78,24.97-51.64,83.07-89.56,103.08-76.79,9.19,5.86,9.75,22.02,8.18,36.95,13.1-8.38,28.39-15.37,38.17-9.55,20.73,12.34,13.05,80.2-20.07,125.88Z"/>
    </g>
    <g id="_Radial_Repeat_-5" data-name="&amp;lt;Radial Repeat&amp;gt;">
      <path class="cls-1" d="M664.17,631.67c-47.85-7.53-109.52-42.3-107.13-81.87,2.39-39.42,67.39-67.1,116.56-68.12,57.35-1.2,117.51,33.35,115.22,56.98-1.05,10.85-15.19,18.69-29.21,24.06,13.41,7.87,26.58,18.32,25.83,29.67-1.59,24.08-65.54,48.04-121.27,39.27Z"/>
    </g>
    <g id="_Radial_Repeat_-6" data-name="&amp;lt;Radial Repeat&amp;gt;">
      <path class="cls-1" d="M514.69,692.26c-15.02-46.06-12.03-116.79,24.31-132.62,36.21-15.77,90.38,29.58,113.61,72.93,27.1,50.55,23.63,119.84,1.54,128.53-10.14,3.99-23.55-5.05-34.7-15.1-.92,15.52-4.26,32-14.71,36.49-22.17,9.52-72.55-36.59-90.05-90.23Z"/>
    </g>
  </g>
  <path class="cls-2" d="M558.88,575.81l-9.18-11.2-4.72,13.69c-3.07,8.9-16.33,6-15.41-3.37l1.42-14.41-13.01,6.34c-8.47,4.13-15.79-7.3-8.51-13.27l11.2-9.18-13.69-4.72c-8.9-3.07-6-16.33,3.37-15.41l14.41,1.42-6.34-13.01c-4.13-8.47,7.3-15.79,13.27-8.51l9.18,11.2,4.72-13.69c3.07-8.9,16.33-6,15.41,3.37l-1.42,14.41,13.01-6.34c8.47-4.13,15.79,7.3,8.51,13.27l-11.2,9.18,13.69,4.72c8.9,3.07,6,16.33-3.37,15.41l-14.41-1.42,6.34,13.01c4.13,8.47-7.3,15.79-13.27,8.51Z"/>
</svg>