<svg width="52" height="50" viewBox="0 0 52 50" fill="none" xmlns="http://www.w3.org/2000/svg">
<path d="M16.8509 48.754C18.4625 49.3533 23.855 31.1196 25.485 31.1888C27.1739 31.26 31.0229 49.862 32.6162 49.4164C34.2258 48.9657 27.879 31.0494 29.2719 30.1256C30.6516 29.2109 44.7005 42.0175 45.7505 40.6928C46.7639 39.4149 31.1043 28.6635 31.7036 27.0529C32.3029 25.4412 51.1816 27.5412 51.2498 25.9123C51.321 24.2233 32.3171 24.7311 31.8715 23.1377C31.4207 21.5281 47.936 12.1188 47.0121 10.7249C46.0974 9.3452 31.025 20.9075 29.7002 19.8575C28.4223 18.8441 36.2597 1.52 34.6491 0.920726C33.0375 0.321449 27.645 18.5551 26.015 18.486C24.3261 18.4147 20.4771 -0.187273 18.8838 0.258369C17.2741 0.709099 23.621 18.6253 22.2281 19.5492C20.8484 20.4639 6.79952 7.65725 5.74951 8.98197C4.73613 10.2599 20.3957 21.0113 19.7964 22.6219C19.1971 24.2335 0.318369 22.1335 0.2502 23.7624C0.178978 25.4514 19.1829 24.9437 19.6285 26.537C20.0793 28.1466 3.56403 37.556 4.48787 38.9499C5.40256 40.3296 20.475 28.7673 21.7998 29.8173C23.0777 30.8307 15.2403 48.1548 16.8509 48.754Z" fill="#E2DA93" stroke="#382F32" stroke-width="0.5" stroke-miterlimit="10"/>
<path d="M16.8509 48.754C18.4625 49.3533 23.855 31.1196 25.485 31.1888C27.1739 31.26 31.0229 49.862 32.6162 49.4164C34.2258 48.9657 27.879 31.0494 29.2719 30.1256C30.6516 29.2109 44.7005 42.0175 45.7505 40.6928C46.7639 39.4149 31.1043 28.6635 31.7036 27.0529C32.3029 25.4412 51.1816 27.5412 51.2498 25.9123C51.321 24.2233 32.3171 24.7311 31.8715 23.1377C31.4207 21.5281 47.936 12.1188 47.0121 10.7249C46.0974 9.3452 31.025 20.9075 29.7002 19.8575C28.4223 18.8441 36.2597 1.52 34.6491 0.920726C33.0375 0.321449 27.645 18.5551 26.015 18.486C24.3261 18.4147 20.4771 -0.187273 18.8838 0.258369C17.2741 0.709099 23.621 18.6253 22.2281 19.5492C20.8484 20.4639 6.79952 7.65725 5.74951 8.98197C4.73613 10.2599 20.3957 21.0113 19.7964 22.6219C19.1971 24.2335 0.318369 22.1335 0.2502 23.7624C0.178978 25.4514 19.1829 24.9437 19.6285 26.537C20.0793 28.1466 3.56403 37.556 4.48787 38.9499C5.40256 40.3296 20.475 28.7673 21.7998 29.8173C23.0777 30.8307 15.2403 48.1548 16.8509 48.754Z" fill="#E2DA93" stroke="#382F32" stroke-width="0.5" stroke-miterlimit="10"/>
<path d="M25.7513 27.105C27.0032 27.105 28.0181 26.0901 28.0181 24.8382C28.0181 23.5862 27.0032 22.5713 25.7513 22.5713C24.4993 22.5713 23.4844 23.5862 23.4844 24.8382C23.4844 26.0901 24.4993 27.105 25.7513 27.105Z" fill="#FFFEF6" stroke="#382F32" stroke-width="0.5" stroke-miterlimit="10"/>
</svg>
