<?xml version="1.0" encoding="UTF-8"?>
<svg id="Layer_1" data-name="Layer 1" xmlns="http://www.w3.org/2000/svg" viewBox="0 0 1080 1080">
  <defs>
    <style>
      .cls-1 {
        fill: #6ac075;
        stroke: #382f32;
        stroke-miterlimit: 10;
        stroke-width: 3.22px;
      }
    </style>
  </defs>
  <path class="cls-1" d="M604.53,815.83c2.17,0,4.24-.96,5.27-2.43.85-1.2.96-2.68.33-4.4-10.94-29.93-20.89-59.29-22.47-89.34-1.59-30.29,6.73-59.98,24.06-85.89,6.42-9.59,13.59-18.64,20.52-27.38,11.67-14.71,23.74-29.93,32.03-47.69,14.28-30.63,23.35-76.94,5.97-115.04-7.86-17.26-21.56-31.01-34.81-44.31-5.67-5.69-11.54-11.59-16.88-17.68-24.57-28.04-36.24-62.65-35.67-105.79.02-1.63-.45-2.94-1.42-3.92-1.05-1.06-2.64-1.66-4.37-1.66-2.21,0-5.96,1.19-6.02,5.65-.62,46,12.25,83.39,39.36,114.31,4.96,5.66,10.6,11.23,16.04,16.61,13.78,13.62,28.02,27.69,35.01,46.21,13.49,35.73,6.26,81.05-19.34,121.25-6.97,10.95-14.87,21.07-22.51,30.87-14.28,18.29-27.76,35.57-35.79,57.88-18.11,50.35-1.87,103.15,14.78,148.69,1.34,3.68,4.58,4.08,5.9,4.08h0Z"/>
</svg>