<svg width="39" height="37" viewBox="0 0 39 37" fill="none" xmlns="http://www.w3.org/2000/svg">
<g opacity="0.84">
<path d="M12.5376 36.1516C13.7305 36.5952 17.7218 23.0991 18.9283 23.1503C20.1784 23.203 23.0274 36.9717 24.2067 36.6419C25.3981 36.3083 20.7003 23.0471 21.7313 22.3633C22.7525 21.6863 33.1512 31.1654 33.9283 30.1849C34.6784 29.239 23.0876 21.2811 23.5312 20.089C23.9748 18.8961 37.9483 20.4504 37.9988 19.2447C38.0515 17.9946 23.9853 18.3704 23.6554 17.1911C23.3218 15.9997 35.546 9.03509 34.8622 8.00336C34.1851 6.98217 23.0289 15.5403 22.0483 14.7631C21.1025 14.013 26.9035 1.19015 25.7114 0.746582C24.5185 0.303012 20.5271 13.7991 19.3207 13.7479C18.0705 13.6952 15.2216 -0.0735319 14.0422 0.256322C12.8509 0.589941 17.5486 13.8511 16.5177 14.5349C15.4965 15.2119 5.09779 5.73279 4.3206 6.71332C3.57052 7.6592 15.1613 15.6171 14.7178 16.8092C14.2742 18.0021 0.300605 16.4478 0.250148 17.6535C0.197431 18.9036 14.2637 18.5278 14.5935 19.7071C14.9271 20.8985 2.70296 27.8631 3.38677 28.8948C4.0638 29.916 15.2201 21.3579 16.2006 22.1351C17.1465 22.8852 11.3454 35.708 12.5376 36.1516Z" fill="#80CAE8" stroke="#382F32" stroke-width="0.5" stroke-miterlimit="10"/>
<path d="M12.5376 36.1516C13.7305 36.5952 17.7218 23.0991 18.9283 23.1503C20.1784 23.203 23.0274 36.9717 24.2067 36.6419C25.3981 36.3083 20.7003 23.0471 21.7313 22.3633C22.7525 21.6863 33.1512 31.1654 33.9283 30.1849C34.6784 29.239 23.0876 21.2811 23.5312 20.089C23.9748 18.8961 37.9483 20.4504 37.9988 19.2447C38.0515 17.9946 23.9853 18.3704 23.6554 17.1911C23.3218 15.9997 35.546 9.03509 34.8622 8.00336C34.1851 6.98217 23.0289 15.5403 22.0483 14.7631C21.1025 14.013 26.9035 1.19015 25.7114 0.746582C24.5185 0.303012 20.5271 13.7991 19.3207 13.7479C18.0705 13.6952 15.2216 -0.0735319 14.0422 0.256322C12.8509 0.589941 17.5486 13.8511 16.5177 14.5349C15.4965 15.2119 5.09779 5.73279 4.3206 6.71332C3.57052 7.6592 15.1613 15.6171 14.7178 16.8092C14.2742 18.0021 0.300605 16.4478 0.250148 17.6535C0.197431 18.9036 14.2637 18.5278 14.5935 19.7071C14.9271 20.8985 2.70296 27.8631 3.38677 28.8948C4.0638 29.916 15.2201 21.3579 16.2006 22.1351C17.1465 22.8852 11.3454 35.708 12.5376 36.1516Z" fill="#80CAE8" stroke="#382F32" stroke-width="0.5" stroke-miterlimit="10"/>
</g>
<path d="M19.1252 20.1273C20.0518 20.1273 20.803 19.376 20.803 18.4494C20.803 17.5227 20.0518 16.7715 19.1252 16.7715C18.1985 16.7715 17.4473 17.5227 17.4473 18.4494C17.4473 19.376 18.1985 20.1273 19.1252 20.1273Z" fill="#FFFEF6" stroke="#382F32" stroke-width="0.5" stroke-miterlimit="10"/>
</svg>
