<?xml version="1.0" encoding="UTF-8"?>
<svg id="Layer_1" data-name="Layer 1" xmlns="http://www.w3.org/2000/svg" viewBox="0 0 1080 1080">
  <defs>
    <style>
      .cls-1 {
        fill: #fae100;
        stroke: #382f32;
        stroke-miterlimit: 10;
        stroke-width: 3.22px;
      }

      .cls-2 {
        fill: #382f32;
      }

      .cls-3 {
        fill: #6ac075;
      }
    </style>
  </defs>
  <g>
    <path class="cls-1" d="M739.83,232.02c-.92-5.43-9.04-3.14-8.12,2.2,5.27,30.78-6.86,63.18-29.46,84.04-4.77,4.41-10.46,8.82-16.74,12.47-2.59-11.45-8.54-22.3-18.92-27.81-11.3-5.94-27.87-2.88-33.9,9.33-7.12,14.33,5.02,30.19,18.83,33.5,9.04,2.12,18.41.59,27.2-2.8,2.76-1.02,5.52-2.29,8.12-3.65,4.27-2.2,8.29-4.75,11.97-7.38,24.53-17.72,40.43-46.81,42.35-77.34.5-7.55-.08-15.09-1.34-22.56ZM655.87,337.94c-8.04-1.19-16.32-7.29-16.82-16.11-.5-7.97,6.78-12.8,13.9-13.4,14.4-1.19,22.1,12.89,24.69,26.12-7.12,2.97-14.56,4.49-21.76,3.39Z"/>
    <path class="cls-1" d="M686.84,339.3c-2.59,1.36-5.36,2.63-8.12,3.65.08.42.08.85.08,1.27.25,17.3-7.03,33.67-17.08,47.32-22.52,30.61-58.68,45.11-90.15,63.77-28.12,16.62-55.91,39.69-65.29,72.67-3.35,11.7-3.85,24.42-.67,36.21-6.03,12.21-6.7,26.54-4.52,40.19,3.1,19.16,12.22,36.63,18.83,54.78,6.19,17.04,12.89,34,17.33,51.64,7.37,29.09,9.88,65.13-18.58,83.44-6.11,3.99-12.72,6.61-19.75,8.4-5.19,1.36-3.01,9.5,2.26,8.14,13.56-3.48,26.45-10.26,35.49-21.28,8.54-10.52,12.97-23.57,13.89-37.06,1.26-17.47-2.68-35.7-7.53-52.32-5.36-18.23-12.05-36.38-19.17-53.93-7.45-18.49-16.24-37.31-15.65-57.75.08-4.16.75-8.4,2.01-12.55,6.44,11.87,18.16,20.86,31.97,20.52,12.56-.34,25.7-7.89,28.71-20.95,3.35-14.75-7.28-28.83-20.59-33.67-13.81-5.09-28.88,1.87-38.17,12.47-.84-7.8,0-15.94,2.01-23.32,4.52-16.45,14.73-30.78,26.7-42.57,27.2-26.71,64.28-39.35,95.09-60.97,27.04-18.83,52.23-48.84,51.14-84.04,0-1.36-.08-2.71-.25-4.07ZM536.51,549c15.32-2.8,34.74,14.92,23.6,30.27-9.29,12.8-28.04,10.09-37.58-.42-3.6-3.99-6.19-8.56-7.87-13.48,4.69-8.23,11.97-14.59,21.85-16.37Z"/>
  </g>
  <g>
    <path class="cls-3" d="M506.29,563.8c2.12-3.59,3.43-6.06,5.66-8.8"/>
    <path class="cls-2" d="M507.32,564.46l-2.47-1.53,1.03-1.76c1.59-2.72,2.85-4.88,4.77-7.25l2.38,1.81c-1.76,2.15-5.72,8.73-5.72,8.73Z"/>
  </g>
  <g>
    <path class="cls-3" d="M677.57,335.05c2.8-.98,5.41-2.26,7.88-3.8"/>
    <path class="cls-2" d="M677.96,336.19l-.94-2.75c2.59-.9,5.13-2.13,7.54-3.64l1.75,2.35c-2.63,1.65-5.54,3.04-8.36,4.03Z"/>
  </g>
</svg>