<svg width="50" height="48" viewBox="0 0 50 48" fill="none" xmlns="http://www.w3.org/2000/svg">
<path d="M16.1999 46.8514C17.7483 47.4272 22.9293 29.9086 24.4953 29.975C26.1181 30.0435 29.8161 47.916 31.347 47.4878C32.8935 47.0548 26.7955 29.8411 28.1338 28.9535C29.4593 28.0747 42.9573 40.3791 43.9662 39.1063C44.9398 37.8785 29.8943 27.5488 30.4701 26.0013C31.0459 24.4529 49.1843 26.4705 49.2498 24.9055C49.3182 23.2827 31.0596 23.7705 30.6314 22.2397C30.1984 20.6932 46.0659 11.6529 45.1783 10.3136C44.2995 8.98806 29.8181 20.0969 28.5453 19.0881C27.3175 18.1144 34.8476 1.46973 33.3001 0.893954C31.7517 0.318178 26.5707 17.8368 25.0047 17.7703C23.3819 17.7019 19.6839 -0.170594 18.153 0.257572C16.6065 0.690626 22.7045 17.9043 21.3662 18.7919C20.0407 19.6707 6.54267 7.3663 5.53384 8.63907C4.5602 9.86687 19.6057 20.1966 19.0299 21.7441C18.4541 23.2925 0.315688 21.2749 0.250192 22.8399C0.181763 24.4626 18.4404 23.9748 18.8686 25.5057C19.3016 27.0522 3.43407 36.0925 4.32168 37.4318C5.2005 38.7573 19.6819 27.6485 20.9547 28.6573C22.1825 29.6309 14.6524 46.2757 16.1999 46.8514Z" fill="#FEFDF5" stroke="#372F32" stroke-width="0.5" stroke-miterlimit="10"/>
</svg>
