<?xml version="1.0" encoding="UTF-8"?>
<svg id="Layer_1" data-name="Layer 1" xmlns="http://www.w3.org/2000/svg" viewBox="0 0 1080 1080">
  <defs>
    <style>
      .cls-1 {
        fill: #fffef6;
      }

      .cls-1, .cls-2, .cls-3, .cls-4, .cls-5, .cls-6 {
        stroke: #1b1818;
        stroke-linecap: round;
        stroke-linejoin: round;
        stroke-width: 2.76px;
      }

      .cls-2 {
        fill: #e97d8d;
      }

      .cls-3 {
        fill: #fde200;
      }

      .cls-4 {
        fill: #81cbe9;
      }

      .cls-5 {
        fill: #6cc075;
      }

      .cls-6 {
        fill: #e65225;
      }
    </style>
  </defs>
  <g>
    <path class="cls-1" d="M60.65,510.44c-1.06-2.92.26-5.3,3.44-5.83l37.88-7.42c2.65-.53,4.77.53,6.09,2.65,3.18,5.3,8.74,8.21,15.1,8.21s10.33-2.38,10.33-6.89c0-4.77-3.97-7.95-11.12-10.07l-6.62-1.85c-37.08-10.33-49.8-29.93-49.8-51.92,0-31.79,23.04-51.65,63.04-51.65,32.58,0,51.65,12.18,60.66,38.67,1.06,2.92-.26,5.03-3.44,5.56l-36.02,6.36c-2.65.53-4.5-.26-6.09-2.65-3.18-4.24-7.15-6.62-12.18-6.62s-8.21,2.38-8.21,6.36c0,4.5,3.71,7.68,12.19,10.07l6.62,1.85c37.35,10.33,49.79,28.87,49.79,52.97,0,35.76-27.81,51.65-65.69,51.65-33.64,0-56.95-12.98-65.95-39.47Z"/>
    <path class="cls-1" d="M145.14,373.24c-29.14,0-45.56-14.3-45.56-40v-14.57c0-2.92,1.85-4.77,4.77-4.77h41.85c2.92,0,4.77,1.85,4.77,4.77v6.36c0,5.56,2.91,8.48,8.48,8.48h51.38c2.92,0,4.77,1.85,4.77,4.77v30.19c0,2.92-1.85,4.77-4.77,4.77h-65.69Z"/>
    <path class="cls-1" d="M211.89,478.39v-84.23c0-3.18,1.59-4.77,4.77-4.77h49.8c3.18,0,4.77,1.59,4.77,4.77v83.17c0,14.3,6.09,22.25,16.69,22.25s16.69-7.95,16.69-22.25v-83.17c0-3.18,1.59-4.77,4.77-4.77h49.8c3.18,0,4.77,1.59,4.77,4.77v84.23c0,45.56-27.55,71.52-76.02,71.52s-76.02-25.96-76.02-71.52Z"/>
  </g>
  <path class="cls-2" d="M399.41,546.2c-2.92,0-4.77-1.85-4.77-4.77v-147.27c0-3.18,1.59-4.77,4.77-4.77h49.79c3.18,0,4.77,1.59,4.77,4.77v147.27c0,2.92-1.85,4.77-4.77,4.77h-49.79Z"/>
  <path class="cls-2" d="M672.22,389.39c3.18,0,4.77,1.85,3.97,5.3l-34.43,147.27c-.79,2.91-2.65,4.24-5.3,4.24h-34.96c-2.65,0-4.5-1.06-5.3-3.97l-21.46-80.52-22.51,80.52c-.79,2.92-2.65,3.97-5.3,3.97h-34.97c-2.65,0-4.5-1.33-5.3-4.24l-34.43-147.27c-.79-3.44.79-5.3,3.97-5.3h47.41c2.92,0,4.77,1.59,5.3,4.24l12.45,68.87,14.04-68.87c.53-2.65,2.12-4.24,5.03-4.24h28.6c2.92,0,4.5,1.59,5.03,4.24l14.57,68.87,11.92-68.87c.53-2.65,2.38-4.24,5.3-4.24h46.35Z"/>
  <path class="cls-2" d="M647.83,312.85c2.92,0,4.77,1.85,4.77,4.77v35.49c0,13.24-8.48,20.13-21.72,20.13h-110.72c-2.92,0-4.77-1.85-4.77-4.77v-30.19c0-2.92,1.85-4.77,4.77-4.77h46.09v-15.89c0-2.91,1.85-4.77,4.77-4.77h27.02c2.92,0,4.77,1.85,4.77,4.77v19.07h11.66v-19.07c0-2.91,1.85-4.77,4.77-4.77h28.61Z"/>
  <path class="cls-2" d="M608.1,299.86c-2.91,0-4.77-1.85-4.77-4.77v-42.38c0-2.92,1.85-4.77,4.77-4.77h37.61c2.91,0,4.77,1.85,4.77,4.77v42.38c0,2.91-1.85,4.77-4.77,4.77h-37.61Z"/>
  <path class="cls-2" d="M832.58,422.77c29.06,40.43,21.68,83.26-19.41,112.78-38.28,27.52-79.47,22.87-104.51-11.98l-11.44-15.92c-1.7-2.37-1.28-4.96,1.09-6.66l56.35-40.5c2.36-1.7,4.95-1.28,6.66,1.09l15.15,21.08c1.7,2.37,1.28,4.96-1.09,6.66l-15.06,10.82c6.88,5.49,15.41,5.56,22.94.15,12.26-8.81,12.06-24.98-.62-42.61-12.68-17.64-28.46-23.26-40.93-14.29-6.24,4.48-9.61,11.14-9.55,18.93.04,3.23-.78,4.81-3.4,5.71l-41.65,15.58c-2.83,1.05-5.3-.11-5.92-3.25-6.03-29.27,6.24-56.67,35.06-77.39,41.51-29.84,86.02-22.36,116.32,19.8Z"/>
  <path class="cls-2" d="M868.72,495.61v-101.45c0-3.18,1.59-4.77,4.77-4.77h49.8c3.18,0,4.77,1.59,4.77,4.77v81.05c0,18.28,4.24,24.37,15.63,24.37s16.69-9.27,16.69-26.22v-79.2c0-3.18,1.59-4.77,4.77-4.77h49.79c3.18,0,4.77,1.59,4.77,4.77v147.27c0,2.92-1.85,4.77-4.77,4.77h-40.52c-2.92,0-4.5-1.33-4.77-4.5l-.79-11.12c-10.6,12.98-25.43,19.33-45.03,19.33-35.49,0-55.09-20.4-55.09-54.3Z"/>
  <g>
    <path class="cls-1" d="M151.2,668.34c46.09,0,71.52,23.57,71.52,66.22v85.82c0,2.92-1.86,4.77-4.77,4.77h-49.8c-2.91,0-4.77-1.85-4.77-4.77v-85.82c0-11.39-6.09-16.95-19.07-16.95h-13.77v102.77c0,2.92-1.85,4.77-4.77,4.77h-49.8c-2.91,0-4.77-1.85-4.77-4.77v-147.27c0-2.92,1.85-4.77,4.77-4.77h75.23Z"/>
    <path class="cls-1" d="M230.64,615.09c2.92,0,4.77,1.85,4.77,4.77v27.55c0,2.92-2.38,4.77-4.77,4.77h-83.17c-2.38,0-4.77-1.85-4.77-4.77v-23.04h-13.78c-2.91,0-4.77-1.85-4.77-4.77v-30.73c0-2.91,1.85-4.77,4.77-4.77h35.49c16.95,0,26.49,9.53,26.49,26.49v4.5h39.73Z"/>
    <path class="cls-1" d="M312.76,825.14c-2.91,0-4.77-1.85-4.77-4.77v-94.3c0-6.89-3.18-11.12-8.48-11.12-3.18,0-5.56,1.59-7.41,5.03-1.59,2.91-3.18,3.97-6.09,3.18l-42.11-11.39c-3.18-.79-4.24-3.18-3.44-5.83,8.48-25.16,33.64-41.32,64.37-41.32,38.14,0,62.51,25.43,62.51,65.16v90.59c0,2.92-1.85,4.77-4.77,4.77h-49.8Z"/>
    <path class="cls-1" d="M416.02,805.77c-2.16-2.57-2.07-5.21.77-7.49l41.71-34.12c2.31-2.04,4.67-1.83,7.49.77,7.93,7.38,15.78,9.61,22.73,6.4,11.24-5.18,12.82-21.47,3.95-40.75-9.12-19.81-22.55-28.55-35.13-22.76-8.3,3.82-12.53,12.25-11.72,23.88.28,3.44-1.24,5.76-4.55,6.31l-51.61,9.8c-3.58.68-5.76-1.24-6.31-4.55-4.96-38.26,13.84-69.3,52.66-87.16,49.25-22.67,94.7-4.98,118.23,46.14,23.65,51.39,7.68,97.03-42.11,119.94-38.01,17.49-72.23,11.51-96.11-16.42Z"/>
  </g>
  <path class="cls-6" d="M646.47,655.36v165.02c0,2.92-1.85,4.77-4.76,4.77h-49.8c-2.92,0-4.77-1.85-4.77-4.77v-176.67c0-2.91,1.85-4.77,4.77-4.77h6.36c12.45,0,18.54-6.09,18.54-15.89,0-8.21-5.3-11.92-11.92-11.92-5.03,0-8.74,2.38-11.66,7.15-1.33,2.38-3.44,3.18-6.09,2.65l-33.63-7.68c-2.92-.79-4.5-2.91-3.45-5.83,9.27-24.1,30.2-38.67,60.39-38.67,34.7,0,57.74,18.28,57.74,48.74,0,17.48-7.68,30.99-21.72,37.88Z"/>
  <path class="cls-3" d="M834.53,819.58c1.33,3.18,0,5.56-3.44,5.56h-54.04c-2.65,0-4.77-1.33-5.56-3.71l-18.81-59.33h-16.16v58.27c0,2.92-1.85,4.77-4.77,4.77h-49.79c-2.92,0-4.77-1.85-4.77-4.77v-147.27c0-2.92,1.85-4.77,4.77-4.77h47.15c2.91,0,4.77,1.85,4.77,4.77v41.32h18.01c12.98,0,19.07-5.3,19.07-16.42v-24.9c0-2.92,1.85-4.77,4.77-4.77h48.74c2.92,0,4.77,1.85,4.77,4.77v31.25c0,19.07-7.68,34.17-21.46,43.97l26.75,71.25Z"/>
  <path class="cls-4" d="M908.67,809.52l-.79,11.12c-.26,3.18-1.85,4.5-4.77,4.5h-40.53c-2.92,0-4.77-1.85-4.77-4.77v-147.27c0-3.18,1.59-4.77,4.77-4.77h49.8c3.17,0,4.76,1.59,4.76,4.77v79.2c0,17.75,5.3,26.22,16.69,26.22s15.63-6.36,15.63-24.37v-81.05c0-3.18,1.59-4.77,4.77-4.77h49.8c3.18,0,4.76,1.59,4.76,4.77v99.33c0,35.76-20.4,56.42-55.09,56.42-19.6,0-34.43-6.36-45.03-19.33Z"/>
  <path class="cls-5" d="M956.87,652.18c-2.91,0-4.77-1.85-4.77-4.77v-52.45c0-2.91,1.86-4.77,4.77-4.77h44.5c2.91,0,4.76,1.85,4.76,4.77v52.45c0,2.92-1.85,4.77-4.76,4.77h-44.5Z"/>
</svg>