<?xml version="1.0" encoding="UTF-8"?>
<svg id="Layer_1" data-name="Layer 1" xmlns="http://www.w3.org/2000/svg" viewBox="0 0 1080 1080">
  <defs>
    <style>
      .cls-1 {
        fill: #e65325;
      }

      .cls-1, .cls-2 {
        stroke: #382f32;
        stroke-miterlimit: 10;
        stroke-width: 5.01px;
      }

      .cls-2 {
        fill: #fae100;
      }
    </style>
  </defs>
  <path class="cls-1" d="M498.43,382.01l-.02.07c-.34.93-1.5,1.25-2.27.63l-.08-.07c-30.22-24.3-74.52,1.3-68.54,39.62l.41,2.64c.15.96-.67,1.8-1.64,1.66l-2.65-.38c-37.87-5.36-62.96,38.17-39.33,68.25l3.21,4.09c.59.75.31,1.86-.57,2.23l-4.77,2.02c-34.97,14.84-34.33,64.62,1.01,78.56l4.75,1.87c.89.35,1.2,1.45.63,2.22l-3.07,4.11c-22.89,30.67,3.31,73.59,41.05,67.25l2.5-.42c.96-.16,1.81.65,1.68,1.62l-.33,2.5c-5.06,38.47,39.9,63,69.51,37.92l.02-.02c.76-.64,1.92-.35,2.29.58h0c14.3,36.33,65.94,35.7,79.35-.96l.02-.07c.34-.93,1.5-1.25,2.27-.63l.08.07c30.22,24.31,74.52-1.3,68.54-39.62l-.41-2.64c-.15-.96.67-1.8,1.64-1.66l2.65.38c37.87,5.36,62.96-38.17,39.33-68.25l-3.21-4.09c-.59-.75-.31-1.86.57-2.23l4.77-2.02c34.97-14.84,34.33-64.62-1.01-78.56l-4.75-1.87c-.89-.35-1.2-1.45-.63-2.22l3.07-4.11c22.89-30.67-3.31-73.59-41.05-67.25l-2.5.42c-.96.16-1.81-.65-1.68-1.62l.33-2.5c5.06-38.47-39.9-63-69.51-37.92l-.02.02c-.76.64-1.92.35-2.29-.58h0c-14.3-36.33-65.94-35.7-79.35.96Z"/>
  <path class="cls-2" d="M540,571.31c-38.81,0-38.87-62.61,0-62.61s38.87,62.61,0,62.61h0Z"/>
</svg>