<svg width="24" height="24" viewBox="0 0 24 24" fill="none" xmlns="http://www.w3.org/2000/svg">
<path d="M18.95 22C16.8667 22 14.8083 21.546 12.775 20.638C10.7417 19.73 8.89167 18.4423 7.225 16.775C5.55833 15.1077 4.271 13.2577 3.363 11.225C2.455 9.19233 2.00067 7.134 2 5.05C2 4.75 2.1 4.5 2.3 4.3C2.5 4.1 2.75 4 3.05 4H7.1C7.33333 4 7.54167 4.07933 7.725 4.238C7.90833 4.39667 8.01667 4.584 8.05 4.8L8.7 8.3C8.73333 8.56667 8.725 8.79167 8.675 8.975C8.625 9.15833 8.53333 9.31667 8.4 9.45L5.975 11.9C6.30833 12.5167 6.704 13.1127 7.162 13.688C7.62 14.2633 8.12433 14.8173 8.675 15.35C9.19167 15.8667 9.73333 16.346 10.3 16.788C10.8667 17.23 11.4667 17.634 12.1 18L14.45 15.65C14.6 15.5 14.796 15.3877 15.038 15.313C15.28 15.2383 15.5173 15.2173 15.75 15.25L19.2 15.95C19.4333 16.0167 19.625 16.1377 19.775 16.313C19.925 16.4883 20 16.684 20 16.9V20.95C20 21.25 19.9 21.5 19.7 21.7C19.5 21.9 19.25 22 18.95 22ZM13.463 10.538C12.4877 9.56267 12 8.38333 12 7C12 5.61667 12.4877 4.43767 13.463 3.463C14.4383 2.48833 15.6173 2.00067 17 2C18.3827 1.99933 19.562 2.487 20.538 3.463C21.514 4.439 22.0013 5.618 22 7C21.9987 8.382 21.511 9.56133 20.537 10.538C19.563 11.5147 18.384 12.002 17 12C15.616 11.998 14.437 11.5103 13.463 10.537M17.35 9.85C17.45 9.75 17.5 9.63333 17.5 9.5V6.5C17.5 6.36667 17.45 6.25 17.35 6.15C17.25 6.05 17.1333 6 17 6C16.8667 6 16.75 6.05 16.65 6.15C16.55 6.25 16.5 6.36667 16.5 6.5V9.5C16.5 9.63333 16.55 9.75 16.65 9.85C16.75 9.95 16.8667 10 17 10C17.1333 10 17.25 9.95 17.35 9.85ZM17.35 4.85C17.45 4.75 17.5 4.63333 17.5 4.5C17.5 4.36667 17.45 4.25 17.35 4.15C17.25 4.05 17.1333 4 17 4C16.8667 4 16.75 4.05 16.65 4.15C16.55 4.25 16.5 4.36667 16.5 4.5C16.5 4.63333 16.55 4.75 16.65 4.85C16.75 4.95 16.8667 5 17 5C17.1333 5 17.25 4.95 17.35 4.85Z" fill="#E65325"/>
</svg>
