<svg width="393" height="53" viewBox="0 0 393 53" fill="none" xmlns="http://www.w3.org/2000/svg">
<g filter="url(#filter0_n_2117_43452)">
<mask id="path-1-inside-1_2117_43452" fill="white">
<path d="M21.7314 38.0567C21.7314 38.0739 21.7175 38.0878 21.7004 38.0878C21.6843 38.0878 21.6708 38.1002 21.6694 38.1163C20.9625 46.1314 14.2329 52.4169 6.03418 52.4169C-2.16454 52.4169 -8.89411 46.1314 -9.60103 38.1163C-9.60244 38.1002 -9.61589 38.0878 -9.63202 38.0878C-9.64918 38.0878 -9.66309 38.0739 -9.66309 38.0567V-25.5831C-9.66309 -32.2105 -4.2905 -37.5831 2.33691 -37.5831H9.73145C16.3589 -37.5831 21.7314 -32.2105 21.7314 -25.5831V38.0567Z"/>
</mask>
<path d="M21.7314 38.0567C21.7314 38.0739 21.7175 38.0878 21.7004 38.0878C21.6843 38.0878 21.6708 38.1002 21.6694 38.1163C20.9625 46.1314 14.2329 52.4169 6.03418 52.4169C-2.16454 52.4169 -8.89411 46.1314 -9.60103 38.1163C-9.60244 38.1002 -9.61589 38.0878 -9.63202 38.0878C-9.64918 38.0878 -9.66309 38.0739 -9.66309 38.0567V-25.5831C-9.66309 -32.2105 -4.2905 -37.5831 2.33691 -37.5831H9.73145C16.3589 -37.5831 21.7314 -32.2105 21.7314 -25.5831V38.0567Z" fill="#E75124"/>
<path d="M6.03418 52.4169L6.03418 53.4169H6.03418V52.4169ZM-9.60103 38.1163L-10.5972 38.2041L-9.60103 38.1163ZM21.6694 38.1163L22.6655 38.2041L21.6694 38.1163ZM21.6694 38.1163L20.6733 38.0284C20.0114 45.532 13.71 51.4169 6.03418 51.4169V52.4169V53.4169C14.7558 53.4169 21.9135 46.7308 22.6655 38.2041L21.6694 38.1163ZM6.03418 52.4169L6.03418 51.4169C-1.64161 51.4169 -7.94309 45.532 -8.60489 38.0284L-9.60103 38.1163L-10.5972 38.2041C-9.84512 46.7308 -2.68746 53.4169 6.03418 53.4169L6.03418 52.4169ZM-9.66309 38.0567H-8.66309V-25.5831H-9.66309H-10.6631V38.0567H-9.66309ZM2.33691 -37.5831V-36.5831H9.73145V-37.5831V-38.5831H2.33691V-37.5831ZM21.7314 -25.5831H20.7314V38.0567H21.7314H22.7314V-25.5831H21.7314ZM9.73145 -37.5831V-36.5831C15.8066 -36.5831 20.7314 -31.6583 20.7314 -25.5831H21.7314H22.7314C22.7314 -32.7628 16.9111 -38.5831 9.73145 -38.5831V-37.5831ZM-9.63202 38.0878V37.0878C-9.09689 37.0878 -8.66309 37.5216 -8.66309 38.0567H-9.66309H-10.6631C-10.6631 38.6261 -10.2015 39.0878 -9.63202 39.0878V38.0878ZM-9.60103 38.1163L-8.60489 38.0284C-8.65129 37.5024 -9.09143 37.0878 -9.63202 37.0878V38.0878V39.0878C-10.1404 39.0878 -10.5536 38.6981 -10.5972 38.2041L-9.60103 38.1163ZM21.7004 38.0878V37.0878C21.1598 37.0878 20.7197 37.5024 20.6733 38.0284L21.6694 38.1163L22.6655 38.2041C22.622 38.6981 22.2087 39.0878 21.7004 39.0878V38.0878ZM-9.66309 -25.5831H-8.66309C-8.66309 -31.6583 -3.73822 -36.5831 2.33691 -36.5831V-37.5831V-38.5831C-4.84279 -38.5831 -10.6631 -32.7628 -10.6631 -25.5831H-9.66309ZM21.7004 38.0878V39.0878C22.2697 39.0878 22.7314 38.6262 22.7314 38.0567H21.7314H20.7314C20.7314 37.5215 21.1653 37.0878 21.7004 37.0878V38.0878Z" fill="black" mask="url(#path-1-inside-1_2117_43452)"/>
<mask id="path-3-inside-2_2117_43452" fill="white">
<path d="M197.546 38.0562C197.546 38.0736 197.532 38.0878 197.514 38.0878C197.498 38.0878 197.484 38.1004 197.483 38.1168C196.776 46.1314 190.047 52.4166 181.849 52.4169C173.65 52.4169 166.921 46.1316 166.213 38.1168C166.212 38.1004 166.198 38.0878 166.182 38.0878C166.165 38.0878 166.15 38.0736 166.15 38.0562V-25.5831C166.15 -32.2105 171.523 -37.5831 178.15 -37.5831H185.546C192.173 -37.5831 197.546 -32.2105 197.546 -25.5831V38.0562Z"/>
</mask>
<path d="M197.546 38.0562C197.546 38.0736 197.532 38.0878 197.514 38.0878C197.498 38.0878 197.484 38.1004 197.483 38.1168C196.776 46.1314 190.047 52.4166 181.849 52.4169C173.65 52.4169 166.921 46.1316 166.213 38.1168C166.212 38.1004 166.198 38.0878 166.182 38.0878C166.165 38.0878 166.15 38.0736 166.15 38.0562V-25.5831C166.15 -32.2105 171.523 -37.5831 178.15 -37.5831H185.546C192.173 -37.5831 197.546 -32.2105 197.546 -25.5831V38.0562Z" fill="#E75124"/>
<path d="M181.849 52.4169V53.4169H181.849L181.849 52.4169ZM166.213 38.1168L167.21 38.0289L166.213 38.1168ZM197.483 38.1168L198.479 38.2046L197.483 38.1168ZM197.483 38.1168L196.487 38.0289C195.825 45.5321 189.524 51.4166 181.849 51.4169L181.849 52.4169L181.849 53.4169C190.57 53.4166 197.727 46.7308 198.479 38.2046L197.483 38.1168ZM181.849 52.4169V51.4169C174.173 51.4169 167.872 45.5322 167.21 38.0289L166.213 38.1168L165.217 38.2046C165.97 46.731 173.127 53.4169 181.849 53.4169V52.4169ZM166.15 38.0562H167.15V-25.5831H166.15H165.15V38.0562H166.15ZM178.15 -37.5831V-36.5831H185.546V-37.5831V-38.5831H178.15V-37.5831ZM197.546 -25.5831H196.546V38.0562H197.546H198.546V-25.5831H197.546ZM185.546 -37.5831V-36.5831C191.621 -36.5831 196.546 -31.6583 196.546 -25.5831H197.546H198.546C198.546 -32.7628 192.726 -38.5831 185.546 -38.5831V-37.5831ZM166.182 38.0878V37.0878C166.717 37.0878 167.15 37.5213 167.15 38.0562H166.15H165.15C165.15 38.6259 165.612 39.0878 166.182 39.0878V38.0878ZM166.213 38.1168L167.21 38.0289C167.163 37.5026 166.723 37.0878 166.182 37.0878V38.0878V39.0878C165.674 39.0878 165.261 38.6983 165.217 38.2046L166.213 38.1168ZM197.514 38.0878V37.0878C196.973 37.0878 196.533 37.5026 196.487 38.0289L197.483 38.1168L198.479 38.2046C198.435 38.6983 198.022 39.0878 197.514 39.0878V38.0878ZM166.15 -25.5831H167.15C167.15 -31.6583 172.075 -36.5831 178.15 -36.5831V-37.5831V-38.5831C170.971 -38.5831 165.15 -32.7628 165.15 -25.5831H166.15ZM197.514 38.0878V39.0878C198.084 39.0878 198.546 38.626 198.546 38.0562H197.546H196.546C196.546 37.5213 196.98 37.0878 197.514 37.0878V38.0878Z" fill="black" mask="url(#path-3-inside-2_2117_43452)"/>
<mask id="path-5-inside-3_2117_43452" fill="white">
<path d="M80.3359 36.6512C80.336 36.6739 80.3369 36.6969 80.3369 36.7196C80.3369 36.7421 80.336 36.7645 80.3359 36.787V38.0567C80.3359 38.0739 80.322 38.0878 80.3049 38.0878C80.2887 38.0878 80.2753 38.1002 80.2739 38.1163C79.5669 46.1314 72.8374 52.4169 64.6387 52.4169C56.4402 52.4168 49.7117 46.1315 49.0045 38.1168C49.003 38.1004 48.9894 38.0878 48.973 38.0878C48.9555 38.0878 48.9414 38.0736 48.9414 38.0562V-25.5831C48.9414 -32.2105 54.314 -37.5831 60.9414 -37.5831H68.3359C74.9634 -37.5831 80.3359 -32.2105 80.3359 -25.5831V36.6512Z"/>
</mask>
<path d="M80.3359 36.6512C80.336 36.6739 80.3369 36.6969 80.3369 36.7196C80.3369 36.7421 80.336 36.7645 80.3359 36.787V38.0567C80.3359 38.0739 80.322 38.0878 80.3049 38.0878C80.2887 38.0878 80.2753 38.1002 80.2739 38.1163C79.5669 46.1314 72.8374 52.4169 64.6387 52.4169C56.4402 52.4168 49.7117 46.1315 49.0045 38.1168C49.003 38.1004 48.9894 38.0878 48.973 38.0878C48.9555 38.0878 48.9414 38.0736 48.9414 38.0562V-25.5831C48.9414 -32.2105 54.314 -37.5831 60.9414 -37.5831H68.3359C74.9634 -37.5831 80.3359 -32.2105 80.3359 -25.5831V36.6512Z" fill="#E75124"/>
<path d="M80.3359 36.6512H79.3359L79.3359 36.6555L80.3359 36.6512ZM80.3369 36.7196L81.3369 36.7196V36.7196H80.3369ZM80.3359 36.787L79.3359 36.7828V36.787H80.3359ZM64.6387 52.4169L64.6387 53.4169H64.6387V52.4169ZM49.0045 38.1168L48.0084 38.2046L49.0045 38.1168ZM80.2739 38.1163L81.27 38.2041L80.2739 38.1163ZM80.3359 36.6512L79.3359 36.6555C79.336 36.6765 79.3365 36.6968 79.3367 36.7057C79.3369 36.7179 79.3369 36.7198 79.3369 36.7196H80.3369H81.3369C81.3369 36.6968 81.3365 36.6758 81.3363 36.6651C81.3361 36.6585 81.336 36.655 81.336 36.6514C81.336 36.6499 81.3359 36.6488 81.3359 36.648C81.3359 36.6473 81.3359 36.647 81.3359 36.647L80.3359 36.6512ZM80.3369 36.7196L79.3369 36.7196C79.3369 36.7191 79.3369 36.7207 79.3367 36.7326C79.3365 36.7414 79.336 36.7616 79.3359 36.7828L80.3359 36.787L81.3359 36.7912C81.3359 36.7913 81.3359 36.7903 81.336 36.7872C81.336 36.7839 81.3361 36.7804 81.3362 36.774C81.3365 36.7634 81.3369 36.7425 81.3369 36.7196L80.3369 36.7196ZM80.3359 36.787H79.3359V38.0567H80.3359H81.3359V36.787H80.3359ZM80.2739 38.1163L79.2777 38.0284C78.6159 45.532 72.3145 51.4169 64.6387 51.4169V52.4169V53.4169C73.3603 53.4169 80.518 46.7308 81.27 38.2041L80.2739 38.1163ZM64.6387 52.4169L64.6387 51.4169C56.9632 51.4168 50.6627 45.5322 50.0006 38.0289L49.0045 38.1168L48.0084 38.2046C48.7606 46.7309 55.9172 53.4168 64.6387 53.4169L64.6387 52.4169ZM48.9414 38.0562H49.9414V-25.5831H48.9414H47.9414V38.0562H48.9414ZM60.9414 -37.5831V-36.5831H68.3359V-37.5831V-38.5831H60.9414V-37.5831ZM80.3359 -25.5831H79.3359V36.6512H80.3359H81.3359V-25.5831H80.3359ZM68.3359 -37.5831V-36.5831C74.4111 -36.5831 79.3359 -31.6583 79.3359 -25.5831H80.3359H81.3359C81.3359 -32.7628 75.5156 -38.5831 68.3359 -38.5831V-37.5831ZM48.973 38.0878V37.0878C49.5078 37.0878 49.9414 37.5213 49.9414 38.0562H48.9414H47.9414C47.9414 38.6259 48.4033 39.0878 48.973 39.0878V38.0878ZM49.0045 38.1168L50.0006 38.0289C49.9542 37.5026 49.5138 37.0878 48.973 37.0878V38.0878V39.0878C48.4649 39.0878 48.0519 38.6983 48.0084 38.2046L49.0045 38.1168ZM80.3049 38.0878V37.0878C79.7643 37.0878 79.3241 37.5024 79.2777 38.0284L80.2739 38.1163L81.27 38.2041C81.2264 38.6981 80.8132 39.0878 80.3049 39.0878V38.0878ZM48.9414 -25.5831H49.9414C49.9414 -31.6583 54.8663 -36.5831 60.9414 -36.5831V-37.5831V-38.5831C53.7617 -38.5831 47.9414 -32.7628 47.9414 -25.5831H48.9414ZM80.3359 38.0567H79.3359C79.3359 37.5216 79.7697 37.0878 80.3049 37.0878V38.0878V39.0878C80.8743 39.0878 81.3359 38.6261 81.3359 38.0567H80.3359Z" fill="black" mask="url(#path-5-inside-3_2117_43452)"/>
<mask id="path-7-inside-4_2117_43452" fill="white">
<path d="M256.151 38.0562C256.151 38.0736 256.137 38.0878 256.12 38.0878C256.103 38.0878 256.09 38.1004 256.088 38.1168C255.381 46.1315 248.653 52.4167 240.454 52.4169C232.256 52.4169 225.526 46.1316 224.819 38.1168C224.817 38.1004 224.804 38.0878 224.787 38.0878C224.77 38.0878 224.756 38.0736 224.756 38.0562V-25.5831C224.756 -32.2105 230.128 -37.5831 236.756 -37.5831H244.151C250.779 -37.5831 256.151 -32.2105 256.151 -25.5831V38.0562Z"/>
</mask>
<path d="M256.151 38.0562C256.151 38.0736 256.137 38.0878 256.12 38.0878C256.103 38.0878 256.09 38.1004 256.088 38.1168C255.381 46.1315 248.653 52.4167 240.454 52.4169C232.256 52.4169 225.526 46.1316 224.819 38.1168C224.817 38.1004 224.804 38.0878 224.787 38.0878C224.77 38.0878 224.756 38.0736 224.756 38.0562V-25.5831C224.756 -32.2105 230.128 -37.5831 236.756 -37.5831H244.151C250.779 -37.5831 256.151 -32.2105 256.151 -25.5831V38.0562Z" fill="#E75124"/>
<path d="M240.454 52.4169V53.4169H240.454L240.454 52.4169ZM224.819 38.1168L225.815 38.0289L224.819 38.1168ZM256.088 38.1168L257.084 38.2046L256.088 38.1168ZM256.088 38.1168L255.092 38.0289C254.43 45.5321 248.13 51.4167 240.454 51.4169L240.454 52.4169L240.454 53.4169C249.175 53.4167 256.332 46.7308 257.084 38.2046L256.088 38.1168ZM240.454 52.4169V51.4169C232.778 51.4169 226.477 45.5322 225.815 38.0289L224.819 38.1168L223.823 38.2046C224.575 46.731 231.733 53.4169 240.454 53.4169V52.4169ZM224.756 38.0562H225.756V-25.5831H224.756H223.756V38.0562H224.756ZM236.756 -37.5831V-36.5831H244.151V-37.5831V-38.5831H236.756V-37.5831ZM256.151 -25.5831H255.151V38.0562H256.151H257.151V-25.5831H256.151ZM244.151 -37.5831V-36.5831C250.226 -36.5831 255.151 -31.6583 255.151 -25.5831H256.151H257.151C257.151 -32.7628 251.331 -38.5831 244.151 -38.5831V-37.5831ZM224.787 38.0878V37.0878C225.322 37.0878 225.756 37.5213 225.756 38.0562H224.756H223.756C223.756 38.6259 224.218 39.0878 224.787 39.0878V38.0878ZM224.819 38.1168L225.815 38.0289C225.769 37.5026 225.328 37.0878 224.787 37.0878V38.0878V39.0878C224.279 39.0878 223.866 38.6983 223.823 38.2046L224.819 38.1168ZM256.12 38.0878V37.0878C255.579 37.0878 255.139 37.5026 255.092 38.0289L256.088 38.1168L257.084 38.2046C257.041 38.6983 256.628 39.0878 256.12 39.0878V38.0878ZM224.756 -25.5831H225.756C225.756 -31.6583 230.681 -36.5831 236.756 -36.5831V-37.5831V-38.5831C229.576 -38.5831 223.756 -32.7628 223.756 -25.5831H224.756ZM256.12 38.0878V39.0878C256.689 39.0878 257.151 38.626 257.151 38.0562H256.151H255.151C255.151 37.5213 255.585 37.0878 256.12 37.0878V38.0878Z" fill="black" mask="url(#path-7-inside-4_2117_43452)"/>
<mask id="path-9-inside-5_2117_43452" fill="white">
<path d="M138.941 38.0562C138.941 38.0736 138.927 38.0878 138.91 38.0878C138.893 38.0878 138.88 38.1004 138.878 38.1168C138.171 46.1316 131.442 52.4169 123.243 52.4169C115.045 52.4167 108.316 46.1315 107.609 38.1168C107.608 38.1004 107.594 38.0878 107.577 38.0878C107.56 38.0878 107.546 38.0736 107.546 38.0562V-25.5831C107.546 -32.2105 112.918 -37.5831 119.546 -37.5831H126.941C133.569 -37.5831 138.941 -32.2105 138.941 -25.5831V38.0562Z"/>
</mask>
<path d="M138.941 38.0562C138.941 38.0736 138.927 38.0878 138.91 38.0878C138.893 38.0878 138.88 38.1004 138.878 38.1168C138.171 46.1316 131.442 52.4169 123.243 52.4169C115.045 52.4167 108.316 46.1315 107.609 38.1168C107.608 38.1004 107.594 38.0878 107.577 38.0878C107.56 38.0878 107.546 38.0736 107.546 38.0562V-25.5831C107.546 -32.2105 112.918 -37.5831 119.546 -37.5831H126.941C133.569 -37.5831 138.941 -32.2105 138.941 -25.5831V38.0562Z" fill="#E75124"/>
<path d="M123.243 52.4169L123.243 53.4169H123.243V52.4169ZM107.609 38.1168L106.613 38.2046L107.609 38.1168ZM138.878 38.1168L139.874 38.2046L138.878 38.1168ZM138.878 38.1168L137.882 38.0289C137.22 45.5322 130.919 51.4169 123.243 51.4169V52.4169V53.4169C131.965 53.4169 139.122 46.731 139.874 38.2046L138.878 38.1168ZM123.243 52.4169L123.243 51.4169C115.568 51.4167 109.267 45.5321 108.605 38.0289L107.609 38.1168L106.613 38.2046C107.365 46.7308 114.522 53.4167 123.243 53.4169L123.243 52.4169ZM107.546 38.0562H108.546V-25.5831H107.546H106.546V38.0562H107.546ZM119.546 -37.5831V-36.5831H126.941V-37.5831V-38.5831H119.546V-37.5831ZM138.941 -25.5831H137.941V38.0562H138.941H139.941V-25.5831H138.941ZM126.941 -37.5831V-36.5831C133.017 -36.5831 137.941 -31.6583 137.941 -25.5831H138.941H139.941C139.941 -32.7628 134.121 -38.5831 126.941 -38.5831V-37.5831ZM107.577 38.0878V37.0878C108.112 37.0878 108.546 37.5213 108.546 38.0562H107.546H106.546C106.546 38.6259 107.008 39.0878 107.577 39.0878V38.0878ZM107.609 38.1168L108.605 38.0289C108.559 37.5026 108.118 37.0878 107.577 37.0878V38.0878V39.0878C107.069 39.0878 106.656 38.6983 106.613 38.2046L107.609 38.1168ZM138.91 38.0878V37.0878C138.369 37.0878 137.929 37.5026 137.882 38.0289L138.878 38.1168L139.874 38.2046C139.831 38.6983 139.418 39.0878 138.91 39.0878V38.0878ZM107.546 -25.5831H108.546C108.546 -31.6583 113.471 -36.5831 119.546 -36.5831V-37.5831V-38.5831C112.366 -38.5831 106.546 -32.7628 106.546 -25.5831H107.546ZM138.91 38.0878V39.0878C139.479 39.0878 139.941 38.626 139.941 38.0562H138.941H137.941C137.941 37.5213 138.375 37.0878 138.91 37.0878V38.0878Z" fill="black" mask="url(#path-9-inside-5_2117_43452)"/>
<mask id="path-11-inside-6_2117_43452" fill="white">
<path d="M314.756 38.0562C314.756 38.0736 314.742 38.0878 314.724 38.0878C314.708 38.0878 314.694 38.1004 314.693 38.1168C313.986 46.1315 307.257 52.4168 299.059 52.4169C290.86 52.4169 284.131 46.1316 283.423 38.1168C283.422 38.1004 283.408 38.0878 283.392 38.0878C283.374 38.0878 283.36 38.0736 283.36 38.0562V-25.5831C283.36 -32.2105 288.733 -37.5831 295.36 -37.5831H302.756C309.383 -37.5831 314.756 -32.2105 314.756 -25.5831V38.0562Z"/>
</mask>
<path d="M314.756 38.0562C314.756 38.0736 314.742 38.0878 314.724 38.0878C314.708 38.0878 314.694 38.1004 314.693 38.1168C313.986 46.1315 307.257 52.4168 299.059 52.4169C290.86 52.4169 284.131 46.1316 283.423 38.1168C283.422 38.1004 283.408 38.0878 283.392 38.0878C283.374 38.0878 283.36 38.0736 283.36 38.0562V-25.5831C283.36 -32.2105 288.733 -37.5831 295.36 -37.5831H302.756C309.383 -37.5831 314.756 -32.2105 314.756 -25.5831V38.0562Z" fill="#E75124"/>
<path d="M299.059 52.4169V53.4169H299.059L299.059 52.4169ZM283.423 38.1168L284.42 38.0289V38.0289L283.423 38.1168ZM314.693 38.1168L313.697 38.0289L314.693 38.1168ZM314.693 38.1168L313.697 38.0289C313.035 45.5322 306.734 51.4168 299.059 51.4169L299.059 52.4169L299.059 53.4169C307.78 53.4168 314.937 46.7309 315.689 38.2046L314.693 38.1168ZM299.059 52.4169V51.4169C291.383 51.4169 285.082 45.5322 284.42 38.0289L283.423 38.1168L282.427 38.2046C283.18 46.731 290.337 53.4169 299.059 53.4169V52.4169ZM283.36 38.0562H284.36V-25.5831H283.36H282.36V38.0562H283.36ZM295.36 -37.5831V-36.5831H302.756V-37.5831V-38.5831H295.36V-37.5831ZM314.756 -25.5831H313.756V38.0562H314.756H315.756V-25.5831H314.756ZM302.756 -37.5831V-36.5831C308.831 -36.5831 313.756 -31.6583 313.756 -25.5831H314.756H315.756C315.756 -32.7628 309.936 -38.5831 302.756 -38.5831V-37.5831ZM283.392 38.0878V37.0878C283.927 37.0878 284.36 37.5213 284.36 38.0562H283.36H282.36C282.36 38.6259 282.822 39.0878 283.392 39.0878V38.0878ZM283.423 38.1168L284.42 38.0289C284.373 37.5026 283.933 37.0878 283.392 37.0878V38.0878V39.0878C282.884 39.0878 282.471 38.6983 282.427 38.2046L283.423 38.1168ZM314.724 38.0878V37.0878C314.183 37.0878 313.743 37.5026 313.697 38.0289L314.693 38.1168L315.689 38.2046C315.645 38.6983 315.232 39.0878 314.724 39.0878V38.0878ZM283.36 -25.5831H284.36C284.36 -31.6583 289.285 -36.5831 295.36 -36.5831V-37.5831V-38.5831C288.181 -38.5831 282.36 -32.7628 282.36 -25.5831H283.36ZM314.724 38.0878V39.0878C315.294 39.0878 315.756 38.626 315.756 38.0562H314.756H313.756C313.756 37.5213 314.19 37.0878 314.724 37.0878V38.0878Z" fill="black" mask="url(#path-11-inside-6_2117_43452)"/>
<mask id="path-13-inside-7_2117_43452" fill="white">
<path d="M373.359 38.0567C373.359 38.0739 373.345 38.0878 373.328 38.0878C373.312 38.0878 373.299 38.1002 373.297 38.1163C372.59 46.1314 365.861 52.4169 357.662 52.4169C349.463 52.4169 342.734 46.1314 342.027 38.1163C342.025 38.1002 342.012 38.0878 341.996 38.0878C341.979 38.0878 341.965 38.0739 341.965 38.0567V-25.5831C341.965 -32.2105 347.337 -37.5831 353.965 -37.5831H361.359C367.987 -37.5831 373.359 -32.2105 373.359 -25.5831V38.0567Z"/>
</mask>
<path d="M373.359 38.0567C373.359 38.0739 373.345 38.0878 373.328 38.0878C373.312 38.0878 373.299 38.1002 373.297 38.1163C372.59 46.1314 365.861 52.4169 357.662 52.4169C349.463 52.4169 342.734 46.1314 342.027 38.1163C342.025 38.1002 342.012 38.0878 341.996 38.0878C341.979 38.0878 341.965 38.0739 341.965 38.0567V-25.5831C341.965 -32.2105 347.337 -37.5831 353.965 -37.5831H361.359C367.987 -37.5831 373.359 -32.2105 373.359 -25.5831V38.0567Z" fill="#E75124"/>
<path d="M357.662 52.4169V53.4169V53.4169V52.4169ZM342.027 38.1163L343.023 38.0284L342.027 38.1163ZM373.297 38.1163L372.301 38.0284L373.297 38.1163ZM373.297 38.1163L372.301 38.0284C371.639 45.532 365.338 51.4169 357.662 51.4169V52.4169V53.4169C366.384 53.4169 373.541 46.7308 374.293 38.2041L373.297 38.1163ZM357.662 52.4169V51.4169C349.986 51.4169 343.685 45.532 343.023 38.0284L342.027 38.1163L341.031 38.2041C341.783 46.7308 348.94 53.4169 357.662 53.4169V52.4169ZM341.965 38.0567H342.965V-25.5831H341.965H340.965V38.0567H341.965ZM353.965 -37.5831V-36.5831H361.359V-37.5831V-38.5831H353.965V-37.5831ZM373.359 -25.5831H372.359V38.0567H373.359H374.359V-25.5831H373.359ZM361.359 -37.5831V-36.5831C367.435 -36.5831 372.359 -31.6583 372.359 -25.5831H373.359H374.359C374.359 -32.7628 368.539 -38.5831 361.359 -38.5831V-37.5831ZM341.996 38.0878V37.0878C342.531 37.0878 342.965 37.5216 342.965 38.0567H341.965H340.965C340.965 38.6261 341.426 39.0878 341.996 39.0878V38.0878ZM342.027 38.1163L343.023 38.0284C342.977 37.5024 342.536 37.0878 341.996 37.0878V38.0878V39.0878C341.488 39.0878 341.074 38.6981 341.031 38.2041L342.027 38.1163ZM373.328 38.0878V37.0878C372.788 37.0878 372.348 37.5024 372.301 38.0284L373.297 38.1163L374.293 38.2041C374.25 38.6981 373.837 39.0878 373.328 39.0878V38.0878ZM341.965 -25.5831H342.965C342.965 -31.6583 347.89 -36.5831 353.965 -36.5831V-37.5831V-38.5831C346.785 -38.5831 340.965 -32.7628 340.965 -25.5831H341.965ZM373.328 38.0878V39.0878C373.898 39.0878 374.359 38.6262 374.359 38.0567H373.359H372.359C372.359 37.5215 372.793 37.0878 373.328 37.0878V38.0878Z" fill="black" mask="url(#path-13-inside-7_2117_43452)"/>
<mask id="path-15-inside-8_2117_43452" fill="white">
<path d="M51.0352 38.0562C51.0352 38.0736 51.021 38.0878 51.0036 38.0878C50.9872 38.0878 50.9735 38.1004 50.9721 38.1168C50.2649 46.1315 43.5363 52.4167 35.3379 52.4169C27.1393 52.4169 20.4099 46.1316 19.7027 38.1168C19.7013 38.1004 19.6876 38.0878 19.6712 38.0878C19.6538 38.0878 19.6396 38.0736 19.6396 38.0562V-25.5831C19.6396 -32.2105 25.0122 -37.5831 31.6396 -37.5831H39.0352C45.6626 -37.5831 51.0352 -32.2105 51.0352 -25.5831V38.0562Z"/>
</mask>
<path d="M51.0352 38.0562C51.0352 38.0736 51.021 38.0878 51.0036 38.0878C50.9872 38.0878 50.9735 38.1004 50.9721 38.1168C50.2649 46.1315 43.5363 52.4167 35.3379 52.4169C27.1393 52.4169 20.4099 46.1316 19.7027 38.1168C19.7013 38.1004 19.6876 38.0878 19.6712 38.0878C19.6538 38.0878 19.6396 38.0736 19.6396 38.0562V-25.5831C19.6396 -32.2105 25.0122 -37.5831 31.6396 -37.5831H39.0352C45.6626 -37.5831 51.0352 -32.2105 51.0352 -25.5831V38.0562Z" fill="#FEFDF5"/>
<path d="M35.3379 52.4169V53.4169H35.3379L35.3379 52.4169ZM19.7027 38.1168L18.7066 38.2046L19.7027 38.1168ZM50.9721 38.1168L51.9682 38.2046L50.9721 38.1168ZM50.9721 38.1168L49.9759 38.0289C49.3139 45.5321 43.0133 51.4167 35.3379 51.4169L35.3379 52.4169L35.3379 53.4169C44.0592 53.4167 51.2159 46.7308 51.9682 38.2046L50.9721 38.1168ZM35.3379 52.4169V51.4169C27.6622 51.4169 21.3609 45.5322 20.6989 38.0289L19.7027 38.1168L18.7066 38.2046C19.4589 46.731 26.6164 53.4169 35.3379 53.4169V52.4169ZM19.6396 38.0562H20.6396V-25.5831H19.6396H18.6396V38.0562H19.6396ZM31.6396 -37.5831V-36.5831H39.0352V-37.5831V-38.5831H31.6396V-37.5831ZM51.0352 -25.5831H50.0352V38.0562H51.0352H52.0352V-25.5831H51.0352ZM39.0352 -37.5831V-36.5831C45.1103 -36.5831 50.0352 -31.6583 50.0352 -25.5831H51.0352H52.0352C52.0352 -32.7628 46.2149 -38.5831 39.0352 -38.5831V-37.5831ZM19.6712 38.0878V37.0878C20.2061 37.0878 20.6396 37.5213 20.6396 38.0562H19.6396H18.6396C18.6396 38.6259 19.1015 39.0878 19.6712 39.0878V38.0878ZM19.7027 38.1168L20.6989 38.0289C20.6524 37.5026 20.2121 37.0878 19.6712 37.0878V38.0878V39.0878C19.1631 39.0878 18.7502 38.6983 18.7066 38.2046L19.7027 38.1168ZM51.0036 38.0878V37.0878C50.4627 37.0878 50.0224 37.5026 49.9759 38.0289L50.9721 38.1168L51.9682 38.2046C51.9247 38.6983 51.5117 39.0878 51.0036 39.0878V38.0878ZM19.6396 -25.5831H20.6396C20.6396 -31.6583 25.5645 -36.5831 31.6396 -36.5831V-37.5831V-38.5831C24.4599 -38.5831 18.6396 -32.7628 18.6396 -25.5831H19.6396ZM51.0036 38.0878V39.0878C51.5732 39.0878 52.0352 38.626 52.0352 38.0562H51.0352H50.0352C50.0352 37.5213 50.4688 37.0878 51.0036 37.0878V38.0878Z" fill="black" mask="url(#path-15-inside-8_2117_43452)"/>
<mask id="path-17-inside-9_2117_43452" fill="white">
<path d="M226.848 36.6512C226.848 36.6739 226.849 36.6969 226.849 36.7196C226.849 36.7421 226.848 36.7645 226.848 36.787V38.0567C226.848 38.0739 226.834 38.0878 226.817 38.0878C226.8 38.0878 226.787 38.1002 226.786 38.1163C226.079 46.1314 219.349 52.4169 211.15 52.4169C202.952 52.4168 196.223 46.1315 195.516 38.1168C195.515 38.1004 195.501 38.0878 195.485 38.0878C195.467 38.0878 195.453 38.0736 195.453 38.0562V-25.5831C195.453 -32.2105 200.826 -37.5831 207.453 -37.5831H214.848C221.475 -37.5831 226.848 -32.2105 226.848 -25.5831V36.6512Z"/>
</mask>
<path d="M226.848 36.6512C226.848 36.6739 226.849 36.6969 226.849 36.7196C226.849 36.7421 226.848 36.7645 226.848 36.787V38.0567C226.848 38.0739 226.834 38.0878 226.817 38.0878C226.8 38.0878 226.787 38.1002 226.786 38.1163C226.079 46.1314 219.349 52.4169 211.15 52.4169C202.952 52.4168 196.223 46.1315 195.516 38.1168C195.515 38.1004 195.501 38.0878 195.485 38.0878C195.467 38.0878 195.453 38.0736 195.453 38.0562V-25.5831C195.453 -32.2105 200.826 -37.5831 207.453 -37.5831H214.848C221.475 -37.5831 226.848 -32.2105 226.848 -25.5831V36.6512Z" fill="#FEFDF5"/>
<path d="M226.848 36.6512H225.848L225.848 36.6555L226.848 36.6512ZM226.849 36.7196L227.849 36.7196V36.7196H226.849ZM226.848 36.787L225.848 36.7828V36.787H226.848ZM211.15 52.4169L211.15 53.4169H211.15V52.4169ZM195.516 38.1168L196.512 38.0289L195.516 38.1168ZM226.786 38.1163L227.782 38.2041L226.786 38.1163ZM226.848 36.6512L225.848 36.6555C225.848 36.6765 225.848 36.6968 225.848 36.7057C225.849 36.7179 225.849 36.7198 225.849 36.7196H226.849H227.849C227.849 36.6968 227.848 36.6758 227.848 36.6651C227.848 36.6585 227.848 36.655 227.848 36.6514C227.848 36.6499 227.848 36.6488 227.848 36.648C227.848 36.6473 227.848 36.647 227.848 36.647L226.848 36.6512ZM226.849 36.7196L225.849 36.7196C225.849 36.7191 225.849 36.7207 225.848 36.7326C225.848 36.7414 225.848 36.7616 225.848 36.7828L226.848 36.787L227.848 36.7912C227.848 36.7913 227.848 36.7903 227.848 36.7872C227.848 36.7839 227.848 36.7804 227.848 36.774C227.848 36.7634 227.849 36.7425 227.849 36.7196L226.849 36.7196ZM226.848 36.787H225.848V38.0567H226.848H227.848V36.787H226.848ZM226.786 38.1163L225.789 38.0284C225.128 45.532 218.826 51.4169 211.15 51.4169V52.4169V53.4169C219.872 53.4169 227.03 46.7308 227.782 38.2041L226.786 38.1163ZM211.15 52.4169L211.15 51.4169C203.475 51.4168 197.174 45.5322 196.512 38.0289L195.516 38.1168L194.52 38.2047C195.272 46.7309 202.429 53.4168 211.15 53.4169L211.15 52.4169ZM195.453 38.0562H196.453V-25.5831H195.453H194.453V38.0562H195.453ZM207.453 -37.5831V-36.5831H214.848V-37.5831V-38.5831H207.453V-37.5831ZM226.848 -25.5831H225.848V36.6512H226.848H227.848V-25.5831H226.848ZM214.848 -37.5831V-36.5831C220.923 -36.5831 225.848 -31.6583 225.848 -25.5831H226.848H227.848C227.848 -32.7628 222.027 -38.5831 214.848 -38.5831V-37.5831ZM195.485 38.0878V37.0878C196.02 37.0878 196.453 37.5213 196.453 38.0562H195.453H194.453C194.453 38.6259 194.915 39.0878 195.485 39.0878V38.0878ZM195.516 38.1168L196.512 38.0289C196.466 37.5026 196.026 37.0878 195.485 37.0878V38.0878V39.0878C194.977 39.0878 194.564 38.6983 194.52 38.2047L195.516 38.1168ZM226.817 38.0878V37.0878C226.276 37.0878 225.836 37.5024 225.789 38.0284L226.786 38.1163L227.782 38.2041C227.738 38.6981 227.325 39.0878 226.817 39.0878V38.0878ZM195.453 -25.5831H196.453C196.453 -31.6583 201.378 -36.5831 207.453 -36.5831V-37.5831V-38.5831C200.273 -38.5831 194.453 -32.7628 194.453 -25.5831H195.453ZM226.848 38.0567H225.848C225.848 37.5216 226.281 37.0878 226.817 37.0878V38.0878V39.0878C227.386 39.0878 227.848 38.6261 227.848 38.0567H226.848Z" fill="black" mask="url(#path-17-inside-9_2117_43452)"/>
<mask id="path-19-inside-10_2117_43452" fill="white">
<path d="M109.64 38.0562C109.64 38.0736 109.626 38.0878 109.608 38.0878C109.592 38.0878 109.578 38.1004 109.577 38.1168C108.869 46.1315 102.141 52.4168 93.9424 52.4169C85.7438 52.4169 79.0144 46.1316 78.3072 38.1168C78.3058 38.1004 78.2921 38.0878 78.2757 38.0878C78.2583 38.0878 78.2441 38.0736 78.2441 38.0562V-25.5831C78.2441 -32.2105 83.6167 -37.5831 90.2441 -37.5831H97.6396C104.267 -37.5831 109.64 -32.2105 109.64 -25.5831V38.0562Z"/>
</mask>
<path d="M109.64 38.0562C109.64 38.0736 109.626 38.0878 109.608 38.0878C109.592 38.0878 109.578 38.1004 109.577 38.1168C108.869 46.1315 102.141 52.4168 93.9424 52.4169C85.7438 52.4169 79.0144 46.1316 78.3072 38.1168C78.3058 38.1004 78.2921 38.0878 78.2757 38.0878C78.2583 38.0878 78.2441 38.0736 78.2441 38.0562V-25.5831C78.2441 -32.2105 83.6167 -37.5831 90.2441 -37.5831H97.6396C104.267 -37.5831 109.64 -32.2105 109.64 -25.5831V38.0562Z" fill="#FEFDF5"/>
<path d="M93.9424 52.4169V53.4169H93.9424L93.9424 52.4169ZM78.3072 38.1168L79.3033 38.0289L78.3072 38.1168ZM109.577 38.1168L108.58 38.0289L109.577 38.1168ZM109.577 38.1168L108.58 38.0289C107.918 45.5322 101.618 51.4168 93.9424 51.4169L93.9424 52.4169L93.9424 53.4169C102.664 53.4167 109.82 46.7309 110.573 38.2046L109.577 38.1168ZM93.9424 52.4169V51.4169C86.2667 51.4169 79.9654 45.5322 79.3033 38.0289L78.3072 38.1168L77.3111 38.2046C78.0634 46.731 85.2209 53.4169 93.9424 53.4169V52.4169ZM78.2441 38.0562H79.2441V-25.5831H78.2441H77.2441V38.0562H78.2441ZM90.2441 -37.5831V-36.5831H97.6396V-37.5831V-38.5831H90.2441V-37.5831ZM109.64 -25.5831H108.64V38.0562H109.64H110.64V-25.5831H109.64ZM97.6396 -37.5831V-36.5831C103.715 -36.5831 108.64 -31.6583 108.64 -25.5831H109.64H110.64C110.64 -32.7628 104.819 -38.5831 97.6396 -38.5831V-37.5831ZM78.2757 38.0878V37.0878C78.8106 37.0878 79.2441 37.5213 79.2441 38.0562H78.2441H77.2441C77.2441 38.6259 77.706 39.0878 78.2757 39.0878V38.0878ZM78.3072 38.1168L79.3033 38.0289C79.2569 37.5026 78.8166 37.0878 78.2757 37.0878V38.0878V39.0878C77.7676 39.0878 77.3546 38.6983 77.3111 38.2046L78.3072 38.1168ZM109.608 38.0878V37.0878C109.067 37.0878 108.627 37.5026 108.58 38.0289L109.577 38.1168L110.573 38.2046C110.529 38.6983 110.116 39.0878 109.608 39.0878V38.0878ZM78.2441 -25.5831H79.2441C79.2441 -31.6583 84.169 -36.5831 90.2441 -36.5831V-37.5831V-38.5831C83.0644 -38.5831 77.2441 -32.7628 77.2441 -25.5831H78.2441ZM109.608 38.0878V39.0878C110.178 39.0878 110.64 38.626 110.64 38.0562H109.64H108.64C108.64 37.5213 109.073 37.0878 109.608 37.0878V38.0878Z" fill="black" mask="url(#path-19-inside-10_2117_43452)"/>
<mask id="path-21-inside-11_2117_43452" fill="white">
<path d="M285.453 38.0562C285.453 38.0736 285.439 38.0878 285.422 38.0878C285.405 38.0878 285.391 38.1004 285.39 38.1168C284.683 46.1316 277.953 52.4169 269.755 52.4169C261.556 52.4167 254.828 46.1315 254.121 38.1168C254.119 38.1004 254.106 38.0878 254.089 38.0878C254.072 38.0878 254.058 38.0736 254.058 38.0562V-25.5831C254.058 -32.2105 259.43 -37.5831 266.058 -37.5831H273.453C280.081 -37.5831 285.453 -32.2105 285.453 -25.5831V38.0562Z"/>
</mask>
<path d="M285.453 38.0562C285.453 38.0736 285.439 38.0878 285.422 38.0878C285.405 38.0878 285.391 38.1004 285.39 38.1168C284.683 46.1316 277.953 52.4169 269.755 52.4169C261.556 52.4167 254.828 46.1315 254.121 38.1168C254.119 38.1004 254.106 38.0878 254.089 38.0878C254.072 38.0878 254.058 38.0736 254.058 38.0562V-25.5831C254.058 -32.2105 259.43 -37.5831 266.058 -37.5831H273.453C280.081 -37.5831 285.453 -32.2105 285.453 -25.5831V38.0562Z" fill="#FEFDF5"/>
<path d="M269.755 52.4169L269.755 53.4169H269.755V52.4169ZM254.121 38.1168L255.117 38.0289L254.121 38.1168ZM285.39 38.1168L284.394 38.0289L285.39 38.1168ZM285.39 38.1168L284.394 38.0289C283.732 45.5322 277.431 51.4169 269.755 51.4169V52.4169V53.4169C278.476 53.4169 285.634 46.731 286.386 38.2046L285.39 38.1168ZM269.755 52.4169L269.755 51.4169C262.079 51.4167 255.779 45.5322 255.117 38.0289L254.121 38.1168L253.125 38.2046C253.877 46.7309 261.033 53.4167 269.755 53.4169L269.755 52.4169ZM254.058 38.0562H255.058V-25.5831H254.058H253.058V38.0562H254.058ZM266.058 -37.5831V-36.5831H273.453V-37.5831V-38.5831H266.058V-37.5831ZM285.453 -25.5831H284.453V38.0562H285.453H286.453V-25.5831H285.453ZM273.453 -37.5831V-36.5831C279.528 -36.5831 284.453 -31.6583 284.453 -25.5831H285.453H286.453C286.453 -32.7628 280.633 -38.5831 273.453 -38.5831V-37.5831ZM254.089 38.0878V37.0878C254.624 37.0878 255.058 37.5213 255.058 38.0562H254.058H253.058C253.058 38.6259 253.519 39.0878 254.089 39.0878V38.0878ZM254.121 38.1168L255.117 38.0289C255.07 37.5026 254.63 37.0878 254.089 37.0878V38.0878V39.0878C253.581 39.0878 253.168 38.6983 253.125 38.2046L254.121 38.1168ZM285.422 38.0878V37.0878C284.881 37.0878 284.44 37.5026 284.394 38.0289L285.39 38.1168L286.386 38.2046C286.343 38.6983 285.93 39.0878 285.422 39.0878V38.0878ZM254.058 -25.5831H255.058C255.058 -31.6583 259.982 -36.5831 266.058 -36.5831V-37.5831V-38.5831C258.878 -38.5831 253.058 -32.7628 253.058 -25.5831H254.058ZM285.422 38.0878V39.0878C285.991 39.0878 286.453 38.626 286.453 38.0562H285.453H284.453C284.453 37.5213 284.887 37.0878 285.422 37.0878V38.0878Z" fill="black" mask="url(#path-21-inside-11_2117_43452)"/>
<mask id="path-23-inside-12_2117_43452" fill="white">
<path d="M168.243 38.0562C168.243 38.0736 168.229 38.0878 168.212 38.0878C168.195 38.0878 168.182 38.1004 168.18 38.1168C167.473 46.1316 160.744 52.4168 152.546 52.4169C144.347 52.4169 137.618 46.1314 136.911 38.1163C136.909 38.1002 136.896 38.0878 136.88 38.0878C136.863 38.0878 136.849 38.0739 136.849 38.0567V-25.5831C136.849 -32.2105 142.221 -37.5831 148.849 -37.5831H156.243C162.871 -37.5831 168.243 -32.2105 168.243 -25.5831V38.0562Z"/>
</mask>
<path d="M168.243 38.0562C168.243 38.0736 168.229 38.0878 168.212 38.0878C168.195 38.0878 168.182 38.1004 168.18 38.1168C167.473 46.1316 160.744 52.4168 152.546 52.4169C144.347 52.4169 137.618 46.1314 136.911 38.1163C136.909 38.1002 136.896 38.0878 136.88 38.0878C136.863 38.0878 136.849 38.0739 136.849 38.0567V-25.5831C136.849 -32.2105 142.221 -37.5831 148.849 -37.5831H156.243C162.871 -37.5831 168.243 -32.2105 168.243 -25.5831V38.0562Z" fill="#FEFDF5"/>
<path d="M152.546 52.4169V53.4169H152.546L152.546 52.4169ZM136.911 38.1163L137.907 38.0284L136.911 38.1163ZM168.18 38.1168L167.184 38.0289L168.18 38.1168ZM168.18 38.1168L167.184 38.0289C166.522 45.5322 160.221 51.4168 152.546 51.4169L152.546 52.4169L152.546 53.4169C161.267 53.4168 168.424 46.7309 169.176 38.2046L168.18 38.1168ZM152.546 52.4169V51.4169C144.87 51.4169 138.569 45.532 137.907 38.0284L136.911 38.1163L135.915 38.2041C136.667 46.7308 143.824 53.4169 152.546 53.4169V52.4169ZM136.849 38.0567H137.849V-25.5831H136.849H135.849V38.0567H136.849ZM148.849 -37.5831V-36.5831H156.243V-37.5831V-38.5831H148.849V-37.5831ZM168.243 -25.5831H167.243V38.0562H168.243H169.243V-25.5831H168.243ZM156.243 -37.5831V-36.5831C162.318 -36.5831 167.243 -31.6583 167.243 -25.5831H168.243H169.243C169.243 -32.7628 163.423 -38.5831 156.243 -38.5831V-37.5831ZM136.88 38.0878V37.0878C137.415 37.0878 137.849 37.5216 137.849 38.0567H136.849H135.849C135.849 38.6261 136.31 39.0878 136.88 39.0878V38.0878ZM136.911 38.1163L137.907 38.0284C137.86 37.5024 137.42 37.0878 136.88 37.0878V38.0878V39.0878C136.371 39.0878 135.958 38.6981 135.915 38.2041L136.911 38.1163ZM168.212 38.0878V37.0878C167.671 37.0878 167.23 37.5026 167.184 38.0289L168.18 38.1168L169.176 38.2046C169.133 38.6983 168.72 39.0878 168.212 39.0878V38.0878ZM136.849 -25.5831H137.849C137.849 -31.6583 142.774 -36.5831 148.849 -36.5831V-37.5831V-38.5831C141.669 -38.5831 135.849 -32.7628 135.849 -25.5831H136.849ZM168.212 38.0878V39.0878C168.781 39.0878 169.243 38.626 169.243 38.0562H168.243H167.243C167.243 37.5213 167.677 37.0878 168.212 37.0878V38.0878Z" fill="black" mask="url(#path-23-inside-12_2117_43452)"/>
<mask id="path-25-inside-13_2117_43452" fill="white">
<path d="M344.058 38.0562C344.058 38.0736 344.043 38.0878 344.026 38.0878C344.01 38.0878 343.996 38.1004 343.995 38.1168C343.287 46.1316 336.558 52.4169 328.359 52.4169C320.161 52.4167 313.432 46.1315 312.725 38.1168C312.724 38.1004 312.71 38.0878 312.694 38.0878C312.676 38.0878 312.662 38.0736 312.662 38.0562V-25.5831C312.662 -32.2105 318.035 -37.5831 324.662 -37.5831H332.058C338.685 -37.5831 344.058 -32.2105 344.058 -25.5831V38.0562Z"/>
</mask>
<path d="M344.058 38.0562C344.058 38.0736 344.043 38.0878 344.026 38.0878C344.01 38.0878 343.996 38.1004 343.995 38.1168C343.287 46.1316 336.558 52.4169 328.359 52.4169C320.161 52.4167 313.432 46.1315 312.725 38.1168C312.724 38.1004 312.71 38.0878 312.694 38.0878C312.676 38.0878 312.662 38.0736 312.662 38.0562V-25.5831C312.662 -32.2105 318.035 -37.5831 324.662 -37.5831H332.058C338.685 -37.5831 344.058 -32.2105 344.058 -25.5831V38.0562Z" fill="#FEFDF5"/>
<path d="M328.359 52.4169L328.359 53.4169H328.359V52.4169ZM312.725 38.1168L311.729 38.2046L312.725 38.1168ZM343.995 38.1168L342.998 38.0289L343.995 38.1168ZM343.995 38.1168L342.998 38.0289C342.336 45.5322 336.035 51.4169 328.359 51.4169V52.4169V53.4169C337.081 53.4169 344.238 46.731 344.991 38.2046L343.995 38.1168ZM328.359 52.4169L328.359 51.4169C320.684 51.4167 314.383 45.5321 313.721 38.0289L312.725 38.1168L311.729 38.2046C312.481 46.7308 319.638 53.4166 328.359 53.4169L328.359 52.4169ZM312.662 38.0562H313.662V-25.5831H312.662H311.662V38.0562H312.662ZM324.662 -37.5831V-36.5831H332.058V-37.5831V-38.5831H324.662V-37.5831ZM344.058 -25.5831H343.058V38.0562H344.058H345.058V-25.5831H344.058ZM332.058 -37.5831V-36.5831C338.133 -36.5831 343.058 -31.6583 343.058 -25.5831H344.058H345.058C345.058 -32.7628 339.237 -38.5831 332.058 -38.5831V-37.5831ZM312.694 38.0878V37.0878C313.229 37.0878 313.662 37.5213 313.662 38.0562H312.662H311.662C311.662 38.6259 312.124 39.0878 312.694 39.0878V38.0878ZM312.725 38.1168L313.721 38.0289C313.675 37.5026 313.235 37.0878 312.694 37.0878V38.0878V39.0878C312.186 39.0878 311.773 38.6983 311.729 38.2046L312.725 38.1168ZM344.026 38.0878V37.0878C343.485 37.0878 343.045 37.5026 342.998 38.0289L343.995 38.1168L344.991 38.2046C344.947 38.6983 344.534 39.0878 344.026 39.0878V38.0878ZM312.662 -25.5831H313.662C313.662 -31.6583 318.587 -36.5831 324.662 -36.5831V-37.5831V-38.5831C317.482 -38.5831 311.662 -32.7628 311.662 -25.5831H312.662ZM344.026 38.0878V39.0878C344.596 39.0878 345.058 38.626 345.058 38.0562H344.058H343.058C343.058 37.5213 343.491 37.0878 344.026 37.0878V38.0878Z" fill="black" mask="url(#path-25-inside-13_2117_43452)"/>
<mask id="path-27-inside-14_2117_43452" fill="white">
<path d="M402.663 38.0562C402.663 38.0736 402.649 38.0878 402.632 38.0878C402.615 38.0878 402.601 38.1004 402.6 38.1168C401.893 46.1315 395.164 52.4167 386.966 52.4169C378.767 52.4169 372.038 46.1316 371.331 38.1168C371.329 38.1004 371.316 38.0878 371.299 38.0878C371.282 38.0878 371.268 38.0736 371.268 38.0562V-25.5831C371.268 -32.2105 376.64 -37.5831 383.268 -37.5831H390.663C397.291 -37.5831 402.663 -32.2105 402.663 -25.5831V38.0562Z"/>
</mask>
<path d="M402.663 38.0562C402.663 38.0736 402.649 38.0878 402.632 38.0878C402.615 38.0878 402.601 38.1004 402.6 38.1168C401.893 46.1315 395.164 52.4167 386.966 52.4169C378.767 52.4169 372.038 46.1316 371.331 38.1168C371.329 38.1004 371.316 38.0878 371.299 38.0878C371.282 38.0878 371.268 38.0736 371.268 38.0562V-25.5831C371.268 -32.2105 376.64 -37.5831 383.268 -37.5831H390.663C397.291 -37.5831 402.663 -32.2105 402.663 -25.5831V38.0562Z" fill="#FEFDF5"/>
<path d="M386.966 52.4169V53.4169H386.966L386.966 52.4169ZM371.331 38.1168L372.327 38.0289L371.331 38.1168ZM402.6 38.1168L401.604 38.0289L402.6 38.1168ZM402.6 38.1168L401.604 38.0289C400.942 45.5321 394.641 51.4167 386.966 51.4169L386.966 52.4169L386.966 53.4169C395.687 53.4166 402.844 46.7308 403.596 38.2046L402.6 38.1168ZM386.966 52.4169V51.4169C379.29 51.4169 372.989 45.5322 372.327 38.0289L371.331 38.1168L370.335 38.2046C371.087 46.731 378.244 53.4169 386.966 53.4169V52.4169ZM371.268 38.0562H372.268V-25.5831H371.268H370.268V38.0562H371.268ZM383.268 -37.5831V-36.5831H390.663V-37.5831V-38.5831H383.268V-37.5831ZM402.663 -25.5831H401.663V38.0562H402.663H403.663V-25.5831H402.663ZM390.663 -37.5831V-36.5831C396.738 -36.5831 401.663 -31.6583 401.663 -25.5831H402.663H403.663C403.663 -32.7628 397.843 -38.5831 390.663 -38.5831V-37.5831ZM371.299 38.0878V37.0878C371.834 37.0878 372.268 37.5213 372.268 38.0562H371.268H370.268C370.268 38.6259 370.729 39.0878 371.299 39.0878V38.0878ZM371.331 38.1168L372.327 38.0289C372.28 37.5026 371.84 37.0878 371.299 37.0878V38.0878V39.0878C370.791 39.0878 370.378 38.6983 370.335 38.2046L371.331 38.1168ZM402.632 38.0878V37.0878C402.091 37.0878 401.65 37.5026 401.604 38.0289L402.6 38.1168L403.596 38.2046C403.553 38.6983 403.14 39.0878 402.632 39.0878V38.0878ZM371.268 -25.5831H372.268C372.268 -31.6583 377.192 -36.5831 383.268 -36.5831V-37.5831V-38.5831C376.088 -38.5831 370.268 -32.7628 370.268 -25.5831H371.268ZM402.632 38.0878V39.0878C403.201 39.0878 403.663 38.626 403.663 38.0562H402.663H401.663C401.663 37.5213 402.097 37.0878 402.632 37.0878V38.0878Z" fill="black" mask="url(#path-27-inside-14_2117_43452)"/>
</g>
<defs>
<filter id="filter0_n_2117_43452" x="-9.66309" y="-37.5831" width="412.326" height="90" filterUnits="userSpaceOnUse" color-interpolation-filters="sRGB">
<feFlood flood-opacity="0" result="BackgroundImageFix"/>
<feBlend mode="normal" in="SourceGraphic" in2="BackgroundImageFix" result="shape"/>
<feTurbulence type="fractalNoise" baseFrequency="0.40000000596046448 0.40000000596046448" stitchTiles="stitch" numOctaves="3" result="noise" seed="5903" />
<feColorMatrix in="noise" type="luminanceToAlpha" result="alphaNoise" />
<feComponentTransfer in="alphaNoise" result="coloredNoise1">
<feFuncA type="discrete" tableValues="0 0 0 0 0 0 0 0 0 0 0 0 0 0 0 0 0 0 1 1 1 1 1 1 1 1 1 1 1 1 1 0 0 0 0 0 0 0 0 0 0 0 0 0 0 0 0 0 0 0 0 0 0 0 0 0 0 0 0 0 0 0 0 0 0 0 0 0 0 0 0 0 0 0 0 0 0 0 0 0 0 0 0 0 0 0 0 0 0 0 0 0 0 0 0 0 0 0 0 0 "/>
</feComponentTransfer>
<feComposite operator="in" in2="shape" in="coloredNoise1" result="noise1Clipped" />
<feFlood flood-color="rgba(0, 0, 0, 0.25)" result="color1Flood" />
<feComposite operator="in" in2="noise1Clipped" in="color1Flood" result="color1" />
<feMerge result="effect1_noise_2117_43452">
<feMergeNode in="shape" />
<feMergeNode in="color1" />
</feMerge>
</filter>
</defs>
</svg>
