<svg width="24" height="24" viewBox="0 0 24 24" fill="none" xmlns="http://www.w3.org/2000/svg">
<path d="M12.3631 17.5879C12.4711 17.5459 12.5751 17.4832 12.6751 17.3999C13.2084 16.9166 13.7167 16.4416 14.2001 15.9749C14.6834 15.5082 15.1044 15.0499 15.4631 14.5999C15.8217 14.1499 16.1091 13.7126 16.3251 13.2879C16.5411 12.8632 16.6494 12.4506 16.6501 12.0499C16.6501 11.3166 16.4001 10.7082 15.9001 10.2249C15.4001 9.74157 14.8001 9.4999 14.1001 9.4999C13.6667 9.4999 13.2711 9.58757 12.9131 9.7629C12.5551 9.93824 12.2507 10.1672 12.0001 10.4499C11.7501 10.1666 11.4377 9.93757 11.0631 9.7629C10.6884 9.58823 10.3007 9.50057 9.90007 9.4999C9.20007 9.4999 8.60007 9.74157 8.10007 10.2249C7.60007 10.7082 7.35007 11.3166 7.35007 12.0499C7.35007 12.4499 7.4584 12.8626 7.67507 13.2879C7.89174 13.7132 8.1794 14.1506 8.53807 14.5999C8.89674 15.0492 9.31741 15.5076 9.80007 15.9749C10.2827 16.4422 10.7911 16.9172 11.3251 17.3999C11.4251 17.4832 11.5294 17.5459 11.6381 17.5879C11.7467 17.6299 11.8674 17.6506 12.0001 17.6499C12.1327 17.6492 12.2537 17.6286 12.3631 17.5879ZM6.00007 20.9999C5.45007 20.9999 4.9794 20.8042 4.58807 20.4129C4.19674 20.0216 4.00074 19.5506 4.00007 18.9999V11.6249L3.00007 12.3999C2.76674 12.5666 2.51674 12.6332 2.25007 12.5999C1.9834 12.5666 1.76674 12.4332 1.60007 12.1999C1.4334 11.9666 1.37107 11.7166 1.41307 11.4499C1.45507 11.1832 1.58407 10.9666 1.80007 10.7999L10.7751 3.9249C10.9584 3.79157 11.1544 3.69157 11.3631 3.6249C11.5717 3.55824 11.7841 3.5249 12.0001 3.5249C12.2161 3.5249 12.4287 3.55824 12.6381 3.6249C12.8474 3.69157 13.0431 3.79157 13.2251 3.9249L22.2251 10.7999C22.4417 10.9666 22.5667 11.1832 22.6001 11.4499C22.6334 11.7166 22.5667 11.9666 22.4001 12.1999C22.2334 12.4166 22.0167 12.5416 21.7501 12.5749C21.4834 12.6082 21.2417 12.5416 21.0251 12.3749L20.0001 11.6249V18.9999C20.0001 19.5499 19.8044 20.0209 19.4131 20.4129C19.0217 20.8049 18.5507 21.0006 18.0001 20.9999H6.00007Z" fill="#E65325"/>
</svg>
