<svg width="98" height="126" viewBox="0 0 98 126" fill="none" xmlns="http://www.w3.org/2000/svg">
<mask id="mask0_2220_11259" style="mask-type:alpha" maskUnits="userSpaceOnUse" x="0" y="9" width="98" height="117">
<rect x="0.5" y="9.5" width="96.4667" height="115.077" fill="#6ABF73" stroke="#382F32"/>
</mask>
<g mask="url(#mask0_2220_11259)">
<path d="M48.3921 42.6648C80.8381 42.6648 107.19 70.563 107.19 105.04C107.19 139.517 80.8381 167.415 48.3921 167.415C15.9461 167.415 -10.4058 139.517 -10.4058 105.04C-10.4058 70.5631 15.9461 42.6648 48.3921 42.6648Z" fill="#6ABF73" stroke="#372F32"/>
</g>
<g filter="url(#filter0_n_2220_11259)">
<rect x="33.4424" y="7.40576" width="31.4128" height="55.4041" rx="5" fill="#FEFDF5"/>
<rect x="33.9424" y="7.90576" width="30.4128" height="54.4041" rx="4.5" stroke="#372F32"/>
</g>
<g filter="url(#filter1_n_2220_11259)">
<rect x="35.7505" y="9.77338" width="26.7981" height="45.0148" rx="5" fill="#FEFDF5"/>
<rect x="36.2505" y="10.2734" width="25.7981" height="44.0148" rx="4.5" stroke="#372F32"/>
</g>
<path d="M32.9489 29.859L36.4025 28.1964L37.6954 27.5816C38.6625 27.1276 38.7764 27.0975 39.0919 26.9972L39.0923 26.9981C39.9513 26.7287 40.7587 26.727 41.5407 26.9823C41.9836 27.1268 42.3198 27.3067 42.6946 27.6007L42.6954 27.6002C43.0901 27.909 43.3889 28.241 43.7188 28.7691L43.8619 29.008C43.8647 29.0132 43.87 29.0235 43.8785 29.0401C43.8915 29.0656 43.909 29.1005 43.9307 29.144C43.974 29.231 44.0331 29.3506 44.1057 29.4987C44.2512 29.7952 44.4495 30.2034 44.6837 30.6858C45.152 31.6504 45.7617 32.9115 46.3694 34.1738C46.977 35.4361 47.5829 36.7002 48.0453 37.6687C48.2765 38.153 48.4719 38.5629 48.6132 38.8618C48.6837 39.0112 48.7406 39.1324 48.7816 39.2207C48.8021 39.2648 48.8184 39.3002 48.8303 39.3263C48.8379 39.3432 48.8427 39.3539 48.8451 39.3593C49.1203 40.0699 49.2197 40.5712 49.216 41.1294L49.216 41.1316C49.2135 42.179 48.7835 43.1657 48.0252 43.879L47.8698 44.0178C47.5527 44.2824 47.2442 44.4895 46.6564 44.8068L46.6546 44.8076C46.4484 44.9193 44.1435 46.0338 41.8095 47.1574C39.4754 48.281 37.1613 49.3858 36.9439 49.478L36.566 49.6317C36.2082 49.7685 35.9052 49.8581 35.617 49.9163L35.6161 49.9167C34.5249 50.1314 33.3796 49.8548 32.5253 49.172L32.524 49.1715C32.1308 48.8586 31.8408 48.5312 31.4982 47.9864L31.3478 47.7391C31.2365 47.5487 30.7059 46.4575 28.8504 42.6031L27.4097 39.6106C26.3512 37.4025 26.3434 37.3383 26.2092 36.9164C25.9714 36.1684 25.9419 35.4554 26.1096 34.7642L26.194 34.4689C26.3339 34.0391 26.5203 33.6982 26.7993 33.3375L26.798 33.3371C27.1574 32.8752 27.5333 32.5536 28.253 32.1315L28.2539 32.1311C28.4348 32.0251 29.4457 31.5328 32.9438 29.8485L32.9489 29.859ZM34.1155 31.1388C32.2682 32.0281 32.0298 32.1523 31.3123 32.5382C30.6569 32.8906 30.2025 33.2301 29.8363 33.5923L29.6855 33.7473C29.2782 34.182 28.9712 34.6591 28.7508 35.2886C28.5306 35.9175 28.4731 36.4811 28.5201 37.0742C28.5635 37.6489 28.7032 38.254 29.0375 39.0361C29.3594 39.7888 29.4666 40.031 30.3559 41.8784C31.2452 43.7256 31.3694 43.9642 31.7553 44.6817C32.1574 45.4294 32.5427 45.9156 32.9639 46.3076L32.9643 46.3084C33.3991 46.7157 33.8761 47.0227 34.5057 47.2431C35.1329 47.4627 35.6927 47.5217 36.2909 47.473L36.2913 47.4739C36.866 47.4305 37.4711 47.2907 38.2532 46.9564C39.0058 46.6345 39.2481 46.5273 41.0955 45.638C42.9427 44.7488 43.1812 44.6245 43.8987 44.2387C44.6466 43.8364 45.1322 43.4505 45.5242 43.0291L45.5255 43.0296C45.9328 42.5948 46.2398 42.1178 46.4602 41.4882C46.6806 40.8587 46.7382 40.2943 46.691 39.7004L46.6901 39.6987C46.6429 39.1286 46.5043 38.5253 46.1744 37.7425L46.1731 37.7398C45.8513 36.9875 45.7442 36.7454 44.8551 34.8985C43.9658 33.0512 43.8416 32.8127 43.4557 32.0952C43.1033 31.4398 42.7638 30.9854 42.4016 30.6192L42.2449 30.4671C41.8106 30.0604 41.3342 29.7539 40.7053 29.5337C40.0777 29.314 39.5175 29.2545 38.9188 29.3034L38.9197 29.303C38.345 29.3464 37.7399 29.4862 36.9578 29.8204L36.9569 29.8208C36.2046 30.1426 35.9625 30.2497 34.1155 31.1388ZM34.5282 33.5608L35.1398 33.2665C36.954 32.3931 37.1622 32.3024 37.8866 31.9929L37.8875 31.9925C38.5111 31.725 38.8709 31.6753 39.1046 31.6569L39.1054 31.6565C39.1126 31.656 39.1198 31.6565 39.1268 31.656C39.0874 31.6667 39.0478 31.6778 39.0088 31.6922L38.8796 31.7479C38.1824 32.0835 37.8839 32.9216 38.2225 33.625C38.3245 33.837 38.4734 34.0116 38.6506 34.1429C37.6984 33.9075 36.6618 33.9894 35.7087 34.4482C33.5317 35.4962 32.6154 38.1135 33.6634 40.2905C34.7117 42.4681 37.3277 43.3799 39.504 42.3322C41.681 41.2842 42.5954 38.6721 41.5474 36.4951C41.0887 35.5421 40.3294 34.8305 39.4383 34.4194C39.6598 34.4278 39.8863 34.3847 40.0995 34.2821C40.798 33.9458 41.0928 33.1035 40.7566 32.405C40.7188 32.3264 40.6736 32.2533 40.6236 32.1851C40.626 32.1873 40.6286 32.1891 40.631 32.1913L40.6323 32.1918C40.8034 32.3519 41.0538 32.6153 41.3743 33.2132L41.3747 33.214C41.7462 33.904 41.8541 34.1084 42.7275 35.9227C43.6008 37.7369 43.6916 37.9451 44.001 38.6695L44.0014 38.6704C44.2689 39.294 44.3186 39.6538 44.337 39.8875L44.3365 39.8888C44.361 40.1951 44.3311 40.4225 44.2312 40.7079C44.1313 40.9933 44.0128 41.1898 43.8026 41.4139L43.8022 41.4152C43.6421 41.5863 43.3788 41.8366 42.7808 42.1572L42.7799 42.1577C42.0898 42.5292 41.8856 42.637 40.0712 43.5104C38.2569 44.3838 38.0451 44.4763 37.3244 44.7839L37.3253 44.7835C36.6967 45.0491 36.3377 45.1017 36.1065 45.1199L36.1052 45.1194C35.7988 45.144 35.5706 45.1145 35.2851 45.0145C34.9999 44.9146 34.8032 44.7961 34.5792 44.586L34.5788 44.5851C34.4076 44.425 34.1573 44.1618 33.8367 43.5637L33.8363 43.5628L33.5907 43.1044C33.3627 42.6706 33.1389 42.2155 32.4835 40.8541C31.8284 39.4933 31.6131 39.0362 31.416 38.587L31.2096 38.1065C30.9421 37.483 30.8924 37.123 30.874 36.8894L30.8736 36.8885C30.8491 36.5821 30.8786 36.354 30.9785 36.0685C31.0784 35.783 31.1976 35.5863 31.408 35.3621L31.4088 35.3617C31.5689 35.1905 31.8323 34.9402 32.4302 34.6196L32.4333 34.617C33.0329 34.2892 33.2656 34.1687 34.5282 33.5608ZM36.7312 36.5723C37.7343 36.0895 38.9388 36.5111 39.4216 37.5141C39.9045 38.5172 39.4828 39.7217 38.4798 40.2046C37.4768 40.6874 36.2723 40.2657 35.7894 39.2627C35.3065 38.2597 35.7282 37.0552 36.7312 36.5723Z" fill="#80CBE8" stroke="#372F32"/>
<path d="M50.0945 11.8082C50.8347 12.686 51.836 13.3116 52.9587 13.5895L52.9582 13.5887C54.2451 13.914 55.364 13.7089 56.1555 13.4253C56.5048 13.3002 56.7924 13.1585 57.0064 13.039L58.4887 15.1639C57.1997 15.9518 55.7118 16.3632 54.1944 16.3424L53.2205 16.3288L57.9517 23.1112C59.8842 25.8816 59.2052 29.688 56.4454 31.6133C53.8667 33.4121 49.9857 33.0143 47.9463 30.0907C45.9321 27.203 46.7862 23.2057 49.7981 21.3774L51.2821 23.5047C49.4466 24.4861 48.8713 26.8796 50.0752 28.6056C51.1901 30.204 53.3947 30.5765 54.97 29.4777L54.9694 29.4769C55.7145 28.9576 56.2294 28.1702 56.4046 27.279C56.5798 26.3876 56.4017 25.4627 55.9081 24.6999L55.9039 24.6921L47.9568 13.2995L50.0945 11.8082Z" fill="#E87E8C" stroke="#372F32"/>
<circle cx="49.1494" cy="58.7398" r="2.16994" fill="#E65325"/>
<g filter="url(#filter2_n_2220_11259)">
<mask id="path-10-inside-1_2220_11259" fill="white">
<path d="M55.2128 51.8437C55.5707 51.287 55.4087 50.527 54.8354 50.1234C54.2622 49.72 53.492 49.8237 53.0887 50.3484L48.9146 47.4102L51.7129 43.435C51.1599 43.0139 51.0185 42.25 51.403 41.7037C51.7875 41.1574 52.5543 41.0329 53.1373 41.4115L55.9367 37.4347L60.1108 40.3729C60.1006 40.3862 60.0889 40.3989 60.0791 40.4127C59.6853 40.9725 59.8427 41.7617 60.4303 42.1754C61.0179 42.5891 61.8139 42.471 62.2081 41.9114C62.2178 41.8976 62.2259 41.8822 62.2349 41.8682L66.409 44.8064L63.609 48.784C63.6233 48.7933 63.6389 48.8015 63.653 48.8114C64.2405 49.2252 64.3981 50.0143 64.0041 50.5741C63.6101 51.1338 62.8135 51.2524 62.2258 50.8389C62.2117 50.829 62.1982 50.8179 62.1846 50.8075L59.3869 54.7819L55.2128 51.8437Z"/>
</mask>
<path d="M55.2128 51.8437C55.5707 51.287 55.4087 50.527 54.8354 50.1234C54.2622 49.72 53.492 49.8237 53.0887 50.3484L48.9146 47.4102L51.7129 43.435C51.1599 43.0139 51.0185 42.25 51.403 41.7037C51.7875 41.1574 52.5543 41.0329 53.1373 41.4115L55.9367 37.4347L60.1108 40.3729C60.1006 40.3862 60.0889 40.3989 60.0791 40.4127C59.6853 40.9725 59.8427 41.7617 60.4303 42.1754C61.0179 42.5891 61.8139 42.471 62.2081 41.9114C62.2178 41.8976 62.2259 41.8822 62.2349 41.8682L66.409 44.8064L63.609 48.784C63.6233 48.7933 63.6389 48.8015 63.653 48.8114C64.2405 49.2252 64.3981 50.0143 64.0041 50.5741C63.6101 51.1338 62.8135 51.2524 62.2258 50.8389C62.2117 50.829 62.1982 50.8179 62.1846 50.8075L59.3869 54.7819L55.2128 51.8437Z" fill="#6ABF73"/>
<path d="M55.2128 51.8437L54.3717 51.3029L53.8531 52.1095L54.6372 52.6614L55.2128 51.8437ZM54.8354 50.1234L55.4111 49.3057L55.4109 49.3056L54.8354 50.1234ZM53.0887 50.3484L52.5131 51.1661L53.2971 51.7181L53.8815 50.9579L53.0887 50.3484ZM48.9146 47.4102L48.0969 46.8346L47.5213 47.6523L48.339 48.2279L48.9146 47.4102ZM51.7129 43.435L52.5306 44.0106L53.0851 43.2229L52.3187 42.6394L51.7129 43.435ZM51.403 41.7037L50.5853 41.1281L50.5852 41.1282L51.403 41.7037ZM53.1373 41.4115L52.5927 42.2502L53.4006 42.7747L53.9551 41.9871L53.1373 41.4115ZM55.9367 37.4347L56.5123 36.6169L55.6946 36.0413L55.119 36.859L55.9367 37.4347ZM60.1108 40.3729L60.9036 40.9824L61.5392 40.1555L60.6864 39.5552L60.1108 40.3729ZM60.0791 40.4127L59.2617 39.8367L59.2612 39.8374L60.0791 40.4127ZM60.4303 42.1754L59.8545 42.993L59.8547 42.9932L60.4303 42.1754ZM62.2081 41.9114L63.0256 42.4872L63.0261 42.4865L62.2081 41.9114ZM62.2349 41.8682L62.8105 41.0504L61.9577 40.4501L61.3937 41.3274L62.2349 41.8682ZM66.409 44.8064L67.2267 45.382L67.8023 44.5643L66.9846 43.9887L66.409 44.8064ZM63.609 48.784L62.7913 48.2084L62.1939 49.057L63.0641 49.6225L63.609 48.784ZM63.653 48.8114L64.2289 47.9938L64.2286 47.9937L63.653 48.8114ZM64.0041 50.5741L64.8219 51.1497L64.8219 51.1496L64.0041 50.5741ZM62.2258 50.8389L61.6501 51.6566L61.6504 51.6568L62.2258 50.8389ZM62.1846 50.8075L62.7901 50.0117L61.9642 49.3833L61.3668 50.2319L62.1846 50.8075ZM59.3869 54.7819L58.8112 55.5996L59.629 56.1753L60.2046 55.3575L59.3869 54.7819ZM55.2128 51.8437L56.054 52.3845C56.7226 51.3444 56.3902 49.995 55.4111 49.3057L54.8354 50.1234L54.2598 50.9411C54.4271 51.0589 54.4188 51.2295 54.3717 51.3029L55.2128 51.8437ZM54.8354 50.1234L55.4109 49.3056C54.4318 48.6166 53.0494 48.7586 52.2958 49.739L53.0887 50.3484L53.8815 50.9579C53.9346 50.8888 54.0925 50.8234 54.2599 50.9412L54.8354 50.1234ZM53.0887 50.3484L53.6643 49.5307L49.4903 46.5925L48.9146 47.4102L48.339 48.2279L52.5131 51.1661L53.0887 50.3484ZM48.9146 47.4102L49.7324 47.9858L52.5306 44.0106L51.7129 43.435L50.8952 42.8594L48.0969 46.8346L48.9146 47.4102ZM51.7129 43.435L52.3187 42.6394C52.1554 42.515 52.1726 42.3476 52.2208 42.2792L51.403 41.7037L50.5852 41.1282C49.8645 42.1523 50.1644 43.5128 51.1071 44.2306L51.7129 43.435ZM51.403 41.7037L52.2207 42.2793C52.2688 42.211 52.4203 42.1382 52.5927 42.2502L53.1373 41.4115L53.6819 40.5728C52.6883 39.9275 51.3063 40.1038 50.5853 41.1281L51.403 41.7037ZM53.1373 41.4115L53.9551 41.9871L56.7544 38.0103L55.9367 37.4347L55.119 36.859L52.3196 40.8358L53.1373 41.4115ZM55.9367 37.4347L55.3611 38.2524L59.5351 41.1906L60.1108 40.3729L60.6864 39.5552L56.5123 36.6169L55.9367 37.4347ZM60.1108 40.3729L59.3179 39.7634C59.3241 39.7554 59.3286 39.75 59.329 39.7494C59.3293 39.7491 59.3292 39.7492 59.3281 39.7506C59.3274 39.7514 59.325 39.7543 59.3229 39.7569C59.3153 39.766 59.2896 39.7971 59.2617 39.8367L60.0791 40.4127L60.8965 40.9888C60.8866 41.0029 60.8784 41.0136 60.8736 41.0198C60.8689 41.0257 60.8658 41.0295 60.8667 41.0283C60.8673 41.0276 60.8676 41.0272 60.8696 41.0248C60.8712 41.0229 60.8738 41.0197 60.8768 41.0161C60.8826 41.009 60.8923 40.997 60.9036 40.9824L60.1108 40.3729ZM60.0791 40.4127L59.2612 39.8374C58.5234 40.8862 58.854 42.2885 59.8545 42.993L60.4303 42.1754L61.006 41.3578C60.8315 41.2349 60.8472 41.0589 60.897 40.9881L60.0791 40.4127ZM60.4303 42.1754L59.8547 42.9932C60.8556 43.6977 62.2872 43.5355 63.0256 42.4872L62.2081 41.9114L61.3905 41.3355C61.3406 41.4064 61.1803 41.4804 61.0059 41.3577L60.4303 42.1754ZM62.2081 41.9114L63.0261 42.4865C63.054 42.4469 63.0745 42.4123 63.0806 42.4021C63.0823 42.3992 63.0842 42.396 63.0848 42.395C63.0857 42.3935 63.0858 42.3934 63.0855 42.3938C63.0852 42.3944 63.0816 42.4004 63.0761 42.4089L62.2349 41.8682L61.3937 41.3274C61.3837 41.3429 61.3757 41.3562 61.371 41.364C61.3686 41.3681 61.3665 41.3716 61.3652 41.3737C61.3636 41.3764 61.3634 41.3769 61.3629 41.3776C61.3621 41.3789 61.3647 41.3747 61.3687 41.3683C61.3728 41.3616 61.3801 41.3503 61.3901 41.3362L62.2081 41.9114ZM62.2349 41.8682L61.6593 42.6859L65.8333 45.6241L66.409 44.8064L66.9846 43.9887L62.8105 41.0504L62.2349 41.8682ZM66.409 44.8064L65.5912 44.2308L62.7913 48.2084L63.609 48.784L64.4267 49.3596L67.2267 45.382L66.409 44.8064ZM63.609 48.784L63.0641 49.6225C63.0807 49.6333 63.0948 49.6419 63.1034 49.6471C63.1078 49.6498 63.1117 49.6521 63.1141 49.6535C63.1152 49.6541 63.1166 49.655 63.1172 49.6553C63.118 49.6558 63.1184 49.6561 63.1187 49.6562C63.1204 49.6572 63.1162 49.6547 63.1098 49.6508C63.1032 49.6466 63.0917 49.6392 63.0774 49.6291L63.653 48.8114L64.2286 47.9937C64.2073 47.9786 64.1885 47.9665 64.1745 47.9577C64.1609 47.9491 64.1492 47.9421 64.1435 47.9387C64.1411 47.9373 64.1373 47.935 64.1369 47.9348C64.1356 47.934 64.1357 47.9341 64.1365 47.9345C64.1377 47.9353 64.1445 47.9394 64.1539 47.9455L63.609 48.784ZM63.653 48.8114L63.0772 49.6289C63.252 49.7521 63.2359 49.9281 63.1864 49.9985L64.0041 50.5741L64.8219 51.1496C65.5602 50.1005 65.229 48.6983 64.2289 47.9938L63.653 48.8114ZM64.0041 50.5741L63.1864 49.9985C63.1363 50.0696 62.9753 50.1436 62.8012 50.021L62.2258 50.8389L61.6504 51.6568C62.6517 52.3613 64.0839 52.1981 64.8219 51.1497L64.0041 50.5741ZM62.2258 50.8389L62.8014 50.0212C62.8081 50.026 62.8132 50.0297 62.8159 50.0317C62.8185 50.0337 62.8198 50.0347 62.8186 50.0338C62.818 50.0333 62.8172 50.0327 62.8157 50.0315C62.8146 50.0307 62.8121 50.0287 62.8101 50.0271C62.8056 50.0237 62.7984 50.0181 62.7901 50.0117L62.1846 50.8075L61.579 51.6033C61.5775 51.6022 61.5771 51.6019 61.5795 51.6037C61.58 51.6041 61.5871 51.6097 61.5914 51.613C61.6019 51.6212 61.6235 51.6379 61.6501 51.6566L62.2258 50.8389ZM62.1846 50.8075L61.3668 50.2319L58.5691 54.2063L59.3869 54.7819L60.2046 55.3575L63.0023 51.3831L62.1846 50.8075ZM59.3869 54.7819L59.9625 53.9642L55.7884 51.026L55.2128 51.8437L54.6372 52.6614L58.8112 55.5996L59.3869 54.7819Z" fill="#372F32" mask="url(#path-10-inside-1_2220_11259)"/>
</g>
<g filter="url(#filter3_n_2220_11259)">
<mask id="path-12-inside-2_2220_11259" fill="white">
<path d="M60.4726 31.7573C61.0381 32.1015 61.7945 31.9206 62.1837 31.3375C62.5725 30.7542 62.4491 29.9863 61.9142 29.5964L64.747 25.3501L68.7902 28.0474C69.1972 27.4836 69.9573 27.3237 70.5132 27.6942C71.0691 28.0651 71.2131 28.8283 70.8488 29.4207L74.8953 32.1202L72.063 36.3657C72.0495 36.3558 72.0364 36.3444 72.0224 36.3351C71.4529 35.9554 70.668 36.1326 70.269 36.7302C69.8702 37.3281 70.0082 38.1208 70.5775 38.5009C70.5916 38.5102 70.6071 38.5179 70.6214 38.5266L67.7875 42.7745L63.7402 40.0745C63.7314 40.0889 63.7239 40.1042 63.7145 40.1184C63.3156 40.7161 62.5307 40.8932 61.9612 40.5135C61.3916 40.1336 61.2531 39.3403 61.6519 38.7424C61.6613 38.7282 61.6718 38.7149 61.6817 38.7012L57.6393 36.0044L60.4726 31.7573Z"/>
</mask>
<path d="M60.4726 31.7573C61.0381 32.1015 61.7945 31.9206 62.1837 31.3375C62.5725 30.7542 62.4491 29.9863 61.9142 29.5964L64.747 25.3501L68.7902 28.0474C69.1972 27.4836 69.9573 27.3237 70.5132 27.6942C71.0691 28.0651 71.2131 28.8283 70.8488 29.4207L74.8953 32.1202L72.063 36.3657C72.0495 36.3558 72.0364 36.3444 72.0224 36.3351C71.4529 35.9554 70.668 36.1326 70.269 36.7302C69.8702 37.3281 70.0082 38.1208 70.5775 38.5009C70.5916 38.5102 70.6071 38.5179 70.6214 38.5266L67.7875 42.7745L63.7402 40.0745C63.7314 40.0889 63.7239 40.1042 63.7145 40.1184C63.3156 40.7161 62.5307 40.8932 61.9612 40.5135C61.3916 40.1336 61.2531 39.3403 61.6519 38.7424C61.6613 38.7282 61.6718 38.7149 61.6817 38.7012L57.6393 36.0044L60.4726 31.7573Z" fill="#E65325"/>
<path d="M60.4726 31.7573L60.9925 30.9031L60.1731 30.4044L59.6407 31.2024L60.4726 31.7573ZM62.1837 31.3375L63.0154 31.8927L63.0158 31.8921L62.1837 31.3375ZM61.9142 29.5964L61.0823 29.0414L60.55 29.8394L61.3252 30.4045L61.9142 29.5964ZM64.747 25.3501L65.302 24.5182L64.4701 23.9633L63.9151 24.7951L64.747 25.3501ZM68.7902 28.0474L68.2353 28.8793L69.0369 29.4141L69.601 28.6327L68.7902 28.0474ZM70.5132 27.6942L71.0682 26.8623L71.0679 26.8621L70.5132 27.6942ZM70.8488 29.4207L69.997 28.8969L69.4922 29.7178L70.2938 30.2526L70.8488 29.4207ZM74.8953 32.1202L75.7271 32.6752L76.2821 31.8433L75.4502 31.2883L74.8953 32.1202ZM72.063 36.3657L71.4735 37.1735L72.316 37.7883L72.8949 36.9206L72.063 36.3657ZM72.0224 36.3351L72.5779 35.5036L72.5771 35.5031L72.0224 36.3351ZM70.269 36.7302L69.4373 36.175L69.4372 36.1753L70.269 36.7302ZM70.5775 38.5009L70.0224 39.3326L70.0231 39.3331L70.5775 38.5009ZM70.6214 38.5266L71.4533 39.0816L72.0321 38.2139L71.1409 37.6721L70.6214 38.5266ZM67.7875 42.7745L67.2326 43.6064L68.0644 44.1614L68.6194 43.3295L67.7875 42.7745ZM63.7402 40.0745L64.2952 39.2426L63.4322 38.6669L62.8885 39.5505L63.7402 40.0745ZM63.7145 40.1184L64.5463 40.6735L64.5465 40.6732L63.7145 40.1184ZM61.9612 40.5135L61.4062 41.3454L61.4064 41.3456L61.9612 40.5135ZM61.6519 38.7424L60.8201 38.1872L60.8199 38.1875L61.6519 38.7424ZM61.6817 38.7012L62.4926 39.2864L63.0997 38.4451L62.2366 37.8693L61.6817 38.7012ZM57.6393 36.0044L56.8074 35.4495L56.2524 36.2813L57.0843 36.8363L57.6393 36.0044ZM60.4726 31.7573L59.9527 32.6116C61.0089 33.2543 62.3505 32.8889 63.0154 31.8927L62.1837 31.3375L61.352 30.7823C61.2385 30.9523 61.0673 30.9486 60.9925 30.9031L60.4726 31.7573ZM62.1837 31.3375L63.0158 31.8921C63.68 30.8957 63.5025 29.5167 62.5033 28.7883L61.9142 29.5964L61.3252 30.4045C61.3957 30.4559 61.4651 30.6127 61.3516 30.7829L62.1837 31.3375ZM61.9142 29.5964L62.7461 30.1514L65.5789 25.9051L64.747 25.3501L63.9151 24.7951L61.0823 29.0414L61.9142 29.5964ZM64.747 25.3501L64.1921 26.182L68.2353 28.8793L68.7902 28.0474L69.3452 27.2155L65.302 24.5182L64.747 25.3501ZM68.7902 28.0474L69.601 28.6327C69.7207 28.4669 69.8882 28.4794 69.9586 28.5263L70.5132 27.6942L71.0679 26.8621C70.0265 26.1679 68.6737 26.5003 67.9794 27.4621L68.7902 28.0474ZM70.5132 27.6942L69.9583 28.5261C70.0282 28.5728 70.1044 28.7223 69.997 28.8969L70.8488 29.4207L71.7006 29.9445C72.3218 28.9344 72.11 27.5574 71.0682 26.8623L70.5132 27.6942ZM70.8488 29.4207L70.2938 30.2526L74.3403 32.9521L74.8953 32.1202L75.4502 31.2883L71.4038 28.5888L70.8488 29.4207ZM74.8953 32.1202L74.0634 31.5652L71.2311 35.8107L72.063 36.3657L72.8949 36.9206L75.7271 32.6752L74.8953 32.1202ZM72.063 36.3657L72.6525 35.5579C72.6606 35.5638 72.6661 35.5681 72.6667 35.5686C72.667 35.5688 72.6669 35.5688 72.6655 35.5676C72.6646 35.567 72.6617 35.5646 72.6591 35.5626C72.6497 35.5553 72.6181 35.5304 72.5779 35.5036L72.0224 36.3351L71.4668 37.1666C71.4526 37.157 71.4417 37.1491 71.4355 37.1444C71.4294 37.1399 71.4256 37.1369 71.4267 37.1378C71.4274 37.1384 71.4278 37.1387 71.4303 37.1406C71.4322 37.1421 71.4355 37.1447 71.4392 37.1476C71.4464 37.1532 71.4586 37.1626 71.4735 37.1735L72.063 36.3657ZM72.0224 36.3351L72.5771 35.5031C71.5101 34.7915 70.1166 35.1575 69.4373 36.175L70.269 36.7302L71.1008 37.2854C71.2194 37.1077 71.3958 37.1192 71.4676 37.1671L72.0224 36.3351ZM70.269 36.7302L69.4372 36.1753C68.7578 37.1936 68.9557 38.6207 70.0224 39.3326L70.5775 38.5009L71.1327 37.6691C71.0606 37.621 70.9825 37.4626 71.1009 37.2852L70.269 36.7302ZM70.5775 38.5009L70.0231 39.3331C70.0634 39.3599 70.0984 39.3795 70.1088 39.3854C70.1117 39.387 70.115 39.3889 70.1159 39.3894C70.1175 39.3903 70.1176 39.3903 70.1172 39.3901C70.1166 39.3898 70.1105 39.3863 70.1019 39.3811L70.6214 38.5266L71.1409 37.6721C71.1251 37.6625 71.1117 37.6549 71.1037 37.6503C71.0997 37.648 71.0961 37.646 71.0939 37.6448C71.0912 37.6433 71.0907 37.643 71.0899 37.6426C71.0887 37.6419 71.093 37.6443 71.0994 37.6481C71.1062 37.6521 71.1177 37.6591 71.1319 37.6686L70.5775 38.5009ZM70.6214 38.5266L69.7895 37.9716L66.9556 42.2196L67.7875 42.7745L68.6194 43.3295L71.4533 39.0816L70.6214 38.5266ZM67.7875 42.7745L68.3425 41.9427L64.2952 39.2426L63.7402 40.0745L63.1853 40.9064L67.2326 43.6064L67.7875 42.7745ZM63.7402 40.0745L62.8885 39.5505C62.8779 39.5678 62.8694 39.5825 62.8643 39.5916C62.8617 39.5962 62.8594 39.6002 62.858 39.6027C62.8574 39.6039 62.8566 39.6052 62.8563 39.6058C62.8558 39.6067 62.8555 39.6071 62.8554 39.6074C62.8544 39.6091 62.857 39.6045 62.861 39.5977C62.8652 39.5906 62.8725 39.5785 62.8825 39.5636L63.7145 40.1184L64.5465 40.6732C64.5612 40.6512 64.573 40.6318 64.5815 40.6174C64.5899 40.6033 64.5966 40.5914 64.5998 40.5857C64.601 40.5835 64.6034 40.5793 64.6034 40.5793C64.6041 40.5781 64.6039 40.5784 64.6033 40.5793C64.6024 40.581 64.5982 40.5884 64.5919 40.5985L63.7402 40.0745ZM63.7145 40.1184L62.8827 39.5633C62.7643 39.7408 62.5879 39.7295 62.5159 39.6815L61.9612 40.5135L61.4064 41.3456C62.4734 42.0569 63.867 41.6914 64.5463 40.6735L63.7145 40.1184ZM61.9612 40.5135L62.5161 39.6817C62.4436 39.6333 62.3658 39.4742 62.4838 39.2972L61.6519 38.7424L60.8199 38.1875C60.1404 39.2064 60.3397 40.634 61.4062 41.3454L61.9612 40.5135ZM61.6519 38.7424L62.4836 39.2975C62.4789 39.3046 62.4751 39.31 62.473 39.313C62.4709 39.3159 62.4698 39.3174 62.4706 39.3162C62.471 39.3157 62.4716 39.3149 62.4728 39.3133C62.4737 39.3121 62.4755 39.3096 62.4772 39.3074C62.4806 39.3027 62.4862 39.2952 62.4926 39.2864L61.6817 38.7012L60.8708 38.116C60.8722 38.1141 60.8728 38.1133 60.8712 38.1154C60.8703 38.1166 60.8696 38.1175 60.868 38.1197C60.8666 38.1215 60.8647 38.1241 60.8626 38.127C60.8548 38.1375 60.8384 38.1598 60.8201 38.1872L61.6519 38.7424ZM61.6817 38.7012L62.2366 37.8693L58.1942 35.1726L57.6393 36.0044L57.0843 36.8363L61.1267 39.5331L61.6817 38.7012ZM57.6393 36.0044L58.4712 36.5594L61.3045 32.3123L60.4726 31.7573L59.6407 31.2024L56.8074 35.4495L57.6393 36.0044Z" fill="#372F32" mask="url(#path-12-inside-2_2220_11259)"/>
</g>
<g filter="url(#filter4_n_2220_11259)">
<mask id="path-14-inside-3_2220_11259" fill="white">
<path d="M41.8444 4.16954C41.7854 4.17798 41.7265 4.19413 41.6708 4.2235C41.4096 4.36116 41.3089 4.6844 41.4465 4.94559C41.5842 5.20681 41.9082 5.30715 42.1694 5.16946C42.2251 5.14009 42.2717 5.10059 42.312 5.05675L42.6754 5.74614C42.6165 5.75462 42.5575 5.77074 42.5018 5.8001C42.2406 5.93779 42.1403 6.26184 42.278 6.52306C42.4158 6.78406 42.7394 6.8837 43.0005 6.74606C43.0562 6.71668 43.1028 6.67723 43.1431 6.63335L43.506 7.32188C43.4468 7.33029 43.3876 7.34677 43.3316 7.37629C43.0704 7.51399 42.9709 7.83758 43.1086 8.09879C43.2464 8.35969 43.5691 8.45986 43.8302 8.32225C43.8862 8.29273 43.9333 8.25324 43.9737 8.20909L44.2542 8.74125C44.1949 8.74966 44.1358 8.76615 44.0798 8.79566C43.8187 8.93334 43.7188 9.25615 43.8563 9.5173C43.994 9.7785 44.3172 9.87927 44.5784 9.74163C44.6344 9.71213 44.6815 9.67257 44.7219 9.62846L45.0853 10.3178C45.0261 10.3263 44.9667 10.3428 44.9108 10.3723C44.6498 10.51 44.5502 10.8336 44.6878 11.0948C44.8255 11.3558 45.1483 11.4557 45.4095 11.3182C45.4654 11.2887 45.5125 11.2492 45.5529 11.2051L45.9163 11.8945C45.8573 11.9029 45.7985 11.9191 45.7427 11.9484C45.4817 12.086 45.381 12.4094 45.5184 12.6705C45.6561 12.9317 45.9802 13.0321 46.2414 12.8944C46.2971 12.865 46.3437 12.8255 46.384 12.7817L46.7474 13.4711C46.6885 13.4795 46.6294 13.4957 46.5738 13.525C46.3127 13.6627 46.2131 13.9863 46.3508 14.2475C46.4885 14.5087 46.8113 14.6086 47.0724 14.471C47.1282 14.4416 47.1747 14.4021 47.215 14.3583L47.4956 14.8904C47.4366 14.8989 47.3777 14.915 47.322 14.9444C47.0609 15.082 46.9602 15.4053 47.0977 15.6665C47.2354 15.9277 47.5594 16.028 47.8206 15.8903C47.8763 15.861 47.9229 15.8215 47.9632 15.7776L48.3111 16.4377L46.4192 17.4349L46.4188 17.4341C46.281 17.1731 45.9573 17.0734 45.6963 17.2111C45.4352 17.3487 45.3354 17.6716 45.4728 17.9327L45.4741 17.9331L44.8417 18.2664L44.8413 18.2656C44.7036 18.0044 44.3796 17.904 44.1183 18.0417C43.8571 18.1794 43.7576 18.503 43.8953 18.7642L43.8967 18.7646L43.2651 19.0975L43.2647 19.0966C43.1269 18.8357 42.8033 18.736 42.5422 18.8736C42.2813 19.0113 42.1814 19.3342 42.3187 19.5953L42.3201 19.5957L41.8466 19.8452L41.8462 19.8444C41.7085 19.5833 41.3857 19.4834 41.1245 19.6209C40.8634 19.7586 40.7626 20.0818 40.9002 20.343L40.9015 20.3434L40.2692 20.6767L40.2687 20.6759C40.131 20.4147 39.807 20.3143 39.5458 20.452C39.2849 20.5898 39.1851 20.9134 39.3228 21.1745L39.3241 21.1749L38.6934 21.5073L38.693 21.5065C38.5553 21.2453 38.2317 21.1458 37.9705 21.2835C37.7093 21.4212 37.6094 21.7439 37.747 22.0051L37.7483 22.0055L37.1168 22.3384C36.9791 22.0772 36.6551 21.9768 36.3939 22.1145C36.1656 22.235 36.0606 22.4976 36.1298 22.7361L36.1709 22.837L35.6975 23.0866L35.697 23.0857C35.5592 22.8248 35.2364 22.7247 34.9754 22.8623C34.7143 22.9999 34.6137 23.3232 34.751 23.5844L34.7524 23.5848L32.8604 24.582L32.5276 23.9505C32.7878 23.8124 32.8872 23.4893 32.7497 23.2285C32.6122 22.9679 32.2898 22.868 32.0289 23.0046L31.7798 22.532C32.0401 22.3939 32.1394 22.0708 32.002 21.81C31.8644 21.5494 31.5421 21.4494 31.2812 21.5861L30.9492 20.9563C31.2103 20.8185 31.3099 20.4949 31.1722 20.2338C31.0346 19.9727 30.7118 19.8728 30.4506 20.0103L30.1177 19.3788C30.3785 19.2411 30.4785 18.9182 30.3412 18.6572C30.2036 18.3961 29.8802 18.2955 29.6191 18.4329L29.2867 17.8022C29.5471 17.6643 29.6467 17.3419 29.5093 17.081C29.3717 16.8201 29.0491 16.7193 28.788 16.8563L28.5385 16.3828C28.799 16.2449 28.8993 15.9221 28.7619 15.6612C28.6244 15.4003 28.3009 15.2998 28.0398 15.4369L27.7079 14.8071C27.9681 14.669 28.0675 14.3458 27.93 14.0851C27.7926 13.8243 27.4702 13.7245 27.2092 13.8611L26.8768 13.2305C27.1378 13.0927 27.2374 12.7691 27.0998 12.508C26.9621 12.2471 26.6393 12.1472 26.3782 12.2845L25.9629 11.4967L27.8539 10.4999C27.9916 10.761 28.3149 10.8616 28.576 10.7242C28.8373 10.5865 28.9376 10.2624 28.7999 10.0012L29.2733 9.75168C29.411 10.0128 29.7338 10.1128 29.9949 9.97514C30.2561 9.83746 30.3569 9.51424 30.2193 9.25304L30.849 8.92107C30.9868 9.18208 31.3104 9.28172 31.5716 9.14408C31.7998 9.02349 31.9051 8.76112 31.8356 8.52248L31.795 8.42244L32.4265 8.08956C32.5643 8.35042 32.8862 8.45108 33.1473 8.31347C33.4083 8.17586 33.5089 7.85251 33.3716 7.59138L34.0031 7.2585C34.1408 7.51969 34.464 7.62046 34.7252 7.48282C34.9864 7.34513 35.0868 7.02108 34.9491 6.75986L35.4216 6.51077C35.5594 6.77171 35.8822 6.87182 36.1433 6.73423C36.4044 6.5966 36.505 6.27329 36.3676 6.01214L36.9982 5.67972C37.1361 5.94052 37.4588 6.04077 37.7199 5.90317C37.9806 5.76546 38.0805 5.44252 37.9433 5.18154L38.5748 4.84866C38.7125 5.10976 39.0358 5.2104 39.2969 5.07298C39.5581 4.93529 39.6585 4.61124 39.5208 4.35002L41.4136 3.35229L41.8444 4.16954Z"/>
</mask>
<path d="M41.8444 4.16954C41.7854 4.17798 41.7265 4.19413 41.6708 4.2235C41.4096 4.36116 41.3089 4.6844 41.4465 4.94559C41.5842 5.20681 41.9082 5.30715 42.1694 5.16946C42.2251 5.14009 42.2717 5.10059 42.312 5.05675L42.6754 5.74614C42.6165 5.75462 42.5575 5.77074 42.5018 5.8001C42.2406 5.93779 42.1403 6.26184 42.278 6.52306C42.4158 6.78406 42.7394 6.8837 43.0005 6.74606C43.0562 6.71668 43.1028 6.67723 43.1431 6.63335L43.506 7.32188C43.4468 7.33029 43.3876 7.34677 43.3316 7.37629C43.0704 7.51399 42.9709 7.83758 43.1086 8.09879C43.2464 8.35969 43.5691 8.45986 43.8302 8.32225C43.8862 8.29273 43.9333 8.25324 43.9737 8.20909L44.2542 8.74125C44.1949 8.74966 44.1358 8.76615 44.0798 8.79566C43.8187 8.93334 43.7188 9.25615 43.8563 9.5173C43.994 9.7785 44.3172 9.87927 44.5784 9.74163C44.6344 9.71213 44.6815 9.67257 44.7219 9.62846L45.0853 10.3178C45.0261 10.3263 44.9667 10.3428 44.9108 10.3723C44.6498 10.51 44.5502 10.8336 44.6878 11.0948C44.8255 11.3558 45.1483 11.4557 45.4095 11.3182C45.4654 11.2887 45.5125 11.2492 45.5529 11.2051L45.9163 11.8945C45.8573 11.9029 45.7985 11.9191 45.7427 11.9484C45.4817 12.086 45.381 12.4094 45.5184 12.6705C45.6561 12.9317 45.9802 13.0321 46.2414 12.8944C46.2971 12.865 46.3437 12.8255 46.384 12.7817L46.7474 13.4711C46.6885 13.4795 46.6294 13.4957 46.5738 13.525C46.3127 13.6627 46.2131 13.9863 46.3508 14.2475C46.4885 14.5087 46.8113 14.6086 47.0724 14.471C47.1282 14.4416 47.1747 14.4021 47.215 14.3583L47.4956 14.8904C47.4366 14.8989 47.3777 14.915 47.322 14.9444C47.0609 15.082 46.9602 15.4053 47.0977 15.6665C47.2354 15.9277 47.5594 16.028 47.8206 15.8903C47.8763 15.861 47.9229 15.8215 47.9632 15.7776L48.3111 16.4377L46.4192 17.4349L46.4188 17.4341C46.281 17.1731 45.9573 17.0734 45.6963 17.2111C45.4352 17.3487 45.3354 17.6716 45.4728 17.9327L45.4741 17.9331L44.8417 18.2664L44.8413 18.2656C44.7036 18.0044 44.3796 17.904 44.1183 18.0417C43.8571 18.1794 43.7576 18.503 43.8953 18.7642L43.8967 18.7646L43.2651 19.0975L43.2647 19.0966C43.1269 18.8357 42.8033 18.736 42.5422 18.8736C42.2813 19.0113 42.1814 19.3342 42.3187 19.5953L42.3201 19.5957L41.8466 19.8452L41.8462 19.8444C41.7085 19.5833 41.3857 19.4834 41.1245 19.6209C40.8634 19.7586 40.7626 20.0818 40.9002 20.343L40.9015 20.3434L40.2692 20.6767L40.2687 20.6759C40.131 20.4147 39.807 20.3143 39.5458 20.452C39.2849 20.5898 39.1851 20.9134 39.3228 21.1745L39.3241 21.1749L38.6934 21.5073L38.693 21.5065C38.5553 21.2453 38.2317 21.1458 37.9705 21.2835C37.7093 21.4212 37.6094 21.7439 37.747 22.0051L37.7483 22.0055L37.1168 22.3384C36.9791 22.0772 36.6551 21.9768 36.3939 22.1145C36.1656 22.235 36.0606 22.4976 36.1298 22.7361L36.1709 22.837L35.6975 23.0866L35.697 23.0857C35.5592 22.8248 35.2364 22.7247 34.9754 22.8623C34.7143 22.9999 34.6137 23.3232 34.751 23.5844L34.7524 23.5848L32.8604 24.582L32.5276 23.9505C32.7878 23.8124 32.8872 23.4893 32.7497 23.2285C32.6122 22.9679 32.2898 22.868 32.0289 23.0046L31.7798 22.532C32.0401 22.3939 32.1394 22.0708 32.002 21.81C31.8644 21.5494 31.5421 21.4494 31.2812 21.5861L30.9492 20.9563C31.2103 20.8185 31.3099 20.4949 31.1722 20.2338C31.0346 19.9727 30.7118 19.8728 30.4506 20.0103L30.1177 19.3788C30.3785 19.2411 30.4785 18.9182 30.3412 18.6572C30.2036 18.3961 29.8802 18.2955 29.6191 18.4329L29.2867 17.8022C29.5471 17.6643 29.6467 17.3419 29.5093 17.081C29.3717 16.8201 29.0491 16.7193 28.788 16.8563L28.5385 16.3828C28.799 16.2449 28.8993 15.9221 28.7619 15.6612C28.6244 15.4003 28.3009 15.2998 28.0398 15.4369L27.7079 14.8071C27.9681 14.669 28.0675 14.3458 27.93 14.0851C27.7926 13.8243 27.4702 13.7245 27.2092 13.8611L26.8768 13.2305C27.1378 13.0927 27.2374 12.7691 27.0998 12.508C26.9621 12.2471 26.6393 12.1472 26.3782 12.2845L25.9629 11.4967L27.8539 10.4999C27.9916 10.761 28.3149 10.8616 28.576 10.7242C28.8373 10.5865 28.9376 10.2624 28.7999 10.0012L29.2733 9.75168C29.411 10.0128 29.7338 10.1128 29.9949 9.97514C30.2561 9.83746 30.3569 9.51424 30.2193 9.25304L30.849 8.92107C30.9868 9.18208 31.3104 9.28172 31.5716 9.14408C31.7998 9.02349 31.9051 8.76112 31.8356 8.52248L31.795 8.42244L32.4265 8.08956C32.5643 8.35042 32.8862 8.45108 33.1473 8.31347C33.4083 8.17586 33.5089 7.85251 33.3716 7.59138L34.0031 7.2585C34.1408 7.51969 34.464 7.62046 34.7252 7.48282C34.9864 7.34513 35.0868 7.02108 34.9491 6.75986L35.4216 6.51077C35.5594 6.77171 35.8822 6.87182 36.1433 6.73423C36.4044 6.5966 36.505 6.27329 36.3676 6.01214L36.9982 5.67972C37.1361 5.94052 37.4588 6.04077 37.7199 5.90317C37.9806 5.76546 38.0805 5.44252 37.9433 5.18154L38.5748 4.84866C38.7125 5.10976 39.0358 5.2104 39.2969 5.07298C39.5581 4.93529 39.6585 4.61124 39.5208 4.35002L41.4136 3.35229L41.8444 4.16954Z" fill="#FEFDF5"/>
<path d="M41.8444 4.16954L41.9861 5.15945L43.3906 4.95839L42.729 3.70323L41.8444 4.16954ZM41.6708 4.2235L41.2048 3.3387L41.2045 3.33887L41.6708 4.2235ZM41.4465 4.94559L40.5617 5.41161L40.5618 5.4119L41.4465 4.94559ZM42.1694 5.16946L42.6357 6.05408L42.636 6.05391L42.1694 5.16946ZM42.312 5.05675L43.1967 4.59045L42.5353 3.33582L41.5757 4.38013L42.312 5.05675ZM42.6754 5.74614L42.8178 6.73595L44.2212 6.53412L43.56 5.27983L42.6754 5.74614ZM42.5018 5.8001L42.0355 4.91547L42.0355 4.91547L42.5018 5.8001ZM42.278 6.52306L41.3934 6.98936L41.3936 6.98988L42.278 6.52306ZM43.0005 6.74606L43.4668 7.63068L43.4668 7.63068L43.0005 6.74606ZM43.1431 6.63335L44.0277 6.16705L43.3664 4.91249L42.4068 5.9567L43.1431 6.63335ZM43.506 7.32188L43.6466 8.31195L45.0531 8.11226L44.3906 6.85557L43.506 7.32188ZM43.3316 7.37629L42.8653 6.49167L42.8653 6.49168L43.3316 7.37629ZM43.1086 8.09879L42.224 8.5651L42.2244 8.56587L43.1086 8.09879ZM43.8302 8.32225L44.2965 9.20689L44.2965 9.20688L43.8302 8.32225ZM43.9737 8.20909L44.8583 7.74279L44.1959 6.48608L43.2363 7.53362L43.9737 8.20909ZM44.2542 8.74125L44.3947 9.73132L45.8013 9.53167L45.1388 8.27494L44.2542 8.74125ZM44.0798 8.79566L43.6135 7.91104L43.6133 7.91111L44.0798 8.79566ZM43.8563 9.5173L42.9714 9.98315L42.9717 9.98361L43.8563 9.5173ZM44.5784 9.74163L45.0446 10.6263L45.0447 10.6263L44.5784 9.74163ZM44.7219 9.62846L45.6065 9.16216L44.9442 7.90579L43.9847 8.95281L44.7219 9.62846ZM45.0853 10.3178L45.2265 11.3078L46.6319 11.1074L45.9699 9.85155L45.0853 10.3178ZM44.9108 10.3723L44.4445 9.48764L44.4441 9.48788L44.9108 10.3723ZM44.6878 11.0948L43.8032 11.5611L43.8034 11.5614L44.6878 11.0948ZM45.4095 11.3182L45.8753 12.2031L45.8758 12.2029L45.4095 11.3182ZM45.5529 11.2051L46.4376 10.7388L45.7753 9.48245L44.8157 10.5294L45.5529 11.2051ZM45.9163 11.8945L46.0584 12.8843L47.4623 12.6828L46.8009 11.4281L45.9163 11.8945ZM45.7427 11.9484L45.2766 11.0637L45.2764 11.0638L45.7427 11.9484ZM45.5184 12.6705L44.6334 13.1361L44.6338 13.1368L45.5184 12.6705ZM46.2414 12.8944L46.7077 13.779L46.7078 13.7789L46.2414 12.8944ZM46.384 12.7817L47.2686 12.3154L46.6073 11.0608L45.6477 12.105L46.384 12.7817ZM46.7474 13.4711L46.8901 14.4608L48.2929 14.2585L47.632 13.0047L46.7474 13.4711ZM46.5738 13.525L46.1075 12.6404L46.1073 12.6405L46.5738 13.525ZM46.3508 14.2475L45.4662 14.7138L45.4662 14.7139L46.3508 14.2475ZM47.0724 14.471L47.5386 15.3557L47.5387 15.3556L47.0724 14.471ZM47.215 14.3583L48.0997 13.892L47.4384 12.6374L46.4788 13.6816L47.215 14.3583ZM47.4956 14.8904L47.6374 15.8803L49.0417 15.6791L48.3802 14.4241L47.4956 14.8904ZM47.322 14.9444L46.856 14.0596L46.8557 14.0598L47.322 14.9444ZM47.0977 15.6665L46.2127 16.1322L46.213 16.1328L47.0977 15.6665ZM47.8206 15.8903L48.2869 16.775L48.2872 16.7748L47.8206 15.8903ZM47.9632 15.7776L48.8479 15.3113L48.1865 14.0566L47.2269 15.1011L47.9632 15.7776ZM48.3111 16.4377L48.7774 17.3223L49.6621 16.856L49.1958 15.9714L48.3111 16.4377ZM46.4192 17.4349L45.5346 17.9012L46.0009 18.7859L46.8855 18.3196L46.4192 17.4349ZM46.4188 17.4341L47.3034 16.9678L47.303 16.9671L46.4188 17.4341ZM45.6963 17.2111L45.23 16.3264L45.2298 16.3265L45.6963 17.2111ZM45.4728 17.9327L44.5878 18.3983L44.7809 18.7653L45.177 18.8879L45.4728 17.9327ZM45.4741 17.9331L45.9404 18.8177L48.0761 17.692L45.7699 16.9779L45.4741 17.9331ZM44.8417 18.2664L43.9571 18.7327L44.4234 19.6174L45.3081 19.1511L44.8417 18.2664ZM44.8413 18.2656L43.9567 18.7319L44.8413 18.2656ZM44.1183 18.0417L43.652 17.1571L43.652 17.1571L44.1183 18.0417ZM43.8953 18.7642L43.0107 19.2305L43.2039 19.5969L43.5995 19.7195L43.8953 18.7642ZM43.8967 18.7646L44.363 19.6492L46.4986 18.5235L44.1925 17.8094L43.8967 18.7646ZM43.2651 19.0975L42.3805 19.5638L42.8468 20.4484L43.7315 19.9821L43.2651 19.0975ZM43.2647 19.0966L44.1493 18.6303L44.1489 18.6296L43.2647 19.0966ZM42.5422 18.8736L42.0759 17.989L42.0754 17.9893L42.5422 18.8736ZM42.3187 19.5953L41.4337 20.0609L41.6268 20.4279L42.0229 20.5505L42.3187 19.5953ZM42.3201 19.5957L42.7864 20.4803L44.922 19.3545L42.6158 18.6404L42.3201 19.5957ZM41.8466 19.8452L40.962 20.3115L41.4283 21.1962L42.3129 20.7298L41.8466 19.8452ZM41.8462 19.8444L42.7308 19.3781L42.7307 19.3779L41.8462 19.8444ZM41.1245 19.6209L40.6586 18.7361L40.6582 18.7363L41.1245 19.6209ZM40.9002 20.343L40.0155 20.8091L40.2086 21.1757L40.6044 21.2982L40.9002 20.343ZM40.9015 20.3434L41.3678 21.228L43.5035 20.1023L41.1973 19.3882L40.9015 20.3434ZM40.2692 20.6767L39.3845 21.143L39.8509 22.0277L40.7355 21.5614L40.2692 20.6767ZM39.5458 20.452L39.0795 19.5674L39.0787 19.5678L39.5458 20.452ZM39.3228 21.1745L38.4381 21.6408L38.6313 22.0072L39.027 22.1298L39.3228 21.1745ZM39.3241 21.1749L39.7904 22.0595L41.9261 20.9338L39.6199 20.2197L39.3241 21.1749ZM38.6934 21.5073L37.8088 21.9736L38.2751 22.8583L39.1597 22.392L38.6934 21.5073ZM38.693 21.5065L39.5776 21.0402L39.5775 21.04L38.693 21.5065ZM37.9705 21.2835L37.5042 20.3989L37.5042 20.3989L37.9705 21.2835ZM37.747 22.0051L36.8623 22.4712L37.0554 22.8378L37.4512 22.9604L37.747 22.0051ZM37.7483 22.0055L38.2146 22.8901L40.3503 21.7644L38.0441 21.0503L37.7483 22.0055ZM37.1168 22.3384L36.2322 22.8047L36.6985 23.6893L37.5831 23.223L37.1168 22.3384ZM36.3939 22.1145L35.9276 21.2299L35.9271 21.2302L36.3939 22.1145ZM36.1298 22.7361L35.1695 23.0149L35.184 23.0648L35.2035 23.1129L36.1298 22.7361ZM36.1709 22.837L36.6372 23.7217L37.4385 23.2993L37.0972 22.4602L36.1709 22.837ZM35.6975 23.0866L34.8128 23.5529L35.2791 24.4375L36.1638 23.9712L35.6975 23.0866ZM35.697 23.0857L36.5816 22.6194L36.5812 22.6187L35.697 23.0857ZM34.9754 22.8623L34.5092 21.9776L34.5091 21.9776L34.9754 22.8623ZM34.751 23.5844L33.866 24.0499L34.0591 24.4169L34.4552 24.5396L34.751 23.5844ZM34.7524 23.5848L35.2187 24.4694L37.3543 23.3436L35.0482 22.6295L34.7524 23.5848ZM32.8604 24.582L31.9758 25.0483L32.4421 25.933L33.3267 25.4667L32.8604 24.582ZM32.5276 23.9505L32.0588 23.0672L31.1779 23.5347L31.6429 24.4168L32.5276 23.9505ZM32.7497 23.2285L33.6343 22.7622L33.6341 22.7617L32.7497 23.2285ZM32.0289 23.0046L31.1443 23.4709L31.6093 24.353L32.4928 23.8905L32.0289 23.0046ZM31.7798 22.532L31.3112 21.6486L30.4301 22.116L30.8952 22.9983L31.7798 22.532ZM32.002 21.81L32.8866 21.3437L32.8864 21.3432L32.002 21.81ZM31.2812 21.5861L30.3966 22.0524L30.8616 22.9346L31.7452 22.4719L31.2812 21.5861ZM30.9492 20.9563L30.4825 20.0719L29.5986 20.5384L30.0646 21.4226L30.9492 20.9563ZM31.1722 20.2338L32.0569 19.7675L32.0568 19.7674L31.1722 20.2338ZM30.4506 20.0103L29.566 20.4766L30.032 21.3608L30.9164 20.8952L30.4506 20.0103ZM30.1177 19.3788L29.6506 18.4946L28.7672 18.9613L29.2331 19.8451L30.1177 19.3788ZM30.3412 18.6572L31.2262 18.1916L31.2258 18.1909L30.3412 18.6572ZM29.6191 18.4329L28.7345 18.8992L29.2003 19.783L30.0846 19.3179L29.6191 18.4329ZM29.2867 17.8022L28.8186 16.9185L27.9367 17.3857L28.402 18.2685L29.2867 17.8022ZM29.5093 17.081L30.394 16.6149L30.3939 16.6147L29.5093 17.081ZM28.788 16.8563L27.9034 17.3226L28.3688 18.2054L29.2526 17.7418L28.788 16.8563ZM28.5385 16.3828L28.0706 15.499L27.1884 15.9661L27.6539 16.8491L28.5385 16.3828ZM28.7619 15.6612L29.6468 15.1954L29.6466 15.1949L28.7619 15.6612ZM28.0398 15.4369L27.1552 15.9032L27.6207 16.7863L28.5046 16.3223L28.0398 15.4369ZM27.7079 14.8071L27.239 13.9238L26.3583 14.3913L26.8233 15.2734L27.7079 14.8071ZM27.93 14.0851L28.8146 13.6188L28.8146 13.6187L27.93 14.0851ZM27.2092 13.8611L26.3246 14.3274L26.7896 15.2095L27.673 14.7471L27.2092 13.8611ZM26.8768 13.2305L26.4098 12.3462L25.5262 12.8129L25.9922 13.6968L26.8768 13.2305ZM27.0998 12.508L27.9844 12.0417L27.9842 12.0413L27.0998 12.508ZM26.3782 12.2845L25.4936 12.7508L25.9595 13.6348L26.8438 13.1695L26.3782 12.2845ZM25.9629 11.4967L25.4966 10.612L24.612 11.0784L25.0783 11.963L25.9629 11.4967ZM27.8539 10.4999L28.7386 10.0336L28.2723 9.14893L27.3876 9.61523L27.8539 10.4999ZM28.576 10.7242L29.0417 11.6092L29.0423 11.6088L28.576 10.7242ZM28.7999 10.0012L28.3336 9.1166L27.449 9.5829L27.9153 10.4675L28.7999 10.0012ZM29.2733 9.75168L30.1578 9.28521L29.6915 8.40084L28.807 8.86705L29.2733 9.75168ZM29.9949 9.97514L30.4612 10.8598L30.4613 10.8598L29.9949 9.97514ZM30.2193 9.25304L29.753 8.36842L28.8685 8.83463L29.3346 9.71918L30.2193 9.25304ZM30.849 8.92107L31.7334 8.45425L31.2668 7.57042L30.3827 8.03645L30.849 8.92107ZM31.5716 9.14408L32.0379 10.0287L32.0386 10.0283L31.5716 9.14408ZM31.8356 8.52248L32.7957 8.24293L32.7814 8.19386L32.7622 8.14651L31.8356 8.52248ZM31.795 8.42244L31.3287 7.53781L30.5281 7.95981L30.8684 8.7984L31.795 8.42244ZM32.4265 8.08956L33.3107 7.62238L32.844 6.73909L31.9602 7.20493L32.4265 8.08956ZM33.1473 8.31347L33.6136 9.1981L33.6136 9.1981L33.1473 8.31347ZM33.3716 7.59138L32.9053 6.70675L32.0216 7.1726L32.4865 8.05681L33.3716 7.59138ZM34.0031 7.2585L34.8877 6.7922L34.4214 5.90757L33.5368 6.37388L34.0031 7.2585ZM34.7252 7.48282L35.1914 8.36752L35.1915 8.36745L34.7252 7.48282ZM34.9491 6.75986L34.4828 5.87524L33.5981 6.34154L34.0645 7.22617L34.9491 6.75986ZM35.4216 6.51077L36.3059 6.04381L35.8393 5.1602L34.9553 5.62615L35.4216 6.51077ZM36.1433 6.73423L36.6095 7.61891L36.6096 7.61886L36.1433 6.73423ZM36.3676 6.01214L35.9013 5.12751L35.0173 5.59347L35.4826 6.47778L36.3676 6.01214ZM36.9982 5.67972L37.8823 5.21239L37.4155 4.32932L36.5319 4.79509L36.9982 5.67972ZM37.7199 5.90317L38.1862 6.7878L38.1869 6.78741L37.7199 5.90317ZM37.9433 5.18154L37.477 4.29691L36.5934 4.76268L37.0582 5.64682L37.9433 5.18154ZM38.5748 4.84866L39.4595 4.38235L38.9931 3.49773L38.1085 3.96403L38.5748 4.84866ZM39.2969 5.07298L39.7626 5.95794L39.7632 5.9576L39.2969 5.07298ZM39.5208 4.35002L39.0545 3.4654L38.1699 3.9317L38.6362 4.81632L39.5208 4.35002ZM41.4136 3.35229L42.2982 2.88599L41.8319 2.00137L40.9473 2.46767L41.4136 3.35229ZM41.8444 4.16954L41.7027 3.17963C41.5593 3.20014 41.3849 3.24387 41.2048 3.3387L41.6708 4.2235L42.1368 5.10829C42.0682 5.1444 42.0114 5.15582 41.9861 5.15945L41.8444 4.16954ZM41.6708 4.2235L41.2045 3.33887C40.4566 3.73311 40.1659 4.66017 40.5617 5.41161L41.4465 4.94559L42.3312 4.47957C42.4519 4.70863 42.3627 4.98922 42.1371 5.10812L41.6708 4.2235ZM41.4465 4.94559L40.5618 5.4119C40.9571 6.16168 41.8859 6.44931 42.6357 6.05408L42.1694 5.16946L41.7031 4.28483C41.9305 4.16499 42.2112 4.25194 42.3311 4.47929L41.4465 4.94559ZM42.1694 5.16946L42.636 6.05391C42.8161 5.95889 42.9508 5.83951 43.0484 5.73337L42.312 5.05675L41.5757 4.38013C41.5927 4.36167 41.634 4.32128 41.7028 4.28501L42.1694 5.16946ZM42.312 5.05675L41.4274 5.52306L41.7908 6.21244L42.6754 5.74614L43.56 5.27983L43.1967 4.59045L42.312 5.05675ZM42.6754 5.74614L42.5331 4.75632C42.391 4.77675 42.2162 4.82023 42.0355 4.91547L42.5018 5.8001L42.9681 6.68473C42.8989 6.72125 42.8419 6.73248 42.8178 6.73595L42.6754 5.74614ZM42.5018 5.8001L42.0355 4.91547C41.2858 5.3107 40.9981 6.23958 41.3934 6.98936L42.278 6.52306L43.1626 6.05675C43.2824 6.2841 43.1955 6.56488 42.9681 6.68472L42.5018 5.8001ZM42.278 6.52306L41.3936 6.98988C41.7898 7.74047 42.7187 8.02503 43.4668 7.63068L43.0005 6.74606L42.5342 5.86144C42.76 5.74238 43.0417 5.82765 43.1623 6.05623L42.278 6.52306ZM43.0005 6.74606L43.4668 7.63068C43.6474 7.53547 43.7821 7.4159 43.8794 7.31001L43.1431 6.63335L42.4068 5.9567C42.4235 5.93856 42.465 5.89789 42.5342 5.86144L43.0005 6.74606ZM43.1431 6.63335L42.2585 7.09966L42.6214 7.78818L43.506 7.32188L44.3906 6.85557L44.0277 6.16705L43.1431 6.63335ZM43.506 7.32188L43.3655 6.3318C43.2183 6.35269 43.0439 6.39754 42.8653 6.49167L43.3316 7.37629L43.7979 8.26092C43.7313 8.29601 43.6752 8.30789 43.6466 8.31195L43.506 7.32188ZM43.3316 7.37629L42.8653 6.49168C42.1134 6.88801 41.8298 7.8174 42.224 8.5651L43.1086 8.09879L43.9932 7.63249C44.1119 7.85776 44.0273 8.13997 43.7979 8.2609L43.3316 7.37629ZM43.1086 8.09879L42.2244 8.56587C42.6194 9.31376 43.5461 9.6024 44.2965 9.20689L43.8302 8.32225L43.3639 7.43761C43.5922 7.31732 43.8734 7.40563 43.9928 7.63171L43.1086 8.09879ZM43.8302 8.32225L44.2965 9.20688C44.4751 9.11275 44.6107 8.99416 44.7111 8.88456L43.9737 8.20909L43.2363 7.53362C43.2558 7.51231 43.2973 7.47272 43.3639 7.43763L43.8302 8.32225ZM43.9737 8.20909L43.0891 8.6754L43.3696 9.20755L44.2542 8.74125L45.1388 8.27494L44.8583 7.74279L43.9737 8.20909ZM44.2542 8.74125L44.1137 7.75117C43.9665 7.77207 43.792 7.81692 43.6135 7.91104L44.0798 8.79566L44.5461 9.68029C44.4795 9.71537 44.4234 9.72726 44.3947 9.73132L44.2542 8.74125ZM44.0798 8.79566L43.6133 7.91111C42.8635 8.3065 42.577 9.23398 42.9714 9.98315L43.8563 9.5173L44.7412 9.05145C44.8606 9.27832 44.7739 9.56017 44.5462 9.68022L44.0798 8.79566ZM43.8563 9.5173L42.9717 9.98361C43.3659 10.7314 44.2929 11.0224 45.0446 10.6263L44.5784 9.74163L44.1122 8.85693C44.3415 8.73612 44.6221 8.82561 44.7409 9.051L43.8563 9.5173ZM44.5784 9.74163L45.0447 10.6263C45.2233 10.5321 45.3589 10.4134 45.4591 10.3041L44.7219 9.62846L43.9847 8.95281C44.004 8.93173 44.0454 8.89217 44.1121 8.857L44.5784 9.74163ZM44.7219 9.62846L43.8372 10.0948L44.2006 10.7842L45.0853 10.3178L45.9699 9.85155L45.6065 9.16216L44.7219 9.62846ZM45.0853 10.3178L44.9441 9.32787C44.7979 9.34871 44.6233 9.39342 44.4445 9.48764L44.9108 10.3723L45.3771 11.2569C45.3102 11.2922 45.2543 11.3039 45.2265 11.3078L45.0853 10.3178ZM44.9108 10.3723L44.4441 9.48788C43.6933 9.88411 43.4089 10.813 43.8032 11.5611L44.6878 11.0948L45.5724 10.6285C45.6915 10.8542 45.6063 11.136 45.3776 11.2567L44.9108 10.3723ZM44.6878 11.0948L43.8034 11.5614C44.1987 12.3107 45.126 12.5976 45.8753 12.2031L45.4095 11.3182L44.9436 10.4334C45.1707 10.3138 45.4523 10.4008 45.5723 10.6281L44.6878 11.0948ZM45.4095 11.3182L45.8758 12.2029C46.0544 12.1087 46.19 11.99 46.2901 11.8808L45.5529 11.2051L44.8157 10.5294C44.835 10.5083 44.8764 10.4688 44.9432 10.4336L45.4095 11.3182ZM45.5529 11.2051L44.6683 11.6714L45.0317 12.3608L45.9163 11.8945L46.8009 11.4281L46.4376 10.7388L45.5529 11.2051ZM45.9163 11.8945L45.7742 10.9046C45.6317 10.9251 45.457 10.9686 45.2766 11.0637L45.7427 11.9484L46.2089 12.8331C46.1399 12.8695 46.083 12.8808 46.0584 12.8843L45.9163 11.8945ZM45.7427 11.9484L45.2764 11.0638C44.5282 11.4582 44.2385 12.3853 44.6334 13.1361L45.5184 12.6705L46.4034 12.2049C46.5236 12.4334 46.4352 12.7139 46.209 12.833L45.7427 11.9484ZM45.5184 12.6705L44.6338 13.1368C45.029 13.8866 45.9579 14.1742 46.7077 13.779L46.2414 12.8944L45.7751 12.0097C46.0024 11.8899 46.2832 11.9769 46.403 12.2042L45.5184 12.6705ZM46.2414 12.8944L46.7078 13.7789C46.8882 13.6838 47.0229 13.5643 47.1203 13.4583L46.384 12.7817L45.6477 12.105C45.6645 12.0867 45.7059 12.0462 45.7749 12.0098L46.2414 12.8944ZM46.384 12.7817L45.4994 13.248L45.8628 13.9374L46.7474 13.4711L47.632 13.0047L47.2686 12.3154L46.384 12.7817ZM46.7474 13.4711L46.6047 12.4813C46.4632 12.5017 46.2883 12.5451 46.1075 12.6404L46.5738 13.525L47.0401 14.4096C46.9706 14.4463 46.9138 14.4574 46.8901 14.4608L46.7474 13.4711ZM46.5738 13.525L46.1073 12.6405C45.3559 13.0368 45.072 13.966 45.4662 14.7138L46.3508 14.2475L47.2354 13.7812C47.3543 14.0067 47.2694 14.2887 47.0403 14.4095L46.5738 13.525ZM46.3508 14.2475L45.4662 14.7139C45.8615 15.4636 46.789 15.7506 47.5386 15.3557L47.0724 14.471L46.6063 13.5863C46.8335 13.4666 47.1155 13.5537 47.2354 13.7811L46.3508 14.2475ZM47.0724 14.471L47.5387 15.3556C47.7194 15.2604 47.854 15.1408 47.9513 15.0349L47.215 14.3583L46.4788 13.6816C46.4954 13.6635 46.537 13.6228 46.6061 13.5864L47.0724 14.471ZM47.215 14.3583L46.3304 14.8246L46.6109 15.3567L47.4956 14.8904L48.3802 14.4241L48.0997 13.892L47.215 14.3583ZM47.4956 14.8904L47.3537 13.9005C47.2107 13.921 47.0361 13.9647 46.856 14.0596L47.322 14.9444L47.788 15.8292C47.7193 15.8653 47.6625 15.8767 47.6374 15.8803L47.4956 14.8904ZM47.322 14.9444L46.8557 14.0598C46.1075 14.4541 45.8175 15.3812 46.2127 16.1322L47.0977 15.6665L47.9826 15.2008C48.1029 15.4294 48.0142 15.7099 47.7883 15.829L47.322 14.9444ZM47.0977 15.6665L46.213 16.1328C46.6083 16.8826 47.5371 17.1702 48.2869 16.775L47.8206 15.8903L47.3543 15.0057C47.5817 14.8859 47.8624 14.9728 47.9823 15.2002L47.0977 15.6665ZM47.8206 15.8903L48.2872 16.7748C48.4674 16.6798 48.602 16.5604 48.6996 16.4542L47.9632 15.7776L47.2269 15.1011C47.2438 15.0826 47.2853 15.0422 47.354 15.0059L47.8206 15.8903ZM47.9632 15.7776L47.0786 16.2439L47.4265 16.904L48.3111 16.4377L49.1958 15.9714L48.8479 15.3113L47.9632 15.7776ZM48.3111 16.4377L47.8448 15.553L45.9529 16.5503L46.4192 17.4349L46.8855 18.3196L48.7774 17.3223L48.3111 16.4377ZM46.4192 17.4349L47.3038 16.9686L47.3034 16.9678L46.4188 17.4341L45.5341 17.9004L45.5346 17.9012L46.4192 17.4349ZM46.4188 17.4341L47.303 16.9671C46.9068 16.2169 45.9782 15.932 45.23 16.3264L45.6963 17.2111L46.1626 18.0957C45.9365 18.2148 45.6551 18.1294 45.5345 17.9011L46.4188 17.4341ZM45.6963 17.2111L45.2298 16.3265C44.4798 16.722 44.1939 17.6495 44.5878 18.3983L45.4728 17.9327L46.3578 17.4671C46.477 17.6936 46.3906 17.9754 46.1627 18.0956L45.6963 17.2111ZM45.4728 17.9327L45.177 18.8879L45.1783 18.8884L45.4741 17.9331L45.7699 16.9779L45.7686 16.9774L45.4728 17.9327ZM45.4741 17.9331L45.0078 17.0485L44.3754 17.3818L44.8417 18.2664L45.3081 19.1511L45.9404 18.8177L45.4741 17.9331ZM44.8417 18.2664L45.7264 17.8001L45.7259 17.7993L44.8413 18.2656L43.9567 18.7319L43.9571 18.7327L44.8417 18.2664ZM44.8413 18.2656L45.7259 17.7993C45.3307 17.0495 44.4018 16.7619 43.652 17.1571L44.1183 18.0417L44.5846 18.9263C44.3573 19.0462 44.0765 18.9592 43.9567 18.7319L44.8413 18.2656ZM44.1183 18.0417L43.652 17.1571C42.9002 17.5534 42.6166 18.4828 43.0107 19.2305L43.8953 18.7642L44.78 18.2979C44.8987 18.5232 44.8141 18.8054 44.5847 18.9263L44.1183 18.0417ZM43.8953 18.7642L43.5995 19.7195L43.6009 19.7199L43.8967 18.7646L44.1925 17.8094L44.1911 17.809L43.8953 18.7642ZM43.8967 18.7646L43.4303 17.88L42.7988 18.2129L43.2651 19.0975L43.7315 19.9821L44.363 19.6492L43.8967 18.7646ZM43.2651 19.0975L44.1498 18.6312L44.1493 18.6303L43.2647 19.0966L42.3801 19.5629L42.3805 19.5638L43.2651 19.0975ZM43.2647 19.0966L44.1489 18.6296C43.7528 17.8795 42.8241 17.5946 42.0759 17.989L42.5422 18.8736L43.0085 19.7583C42.7824 19.8774 42.501 19.7919 42.3804 19.5636L43.2647 19.0966ZM42.5422 18.8736L42.0754 17.9893C41.3263 18.3847 41.0396 19.3118 41.4337 20.0609L42.3187 19.5953L43.2037 19.1297C43.3231 19.3566 43.2363 19.638 43.009 19.758L42.5422 18.8736ZM42.3187 19.5953L42.0229 20.5505L42.0243 20.5509L42.3201 19.5957L42.6158 18.6404L42.6145 18.64L42.3187 19.5953ZM42.3201 19.5957L41.8537 18.7111L41.3803 18.9606L41.8466 19.8452L42.3129 20.7298L42.7864 20.4803L42.3201 19.5957ZM41.8466 19.8452L42.7313 19.3789L42.7308 19.3781L41.8462 19.8444L40.9616 20.3107L40.962 20.3115L41.8466 19.8452ZM41.8462 19.8444L42.7307 19.3779C42.3354 18.6283 41.408 18.3415 40.6586 18.7361L41.1245 19.6209L41.5905 20.5057C41.3634 20.6253 41.0816 20.5383 40.9617 20.3109L41.8462 19.8444ZM41.1245 19.6209L40.6582 18.7363C39.9104 19.1305 39.6195 20.0575 40.0155 20.8091L40.9002 20.343L41.785 19.8769C41.9057 20.1061 41.8163 20.3867 41.5908 20.5055L41.1245 19.6209ZM40.9002 20.343L40.6044 21.2982L40.6057 21.2987L40.9015 20.3434L41.1973 19.3882L41.196 19.3877L40.9002 20.343ZM40.9015 20.3434L40.4352 19.4588L39.8029 19.7921L40.2692 20.6767L40.7355 21.5614L41.3678 21.228L40.9015 20.3434ZM40.2692 20.6767L41.1538 20.2104L41.1533 20.2096L40.2687 20.6759L39.3841 21.1422L39.3845 21.143L40.2692 20.6767ZM40.2687 20.6759L41.1533 20.2096C40.7581 19.4598 39.8292 19.1722 39.0795 19.5674L39.5458 20.452L40.0121 21.3366C39.7847 21.4565 39.5039 21.3695 39.3841 21.1422L40.2687 20.6759ZM39.5458 20.452L39.0787 19.5678C38.3287 19.964 38.0437 20.8925 38.4381 21.6408L39.3228 21.1745L40.2074 20.7082C40.3266 20.9343 40.241 21.2157 40.0128 21.3362L39.5458 20.452ZM39.3228 21.1745L39.027 22.1298L39.0283 22.1302L39.3241 21.1749L39.6199 20.2197L39.6186 20.2193L39.3228 21.1745ZM39.3241 21.1749L38.8578 20.2903L38.2271 20.6227L38.6934 21.5073L39.1597 22.392L39.7904 22.0595L39.3241 21.1749ZM38.6934 21.5073L39.5781 21.041L39.5776 21.0402L38.693 21.5065L37.8084 21.9728L37.8088 21.9736L38.6934 21.5073ZM38.693 21.5065L39.5775 21.04C39.1812 20.2886 38.252 20.0046 37.5042 20.3989L37.9705 21.2835L38.4368 22.1681C38.2113 22.287 37.9293 22.2021 37.8085 21.973L38.693 21.5065ZM37.9705 21.2835L37.5042 20.3989C36.7542 20.7942 36.4675 21.7218 36.8623 22.4712L37.747 22.0051L38.6318 21.539C38.7514 21.7661 38.6644 22.0481 38.4368 22.1681L37.9705 21.2835ZM37.747 22.0051L37.4512 22.9604L37.4525 22.9608L37.7483 22.0055L38.0441 21.0503L38.0428 21.0499L37.747 22.0051ZM37.7483 22.0055L37.282 21.1209L36.6505 21.4538L37.1168 22.3384L37.5831 23.223L38.2146 22.8901L37.7483 22.0055ZM37.1168 22.3384L38.0015 21.8721C37.6062 21.1223 36.6774 20.8347 35.9276 21.2299L36.3939 22.1145L36.8602 22.9992C36.6328 23.119 36.352 23.0321 36.2322 22.8047L37.1168 22.3384ZM36.3939 22.1145L35.9271 21.2302C35.2703 21.5768 34.9708 22.3303 35.1695 23.0149L36.1298 22.7361L37.0902 22.4574C37.1504 22.6648 37.0609 22.8932 36.8607 22.9989L36.3939 22.1145ZM36.1298 22.7361L35.2035 23.1129L35.2446 23.2138L36.1709 22.837L37.0972 22.4602L37.0561 22.3593L36.1298 22.7361ZM36.1709 22.837L35.7046 21.9524L35.2312 22.202L35.6975 23.0866L36.1638 23.9712L36.6372 23.7217L36.1709 22.837ZM35.6975 23.0866L36.5821 22.6203L36.5816 22.6194L35.697 23.0857L34.8124 23.552L34.8128 23.5529L35.6975 23.0866ZM35.697 23.0857L36.5812 22.6187C36.1861 21.8706 35.2594 21.5823 34.5092 21.9776L34.9754 22.8623L35.4415 23.747C35.2135 23.8671 34.9323 23.7791 34.8128 23.5528L35.697 23.0857ZM34.9754 22.8623L34.5091 21.9776C33.7608 22.3721 33.4711 23.2992 33.866 24.0499L34.751 23.5844L35.6361 23.1188C35.7562 23.3472 35.6678 23.6277 35.4417 23.7469L34.9754 22.8623ZM34.751 23.5844L34.4552 24.5396L34.4566 24.54L34.7524 23.5848L35.0482 22.6295L35.0468 22.6291L34.751 23.5844ZM34.7524 23.5848L34.2861 22.7001L32.3941 23.6974L32.8604 24.582L33.3267 25.4667L35.2187 24.4694L34.7524 23.5848ZM32.8604 24.582L33.7451 24.1157L33.4122 23.4842L32.5276 23.9505L31.6429 24.4168L31.9758 25.0483L32.8604 24.582ZM32.5276 23.9505L32.9963 24.8338C33.7442 24.437 34.0284 23.5098 33.6343 22.7622L32.7497 23.2285L31.8651 23.6948C31.7459 23.4687 31.8313 23.1879 32.0588 23.0672L32.5276 23.9505ZM32.7497 23.2285L33.6341 22.7617C33.239 22.0132 32.3135 21.7268 31.5651 22.1186L32.0289 23.0046L32.4928 23.8905C32.2662 24.0091 31.9853 23.9226 31.8653 23.6953L32.7497 23.2285ZM32.0289 23.0046L32.9136 22.5383L32.6645 22.0657L31.7798 22.532L30.8952 22.9983L31.1443 23.4709L32.0289 23.0046ZM31.7798 22.532L32.2485 23.4154C32.9967 23.0185 33.2806 22.0912 32.8866 21.3437L32.002 21.81L31.1174 22.2763C30.9983 22.0504 31.0835 21.7694 31.3112 21.6486L31.7798 22.532ZM32.002 21.81L32.8864 21.3432C32.4913 20.5948 31.5658 20.3082 30.8173 20.7002L31.2812 21.5861L31.7452 22.4719C31.5184 22.5907 31.2375 22.504 31.1176 22.2768L32.002 21.81ZM31.2812 21.5861L32.1658 21.1198L31.8339 20.49L30.9492 20.9563L30.0646 21.4226L30.3966 22.0524L31.2812 21.5861ZM30.9492 20.9563L31.416 21.8407C32.1667 21.4444 32.4512 20.5155 32.0569 19.7675L31.1722 20.2338L30.2876 20.7001C30.1686 20.4743 30.2538 20.1926 30.4825 20.0719L30.9492 20.9563ZM31.1722 20.2338L32.0568 19.7674C31.6614 19.0174 30.7339 18.7311 29.9848 19.1255L30.4506 20.0103L30.9164 20.8952C30.6896 21.0146 30.4077 20.9279 30.2877 20.7002L31.1722 20.2338ZM30.4506 20.0103L31.3352 19.544L31.0023 18.9125L30.1177 19.3788L29.2331 19.8451L29.566 20.4766L30.4506 20.0103ZM30.1177 19.3788L30.5848 20.263C31.3332 19.8677 31.6204 18.9409 31.2262 18.1916L30.3412 18.6572L29.4562 19.1228C29.3366 18.8955 29.4238 18.6144 29.6506 18.4946L30.1177 19.3788ZM30.3412 18.6572L31.2258 18.1909C30.8313 17.4426 29.9042 17.153 29.1536 17.5478L29.6191 18.4329L30.0846 19.3179C29.8562 19.438 29.5758 19.3497 29.4566 19.1235L30.3412 18.6572ZM29.6191 18.4329L30.5037 17.9666L30.1713 17.3359L29.2867 17.8022L28.402 18.2685L28.7345 18.8992L29.6191 18.4329ZM29.2867 17.8022L29.7547 18.6859C30.5024 18.2899 30.7885 17.3637 30.394 16.6149L29.5093 17.081L28.6245 17.5471C28.5049 17.3201 28.5919 17.0386 28.8186 16.9185L29.2867 17.8022ZM29.5093 17.081L30.3939 16.6147C30.0001 15.8677 29.0747 15.5767 28.3235 15.9707L28.788 16.8563L29.2526 17.7418C29.0235 17.862 28.7434 17.7726 28.6246 17.5473L29.5093 17.081ZM28.788 16.8563L29.6726 16.39L29.4231 15.9165L28.5385 16.3828L27.6539 16.8491L27.9034 17.3226L28.788 16.8563ZM28.5385 16.3828L29.0063 17.2667C29.7527 16.8716 30.0418 15.9457 29.6468 15.1954L28.7619 15.6612L27.8771 16.127C27.7568 15.8985 27.8453 15.6183 28.0706 15.499L28.5385 16.3828ZM28.7619 15.6612L29.6466 15.1949C29.2518 14.446 28.3245 14.1581 27.5751 14.5514L28.0398 15.4369L28.5046 16.3223C28.2773 16.4416 27.997 16.3546 27.8773 16.1275L28.7619 15.6612ZM28.0398 15.4369L28.9245 14.9706L28.5925 14.3408L27.7079 14.8071L26.8233 15.2734L27.1552 15.9032L28.0398 15.4369ZM27.7079 14.8071L28.1767 15.6904C28.9244 15.2935 29.2087 14.3664 28.8146 13.6188L27.93 14.0851L27.0454 14.5514C26.9262 14.3252 27.0117 14.0445 27.239 13.9238L27.7079 14.8071ZM27.93 14.0851L28.8146 13.6187C28.4194 12.869 27.4934 12.5837 26.7455 12.9752L27.2092 13.8611L27.673 14.7471C27.4471 14.8654 27.1657 14.7796 27.0454 14.5514L27.93 14.0851ZM27.2092 13.8611L28.0939 13.3948L27.7614 12.7642L26.8768 13.2305L25.9922 13.6968L26.3246 14.3274L27.2092 13.8611ZM26.8768 13.2305L27.3438 14.1148C28.094 13.7186 28.3789 12.7899 27.9844 12.0417L27.0998 12.508L26.2152 12.9743C26.096 12.7483 26.1815 12.4668 26.4098 12.3462L26.8768 13.2305ZM27.0998 12.508L27.9842 12.0413C27.5888 11.292 26.6616 11.0055 25.9126 11.3996L26.3782 12.2845L26.8438 13.1695C26.6169 13.2889 26.3354 13.2022 26.2154 12.9747L27.0998 12.508ZM26.3782 12.2845L27.2628 11.8182L26.8475 11.0304L25.9629 11.4967L25.0783 11.963L25.4936 12.7508L26.3782 12.2845ZM25.9629 11.4967L26.4292 12.3813L28.3202 11.3845L27.8539 10.4999L27.3876 9.61523L25.4966 10.612L25.9629 11.4967ZM27.8539 10.4999L26.9693 10.9662C27.3637 11.7144 28.2908 12.0042 29.0417 11.6092L28.576 10.7242L28.1104 9.8392C28.3389 9.71897 28.6194 9.80752 28.7386 10.0336L27.8539 10.4999ZM28.576 10.7242L29.0423 11.6088C29.7921 11.2136 30.0797 10.2847 29.6845 9.53492L28.7999 10.0012L27.9153 10.4675C27.7954 10.2402 27.8824 9.95939 28.1097 9.83956L28.576 10.7242ZM28.7999 10.0012L29.2662 10.8858L29.7396 10.6363L29.2733 9.75168L28.807 8.86705L28.3336 9.1166L28.7999 10.0012ZM29.2733 9.75168L28.3888 10.2181C28.784 10.9676 29.7114 11.2549 30.4612 10.8598L29.9949 9.97514L29.5287 9.09047C29.7562 8.97061 30.038 9.05804 30.1578 9.28521L29.2733 9.75168ZM29.9949 9.97514L30.4613 10.8598C31.2091 10.4656 31.5 9.53853 31.104 8.7869L30.2193 9.25304L29.3346 9.71918C29.2138 9.48996 29.3032 9.20934 29.5286 9.09051L29.9949 9.97514ZM30.2193 9.25304L30.6856 10.1377L31.3154 9.8057L30.849 8.92107L30.3827 8.03645L29.753 8.36842L30.2193 9.25304ZM30.849 8.92107L29.9647 9.3879C30.3609 10.1385 31.2898 10.423 32.0379 10.0287L31.5716 9.14408L31.1052 8.25945C31.3311 8.1404 31.6127 8.22567 31.7334 8.45425L30.849 8.92107ZM31.5716 9.14408L32.0386 10.0283C32.6943 9.68196 32.9955 8.929 32.7957 8.24293L31.8356 8.52248L30.8755 8.80202C30.8147 8.59324 30.9054 8.36502 31.1045 8.25985L31.5716 9.14408ZM31.8356 8.52248L32.7622 8.14651L32.7216 8.04647L31.795 8.42244L30.8684 8.7984L30.909 8.89844L31.8356 8.52248ZM31.795 8.42244L32.2613 9.30706L32.8928 8.97418L32.4265 8.08956L31.9602 7.20493L31.3287 7.53781L31.795 8.42244ZM32.4265 8.08956L31.5424 8.55674C31.9363 9.30224 32.861 9.5948 33.6136 9.1981L33.1473 8.31347L32.681 7.42885C32.9115 7.30736 33.1924 7.39859 33.3107 7.62238L32.4265 8.08956ZM33.1473 8.31347L33.6136 9.1981C34.362 8.80361 34.6514 7.87645 34.2567 7.12595L33.3716 7.59138L32.4865 8.05681C32.3665 7.82857 32.4547 7.54812 32.681 7.42885L33.1473 8.31347ZM33.3716 7.59138L33.8379 8.476L34.4694 8.14312L34.0031 7.2585L33.5368 6.37388L32.9053 6.70675L33.3716 7.59138ZM34.0031 7.2585L33.1185 7.7248C33.5127 8.47259 34.4397 8.76359 35.1914 8.36752L34.7252 7.48282L34.259 6.59813C34.4883 6.47732 34.7689 6.5668 34.8877 6.7922L34.0031 7.2585ZM34.7252 7.48282L35.1915 8.36745C35.9413 7.97222 36.2289 7.04334 35.8337 6.29356L34.9491 6.75986L34.0645 7.22617C33.9446 6.99882 34.0316 6.71804 34.2589 6.5982L34.7252 7.48282ZM34.9491 6.75986L35.4154 7.64449L35.8879 7.3954L35.4216 6.51077L34.9553 5.62615L34.4828 5.87524L34.9491 6.75986ZM35.4216 6.51077L34.5374 6.97774C34.9325 7.72596 35.8593 8.01424 36.6095 7.61891L36.1433 6.73423L35.6771 5.84956C35.9051 5.72941 36.1864 5.81745 36.3059 6.04381L35.4216 6.51077ZM36.1433 6.73423L36.6096 7.61886C37.3578 7.22446 37.6476 6.29734 37.2526 5.5465L36.3676 6.01214L35.4826 6.47778C35.3624 6.24925 35.4509 5.96875 35.677 5.84961L36.1433 6.73423ZM36.3676 6.01214L36.8339 6.89676L37.4645 6.56434L36.9982 5.67972L36.5319 4.79509L35.9013 5.12751L36.3676 6.01214ZM36.9982 5.67972L36.1141 6.14704C36.5091 6.8943 37.4356 7.18346 38.1862 6.7878L37.7199 5.90317L37.2536 5.01855C37.4821 4.89808 37.763 4.98674 37.8823 5.21239L36.9982 5.67972ZM37.7199 5.90317L38.1869 6.78741C38.9357 6.39191 39.2221 5.46502 38.8285 4.71625L37.9433 5.18154L37.0582 5.64682C36.9389 5.42003 37.0255 5.13901 37.2528 5.01894L37.7199 5.90317ZM37.9433 5.18154L38.4096 6.06616L39.0411 5.73328L38.5748 4.84866L38.1085 3.96403L37.477 4.29691L37.9433 5.18154ZM38.5748 4.84866L37.6902 5.31496C38.0846 6.06316 39.0117 6.35305 39.7626 5.95794L39.2969 5.07298L38.8313 4.18802C39.0598 4.06775 39.3403 4.15636 39.4595 4.38235L38.5748 4.84866ZM39.2969 5.07298L39.7632 5.9576C40.513 5.56238 40.8006 4.6335 40.4054 3.88372L39.5208 4.35002L38.6362 4.81632C38.5163 4.58898 38.6033 4.30819 38.8306 4.18835L39.2969 5.07298ZM39.5208 4.35002L39.9871 5.23465L41.8799 4.23692L41.4136 3.35229L40.9473 2.46767L39.0545 3.4654L39.5208 4.35002ZM41.4136 3.35229L40.5289 3.8186L40.9597 4.63584L41.8444 4.16954L42.729 3.70323L42.2982 2.88599L41.4136 3.35229Z" fill="#372F32" mask="url(#path-14-inside-3_2220_11259)"/>
</g>
<g filter="url(#filter5_n_2220_11259)">
<rect x="40.146" y="7.44489" width="8.91109" height="11.9409" transform="rotate(62.2054 40.146 7.44489)" fill="#80CBE8"/>
<rect x="39.9368" y="8.12035" width="7.91109" height="10.9409" transform="rotate(62.2054 39.9368 8.12035)" stroke="#372F32"/>
</g>
<defs>
<filter id="filter0_n_2220_11259" x="33.4424" y="7.40576" width="31.4126" height="55.4041" filterUnits="userSpaceOnUse" color-interpolation-filters="sRGB">
<feFlood flood-opacity="0" result="BackgroundImageFix"/>
<feBlend mode="normal" in="SourceGraphic" in2="BackgroundImageFix" result="shape"/>
<feTurbulence type="fractalNoise" baseFrequency="0.40000000596046448 0.40000000596046448" stitchTiles="stitch" numOctaves="3" result="noise" seed="4582" />
<feColorMatrix in="noise" type="luminanceToAlpha" result="alphaNoise" />
<feComponentTransfer in="alphaNoise" result="coloredNoise1">
<feFuncA type="discrete" tableValues="0 0 0 0 0 0 0 0 0 0 0 0 0 0 0 0 0 0 1 1 1 1 1 1 1 1 1 1 1 1 1 0 0 0 0 0 0 0 0 0 0 0 0 0 0 0 0 0 0 0 0 0 0 0 0 0 0 0 0 0 0 0 0 0 0 0 0 0 0 0 0 0 0 0 0 0 0 0 0 0 0 0 0 0 0 0 0 0 0 0 0 0 0 0 0 0 0 0 0 0 "/>
</feComponentTransfer>
<feComposite operator="in" in2="shape" in="coloredNoise1" result="noise1Clipped" />
<feFlood flood-color="rgba(0, 0, 0, 0.25)" result="color1Flood" />
<feComposite operator="in" in2="noise1Clipped" in="color1Flood" result="color1" />
<feMerge result="effect1_noise_2220_11259">
<feMergeNode in="shape" />
<feMergeNode in="color1" />
</feMerge>
</filter>
<filter id="filter1_n_2220_11259" x="35.7505" y="9.77338" width="26.7983" height="45.0148" filterUnits="userSpaceOnUse" color-interpolation-filters="sRGB">
<feFlood flood-opacity="0" result="BackgroundImageFix"/>
<feBlend mode="normal" in="SourceGraphic" in2="BackgroundImageFix" result="shape"/>
<feTurbulence type="fractalNoise" baseFrequency="0.40000000596046448 0.40000000596046448" stitchTiles="stitch" numOctaves="3" result="noise" seed="4582" />
<feColorMatrix in="noise" type="luminanceToAlpha" result="alphaNoise" />
<feComponentTransfer in="alphaNoise" result="coloredNoise1">
<feFuncA type="discrete" tableValues="0 0 0 0 0 0 0 0 0 0 0 0 0 0 0 0 0 0 1 1 1 1 1 1 1 1 1 1 1 1 1 0 0 0 0 0 0 0 0 0 0 0 0 0 0 0 0 0 0 0 0 0 0 0 0 0 0 0 0 0 0 0 0 0 0 0 0 0 0 0 0 0 0 0 0 0 0 0 0 0 0 0 0 0 0 0 0 0 0 0 0 0 0 0 0 0 0 0 0 0 "/>
</feComponentTransfer>
<feComposite operator="in" in2="shape" in="coloredNoise1" result="noise1Clipped" />
<feFlood flood-color="#E65325" result="color1Flood" />
<feComposite operator="in" in2="noise1Clipped" in="color1Flood" result="color1" />
<feMerge result="effect1_noise_2220_11259">
<feMergeNode in="shape" />
<feMergeNode in="color1" />
</feMerge>
</filter>
<filter id="filter2_n_2220_11259" x="48.9146" y="37.4347" width="17.4946" height="17.3472" filterUnits="userSpaceOnUse" color-interpolation-filters="sRGB">
<feFlood flood-opacity="0" result="BackgroundImageFix"/>
<feBlend mode="normal" in="SourceGraphic" in2="BackgroundImageFix" result="shape"/>
<feTurbulence type="fractalNoise" baseFrequency="0.40000000596046448 0.40000000596046448" stitchTiles="stitch" numOctaves="3" result="noise" seed="297" />
<feColorMatrix in="noise" type="luminanceToAlpha" result="alphaNoise" />
<feComponentTransfer in="alphaNoise" result="coloredNoise1">
<feFuncA type="discrete" tableValues="0 0 0 0 0 0 0 0 0 0 0 0 0 0 0 0 0 0 1 1 1 1 1 1 1 1 1 1 1 1 1 0 0 0 0 0 0 0 0 0 0 0 0 0 0 0 0 0 0 0 0 0 0 0 0 0 0 0 0 0 0 0 0 0 0 0 0 0 0 0 0 0 0 0 0 0 0 0 0 0 0 0 0 0 0 0 0 0 0 0 0 0 0 0 0 0 0 0 0 0 "/>
</feComponentTransfer>
<feComposite operator="in" in2="shape" in="coloredNoise1" result="noise1Clipped" />
<feFlood flood-color="rgba(0, 0, 0, 0.25)" result="color1Flood" />
<feComposite operator="in" in2="noise1Clipped" in="color1Flood" result="color1" />
<feMerge result="effect1_noise_2220_11259">
<feMergeNode in="shape" />
<feMergeNode in="color1" />
</feMerge>
</filter>
<filter id="filter3_n_2220_11259" x="57.6392" y="25.3501" width="17.2559" height="17.4244" filterUnits="userSpaceOnUse" color-interpolation-filters="sRGB">
<feFlood flood-opacity="0" result="BackgroundImageFix"/>
<feBlend mode="normal" in="SourceGraphic" in2="BackgroundImageFix" result="shape"/>
<feTurbulence type="fractalNoise" baseFrequency="0.40000000596046448 0.40000000596046448" stitchTiles="stitch" numOctaves="3" result="noise" seed="297" />
<feColorMatrix in="noise" type="luminanceToAlpha" result="alphaNoise" />
<feComponentTransfer in="alphaNoise" result="coloredNoise1">
<feFuncA type="discrete" tableValues="0 0 0 0 0 0 0 0 0 0 0 0 0 0 0 0 0 0 1 1 1 1 1 1 1 1 1 1 1 1 1 0 0 0 0 0 0 0 0 0 0 0 0 0 0 0 0 0 0 0 0 0 0 0 0 0 0 0 0 0 0 0 0 0 0 0 0 0 0 0 0 0 0 0 0 0 0 0 0 0 0 0 0 0 0 0 0 0 0 0 0 0 0 0 0 0 0 0 0 0 "/>
</feComponentTransfer>
<feComposite operator="in" in2="shape" in="coloredNoise1" result="noise1Clipped" />
<feFlood flood-color="rgba(0, 0, 0, 0.25)" result="color1Flood" />
<feComposite operator="in" in2="noise1Clipped" in="color1Flood" result="color1" />
<feMerge result="effect1_noise_2220_11259">
<feMergeNode in="shape" />
<feMergeNode in="color1" />
</feMerge>
</filter>
<filter id="filter4_n_2220_11259" x="25.9629" y="3.35229" width="22.3481" height="21.2297" filterUnits="userSpaceOnUse" color-interpolation-filters="sRGB">
<feFlood flood-opacity="0" result="BackgroundImageFix"/>
<feBlend mode="normal" in="SourceGraphic" in2="BackgroundImageFix" result="shape"/>
<feTurbulence type="fractalNoise" baseFrequency="0.40000000596046448 0.40000000596046448" stitchTiles="stitch" numOctaves="3" result="noise" seed="8916" />
<feColorMatrix in="noise" type="luminanceToAlpha" result="alphaNoise" />
<feComponentTransfer in="alphaNoise" result="coloredNoise1">
<feFuncA type="discrete" tableValues="0 0 0 0 0 0 0 0 0 0 0 0 0 0 0 0 0 0 1 1 1 1 1 1 1 1 1 1 1 1 1 0 0 0 0 0 0 0 0 0 0 0 0 0 0 0 0 0 0 0 0 0 0 0 0 0 0 0 0 0 0 0 0 0 0 0 0 0 0 0 0 0 0 0 0 0 0 0 0 0 0 0 0 0 0 0 0 0 0 0 0 0 0 0 0 0 0 0 0 0 "/>
</feComponentTransfer>
<feComposite operator="in" in2="shape" in="coloredNoise1" result="noise1Clipped" />
<feFlood flood-color="rgba(0, 0, 0, 0.25)" result="color1Flood" />
<feComposite operator="in" in2="noise1Clipped" in="color1Flood" result="color1" />
<feMerge result="effect1_noise_2220_11259">
<feMergeNode in="shape" />
<feMergeNode in="color1" />
</feMerge>
</filter>
<filter id="filter5_n_2220_11259" x="29.583" y="7.44489" width="14.7183" height="13.451" filterUnits="userSpaceOnUse" color-interpolation-filters="sRGB">
<feFlood flood-opacity="0" result="BackgroundImageFix"/>
<feBlend mode="normal" in="SourceGraphic" in2="BackgroundImageFix" result="shape"/>
<feTurbulence type="fractalNoise" baseFrequency="0.40000000596046448 0.40000000596046448" stitchTiles="stitch" numOctaves="3" result="noise" seed="9211" />
<feColorMatrix in="noise" type="luminanceToAlpha" result="alphaNoise" />
<feComponentTransfer in="alphaNoise" result="coloredNoise1">
<feFuncA type="discrete" tableValues="0 0 0 0 0 0 0 0 0 0 0 0 0 0 0 0 0 0 1 1 1 1 1 1 1 1 1 1 1 1 1 0 0 0 0 0 0 0 0 0 0 0 0 0 0 0 0 0 0 0 0 0 0 0 0 0 0 0 0 0 0 0 0 0 0 0 0 0 0 0 0 0 0 0 0 0 0 0 0 0 0 0 0 0 0 0 0 0 0 0 0 0 0 0 0 0 0 0 0 0 "/>
</feComponentTransfer>
<feComposite operator="in" in2="shape" in="coloredNoise1" result="noise1Clipped" />
<feFlood flood-color="#FFFEF6" result="color1Flood" />
<feComposite operator="in" in2="noise1Clipped" in="color1Flood" result="color1" />
<feMerge result="effect1_noise_2220_11259">
<feMergeNode in="shape" />
<feMergeNode in="color1" />
</feMerge>
</filter>
</defs>
</svg>
