<svg viewBox="0 0 25 25" xmlns="http://www.w3.org/2000/svg">
<path d="M19.5368 6.9968C19.372 6.5704 19.1734 6.26514 18.8536 5.94534C18.5338 5.62554 18.2285 5.42688 17.8021 5.26214C17.4775 5.13615 16.9929 4.98595 16.1014 4.94718C15.1323 4.90357 14.8464 4.89388 12.3995 4.89388H11.5757C9.87014 4.89388 9.54065 4.90357 8.69755 4.94718C7.80599 4.98595 7.32144 5.13615 6.9968 5.26214C6.5704 5.42688 6.26514 5.62554 5.94534 5.94534C5.62554 6.26514 5.42688 6.5704 5.26214 6.9968C5.13615 7.32144 4.98595 7.80599 4.94718 8.69755C4.90357 9.66663 4.89388 9.95251 4.89388 12.3995C4.89388 14.8464 4.90357 15.1371 4.94718 16.1014C4.98595 16.9929 5.13615 17.4775 5.26214 17.8021C5.42688 18.2285 5.62554 18.5338 5.94534 18.8536C6.26514 19.1734 6.5704 19.372 6.9968 19.5368C7.32144 19.6628 7.80599 19.8081 8.69755 19.8517C9.66179 19.8953 9.95251 19.905 12.3995 19.905C14.8464 19.905 15.1371 19.8953 16.1014 19.8517C16.9929 19.813 17.4775 19.6628 17.8021 19.5368C18.2285 19.372 18.5338 19.1734 18.8536 18.8536C19.1734 18.5338 19.372 18.2285 19.5368 17.8021C19.6628 17.4775 19.813 16.9929 19.8517 16.1014C19.8953 15.1323 19.905 14.8464 19.905 12.3995C19.905 9.95251 19.8953 9.66179 19.8517 8.69755C19.813 7.80599 19.6628 7.32144 19.5368 6.9968ZM12.3995 17.1044C9.8023 17.1044 7.69454 15.0014 7.69454 12.4043C7.69454 9.80715 9.8023 7.69939 12.3995 7.69939C14.9966 7.69939 17.0995 9.80715 17.0995 12.4043C17.0995 15.0014 14.9966 17.1044 12.3995 17.1044ZM17.2885 8.61517C16.6828 8.61517 16.1886 8.12094 16.1886 7.51526C16.1886 6.90474 16.6828 6.41535 17.2885 6.41535C17.8942 6.4105 18.3884 6.90958 18.3884 7.51526C18.3884 8.12094 17.8942 8.61517 17.2885 8.61517ZM15.4521 12.3995C15.4521 14.0857 14.0857 15.4521 12.3995 15.4521C10.7132 15.4521 9.34683 14.0857 9.34683 12.3995C9.34683 10.7132 10.7132 9.34683 12.3995 9.34683C14.0857 9.34683 15.4521 10.7132 15.4521 12.3995ZM24.7844 5.38812C24.7068 4.38996 24.5373 3.72129 24.1884 3.01386C23.9025 2.43241 23.5875 2.00116 23.1272 1.56023C22.3084 0.775269 21.3054 0.300417 20.1085 0.125981C19.5271 0.0436089 19.4156 0.0193817 16.4502 0.0145363H12.4043V0C7.22453 0 5.71276 0.00484543 5.41719 0.0290726C4.3512 0.11629 3.69222 0.28588 2.97025 0.644442C2.41787 0.920631 1.97693 1.23558 1.54569 1.68621C0.760732 2.50509 0.281035 3.50809 0.111445 4.70491C0.0290726 5.28636 0.00484543 5.40265 0 8.36806V12.3995C0 17.5744 0.00484543 19.0861 0.0290726 19.3817C0.11629 20.4138 0.276189 21.0679 0.620215 21.7802C1.27435 23.1418 2.52931 24.1642 4.00717 24.5469C4.52079 24.6778 5.08285 24.7505 5.80967 24.7844C6.11493 24.7989 9.24992 24.8086 12.3801 24.8086C15.5102 24.8086 18.6452 24.8038 18.9456 24.7892C19.7839 24.7505 20.2733 24.6826 20.8111 24.5469C22.2987 24.1642 23.5294 23.1563 24.1981 21.7754C24.5373 21.0825 24.7068 20.4041 24.7844 19.4253C24.7989 19.2121 24.8086 15.8058 24.8086 12.4043C24.8086 9.00281 24.7989 5.60132 24.7844 5.38812ZM21.504 16.174C21.4556 17.148 21.3005 17.8166 21.0776 18.3981C20.845 18.9989 20.5301 19.5125 20.0213 20.0213C19.5125 20.5301 18.9989 20.845 18.3981 21.0776C17.8166 21.3054 17.148 21.4604 16.174 21.504C15.2001 21.5476 14.8852 21.5573 12.3995 21.5573C9.91375 21.5573 9.60364 21.5476 8.62486 21.504C7.65093 21.4604 6.98226 21.3054 6.40081 21.0776C5.79513 20.845 5.28636 20.5301 4.77759 20.0213C4.26882 19.5125 3.95387 18.9989 3.72129 18.3981C3.49355 17.8166 3.3385 17.148 3.29489 16.174C3.25128 15.2001 3.24159 14.8852 3.24159 12.3995C3.24159 9.91375 3.25128 9.60364 3.29489 8.62486C3.3385 7.65093 3.49355 6.98226 3.72129 6.40081C3.95387 5.79998 4.26882 5.28636 4.77759 4.77759C5.28636 4.26882 5.79998 3.95387 6.40081 3.72129C6.98226 3.49355 7.65093 3.3385 8.62486 3.29489C9.59879 3.25128 9.91375 3.24159 12.3995 3.24159C14.8852 3.24159 15.1953 3.25128 16.174 3.29489C17.148 3.3385 17.8166 3.49355 18.3981 3.72129C19.0038 3.95387 19.5125 4.26882 20.0213 4.77759C20.5301 5.28636 20.845 5.79998 21.0776 6.40081C21.3054 6.98226 21.4604 7.65093 21.504 8.62486C21.5476 9.59879 21.5573 9.91375 21.5573 12.3995C21.5573 14.8852 21.5476 15.1953 21.504 16.174Z" fill="#E65325"/>
</svg>