<svg width="44" height="44" viewBox="0 0 44 44" fill="none" xmlns="http://www.w3.org/2000/svg">
<circle cx="22" cy="22" r="21.5" fill="black" stroke="#373032"/>
<path d="M22.0312 26.9099C22.0312 26.9099 23.6528 26.7805 23.6528 28.5317L25.2743 26.9099C25.2743 26.9099 23.6528 27.0624 23.6528 25.2881L22.0312 26.9099Z" fill="white"/>
<path d="M7.43164 20.0019V14.37C7.43164 14.1383 7.61889 13.9511 7.85054 13.9511H10.2558C10.4875 13.9511 10.6747 14.1383 10.6747 14.37V19.9672C10.6747 20.2182 10.472 20.4209 10.2211 20.4209H7.85054C7.61889 20.4209 7.43164 20.2336 7.43164 20.0019Z" fill="white"/>
<path d="M17.1631 17.1692V13.9507H20.4062V17.1943H17.1882C17.1747 17.1943 17.1631 17.1828 17.1631 17.1692Z" fill="white"/>
<path d="M13.918 17.1678V14.3161C13.918 14.1134 14.0821 13.9493 14.2847 13.9493H17.161V17.1929H13.9431C13.9296 17.1929 13.918 17.1813 13.918 17.1678Z" fill="white"/>
<path d="M23.6504 14.4068V16.7642C23.6504 17.0017 23.4574 17.1948 23.2199 17.1948H20.4073V13.9512H23.1948C23.4458 13.9512 23.6504 14.1558 23.6504 14.4068Z" fill="white"/>
<path d="M7.43164 26.9102V30.1538H10.6747V26.9102H7.43164Z" fill="white"/>
<path d="M26.8535 16.7293V14.3565C26.8535 14.1209 27.0446 13.9317 27.2782 13.9317H28.5735C29.4152 13.9317 30.0985 14.6152 30.0985 15.457V17.1772H27.3014C27.0543 17.1772 26.8554 16.9765 26.8554 16.7312L26.8535 16.7293Z" fill="white"/>
<path d="M26.8535 30.1538V26.9102H30.0966V28.5822C30.0966 29.451 29.392 30.1558 28.5233 30.1558H26.8516L26.8535 30.1538Z" fill="white"/>
<path d="M23.6084 19.973V17.6233C23.6084 17.3761 23.8092 17.1754 24.0563 17.1754H26.4055C26.6526 17.1754 26.8534 17.3761 26.8534 17.6233V19.9382C26.8534 20.2047 26.6372 20.4209 26.3708 20.4209H24.0563C23.8092 20.4209 23.6084 20.2201 23.6084 19.973Z" fill="white"/>
<path d="M13.9179 20V17.1754H17.161V20.3842C17.161 20.4035 17.1456 20.4209 17.1243 20.4209H14.3368C14.1052 20.4209 13.916 20.2336 13.916 20H13.9179Z" fill="white"/>
<path d="M17.1631 30.1284V26.8848H19.9757C20.2131 26.8848 20.4062 27.0779 20.4062 27.3154V29.6824C20.4062 29.9296 20.2054 30.1284 19.9602 30.1284H17.1631Z" fill="white"/>
<path d="M14.3755 26.8906H17.163V30.1342H14.4122C14.14 30.1342 13.9199 29.9141 13.9199 29.6419V27.3463C13.9199 27.0953 14.1245 26.8906 14.3755 26.8906Z" fill="white"/>
<path d="M23.6533 29.6248V26.9836C23.6533 26.943 23.6861 26.9083 23.7286 26.9083H26.823C26.8636 26.9083 26.8983 26.9411 26.8983 26.9836V30.0785C26.8983 30.1191 26.8655 30.1538 26.823 30.1538H24.1822C23.8908 30.1538 23.6533 29.9163 23.6533 29.6248Z" fill="white"/>
<path d="M28.4746 13.9316V17.1753C31.1617 17.1753 33.3411 19.355 33.3411 22.0426C33.3411 24.7302 31.1617 26.91 28.4746 26.91V30.1536C32.9531 30.1536 36.5842 26.5219 36.5842 22.0426C36.5842 17.5633 32.9531 13.9316 28.4746 13.9316Z" fill="white"/>
<path d="M7.43162 26.9005V24.1222C7.43162 23.8692 7.63817 23.6627 7.89105 23.6627H10.1766C10.4508 23.6627 10.6747 23.8866 10.6747 24.1608V26.9005C10.6747 26.9005 10.6708 26.9082 10.667 26.9082H7.43741C7.43741 26.9082 7.42969 26.9043 7.42969 26.9005H7.43162Z" fill="white"/>
<path d="M10.6748 20.8399V23.2456C10.6748 23.477 10.8624 23.6646 11.0937 23.6646H13.499C13.7303 23.6646 13.9179 23.477 13.9179 23.2456V20.8399C13.9179 20.6085 13.7303 20.4209 13.499 20.4209H11.0937C10.8624 20.4209 10.6748 20.6085 10.6748 20.8399Z" fill="white"/>
<path d="M10.6752 22.0425C10.6752 22.0425 10.8046 23.6643 9.05371 23.6643L10.6752 25.2861C10.6752 25.2861 10.5227 23.6643 12.2968 23.6643L10.6752 22.0425Z" fill="white"/>
<path d="M17.1645 15.5728C17.1645 15.5728 17.2938 17.1946 15.543 17.1946L17.1645 18.8164C17.1645 18.8164 17.012 17.1946 18.786 17.1946L17.1645 15.5728Z" fill="white"/>
<path d="M20.4077 25.2861C20.4077 25.2861 20.537 26.9079 18.7861 26.9079L20.4077 28.5297C20.4077 28.5297 20.2552 26.9079 22.0292 26.9079L20.4077 25.2861Z" fill="white"/>
<path d="M26.854 15.5728C26.854 15.5728 26.9833 17.1946 25.2324 17.1946L26.854 18.8164C26.854 18.8164 26.7015 17.1946 28.4755 17.1946L26.854 15.5728Z" fill="white"/>
<path d="M23.6528 15.5728C23.6528 15.5728 23.5234 17.1946 25.2743 17.1946L23.6528 18.8164C23.6528 18.8164 23.8053 17.1946 22.0312 17.1946L23.6528 15.5728Z" fill="white"/>
<path d="M17.1625 18.7988C17.1625 18.7988 17.0332 20.4206 18.7841 20.4206L17.1625 22.0424C17.1625 22.0424 17.315 20.4206 15.541 20.4206L17.1625 18.7988Z" fill="white"/>
<path d="M10.6752 18.7988C10.6752 18.7988 10.5459 20.4206 12.2968 20.4206L10.6752 22.0424C10.6752 22.0424 10.8277 20.4206 9.05371 20.4206L10.6752 18.7988Z" fill="white"/>
<path d="M20.4062 26.2981V24.9331C20.4062 24.2322 20.9738 23.6646 21.6745 23.6646H23.6493V26.9082H21.0163C20.6784 26.9082 20.4062 26.634 20.4062 26.2981Z" fill="white"/>
<path d="M17.1631 20.8554V23.2301C17.1631 23.4701 17.3575 23.6646 17.5974 23.6646H19.9718C20.2117 23.6646 20.4062 23.4701 20.4062 23.2301V20.8554C20.4062 20.6154 20.2117 20.4209 19.9718 20.4209H17.5974C17.3575 20.4209 17.1631 20.6154 17.1631 20.8554Z" fill="white"/>
<path d="M20.4057 22.0425C20.4057 22.0425 20.2764 23.6643 22.0272 23.6643L20.4057 25.2861C20.4057 25.2861 20.5582 23.6643 18.7842 23.6643L20.4057 22.0425Z" fill="white"/>
<path d="M23.6533 26.9082V23.6646H26.8578C26.879 23.6646 26.8964 23.682 26.8964 23.7032V26.9082H23.6533Z" fill="#0090FF"/>
<path d="M26.8984 20.8727V23.2128C26.8984 23.4623 27.1007 23.6646 27.3502 23.6646H29.6898C29.9393 23.6646 30.1415 23.4623 30.1415 23.2128V20.8727C30.1415 20.6232 29.9393 20.4209 29.6898 20.4209H27.3502C27.1007 20.4209 26.8984 20.6232 26.8984 20.8727Z" fill="#0090FF"/>
<path d="M26.8959 22.0425C26.8959 22.0425 27.0253 23.6643 25.2744 23.6643L26.8959 25.2861C26.8959 25.2861 26.7434 23.6643 28.5175 23.6643L26.8959 22.0425Z" fill="#0090FF"/>
<path d="M7.42969 17.1948V14.374C7.42969 14.1404 7.61887 13.9493 7.85437 13.9493H10.25C10.4836 13.9493 10.6747 14.1385 10.6747 14.374V17.1948H7.43162H7.42969Z" fill="#D83273"/>
</svg>
