<svg width="355" height="69" viewBox="0 0 355 69" fill="none" xmlns="http://www.w3.org/2000/svg">
<g filter="url(#filter0_n_2099_35247)">
<mask id="path-1-inside-1_2099_35247" fill="white">
<path d="M223.735 36.3239C224.699 34.8903 224.576 33.1026 223.435 32.2812C222.293 31.4602 220.559 31.9119 219.506 33.2818L211.199 27.3048L218.606 17.0081C217.516 16.1398 217.442 14.3374 218.46 12.9221C219.479 11.5068 221.211 11.0035 222.381 11.7619L229.791 1.46288L238.1 7.44101C238.074 7.47496 238.046 7.50773 238.021 7.5428C236.977 8.99321 237.079 10.8514 238.249 11.693C239.419 12.5341 241.213 12.0403 242.256 10.59C242.281 10.555 242.303 10.5181 242.327 10.4825L250.632 16.4573L243.223 26.7547C243.254 26.7742 243.285 26.7928 243.314 26.814C244.484 27.6557 244.586 29.514 243.543 30.9642C242.5 32.4145 240.705 32.9079 239.535 32.0666C239.506 32.0454 239.477 32.0234 239.449 32.0009L232.04 42.2991L223.735 36.3239Z"/>
</mask>
<path d="M223.735 36.3239C224.699 34.8903 224.576 33.1026 223.435 32.2812C222.293 31.4602 220.559 31.9119 219.506 33.2818L211.199 27.3048L218.606 17.0081C217.516 16.1398 217.442 14.3374 218.46 12.9221C219.479 11.5068 221.211 11.0035 222.381 11.7619L229.791 1.46288L238.1 7.44101C238.074 7.47496 238.046 7.50773 238.021 7.5428C236.977 8.99321 237.079 10.8514 238.249 11.693C239.419 12.5341 241.213 12.0403 242.256 10.59C242.281 10.555 242.303 10.5181 242.327 10.4825L250.632 16.4573L243.223 26.7547C243.254 26.7742 243.285 26.7928 243.314 26.814C244.484 27.6557 244.586 29.514 243.543 30.9642C242.5 32.4145 240.705 32.9079 239.535 32.0666C239.506 32.0454 239.477 32.0234 239.449 32.0009L232.04 42.2991L223.735 36.3239Z" fill="#6ABF73"/>
<path d="M223.735 36.3239L222.905 35.7658L222.364 36.5698L223.151 37.1356L223.735 36.3239ZM223.435 32.2812L224.019 31.4696L224.019 31.4693L223.435 32.2812ZM219.506 33.2818L218.922 34.0935L219.709 34.6593L220.299 33.8911L219.506 33.2818ZM211.199 27.3048L210.387 26.7208L209.803 27.5325L210.615 28.1165L211.199 27.3048ZM218.606 17.0081L219.418 17.5921L219.975 16.8189L219.229 16.2257L218.606 17.0081ZM218.46 12.9221L217.649 12.3381L217.649 12.3382L218.46 12.9221ZM222.381 11.7619L221.837 12.6011L222.636 13.1191L223.193 12.3459L222.381 11.7619ZM229.791 1.46288L230.375 0.651136L229.563 0.0671248L228.979 0.87887L229.791 1.46288ZM238.1 7.44101L238.893 8.05046L239.522 7.23209L238.684 6.62926L238.1 7.44101ZM238.021 7.5428L237.209 6.95871L237.209 6.95879L238.021 7.5428ZM238.249 11.693L237.665 12.5047L237.665 12.5049L238.249 11.693ZM242.256 10.59L243.068 11.174L243.068 11.174L242.256 10.59ZM242.327 10.4825L242.911 9.6708L242.074 9.06798L241.498 9.92456L242.327 10.4825ZM250.632 16.4573L251.444 17.0413L252.028 16.2295L251.216 15.6455L250.632 16.4573ZM243.223 26.7547L242.412 26.1707L241.797 27.0246L242.681 27.595L243.223 26.7547ZM243.314 26.814L243.898 26.0024L243.898 26.0023L243.314 26.814ZM243.543 30.9642L244.355 31.5482L244.355 31.5482L243.543 30.9642ZM239.535 32.0666L238.951 32.8783L238.951 32.8785L239.535 32.0666ZM239.449 32.0009L240.073 31.2198L239.252 30.563L238.637 31.4169L239.449 32.0009ZM232.04 42.2991L231.456 43.1109L232.268 43.6949L232.852 42.8832L232.04 42.2991ZM223.735 36.3239L224.564 36.8819C225.715 35.1705 225.748 32.7138 224.019 31.4696L223.435 32.2812L222.85 33.0928C223.404 33.4913 223.682 34.61 222.905 35.7658L223.735 36.3239ZM223.435 32.2812L224.019 31.4693C222.289 30.2256 219.97 31.0372 218.713 32.6724L219.506 33.2818L220.299 33.8911C221.148 32.7866 222.297 32.6948 222.851 33.093L223.435 32.2812ZM219.506 33.2818L220.09 32.47L211.783 26.493L211.199 27.3048L210.615 28.1165L218.922 34.0935L219.506 33.2818ZM211.199 27.3048L212.01 27.8888L219.418 17.5921L218.606 17.0081L217.795 16.4241L210.387 26.7208L211.199 27.3048ZM218.606 17.0081L219.229 16.2257C218.692 15.7983 218.452 14.6458 219.272 13.5061L218.46 12.9221L217.649 12.3382C216.432 14.029 216.339 16.4813 217.984 17.7905L218.606 17.0081ZM218.46 12.9221L219.272 13.5061C220.092 12.3665 221.261 12.2277 221.837 12.6011L222.381 11.7619L222.925 10.9227C221.161 9.77942 218.865 10.6472 217.649 12.3381L218.46 12.9221ZM222.381 11.7619L223.193 12.3459L230.602 2.04689L229.791 1.46288L228.979 0.87887L221.569 11.1779L222.381 11.7619ZM229.791 1.46288L229.207 2.27463L237.516 8.25276L238.1 7.44101L238.684 6.62926L230.375 0.651136L229.791 1.46288ZM238.1 7.44101L237.307 6.83156C237.301 6.83946 237.298 6.84333 237.278 6.86851C237.262 6.88807 237.236 6.9206 237.209 6.95871L238.021 7.5428L238.832 8.12689C238.83 8.12993 238.831 8.12853 238.842 8.11446C238.845 8.11114 238.847 8.10774 238.851 8.10336C238.854 8.09926 238.858 8.09424 238.862 8.08905C238.871 8.07869 238.881 8.06533 238.893 8.05046L238.1 7.44101ZM238.021 7.5428L237.209 6.95879C235.966 8.68581 235.893 11.2296 237.665 12.5047L238.249 11.693L238.833 10.8812C238.266 10.4732 237.988 9.30061 238.832 8.12681L238.021 7.5428ZM238.249 11.693L237.665 12.5049C239.438 13.7794 241.826 12.9007 243.068 11.174L242.256 10.59L241.444 10.006C240.6 11.1798 239.4 11.2889 238.833 10.8811L238.249 11.693ZM242.256 10.59L243.068 11.174C243.095 11.1359 243.118 11.1011 243.132 11.0801C243.149 11.0531 243.152 11.0488 243.157 11.0405L242.327 10.4825L241.498 9.92456C241.487 9.94013 241.478 9.95439 241.471 9.9655C241.467 9.97106 241.463 9.97647 241.461 9.98088C241.458 9.98559 241.455 9.98925 241.453 9.99281C241.443 10.0079 241.442 10.0091 241.444 10.0061L242.256 10.59ZM242.327 10.4825L241.743 11.2943L250.048 17.269L250.632 16.4573L251.216 15.6455L242.911 9.6708L242.327 10.4825ZM250.632 16.4573L249.82 15.8732L242.412 26.1707L243.223 26.7547L244.035 27.3387L251.444 17.0413L250.632 16.4573ZM243.223 26.7547L242.681 27.595C242.693 27.6027 242.704 27.6097 242.712 27.6146C242.721 27.6203 242.726 27.6232 242.731 27.6263C242.74 27.6322 242.737 27.6308 242.73 27.6258L243.314 26.814L243.898 26.0023C243.862 25.976 243.829 25.9548 243.808 25.9412C243.771 25.9175 243.786 25.9274 243.766 25.9144L243.223 26.7547ZM243.314 26.814L242.73 27.6257C243.297 28.0338 243.575 29.2067 242.731 30.3803L243.543 30.9642L244.355 31.5482C245.597 29.8213 245.67 27.2776 243.898 26.0024L243.314 26.814ZM243.543 30.9642L242.731 30.3802C241.887 31.5537 240.687 31.6628 240.119 31.2547L239.535 32.0666L238.951 32.8785C240.724 34.153 243.112 33.2753 244.355 31.5482L243.543 30.9642ZM239.535 32.0666L240.119 31.2549C240.106 31.2454 240.091 31.234 240.073 31.2198L239.449 32.0009L238.825 32.7821C238.863 32.8128 238.905 32.8453 238.951 32.8783L239.535 32.0666ZM239.449 32.0009L238.637 31.4169L231.228 41.7151L232.04 42.2991L232.852 42.8832L240.261 32.5849L239.449 32.0009ZM232.04 42.2991L232.624 41.4874L224.319 35.5121L223.735 36.3239L223.151 37.1356L231.456 43.1109L232.04 42.2991Z" fill="#372F32" mask="url(#path-1-inside-1_2099_35247)"/>
</g>
<g filter="url(#filter1_n_2099_35247)">
<mask id="path-3-inside-2_2099_35247" fill="white">
<path d="M150.539 13.708C148.93 14.3368 148.012 15.8761 148.482 17.2013C148.952 18.5264 150.635 19.1431 152.28 18.6172L155.703 28.2625L143.748 32.5038C144.15 33.839 143.183 35.3619 141.54 35.945C139.897 36.5279 138.187 35.9547 137.657 34.6648L125.7 38.907L122.277 29.2599C122.318 29.2468 122.36 29.2358 122.4 29.2214C124.084 28.6239 125.059 27.0385 124.577 25.6804C124.095 24.3226 122.339 23.7066 120.656 24.3039C120.615 24.3184 120.576 24.336 120.536 24.3516L117.115 14.71L129.07 10.4684C129.057 10.4351 129.042 10.4021 129.03 10.3678C128.548 9.00988 129.523 7.42433 131.206 6.82686C132.89 6.22948 134.646 6.8464 135.128 8.20425C135.14 8.23846 135.151 8.27291 135.161 8.30739L147.118 4.06544L150.539 13.708Z"/>
</mask>
<path d="M150.539 13.708C148.93 14.3368 148.012 15.8761 148.482 17.2013C148.952 18.5264 150.635 19.1431 152.28 18.6172L155.703 28.2625L143.748 32.5038C144.15 33.839 143.183 35.3619 141.54 35.945C139.897 36.5279 138.187 35.9547 137.657 34.6648L125.7 38.907L122.277 29.2599C122.318 29.2468 122.36 29.2358 122.4 29.2214C124.084 28.6239 125.059 27.0385 124.577 25.6804C124.095 24.3226 122.339 23.7066 120.656 24.3039C120.615 24.3184 120.576 24.336 120.536 24.3516L117.115 14.71L129.07 10.4684C129.057 10.4351 129.042 10.4021 129.03 10.3678C128.548 9.00988 129.523 7.42433 131.206 6.82686C132.89 6.22948 134.646 6.8464 135.128 8.20425C135.14 8.23846 135.151 8.27291 135.161 8.30739L147.118 4.06544L150.539 13.708Z" fill="#80CBE8"/>
<path d="M150.539 13.708L150.903 14.6394L151.805 14.2867L151.481 13.3736L150.539 13.708ZM148.482 17.2013L147.539 17.5354L147.54 17.5358L148.482 17.2013ZM152.28 18.6172L153.223 18.2828L152.899 17.3697L151.976 17.6646L152.28 18.6172ZM155.703 28.2625L156.037 29.2049L156.979 28.8706L156.645 27.9281L155.703 28.2625ZM143.748 32.5038L143.414 31.5613L142.516 31.8798L142.79 32.7919L143.748 32.5038ZM141.54 35.945L141.875 36.8874L141.875 36.8874L141.54 35.945ZM137.657 34.6648L138.582 34.285L138.22 33.4038L137.323 33.7223L137.657 34.6648ZM125.7 38.907L124.757 39.2414L125.092 40.1838L126.034 39.8495L125.7 38.907ZM122.277 29.2599L121.973 28.3073L120.99 28.6214L121.335 29.5942L122.277 29.2599ZM122.4 29.2214L122.735 30.1639L122.735 30.1638L122.4 29.2214ZM124.577 25.6804L125.519 25.346L125.519 25.3458L124.577 25.6804ZM120.656 24.3039L120.321 23.3615L120.321 23.3615L120.656 24.3039ZM120.536 24.3516L119.593 24.686L119.939 25.6588L120.9 25.283L120.536 24.3516ZM117.115 14.71L116.781 13.7676L115.838 14.1019L116.173 15.0444L117.115 14.71ZM129.07 10.4684L129.405 11.4108L130.396 11.0591L129.995 10.0867L129.07 10.4684ZM129.03 10.3678L128.087 10.702L128.087 10.7022L129.03 10.3678ZM131.206 6.82686L130.872 5.88442L130.872 5.88444L131.206 6.82686ZM135.128 8.20425L136.07 7.86988L136.07 7.86969L135.128 8.20425ZM135.161 8.30739L134.203 8.59365L134.504 9.60157L135.496 9.24983L135.161 8.30739ZM147.118 4.06544L148.06 3.73107L147.726 2.78863L146.783 3.12299L147.118 4.06544ZM150.539 13.708L150.175 12.7766C148.254 13.5273 146.828 15.5279 147.539 17.5354L148.482 17.2013L149.425 16.8671C149.197 16.2242 149.605 15.1464 150.903 14.6394L150.539 13.708ZM148.482 17.2013L147.54 17.5358C148.252 19.5432 150.62 20.1975 152.585 19.5697L152.28 18.6172L151.976 17.6646C150.649 18.0887 149.653 17.5095 149.424 16.8668L148.482 17.2013ZM152.28 18.6172L151.338 18.9515L154.76 28.5968L155.703 28.2625L156.645 27.9281L153.223 18.2828L152.28 18.6172ZM155.703 28.2625L155.368 27.32L143.414 31.5613L143.748 32.5038L144.082 33.4462L156.037 29.2049L155.703 28.2625ZM143.748 32.5038L142.79 32.7919C142.988 33.4492 142.529 34.533 141.206 35.0026L141.54 35.945L141.875 36.8874C143.837 36.1908 145.311 34.2287 144.706 32.2156L143.748 32.5038ZM141.54 35.945L141.206 35.0025C139.883 35.472 138.843 34.9201 138.582 34.285L137.657 34.6648L136.732 35.0446C137.53 36.9893 139.911 37.5839 141.875 36.8874L141.54 35.945ZM137.657 34.6648L137.323 33.7223L125.366 37.9646L125.7 38.907L126.034 39.8495L137.992 35.6072L137.657 34.6648ZM125.7 38.907L126.642 38.5727L123.22 28.9255L122.277 29.2599L121.335 29.5942L124.757 39.2414L125.7 38.907ZM122.277 29.2599L122.582 30.2124C122.591 30.2094 122.596 30.2081 122.627 30.1988C122.651 30.1916 122.69 30.1795 122.735 30.1639L122.4 29.2214L122.066 28.2789C122.07 28.2776 122.068 28.2783 122.051 28.2835C122.047 28.2847 122.043 28.286 122.037 28.2876C122.032 28.2891 122.026 28.2909 122.02 28.2928C122.007 28.2966 121.991 28.3016 121.973 28.3073L122.277 29.2599ZM122.4 29.2214L122.735 30.1638C124.74 29.4524 126.249 27.4038 125.519 25.346L124.577 25.6804L123.635 26.0148C123.868 26.6733 123.429 27.7954 122.066 28.2789L122.4 29.2214ZM124.577 25.6804L125.519 25.3458C124.789 23.2884 122.326 22.6503 120.321 23.3615L120.656 24.3039L120.99 25.2464C122.353 24.7629 123.401 25.3568 123.635 26.015L124.577 25.6804ZM120.656 24.3039L120.321 23.3615C120.277 23.3772 120.239 23.3929 120.215 23.4024C120.186 23.4146 120.181 23.4166 120.172 23.4203L120.536 24.3516L120.9 25.283C120.917 25.2762 120.933 25.2697 120.945 25.2647C120.952 25.2622 120.957 25.2597 120.962 25.2577C120.967 25.2556 120.972 25.2539 120.975 25.2523C120.992 25.2455 120.994 25.2451 120.99 25.2463L120.656 24.3039ZM120.536 24.3516L121.478 24.0173L118.058 14.3756L117.115 14.71L116.173 15.0444L119.593 24.686L120.536 24.3516ZM117.115 14.71L117.449 15.6524L129.405 11.4108L129.07 10.4684L128.736 9.52592L116.781 13.7676L117.115 14.71ZM129.07 10.4684L129.995 10.0867C129.989 10.0736 129.984 10.0615 129.981 10.053C129.976 10.0432 129.974 10.0381 129.972 10.0329C129.968 10.0228 129.969 10.0253 129.972 10.0335L129.03 10.3678L128.087 10.7022C128.102 10.7446 128.117 10.7807 128.127 10.804C128.144 10.8446 128.137 10.8278 128.146 10.85L129.07 10.4684ZM129.03 10.3678L129.972 10.0337C129.739 9.37515 130.178 8.25276 131.541 7.76927L131.206 6.82686L130.872 5.88444C128.867 6.5959 127.358 8.64462 128.087 10.702L129.03 10.3678ZM131.206 6.82686L131.541 7.7693C132.903 7.28593 133.952 7.88023 134.186 8.53881L135.128 8.20425L136.07 7.86969C135.34 5.81257 132.877 5.17302 130.872 5.88442L131.206 6.82686ZM135.128 8.20425L134.185 8.53862C134.191 8.5538 134.197 8.5718 134.203 8.59365L135.161 8.30739L136.12 8.02113C136.105 7.97401 136.089 7.92313 136.07 7.86988L135.128 8.20425ZM135.161 8.30739L135.496 9.24983L147.452 5.00788L147.118 4.06544L146.783 3.12299L134.827 7.36495L135.161 8.30739ZM147.118 4.06544L146.175 4.3998L149.596 14.0424L150.539 13.708L151.481 13.3736L148.06 3.73107L147.118 4.06544Z" fill="#372F32" mask="url(#path-3-inside-2_2099_35247)"/>
</g>
<g filter="url(#filter2_n_2099_35247)">
<mask id="path-5-inside-3_2099_35247" fill="white">
<path d="M30.1447 60.125C29.3344 58.5991 27.6996 57.8653 26.4374 58.4849C25.1755 59.105 24.757 60.8474 25.4692 62.4214L16.2831 66.9334L10.691 55.548C9.41105 56.1012 7.78677 55.3165 7.01803 53.7519C6.24937 52.1869 6.62149 50.422 7.84172 49.7471L2.24828 38.3591L11.4361 33.8463C11.4538 33.8853 11.4695 33.9254 11.4886 33.9642C12.2763 35.5679 13.9636 36.3531 15.257 35.7177C16.5501 35.0822 16.9596 33.2674 16.1719 31.6638C16.1529 31.6251 16.1308 31.5881 16.1107 31.5503L25.2933 27.0401L30.8859 38.4263C30.9174 38.4088 30.9484 38.3901 30.9811 38.3741C32.2744 37.7392 33.9618 38.5243 34.7495 40.1277C35.5372 41.7313 35.1269 43.5466 33.8337 44.182C33.8012 44.198 33.7682 44.213 33.7352 44.2272L39.3282 55.6143L30.1447 60.125Z"/>
</mask>
<path d="M30.1447 60.125C29.3344 58.5991 27.6996 57.8653 26.4374 58.4849C25.1755 59.105 24.757 60.8474 25.4692 62.4214L16.2831 66.9334L10.691 55.548C9.41105 56.1012 7.78677 55.3165 7.01803 53.7519C6.24937 52.1869 6.62149 50.422 7.84172 49.7471L2.24828 38.3591L11.4361 33.8463C11.4538 33.8853 11.4695 33.9254 11.4886 33.9642C12.2763 35.5679 13.9636 36.3531 15.257 35.7177C16.5501 35.0822 16.9596 33.2674 16.1719 31.6638C16.1529 31.6251 16.1308 31.5881 16.1107 31.5503L25.2933 27.0401L30.8859 38.4263C30.9174 38.4088 30.9484 38.3901 30.9811 38.3741C32.2744 37.7392 33.9618 38.5243 34.7495 40.1277C35.5372 41.7313 35.1269 43.5466 33.8337 44.182C33.8012 44.198 33.7682 44.213 33.7352 44.2272L39.3282 55.6143L30.1447 60.125Z" fill="#FBE200"/>
<path d="M30.1447 60.125L29.2615 60.594L29.7159 61.4497L30.5856 61.0225L30.1447 60.125ZM26.4374 58.4849L25.9968 57.5872L25.9965 57.5874L26.4374 58.4849ZM25.4692 62.4214L25.9101 63.319L26.7797 62.8918L26.3803 62.0091L25.4692 62.4214ZM16.2831 66.9334L15.3855 67.3742L15.8264 68.2718L16.724 67.8309L16.2831 66.9334ZM10.691 55.548L11.5885 55.1072L11.1686 54.2522L10.2943 54.6301L10.691 55.548ZM7.01803 53.7519L6.12045 54.1927L6.1205 54.1928L7.01803 53.7519ZM7.84172 49.7471L8.32571 50.6222L9.15922 50.1612L8.7393 49.3062L7.84172 49.7471ZM2.24828 38.3591L1.80741 37.4615L0.909839 37.9024L1.3507 38.8L2.24828 38.3591ZM11.4361 33.8463L12.3472 33.4341L11.9218 32.4937L10.9953 32.9487L11.4361 33.8463ZM11.4886 33.9642L10.591 34.4049L10.591 34.405L11.4886 33.9642ZM15.257 35.7177L15.6979 36.6153L15.6981 36.6152L15.257 35.7177ZM16.1719 31.6638L17.0695 31.223L17.0695 31.2229L16.1719 31.6638ZM16.1107 31.5503L15.6699 30.6527L14.7434 31.1078L15.2276 32.0194L16.1107 31.5503ZM25.2933 27.0401L26.1909 26.5992L25.75 25.7016L24.8525 26.1425L25.2933 27.0401ZM30.8859 38.4263L29.9883 38.8671L30.4521 39.8114L31.3717 39.3004L30.8859 38.4263ZM30.9811 38.3741L30.5404 37.4764L30.5402 37.4765L30.9811 38.3741ZM34.7495 40.1277L35.6471 39.6868L35.647 39.6868L34.7495 40.1277ZM33.8337 44.182L34.2746 45.0796L34.2748 45.0795L33.8337 44.182ZM33.7352 44.2272L33.3403 43.3085L32.3738 43.7239L32.8376 44.6681L33.7352 44.2272ZM39.3282 55.6143L39.769 56.5119L40.6666 56.071L40.2257 55.1734L39.3282 55.6143ZM30.1447 60.125L31.0279 59.656C30.0606 57.8345 27.9088 56.6487 25.9968 57.5872L26.4374 58.4849L26.8781 59.3826C27.4904 59.082 28.6082 59.3638 29.2615 60.594L30.1447 60.125ZM26.4374 58.4849L25.9965 57.5874C24.0846 58.5268 23.7079 60.9547 24.5582 62.8337L25.4692 62.4214L26.3803 62.0091C25.806 60.74 26.2663 59.6832 26.8784 59.3824L26.4374 58.4849ZM25.4692 62.4214L25.0284 61.5238L15.8423 66.0358L16.2831 66.9334L16.724 67.8309L25.9101 63.319L25.4692 62.4214ZM16.2831 66.9334L17.1807 66.4925L11.5885 55.1072L10.691 55.548L9.79339 55.9889L15.3855 67.3742L16.2831 66.9334ZM10.691 55.548L10.2943 54.6301C9.66418 54.9024 8.53466 54.571 7.91555 53.3109L7.01803 53.7519L6.1205 54.1928C7.03889 56.0621 9.15793 57.3 11.0877 56.466L10.691 55.548ZM7.01803 53.7519L7.9156 53.311C7.29666 52.0509 7.72486 50.9545 8.32571 50.6222L7.84172 49.7471L7.35773 48.872C5.51811 49.8895 5.20209 52.323 6.12045 54.1927L7.01803 53.7519ZM7.84172 49.7471L8.7393 49.3062L3.14585 37.9183L2.24828 38.3591L1.3507 38.8L6.94415 50.188L7.84172 49.7471ZM2.24828 38.3591L2.68914 39.2567L11.877 34.7439L11.4361 33.8463L10.9953 32.9487L1.80741 37.4615L2.24828 38.3591ZM11.4361 33.8463L10.525 34.2585C10.5292 34.2676 10.531 34.2722 10.5438 34.3018C10.5537 34.3248 10.5703 34.3628 10.591 34.4049L11.4886 33.9642L12.3862 33.5234C12.3879 33.5267 12.387 33.5254 12.3799 33.5088C12.3782 33.5049 12.3765 33.5009 12.3743 33.4958C12.3722 33.491 12.3697 33.4851 12.367 33.479C12.3618 33.4668 12.355 33.4512 12.3472 33.4341L11.4361 33.8463ZM11.4886 33.9642L10.591 34.405C11.529 36.3146 13.7381 37.5779 15.6979 36.6153L15.257 35.7177L14.8162 34.8202C14.189 35.1282 13.0237 34.8212 12.3862 33.5233L11.4886 33.9642ZM15.257 35.7177L15.6981 36.6152C17.6575 35.6522 18.0073 33.1322 17.0695 31.223L16.1719 31.6638L15.2744 32.1047C15.9119 33.4026 15.4428 34.5122 14.816 34.8203L15.257 35.7177ZM16.1719 31.6638L17.0695 31.2229C17.0488 31.1807 17.0288 31.1444 17.0167 31.1225C17.0011 31.0943 16.9985 31.09 16.9939 31.0812L16.1107 31.5503L15.2276 32.0194C15.2364 32.0359 15.2446 32.0509 15.251 32.0625C15.2542 32.0683 15.2573 32.0739 15.2599 32.0785C15.2626 32.0834 15.2647 32.0872 15.2667 32.0909C15.2755 32.1066 15.2761 32.1081 15.2744 32.1048L16.1719 31.6638ZM16.1107 31.5503L16.5516 32.4479L25.7342 27.9376L25.2933 27.0401L24.8525 26.1425L15.6699 30.6527L16.1107 31.5503ZM25.2933 27.0401L24.3958 27.4809L29.9883 38.8671L30.8859 38.4263L31.7835 37.9854L26.1909 26.5992L25.2933 27.0401ZM30.8859 38.4263L31.3717 39.3004C31.3841 39.2935 31.3955 39.287 31.4036 39.2824C31.4128 39.2772 31.4176 39.2744 31.4225 39.2717C31.432 39.2663 31.4297 39.2679 31.4219 39.2717L30.9811 38.3741L30.5402 37.4765C30.4998 37.4964 30.4656 37.5152 30.4436 37.5276C30.4053 37.5491 30.4212 37.5405 30.4002 37.5522L30.8859 38.4263ZM30.9811 38.3741L31.4217 39.2718C32.0489 38.9639 33.2145 39.2711 33.852 40.5686L34.7495 40.1277L35.647 39.6868C34.7091 37.7775 32.4999 36.5145 30.5404 37.4764L30.9811 38.3741ZM34.7495 40.1277L33.8519 40.5686C34.4893 41.8661 34.0199 42.9763 33.3927 43.2846L33.8337 44.182L34.2748 45.0795C36.2339 44.1168 36.5851 41.5965 35.6471 39.6868L34.7495 40.1277ZM33.8337 44.182L33.3929 43.2845C33.3784 43.2916 33.3612 43.2995 33.3403 43.3085L33.7352 44.2272L34.13 45.1459C34.1752 45.1265 34.2239 45.1045 34.2746 45.0796L33.8337 44.182ZM33.7352 44.2272L32.8376 44.6681L38.4306 56.0552L39.3282 55.6143L40.2257 55.1734L34.6327 43.7863L33.7352 44.2272ZM39.3282 55.6143L38.8873 54.7167L29.7038 59.2274L30.1447 60.125L30.5856 61.0225L39.769 56.5119L39.3282 55.6143Z" fill="#372F32" mask="url(#path-5-inside-3_2099_35247)"/>
</g>
<g filter="url(#filter3_n_2099_35247)">
<mask id="path-7-inside-4_2099_35247" fill="white">
<path d="M343.898 55.8089C342.938 54.3725 341.238 53.8071 340.044 54.5507C338.851 55.2947 338.61 57.0703 339.478 58.5646L330.793 63.979L324.082 53.2149C322.865 53.8941 321.169 53.2771 320.247 51.7978C319.325 50.3183 319.517 48.5248 320.663 47.7305L313.951 36.9639L322.638 31.5485C322.659 31.5855 322.679 31.6238 322.702 31.6605C323.647 33.1767 325.405 33.7879 326.627 33.0255C327.85 32.263 328.075 30.4161 327.129 28.9001C327.106 28.8634 327.081 28.8289 327.057 28.7933L335.739 23.381L342.45 34.1459C342.479 34.1254 342.508 34.1037 342.539 34.0844C343.762 33.3225 345.52 33.9336 346.465 35.4495C347.41 36.9656 347.185 38.8129 345.962 39.5755C345.932 39.5947 345.9 39.6129 345.869 39.6303L352.58 50.3961L343.898 55.8089Z"/>
</mask>
<path d="M343.898 55.8089C342.938 54.3725 341.238 53.8071 340.044 54.5507C338.851 55.2947 338.61 57.0703 339.478 58.5646L330.793 63.979L324.082 53.2149C322.865 53.8941 321.169 53.2771 320.247 51.7978C319.325 50.3183 319.517 48.5248 320.663 47.7305L313.951 36.9639L322.638 31.5485C322.659 31.5855 322.679 31.6238 322.702 31.6605C323.647 33.1767 325.405 33.7879 326.627 33.0255C327.85 32.263 328.075 30.4161 327.129 28.9001C327.106 28.8634 327.081 28.8289 327.057 28.7933L335.739 23.381L342.45 34.1459C342.479 34.1254 342.508 34.1037 342.539 34.0844C343.762 33.3225 345.52 33.9336 346.465 35.4495C347.41 36.9656 347.185 38.8129 345.962 39.5755C345.932 39.5947 345.9 39.6129 345.869 39.6303L352.58 50.3961L343.898 55.8089Z" fill="#F0A9CB"/>
<path d="M343.898 55.8089L343.067 56.3645L343.605 57.1701L344.427 56.6575L343.898 55.8089ZM340.044 54.5507L339.516 53.7019L339.515 53.7021L340.044 54.5507ZM339.478 58.5646L340.007 59.4132L340.829 58.9007L340.343 58.0627L339.478 58.5646ZM330.793 63.979L329.944 64.508L330.473 65.3566L331.322 64.8276L330.793 63.979ZM324.082 53.2149L324.931 52.6858L324.427 51.8775L323.595 52.3416L324.082 53.2149ZM320.247 51.7978L319.398 52.3269L319.398 52.327L320.247 51.7978ZM320.663 47.7305L321.233 48.5523L322.016 48.0097L321.512 47.2014L320.663 47.7305ZM313.951 36.9639L313.422 36.1153L312.573 36.6443L313.102 37.4929L313.951 36.9639ZM322.638 31.5485L323.502 31.0466L322.984 30.1538L322.108 30.6999L322.638 31.5485ZM322.702 31.6605L321.853 32.1894L321.853 32.1895L322.702 31.6605ZM326.627 33.0255L327.157 33.8741L327.157 33.874L326.627 33.0255ZM327.129 28.9001L327.978 28.371L327.978 28.3709L327.129 28.9001ZM327.057 28.7933L326.528 27.9447L325.652 28.4907L326.226 29.3489L327.057 28.7933ZM335.739 23.381L336.587 22.8519L336.058 22.0033L335.21 22.5324L335.739 23.381ZM342.45 34.1459L341.601 34.675L342.158 35.5677L343.021 34.9666L342.45 34.1459ZM342.539 34.0844L342.01 33.2357L342.01 33.2358L342.539 34.0844ZM346.465 35.4495L347.314 34.9205L347.314 34.9204L346.465 35.4495ZM345.962 39.5755L346.491 40.4241L346.492 40.424L345.962 39.5755ZM345.869 39.6303L345.383 38.7561L344.464 39.2667L345.02 40.1594L345.869 39.6303ZM352.58 50.3961L353.109 51.2447L353.958 50.7157L353.429 49.8671L352.58 50.3961ZM343.898 55.8089L344.729 55.2533C343.584 53.5385 341.323 52.5755 339.516 53.7019L340.044 54.5507L340.573 55.3994C341.152 55.0386 342.293 55.2064 343.067 56.3645L343.898 55.8089ZM340.044 54.5507L339.515 53.7021C337.708 54.8293 337.578 57.2829 338.613 59.0666L339.478 58.5646L340.343 58.0627C339.643 56.8578 339.995 55.7601 340.574 55.3992L340.044 54.5507ZM339.478 58.5646L338.949 57.716L330.264 63.1304L330.793 63.979L331.322 64.8276L340.007 59.4132L339.478 58.5646ZM330.793 63.979L331.641 63.45L324.931 52.6858L324.082 53.2149L323.234 53.7439L329.944 64.508L330.793 63.979ZM324.082 53.2149L323.595 52.3416C322.996 52.676 321.838 52.4601 321.096 51.2687L320.247 51.7978L319.398 52.327C320.5 54.0942 322.733 55.1123 324.569 54.0882L324.082 53.2149ZM320.247 51.7978L321.096 51.2688C320.353 50.0774 320.668 48.9435 321.233 48.5523L320.663 47.7305L320.093 46.9086C318.366 48.1062 318.296 50.5592 319.398 52.3269L320.247 51.7978ZM320.663 47.7305L321.512 47.2014L314.8 36.4348L313.951 36.9639L313.102 37.4929L319.815 48.2595L320.663 47.7305ZM313.951 36.9639L314.48 37.8125L323.167 32.3971L322.638 31.5485L322.108 30.6999L313.422 36.1153L313.951 36.9639ZM322.638 31.5485L321.773 32.0504C321.778 32.059 321.78 32.0634 321.796 32.0915C321.808 32.1134 321.828 32.1496 321.853 32.1894L322.702 31.6605L323.55 31.1315C323.552 31.1347 323.551 31.1334 323.542 31.1177C323.54 31.114 323.538 31.1101 323.536 31.1053C323.533 31.1007 323.53 31.095 323.527 31.0892C323.52 31.0777 323.512 31.0628 323.502 31.0466L322.638 31.5485ZM322.702 31.6605L321.853 32.1895C322.979 33.9949 325.304 35.0292 327.157 33.8741L326.627 33.0255L326.098 32.1769C325.506 32.5466 324.315 32.3585 323.55 31.1314L322.702 31.6605ZM326.627 33.0255L327.157 33.874C329.009 32.7185 329.103 30.1761 327.978 28.371L327.129 28.9001L326.281 29.4291C327.046 30.6562 326.691 31.8074 326.098 32.1771L326.627 33.0255ZM327.129 28.9001L327.978 28.3709C327.953 28.3311 327.93 28.2969 327.915 28.2764C327.897 28.2499 327.894 28.2459 327.888 28.2376L327.057 28.7933L326.226 29.3489C326.236 29.3645 326.246 29.3786 326.253 29.3894C326.257 29.3949 326.261 29.4002 326.264 29.4045C326.267 29.4091 326.269 29.4126 326.272 29.4161C326.282 29.4309 326.283 29.4324 326.281 29.4292L327.129 28.9001ZM327.057 28.7933L327.586 29.6419L336.268 24.2296L335.739 23.381L335.21 22.5324L326.528 27.9447L327.057 28.7933ZM335.739 23.381L334.89 23.91L341.601 34.675L342.45 34.1459L343.298 33.6169L336.587 22.8519L335.739 23.381ZM342.45 34.1459L343.021 34.9666C343.033 34.9585 343.043 34.9509 343.051 34.9456C343.06 34.9394 343.064 34.9362 343.069 34.933C343.078 34.9267 343.075 34.9285 343.068 34.933L342.539 34.0844L342.01 33.2358C341.972 33.2596 341.94 33.2819 341.919 33.2964C341.883 33.3216 341.898 33.3115 341.878 33.3252L342.45 34.1459ZM342.539 34.0844L343.068 34.9331C343.661 34.5636 344.852 34.7519 345.616 35.9786L346.465 35.4495L347.314 34.9204C346.188 33.1153 343.863 32.0813 342.01 33.2357L342.539 34.0844ZM346.465 35.4495L345.616 35.9785C346.381 37.2053 346.026 38.3571 345.433 38.727L345.962 39.5755L346.492 40.424C348.344 39.2688 348.439 36.7259 347.314 34.9205L346.465 35.4495ZM345.962 39.5755L345.433 38.7269C345.42 38.7354 345.403 38.745 345.383 38.7561L345.869 39.6303L346.354 40.5046C346.397 40.4807 346.443 40.454 346.491 40.4241L345.962 39.5755ZM345.869 39.6303L345.02 40.1594L351.732 50.9251L352.58 50.3961L353.429 49.8671L346.717 39.1013L345.869 39.6303ZM352.58 50.3961L352.051 49.5475L343.369 54.9603L343.898 55.8089L344.427 56.6575L353.109 51.2447L352.58 50.3961Z" fill="#372F32" mask="url(#path-7-inside-4_2099_35247)"/>
</g>
<defs>
<filter id="filter0_n_2099_35247" x="211.198" y="1.46289" width="39.4336" height="40.8362" filterUnits="userSpaceOnUse" color-interpolation-filters="sRGB">
<feFlood flood-opacity="0" result="BackgroundImageFix"/>
<feBlend mode="normal" in="SourceGraphic" in2="BackgroundImageFix" result="shape"/>
<feTurbulence type="fractalNoise" baseFrequency="0.40000000596046448 0.40000000596046448" stitchTiles="stitch" numOctaves="3" result="noise" seed="297" />
<feColorMatrix in="noise" type="luminanceToAlpha" result="alphaNoise" />
<feComponentTransfer in="alphaNoise" result="coloredNoise1">
<feFuncA type="discrete" tableValues="0 0 0 0 0 0 0 0 0 0 0 0 0 0 0 0 0 0 1 1 1 1 1 1 1 1 1 1 1 1 1 0 0 0 0 0 0 0 0 0 0 0 0 0 0 0 0 0 0 0 0 0 0 0 0 0 0 0 0 0 0 0 0 0 0 0 0 0 0 0 0 0 0 0 0 0 0 0 0 0 0 0 0 0 0 0 0 0 0 0 0 0 0 0 0 0 0 0 0 0 "/>
</feComponentTransfer>
<feComposite operator="in" in2="shape" in="coloredNoise1" result="noise1Clipped" />
<feFlood flood-color="rgba(0, 0, 0, 0.25)" result="color1Flood" />
<feComposite operator="in" in2="noise1Clipped" in="color1Flood" result="color1" />
<feMerge result="effect1_noise_2099_35247">
<feMergeNode in="shape" />
<feMergeNode in="color1" />
</feMerge>
</filter>
<filter id="filter1_n_2099_35247" x="117.115" y="4.06543" width="38.5869" height="34.8416" filterUnits="userSpaceOnUse" color-interpolation-filters="sRGB">
<feFlood flood-opacity="0" result="BackgroundImageFix"/>
<feBlend mode="normal" in="SourceGraphic" in2="BackgroundImageFix" result="shape"/>
<feTurbulence type="fractalNoise" baseFrequency="0.40000000596046448 0.40000000596046448" stitchTiles="stitch" numOctaves="3" result="noise" seed="297" />
<feColorMatrix in="noise" type="luminanceToAlpha" result="alphaNoise" />
<feComponentTransfer in="alphaNoise" result="coloredNoise1">
<feFuncA type="discrete" tableValues="0 0 0 0 0 0 0 0 0 0 0 0 0 0 0 0 0 0 1 1 1 1 1 1 1 1 1 1 1 1 1 0 0 0 0 0 0 0 0 0 0 0 0 0 0 0 0 0 0 0 0 0 0 0 0 0 0 0 0 0 0 0 0 0 0 0 0 0 0 0 0 0 0 0 0 0 0 0 0 0 0 0 0 0 0 0 0 0 0 0 0 0 0 0 0 0 0 0 0 0 "/>
</feComponentTransfer>
<feComposite operator="in" in2="shape" in="coloredNoise1" result="noise1Clipped" />
<feFlood flood-color="rgba(0, 0, 0, 0.25)" result="color1Flood" />
<feComposite operator="in" in2="noise1Clipped" in="color1Flood" result="color1" />
<feMerge result="effect1_noise_2099_35247">
<feMergeNode in="shape" />
<feMergeNode in="color1" />
</feMerge>
</filter>
<filter id="filter2_n_2099_35247" x="2.24805" y="27.04" width="37.0801" height="39.8933" filterUnits="userSpaceOnUse" color-interpolation-filters="sRGB">
<feFlood flood-opacity="0" result="BackgroundImageFix"/>
<feBlend mode="normal" in="SourceGraphic" in2="BackgroundImageFix" result="shape"/>
<feTurbulence type="fractalNoise" baseFrequency="0.40000000596046448 0.40000000596046448" stitchTiles="stitch" numOctaves="3" result="noise" seed="297" />
<feColorMatrix in="noise" type="luminanceToAlpha" result="alphaNoise" />
<feComponentTransfer in="alphaNoise" result="coloredNoise1">
<feFuncA type="discrete" tableValues="0 0 0 0 0 0 0 0 0 0 0 0 0 0 0 0 0 0 1 1 1 1 1 1 1 1 1 1 1 1 1 0 0 0 0 0 0 0 0 0 0 0 0 0 0 0 0 0 0 0 0 0 0 0 0 0 0 0 0 0 0 0 0 0 0 0 0 0 0 0 0 0 0 0 0 0 0 0 0 0 0 0 0 0 0 0 0 0 0 0 0 0 0 0 0 0 0 0 0 0 "/>
</feComponentTransfer>
<feComposite operator="in" in2="shape" in="coloredNoise1" result="noise1Clipped" />
<feFlood flood-color="rgba(0, 0, 0, 0.25)" result="color1Flood" />
<feComposite operator="in" in2="noise1Clipped" in="color1Flood" result="color1" />
<feMerge result="effect1_noise_2099_35247">
<feMergeNode in="shape" />
<feMergeNode in="color1" />
</feMerge>
</filter>
<filter id="filter3_n_2099_35247" x="313.951" y="23.381" width="38.6289" height="40.598" filterUnits="userSpaceOnUse" color-interpolation-filters="sRGB">
<feFlood flood-opacity="0" result="BackgroundImageFix"/>
<feBlend mode="normal" in="SourceGraphic" in2="BackgroundImageFix" result="shape"/>
<feTurbulence type="fractalNoise" baseFrequency="0.40000000596046448 0.40000000596046448" stitchTiles="stitch" numOctaves="3" result="noise" seed="297" />
<feColorMatrix in="noise" type="luminanceToAlpha" result="alphaNoise" />
<feComponentTransfer in="alphaNoise" result="coloredNoise1">
<feFuncA type="discrete" tableValues="0 0 0 0 0 0 0 0 0 0 0 0 0 0 0 0 0 0 1 1 1 1 1 1 1 1 1 1 1 1 1 0 0 0 0 0 0 0 0 0 0 0 0 0 0 0 0 0 0 0 0 0 0 0 0 0 0 0 0 0 0 0 0 0 0 0 0 0 0 0 0 0 0 0 0 0 0 0 0 0 0 0 0 0 0 0 0 0 0 0 0 0 0 0 0 0 0 0 0 0 "/>
</feComponentTransfer>
<feComposite operator="in" in2="shape" in="coloredNoise1" result="noise1Clipped" />
<feFlood flood-color="rgba(0, 0, 0, 0.25)" result="color1Flood" />
<feComposite operator="in" in2="noise1Clipped" in="color1Flood" result="color1" />
<feMerge result="effect1_noise_2099_35247">
<feMergeNode in="shape" />
<feMergeNode in="color1" />
</feMerge>
</filter>
</defs>
</svg>
