<svg width="89" height="145" viewBox="0 0 89 145" fill="none" xmlns="http://www.w3.org/2000/svg">
<mask id="path-1-inside-1_2802_22183" fill="white">
<path d="M70.226 114.347C70.075 114.353 69.9743 114.366 69.8674 114.36C69.6408 114.353 69.4143 114.328 69.1941 114.322C68.7158 114.316 68.2439 114.253 67.7657 114.209C67.1176 114.146 66.4758 114.052 65.8276 113.976C65.4186 113.926 65.0096 113.869 64.6069 113.806C64.0406 113.712 63.4806 113.611 62.9205 113.505C62.134 113.36 61.3537 113.215 60.5672 113.065C59.4975 112.857 58.4277 112.637 57.358 112.436C56.1184 112.203 54.8788 111.958 53.6329 111.757C52.7268 111.612 51.8207 111.493 50.9083 111.411C49.9644 111.323 49.0205 111.298 48.0767 111.355C47.2272 111.405 46.384 111.55 45.5723 111.801C44.8801 112.015 44.232 112.329 43.6657 112.788C43.1875 113.171 42.7847 113.63 42.4701 114.165C41.929 115.089 41.6647 116.095 41.5514 117.151C41.4696 117.936 41.4885 118.722 41.52 119.502C41.564 120.551 41.7465 121.582 41.9415 122.613C42.124 123.556 42.3506 124.48 42.6023 125.404C42.7848 126.096 43.005 126.781 43.1875 127.479C43.4643 128.535 43.7349 129.591 43.867 130.672C43.9299 131.2 44.0306 131.722 44.0747 132.25C44.1376 133.061 44.1943 133.872 44.1376 134.683C44.081 135.462 44.018 136.248 43.867 137.015C43.7852 137.443 43.672 137.87 43.5335 138.291C43.2504 139.178 42.8917 140.039 42.3883 140.831C42.0485 141.372 41.6584 141.881 41.199 142.327C40.381 143.125 39.4372 143.748 38.3486 144.119C37.6941 144.345 37.0209 144.483 36.3224 144.502C35.9889 144.508 35.6617 144.502 35.3282 144.49C35.0891 144.483 34.8563 144.42 34.6235 144.376C33.3083 144.131 32.1757 143.521 31.1626 142.66C30.6781 142.252 30.2817 141.78 29.9041 141.277C29.5203 140.762 29.212 140.202 28.9477 139.618C28.5953 138.838 28.331 138.027 28.1548 137.197C28.0164 136.537 27.9346 135.865 27.8843 135.186C27.8465 134.626 27.815 134.067 27.8402 133.514C27.8717 132.879 27.8842 132.238 27.9849 131.609C28.0478 131.232 28.0667 130.842 28.136 130.465C28.2429 129.861 28.3751 129.264 28.5009 128.667C28.7526 127.498 29.1302 126.36 29.4385 125.203C29.7217 124.135 29.9733 123.06 30.1558 121.972C30.2565 121.381 30.3509 120.797 30.4201 120.199C30.4642 119.829 30.4704 119.458 30.483 119.087C30.4956 118.684 30.4893 118.288 30.483 117.886C30.4704 116.729 30.2376 115.617 29.7468 114.567C29.5518 114.158 29.3001 113.781 29.0043 113.442C28.2178 112.537 27.211 112.002 26.0657 111.707C25.3799 111.531 24.6814 111.443 23.9829 111.355C23.9011 111.342 23.8256 111.348 23.7438 111.348C22.8755 111.342 22.0134 111.348 21.1513 111.411C20.648 111.449 20.1508 111.518 19.6474 111.581C19.1755 111.644 18.7036 111.713 18.2316 111.788C17.3822 111.933 16.5264 112.071 15.6769 112.235C14.4751 112.467 13.2795 112.725 12.0839 112.958C11.0394 113.165 9.99485 113.354 8.95031 113.549C8.35252 113.662 7.74845 113.775 7.14438 113.863C6.43334 113.97 5.7223 114.045 5.01126 114.14C4.68405 114.184 4.35684 114.234 4.02964 114.265C3.74018 114.297 3.44443 114.309 3.15498 114.322C2.78373 114.334 2.41248 114.303 2.04122 114.366C1.9783 114.378 1.90908 114.353 1.85874 114.353C1.75177 114.259 1.77693 114.146 1.77693 114.045C1.77693 113.461 1.77695 112.87 1.77065 112.285C1.77065 112.115 1.73919 111.946 1.7266 111.77C1.72031 111.7 1.71401 111.638 1.71401 111.568C1.71401 111.499 1.71401 111.436 1.71401 111.367C1.69513 110.487 1.70144 109.613 1.6511 108.733C1.62593 108.318 1.63221 107.91 1.60075 107.501C1.55041 106.81 1.51266 106.125 1.49379 105.433C1.4812 105.012 1.43085 104.584 1.39938 104.163C1.38051 103.874 1.36794 103.579 1.35535 103.289C1.33018 102.868 1.31129 102.441 1.28613 102.02C1.26096 101.661 1.23579 101.303 1.21062 100.951C1.18545 100.58 1.154 100.209 1.12253 99.8383C1.09107 99.3605 1.05332 98.8828 1.02185 98.4113C0.996684 98.053 0.984101 97.6947 0.965224 97.3364C0.940054 96.978 0.914868 96.6197 0.889699 96.2614C0.858236 95.8654 0.833077 95.4693 0.801615 95.0733C0.770152 94.7024 0.738694 94.3315 0.707232 93.9669C0.682062 93.7029 0.656882 93.4389 0.638005 93.1749C0.612835 92.7914 0.600247 92.4079 0.575077 92.0182C0.5562 91.6599 0.531045 91.3015 0.512168 90.9432C0.480706 90.4655 0.455527 89.9877 0.424065 89.51C0.398895 89.1265 0.361138 88.743 0.323383 88.3596C0.323383 88.3344 0.317104 88.3093 0.317104 88.2779C0.298227 87.8252 0.279346 87.3789 0.254176 86.9263C0.229006 86.4611 0.197535 86.0022 0.166072 85.5371C0.166072 85.5119 0.159793 85.4868 0.159793 85.4553C0.140916 84.9399 0.115729 84.4181 0.103144 83.9026C0.084267 83.2929 0.0968541 82.6768 0.0465147 82.067C0.00876004 81.6019 0.00876158 81.1367 0.00876158 80.6715C0.00246914 79.4205 -0.0101096 78.1696 0.0150602 76.9123C0.027645 76.0071 0.0653943 75.1082 0.147196 74.2029C0.21012 73.5429 0.266756 72.8828 0.367435 72.2291C0.537331 71.1353 0.782726 70.0603 1.2232 69.0419C1.48119 68.451 1.82728 67.9167 2.33067 67.5018C2.79002 67.1246 3.31859 66.9863 3.8912 67.0177C4.38201 67.0429 4.87282 67.1372 5.32588 67.3321C5.65308 67.4704 5.9803 67.6275 6.29492 67.8098C6.9745 68.2059 7.61631 68.6522 8.22668 69.1488C8.8748 69.6768 9.52293 70.2049 10.2654 70.6135C10.9702 71.0032 11.7064 71.2924 12.5055 71.4118C12.7006 71.4433 12.902 71.4621 13.097 71.4747C13.1788 71.481 13.2606 71.481 13.3361 71.4684C14.3115 71.3113 15.205 70.9844 15.9538 70.3055C16.6648 69.6643 17.2123 68.9036 17.6653 68.0676C18.1687 67.1372 18.5274 66.1502 18.8294 65.1444C19.1629 64.0192 19.3832 62.8751 19.5594 61.7184C19.66 61.0772 19.7104 60.4298 19.7733 59.7823C19.8992 58.5062 19.8614 57.2301 19.8614 55.9539C19.8614 55.4888 19.7922 55.0299 19.767 54.5647C19.7418 54.0366 19.6915 53.5086 19.6097 52.9806C19.5216 52.4462 19.4335 51.9056 19.3517 51.3713C19.2322 50.6232 19.0434 49.8877 18.8294 49.1585C18.584 48.3287 18.2883 47.5178 17.9107 46.7383C17.6024 46.1034 17.25 45.4936 16.8158 44.9404C16.3943 44.4061 15.9223 43.9283 15.3308 43.5637C14.3052 42.9351 13.2166 42.7214 12.0462 43.0106C11.354 43.1803 10.7185 43.482 10.1081 43.834C9.34045 44.2741 8.67973 44.8524 7.98756 45.3868C7.35832 45.8771 6.69762 46.3297 5.98657 46.6943C5.47689 46.952 4.94832 47.1846 4.37571 47.2601C3.79052 47.3418 3.21162 47.3481 2.67047 47.04C2.35585 46.864 2.07268 46.6377 1.85874 46.3423C1.48749 45.8394 1.17915 45.2925 0.99038 44.689C0.833069 44.1798 0.650593 43.6769 0.562499 43.1551C0.455528 42.5705 0.354854 41.9796 0.273052 41.3887C0.203836 40.8921 0.159775 40.3892 0.122021 39.8863C0.0905586 39.4902 0.0905609 39.0879 0.0653912 38.6919C0.0213441 37.9627 0.00876772 37.2272 0.0150602 36.498C0.0213526 35.2345 0.00876772 33.9646 0.0150602 32.7011C0.0150602 32.1856 0.0339421 31.6639 0.0591118 31.1484C0.0842815 30.6329 0.128331 30.1174 0.159793 29.602C0.184963 29.1368 0.184954 28.6716 0.210124 28.2064C0.235294 27.7287 0.279349 27.2572 0.317104 26.7794C0.317104 26.7417 0.323383 26.6977 0.323383 26.66C0.342261 26.22 0.348551 25.7862 0.380013 25.3462C0.405183 24.9627 0.455531 24.5793 0.486993 24.2021C0.512163 23.9255 0.524739 23.6426 0.537324 23.366C0.556201 23.0203 0.575076 22.6745 0.593953 22.3288C0.612831 21.9453 0.631712 21.5619 0.656882 21.1721C0.682051 20.7321 0.694639 20.292 0.757563 19.8646C0.814195 19.4685 0.776449 19.0725 0.864543 18.6765C0.914882 18.4564 0.902289 18.2301 0.914874 18.0038C0.940044 17.6204 0.952632 17.2369 0.977802 16.8472C1.00297 16.4637 1.04072 16.0802 1.06589 15.6968C1.09106 15.3133 1.10365 14.9299 1.13511 14.5464C1.16028 14.1629 1.19173 13.7795 1.2232 13.396C1.2232 13.3709 1.2295 13.3457 1.2295 13.3143C1.25467 12.8931 1.27355 12.4656 1.29872 12.0445C1.32389 11.661 1.35534 11.2775 1.38681 10.8941C1.3931 10.8438 1.39938 10.7872 1.39938 10.7369C1.41826 10.2843 1.43086 9.8317 1.45603 9.38538C1.4812 8.92019 1.52525 8.4613 1.55042 7.99612C1.57559 7.46807 1.59447 6.93374 1.61334 6.40569C1.63222 5.79593 1.62591 5.17987 1.67625 4.5701C1.71401 4.15521 1.70143 3.74661 1.7203 3.338C1.7266 3.04883 1.68884 2.75338 1.77693 2.46421C1.8021 2.3762 1.78323 2.28191 1.78323 2.18762C1.78323 1.603 1.78323 1.01209 1.78323 0.427465C1.78323 0.295454 1.79582 0.169729 1.80211 0.0440036C1.86503 0.0188586 1.90279 0 1.94054 0C24.6562 0 47.3719 0 70.0813 0C70.1191 0 70.1568 0.0251469 70.182 0.0314332C70.2009 0.0628645 70.226 0.0880064 70.226 0.106865C70.2386 0.666342 70.2827 1.22582 70.1946 1.77901C70.182 1.8733 70.1883 1.9676 70.1883 2.0556C70.1883 2.40135 70.1946 2.74709 70.1883 3.09284C70.1757 3.7969 70.182 4.50724 70.1317 5.20502C70.1002 5.63248 70.1002 6.05366 70.0813 6.48113C70.0624 6.98403 70.0184 7.48693 69.9869 7.98983C69.9869 8.01497 69.9869 8.04012 69.9869 8.07155C69.968 8.57445 69.9869 9.08364 69.9114 9.58025C69.8548 10.0014 69.8863 10.4289 69.8171 10.8501C69.773 11.1204 69.7793 11.4033 69.7667 11.6861C69.7478 12.0822 69.7289 12.4845 69.7038 12.8805C69.6786 13.2766 69.6472 13.6726 69.6157 14.0686C69.6094 14.1189 69.6094 14.1755 69.6031 14.2258C69.5716 14.7161 69.5339 15.2064 69.5024 15.6968C69.4773 16.0928 69.4647 16.4951 69.4332 16.8912C69.408 17.2495 69.364 17.6015 69.3388 17.9598C69.3199 18.2113 69.3011 18.4627 69.2885 18.7142C69.2633 19.0851 69.2507 19.456 69.2256 19.8268C69.2004 20.1977 69.1689 20.5686 69.1375 20.9395C69.1312 21.0087 69.1249 21.0715 69.1249 21.1407C69.0997 21.631 69.0745 22.1213 69.0116 22.6054C68.9801 22.8694 68.9738 23.1334 68.955 23.3974C68.9361 23.7935 68.9172 24.1958 68.892 24.5918C68.8669 24.9879 68.8354 25.3839 68.8102 25.7862C68.8102 25.8239 68.7976 25.8679 68.7976 25.9057C68.7788 26.3583 68.7599 26.8109 68.7347 27.2572C68.7096 27.6972 68.6718 28.131 68.6403 28.571C68.6403 28.5836 68.6404 28.5962 68.6341 28.6087C68.6089 29.1242 68.59 29.646 68.5648 30.1614C68.5585 30.3312 68.5334 30.5009 68.5145 30.6769C68.5082 30.7461 68.5019 30.8089 68.5019 30.8781C68.483 31.7959 68.4956 32.7137 68.4516 33.6315C68.4075 34.4801 68.3949 35.335 68.4138 36.1837C68.4264 36.9003 68.4705 37.6169 68.4642 38.3399C68.4642 38.6479 68.483 38.9496 68.5082 39.2577C68.5397 39.5971 68.59 39.9429 68.6215 40.2823C68.6592 40.6783 68.6907 41.0744 68.7347 41.4704C68.8102 42.143 68.9109 42.8157 69.0808 43.4694C69.1186 43.614 69.1626 43.7523 69.1878 43.8969C69.3137 44.5444 69.5591 45.1479 69.8422 45.7325C70.1254 46.3171 70.4966 46.8514 71.0252 47.2663C71.4153 47.5681 71.8495 47.7378 72.3214 47.8384C72.7179 47.9264 73.1143 47.9013 73.5044 47.7818C73.668 47.7315 73.8442 47.7064 74.0078 47.6561C74.6559 47.4738 75.2411 47.1595 75.8137 46.82C76.6443 46.336 77.3868 45.7325 78.1356 45.1353C78.8467 44.5695 79.6081 44.0792 80.4575 43.746C80.791 43.6203 81.1434 43.5323 81.5021 43.4883C82.0999 43.4066 82.6913 43.4317 83.2702 43.6329C83.8051 43.8215 84.2896 44.1044 84.6986 44.4878C85.1454 44.909 85.5293 45.3868 85.8565 45.9085C86.3662 46.7132 86.7374 47.5807 87.052 48.467C87.3163 49.2214 87.5114 49.9946 87.6876 50.7741C87.8386 51.4467 87.9644 52.1256 88.0525 52.8108C88.1029 53.232 88.1406 53.6532 88.1847 54.0744C88.2224 54.4138 88.2539 54.7596 88.2916 55.099C88.2979 55.1367 88.2979 55.1807 88.2979 55.2185C88.3168 56.1362 88.3609 57.054 88.3357 57.9718C88.3231 58.4747 88.3042 58.9776 88.2539 59.4805C88.2098 59.9394 88.1784 60.4046 88.1217 60.8698C88.0273 61.7436 87.8952 62.6048 87.7065 63.466C87.5051 64.365 87.2723 65.245 86.9639 66.1125C86.6179 67.0806 86.1774 68.0047 85.5859 68.8533C85.1832 69.4317 84.705 69.9534 84.0946 70.3369C83.566 70.6701 82.9997 70.8649 82.3704 70.9027C81.8356 70.9341 81.307 70.8964 80.7973 70.7329C80.3506 70.5946 79.9164 70.4249 79.5137 70.186C78.8152 69.7711 78.1671 69.2808 77.5378 68.7653C76.638 68.0361 75.6753 67.3886 74.6056 66.9235C74.1525 66.7286 73.6743 66.6154 73.1898 66.5274C72.743 66.4457 72.3214 66.5086 71.8936 66.6343C71.3084 66.804 70.849 67.1623 70.4715 67.6212C70.1317 68.0298 69.8674 68.495 69.6534 68.9854C69.2633 69.8969 69.0368 70.8524 68.8606 71.8205C68.7347 72.5371 68.6592 73.2663 68.5963 73.9955C68.5523 74.5361 68.5019 75.0767 68.4705 75.6173C68.4327 76.1768 68.4768 76.7363 68.4264 77.2895C68.3509 78.113 68.4012 78.9365 68.3824 79.7663C68.3761 79.98 68.4075 80.1875 68.4201 80.4012C68.4264 80.5332 68.4264 80.6652 68.4327 80.8035C68.4516 81.7087 68.4642 82.6139 68.4768 83.5192C68.6152 83.9969 68.4704 84.4998 68.6026 84.9839C68.6089 85.009 68.6089 85.0342 68.6089 85.0656C68.6278 85.5434 68.6341 86.0211 68.6592 86.4989C68.6844 86.9515 68.7222 87.3978 68.7536 87.8504C68.7725 88.1396 68.7851 88.435 68.8039 88.7242C68.8228 89.1328 68.8417 89.5477 68.8669 89.9563C68.8921 90.3523 68.9298 90.7484 68.9613 91.1444C68.9675 91.1947 68.9739 91.2513 68.9739 91.3015C68.9801 91.8044 69.0368 92.3073 69.0871 92.8102C69.1249 93.1811 69.1249 93.552 69.1501 93.9229C69.1752 94.3064 69.213 94.6898 69.2444 95.0733C69.2633 95.3373 69.2822 95.6013 69.2948 95.8716C69.3199 96.2551 69.3325 96.6386 69.3577 97.0283C69.3891 97.3992 69.4332 97.7638 69.4647 98.1347C69.4899 98.3862 69.4961 98.6376 69.5087 98.8891C69.5339 99.2725 69.5528 99.656 69.5779 100.039C69.6031 100.423 69.6346 100.806 69.6597 101.19C69.666 101.259 69.6723 101.322 69.6786 101.391C69.7101 101.906 69.7478 102.422 69.7793 102.944C69.8045 103.371 69.8107 103.792 69.8359 104.22C69.8485 104.446 69.8799 104.666 69.8988 104.892C69.9177 105.119 69.9303 105.345 69.9429 105.565C69.9429 105.603 69.9555 105.647 69.9555 105.685C69.9743 106.175 69.9681 106.671 70.0058 107.162C70.0562 107.797 70.0184 108.438 70.1065 109.073C70.1128 109.11 70.1128 109.155 70.1128 109.192C70.1317 110.003 70.1443 110.814 70.1631 111.625C70.182 112.398 70.2072 113.165 70.2197 113.938C70.2386 114.033 70.2323 114.165 70.226 114.347Z"/>
</mask>
<path d="M70.226 114.347C70.075 114.353 69.9743 114.366 69.8674 114.36C69.6408 114.353 69.4143 114.328 69.1941 114.322C68.7158 114.316 68.2439 114.253 67.7657 114.209C67.1176 114.146 66.4758 114.052 65.8276 113.976C65.4186 113.926 65.0096 113.869 64.6069 113.806C64.0406 113.712 63.4806 113.611 62.9205 113.505C62.134 113.36 61.3537 113.215 60.5672 113.065C59.4975 112.857 58.4277 112.637 57.358 112.436C56.1184 112.203 54.8788 111.958 53.6329 111.757C52.7268 111.612 51.8207 111.493 50.9083 111.411C49.9644 111.323 49.0205 111.298 48.0767 111.355C47.2272 111.405 46.384 111.55 45.5723 111.801C44.8801 112.015 44.232 112.329 43.6657 112.788C43.1875 113.171 42.7847 113.63 42.4701 114.165C41.929 115.089 41.6647 116.095 41.5514 117.151C41.4696 117.936 41.4885 118.722 41.52 119.502C41.564 120.551 41.7465 121.582 41.9415 122.613C42.124 123.556 42.3506 124.48 42.6023 125.404C42.7848 126.096 43.005 126.781 43.1875 127.479C43.4643 128.535 43.7349 129.591 43.867 130.672C43.9299 131.2 44.0306 131.722 44.0747 132.25C44.1376 133.061 44.1943 133.872 44.1376 134.683C44.081 135.462 44.018 136.248 43.867 137.015C43.7852 137.443 43.672 137.87 43.5335 138.291C43.2504 139.178 42.8917 140.039 42.3883 140.831C42.0485 141.372 41.6584 141.881 41.199 142.327C40.381 143.125 39.4372 143.748 38.3486 144.119C37.6941 144.345 37.0209 144.483 36.3224 144.502C35.9889 144.508 35.6617 144.502 35.3282 144.49C35.0891 144.483 34.8563 144.42 34.6235 144.376C33.3083 144.131 32.1757 143.521 31.1626 142.66C30.6781 142.252 30.2817 141.78 29.9041 141.277C29.5203 140.762 29.212 140.202 28.9477 139.618C28.5953 138.838 28.331 138.027 28.1548 137.197C28.0164 136.537 27.9346 135.865 27.8843 135.186C27.8465 134.626 27.815 134.067 27.8402 133.514C27.8717 132.879 27.8842 132.238 27.9849 131.609C28.0478 131.232 28.0667 130.842 28.136 130.465C28.2429 129.861 28.3751 129.264 28.5009 128.667C28.7526 127.498 29.1302 126.36 29.4385 125.203C29.7217 124.135 29.9733 123.06 30.1558 121.972C30.2565 121.381 30.3509 120.797 30.4201 120.199C30.4642 119.829 30.4704 119.458 30.483 119.087C30.4956 118.684 30.4893 118.288 30.483 117.886C30.4704 116.729 30.2376 115.617 29.7468 114.567C29.5518 114.158 29.3001 113.781 29.0043 113.442C28.2178 112.537 27.211 112.002 26.0657 111.707C25.3799 111.531 24.6814 111.443 23.9829 111.355C23.9011 111.342 23.8256 111.348 23.7438 111.348C22.8755 111.342 22.0134 111.348 21.1513 111.411C20.648 111.449 20.1508 111.518 19.6474 111.581C19.1755 111.644 18.7036 111.713 18.2316 111.788C17.3822 111.933 16.5264 112.071 15.6769 112.235C14.4751 112.467 13.2795 112.725 12.0839 112.958C11.0394 113.165 9.99485 113.354 8.95031 113.549C8.35252 113.662 7.74845 113.775 7.14438 113.863C6.43334 113.97 5.7223 114.045 5.01126 114.14C4.68405 114.184 4.35684 114.234 4.02964 114.265C3.74018 114.297 3.44443 114.309 3.15498 114.322C2.78373 114.334 2.41248 114.303 2.04122 114.366C1.9783 114.378 1.90908 114.353 1.85874 114.353C1.75177 114.259 1.77693 114.146 1.77693 114.045C1.77693 113.461 1.77695 112.87 1.77065 112.285C1.77065 112.115 1.73919 111.946 1.7266 111.77C1.72031 111.7 1.71401 111.638 1.71401 111.568C1.71401 111.499 1.71401 111.436 1.71401 111.367C1.69513 110.487 1.70144 109.613 1.6511 108.733C1.62593 108.318 1.63221 107.91 1.60075 107.501C1.55041 106.81 1.51266 106.125 1.49379 105.433C1.4812 105.012 1.43085 104.584 1.39938 104.163C1.38051 103.874 1.36794 103.579 1.35535 103.289C1.33018 102.868 1.31129 102.441 1.28613 102.02C1.26096 101.661 1.23579 101.303 1.21062 100.951C1.18545 100.58 1.154 100.209 1.12253 99.8383C1.09107 99.3605 1.05332 98.8828 1.02185 98.4113C0.996684 98.053 0.984101 97.6947 0.965224 97.3364C0.940054 96.978 0.914868 96.6197 0.889699 96.2614C0.858236 95.8654 0.833077 95.4693 0.801615 95.0733C0.770152 94.7024 0.738694 94.3315 0.707232 93.9669C0.682062 93.7029 0.656882 93.4389 0.638005 93.1749C0.612835 92.7914 0.600247 92.4079 0.575077 92.0182C0.5562 91.6599 0.531045 91.3015 0.512168 90.9432C0.480706 90.4655 0.455527 89.9877 0.424065 89.51C0.398895 89.1265 0.361138 88.743 0.323383 88.3596C0.323383 88.3344 0.317104 88.3093 0.317104 88.2779C0.298227 87.8252 0.279346 87.3789 0.254176 86.9263C0.229006 86.4611 0.197535 86.0022 0.166072 85.5371C0.166072 85.5119 0.159793 85.4868 0.159793 85.4553C0.140916 84.9399 0.115729 84.4181 0.103144 83.9026C0.084267 83.2929 0.0968541 82.6768 0.0465147 82.067C0.00876004 81.6019 0.00876158 81.1367 0.00876158 80.6715C0.00246914 79.4205 -0.0101096 78.1696 0.0150602 76.9123C0.027645 76.0071 0.0653943 75.1082 0.147196 74.2029C0.21012 73.5429 0.266756 72.8828 0.367435 72.2291C0.537331 71.1353 0.782726 70.0603 1.2232 69.0419C1.48119 68.451 1.82728 67.9167 2.33067 67.5018C2.79002 67.1246 3.31859 66.9863 3.8912 67.0177C4.38201 67.0429 4.87282 67.1372 5.32588 67.3321C5.65308 67.4704 5.9803 67.6275 6.29492 67.8098C6.9745 68.2059 7.61631 68.6522 8.22668 69.1488C8.8748 69.6768 9.52293 70.2049 10.2654 70.6135C10.9702 71.0032 11.7064 71.2924 12.5055 71.4118C12.7006 71.4433 12.902 71.4621 13.097 71.4747C13.1788 71.481 13.2606 71.481 13.3361 71.4684C14.3115 71.3113 15.205 70.9844 15.9538 70.3055C16.6648 69.6643 17.2123 68.9036 17.6653 68.0676C18.1687 67.1372 18.5274 66.1502 18.8294 65.1444C19.1629 64.0192 19.3832 62.8751 19.5594 61.7184C19.66 61.0772 19.7104 60.4298 19.7733 59.7823C19.8992 58.5062 19.8614 57.2301 19.8614 55.9539C19.8614 55.4888 19.7922 55.0299 19.767 54.5647C19.7418 54.0366 19.6915 53.5086 19.6097 52.9806C19.5216 52.4462 19.4335 51.9056 19.3517 51.3713C19.2322 50.6232 19.0434 49.8877 18.8294 49.1585C18.584 48.3287 18.2883 47.5178 17.9107 46.7383C17.6024 46.1034 17.25 45.4936 16.8158 44.9404C16.3943 44.4061 15.9223 43.9283 15.3308 43.5637C14.3052 42.9351 13.2166 42.7214 12.0462 43.0106C11.354 43.1803 10.7185 43.482 10.1081 43.834C9.34045 44.2741 8.67973 44.8524 7.98756 45.3868C7.35832 45.8771 6.69762 46.3297 5.98657 46.6943C5.47689 46.952 4.94832 47.1846 4.37571 47.2601C3.79052 47.3418 3.21162 47.3481 2.67047 47.04C2.35585 46.864 2.07268 46.6377 1.85874 46.3423C1.48749 45.8394 1.17915 45.2925 0.99038 44.689C0.833069 44.1798 0.650593 43.6769 0.562499 43.1551C0.455528 42.5705 0.354854 41.9796 0.273052 41.3887C0.203836 40.8921 0.159775 40.3892 0.122021 39.8863C0.0905586 39.4902 0.0905609 39.0879 0.0653912 38.6919C0.0213441 37.9627 0.00876772 37.2272 0.0150602 36.498C0.0213526 35.2345 0.00876772 33.9646 0.0150602 32.7011C0.0150602 32.1856 0.0339421 31.6639 0.0591118 31.1484C0.0842815 30.6329 0.128331 30.1174 0.159793 29.602C0.184963 29.1368 0.184954 28.6716 0.210124 28.2064C0.235294 27.7287 0.279349 27.2572 0.317104 26.7794C0.317104 26.7417 0.323383 26.6977 0.323383 26.66C0.342261 26.22 0.348551 25.7862 0.380013 25.3462C0.405183 24.9627 0.455531 24.5793 0.486993 24.2021C0.512163 23.9255 0.524739 23.6426 0.537324 23.366C0.556201 23.0203 0.575076 22.6745 0.593953 22.3288C0.612831 21.9453 0.631712 21.5619 0.656882 21.1721C0.682051 20.7321 0.694639 20.292 0.757563 19.8646C0.814195 19.4685 0.776449 19.0725 0.864543 18.6765C0.914882 18.4564 0.902289 18.2301 0.914874 18.0038C0.940044 17.6204 0.952632 17.2369 0.977802 16.8472C1.00297 16.4637 1.04072 16.0802 1.06589 15.6968C1.09106 15.3133 1.10365 14.9299 1.13511 14.5464C1.16028 14.1629 1.19173 13.7795 1.2232 13.396C1.2232 13.3709 1.2295 13.3457 1.2295 13.3143C1.25467 12.8931 1.27355 12.4656 1.29872 12.0445C1.32389 11.661 1.35534 11.2775 1.38681 10.8941C1.3931 10.8438 1.39938 10.7872 1.39938 10.7369C1.41826 10.2843 1.43086 9.8317 1.45603 9.38538C1.4812 8.92019 1.52525 8.4613 1.55042 7.99612C1.57559 7.46807 1.59447 6.93374 1.61334 6.40569C1.63222 5.79593 1.62591 5.17987 1.67625 4.5701C1.71401 4.15521 1.70143 3.74661 1.7203 3.338C1.7266 3.04883 1.68884 2.75338 1.77693 2.46421C1.8021 2.3762 1.78323 2.28191 1.78323 2.18762C1.78323 1.603 1.78323 1.01209 1.78323 0.427465C1.78323 0.295454 1.79582 0.169729 1.80211 0.0440036C1.86503 0.0188586 1.90279 0 1.94054 0C24.6562 0 47.3719 0 70.0813 0C70.1191 0 70.1568 0.0251469 70.182 0.0314332C70.2009 0.0628645 70.226 0.0880064 70.226 0.106865C70.2386 0.666342 70.2827 1.22582 70.1946 1.77901C70.182 1.8733 70.1883 1.9676 70.1883 2.0556C70.1883 2.40135 70.1946 2.74709 70.1883 3.09284C70.1757 3.7969 70.182 4.50724 70.1317 5.20502C70.1002 5.63248 70.1002 6.05366 70.0813 6.48113C70.0624 6.98403 70.0184 7.48693 69.9869 7.98983C69.9869 8.01497 69.9869 8.04012 69.9869 8.07155C69.968 8.57445 69.9869 9.08364 69.9114 9.58025C69.8548 10.0014 69.8863 10.4289 69.8171 10.8501C69.773 11.1204 69.7793 11.4033 69.7667 11.6861C69.7478 12.0822 69.7289 12.4845 69.7038 12.8805C69.6786 13.2766 69.6472 13.6726 69.6157 14.0686C69.6094 14.1189 69.6094 14.1755 69.6031 14.2258C69.5716 14.7161 69.5339 15.2064 69.5024 15.6968C69.4773 16.0928 69.4647 16.4951 69.4332 16.8912C69.408 17.2495 69.364 17.6015 69.3388 17.9598C69.3199 18.2113 69.3011 18.4627 69.2885 18.7142C69.2633 19.0851 69.2507 19.456 69.2256 19.8268C69.2004 20.1977 69.1689 20.5686 69.1375 20.9395C69.1312 21.0087 69.1249 21.0715 69.1249 21.1407C69.0997 21.631 69.0745 22.1213 69.0116 22.6054C68.9801 22.8694 68.9738 23.1334 68.955 23.3974C68.9361 23.7935 68.9172 24.1958 68.892 24.5918C68.8669 24.9879 68.8354 25.3839 68.8102 25.7862C68.8102 25.8239 68.7976 25.8679 68.7976 25.9057C68.7788 26.3583 68.7599 26.8109 68.7347 27.2572C68.7096 27.6972 68.6718 28.131 68.6403 28.571C68.6403 28.5836 68.6404 28.5962 68.6341 28.6087C68.6089 29.1242 68.59 29.646 68.5648 30.1614C68.5585 30.3312 68.5334 30.5009 68.5145 30.6769C68.5082 30.7461 68.5019 30.8089 68.5019 30.8781C68.483 31.7959 68.4956 32.7137 68.4516 33.6315C68.4075 34.4801 68.3949 35.335 68.4138 36.1837C68.4264 36.9003 68.4705 37.6169 68.4642 38.3399C68.4642 38.6479 68.483 38.9496 68.5082 39.2577C68.5397 39.5971 68.59 39.9429 68.6215 40.2823C68.6592 40.6783 68.6907 41.0744 68.7347 41.4704C68.8102 42.143 68.9109 42.8157 69.0808 43.4694C69.1186 43.614 69.1626 43.7523 69.1878 43.8969C69.3137 44.5444 69.5591 45.1479 69.8422 45.7325C70.1254 46.3171 70.4966 46.8514 71.0252 47.2663C71.4153 47.5681 71.8495 47.7378 72.3214 47.8384C72.7179 47.9264 73.1143 47.9013 73.5044 47.7818C73.668 47.7315 73.8442 47.7064 74.0078 47.6561C74.6559 47.4738 75.2411 47.1595 75.8137 46.82C76.6443 46.336 77.3868 45.7325 78.1356 45.1353C78.8467 44.5695 79.6081 44.0792 80.4575 43.746C80.791 43.6203 81.1434 43.5323 81.5021 43.4883C82.0999 43.4066 82.6913 43.4317 83.2702 43.6329C83.8051 43.8215 84.2896 44.1044 84.6986 44.4878C85.1454 44.909 85.5293 45.3868 85.8565 45.9085C86.3662 46.7132 86.7374 47.5807 87.052 48.467C87.3163 49.2214 87.5114 49.9946 87.6876 50.7741C87.8386 51.4467 87.9644 52.1256 88.0525 52.8108C88.1029 53.232 88.1406 53.6532 88.1847 54.0744C88.2224 54.4138 88.2539 54.7596 88.2916 55.099C88.2979 55.1367 88.2979 55.1807 88.2979 55.2185C88.3168 56.1362 88.3609 57.054 88.3357 57.9718C88.3231 58.4747 88.3042 58.9776 88.2539 59.4805C88.2098 59.9394 88.1784 60.4046 88.1217 60.8698C88.0273 61.7436 87.8952 62.6048 87.7065 63.466C87.5051 64.365 87.2723 65.245 86.9639 66.1125C86.6179 67.0806 86.1774 68.0047 85.5859 68.8533C85.1832 69.4317 84.705 69.9534 84.0946 70.3369C83.566 70.6701 82.9997 70.8649 82.3704 70.9027C81.8356 70.9341 81.307 70.8964 80.7973 70.7329C80.3506 70.5946 79.9164 70.4249 79.5137 70.186C78.8152 69.7711 78.1671 69.2808 77.5378 68.7653C76.638 68.0361 75.6753 67.3886 74.6056 66.9235C74.1525 66.7286 73.6743 66.6154 73.1898 66.5274C72.743 66.4457 72.3214 66.5086 71.8936 66.6343C71.3084 66.804 70.849 67.1623 70.4715 67.6212C70.1317 68.0298 69.8674 68.495 69.6534 68.9854C69.2633 69.8969 69.0368 70.8524 68.8606 71.8205C68.7347 72.5371 68.6592 73.2663 68.5963 73.9955C68.5523 74.5361 68.5019 75.0767 68.4705 75.6173C68.4327 76.1768 68.4768 76.7363 68.4264 77.2895C68.3509 78.113 68.4012 78.9365 68.3824 79.7663C68.3761 79.98 68.4075 80.1875 68.4201 80.4012C68.4264 80.5332 68.4264 80.6652 68.4327 80.8035C68.4516 81.7087 68.4642 82.6139 68.4768 83.5192C68.6152 83.9969 68.4704 84.4998 68.6026 84.9839C68.6089 85.009 68.6089 85.0342 68.6089 85.0656C68.6278 85.5434 68.6341 86.0211 68.6592 86.4989C68.6844 86.9515 68.7222 87.3978 68.7536 87.8504C68.7725 88.1396 68.7851 88.435 68.8039 88.7242C68.8228 89.1328 68.8417 89.5477 68.8669 89.9563C68.8921 90.3523 68.9298 90.7484 68.9613 91.1444C68.9675 91.1947 68.9739 91.2513 68.9739 91.3015C68.9801 91.8044 69.0368 92.3073 69.0871 92.8102C69.1249 93.1811 69.1249 93.552 69.1501 93.9229C69.1752 94.3064 69.213 94.6898 69.2444 95.0733C69.2633 95.3373 69.2822 95.6013 69.2948 95.8716C69.3199 96.2551 69.3325 96.6386 69.3577 97.0283C69.3891 97.3992 69.4332 97.7638 69.4647 98.1347C69.4899 98.3862 69.4961 98.6376 69.5087 98.8891C69.5339 99.2725 69.5528 99.656 69.5779 100.039C69.6031 100.423 69.6346 100.806 69.6597 101.19C69.666 101.259 69.6723 101.322 69.6786 101.391C69.7101 101.906 69.7478 102.422 69.7793 102.944C69.8045 103.371 69.8107 103.792 69.8359 104.22C69.8485 104.446 69.8799 104.666 69.8988 104.892C69.9177 105.119 69.9303 105.345 69.9429 105.565C69.9429 105.603 69.9555 105.647 69.9555 105.685C69.9743 106.175 69.9681 106.671 70.0058 107.162C70.0562 107.797 70.0184 108.438 70.1065 109.073C70.1128 109.11 70.1128 109.155 70.1128 109.192C70.1317 110.003 70.1443 110.814 70.1631 111.625C70.182 112.398 70.2072 113.165 70.2197 113.938C70.2386 114.033 70.2323 114.165 70.226 114.347Z" fill="#E65325" stroke="#FFFEF6" stroke-width="2" mask="url(#path-1-inside-1_2802_22183)"/>
</svg>
