<svg width="105" height="118" viewBox="0 0 105 118" fill="none" xmlns="http://www.w3.org/2000/svg">
<mask id="path-1-inside-1_2802_22181" fill="white">
<path d="M86.6963 114.491C86.6019 114.503 86.5327 114.522 86.4635 114.522C85.7652 114.491 85.0669 114.572 84.3749 114.635C83.4249 114.723 82.4749 114.868 81.525 114.993C80.229 115.163 78.9457 115.433 77.6623 115.666C76.2908 115.911 74.9256 116.219 73.5542 116.477C72.1827 116.734 70.8113 116.979 69.4335 117.199C68.7289 117.312 68.018 117.331 67.3134 117.432C66.8479 117.501 66.3887 117.482 65.9231 117.501C65.747 117.507 65.5771 117.551 65.4009 117.551C64.948 117.558 64.5013 117.514 64.0609 117.444C63.8722 117.413 63.6835 117.4 63.501 117.382C62.8594 117.312 62.2365 117.162 61.6452 116.904C60.4939 116.401 59.6257 115.603 59.1099 114.44C58.8268 113.799 58.6695 113.12 58.5751 112.429C58.4682 111.662 58.4682 110.889 58.5059 110.123C58.5562 109.136 58.7009 108.162 58.8771 107.187C59.1539 105.641 59.5754 104.127 60.0158 102.618C60.3807 101.374 60.67 100.117 60.8777 98.8348C61.0035 98.0869 61.0916 97.339 61.123 96.5848C61.1545 95.7741 61.1671 94.9571 61.1041 94.14C61.0286 93.1533 60.8588 92.1791 60.5946 91.2238C60.3429 90.3062 59.9717 89.4452 59.4999 88.6156C59.1979 88.0814 58.8331 87.5911 58.4493 87.1198C58.1662 86.7741 57.8202 86.4724 57.4805 86.1833C56.6752 85.492 55.7693 84.9829 54.7564 84.6561C53.8316 84.3544 52.8817 84.2413 51.9129 84.3104C51.051 84.3733 50.2269 84.5807 49.4279 84.9326C48.3458 85.404 47.4022 86.0828 46.6095 86.9501C46.0055 87.6037 45.5085 88.3453 45.1122 89.1435C44.7222 89.9291 44.4076 90.7399 44.2126 91.5946C44.0679 92.2168 43.9547 92.8453 43.8666 93.4801C43.7219 94.4982 43.7659 95.5101 43.7722 96.5283C43.7785 97.2385 43.9106 97.9424 44.005 98.6463C44.2189 100.268 44.6655 101.833 45.1185 103.398C45.389 104.347 45.6407 105.302 45.8483 106.27C46.0622 107.275 46.232 108.294 46.3452 109.318C46.427 110.097 46.4396 110.889 46.4019 111.669C46.3578 112.599 46.1943 113.516 45.8168 114.377C45.2883 115.578 44.4202 116.426 43.1934 116.917C42.4825 117.199 41.7465 117.35 40.9915 117.413C40.6455 117.444 40.2995 117.501 39.9535 117.532C39.7522 117.551 39.5446 117.539 39.3433 117.532C39.142 117.526 38.9407 117.482 38.733 117.488C38.148 117.507 37.5755 117.426 36.9967 117.363C36.4179 117.3 35.8391 117.25 35.2667 117.155C34.1468 116.973 33.0333 116.778 31.9198 116.571C30.6301 116.332 29.353 116.068 28.0634 115.823C26.7485 115.572 25.44 115.32 24.1189 115.088C23.3199 114.949 22.5146 114.824 21.7094 114.723C21.074 114.648 20.4323 114.629 19.7969 114.56C19.3439 114.509 18.8973 114.522 18.4443 114.509C18.3751 114.509 18.3059 114.491 18.2115 114.484C18.199 114.39 18.1675 114.308 18.1738 114.227C18.1864 113.686 18.1486 113.152 18.2115 112.611C18.2556 112.241 18.2178 111.857 18.2241 111.474C18.2367 110.72 18.2304 109.959 18.2744 109.205C18.3185 108.451 18.3373 107.697 18.3751 106.942C18.394 106.452 18.4506 105.962 18.4883 105.465C18.5135 105.132 18.5261 104.799 18.545 104.466C18.5638 104.045 18.5827 103.624 18.6016 103.203C18.6205 102.838 18.6456 102.48 18.6645 102.116C18.6959 101.65 18.7211 101.185 18.7589 100.727C18.7903 100.324 18.8281 99.9158 18.8532 99.5136C18.8784 99.1491 18.8973 98.7908 18.9224 98.4263C18.9476 98.0492 18.9853 97.6721 19.0168 97.3013C19.042 97.0122 19.0671 96.7231 19.0797 96.434C19.1174 95.8118 19.1489 95.1896 19.1867 94.5611C19.2307 93.9075 19.2873 93.2601 19.3376 92.6065C19.3628 92.2294 19.3754 91.8523 19.4005 91.4752C19.4194 91.1295 19.4446 90.7776 19.4698 90.4319C19.5012 89.9668 19.5264 89.5018 19.5578 89.043C19.5893 88.6093 19.6207 88.1756 19.6459 87.742C19.6711 87.3209 19.6899 86.8998 19.7214 86.4787C19.7591 85.9256 19.734 85.3726 19.8221 84.8258C19.8221 84.8132 19.8221 84.7944 19.8221 84.7818C19.8409 84.2161 19.8724 83.6505 19.885 83.0849C19.9038 82.2553 19.8787 81.4257 19.9416 80.596C19.9982 79.7979 19.9856 78.9934 19.9793 78.1952C19.973 77.397 19.9227 76.5988 19.8912 75.8007C19.8724 75.367 19.8598 74.9271 19.8221 74.4997C19.6837 73.0102 19.5201 71.5206 19.086 70.0814C18.8343 69.2581 18.5009 68.4725 17.9725 67.7811C17.4252 67.0709 16.7143 66.675 15.8398 66.5556C15.3994 66.499 14.9716 66.6184 14.5501 66.7315C13.4869 67.0081 12.5684 67.5674 11.6877 68.1959C11.2033 68.5416 10.7503 68.9375 10.2722 69.2895C9.81293 69.6226 9.35998 69.9683 8.86928 70.2511C8.09547 70.7036 7.25875 70.9927 6.34655 71.0116C5.43434 71.0241 4.64166 70.7099 3.92448 70.1631C3.35828 69.7357 2.93049 69.1889 2.55303 68.5919C1.94908 67.6366 1.50871 66.6121 1.18157 65.5374C0.766362 64.1736 0.445508 62.7846 0.288231 61.3642C0.22532 60.8049 0.16241 60.2392 0.112082 59.6799C0.0806263 59.3028 0.105793 58.9194 0.0554642 58.5486C-0.0137377 58.0081 -0.00114706 57.4739 0.00514402 56.9334C0.0177262 56.2672 0.0428859 55.601 0.118379 54.9348C0.143543 54.6897 0.156123 54.4446 0.174996 54.1994C0.263072 52.9927 0.458092 51.8049 0.722318 50.6296C0.96767 49.536 1.28222 48.4613 1.74147 47.4369C2.19443 46.4187 2.73547 45.4571 3.53443 44.6715C4.01885 44.2002 4.56617 43.8168 5.22674 43.6345C5.62936 43.5214 6.05087 43.4711 6.47238 43.5151C6.76177 43.5465 7.05115 43.5717 7.33425 43.6282C8.10176 43.7979 8.78121 44.1562 9.4229 44.5961C9.90102 44.9229 10.354 45.2937 10.8132 45.6457C11.5304 46.1988 12.2539 46.7267 13.0528 47.1541C13.6631 47.4746 14.2922 47.726 14.9716 47.858C15.3176 47.9271 15.6574 47.9523 16.0097 47.8957C16.7646 47.77 17.3685 47.4117 17.8592 46.8398C18.2744 46.3559 18.5512 45.7965 18.784 45.2183C19.2621 44.0493 19.4886 42.8238 19.6459 41.5794C19.7088 41.0891 19.7654 40.5989 19.8095 40.1087C19.8472 39.7065 19.8661 39.2979 19.8787 38.8894C19.8975 38.2672 19.8787 37.6387 19.9353 37.0165C19.9982 36.344 19.9793 35.6778 19.9793 35.0116C19.9793 34.0815 19.9479 33.1513 19.929 32.2211C19.9164 31.8 19.9101 31.379 19.885 30.9579C19.8535 30.4488 19.8095 29.946 19.7717 29.4432C19.7654 29.3866 19.7654 29.3301 19.7654 29.2672C19.7465 28.7896 19.7403 28.3056 19.7151 27.828C19.6899 27.3943 19.6459 26.9607 19.6144 26.527C19.5893 26.2253 19.5767 25.9174 19.5578 25.6157C19.5201 24.9369 19.4949 24.2519 19.4509 23.5731C19.4257 23.1834 19.3817 22.7938 19.3502 22.4041C19.3251 22.1276 19.3062 21.851 19.2936 21.5808C19.2558 20.9586 19.2181 20.3364 19.1804 19.7142C19.1552 19.3371 19.1174 18.96 19.086 18.5892C19.0671 18.3315 19.0483 18.0675 19.0357 17.8098C18.9979 17.1876 18.9665 16.5654 18.9161 15.9432C18.8847 15.541 18.8406 15.1388 18.8029 14.7302C18.7777 14.4726 18.7651 14.2086 18.7526 13.9509C18.7337 13.5612 18.7211 13.1653 18.6959 12.7756C18.6708 12.3671 18.633 11.9649 18.6079 11.5626C18.5827 11.217 18.5575 10.865 18.545 10.5194C18.5261 10.0857 18.5198 9.64576 18.4946 9.2121C18.4632 8.73445 18.4191 8.25679 18.3814 7.78542C18.3814 7.754 18.3751 7.72886 18.3751 7.69743C18.3562 7.21978 18.3436 6.73584 18.3248 6.25819C18.2933 5.46001 18.2493 4.66183 18.2241 3.86364C18.2115 3.49912 18.2178 3.1346 18.2115 2.77007C18.199 2.01588 18.1801 1.26169 18.1675 0.50122C18.1675 0.356668 18.1423 0.212115 18.2115 0.0549928C18.2682 0.042423 18.3374 0.0172836 18.4066 0.0109987C18.5387 0.00471377 18.6708 0.00471243 18.8029 0.00471243C21.9358 0.00471243 25.0688 0.00471243 28.2018 0.00471243C31.2152 0.00471243 34.2349 0.0109987 37.2483 0.0109987C53.5234 0.0109987 69.7984 0.0109987 86.0734 0.0109987C86.2748 0.0109987 86.4824 -0.0329958 86.6711 0.0549928C86.7403 0.205831 86.7151 0.350381 86.7151 0.494934C86.7026 1.16113 86.6774 1.83362 86.6648 2.49982C86.6459 3.39856 86.6585 4.30359 86.6082 5.20233C86.5641 6.01308 86.5453 6.83012 86.5075 7.64087C86.4761 8.40763 86.4069 9.17439 86.3565 9.94115C86.3251 10.4062 86.3125 10.865 86.2811 11.3301C86.2559 11.7072 86.2244 12.0843 86.193 12.4614C86.1678 12.7945 86.1426 13.1276 86.1238 13.4607C86.1049 13.8378 86.0923 14.2149 86.0734 14.592C86.0609 14.8811 86.0357 15.1702 86.0168 15.4593C85.9854 15.9684 85.9539 16.4712 85.9162 16.9802C85.8658 17.5899 85.8029 18.1932 85.7526 18.7966C85.7086 19.4188 85.6834 20.041 85.6394 20.6632C85.5953 21.3168 85.5324 21.9642 85.4884 22.6178C85.4569 23.0075 85.4443 23.3971 85.4192 23.7931C85.394 24.1953 85.35 24.6038 85.3185 25.0061C85.2934 25.3706 85.2808 25.7288 85.2556 26.0934C85.243 26.3259 85.2242 26.5584 85.2116 26.791C85.1864 27.2561 85.1738 27.7211 85.1487 28.1862C85.1235 28.6639 85.0857 29.1415 85.048 29.6192C85.048 29.6506 85.0417 29.6757 85.0417 29.7072C85.0228 30.3168 85.0228 30.9264 84.9788 31.5361C84.9222 32.3217 84.9725 33.1073 84.9159 33.8866C84.853 34.7477 84.853 35.6024 84.8781 36.4572C84.897 37.0982 84.897 37.7393 84.9285 38.3741C84.9788 39.2979 85.048 40.2281 85.1487 41.152C85.2682 42.2644 85.4569 43.3706 85.784 44.439C86.0357 45.2623 86.3628 46.0542 86.9039 46.7393C87.4197 47.3992 88.074 47.8077 88.9233 47.9083C89.2505 47.946 89.5587 47.9334 89.8733 47.8705C90.7729 47.7009 91.5781 47.3112 92.3582 46.8398C93.2327 46.3119 94.0128 45.652 94.8243 45.0361C95.4157 44.5898 96.0322 44.1813 96.7305 43.8985C97.2338 43.6911 97.7434 43.5465 98.2907 43.5151C98.7185 43.49 99.1337 43.5088 99.5427 43.6094C100.197 43.7728 100.751 44.1122 101.235 44.5647C101.851 45.1492 102.323 45.8468 102.726 46.5947C103.336 47.7323 103.733 48.9453 104.047 50.1897C104.33 51.3021 104.513 52.4334 104.651 53.5772C104.739 54.3251 104.802 55.0793 104.802 55.8335C104.802 56.506 104.827 57.1722 104.821 57.8447C104.815 58.7434 104.802 59.6485 104.701 60.5472C104.531 62.1059 104.267 63.6582 103.821 65.1666C103.449 66.411 102.965 67.6114 102.248 68.705C101.851 69.3084 101.392 69.8363 100.807 70.2699C100.09 70.8042 99.2847 71.0367 98.3977 70.9927C97.454 70.955 96.6173 70.6156 95.8183 70.138C95.0823 69.6917 94.428 69.1387 93.7486 68.6107C92.9181 67.9634 92.0374 67.3977 91.0686 66.9829C90.5275 66.7504 89.9613 66.5996 89.3825 66.5619C88.7409 66.5241 88.1495 66.7253 87.6211 67.0898C87.1618 67.4103 86.8158 67.844 86.5264 68.3216C86.0357 69.145 85.7589 70.0437 85.545 70.9676C85.3374 71.86 85.1927 72.765 85.1235 73.6764C85.0732 74.3237 85.048 74.9773 84.9788 75.6247C84.9159 76.2217 84.9725 76.8188 84.9159 77.4096C84.8404 78.2392 84.8467 79.0688 84.8781 79.8921C84.9033 80.6903 84.8907 81.4948 84.9348 82.2867C84.9599 82.7203 84.9662 83.1603 84.9851 83.5939C85.0103 84.103 85.0606 84.6058 85.092 85.1149C85.1109 85.448 85.1235 85.7811 85.1361 86.1142C85.1549 86.6107 85.1738 87.1009 85.199 87.5974C85.2179 87.9745 85.2556 88.3516 85.2808 88.7287C85.2871 88.8041 85.2871 88.8733 85.2933 88.9487C85.3311 89.4703 85.3688 89.992 85.4003 90.5136C85.4255 90.9221 85.4443 91.3244 85.4695 91.7329C85.4884 92.0094 85.5135 92.2797 85.5324 92.5562C85.5827 93.3418 85.6268 94.1212 85.6771 94.9068C85.7274 95.6421 85.7778 96.3837 85.8407 97.1191C85.891 97.7538 85.9539 98.3886 85.998 99.0234C86.042 99.677 86.0672 100.331 86.1049 100.978C86.1301 101.355 86.1615 101.732 86.1867 102.109C86.2119 102.53 86.237 102.951 86.2685 103.373C86.2936 103.75 86.3125 104.127 86.3377 104.498C86.3691 104.919 86.4069 105.333 86.432 105.755C86.4572 106.289 86.4509 106.829 86.5012 107.363C86.5579 107.973 86.4824 108.583 86.5893 109.192C86.5956 109.236 86.5956 109.28 86.5956 109.324C86.6082 110.255 86.6208 111.185 86.6396 112.115C86.6522 112.768 86.6774 113.422 86.69 114.076C86.7214 114.214 86.7026 114.346 86.6963 114.491Z"/>
</mask>
<path d="M86.6963 114.491C86.6019 114.503 86.5327 114.522 86.4635 114.522C85.7652 114.491 85.0669 114.572 84.3749 114.635C83.4249 114.723 82.4749 114.868 81.525 114.993C80.229 115.163 78.9457 115.433 77.6623 115.666C76.2908 115.911 74.9256 116.219 73.5542 116.477C72.1827 116.734 70.8113 116.979 69.4335 117.199C68.7289 117.312 68.018 117.331 67.3134 117.432C66.8479 117.501 66.3887 117.482 65.9231 117.501C65.747 117.507 65.5771 117.551 65.4009 117.551C64.948 117.558 64.5013 117.514 64.0609 117.444C63.8722 117.413 63.6835 117.4 63.501 117.382C62.8594 117.312 62.2365 117.162 61.6452 116.904C60.4939 116.401 59.6257 115.603 59.1099 114.44C58.8268 113.799 58.6695 113.12 58.5751 112.429C58.4682 111.662 58.4682 110.889 58.5059 110.123C58.5562 109.136 58.7009 108.162 58.8771 107.187C59.1539 105.641 59.5754 104.127 60.0158 102.618C60.3807 101.374 60.67 100.117 60.8777 98.8348C61.0035 98.0869 61.0916 97.339 61.123 96.5848C61.1545 95.7741 61.1671 94.9571 61.1041 94.14C61.0286 93.1533 60.8588 92.1791 60.5946 91.2238C60.3429 90.3062 59.9717 89.4452 59.4999 88.6156C59.1979 88.0814 58.8331 87.5911 58.4493 87.1198C58.1662 86.7741 57.8202 86.4724 57.4805 86.1833C56.6752 85.492 55.7693 84.9829 54.7564 84.6561C53.8316 84.3544 52.8817 84.2413 51.9129 84.3104C51.051 84.3733 50.2269 84.5807 49.4279 84.9326C48.3458 85.404 47.4022 86.0828 46.6095 86.9501C46.0055 87.6037 45.5085 88.3453 45.1122 89.1435C44.7222 89.9291 44.4076 90.7399 44.2126 91.5946C44.0679 92.2168 43.9547 92.8453 43.8666 93.4801C43.7219 94.4982 43.7659 95.5101 43.7722 96.5283C43.7785 97.2385 43.9106 97.9424 44.005 98.6463C44.2189 100.268 44.6655 101.833 45.1185 103.398C45.389 104.347 45.6407 105.302 45.8483 106.27C46.0622 107.275 46.232 108.294 46.3452 109.318C46.427 110.097 46.4396 110.889 46.4019 111.669C46.3578 112.599 46.1943 113.516 45.8168 114.377C45.2883 115.578 44.4202 116.426 43.1934 116.917C42.4825 117.199 41.7465 117.35 40.9915 117.413C40.6455 117.444 40.2995 117.501 39.9535 117.532C39.7522 117.551 39.5446 117.539 39.3433 117.532C39.142 117.526 38.9407 117.482 38.733 117.488C38.148 117.507 37.5755 117.426 36.9967 117.363C36.4179 117.3 35.8391 117.25 35.2667 117.155C34.1468 116.973 33.0333 116.778 31.9198 116.571C30.6301 116.332 29.353 116.068 28.0634 115.823C26.7485 115.572 25.44 115.32 24.1189 115.088C23.3199 114.949 22.5146 114.824 21.7094 114.723C21.074 114.648 20.4323 114.629 19.7969 114.56C19.3439 114.509 18.8973 114.522 18.4443 114.509C18.3751 114.509 18.3059 114.491 18.2115 114.484C18.199 114.39 18.1675 114.308 18.1738 114.227C18.1864 113.686 18.1486 113.152 18.2115 112.611C18.2556 112.241 18.2178 111.857 18.2241 111.474C18.2367 110.72 18.2304 109.959 18.2744 109.205C18.3185 108.451 18.3373 107.697 18.3751 106.942C18.394 106.452 18.4506 105.962 18.4883 105.465C18.5135 105.132 18.5261 104.799 18.545 104.466C18.5638 104.045 18.5827 103.624 18.6016 103.203C18.6205 102.838 18.6456 102.48 18.6645 102.116C18.6959 101.65 18.7211 101.185 18.7589 100.727C18.7903 100.324 18.8281 99.9158 18.8532 99.5136C18.8784 99.1491 18.8973 98.7908 18.9224 98.4263C18.9476 98.0492 18.9853 97.6721 19.0168 97.3013C19.042 97.0122 19.0671 96.7231 19.0797 96.434C19.1174 95.8118 19.1489 95.1896 19.1867 94.5611C19.2307 93.9075 19.2873 93.2601 19.3376 92.6065C19.3628 92.2294 19.3754 91.8523 19.4005 91.4752C19.4194 91.1295 19.4446 90.7776 19.4698 90.4319C19.5012 89.9668 19.5264 89.5018 19.5578 89.043C19.5893 88.6093 19.6207 88.1756 19.6459 87.742C19.6711 87.3209 19.6899 86.8998 19.7214 86.4787C19.7591 85.9256 19.734 85.3726 19.8221 84.8258C19.8221 84.8132 19.8221 84.7944 19.8221 84.7818C19.8409 84.2161 19.8724 83.6505 19.885 83.0849C19.9038 82.2553 19.8787 81.4257 19.9416 80.596C19.9982 79.7979 19.9856 78.9934 19.9793 78.1952C19.973 77.397 19.9227 76.5988 19.8912 75.8007C19.8724 75.367 19.8598 74.9271 19.8221 74.4997C19.6837 73.0102 19.5201 71.5206 19.086 70.0814C18.8343 69.2581 18.5009 68.4725 17.9725 67.7811C17.4252 67.0709 16.7143 66.675 15.8398 66.5556C15.3994 66.499 14.9716 66.6184 14.5501 66.7315C13.4869 67.0081 12.5684 67.5674 11.6877 68.1959C11.2033 68.5416 10.7503 68.9375 10.2722 69.2895C9.81293 69.6226 9.35998 69.9683 8.86928 70.2511C8.09547 70.7036 7.25875 70.9927 6.34655 71.0116C5.43434 71.0241 4.64166 70.7099 3.92448 70.1631C3.35828 69.7357 2.93049 69.1889 2.55303 68.5919C1.94908 67.6366 1.50871 66.6121 1.18157 65.5374C0.766362 64.1736 0.445508 62.7846 0.288231 61.3642C0.22532 60.8049 0.16241 60.2392 0.112082 59.6799C0.0806263 59.3028 0.105793 58.9194 0.0554642 58.5486C-0.0137377 58.0081 -0.00114706 57.4739 0.00514402 56.9334C0.0177262 56.2672 0.0428859 55.601 0.118379 54.9348C0.143543 54.6897 0.156123 54.4446 0.174996 54.1994C0.263072 52.9927 0.458092 51.8049 0.722318 50.6296C0.96767 49.536 1.28222 48.4613 1.74147 47.4369C2.19443 46.4187 2.73547 45.4571 3.53443 44.6715C4.01885 44.2002 4.56617 43.8168 5.22674 43.6345C5.62936 43.5214 6.05087 43.4711 6.47238 43.5151C6.76177 43.5465 7.05115 43.5717 7.33425 43.6282C8.10176 43.7979 8.78121 44.1562 9.4229 44.5961C9.90102 44.9229 10.354 45.2937 10.8132 45.6457C11.5304 46.1988 12.2539 46.7267 13.0528 47.1541C13.6631 47.4746 14.2922 47.726 14.9716 47.858C15.3176 47.9271 15.6574 47.9523 16.0097 47.8957C16.7646 47.77 17.3685 47.4117 17.8592 46.8398C18.2744 46.3559 18.5512 45.7965 18.784 45.2183C19.2621 44.0493 19.4886 42.8238 19.6459 41.5794C19.7088 41.0891 19.7654 40.5989 19.8095 40.1087C19.8472 39.7065 19.8661 39.2979 19.8787 38.8894C19.8975 38.2672 19.8787 37.6387 19.9353 37.0165C19.9982 36.344 19.9793 35.6778 19.9793 35.0116C19.9793 34.0815 19.9479 33.1513 19.929 32.2211C19.9164 31.8 19.9101 31.379 19.885 30.9579C19.8535 30.4488 19.8095 29.946 19.7717 29.4432C19.7654 29.3866 19.7654 29.3301 19.7654 29.2672C19.7465 28.7896 19.7403 28.3056 19.7151 27.828C19.6899 27.3943 19.6459 26.9607 19.6144 26.527C19.5893 26.2253 19.5767 25.9174 19.5578 25.6157C19.5201 24.9369 19.4949 24.2519 19.4509 23.5731C19.4257 23.1834 19.3817 22.7938 19.3502 22.4041C19.3251 22.1276 19.3062 21.851 19.2936 21.5808C19.2558 20.9586 19.2181 20.3364 19.1804 19.7142C19.1552 19.3371 19.1174 18.96 19.086 18.5892C19.0671 18.3315 19.0483 18.0675 19.0357 17.8098C18.9979 17.1876 18.9665 16.5654 18.9161 15.9432C18.8847 15.541 18.8406 15.1388 18.8029 14.7302C18.7777 14.4726 18.7651 14.2086 18.7526 13.9509C18.7337 13.5612 18.7211 13.1653 18.6959 12.7756C18.6708 12.3671 18.633 11.9649 18.6079 11.5626C18.5827 11.217 18.5575 10.865 18.545 10.5194C18.5261 10.0857 18.5198 9.64576 18.4946 9.2121C18.4632 8.73445 18.4191 8.25679 18.3814 7.78542C18.3814 7.754 18.3751 7.72886 18.3751 7.69743C18.3562 7.21978 18.3436 6.73584 18.3248 6.25819C18.2933 5.46001 18.2493 4.66183 18.2241 3.86364C18.2115 3.49912 18.2178 3.1346 18.2115 2.77007C18.199 2.01588 18.1801 1.26169 18.1675 0.50122C18.1675 0.356668 18.1423 0.212115 18.2115 0.0549928C18.2682 0.042423 18.3374 0.0172836 18.4066 0.0109987C18.5387 0.00471377 18.6708 0.00471243 18.8029 0.00471243C21.9358 0.00471243 25.0688 0.00471243 28.2018 0.00471243C31.2152 0.00471243 34.2349 0.0109987 37.2483 0.0109987C53.5234 0.0109987 69.7984 0.0109987 86.0734 0.0109987C86.2748 0.0109987 86.4824 -0.0329958 86.6711 0.0549928C86.7403 0.205831 86.7151 0.350381 86.7151 0.494934C86.7026 1.16113 86.6774 1.83362 86.6648 2.49982C86.6459 3.39856 86.6585 4.30359 86.6082 5.20233C86.5641 6.01308 86.5453 6.83012 86.5075 7.64087C86.4761 8.40763 86.4069 9.17439 86.3565 9.94115C86.3251 10.4062 86.3125 10.865 86.2811 11.3301C86.2559 11.7072 86.2244 12.0843 86.193 12.4614C86.1678 12.7945 86.1426 13.1276 86.1238 13.4607C86.1049 13.8378 86.0923 14.2149 86.0734 14.592C86.0609 14.8811 86.0357 15.1702 86.0168 15.4593C85.9854 15.9684 85.9539 16.4712 85.9162 16.9802C85.8658 17.5899 85.8029 18.1932 85.7526 18.7966C85.7086 19.4188 85.6834 20.041 85.6394 20.6632C85.5953 21.3168 85.5324 21.9642 85.4884 22.6178C85.4569 23.0075 85.4443 23.3971 85.4192 23.7931C85.394 24.1953 85.35 24.6038 85.3185 25.0061C85.2934 25.3706 85.2808 25.7288 85.2556 26.0934C85.243 26.3259 85.2242 26.5584 85.2116 26.791C85.1864 27.2561 85.1738 27.7211 85.1487 28.1862C85.1235 28.6639 85.0857 29.1415 85.048 29.6192C85.048 29.6506 85.0417 29.6757 85.0417 29.7072C85.0228 30.3168 85.0228 30.9264 84.9788 31.5361C84.9222 32.3217 84.9725 33.1073 84.9159 33.8866C84.853 34.7477 84.853 35.6024 84.8781 36.4572C84.897 37.0982 84.897 37.7393 84.9285 38.3741C84.9788 39.2979 85.048 40.2281 85.1487 41.152C85.2682 42.2644 85.4569 43.3706 85.784 44.439C86.0357 45.2623 86.3628 46.0542 86.9039 46.7393C87.4197 47.3992 88.074 47.8077 88.9233 47.9083C89.2505 47.946 89.5587 47.9334 89.8733 47.8705C90.7729 47.7009 91.5781 47.3112 92.3582 46.8398C93.2327 46.3119 94.0128 45.652 94.8243 45.0361C95.4157 44.5898 96.0322 44.1813 96.7305 43.8985C97.2338 43.6911 97.7434 43.5465 98.2907 43.5151C98.7185 43.49 99.1337 43.5088 99.5427 43.6094C100.197 43.7728 100.751 44.1122 101.235 44.5647C101.851 45.1492 102.323 45.8468 102.726 46.5947C103.336 47.7323 103.733 48.9453 104.047 50.1897C104.33 51.3021 104.513 52.4334 104.651 53.5772C104.739 54.3251 104.802 55.0793 104.802 55.8335C104.802 56.506 104.827 57.1722 104.821 57.8447C104.815 58.7434 104.802 59.6485 104.701 60.5472C104.531 62.1059 104.267 63.6582 103.821 65.1666C103.449 66.411 102.965 67.6114 102.248 68.705C101.851 69.3084 101.392 69.8363 100.807 70.2699C100.09 70.8042 99.2847 71.0367 98.3977 70.9927C97.454 70.955 96.6173 70.6156 95.8183 70.138C95.0823 69.6917 94.428 69.1387 93.7486 68.6107C92.9181 67.9634 92.0374 67.3977 91.0686 66.9829C90.5275 66.7504 89.9613 66.5996 89.3825 66.5619C88.7409 66.5241 88.1495 66.7253 87.6211 67.0898C87.1618 67.4103 86.8158 67.844 86.5264 68.3216C86.0357 69.145 85.7589 70.0437 85.545 70.9676C85.3374 71.86 85.1927 72.765 85.1235 73.6764C85.0732 74.3237 85.048 74.9773 84.9788 75.6247C84.9159 76.2217 84.9725 76.8188 84.9159 77.4096C84.8404 78.2392 84.8467 79.0688 84.8781 79.8921C84.9033 80.6903 84.8907 81.4948 84.9348 82.2867C84.9599 82.7203 84.9662 83.1603 84.9851 83.5939C85.0103 84.103 85.0606 84.6058 85.092 85.1149C85.1109 85.448 85.1235 85.7811 85.1361 86.1142C85.1549 86.6107 85.1738 87.1009 85.199 87.5974C85.2179 87.9745 85.2556 88.3516 85.2808 88.7287C85.2871 88.8041 85.2871 88.8733 85.2933 88.9487C85.3311 89.4703 85.3688 89.992 85.4003 90.5136C85.4255 90.9221 85.4443 91.3244 85.4695 91.7329C85.4884 92.0094 85.5135 92.2797 85.5324 92.5562C85.5827 93.3418 85.6268 94.1212 85.6771 94.9068C85.7274 95.6421 85.7778 96.3837 85.8407 97.1191C85.891 97.7538 85.9539 98.3886 85.998 99.0234C86.042 99.677 86.0672 100.331 86.1049 100.978C86.1301 101.355 86.1615 101.732 86.1867 102.109C86.2119 102.53 86.237 102.951 86.2685 103.373C86.2936 103.75 86.3125 104.127 86.3377 104.498C86.3691 104.919 86.4069 105.333 86.432 105.755C86.4572 106.289 86.4509 106.829 86.5012 107.363C86.5579 107.973 86.4824 108.583 86.5893 109.192C86.5956 109.236 86.5956 109.28 86.5956 109.324C86.6082 110.255 86.6208 111.185 86.6396 112.115C86.6522 112.768 86.6774 113.422 86.69 114.076C86.7214 114.214 86.7026 114.346 86.6963 114.491Z" fill="#E65325" stroke="#FFFEF6" stroke-width="2" mask="url(#path-1-inside-1_2802_22181)"/>
</svg>
