<svg width="393" height="91" viewBox="0 0 393 91" fill="none" xmlns="http://www.w3.org/2000/svg">
<g filter="url(#filter0_n_2099_34953)">
<mask id="path-1-inside-1_2099_34953" fill="white">
<path d="M216.575 2.28642C218.291 8.68801 214.492 15.2681 208.09 16.9834L148.505 32.949C148.325 32.9972 148.218 33.181 148.263 33.3617C149.855 40.2285 143.828 47.6994 134.621 50.1663C125.415 52.633 116.461 49.1763 114.406 42.4338C114.354 42.2545 114.169 42.1495 113.989 42.1978L88.7905 48.9496C82.5541 50.6206 75.5808 46.406 69.4498 44.3824C65.94 43.2239 61.7013 43.0862 57.4078 44.2366C53.1146 45.3871 49.5129 47.6256 47.0528 50.3835C42.755 55.2016 38.8233 62.3382 32.5869 64.0093L-9.09801 75.1787C-15.4996 76.894 -22.0796 73.095 -23.7949 66.6934L-24.8942 62.5911C-26.6095 56.1895 -22.8105 49.6094 -16.4089 47.8941L200.779 -10.3012C207.181 -12.0165 213.761 -8.21753 215.476 -1.81594L216.575 2.28642Z"/>
</mask>
<path d="M216.575 2.28642C218.291 8.68801 214.492 15.2681 208.09 16.9834L148.505 32.949C148.325 32.9972 148.218 33.181 148.263 33.3617C149.855 40.2285 143.828 47.6994 134.621 50.1663C125.415 52.633 116.461 49.1763 114.406 42.4338C114.354 42.2545 114.169 42.1495 113.989 42.1978L88.7905 48.9496C82.5541 50.6206 75.5808 46.406 69.4498 44.3824C65.94 43.2239 61.7013 43.0862 57.4078 44.2366C53.1146 45.3871 49.5129 47.6256 47.0528 50.3835C42.755 55.2016 38.8233 62.3382 32.5869 64.0093L-9.09801 75.1787C-15.4996 76.894 -22.0796 73.095 -23.7949 66.6934L-24.8942 62.5911C-26.6095 56.1895 -22.8105 49.6094 -16.4089 47.8941L200.779 -10.3012C207.181 -12.0165 213.761 -8.21753 215.476 -1.81594L216.575 2.28642Z" fill="#E65325"/>
<path d="M148.263 33.3617L149.237 33.1359L149.235 33.1264L149.233 33.117L148.263 33.3617ZM134.621 50.1663L134.88 51.1322V51.1322L134.621 50.1663ZM114.406 42.4338L113.445 42.7094L113.447 42.7174L113.449 42.7253L114.406 42.4338ZM57.4078 44.2366L57.1489 43.2707L57.1489 43.2707L57.4078 44.2366ZM69.4498 44.3824L69.1363 45.332L69.4498 44.3824ZM208.09 16.9834L207.831 16.0174L148.247 31.9831L148.505 32.949L148.764 33.9149L208.349 17.9493L208.09 16.9834ZM148.263 33.3617L147.289 33.5875C147.999 36.6512 147.029 39.9281 144.715 42.7844C142.401 45.6397 138.781 48.0163 134.362 49.2003L134.621 50.1663L134.88 51.1322C139.668 49.8494 143.665 47.257 146.269 44.0435C148.871 40.8309 150.119 36.9389 149.237 33.1359L148.263 33.3617ZM134.621 50.1663L134.362 49.2003C129.944 50.3843 125.621 50.1359 122.19 48.8199C118.758 47.5033 116.279 45.1506 115.362 42.1422L114.406 42.4338L113.449 42.7253C114.587 46.4595 117.613 49.2064 121.474 50.6872C125.335 52.1684 130.093 52.4149 134.88 51.1322L134.621 50.1663ZM113.989 42.1978L113.73 41.2318L88.5316 47.9837L88.7905 48.9496L89.0493 49.9155L114.247 43.1637L113.989 42.1978ZM69.4498 44.3824L69.7632 43.4327C66.054 42.2084 61.6155 42.0739 57.1489 43.2707L57.4078 44.2366L57.6666 45.2025C61.787 44.0985 65.8261 44.2393 69.1363 45.332L69.4498 44.3824ZM57.4078 44.2366L57.1489 43.2707C52.6827 44.4676 48.9065 46.8032 46.3065 49.7179L47.0528 50.3835L47.799 51.0492C50.1193 48.448 53.5465 46.3066 57.6666 45.2025L57.4078 44.2366ZM32.5869 64.0093L32.3281 63.0433L-9.35683 74.2128L-9.09801 75.1787L-8.83919 76.1446L32.8458 64.9752L32.5869 64.0093ZM-23.7949 66.6934L-22.829 66.4346L-23.9282 62.3323L-24.8942 62.5911L-25.8601 62.8499L-24.7609 66.9523L-23.7949 66.6934ZM-16.4089 47.8941L-16.1501 48.8601L201.038 -9.33529L200.779 -10.3012L200.52 -11.2671L-16.6677 46.9282L-16.4089 47.8941ZM215.476 -1.81594L214.51 -1.55712L215.609 2.54524L216.575 2.28642L217.541 2.0276L216.442 -2.07476L215.476 -1.81594ZM-24.8942 62.5911L-23.9282 62.3323C-25.5006 56.4641 -22.0182 50.4324 -16.1501 48.8601L-16.4089 47.8941L-16.6677 46.9282C-23.6028 48.7865 -27.7183 55.9148 -25.8601 62.8499L-24.8942 62.5911ZM-9.09801 75.1787L-9.35683 74.2128C-15.225 75.7851 -21.2567 72.3027 -22.829 66.4346L-23.7949 66.6934L-24.7609 66.9523C-22.9026 73.8873 -15.7742 78.0029 -8.83919 76.1446L-9.09801 75.1787ZM47.0528 50.3835L46.3065 49.7179C45.206 50.9516 44.1336 52.3284 43.0678 53.6953C41.9941 55.0722 40.9239 56.4431 39.7984 57.7133C37.5366 60.2658 35.1568 62.2854 32.3281 63.0433L32.5869 64.0093L32.8458 64.9752C36.2534 64.0621 38.9577 61.6778 41.2953 59.0397C42.4695 57.7147 43.5778 56.2936 44.645 54.9251C45.7199 53.5465 46.7507 52.2245 47.799 51.0492L47.0528 50.3835ZM88.7905 48.9496L88.5316 47.9837C85.7029 48.7416 82.6322 48.1825 79.3972 47.1029C77.7873 46.5657 76.175 45.9135 74.5567 45.2579C72.9503 44.6071 71.3332 43.9509 69.7632 43.4327L69.4498 44.3824L69.1363 45.332C70.6319 45.8256 72.1856 46.4552 73.8058 47.1115C75.4143 47.7631 77.0846 48.4396 78.764 49.0001C82.1076 50.1159 85.6417 50.8286 89.0493 49.9155L88.7905 48.9496ZM148.505 32.949L148.247 31.9831C147.539 32.1728 147.114 32.8958 147.294 33.6065L148.263 33.3617L149.233 33.117C149.321 33.4663 149.112 33.8217 148.764 33.9149L148.505 32.949ZM114.406 42.4338L115.367 42.1581C115.165 41.4545 114.437 41.0424 113.73 41.2318L113.989 42.1978L114.247 43.1637C113.901 43.2566 113.543 43.0545 113.445 42.7094L114.406 42.4338ZM200.779 -10.3012L201.038 -9.33529C206.906 -10.9077 212.938 -7.42525 214.51 -1.55712L215.476 -1.81594L216.442 -2.07476C214.584 -9.00982 207.455 -13.1254 200.52 -11.2671L200.779 -10.3012ZM208.09 16.9834L208.349 17.9493C215.284 16.091 219.399 8.96266 217.541 2.0276L216.575 2.28642L215.609 2.54524C217.182 8.41336 213.699 14.4451 207.831 16.0174L208.09 16.9834Z" fill="#372F32" mask="url(#path-1-inside-1_2099_34953)"/>
</g>
<g filter="url(#filter1_n_2099_34953)">
<mask id="path-3-inside-2_2099_34953" fill="white">
<path d="M191.48 2.28642C189.765 8.68801 193.564 15.2681 199.966 16.9834L259.55 32.949C259.73 32.9972 259.838 33.181 259.792 33.3617C258.201 40.2285 264.228 47.6994 273.434 50.1663C282.641 52.633 291.595 49.1763 293.65 42.4338C293.701 42.2545 293.887 42.1495 294.067 42.1978L319.265 48.9496C325.502 50.6206 332.475 46.406 338.606 44.3824C342.116 43.2239 346.354 43.0862 350.648 44.2366C354.941 45.3871 358.543 47.6256 361.003 50.3835C365.301 55.2016 369.232 62.3382 375.469 64.0093L417.154 75.1787C423.555 76.894 430.135 73.095 431.851 66.6934L432.95 62.5911C434.665 56.1895 430.866 49.6094 424.465 47.8941L207.277 -10.3012C200.875 -12.0165 194.295 -8.21753 192.58 -1.81594L191.48 2.28642Z"/>
</mask>
<path d="M191.48 2.28642C189.765 8.68801 193.564 15.2681 199.966 16.9834L259.55 32.949C259.73 32.9972 259.838 33.181 259.792 33.3617C258.201 40.2285 264.228 47.6994 273.434 50.1663C282.641 52.633 291.595 49.1763 293.65 42.4338C293.701 42.2545 293.887 42.1495 294.067 42.1978L319.265 48.9496C325.502 50.6206 332.475 46.406 338.606 44.3824C342.116 43.2239 346.354 43.0862 350.648 44.2366C354.941 45.3871 358.543 47.6256 361.003 50.3835C365.301 55.2016 369.232 62.3382 375.469 64.0093L417.154 75.1787C423.555 76.894 430.135 73.095 431.851 66.6934L432.95 62.5911C434.665 56.1895 430.866 49.6094 424.465 47.8941L207.277 -10.3012C200.875 -12.0165 194.295 -8.21753 192.58 -1.81594L191.48 2.28642Z" fill="#E65325"/>
<path d="M259.792 33.3617L258.818 33.1359L258.821 33.1264L258.823 33.117L259.792 33.3617ZM273.434 50.1663L273.176 51.1322V51.1322L273.434 50.1663ZM293.65 42.4338L294.611 42.7094L294.609 42.7174L294.606 42.7253L293.65 42.4338ZM350.648 44.2366L350.907 43.2707L350.907 43.2707L350.648 44.2366ZM338.606 44.3824L338.919 45.332L338.606 44.3824ZM259.55 32.949L259.809 31.9831L259.55 32.949ZM191.48 2.28642L192.446 2.54524L191.48 2.28642ZM199.966 16.9834L200.224 16.0174L259.809 31.9831L259.55 32.949L259.291 33.9149L199.707 17.9493L199.966 16.9834ZM259.792 33.3617L260.767 33.5875C260.057 36.6512 261.027 39.9281 263.341 42.7844C265.655 45.6397 269.274 48.0163 273.693 49.2003L273.434 50.1663L273.176 51.1322C268.388 49.8494 264.391 47.257 261.787 44.0435C259.184 40.8309 257.937 36.9389 258.818 33.1359L259.792 33.3617ZM273.434 50.1663L273.693 49.2003C278.112 50.3843 282.435 50.1359 285.866 48.8199C289.298 47.5033 291.776 45.1506 292.693 42.1422L293.65 42.4338L294.606 42.7253C293.468 46.4595 290.442 49.2064 286.582 50.6872C282.721 52.1684 277.963 52.4149 273.176 51.1322L273.434 50.1663ZM294.067 42.1978L294.326 41.2318L319.524 47.9837L319.265 48.9496L319.006 49.9155L293.808 43.1637L294.067 42.1978ZM338.606 44.3824L338.292 43.4327C342.002 42.2084 346.44 42.0739 350.907 43.2707L350.648 44.2366L350.389 45.2025C346.269 44.0985 342.23 44.2393 338.919 45.332L338.606 44.3824ZM350.648 44.2366L350.907 43.2707C355.373 44.4676 359.149 46.8032 361.749 49.7179L361.003 50.3835L360.257 51.0492C357.936 48.448 354.509 46.3066 350.389 45.2025L350.648 44.2366ZM375.469 64.0093L375.728 63.0433L417.412 74.2128L417.154 75.1787L416.895 76.1446L375.21 64.9752L375.469 64.0093ZM431.851 66.6934L430.885 66.4346L431.984 62.3323L432.95 62.5911L433.916 62.8499L432.817 66.9523L431.851 66.6934ZM424.465 47.8941L424.206 48.8601L207.018 -9.33529L207.277 -10.3012L207.535 -11.2671L424.723 46.9282L424.465 47.8941ZM192.58 -1.81594L193.546 -1.55712L192.446 2.54524L191.48 2.28642L190.514 2.0276L191.614 -2.07476L192.58 -1.81594ZM432.95 62.5911L431.984 62.3323C433.556 56.4641 430.074 50.4324 424.206 48.8601L424.465 47.8941L424.723 46.9282C431.658 48.7865 435.774 55.9148 433.916 62.8499L432.95 62.5911ZM417.154 75.1787L417.412 74.2128C423.281 75.7851 429.312 72.3027 430.885 66.4346L431.851 66.6934L432.817 66.9523C430.958 73.8873 423.83 78.0029 416.895 76.1446L417.154 75.1787ZM361.003 50.3835L361.749 49.7179C362.85 50.9516 363.922 52.3284 364.988 53.6953C366.062 55.0722 367.132 56.4431 368.257 57.7133C370.519 60.2658 372.899 62.2854 375.728 63.0433L375.469 64.0093L375.21 64.9752C371.802 64.0621 369.098 61.6778 366.76 59.0397C365.586 57.7147 364.478 56.2936 363.411 54.9251C362.336 53.5465 361.305 52.2245 360.257 51.0492L361.003 50.3835ZM319.265 48.9496L319.524 47.9837C322.353 48.7416 325.423 48.1825 328.658 47.1029C330.268 46.5657 331.881 45.9135 333.499 45.2579C335.105 44.6071 336.723 43.9509 338.292 43.4327L338.606 44.3824L338.919 45.332C337.424 45.8256 335.87 46.4552 334.25 47.1115C332.641 47.7631 330.971 48.4396 329.292 49.0001C325.948 50.1159 322.414 50.8286 319.006 49.9155L319.265 48.9496ZM259.55 32.949L259.809 31.9831C260.517 32.1728 260.941 32.8958 260.762 33.6065L259.792 33.3617L258.823 33.117C258.735 33.4663 258.943 33.8217 259.291 33.9149L259.55 32.949ZM293.65 42.4338L292.689 42.1581C292.89 41.4545 293.619 41.0424 294.326 41.2318L294.067 42.1978L293.808 43.1637C294.155 43.2566 294.512 43.0545 294.611 42.7094L293.65 42.4338ZM207.277 -10.3012L207.018 -9.33529C201.15 -10.9077 195.118 -7.42525 193.546 -1.55712L192.58 -1.81594L191.614 -2.07476C193.472 -9.00982 200.6 -13.1254 207.535 -11.2671L207.277 -10.3012ZM199.966 16.9834L199.707 17.9493C192.772 16.091 188.656 8.96266 190.514 2.0276L191.48 2.28642L192.446 2.54524C190.874 8.41336 194.356 14.4451 200.224 16.0174L199.966 16.9834Z" fill="#372F32" mask="url(#path-3-inside-2_2099_34953)"/>
</g>
<defs>
<filter id="filter0_n_2099_34953" x="-25.3057" y="-10.7131" width="242.293" height="86.3037" filterUnits="userSpaceOnUse" color-interpolation-filters="sRGB">
<feFlood flood-opacity="0" result="BackgroundImageFix"/>
<feBlend mode="normal" in="SourceGraphic" in2="BackgroundImageFix" result="shape"/>
<feTurbulence type="fractalNoise" baseFrequency="0.40000000596046448 0.40000000596046448" stitchTiles="stitch" numOctaves="3" result="noise" seed="4153" />
<feColorMatrix in="noise" type="luminanceToAlpha" result="alphaNoise" />
<feComponentTransfer in="alphaNoise" result="coloredNoise1">
<feFuncA type="discrete" tableValues="0 0 0 0 0 0 0 0 0 0 0 0 0 0 0 0 0 0 1 1 1 1 1 1 1 1 1 1 1 1 1 0 0 0 0 0 0 0 0 0 0 0 0 0 0 0 0 0 0 0 0 0 0 0 0 0 0 0 0 0 0 0 0 0 0 0 0 0 0 0 0 0 0 0 0 0 0 0 0 0 0 0 0 0 0 0 0 0 0 0 0 0 0 0 0 0 0 0 0 0 "/>
</feComponentTransfer>
<feComposite operator="in" in2="shape" in="coloredNoise1" result="noise1Clipped" />
<feFlood flood-color="rgba(0, 0, 0, 0.25)" result="color1Flood" />
<feComposite operator="in" in2="noise1Clipped" in="color1Flood" result="color1" />
<feMerge result="effect1_noise_2099_34953">
<feMergeNode in="shape" />
<feMergeNode in="color1" />
</feMerge>
</filter>
<filter id="filter1_n_2099_34953" x="191.068" y="-10.7131" width="242.293" height="86.3037" filterUnits="userSpaceOnUse" color-interpolation-filters="sRGB">
<feFlood flood-opacity="0" result="BackgroundImageFix"/>
<feBlend mode="normal" in="SourceGraphic" in2="BackgroundImageFix" result="shape"/>
<feTurbulence type="fractalNoise" baseFrequency="0.40000000596046448 0.40000000596046448" stitchTiles="stitch" numOctaves="3" result="noise" seed="4153" />
<feColorMatrix in="noise" type="luminanceToAlpha" result="alphaNoise" />
<feComponentTransfer in="alphaNoise" result="coloredNoise1">
<feFuncA type="discrete" tableValues="0 0 0 0 0 0 0 0 0 0 0 0 0 0 0 0 0 0 1 1 1 1 1 1 1 1 1 1 1 1 1 0 0 0 0 0 0 0 0 0 0 0 0 0 0 0 0 0 0 0 0 0 0 0 0 0 0 0 0 0 0 0 0 0 0 0 0 0 0 0 0 0 0 0 0 0 0 0 0 0 0 0 0 0 0 0 0 0 0 0 0 0 0 0 0 0 0 0 0 0 "/>
</feComponentTransfer>
<feComposite operator="in" in2="shape" in="coloredNoise1" result="noise1Clipped" />
<feFlood flood-color="rgba(0, 0, 0, 0.25)" result="color1Flood" />
<feComposite operator="in" in2="noise1Clipped" in="color1Flood" result="color1" />
<feMerge result="effect1_noise_2099_34953">
<feMergeNode in="shape" />
<feMergeNode in="color1" />
</feMerge>
</filter>
</defs>
</svg>
