<svg width="89" height="145" viewBox="0 0 89 145" fill="none" xmlns="http://www.w3.org/2000/svg">
<mask id="path-1-inside-1_2802_22195" fill="white">
<path d="M1.79447 144.804C1.78166 144.708 1.76887 144.644 1.76887 144.58C1.76247 144.433 1.76887 144.286 1.76887 144.139C1.75607 142.981 1.75605 141.823 1.71123 140.672C1.69202 140.179 1.69201 139.687 1.66 139.201C1.60237 138.42 1.57677 137.64 1.55116 136.853C1.52555 136.201 1.48711 135.555 1.4551 134.908C1.42308 134.314 1.39107 133.719 1.33344 133.124C1.27582 132.478 1.25663 131.832 1.1926 131.186C1.12857 130.527 1.12217 129.862 1.07735 129.203C1.05174 128.832 1.0069 128.467 0.981292 128.096C0.962083 127.847 0.942902 127.591 0.930097 127.341C0.904485 126.97 0.891656 126.599 0.866044 126.228C0.840433 125.857 0.802039 125.493 0.770025 125.122C0.750816 124.859 0.725187 124.591 0.712381 124.329C0.68677 123.945 0.67398 123.561 0.648368 123.177C0.622757 122.806 0.590739 122.435 0.565128 122.064C0.558725 122 0.552309 121.93 0.552309 121.866C0.533101 121.456 0.513908 121.047 0.488296 120.638C0.462685 120.254 0.41144 119.877 0.385828 119.493C0.360217 119.071 0.347427 118.648 0.321815 118.22C0.296204 117.785 0.26418 117.35 0.232165 116.915C0.232165 116.889 0.225756 116.864 0.225756 116.838C0.206548 116.346 0.193764 115.859 0.168152 115.367C0.142541 114.798 0.0977113 114.228 0.0785026 113.659C0.0656969 113.301 0.104102 112.936 0.0656843 112.584C-0.0367617 111.67 0.0208532 110.755 0.0144504 109.84C0.0016446 108.926 0.00804748 108.004 0.0144504 107.09C0.0144504 106.879 -0.00474733 106.668 0.0656843 106.456C0.084893 106.393 0.0720997 106.322 0.0785026 106.258C0.110517 105.58 0.123306 104.902 0.180931 104.23C0.296183 102.99 0.481861 101.755 0.81481 100.552C0.994091 99.9 1.2438 99.2667 1.61517 98.691C1.84567 98.3264 2.13383 98.0194 2.48599 97.7699C2.90218 97.4757 3.38239 97.3605 3.88181 97.3797C4.5093 97.4053 5.10476 97.5588 5.68102 97.8403C6.67987 98.3264 7.58268 98.9533 8.44066 99.6505C9.01692 100.117 9.60597 100.578 10.2655 100.93C10.9314 101.294 11.6165 101.614 12.3784 101.736C13.1275 101.851 13.8575 101.806 14.5746 101.55C15.1061 101.358 15.5735 101.064 15.9961 100.693C16.6555 100.117 17.1614 99.4266 17.5904 98.6718C17.8657 98.1857 18.1282 97.6931 18.3267 97.1686C18.602 96.4522 18.8646 95.723 19.0502 94.9746C19.2679 94.111 19.4536 93.2411 19.5881 92.3648C19.6969 91.6292 19.7866 90.8936 19.8506 90.158C19.9659 88.8594 19.9594 87.5546 19.9402 86.256C19.9338 85.6228 19.8506 84.9895 19.7994 84.3563C19.7225 83.3264 19.5497 82.3029 19.3384 81.2923C19.1527 80.384 18.935 79.4756 18.5956 78.6057C18.3971 78.1004 18.2243 77.5823 17.9937 77.0897C17.5327 76.111 16.9437 75.2091 16.1497 74.4671C15.4134 73.7763 14.549 73.3349 13.5373 73.2134C13.0187 73.1494 12.5065 73.2198 11.9943 73.3477C10.957 73.61 10.0542 74.1345 9.20902 74.7741C8.65197 75.2027 8.1077 75.6505 7.54424 76.0727C6.85914 76.5844 6.1228 77.0129 5.34165 77.3456C4.71417 77.6142 4.05467 77.6718 3.38237 77.6142C2.92777 77.5695 2.55003 77.352 2.21067 77.0577C2.0506 76.917 1.90972 76.7571 1.78806 76.5844C1.47432 76.1558 1.23103 75.6825 1.04534 75.1835C0.795631 74.5119 0.635563 73.8083 0.488296 73.111C0.334627 72.3562 0.264163 71.5886 0.174522 70.8274C0.136105 70.514 0.136127 70.1942 0.116918 69.8744C0.0977097 69.4906 0.104102 69.1004 0.0656843 68.723C-0.0559704 67.61 0.0336918 66.4906 0.00808031 65.3776C-0.00472545 64.7507 0.00167743 64.1302 0.00808031 63.5034C0.00808031 63.1963 0.00164929 62.8957 0.0592752 62.5886C0.104095 62.3456 0.0656906 62.0833 0.0720935 61.8338C0.097705 61.2134 0.129729 60.5865 0.161743 59.966C0.161743 59.9149 0.161749 59.8573 0.168152 59.8061C0.187361 59.2752 0.200145 58.7443 0.225756 58.2134C0.251368 57.6185 0.277001 57.0236 0.328224 56.4287C0.379447 55.8722 0.405048 55.3157 0.437062 54.7656C0.456271 54.3818 0.513886 54.0044 0.5459 53.6206C0.571512 53.3456 0.584335 53.0641 0.603543 52.7891C0.622752 52.4181 0.635536 52.0471 0.661148 51.6761C0.686759 51.2923 0.718783 50.9085 0.750797 50.5247C0.770006 50.2624 0.789232 49.9938 0.80844 49.7315C0.834052 49.3605 0.853245 48.9895 0.872454 48.6185C0.891662 48.2859 0.917264 47.9596 0.942876 47.627C0.97489 47.2048 1.00692 46.7827 1.03893 46.3605C1.06455 46.0407 1.07733 45.7272 1.09654 45.4074C1.12855 44.9213 1.15418 44.4287 1.1926 43.9426C1.21821 43.5588 1.25664 43.175 1.28866 42.7912C1.29506 42.7528 1.29503 42.7144 1.29503 42.6697C1.31423 42.2475 1.32067 41.8189 1.36549 41.4031C1.43592 40.7954 1.45512 40.1878 1.47433 39.5801C1.48073 39.2859 1.50635 38.998 1.52556 38.7038C1.55757 38.1857 1.58957 37.6739 1.62158 37.1558C1.62158 37.1302 1.62799 37.1046 1.62799 37.079C1.6472 36.4138 1.64078 35.7485 1.692 35.0897C1.74322 34.3861 1.70482 33.6825 1.74964 32.9788C1.80087 32.2368 1.76885 31.4884 1.78165 30.7464C1.78805 30.5865 1.78807 30.433 1.79447 30.2539C1.89051 30.2347 1.96735 30.2091 2.03778 30.2155C2.33231 30.2283 2.62044 30.2539 2.90856 30.2731C2.94698 30.2731 2.9854 30.2795 3.03022 30.2795C3.49763 30.2667 3.95863 30.3306 4.41963 30.3754C5.32884 30.465 6.23805 30.5673 7.14086 30.7144C8.45985 30.9319 9.77887 31.1878 11.0915 31.4308C12.1607 31.6291 13.23 31.8274 14.2929 32.0577C15.6055 32.3392 16.9245 32.5631 18.2435 32.7869C18.8069 32.8829 19.3704 32.9532 19.9402 33.0236C20.4652 33.0876 20.9903 33.1579 21.5217 33.1899C22.3157 33.2347 23.1096 33.2731 23.91 33.2155C24.6399 33.1707 25.3635 33.0684 26.0742 32.9085C26.8489 32.7294 27.5533 32.4031 28.2063 31.949C28.8979 31.4692 29.4101 30.8296 29.7943 30.0876C30.2104 29.288 30.4153 28.4245 30.5306 27.5417C30.6394 26.723 30.601 25.8978 30.5754 25.0726C30.5562 24.4522 30.4858 23.8317 30.3641 23.2176C30.2104 22.4628 30.1016 21.7016 29.9351 20.9532C29.6854 19.8274 29.3717 18.7144 29.0451 17.6014C28.693 16.3797 28.3792 15.1387 28.2063 13.8786C28.1295 13.3285 28.0399 12.7784 27.995 12.2219C27.9502 11.6526 27.9502 11.0833 27.9438 10.514C27.9246 9.05558 28.1231 7.62914 28.5457 6.23468C28.6994 5.72935 28.8722 5.22402 29.1284 4.75067C29.3205 4.39886 29.4869 4.04066 29.6982 3.70164C30.0056 3.2027 30.3705 2.74853 30.7739 2.32636C31.5487 1.4948 32.4835 0.899919 33.5336 0.471348C33.9689 0.292243 34.4171 0.189899 34.8781 0.11314C35.352 0.0299843 35.8258 -0.0147809 36.306 0.00440889C37.2664 0.049185 38.1948 0.234686 39.0784 0.644068C40.0709 1.10462 40.9225 1.75067 41.6588 2.55024C41.8381 2.74214 41.9981 2.95962 42.1518 3.17071C43.2403 4.6931 43.855 6.40099 44.1047 8.2496C44.1559 8.64619 44.1751 9.04279 44.22 9.43298C44.2776 9.93831 44.2648 10.4436 44.2712 10.9426C44.2712 11.6206 44.2071 12.2922 44.1175 12.9639C44.0663 13.3733 44.0343 13.7827 43.9638 14.1856C43.7781 15.2986 43.5156 16.3925 43.2019 17.4799C42.933 18.4138 42.664 19.3413 42.4335 20.2816C42.171 21.3498 41.9405 22.4308 41.7932 23.5183C41.742 23.9021 41.7356 24.2859 41.678 24.6633C41.582 25.2965 41.6268 25.9362 41.6268 26.5758C41.6268 27.6633 41.8061 28.7187 42.2415 29.7166C42.568 30.4714 43.0226 31.1302 43.6629 31.6611C44.4889 32.352 45.4365 32.7677 46.4866 32.9788C47.0756 33.094 47.6647 33.1643 48.2602 33.2027C48.766 33.2411 49.2718 33.2411 49.7712 33.2347C50.1298 33.2283 50.4884 33.1835 50.8405 33.1579C51.1735 33.1323 51.5 33.1132 51.833 33.0748C52.3068 33.0172 52.7806 32.9532 53.248 32.8829C53.4721 32.8509 53.6962 32.8189 53.9203 32.7805C54.4005 32.6974 54.8871 32.6078 55.3674 32.5183C56.2253 32.3584 57.0897 32.1984 57.9477 32.0321C59.2219 31.7891 60.5025 31.5396 61.7766 31.2965C62.481 31.1622 63.1853 31.0279 63.8896 30.9063C64.5555 30.7912 65.2214 30.6888 65.8937 30.5929C66.5724 30.4969 67.2575 30.4074 67.9426 30.3306C68.2692 30.2923 68.6021 30.2859 68.9351 30.2667C69.3064 30.2475 69.6778 30.2283 70.0492 30.2091C70.1516 30.2027 70.2605 30.2219 70.3821 30.2283C70.4013 30.3115 70.4333 30.3882 70.4333 30.4586C70.4398 30.868 70.4654 31.2837 70.4269 31.6931C70.3501 32.4095 70.4205 33.126 70.3693 33.8424C70.3309 34.3861 70.3565 34.9298 70.3181 35.4735C70.2861 35.8701 70.3309 36.2731 70.2669 36.6633C70.1836 37.1942 70.2861 37.7251 70.158 38.2496C70.1516 38.2752 70.158 38.3008 70.1516 38.3264C70.1324 38.8061 70.126 39.2795 70.1004 39.7592C70.0748 40.1942 70.0363 40.6291 70.0043 41.0641C70.0043 41.1025 69.998 41.1409 69.998 41.1856C69.9788 41.595 69.9723 42.0044 69.9467 42.4202C69.9019 43.0663 69.8443 43.7123 69.7931 44.3647C69.761 44.7613 69.761 45.1579 69.7226 45.5545C69.6906 45.8871 69.6714 46.2134 69.6522 46.546C69.633 46.917 69.5882 47.288 69.5689 47.6526C69.5305 48.2475 69.5113 48.8424 69.4729 49.4436C69.4281 50.0769 69.3577 50.7102 69.3064 51.3434C69.2744 51.74 69.2744 52.1366 69.2424 52.5332C69.1976 53.1665 69.14 53.7997 69.0951 54.433C69.0631 54.8424 69.0567 55.2518 69.0311 55.6675C69.0055 56.1025 68.9735 56.5375 68.9415 56.9788C68.9415 57.0044 68.9351 57.03 68.9351 57.0556C68.9158 57.5353 68.8967 58.0087 68.8646 58.4884C68.839 58.9362 68.8006 59.3839 68.7686 59.8381C68.7622 59.8893 68.7622 59.9468 68.7622 59.998C68.743 60.369 68.7238 60.74 68.711 61.111C68.6854 62.0258 68.6854 62.9405 68.6405 63.8552C68.6021 64.7187 68.5957 65.5823 68.6021 66.4458C68.6085 67.1622 68.6149 67.8786 68.6533 68.595C68.6917 69.3754 68.743 70.1558 68.8134 70.9362C68.8454 71.3328 68.9287 71.723 68.9863 72.1132C69.0311 72.4266 69.0759 72.7464 69.1271 73.0599C69.2744 73.9106 69.4985 74.7422 69.8251 75.5481C70.0748 76.1558 70.3821 76.7251 70.8303 77.2113C71.3362 77.7486 71.9444 78.0748 72.6936 78.1835C73.257 78.2667 73.7692 78.1068 74.2879 77.966C74.9089 77.7997 75.466 77.4799 76.0166 77.1601C76.8554 76.6675 77.611 76.0599 78.3601 75.4458C79.0452 74.8893 79.7879 74.4159 80.6075 74.0897C81.5999 73.6931 82.6244 73.6036 83.6425 73.981C84.1035 74.1537 84.5133 74.4287 84.8847 74.7677C85.5378 75.369 86.0307 76.0854 86.4533 76.8658C86.8567 77.6078 87.1641 78.3818 87.4202 79.175C87.8492 80.5055 88.1181 81.868 88.3166 83.2496C88.3678 83.627 88.3806 84.0172 88.4318 84.3946C88.5087 85.0023 88.5087 85.61 88.5535 86.2177C88.5983 86.8189 88.5983 87.4138 88.5919 88.0087C88.5855 88.6164 88.5407 89.2241 88.5023 89.8317C88.4638 90.4394 88.3998 91.0471 88.3294 91.6484C88.2078 92.787 87.9772 93.9064 87.6827 95.0066C87.3946 96.0748 87.0296 97.111 86.5174 98.0961C86.1588 98.7806 85.749 99.4394 85.2048 99.9895C84.6285 100.572 83.9754 101.051 83.1495 101.218C82.3683 101.371 81.5872 101.314 80.8316 101.039C79.9736 100.725 79.2053 100.252 78.4881 99.7017C77.8863 99.2411 77.2972 98.7614 76.6889 98.32C76.2599 98.013 75.799 97.7443 75.3187 97.5076C74.7681 97.2326 74.1918 97.0471 73.59 96.9128C72.9945 96.7784 72.4311 96.8616 71.8804 97.0919C71.1697 97.3797 70.6959 97.9234 70.2989 98.5567C69.8187 99.3243 69.5561 100.169 69.332 101.032C69.1399 101.806 69.0119 102.587 68.9222 103.38C68.8582 103.943 68.7942 104.512 68.7494 105.075C68.6854 105.938 68.6726 106.795 68.6405 107.659C68.6149 108.35 68.6021 109.041 68.6085 109.732C68.6149 110.672 68.6149 111.619 68.6597 112.559C68.6853 113.039 68.679 113.512 68.711 113.992C68.7558 114.683 68.7942 115.367 68.8198 116.058C68.8326 116.506 68.8966 116.953 68.9286 117.401C68.9543 117.721 68.9671 118.034 68.9799 118.354C68.9991 118.776 69.0119 119.205 69.0311 119.627C69.0503 119.998 69.0888 120.369 69.1208 120.74C69.1464 121.028 69.1656 121.322 69.1848 121.61C69.2104 121.994 69.2296 122.378 69.2552 122.761C69.2808 123.145 69.3128 123.529 69.3449 123.913C69.3513 123.977 69.364 124.047 69.364 124.111C69.3704 124.591 69.4281 125.064 69.4793 125.538C69.5049 125.787 69.5113 126.043 69.5305 126.292C69.5497 126.663 69.569 127.034 69.5882 127.405C69.6074 127.738 69.633 128.064 69.6586 128.397C69.6906 128.832 69.7162 129.267 69.7482 129.702C69.7738 130.034 69.7995 130.361 69.8187 130.693C69.8507 131.141 69.8827 131.589 69.9147 132.043C69.9467 132.452 69.9723 132.862 70.0043 133.271C70.0107 133.322 70.0172 133.373 70.0172 133.431C70.0364 133.866 70.0492 134.307 70.0748 134.742C70.1004 135.152 70.1324 135.561 70.1644 135.97C70.1644 135.983 70.1708 135.996 70.1708 136.009C70.19 136.552 70.2093 137.096 70.2349 137.64C70.2477 137.947 70.2797 138.248 70.2925 138.548C70.3117 138.855 70.2605 139.162 70.3437 139.463C70.3565 139.514 70.3501 139.572 70.3501 139.623C70.3629 140.633 70.3565 141.644 70.4077 142.648C70.4397 143.256 70.4461 143.87 70.4589 144.478C70.4589 144.593 70.4462 144.708 70.4398 144.81C70.2925 144.913 70.158 144.874 70.03 144.874C68.4164 144.874 66.8093 144.868 65.1958 144.868C63.0957 144.868 60.9891 144.874 58.8889 144.874C55.7643 144.874 52.6334 144.868 49.5087 144.868C49.3103 144.868 49.1118 144.868 48.9069 144.868C33.4183 144.868 17.9233 144.868 2.43476 144.868C2.19785 144.836 2.01217 144.855 1.79447 144.804Z"/>
</mask>
<path d="M1.79447 144.804C1.78166 144.708 1.76887 144.644 1.76887 144.58C1.76247 144.433 1.76887 144.286 1.76887 144.139C1.75607 142.981 1.75605 141.823 1.71123 140.672C1.69202 140.179 1.69201 139.687 1.66 139.201C1.60237 138.42 1.57677 137.64 1.55116 136.853C1.52555 136.201 1.48711 135.555 1.4551 134.908C1.42308 134.314 1.39107 133.719 1.33344 133.124C1.27582 132.478 1.25663 131.832 1.1926 131.186C1.12857 130.527 1.12217 129.862 1.07735 129.203C1.05174 128.832 1.0069 128.467 0.981292 128.096C0.962083 127.847 0.942902 127.591 0.930097 127.341C0.904485 126.97 0.891656 126.599 0.866044 126.228C0.840433 125.857 0.802039 125.493 0.770025 125.122C0.750816 124.859 0.725187 124.591 0.712381 124.329C0.68677 123.945 0.67398 123.561 0.648368 123.177C0.622757 122.806 0.590739 122.435 0.565128 122.064C0.558725 122 0.552309 121.93 0.552309 121.866C0.533101 121.456 0.513908 121.047 0.488296 120.638C0.462685 120.254 0.41144 119.877 0.385828 119.493C0.360217 119.071 0.347427 118.648 0.321815 118.22C0.296204 117.785 0.26418 117.35 0.232165 116.915C0.232165 116.889 0.225756 116.864 0.225756 116.838C0.206548 116.346 0.193764 115.859 0.168152 115.367C0.142541 114.798 0.0977113 114.228 0.0785026 113.659C0.0656969 113.301 0.104102 112.936 0.0656843 112.584C-0.0367617 111.67 0.0208532 110.755 0.0144504 109.84C0.0016446 108.926 0.00804748 108.004 0.0144504 107.09C0.0144504 106.879 -0.00474733 106.668 0.0656843 106.456C0.084893 106.393 0.0720997 106.322 0.0785026 106.258C0.110517 105.58 0.123306 104.902 0.180931 104.23C0.296183 102.99 0.481861 101.755 0.81481 100.552C0.994091 99.9 1.2438 99.2667 1.61517 98.691C1.84567 98.3264 2.13383 98.0194 2.48599 97.7699C2.90218 97.4757 3.38239 97.3605 3.88181 97.3797C4.5093 97.4053 5.10476 97.5588 5.68102 97.8403C6.67987 98.3264 7.58268 98.9533 8.44066 99.6505C9.01692 100.117 9.60597 100.578 10.2655 100.93C10.9314 101.294 11.6165 101.614 12.3784 101.736C13.1275 101.851 13.8575 101.806 14.5746 101.55C15.1061 101.358 15.5735 101.064 15.9961 100.693C16.6555 100.117 17.1614 99.4266 17.5904 98.6718C17.8657 98.1857 18.1282 97.6931 18.3267 97.1686C18.602 96.4522 18.8646 95.723 19.0502 94.9746C19.2679 94.111 19.4536 93.2411 19.5881 92.3648C19.6969 91.6292 19.7866 90.8936 19.8506 90.158C19.9659 88.8594 19.9594 87.5546 19.9402 86.256C19.9338 85.6228 19.8506 84.9895 19.7994 84.3563C19.7225 83.3264 19.5497 82.3029 19.3384 81.2923C19.1527 80.384 18.935 79.4756 18.5956 78.6057C18.3971 78.1004 18.2243 77.5823 17.9937 77.0897C17.5327 76.111 16.9437 75.2091 16.1497 74.4671C15.4134 73.7763 14.549 73.3349 13.5373 73.2134C13.0187 73.1494 12.5065 73.2198 11.9943 73.3477C10.957 73.61 10.0542 74.1345 9.20902 74.7741C8.65197 75.2027 8.1077 75.6505 7.54424 76.0727C6.85914 76.5844 6.1228 77.0129 5.34165 77.3456C4.71417 77.6142 4.05467 77.6718 3.38237 77.6142C2.92777 77.5695 2.55003 77.352 2.21067 77.0577C2.0506 76.917 1.90972 76.7571 1.78806 76.5844C1.47432 76.1558 1.23103 75.6825 1.04534 75.1835C0.795631 74.5119 0.635563 73.8083 0.488296 73.111C0.334627 72.3562 0.264163 71.5886 0.174522 70.8274C0.136105 70.514 0.136127 70.1942 0.116918 69.8744C0.0977097 69.4906 0.104102 69.1004 0.0656843 68.723C-0.0559704 67.61 0.0336918 66.4906 0.00808031 65.3776C-0.00472545 64.7507 0.00167743 64.1302 0.00808031 63.5034C0.00808031 63.1963 0.00164929 62.8957 0.0592752 62.5886C0.104095 62.3456 0.0656906 62.0833 0.0720935 61.8338C0.097705 61.2134 0.129729 60.5865 0.161743 59.966C0.161743 59.9149 0.161749 59.8573 0.168152 59.8061C0.187361 59.2752 0.200145 58.7443 0.225756 58.2134C0.251368 57.6185 0.277001 57.0236 0.328224 56.4287C0.379447 55.8722 0.405048 55.3157 0.437062 54.7656C0.456271 54.3818 0.513886 54.0044 0.5459 53.6206C0.571512 53.3456 0.584335 53.0641 0.603543 52.7891C0.622752 52.4181 0.635536 52.0471 0.661148 51.6761C0.686759 51.2923 0.718783 50.9085 0.750797 50.5247C0.770006 50.2624 0.789232 49.9938 0.80844 49.7315C0.834052 49.3605 0.853245 48.9895 0.872454 48.6185C0.891662 48.2859 0.917264 47.9596 0.942876 47.627C0.97489 47.2048 1.00692 46.7827 1.03893 46.3605C1.06455 46.0407 1.07733 45.7272 1.09654 45.4074C1.12855 44.9213 1.15418 44.4287 1.1926 43.9426C1.21821 43.5588 1.25664 43.175 1.28866 42.7912C1.29506 42.7528 1.29503 42.7144 1.29503 42.6697C1.31423 42.2475 1.32067 41.8189 1.36549 41.4031C1.43592 40.7954 1.45512 40.1878 1.47433 39.5801C1.48073 39.2859 1.50635 38.998 1.52556 38.7038C1.55757 38.1857 1.58957 37.6739 1.62158 37.1558C1.62158 37.1302 1.62799 37.1046 1.62799 37.079C1.6472 36.4138 1.64078 35.7485 1.692 35.0897C1.74322 34.3861 1.70482 33.6825 1.74964 32.9788C1.80087 32.2368 1.76885 31.4884 1.78165 30.7464C1.78805 30.5865 1.78807 30.433 1.79447 30.2539C1.89051 30.2347 1.96735 30.2091 2.03778 30.2155C2.33231 30.2283 2.62044 30.2539 2.90856 30.2731C2.94698 30.2731 2.9854 30.2795 3.03022 30.2795C3.49763 30.2667 3.95863 30.3306 4.41963 30.3754C5.32884 30.465 6.23805 30.5673 7.14086 30.7144C8.45985 30.9319 9.77887 31.1878 11.0915 31.4308C12.1607 31.6291 13.23 31.8274 14.2929 32.0577C15.6055 32.3392 16.9245 32.5631 18.2435 32.7869C18.8069 32.8829 19.3704 32.9532 19.9402 33.0236C20.4652 33.0876 20.9903 33.1579 21.5217 33.1899C22.3157 33.2347 23.1096 33.2731 23.91 33.2155C24.6399 33.1707 25.3635 33.0684 26.0742 32.9085C26.8489 32.7294 27.5533 32.4031 28.2063 31.949C28.8979 31.4692 29.4101 30.8296 29.7943 30.0876C30.2104 29.288 30.4153 28.4245 30.5306 27.5417C30.6394 26.723 30.601 25.8978 30.5754 25.0726C30.5562 24.4522 30.4858 23.8317 30.3641 23.2176C30.2104 22.4628 30.1016 21.7016 29.9351 20.9532C29.6854 19.8274 29.3717 18.7144 29.0451 17.6014C28.693 16.3797 28.3792 15.1387 28.2063 13.8786C28.1295 13.3285 28.0399 12.7784 27.995 12.2219C27.9502 11.6526 27.9502 11.0833 27.9438 10.514C27.9246 9.05558 28.1231 7.62914 28.5457 6.23468C28.6994 5.72935 28.8722 5.22402 29.1284 4.75067C29.3205 4.39886 29.4869 4.04066 29.6982 3.70164C30.0056 3.2027 30.3705 2.74853 30.7739 2.32636C31.5487 1.4948 32.4835 0.899919 33.5336 0.471348C33.9689 0.292243 34.4171 0.189899 34.8781 0.11314C35.352 0.0299843 35.8258 -0.0147809 36.306 0.00440889C37.2664 0.049185 38.1948 0.234686 39.0784 0.644068C40.0709 1.10462 40.9225 1.75067 41.6588 2.55024C41.8381 2.74214 41.9981 2.95962 42.1518 3.17071C43.2403 4.6931 43.855 6.40099 44.1047 8.2496C44.1559 8.64619 44.1751 9.04279 44.22 9.43298C44.2776 9.93831 44.2648 10.4436 44.2712 10.9426C44.2712 11.6206 44.2071 12.2922 44.1175 12.9639C44.0663 13.3733 44.0343 13.7827 43.9638 14.1856C43.7781 15.2986 43.5156 16.3925 43.2019 17.4799C42.933 18.4138 42.664 19.3413 42.4335 20.2816C42.171 21.3498 41.9405 22.4308 41.7932 23.5183C41.742 23.9021 41.7356 24.2859 41.678 24.6633C41.582 25.2965 41.6268 25.9362 41.6268 26.5758C41.6268 27.6633 41.8061 28.7187 42.2415 29.7166C42.568 30.4714 43.0226 31.1302 43.6629 31.6611C44.4889 32.352 45.4365 32.7677 46.4866 32.9788C47.0756 33.094 47.6647 33.1643 48.2602 33.2027C48.766 33.2411 49.2718 33.2411 49.7712 33.2347C50.1298 33.2283 50.4884 33.1835 50.8405 33.1579C51.1735 33.1323 51.5 33.1132 51.833 33.0748C52.3068 33.0172 52.7806 32.9532 53.248 32.8829C53.4721 32.8509 53.6962 32.8189 53.9203 32.7805C54.4005 32.6974 54.8871 32.6078 55.3674 32.5183C56.2253 32.3584 57.0897 32.1984 57.9477 32.0321C59.2219 31.7891 60.5025 31.5396 61.7766 31.2965C62.481 31.1622 63.1853 31.0279 63.8896 30.9063C64.5555 30.7912 65.2214 30.6888 65.8937 30.5929C66.5724 30.4969 67.2575 30.4074 67.9426 30.3306C68.2692 30.2923 68.6021 30.2859 68.9351 30.2667C69.3064 30.2475 69.6778 30.2283 70.0492 30.2091C70.1516 30.2027 70.2605 30.2219 70.3821 30.2283C70.4013 30.3115 70.4333 30.3882 70.4333 30.4586C70.4398 30.868 70.4654 31.2837 70.4269 31.6931C70.3501 32.4095 70.4205 33.126 70.3693 33.8424C70.3309 34.3861 70.3565 34.9298 70.3181 35.4735C70.2861 35.8701 70.3309 36.2731 70.2669 36.6633C70.1836 37.1942 70.2861 37.7251 70.158 38.2496C70.1516 38.2752 70.158 38.3008 70.1516 38.3264C70.1324 38.8061 70.126 39.2795 70.1004 39.7592C70.0748 40.1942 70.0363 40.6291 70.0043 41.0641C70.0043 41.1025 69.998 41.1409 69.998 41.1856C69.9788 41.595 69.9723 42.0044 69.9467 42.4202C69.9019 43.0663 69.8443 43.7123 69.7931 44.3647C69.761 44.7613 69.761 45.1579 69.7226 45.5545C69.6906 45.8871 69.6714 46.2134 69.6522 46.546C69.633 46.917 69.5882 47.288 69.5689 47.6526C69.5305 48.2475 69.5113 48.8424 69.4729 49.4436C69.4281 50.0769 69.3577 50.7102 69.3064 51.3434C69.2744 51.74 69.2744 52.1366 69.2424 52.5332C69.1976 53.1665 69.14 53.7997 69.0951 54.433C69.0631 54.8424 69.0567 55.2518 69.0311 55.6675C69.0055 56.1025 68.9735 56.5375 68.9415 56.9788C68.9415 57.0044 68.9351 57.03 68.9351 57.0556C68.9158 57.5353 68.8967 58.0087 68.8646 58.4884C68.839 58.9362 68.8006 59.3839 68.7686 59.8381C68.7622 59.8893 68.7622 59.9468 68.7622 59.998C68.743 60.369 68.7238 60.74 68.711 61.111C68.6854 62.0258 68.6854 62.9405 68.6405 63.8552C68.6021 64.7187 68.5957 65.5823 68.6021 66.4458C68.6085 67.1622 68.6149 67.8786 68.6533 68.595C68.6917 69.3754 68.743 70.1558 68.8134 70.9362C68.8454 71.3328 68.9287 71.723 68.9863 72.1132C69.0311 72.4266 69.0759 72.7464 69.1271 73.0599C69.2744 73.9106 69.4985 74.7422 69.8251 75.5481C70.0748 76.1558 70.3821 76.7251 70.8303 77.2113C71.3362 77.7486 71.9444 78.0748 72.6936 78.1835C73.257 78.2667 73.7692 78.1068 74.2879 77.966C74.9089 77.7997 75.466 77.4799 76.0166 77.1601C76.8554 76.6675 77.611 76.0599 78.3601 75.4458C79.0452 74.8893 79.7879 74.4159 80.6075 74.0897C81.5999 73.6931 82.6244 73.6036 83.6425 73.981C84.1035 74.1537 84.5133 74.4287 84.8847 74.7677C85.5378 75.369 86.0307 76.0854 86.4533 76.8658C86.8567 77.6078 87.1641 78.3818 87.4202 79.175C87.8492 80.5055 88.1181 81.868 88.3166 83.2496C88.3678 83.627 88.3806 84.0172 88.4318 84.3946C88.5087 85.0023 88.5087 85.61 88.5535 86.2177C88.5983 86.8189 88.5983 87.4138 88.5919 88.0087C88.5855 88.6164 88.5407 89.2241 88.5023 89.8317C88.4638 90.4394 88.3998 91.0471 88.3294 91.6484C88.2078 92.787 87.9772 93.9064 87.6827 95.0066C87.3946 96.0748 87.0296 97.111 86.5174 98.0961C86.1588 98.7806 85.749 99.4394 85.2048 99.9895C84.6285 100.572 83.9754 101.051 83.1495 101.218C82.3683 101.371 81.5872 101.314 80.8316 101.039C79.9736 100.725 79.2053 100.252 78.4881 99.7017C77.8863 99.2411 77.2972 98.7614 76.6889 98.32C76.2599 98.013 75.799 97.7443 75.3187 97.5076C74.7681 97.2326 74.1918 97.0471 73.59 96.9128C72.9945 96.7784 72.4311 96.8616 71.8804 97.0919C71.1697 97.3797 70.6959 97.9234 70.2989 98.5567C69.8187 99.3243 69.5561 100.169 69.332 101.032C69.1399 101.806 69.0119 102.587 68.9222 103.38C68.8582 103.943 68.7942 104.512 68.7494 105.075C68.6854 105.938 68.6726 106.795 68.6405 107.659C68.6149 108.35 68.6021 109.041 68.6085 109.732C68.6149 110.672 68.6149 111.619 68.6597 112.559C68.6853 113.039 68.679 113.512 68.711 113.992C68.7558 114.683 68.7942 115.367 68.8198 116.058C68.8326 116.506 68.8966 116.953 68.9286 117.401C68.9543 117.721 68.9671 118.034 68.9799 118.354C68.9991 118.776 69.0119 119.205 69.0311 119.627C69.0503 119.998 69.0888 120.369 69.1208 120.74C69.1464 121.028 69.1656 121.322 69.1848 121.61C69.2104 121.994 69.2296 122.378 69.2552 122.761C69.2808 123.145 69.3128 123.529 69.3449 123.913C69.3513 123.977 69.364 124.047 69.364 124.111C69.3704 124.591 69.4281 125.064 69.4793 125.538C69.5049 125.787 69.5113 126.043 69.5305 126.292C69.5497 126.663 69.569 127.034 69.5882 127.405C69.6074 127.738 69.633 128.064 69.6586 128.397C69.6906 128.832 69.7162 129.267 69.7482 129.702C69.7738 130.034 69.7995 130.361 69.8187 130.693C69.8507 131.141 69.8827 131.589 69.9147 132.043C69.9467 132.452 69.9723 132.862 70.0043 133.271C70.0107 133.322 70.0172 133.373 70.0172 133.431C70.0364 133.866 70.0492 134.307 70.0748 134.742C70.1004 135.152 70.1324 135.561 70.1644 135.97C70.1644 135.983 70.1708 135.996 70.1708 136.009C70.19 136.552 70.2093 137.096 70.2349 137.64C70.2477 137.947 70.2797 138.248 70.2925 138.548C70.3117 138.855 70.2605 139.162 70.3437 139.463C70.3565 139.514 70.3501 139.572 70.3501 139.623C70.3629 140.633 70.3565 141.644 70.4077 142.648C70.4397 143.256 70.4461 143.87 70.4589 144.478C70.4589 144.593 70.4462 144.708 70.4398 144.81C70.2925 144.913 70.158 144.874 70.03 144.874C68.4164 144.874 66.8093 144.868 65.1958 144.868C63.0957 144.868 60.9891 144.874 58.8889 144.874C55.7643 144.874 52.6334 144.868 49.5087 144.868C49.3103 144.868 49.1118 144.868 48.9069 144.868C33.4183 144.868 17.9233 144.868 2.43476 144.868C2.19785 144.836 2.01217 144.855 1.79447 144.804Z" fill="#E65325" stroke="#FFFEF6" stroke-width="2" mask="url(#path-1-inside-1_2802_22195)"/>
</svg>
