<svg width="87" height="118" viewBox="0 0 87 118" fill="none" xmlns="http://www.w3.org/2000/svg">
<mask id="path-1-inside-1_2802_22187" fill="white">
<path d="M18.1305 114.516C18.1305 114.345 18.1305 114.237 18.1305 114.123C18.1432 113.572 18.1622 113.02 18.1749 112.468C18.1813 112.183 18.1749 111.904 18.1813 111.619C18.2003 110.826 18.1877 110.034 18.2448 109.242C18.3019 108.468 18.3082 107.688 18.3463 106.915C18.3717 106.42 18.4161 105.926 18.4415 105.431C18.4669 105.007 18.4732 104.582 18.4986 104.157C18.5176 103.764 18.543 103.365 18.5747 102.972C18.6001 102.579 18.6319 102.185 18.6636 101.786C18.7017 101.311 18.7397 100.829 18.7778 100.353C18.7968 100.1 18.8159 99.8462 18.8286 99.5926C18.8667 98.9459 18.8984 98.2929 18.9364 97.6463C18.9618 97.2786 18.9999 96.9172 19.0317 96.5495C19.0507 96.2959 19.0697 96.0424 19.0824 95.7888C19.1078 95.3957 19.1332 95.0027 19.1586 94.6033C19.1776 94.3243 19.1966 94.039 19.2157 93.7601C19.2601 93.1388 19.3109 92.5175 19.3553 91.9026C19.3807 91.5095 19.3934 91.1101 19.4187 90.717C19.4441 90.324 19.4759 89.9309 19.5012 89.5315C19.533 89.0814 19.5584 88.6313 19.5837 88.1748C19.6091 87.7945 19.6345 87.4141 19.6535 87.0337C19.6662 86.8372 19.6789 86.6406 19.6916 86.4378C19.7233 85.9179 19.7551 85.3917 19.7868 84.8719C19.7868 84.8465 19.7932 84.8148 19.7932 84.7895C19.8122 84.2252 19.8058 83.6547 19.8503 83.0904C19.9137 82.2536 19.863 81.4168 19.9137 80.5863C19.9645 79.7367 19.9391 78.8872 19.9455 78.0377C19.9518 77.4291 19.9328 76.8205 19.901 76.2119C19.863 75.5336 19.8059 74.8615 19.7487 74.1832C19.7043 73.6507 19.6599 73.1118 19.5774 72.5793C19.4314 71.5713 19.2283 70.5696 18.8857 69.606C18.6636 68.991 18.378 68.4014 17.9909 67.8752C17.4642 67.1589 16.7598 66.7151 15.8651 66.601C15.4082 66.5439 14.9639 66.6327 14.526 66.7595C13.3901 67.0764 12.3938 67.666 11.4547 68.3634C10.8645 68.8008 10.2933 69.27 9.70318 69.7137C9.13205 70.1385 8.51016 70.4745 7.84384 70.7281C6.92368 71.0768 5.99083 71.1148 5.05798 70.8359C4.76607 70.7471 4.48685 70.5823 4.22667 70.4238C3.69361 70.0878 3.2621 69.6377 2.88769 69.1368C2.23407 68.2556 1.76448 67.273 1.39007 66.2396C0.831632 64.7308 0.514338 63.1649 0.27954 61.58C0.184351 60.9523 0.165295 60.312 0.101836 59.6781C0.00664754 58.6447 -0.0124056 57.6113 0.00663205 56.578C0.0193238 56.0391 0.0637544 55.5066 0.0954839 54.9677C0.127213 54.5049 0.146279 54.0358 0.203392 53.573C0.374731 52.0958 0.647569 50.6377 1.07909 49.2113C1.30754 48.4505 1.58043 47.7088 1.92946 46.9924C2.36732 46.0985 2.90038 45.2617 3.6365 44.577C4.20763 44.0445 4.87395 43.6704 5.65449 43.5626C6.43504 43.4549 7.20288 43.55 7.94535 43.8416C8.70052 44.1395 9.38589 44.5706 10.0268 45.0588C10.5662 45.4709 11.1056 45.883 11.645 46.295C12.2923 46.7832 12.9967 47.1762 13.7392 47.5122C14.1643 47.7088 14.6212 47.8165 15.0845 47.899C15.8777 48.0448 16.5948 47.8546 17.2485 47.3981C17.7498 47.0495 18.0988 46.574 18.3907 46.0478C18.9745 44.9764 19.2728 43.8099 19.4759 42.618C19.5774 42.0031 19.6535 41.3881 19.7424 40.7732C19.7551 40.6908 19.7424 40.602 19.7551 40.5196C19.8249 39.8286 19.8185 39.1375 19.9074 38.4465C19.9137 38.3895 19.9137 38.3324 19.9137 38.2754C19.9328 37.0835 19.9581 35.898 19.9581 34.7061C19.9581 33.882 19.9582 33.0642 19.9074 32.24C19.8566 31.4222 19.8439 30.598 19.7995 29.7802C19.7614 29.0068 19.7043 28.227 19.6599 27.4536C19.6345 26.9908 19.6345 26.5216 19.5901 26.0588C19.5584 25.7228 19.5393 25.3805 19.5203 25.0445C19.5012 24.6768 19.4505 24.3154 19.4314 23.9477C19.4061 23.5356 19.3933 23.1299 19.368 22.7178C19.3426 22.3374 19.3045 21.9571 19.2728 21.5767C19.2538 21.3231 19.2347 21.0695 19.222 20.8159C19.203 20.4609 19.1903 20.1122 19.1649 19.7572C19.1395 19.4085 19.1078 19.0535 19.0824 18.7048C19.0507 18.3118 19.0253 17.9187 18.9999 17.5193C18.9745 17.1643 18.9555 16.8156 18.9301 16.4606C18.8984 16.0231 18.873 15.5857 18.8413 15.1483C18.8159 14.7806 18.7842 14.4129 18.7524 14.0515C18.7461 13.9944 18.7461 13.9374 18.7397 13.8803C18.7017 13.3732 18.6636 12.866 18.6255 12.3588C18.6065 12.0609 18.5874 11.7629 18.5684 11.4713C18.543 11.0338 18.5303 10.5964 18.5049 10.159C18.4795 9.70884 18.4415 9.25872 18.4097 8.80227C18.4097 8.75789 18.4034 8.71985 18.4034 8.67548C18.3844 8.12392 18.3717 7.57237 18.3526 7.02082C18.3399 6.59607 18.3526 6.17131 18.2955 5.74655C18.232 5.25206 18.2828 4.75757 18.2321 4.26307C18.1559 3.52767 18.2194 2.79227 18.1749 2.05687C18.1432 1.518 18.1369 0.979124 18.1369 0.446592C18.1369 0.319799 18.1496 0.193007 18.1559 0.0471951C18.2701 0.0281761 18.359 0.00915729 18.4542 0.00281763C18.6128 -0.00352203 18.7651 0.00281763 18.9238 0.00281763C38.8182 0.00281763 58.7125 0.00281763 78.6069 0.00281763C81.1199 0.00281763 83.6329 0.00281415 86.1395 0.00915381C86.3045 0.00915381 86.4758 -0.0225433 86.6345 0.0598723C86.6535 0.11059 86.6725 0.14863 86.6725 0.186668C86.6789 38.2246 86.6789 76.2626 86.6789 114.301C86.6789 114.358 86.6599 114.408 86.6472 114.484C86.5329 114.497 86.425 114.516 86.3172 114.516C85.3843 114.51 84.4515 114.592 83.525 114.706C82.4589 114.833 81.3928 114.992 80.333 115.156C79.4128 115.302 78.4927 115.467 77.5725 115.651C76.462 115.873 75.3578 116.133 74.2473 116.348C73.0543 116.577 71.8485 116.773 70.6555 116.995C69.6655 117.179 68.6692 117.299 67.6729 117.401C67.1652 117.451 66.6639 117.521 66.1499 117.496C65.9405 117.489 65.7311 117.527 65.5153 117.54C65.3757 117.546 65.2298 117.559 65.0902 117.547C64.1764 117.464 63.2562 117.407 62.3614 117.172C61.2382 116.874 60.3117 116.291 59.601 115.372C59.2773 114.954 59.0552 114.484 58.8775 113.984C58.6618 113.362 58.5602 112.728 58.4841 112.075C58.4143 111.435 58.4143 110.801 58.4524 110.167C58.5158 108.912 58.6871 107.663 58.9664 106.433C59.1758 105.52 59.3915 104.614 59.62 103.707C59.7342 103.238 59.8802 102.781 60.0198 102.319C60.4196 100.962 60.7051 99.5735 60.9019 98.1725C61.0732 96.9489 61.1303 95.719 61.0605 94.4891C60.9653 92.714 60.6099 90.9833 59.8294 89.3667C59.3154 88.2953 58.6554 87.3317 57.7924 86.5138C57.1832 85.9369 56.4978 85.4615 55.7426 85.0874C55.1398 84.7895 54.5052 84.5866 53.8579 84.4408C53.5406 84.371 53.217 84.333 52.8933 84.3203C52.3539 84.3013 51.8146 84.2886 51.2815 84.3774C50.6406 84.4915 50.0123 84.6627 49.4095 84.9163C48.6035 85.2586 47.8864 85.7277 47.2265 86.292C46.814 86.6406 46.4523 87.04 46.1223 87.4648C45.2719 88.5552 44.7008 89.7724 44.3074 91.0911C44.0472 91.966 43.9076 92.8535 43.7806 93.7538C43.7362 94.1024 43.7299 94.4574 43.7235 94.8125C43.7172 95.1802 43.7235 95.5479 43.7235 95.9156C43.7108 96.727 43.806 97.5258 43.9139 98.3246C44.1423 100.043 44.5929 101.71 45.0688 103.371C45.329 104.271 45.5258 105.184 45.7542 106.084C46.0207 107.143 46.1604 108.221 46.2873 109.305C46.3825 110.11 46.4078 110.915 46.3571 111.72C46.3127 112.354 46.2428 112.988 46.0588 113.603C45.7796 114.561 45.3163 115.41 44.5548 116.076C43.9583 116.589 43.273 116.951 42.5051 117.153C41.9974 117.287 41.4834 117.369 40.9567 117.426C40.4935 117.477 40.0302 117.534 39.567 117.547C39.3131 117.553 39.0593 117.489 38.8054 117.502C38.1518 117.527 37.5045 117.445 36.8573 117.382C36.2798 117.331 35.7023 117.249 35.1312 117.16C34.3062 117.033 33.4876 116.887 32.6626 116.735C31.6346 116.545 30.6066 116.336 29.5785 116.133C28.9503 116.012 28.3284 115.885 27.7001 115.765C27.1036 115.651 26.5071 115.537 25.9106 115.423C24.7176 115.194 23.5118 115.004 22.3061 114.833C21.589 114.732 20.8719 114.662 20.1549 114.592C19.6472 114.541 19.1395 114.542 18.6319 114.516C18.4986 114.529 18.3463 114.522 18.1305 114.516Z"/>
</mask>
<path d="M18.1305 114.516C18.1305 114.345 18.1305 114.237 18.1305 114.123C18.1432 113.572 18.1622 113.02 18.1749 112.468C18.1813 112.183 18.1749 111.904 18.1813 111.619C18.2003 110.826 18.1877 110.034 18.2448 109.242C18.3019 108.468 18.3082 107.688 18.3463 106.915C18.3717 106.42 18.4161 105.926 18.4415 105.431C18.4669 105.007 18.4732 104.582 18.4986 104.157C18.5176 103.764 18.543 103.365 18.5747 102.972C18.6001 102.579 18.6319 102.185 18.6636 101.786C18.7017 101.311 18.7397 100.829 18.7778 100.353C18.7968 100.1 18.8159 99.8462 18.8286 99.5926C18.8667 98.9459 18.8984 98.2929 18.9364 97.6463C18.9618 97.2786 18.9999 96.9172 19.0317 96.5495C19.0507 96.2959 19.0697 96.0424 19.0824 95.7888C19.1078 95.3957 19.1332 95.0027 19.1586 94.6033C19.1776 94.3243 19.1966 94.039 19.2157 93.7601C19.2601 93.1388 19.3109 92.5175 19.3553 91.9026C19.3807 91.5095 19.3934 91.1101 19.4187 90.717C19.4441 90.324 19.4759 89.9309 19.5012 89.5315C19.533 89.0814 19.5584 88.6313 19.5837 88.1748C19.6091 87.7945 19.6345 87.4141 19.6535 87.0337C19.6662 86.8372 19.6789 86.6406 19.6916 86.4378C19.7233 85.9179 19.7551 85.3917 19.7868 84.8719C19.7868 84.8465 19.7932 84.8148 19.7932 84.7895C19.8122 84.2252 19.8058 83.6547 19.8503 83.0904C19.9137 82.2536 19.863 81.4168 19.9137 80.5863C19.9645 79.7367 19.9391 78.8872 19.9455 78.0377C19.9518 77.4291 19.9328 76.8205 19.901 76.2119C19.863 75.5336 19.8059 74.8615 19.7487 74.1832C19.7043 73.6507 19.6599 73.1118 19.5774 72.5793C19.4314 71.5713 19.2283 70.5696 18.8857 69.606C18.6636 68.991 18.378 68.4014 17.9909 67.8752C17.4642 67.1589 16.7598 66.7151 15.8651 66.601C15.4082 66.5439 14.9639 66.6327 14.526 66.7595C13.3901 67.0764 12.3938 67.666 11.4547 68.3634C10.8645 68.8008 10.2933 69.27 9.70318 69.7137C9.13205 70.1385 8.51016 70.4745 7.84384 70.7281C6.92368 71.0768 5.99083 71.1148 5.05798 70.8359C4.76607 70.7471 4.48685 70.5823 4.22667 70.4238C3.69361 70.0878 3.2621 69.6377 2.88769 69.1368C2.23407 68.2556 1.76448 67.273 1.39007 66.2396C0.831632 64.7308 0.514338 63.1649 0.27954 61.58C0.184351 60.9523 0.165295 60.312 0.101836 59.6781C0.00664754 58.6447 -0.0124056 57.6113 0.00663205 56.578C0.0193238 56.0391 0.0637544 55.5066 0.0954839 54.9677C0.127213 54.5049 0.146279 54.0358 0.203392 53.573C0.374731 52.0958 0.647569 50.6377 1.07909 49.2113C1.30754 48.4505 1.58043 47.7088 1.92946 46.9924C2.36732 46.0985 2.90038 45.2617 3.6365 44.577C4.20763 44.0445 4.87395 43.6704 5.65449 43.5626C6.43504 43.4549 7.20288 43.55 7.94535 43.8416C8.70052 44.1395 9.38589 44.5706 10.0268 45.0588C10.5662 45.4709 11.1056 45.883 11.645 46.295C12.2923 46.7832 12.9967 47.1762 13.7392 47.5122C14.1643 47.7088 14.6212 47.8165 15.0845 47.899C15.8777 48.0448 16.5948 47.8546 17.2485 47.3981C17.7498 47.0495 18.0988 46.574 18.3907 46.0478C18.9745 44.9764 19.2728 43.8099 19.4759 42.618C19.5774 42.0031 19.6535 41.3881 19.7424 40.7732C19.7551 40.6908 19.7424 40.602 19.7551 40.5196C19.8249 39.8286 19.8185 39.1375 19.9074 38.4465C19.9137 38.3895 19.9137 38.3324 19.9137 38.2754C19.9328 37.0835 19.9581 35.898 19.9581 34.7061C19.9581 33.882 19.9582 33.0642 19.9074 32.24C19.8566 31.4222 19.8439 30.598 19.7995 29.7802C19.7614 29.0068 19.7043 28.227 19.6599 27.4536C19.6345 26.9908 19.6345 26.5216 19.5901 26.0588C19.5584 25.7228 19.5393 25.3805 19.5203 25.0445C19.5012 24.6768 19.4505 24.3154 19.4314 23.9477C19.4061 23.5356 19.3933 23.1299 19.368 22.7178C19.3426 22.3374 19.3045 21.9571 19.2728 21.5767C19.2538 21.3231 19.2347 21.0695 19.222 20.8159C19.203 20.4609 19.1903 20.1122 19.1649 19.7572C19.1395 19.4085 19.1078 19.0535 19.0824 18.7048C19.0507 18.3118 19.0253 17.9187 18.9999 17.5193C18.9745 17.1643 18.9555 16.8156 18.9301 16.4606C18.8984 16.0231 18.873 15.5857 18.8413 15.1483C18.8159 14.7806 18.7842 14.4129 18.7524 14.0515C18.7461 13.9944 18.7461 13.9374 18.7397 13.8803C18.7017 13.3732 18.6636 12.866 18.6255 12.3588C18.6065 12.0609 18.5874 11.7629 18.5684 11.4713C18.543 11.0338 18.5303 10.5964 18.5049 10.159C18.4795 9.70884 18.4415 9.25872 18.4097 8.80227C18.4097 8.75789 18.4034 8.71985 18.4034 8.67548C18.3844 8.12392 18.3717 7.57237 18.3526 7.02082C18.3399 6.59607 18.3526 6.17131 18.2955 5.74655C18.232 5.25206 18.2828 4.75757 18.2321 4.26307C18.1559 3.52767 18.2194 2.79227 18.1749 2.05687C18.1432 1.518 18.1369 0.979124 18.1369 0.446592C18.1369 0.319799 18.1496 0.193007 18.1559 0.0471951C18.2701 0.0281761 18.359 0.00915729 18.4542 0.00281763C18.6128 -0.00352203 18.7651 0.00281763 18.9238 0.00281763C38.8182 0.00281763 58.7125 0.00281763 78.6069 0.00281763C81.1199 0.00281763 83.6329 0.00281415 86.1395 0.00915381C86.3045 0.00915381 86.4758 -0.0225433 86.6345 0.0598723C86.6535 0.11059 86.6725 0.14863 86.6725 0.186668C86.6789 38.2246 86.6789 76.2626 86.6789 114.301C86.6789 114.358 86.6599 114.408 86.6472 114.484C86.5329 114.497 86.425 114.516 86.3172 114.516C85.3843 114.51 84.4515 114.592 83.525 114.706C82.4589 114.833 81.3928 114.992 80.333 115.156C79.4128 115.302 78.4927 115.467 77.5725 115.651C76.462 115.873 75.3578 116.133 74.2473 116.348C73.0543 116.577 71.8485 116.773 70.6555 116.995C69.6655 117.179 68.6692 117.299 67.6729 117.401C67.1652 117.451 66.6639 117.521 66.1499 117.496C65.9405 117.489 65.7311 117.527 65.5153 117.54C65.3757 117.546 65.2298 117.559 65.0902 117.547C64.1764 117.464 63.2562 117.407 62.3614 117.172C61.2382 116.874 60.3117 116.291 59.601 115.372C59.2773 114.954 59.0552 114.484 58.8775 113.984C58.6618 113.362 58.5602 112.728 58.4841 112.075C58.4143 111.435 58.4143 110.801 58.4524 110.167C58.5158 108.912 58.6871 107.663 58.9664 106.433C59.1758 105.52 59.3915 104.614 59.62 103.707C59.7342 103.238 59.8802 102.781 60.0198 102.319C60.4196 100.962 60.7051 99.5735 60.9019 98.1725C61.0732 96.9489 61.1303 95.719 61.0605 94.4891C60.9653 92.714 60.6099 90.9833 59.8294 89.3667C59.3154 88.2953 58.6554 87.3317 57.7924 86.5138C57.1832 85.9369 56.4978 85.4615 55.7426 85.0874C55.1398 84.7895 54.5052 84.5866 53.8579 84.4408C53.5406 84.371 53.217 84.333 52.8933 84.3203C52.3539 84.3013 51.8146 84.2886 51.2815 84.3774C50.6406 84.4915 50.0123 84.6627 49.4095 84.9163C48.6035 85.2586 47.8864 85.7277 47.2265 86.292C46.814 86.6406 46.4523 87.04 46.1223 87.4648C45.2719 88.5552 44.7008 89.7724 44.3074 91.0911C44.0472 91.966 43.9076 92.8535 43.7806 93.7538C43.7362 94.1024 43.7299 94.4574 43.7235 94.8125C43.7172 95.1802 43.7235 95.5479 43.7235 95.9156C43.7108 96.727 43.806 97.5258 43.9139 98.3246C44.1423 100.043 44.5929 101.71 45.0688 103.371C45.329 104.271 45.5258 105.184 45.7542 106.084C46.0207 107.143 46.1604 108.221 46.2873 109.305C46.3825 110.11 46.4078 110.915 46.3571 111.72C46.3127 112.354 46.2428 112.988 46.0588 113.603C45.7796 114.561 45.3163 115.41 44.5548 116.076C43.9583 116.589 43.273 116.951 42.5051 117.153C41.9974 117.287 41.4834 117.369 40.9567 117.426C40.4935 117.477 40.0302 117.534 39.567 117.547C39.3131 117.553 39.0593 117.489 38.8054 117.502C38.1518 117.527 37.5045 117.445 36.8573 117.382C36.2798 117.331 35.7023 117.249 35.1312 117.16C34.3062 117.033 33.4876 116.887 32.6626 116.735C31.6346 116.545 30.6066 116.336 29.5785 116.133C28.9503 116.012 28.3284 115.885 27.7001 115.765C27.1036 115.651 26.5071 115.537 25.9106 115.423C24.7176 115.194 23.5118 115.004 22.3061 114.833C21.589 114.732 20.8719 114.662 20.1549 114.592C19.6472 114.541 19.1395 114.542 18.6319 114.516C18.4986 114.529 18.3463 114.522 18.1305 114.516Z" fill="#E65325" stroke="#FFFEF6" stroke-width="2" mask="url(#path-1-inside-1_2802_22187)"/>
</svg>
