<svg width="89" height="146" viewBox="0 0 89 146" fill="none" xmlns="http://www.w3.org/2000/svg">
<mask id="path-1-inside-1_2802_22191" fill="white">
<path d="M1.84044 30.305C2.18109 30.2483 2.47128 30.2609 2.75515 30.2798C3.35444 30.324 3.96002 30.3744 4.55931 30.4248C4.75486 30.4437 4.95043 30.4689 5.13968 30.4941C5.94714 30.6012 6.7609 30.6832 7.56205 30.8218C8.67862 31.0046 9.78888 31.2188 10.8991 31.4331C12.1292 31.6663 13.3594 31.9058 14.5895 32.1389C15.7313 32.3595 16.8731 32.5864 18.0149 32.7817C18.8917 32.933 19.7749 33.0528 20.658 33.1473C21.6043 33.2481 22.5505 33.33 23.5031 33.2985C24.4998 33.2733 25.4902 33.1536 26.449 32.87C27.389 32.5927 28.2406 32.1453 28.9345 31.4394C29.4392 30.929 29.8176 30.3303 30.0889 29.6685C30.3665 28.9942 30.5242 28.2884 30.6125 27.5636C30.6882 26.946 30.6566 26.3284 30.663 25.7108C30.6693 24.6332 30.5242 23.5744 30.3223 22.522C30.234 22.0493 30.152 21.5704 30.0321 21.104C29.7987 20.1524 29.5527 19.2008 29.2941 18.2555C28.9408 16.9761 28.5686 15.6968 28.3541 14.386C28.2153 13.5415 28.1207 12.6844 28.0576 11.8273C28.0198 11.2854 28.0072 10.7434 28.0198 10.2014C28.0576 8.87167 28.2027 7.55454 28.6002 6.28152C29.0165 4.95808 29.6221 3.72917 30.5242 2.67042C30.9216 2.19776 31.3695 1.76923 31.8868 1.41631C32.7195 0.849124 33.5963 0.389078 34.5867 0.181109C36.4729 -0.222224 38.2455 0.0424674 39.9046 1.03189C41.3555 1.89528 42.3774 3.12419 43.1218 4.61778C43.7274 5.83408 44.0681 7.12599 44.2573 8.46203C44.3267 8.9662 44.3645 9.48298 44.3708 9.99345C44.3772 10.7308 44.3898 11.4744 44.3204 12.2118C44.2068 13.4596 44.0302 14.6948 43.7211 15.9111C43.5823 16.4342 43.4561 16.9635 43.3174 17.4866C43.1155 18.2303 42.8947 18.9676 42.6992 19.7112C42.3396 21.0851 42.0431 22.4653 41.8665 23.8769C41.7971 24.4441 41.7277 25.0113 41.734 25.5911C41.7403 25.9377 41.734 26.2843 41.734 26.6309C41.734 27.6204 41.898 28.5846 42.2513 29.511C42.7181 30.7399 43.494 31.7167 44.6547 32.3532C45.254 32.6809 45.8911 32.9078 46.5661 33.0339C47.1591 33.141 47.7521 33.2292 48.3577 33.2607C48.7677 33.2859 49.1714 33.3111 49.5752 33.3048C50.042 33.2922 50.5088 33.2481 50.9756 33.2229C51.9534 33.1599 52.9249 33.0149 53.8963 32.8763C54.2685 32.8196 54.6407 32.7629 55.0129 32.6935C56.1673 32.473 57.3217 32.2398 58.4825 32.0192C60.3182 31.6663 62.1602 31.3197 64.0022 30.9794C65.1314 30.7714 66.2669 30.6202 67.4087 30.4941C68.2918 30.3996 69.175 30.3113 70.0645 30.2861C70.2159 30.2798 70.3609 30.2924 70.5313 30.2987C70.5565 30.4059 70.588 30.4878 70.588 30.576C70.5754 31.1054 70.607 31.6285 70.5439 32.1579C70.4934 32.5927 70.5439 33.0339 70.5313 33.4687C70.506 34.2817 70.5186 35.0946 70.4366 35.9076C70.4303 35.9832 70.4366 36.0588 70.4303 36.1345C70.3988 36.8718 70.3609 37.6092 70.3294 38.3465C70.3105 38.8444 70.3105 39.3422 70.26 39.8338C70.2159 40.2812 70.2537 40.735 70.1654 41.1824C70.1023 41.5038 70.1149 41.8442 70.096 42.1719C70.0455 43.0731 70.0014 43.9743 69.9446 44.8818C69.9004 45.5435 69.8374 46.2052 69.7869 46.8606C69.7427 47.4908 69.7112 48.121 69.667 48.7512C69.6229 49.3373 69.5661 49.9234 69.5219 50.5095C69.4967 50.8372 69.4778 51.1712 69.4588 51.4989C69.4084 52.2363 69.3579 52.9736 69.3075 53.7047C69.2822 54.1395 69.2633 54.5744 69.2318 55.0092C69.1813 55.715 69.1245 56.4209 69.0803 57.1267C69.0614 57.4103 69.0551 57.7002 69.0362 57.9838C69.011 58.4501 68.992 58.9165 68.9668 59.3828C68.9353 59.9563 68.9037 60.5235 68.8722 61.097C68.8659 61.2167 68.8722 61.3365 68.8659 61.4625C68.8532 61.8091 68.8785 62.1495 68.8028 62.4961C68.7523 62.7292 68.7902 62.975 68.7902 63.2208C68.7712 64.3678 68.746 65.5148 68.746 66.6617C68.746 67.355 68.7334 68.0545 68.8028 68.7414C68.8722 69.4158 68.8848 70.0901 68.9542 70.7644C69.0425 71.6215 69.1245 72.4723 69.3011 73.3167C69.4525 74.0415 69.6039 74.7662 69.8815 75.4531C70.1275 76.0581 70.3988 76.6442 70.8151 77.1547C71.345 77.7975 72.0011 78.1945 72.8464 78.3017C73.5971 78.3962 74.291 78.2009 74.9534 77.9173C75.8176 77.5517 76.6251 77.0728 77.3757 76.5056C77.7479 76.222 78.1201 75.9321 78.4797 75.6359C79.1547 75.0687 79.8991 74.6087 80.7065 74.262C81.0345 74.1171 81.3941 74.0226 81.7474 73.9469C82.3782 73.8146 83.0027 73.8398 83.6209 74.0415C84.195 74.2305 84.687 74.533 85.1286 74.9364C85.7153 75.472 86.1632 76.1149 86.548 76.8018C87.3365 78.1945 87.7844 79.7133 88.1377 81.2637C88.3585 82.2531 88.472 83.2551 88.6234 84.2508C88.6486 84.4273 88.6549 84.6101 88.6676 84.7928C88.6928 85.2466 88.7243 85.694 88.7369 86.1478C88.7622 86.7969 88.7874 87.446 88.7874 88.0951C88.7874 88.7442 88.7306 89.387 88.6991 90.0361C88.6549 90.9562 88.5288 91.8637 88.39 92.7712C88.2197 93.893 87.961 94.9896 87.6078 96.0672C87.3491 96.8424 87.059 97.6049 86.6805 98.3234C86.3398 98.9662 85.9487 99.5775 85.4503 100.107C84.8006 100.787 84.0436 101.304 83.0847 101.43C82.3404 101.531 81.6023 101.456 80.9021 101.172C80.0568 100.832 79.2871 100.359 78.568 99.7918C77.8236 99.1994 77.0919 98.5881 76.2655 98.1091C75.4896 97.6554 74.6884 97.2772 73.8116 97.0882C73.0987 96.9306 72.4237 97.0441 71.7866 97.3529C71.3892 97.5419 71.0864 97.8759 70.8025 98.2099C70.4934 98.5692 70.2726 98.9788 70.0834 99.4136C69.585 100.573 69.3011 101.79 69.1434 103.037C69.0677 103.617 68.9983 104.203 68.9416 104.789C68.9037 105.193 68.9289 105.609 68.8659 106.006C68.7523 106.768 68.8091 107.543 68.7712 108.306C68.7271 109.176 68.7839 110.058 68.7902 110.934C68.7965 111.432 68.7965 111.93 68.7965 112.427C68.7965 112.654 68.7712 112.881 68.8533 113.102C68.8722 113.14 68.8659 113.19 68.8659 113.234C68.8848 113.808 68.8848 114.381 68.9226 114.955C68.9605 115.509 68.9416 116.07 69.0173 116.625C69.0614 116.94 69.0551 117.255 69.0677 117.57C69.0867 118.024 69.1056 118.471 69.1308 118.925C69.1561 119.347 69.1939 119.763 69.2191 120.185C69.2444 120.589 69.2633 120.998 69.2948 121.402C69.3264 121.824 69.3642 122.24 69.3958 122.662C69.4147 122.92 69.4336 123.172 69.4462 123.431C69.4652 123.809 69.4841 124.181 69.503 124.559C69.5219 124.874 69.5409 125.189 69.5598 125.504C69.6103 126.223 69.6544 126.947 69.7112 127.666C69.7427 128.038 69.7932 128.41 69.831 128.788C69.8563 129.04 69.8626 129.298 69.8752 129.556C69.913 130.218 69.9446 130.88 69.9887 131.542C70.0329 132.216 70.0897 132.89 70.1402 133.571C70.1717 134.018 70.1906 134.472 70.2159 134.926C70.2411 135.361 70.2789 135.796 70.3105 136.23C70.3105 136.262 70.3168 136.293 70.3168 136.319C70.3357 136.861 70.3546 137.403 70.3799 137.945C70.4051 138.543 70.4429 139.148 70.4808 139.747C70.4808 139.778 70.4808 139.81 70.4808 139.835C70.4934 140.755 70.506 141.675 70.5249 142.595C70.5376 143.257 70.5628 143.919 70.5817 144.587C70.588 144.738 70.5754 144.883 70.5691 145.06C70.4682 145.079 70.3862 145.104 70.2979 145.11C70.178 145.116 70.0581 145.116 69.932 145.116C63.384 145.116 56.8297 145.116 50.2817 145.116C43.3237 145.116 36.3656 145.116 29.4013 145.116C20.412 145.116 11.429 145.116 2.43974 145.116C2.24418 145.116 2.04863 145.148 1.83415 145.072C1.82153 144.99 1.8026 144.908 1.78998 144.82C1.78368 144.745 1.78998 144.669 1.78998 144.593C1.77737 143.402 1.78366 142.205 1.73951 141.014C1.72058 140.503 1.7332 139.986 1.68273 139.476C1.61334 138.726 1.61335 137.97 1.5755 137.22C1.53766 136.438 1.46826 135.657 1.4178 134.875C1.39256 134.516 1.37995 134.151 1.36103 133.791C1.31056 133.01 1.26008 132.229 1.20961 131.447C1.15284 130.533 1.10238 129.613 1.0393 128.699C0.99514 128.069 0.938371 127.439 0.887905 126.809C0.862672 126.506 0.856366 126.204 0.831133 125.908C0.799592 125.46 0.749111 125.006 0.717569 124.559C0.692336 124.256 0.679722 123.96 0.660797 123.658C0.641872 123.28 0.622944 122.908 0.597711 122.53C0.547244 121.868 0.49047 121.213 0.440004 120.551C0.421079 120.292 0.414772 120.04 0.402156 119.782C0.376923 119.328 0.358007 118.881 0.332774 118.427C0.313849 118.099 0.288612 117.765 0.269687 117.438C0.219221 116.644 0.168761 115.843 0.118295 115.049C0.118295 115.037 0.118295 115.018 0.118295 115.005C0.09937 114.324 0.0930578 113.65 0.0552082 112.969C-0.0394159 111.129 0.0299705 109.289 0.0110456 107.442C0.00473737 106.812 0.0678294 106.176 0.0993707 105.546C0.111987 105.287 0.130904 105.035 0.149828 104.777C0.225528 103.705 0.364304 102.647 0.597711 101.6C0.774342 100.806 1.00775 100.025 1.38625 99.2939C1.63227 98.8149 1.94769 98.399 2.36404 98.0587C2.793 97.7058 3.29766 97.5608 3.84017 97.5734C4.46469 97.5861 5.06398 97.731 5.63172 98.002C6.63474 98.4809 7.53682 99.1048 8.40736 99.7918C8.9751 100.239 9.53654 100.706 10.1674 101.065C10.8802 101.468 11.612 101.815 12.4384 101.941C13.6495 102.13 14.7472 101.871 15.7313 101.147C16.4757 100.598 17.0245 99.8863 17.4976 99.1048C18.1852 97.9705 18.6583 96.7542 19.0053 95.4811C19.327 94.2838 19.5856 93.08 19.7307 91.8448C19.8253 91.0382 19.8884 90.2252 19.9452 89.4186C19.9957 88.6938 19.9767 87.9691 19.9894 87.2443C20.002 86.5196 19.9326 85.8011 19.8821 85.0764C19.838 84.4147 19.7623 83.7593 19.6739 83.0976C19.5036 81.8687 19.245 80.665 18.8917 79.4739C18.6457 78.6483 18.3366 77.8479 17.9581 77.0728C17.6111 76.367 17.2011 75.6926 16.6838 75.1002C15.9962 74.3125 15.1888 73.7012 14.1353 73.4554C13.3972 73.2789 12.6718 73.3104 11.94 73.4995C10.9748 73.7579 10.1232 74.2431 9.32836 74.8292C8.6723 75.3145 8.0478 75.8376 7.39174 76.3165C6.69782 76.827 5.94713 77.2555 5.13336 77.558C4.58454 77.766 4.01049 77.7975 3.43643 77.7597C3.06425 77.7345 2.74253 77.5706 2.43974 77.3627C1.99185 77.0539 1.70167 76.619 1.43672 76.1527C1.08346 75.5288 0.868982 74.8481 0.69235 74.1675C0.446327 73.2348 0.313847 72.2769 0.212915 71.319C0.156141 70.7329 0.0930578 70.1531 0.0552082 69.567C0.0236668 69.0691 0.0110395 68.5713 0.00473121 68.0734C-0.00157707 66.8823 -0.00157707 65.6849 0.00473121 64.4938C0.0110395 63.5296 0.0236607 62.5591 0.0488938 61.5949C0.0678186 60.8449 0.0930602 60.0887 0.156143 59.3387C0.206609 58.7085 0.23814 58.0783 0.263373 57.4418C0.282298 57.0196 0.345395 56.6036 0.376936 56.1877C0.402169 55.9167 0.408463 55.6457 0.42108 55.3747C0.440005 54.9714 0.458933 54.5617 0.484166 54.1584C0.509399 53.7677 0.547258 53.377 0.572491 52.9862C0.610341 52.3875 0.641878 51.7825 0.686036 51.1838C0.717577 50.7364 0.76173 50.2826 0.79958 49.8352C0.818505 49.5831 0.837427 49.3247 0.856352 49.0663C0.894202 48.4487 0.925739 47.8311 0.969897 47.2135C1.01405 46.5833 1.06453 45.9531 1.11499 45.3229C1.14023 44.9637 1.16546 44.6045 1.19069 44.2389C1.21592 43.8608 1.22224 43.489 1.25378 43.1109C1.27901 42.7201 1.32948 42.3294 1.35471 41.945C1.37994 41.6614 1.39255 41.3715 1.40517 41.0879C1.42409 40.6342 1.43673 40.1867 1.46196 39.733C1.4935 39.2351 1.53764 38.7435 1.56288 38.2457C1.58811 37.7163 1.5692 37.1869 1.61967 36.6638C1.68906 35.9706 1.63228 35.2774 1.73321 34.5905C1.74583 34.5148 1.73951 34.4392 1.73951 34.3636C1.75212 33.1536 1.76474 31.9499 1.78367 30.7399C1.81521 30.6012 1.83413 30.4689 1.84044 30.305Z"/>
</mask>
<path d="M1.84044 30.305C2.18109 30.2483 2.47128 30.2609 2.75515 30.2798C3.35444 30.324 3.96002 30.3744 4.55931 30.4248C4.75486 30.4437 4.95043 30.4689 5.13968 30.4941C5.94714 30.6012 6.7609 30.6832 7.56205 30.8218C8.67862 31.0046 9.78888 31.2188 10.8991 31.4331C12.1292 31.6663 13.3594 31.9058 14.5895 32.1389C15.7313 32.3595 16.8731 32.5864 18.0149 32.7817C18.8917 32.933 19.7749 33.0528 20.658 33.1473C21.6043 33.2481 22.5505 33.33 23.5031 33.2985C24.4998 33.2733 25.4902 33.1536 26.449 32.87C27.389 32.5927 28.2406 32.1453 28.9345 31.4394C29.4392 30.929 29.8176 30.3303 30.0889 29.6685C30.3665 28.9942 30.5242 28.2884 30.6125 27.5636C30.6882 26.946 30.6566 26.3284 30.663 25.7108C30.6693 24.6332 30.5242 23.5744 30.3223 22.522C30.234 22.0493 30.152 21.5704 30.0321 21.104C29.7987 20.1524 29.5527 19.2008 29.2941 18.2555C28.9408 16.9761 28.5686 15.6968 28.3541 14.386C28.2153 13.5415 28.1207 12.6844 28.0576 11.8273C28.0198 11.2854 28.0072 10.7434 28.0198 10.2014C28.0576 8.87167 28.2027 7.55454 28.6002 6.28152C29.0165 4.95808 29.6221 3.72917 30.5242 2.67042C30.9216 2.19776 31.3695 1.76923 31.8868 1.41631C32.7195 0.849124 33.5963 0.389078 34.5867 0.181109C36.4729 -0.222224 38.2455 0.0424674 39.9046 1.03189C41.3555 1.89528 42.3774 3.12419 43.1218 4.61778C43.7274 5.83408 44.0681 7.12599 44.2573 8.46203C44.3267 8.9662 44.3645 9.48298 44.3708 9.99345C44.3772 10.7308 44.3898 11.4744 44.3204 12.2118C44.2068 13.4596 44.0302 14.6948 43.7211 15.9111C43.5823 16.4342 43.4561 16.9635 43.3174 17.4866C43.1155 18.2303 42.8947 18.9676 42.6992 19.7112C42.3396 21.0851 42.0431 22.4653 41.8665 23.8769C41.7971 24.4441 41.7277 25.0113 41.734 25.5911C41.7403 25.9377 41.734 26.2843 41.734 26.6309C41.734 27.6204 41.898 28.5846 42.2513 29.511C42.7181 30.7399 43.494 31.7167 44.6547 32.3532C45.254 32.6809 45.8911 32.9078 46.5661 33.0339C47.1591 33.141 47.7521 33.2292 48.3577 33.2607C48.7677 33.2859 49.1714 33.3111 49.5752 33.3048C50.042 33.2922 50.5088 33.2481 50.9756 33.2229C51.9534 33.1599 52.9249 33.0149 53.8963 32.8763C54.2685 32.8196 54.6407 32.7629 55.0129 32.6935C56.1673 32.473 57.3217 32.2398 58.4825 32.0192C60.3182 31.6663 62.1602 31.3197 64.0022 30.9794C65.1314 30.7714 66.2669 30.6202 67.4087 30.4941C68.2918 30.3996 69.175 30.3113 70.0645 30.2861C70.2159 30.2798 70.3609 30.2924 70.5313 30.2987C70.5565 30.4059 70.588 30.4878 70.588 30.576C70.5754 31.1054 70.607 31.6285 70.5439 32.1579C70.4934 32.5927 70.5439 33.0339 70.5313 33.4687C70.506 34.2817 70.5186 35.0946 70.4366 35.9076C70.4303 35.9832 70.4366 36.0588 70.4303 36.1345C70.3988 36.8718 70.3609 37.6092 70.3294 38.3465C70.3105 38.8444 70.3105 39.3422 70.26 39.8338C70.2159 40.2812 70.2537 40.735 70.1654 41.1824C70.1023 41.5038 70.1149 41.8442 70.096 42.1719C70.0455 43.0731 70.0014 43.9743 69.9446 44.8818C69.9004 45.5435 69.8374 46.2052 69.7869 46.8606C69.7427 47.4908 69.7112 48.121 69.667 48.7512C69.6229 49.3373 69.5661 49.9234 69.5219 50.5095C69.4967 50.8372 69.4778 51.1712 69.4588 51.4989C69.4084 52.2363 69.3579 52.9736 69.3075 53.7047C69.2822 54.1395 69.2633 54.5744 69.2318 55.0092C69.1813 55.715 69.1245 56.4209 69.0803 57.1267C69.0614 57.4103 69.0551 57.7002 69.0362 57.9838C69.011 58.4501 68.992 58.9165 68.9668 59.3828C68.9353 59.9563 68.9037 60.5235 68.8722 61.097C68.8659 61.2167 68.8722 61.3365 68.8659 61.4625C68.8532 61.8091 68.8785 62.1495 68.8028 62.4961C68.7523 62.7292 68.7902 62.975 68.7902 63.2208C68.7712 64.3678 68.746 65.5148 68.746 66.6617C68.746 67.355 68.7334 68.0545 68.8028 68.7414C68.8722 69.4158 68.8848 70.0901 68.9542 70.7644C69.0425 71.6215 69.1245 72.4723 69.3011 73.3167C69.4525 74.0415 69.6039 74.7662 69.8815 75.4531C70.1275 76.0581 70.3988 76.6442 70.8151 77.1547C71.345 77.7975 72.0011 78.1945 72.8464 78.3017C73.5971 78.3962 74.291 78.2009 74.9534 77.9173C75.8176 77.5517 76.6251 77.0728 77.3757 76.5056C77.7479 76.222 78.1201 75.9321 78.4797 75.6359C79.1547 75.0687 79.8991 74.6087 80.7065 74.262C81.0345 74.1171 81.3941 74.0226 81.7474 73.9469C82.3782 73.8146 83.0027 73.8398 83.6209 74.0415C84.195 74.2305 84.687 74.533 85.1286 74.9364C85.7153 75.472 86.1632 76.1149 86.548 76.8018C87.3365 78.1945 87.7844 79.7133 88.1377 81.2637C88.3585 82.2531 88.472 83.2551 88.6234 84.2508C88.6486 84.4273 88.6549 84.6101 88.6676 84.7928C88.6928 85.2466 88.7243 85.694 88.7369 86.1478C88.7622 86.7969 88.7874 87.446 88.7874 88.0951C88.7874 88.7442 88.7306 89.387 88.6991 90.0361C88.6549 90.9562 88.5288 91.8637 88.39 92.7712C88.2197 93.893 87.961 94.9896 87.6078 96.0672C87.3491 96.8424 87.059 97.6049 86.6805 98.3234C86.3398 98.9662 85.9487 99.5775 85.4503 100.107C84.8006 100.787 84.0436 101.304 83.0847 101.43C82.3404 101.531 81.6023 101.456 80.9021 101.172C80.0568 100.832 79.2871 100.359 78.568 99.7918C77.8236 99.1994 77.0919 98.5881 76.2655 98.1091C75.4896 97.6554 74.6884 97.2772 73.8116 97.0882C73.0987 96.9306 72.4237 97.0441 71.7866 97.3529C71.3892 97.5419 71.0864 97.8759 70.8025 98.2099C70.4934 98.5692 70.2726 98.9788 70.0834 99.4136C69.585 100.573 69.3011 101.79 69.1434 103.037C69.0677 103.617 68.9983 104.203 68.9416 104.789C68.9037 105.193 68.9289 105.609 68.8659 106.006C68.7523 106.768 68.8091 107.543 68.7712 108.306C68.7271 109.176 68.7839 110.058 68.7902 110.934C68.7965 111.432 68.7965 111.93 68.7965 112.427C68.7965 112.654 68.7712 112.881 68.8533 113.102C68.8722 113.14 68.8659 113.19 68.8659 113.234C68.8848 113.808 68.8848 114.381 68.9226 114.955C68.9605 115.509 68.9416 116.07 69.0173 116.625C69.0614 116.94 69.0551 117.255 69.0677 117.57C69.0867 118.024 69.1056 118.471 69.1308 118.925C69.1561 119.347 69.1939 119.763 69.2191 120.185C69.2444 120.589 69.2633 120.998 69.2948 121.402C69.3264 121.824 69.3642 122.24 69.3958 122.662C69.4147 122.92 69.4336 123.172 69.4462 123.431C69.4652 123.809 69.4841 124.181 69.503 124.559C69.5219 124.874 69.5409 125.189 69.5598 125.504C69.6103 126.223 69.6544 126.947 69.7112 127.666C69.7427 128.038 69.7932 128.41 69.831 128.788C69.8563 129.04 69.8626 129.298 69.8752 129.556C69.913 130.218 69.9446 130.88 69.9887 131.542C70.0329 132.216 70.0897 132.89 70.1402 133.571C70.1717 134.018 70.1906 134.472 70.2159 134.926C70.2411 135.361 70.2789 135.796 70.3105 136.23C70.3105 136.262 70.3168 136.293 70.3168 136.319C70.3357 136.861 70.3546 137.403 70.3799 137.945C70.4051 138.543 70.4429 139.148 70.4808 139.747C70.4808 139.778 70.4808 139.81 70.4808 139.835C70.4934 140.755 70.506 141.675 70.5249 142.595C70.5376 143.257 70.5628 143.919 70.5817 144.587C70.588 144.738 70.5754 144.883 70.5691 145.06C70.4682 145.079 70.3862 145.104 70.2979 145.11C70.178 145.116 70.0581 145.116 69.932 145.116C63.384 145.116 56.8297 145.116 50.2817 145.116C43.3237 145.116 36.3656 145.116 29.4013 145.116C20.412 145.116 11.429 145.116 2.43974 145.116C2.24418 145.116 2.04863 145.148 1.83415 145.072C1.82153 144.99 1.8026 144.908 1.78998 144.82C1.78368 144.745 1.78998 144.669 1.78998 144.593C1.77737 143.402 1.78366 142.205 1.73951 141.014C1.72058 140.503 1.7332 139.986 1.68273 139.476C1.61334 138.726 1.61335 137.97 1.5755 137.22C1.53766 136.438 1.46826 135.657 1.4178 134.875C1.39256 134.516 1.37995 134.151 1.36103 133.791C1.31056 133.01 1.26008 132.229 1.20961 131.447C1.15284 130.533 1.10238 129.613 1.0393 128.699C0.99514 128.069 0.938371 127.439 0.887905 126.809C0.862672 126.506 0.856366 126.204 0.831133 125.908C0.799592 125.46 0.749111 125.006 0.717569 124.559C0.692336 124.256 0.679722 123.96 0.660797 123.658C0.641872 123.28 0.622944 122.908 0.597711 122.53C0.547244 121.868 0.49047 121.213 0.440004 120.551C0.421079 120.292 0.414772 120.04 0.402156 119.782C0.376923 119.328 0.358007 118.881 0.332774 118.427C0.313849 118.099 0.288612 117.765 0.269687 117.438C0.219221 116.644 0.168761 115.843 0.118295 115.049C0.118295 115.037 0.118295 115.018 0.118295 115.005C0.09937 114.324 0.0930578 113.65 0.0552082 112.969C-0.0394159 111.129 0.0299705 109.289 0.0110456 107.442C0.00473737 106.812 0.0678294 106.176 0.0993707 105.546C0.111987 105.287 0.130904 105.035 0.149828 104.777C0.225528 103.705 0.364304 102.647 0.597711 101.6C0.774342 100.806 1.00775 100.025 1.38625 99.2939C1.63227 98.8149 1.94769 98.399 2.36404 98.0587C2.793 97.7058 3.29766 97.5608 3.84017 97.5734C4.46469 97.5861 5.06398 97.731 5.63172 98.002C6.63474 98.4809 7.53682 99.1048 8.40736 99.7918C8.9751 100.239 9.53654 100.706 10.1674 101.065C10.8802 101.468 11.612 101.815 12.4384 101.941C13.6495 102.13 14.7472 101.871 15.7313 101.147C16.4757 100.598 17.0245 99.8863 17.4976 99.1048C18.1852 97.9705 18.6583 96.7542 19.0053 95.4811C19.327 94.2838 19.5856 93.08 19.7307 91.8448C19.8253 91.0382 19.8884 90.2252 19.9452 89.4186C19.9957 88.6938 19.9767 87.9691 19.9894 87.2443C20.002 86.5196 19.9326 85.8011 19.8821 85.0764C19.838 84.4147 19.7623 83.7593 19.6739 83.0976C19.5036 81.8687 19.245 80.665 18.8917 79.4739C18.6457 78.6483 18.3366 77.8479 17.9581 77.0728C17.6111 76.367 17.2011 75.6926 16.6838 75.1002C15.9962 74.3125 15.1888 73.7012 14.1353 73.4554C13.3972 73.2789 12.6718 73.3104 11.94 73.4995C10.9748 73.7579 10.1232 74.2431 9.32836 74.8292C8.6723 75.3145 8.0478 75.8376 7.39174 76.3165C6.69782 76.827 5.94713 77.2555 5.13336 77.558C4.58454 77.766 4.01049 77.7975 3.43643 77.7597C3.06425 77.7345 2.74253 77.5706 2.43974 77.3627C1.99185 77.0539 1.70167 76.619 1.43672 76.1527C1.08346 75.5288 0.868982 74.8481 0.69235 74.1675C0.446327 73.2348 0.313847 72.2769 0.212915 71.319C0.156141 70.7329 0.0930578 70.1531 0.0552082 69.567C0.0236668 69.0691 0.0110395 68.5713 0.00473121 68.0734C-0.00157707 66.8823 -0.00157707 65.6849 0.00473121 64.4938C0.0110395 63.5296 0.0236607 62.5591 0.0488938 61.5949C0.0678186 60.8449 0.0930602 60.0887 0.156143 59.3387C0.206609 58.7085 0.23814 58.0783 0.263373 57.4418C0.282298 57.0196 0.345395 56.6036 0.376936 56.1877C0.402169 55.9167 0.408463 55.6457 0.42108 55.3747C0.440005 54.9714 0.458933 54.5617 0.484166 54.1584C0.509399 53.7677 0.547258 53.377 0.572491 52.9862C0.610341 52.3875 0.641878 51.7825 0.686036 51.1838C0.717577 50.7364 0.76173 50.2826 0.79958 49.8352C0.818505 49.5831 0.837427 49.3247 0.856352 49.0663C0.894202 48.4487 0.925739 47.8311 0.969897 47.2135C1.01405 46.5833 1.06453 45.9531 1.11499 45.3229C1.14023 44.9637 1.16546 44.6045 1.19069 44.2389C1.21592 43.8608 1.22224 43.489 1.25378 43.1109C1.27901 42.7201 1.32948 42.3294 1.35471 41.945C1.37994 41.6614 1.39255 41.3715 1.40517 41.0879C1.42409 40.6342 1.43673 40.1867 1.46196 39.733C1.4935 39.2351 1.53764 38.7435 1.56288 38.2457C1.58811 37.7163 1.5692 37.1869 1.61967 36.6638C1.68906 35.9706 1.63228 35.2774 1.73321 34.5905C1.74583 34.5148 1.73951 34.4392 1.73951 34.3636C1.75212 33.1536 1.76474 31.9499 1.78367 30.7399C1.81521 30.6012 1.83413 30.4689 1.84044 30.305Z" fill="#E65325" stroke="#FFFEF6" stroke-width="2" mask="url(#path-1-inside-1_2802_22191)"/>
</svg>
