<svg width="98" height="119" viewBox="0 0 98 119" fill="none" xmlns="http://www.w3.org/2000/svg">
<mask id="mask0_2220_11257" style="mask-type:alpha" maskUnits="userSpaceOnUse" x="0" y="2" width="98" height="117">
<rect x="0.5" y="3.40039" width="96.4667" height="115.077" fill="#6ABF73" stroke="#382F32"/>
</mask>
<g mask="url(#mask0_2220_11257)">
<path d="M48.3921 36.5652C80.8381 36.5652 107.19 64.4634 107.19 98.9402C107.19 133.417 80.8381 161.315 48.3921 161.315C15.9461 161.315 -10.4058 133.417 -10.4058 98.9402C-10.4058 64.4634 15.9461 36.5652 48.3921 36.5652Z" fill="#6ABF73" stroke="#372F32"/>
</g>
<g filter="url(#filter0_n_2220_11257)">
<rect x="13" y="25.1647" width="71.2988" height="28.2145" rx="12" fill="#FEFDF5"/>
<rect x="13.5" y="25.6647" width="70.2988" height="27.2145" rx="11.5" stroke="#372F32"/>
</g>
<path d="M84.2988 29.0106H13L16.6104 19.0643H80.6885L84.2988 29.0106Z" fill="#E87E8C"/>
<path d="M84.2988 29.0106V29.5106H85.0122L84.7688 28.84L84.2988 29.0106ZM13 29.0106L12.53 28.84L12.2866 29.5106H13V29.0106ZM16.6104 19.0643V18.5643H16.2599L16.1404 18.8937L16.6104 19.0643ZM80.6885 19.0643L81.1585 18.8937L81.0389 18.5643H80.6885V19.0643ZM84.2988 29.0106V28.5106H13V29.0106V29.5106H84.2988V29.0106ZM13 29.0106L13.47 29.1812L17.0803 19.2349L16.6104 19.0643L16.1404 18.8937L12.53 28.84L13 29.0106ZM16.6104 19.0643V19.5643H80.6885V19.0643V18.5643H16.6104V19.0643ZM80.6885 19.0643L80.2185 19.2349L83.8288 29.1812L84.2988 29.0106L84.7688 28.84L81.1585 18.8937L80.6885 19.0643Z" fill="#372F32"/>
<g filter="url(#filter1_n_2220_11257)">
<mask id="path-7-inside-1_2220_11257" fill="white">
<path d="M68.2949 44.8117C68.2949 51.4391 62.9223 56.8117 56.2949 56.8117H41.0234C34.396 56.8117 29.0234 51.4391 29.0234 44.8117V16.0175C29.0234 16.016 29.0222 16.0148 29.0207 16.0148C29.0181 16.0148 29.017 16.0115 29.0191 16.01L44.678 4.15804C47.0329 2.37565 50.2855 2.37564 52.6404 4.15803L68.2993 16.01C68.3013 16.0115 68.3002 16.0148 68.2976 16.0148C68.2961 16.0148 68.2949 16.016 68.2949 16.0175V44.8117Z"/>
</mask>
<path d="M68.2949 44.8117C68.2949 51.4391 62.9223 56.8117 56.2949 56.8117H41.0234C34.396 56.8117 29.0234 51.4391 29.0234 44.8117V16.0175C29.0234 16.016 29.0222 16.0148 29.0207 16.0148C29.0181 16.0148 29.017 16.0115 29.0191 16.01L44.678 4.15804C47.0329 2.37565 50.2855 2.37564 52.6404 4.15803L68.2993 16.01C68.3013 16.0115 68.3002 16.0148 68.2976 16.0148C68.2961 16.0148 68.2949 16.016 68.2949 16.0175V44.8117Z" fill="#FEFDF5"/>
<path d="M68.2993 16.01L67.6957 16.8073L68.2993 16.01ZM44.678 4.15804L44.0745 3.36068L44.678 4.15804ZM29.0191 16.01L28.4156 15.2126L29.0191 16.01ZM56.2949 56.8117V55.8117H41.0234V56.8117V57.8117H56.2949V56.8117ZM29.0234 44.8117H30.0234V16.0175H29.0234H28.0234V44.8117H29.0234ZM29.0191 16.01L29.6226 16.8073L45.2815 4.95539L44.678 4.15804L44.0745 3.36068L28.4156 15.2126L29.0191 16.01ZM52.6404 4.15803L52.0369 4.95539L67.6957 16.8073L68.2993 16.01L68.9028 15.2126L53.2439 3.36067L52.6404 4.15803ZM68.2949 16.0175H67.2949V44.8117H68.2949H69.2949V16.0175H68.2949ZM68.2976 16.0148V15.0148C67.7438 15.0148 67.2949 15.4638 67.2949 16.0175H68.2949H69.2949C69.2949 16.5683 68.8484 17.0148 68.2976 17.0148V16.0148ZM68.2993 16.01L67.6957 16.8073C66.9324 16.2296 67.3425 15.0148 68.2976 15.0148V16.0148V17.0148C69.2579 17.0148 69.6702 15.7935 68.9028 15.2126L68.2993 16.01ZM44.678 4.15804L45.2815 4.95539C47.2794 3.4432 50.039 3.44319 52.0369 4.95539L52.6404 4.15803L53.2439 3.36067C50.532 1.3081 46.7863 1.3081 44.0745 3.36068L44.678 4.15804ZM29.0207 16.0148V15.0148C29.9769 15.0148 30.385 16.2303 29.6226 16.8073L29.0191 16.01L28.4156 15.2126C27.649 15.7928 28.0594 17.0148 29.0207 17.0148V16.0148ZM29.0234 16.0175H30.0234C30.0234 15.4644 29.5752 15.0148 29.0207 15.0148V16.0148V17.0148C28.4693 17.0148 28.0234 16.5677 28.0234 16.0175H29.0234ZM41.0234 56.8117V55.8117C34.9483 55.8117 30.0234 50.8868 30.0234 44.8117H29.0234H28.0234C28.0234 51.9914 33.8437 57.8117 41.0234 57.8117V56.8117ZM56.2949 56.8117V57.8117C63.4746 57.8117 69.2949 51.9914 69.2949 44.8117H68.2949H67.2949C67.2949 50.8868 62.3701 55.8117 56.2949 55.8117V56.8117Z" fill="#372F32" mask="url(#path-7-inside-1_2220_11257)"/>
</g>
<g filter="url(#filter2_n_2220_11257)">
<path d="M43.5959 36.222H53.7031C54.8077 36.222 55.7031 37.1175 55.7031 38.222V54.811C55.7031 55.9156 54.8077 56.811 53.7031 56.811H43.5959C42.4913 56.811 41.5959 55.9156 41.5959 54.811V38.222C41.5959 37.1175 42.4913 36.222 43.5959 36.222Z" fill="#E87E8C" stroke="#372F32" stroke-miterlimit="10"/>
<path d="M48.6713 48.423C48.1449 48.423 47.7181 47.9962 47.7181 47.4698C47.7181 46.9434 48.1449 46.5166 48.6713 46.5166C49.1978 46.5166 49.6245 46.9434 49.6245 47.4698C49.6245 47.9962 49.1978 48.423 48.6713 48.423Z" fill="#FBE200" stroke="#372F32" stroke-miterlimit="10"/>
</g>
<path d="M48.6494 17.5393C46.6489 17.5393 45.0272 16.0029 45.0272 14.1078C45.0272 12.2126 46.6489 10.6763 48.6494 10.6763C50.6498 10.6763 52.2715 12.2126 52.2715 14.1078C52.2715 16.0029 50.6498 17.5393 48.6494 17.5393Z" fill="#80CBE8" stroke="#372F32" stroke-miterlimit="10"/>
<path d="M48.4585 10.6763V17.5393" stroke="#372F32" stroke-miterlimit="10"/>
<path d="M45.0272 14.1078H52.2715" stroke="#372F32" stroke-miterlimit="10"/>
<g filter="url(#filter3_n_2220_11257)">
<rect x="21.7686" y="19.0687" width="33.1711" height="3.43149" rx="1.71575" transform="rotate(-35.0894 21.7686 19.0687)" fill="#E87E8C"/>
<rect x="22.4651" y="19.1904" width="32.1711" height="2.43149" rx="1.21575" transform="rotate(-35.0894 22.4651 19.1904)" stroke="#372F32"/>
</g>
<g filter="url(#filter4_n_2220_11257)">
<rect width="33.1711" height="3.43149" rx="1.71575" transform="matrix(-0.818256 -0.574854 -0.574854 0.818256 75.2856 19.0687)" fill="#E87E8C"/>
<rect x="-0.696555" y="0.121701" width="32.1711" height="2.43149" rx="1.21575" transform="matrix(-0.818256 -0.574854 -0.574854 0.818256 74.0891 18.6904)" stroke="#372F32"/>
</g>
<g filter="url(#filter5_n_2220_11257)">
<path d="M19.9569 32.7903H23.2012C24.3057 32.7903 25.2012 33.6857 25.2012 34.7903V51.3792C25.2012 52.4838 24.3057 53.3792 23.2012 53.3792H19.9569C18.8523 53.3792 17.9569 52.4838 17.9569 51.3792V34.7903C17.9569 33.6857 18.8523 32.7903 19.9569 32.7903Z" fill="#E87E8C" stroke="#372F32" stroke-miterlimit="10"/>
</g>
<g filter="url(#filter6_n_2220_11257)">
<path d="M74.8607 32.7903H78.105C79.2095 32.7903 80.105 33.6857 80.105 34.7903V51.3792C80.105 52.4838 79.2096 53.3792 78.105 53.3792H74.8607C73.7561 53.3792 72.8607 52.4838 72.8607 51.3792V34.7903C72.8607 33.6857 73.7561 32.7903 74.8607 32.7903Z" fill="#E87E8C" stroke="#372F32" stroke-miterlimit="10"/>
</g>
<g filter="url(#filter7_n_2220_11257)">
<mask id="path-20-inside-2_2220_11257" fill="white">
<path d="M39.3701 44.3904C39.9001 43.8894 39.9267 43.0331 39.4199 42.4501C38.9131 41.8676 38.062 41.7753 37.4922 42.2302L33.8025 37.9858L37.8442 34.4722C37.364 33.8758 37.4157 33.0215 37.9711 32.5387C38.5265 32.0562 39.3783 32.1249 39.902 32.6834L43.9452 29.1685L47.635 33.413C47.6208 33.4243 47.6056 33.4346 47.5918 33.4466C47.0227 33.9414 46.982 34.8273 47.5012 35.4249C48.0208 36.0225 48.9043 36.106 49.4735 35.6112C49.4873 35.5992 49.4997 35.5856 49.5129 35.5731L53.202 39.8169L49.1587 43.3317C49.1718 43.3457 49.1868 43.358 49.1995 43.3726C49.7186 43.9702 49.6778 44.8561 49.109 45.3509C48.5398 45.8455 47.6576 45.7619 47.1381 45.1647C47.1254 45.1501 47.1138 45.1348 47.1018 45.1199L43.0593 48.6341L39.3701 44.3904Z"/>
</mask>
<path d="M39.3701 44.3904C39.9001 43.8894 39.9267 43.0331 39.4199 42.4501C38.9131 41.8676 38.062 41.7753 37.4922 42.2302L33.8025 37.9858L37.8442 34.4722C37.364 33.8758 37.4157 33.0215 37.9711 32.5387C38.5265 32.0562 39.3783 32.1249 39.902 32.6834L43.9452 29.1685L47.635 33.413C47.6208 33.4243 47.6056 33.4346 47.5918 33.4466C47.0227 33.9414 46.982 34.8273 47.5012 35.4249C48.0208 36.0225 48.9043 36.106 49.4735 35.6112C49.4873 35.5992 49.4997 35.5856 49.5129 35.5731L53.202 39.8169L49.1587 43.3317C49.1718 43.3457 49.1868 43.358 49.1995 43.3726C49.7186 43.9702 49.6778 44.8561 49.109 45.3509C48.5398 45.8455 47.6576 45.7619 47.1381 45.1647C47.1254 45.1501 47.1138 45.1348 47.1018 45.1199L43.0593 48.6341L39.3701 44.3904Z" fill="#6ABF73"/>
<path d="M39.3701 44.3904L38.6831 43.6637L37.9862 44.3226L38.6154 45.0465L39.3701 44.3904ZM39.4199 42.4501L40.1747 41.7941L40.1743 41.7937L39.4199 42.4501ZM37.4922 42.2302L36.7375 42.8863L37.3668 43.6101L38.1163 43.0116L37.4922 42.2302ZM33.8025 37.9858L33.1464 37.2311L32.3917 37.8872L33.0478 38.6419L33.8025 37.9858ZM37.8442 34.4722L38.5003 35.2269L39.2271 34.5951L38.6231 33.845L37.8442 34.4722ZM37.9711 32.5387L37.3152 31.7839L37.315 31.784L37.9711 32.5387ZM39.902 32.6834L39.1725 33.3674L39.8312 34.0699L40.558 33.4381L39.902 32.6834ZM43.9452 29.1685L44.6999 28.5125L44.0438 27.7578L43.2891 28.4138L43.9452 29.1685ZM47.635 33.413L48.259 34.1944L49.0737 33.5437L48.3897 32.7569L47.635 33.413ZM47.5918 33.4466L46.9358 32.6919L46.9357 32.692L47.5918 33.4466ZM47.5012 35.4249L46.7464 36.0808L46.7466 36.081L47.5012 35.4249ZM49.4735 35.6112L50.1295 36.366L50.1297 36.3659L49.4735 35.6112ZM49.5129 35.5731L50.2675 34.9171L49.5835 34.1302L48.8259 34.8465L49.5129 35.5731ZM53.202 39.8169L53.8581 40.5715L54.6127 39.9155L53.9567 39.1608L53.202 39.8169ZM49.1587 43.3317L48.5027 42.577L47.719 43.2583L48.4293 44.0158L49.1587 43.3317ZM49.1995 43.3726L49.9544 42.7168L49.9542 42.7165L49.1995 43.3726ZM49.109 45.3509L49.7649 46.1057L49.7653 46.1054L49.109 45.3509ZM47.1381 45.1647L46.3834 45.8207L46.3836 45.8209L47.1381 45.1647ZM47.1018 45.1199L47.8806 44.4927L47.2293 43.6839L46.4457 44.3652L47.1018 45.1199ZM43.0593 48.6341L42.3046 49.2902L42.9606 50.0449L43.7153 49.3888L43.0593 48.6341ZM39.3701 44.3904L40.0571 45.1171C41.0053 44.2207 41.0066 42.7512 40.1747 41.7941L39.4199 42.4501L38.6652 43.1062C38.8468 43.3151 38.7949 43.5581 38.6831 43.6637L39.3701 44.3904ZM39.4199 42.4501L40.1743 41.7937C39.342 40.8372 37.8873 40.635 36.8682 41.4488L37.4922 42.2302L38.1163 43.0116C38.2366 42.9155 38.4841 42.8981 38.6655 43.1066L39.4199 42.4501ZM37.4922 42.2302L38.2469 41.5742L34.5572 37.3297L33.8025 37.9858L33.0478 38.6419L36.7375 42.8863L37.4922 42.2302ZM33.8025 37.9858L34.4586 38.7405L38.5003 35.2269L37.8442 34.4722L37.1882 33.7175L33.1464 37.2311L33.8025 37.9858ZM37.8442 34.4722L38.6231 33.845C38.4511 33.6314 38.5115 33.394 38.6272 33.2934L37.9711 32.5387L37.315 31.784C36.3199 32.6491 36.2768 34.1203 37.0654 35.0994L37.8442 34.4722ZM37.9711 32.5387L38.627 33.2936C38.7415 33.1941 38.9838 33.1662 39.1725 33.3674L39.902 32.6834L40.6314 31.9994C39.7727 31.0836 38.3115 30.9182 37.3152 31.7839L37.9711 32.5387ZM39.902 32.6834L40.558 33.4381L44.6013 29.9232L43.9452 29.1685L43.2891 28.4138L39.2459 31.9287L39.902 32.6834ZM43.9452 29.1685L43.1905 29.8246L46.8803 34.069L47.635 33.413L48.3897 32.7569L44.6999 28.5125L43.9452 29.1685ZM47.635 33.413L47.0109 32.6316C47.0142 32.629 47.0167 32.627 47.0184 32.6257C47.0192 32.6251 47.0199 32.6246 47.0203 32.6243C47.0207 32.6239 47.021 32.6238 47.021 32.6237C47.021 32.6237 47.0208 32.6239 47.0204 32.6242C47.02 32.6245 47.0195 32.6249 47.0186 32.6255C47.0173 32.6265 47.0144 32.6287 47.0114 32.6309C47.0008 32.6389 46.9704 32.6618 46.9358 32.6919L47.5918 33.4466L48.2478 34.2014C48.2365 34.2112 48.2275 34.2185 48.2221 34.2227C48.217 34.2267 48.2138 34.2292 48.215 34.2282C48.2158 34.2277 48.2164 34.2271 48.2188 34.2254C48.2207 34.224 48.2239 34.2216 48.2274 34.2189C48.2344 34.2136 48.2457 34.205 48.259 34.1944L47.635 33.413ZM47.5918 33.4466L46.9357 32.692C45.9159 33.5785 45.8952 35.1011 46.7464 36.0808L47.5012 35.4249L48.2561 34.769C48.0688 34.5535 48.1294 34.3043 48.2479 34.2013L47.5918 33.4466ZM47.5012 35.4249L46.7466 36.081C47.5979 37.0602 49.1091 37.2529 50.1295 36.366L49.4735 35.6112L48.8175 34.8565C48.6994 34.9592 48.4437 34.9848 48.2559 34.7688L47.5012 35.4249ZM49.4735 35.6112L50.1297 36.3659C50.1642 36.3358 50.1912 36.3088 50.2005 36.2994C50.2031 36.2969 50.2058 36.2942 50.2069 36.2931C50.2076 36.2923 50.2081 36.2919 50.2085 36.2915C50.2088 36.2911 50.209 36.291 50.209 36.291C50.209 36.291 50.2087 36.2912 50.2084 36.2916C50.208 36.292 50.2074 36.2926 50.2066 36.2933C50.2052 36.2947 50.2028 36.297 50.1998 36.2998L49.5129 35.5731L48.8259 34.8465C48.8136 34.8581 48.8034 34.8682 48.7972 34.8743C48.7941 34.8775 48.7913 34.8803 48.7896 34.882C48.7875 34.884 48.7869 34.8846 48.7863 34.8853C48.7851 34.8864 48.788 34.8835 48.7927 34.8791C48.7976 34.8744 48.8061 34.8664 48.8173 34.8566L49.4735 35.6112ZM49.5129 35.5731L48.7582 36.2292L52.4473 40.4729L53.202 39.8169L53.9567 39.1608L50.2675 34.9171L49.5129 35.5731ZM53.202 39.8169L52.5459 39.0622L48.5027 42.577L49.1587 43.3317L49.8148 44.0864L53.8581 40.5715L53.202 39.8169ZM49.1587 43.3317L48.4293 44.0158C48.4468 44.0344 48.4619 44.0494 48.4714 44.0586C48.4762 44.0633 48.4804 44.0673 48.483 44.0698C48.4844 44.0711 48.4856 44.0723 48.4864 44.073C48.4873 44.0739 48.4878 44.0743 48.4881 44.0746C48.4888 44.0753 48.4881 44.0746 48.4866 44.0732C48.4851 44.0717 48.4823 44.0689 48.4786 44.0652C48.4715 44.0581 48.4594 44.0455 48.4448 44.0287L49.1995 43.3726L49.9542 42.7165C49.9333 42.6925 49.9145 42.6729 49.9006 42.6588C49.8871 42.6452 49.8755 42.6341 49.8704 42.6292C49.8623 42.6215 49.8656 42.6246 49.8663 42.6253C49.8689 42.6278 49.8772 42.636 49.8882 42.6476L49.1587 43.3317ZM49.1995 43.3726L48.4446 44.0285C48.6316 44.2437 48.5713 44.4931 48.4526 44.5964L49.109 45.3509L49.7653 46.1054C50.7842 45.219 50.8056 43.6966 49.9544 42.7168L49.1995 43.3726ZM49.109 45.3509L48.453 44.5961C48.3351 44.6986 48.0805 44.7244 47.8926 44.5084L47.1381 45.1647L46.3836 45.8209C47.2347 46.7995 48.7445 46.9924 49.7649 46.1057L49.109 45.3509ZM47.1381 45.1647L47.8928 44.5086C47.8965 44.5129 47.8992 44.5161 47.9005 44.5176C47.9017 44.5191 47.902 44.5196 47.9009 44.5182C47.8994 44.5163 47.8981 44.5147 47.8943 44.5099C47.8912 44.5059 47.8862 44.4996 47.8806 44.4927L47.1018 45.1199L46.3229 45.7471C46.3305 45.7565 46.3214 45.7453 46.3384 45.7666C46.3477 45.7783 46.3637 45.7981 46.3834 45.8207L47.1381 45.1647ZM47.1018 45.1199L46.4457 44.3652L42.4032 47.8794L43.0593 48.6341L43.7153 49.3888L47.7578 45.8746L47.1018 45.1199ZM43.0593 48.6341L43.814 47.978L40.1248 43.7343L39.3701 44.3904L38.6154 45.0465L42.3046 49.2902L43.0593 48.6341Z" fill="#372F32" mask="url(#path-20-inside-2_2220_11257)"/>
</g>
<g filter="url(#filter8_n_2220_11257)">
<mask id="path-22-inside-3_2220_11257" fill="white">
<path d="M50.2962 24.2903C50.8103 24.8079 51.6668 24.8142 52.237 24.2929C52.8067 23.7715 52.8773 22.9177 52.408 22.3596L56.5587 18.5647L60.1723 22.5172C60.7565 22.0223 61.6119 22.0525 62.1084 22.5956C62.6047 23.1387 62.5572 23.992 62.0121 24.5295L65.6271 28.4835L61.4764 32.2784C61.4648 32.2645 61.454 32.2495 61.4417 32.236C60.9328 31.6797 60.0461 31.6611 59.4618 32.195C58.8774 32.7293 58.8169 33.614 59.3256 34.1707C59.3379 34.1841 59.3519 34.1963 59.3647 34.2091L55.214 38.004L51.599 34.05C51.5853 34.0635 51.5727 34.078 51.5584 34.0911C50.9741 34.6251 50.0881 34.6071 49.5792 34.0508C49.0702 33.4942 49.131 32.6095 49.7153 32.0752C49.7296 32.0621 49.7446 32.0501 49.7592 32.0377L46.1455 28.0852L50.2962 24.2903Z"/>
</mask>
<path d="M50.2962 24.2903C50.8103 24.8079 51.6668 24.8142 52.237 24.2929C52.8067 23.7715 52.8773 22.9177 52.408 22.3596L56.5587 18.5647L60.1723 22.5172C60.7565 22.0223 61.6119 22.0525 62.1084 22.5956C62.6047 23.1387 62.5572 23.992 62.0121 24.5295L65.6271 28.4835L61.4764 32.2784C61.4648 32.2645 61.454 32.2495 61.4417 32.236C60.9328 31.6797 60.0461 31.6611 59.4618 32.195C58.8774 32.7293 58.8169 33.614 59.3256 34.1707C59.3379 34.1841 59.3519 34.1963 59.3647 34.2091L55.214 38.004L51.599 34.05C51.5853 34.0635 51.5727 34.078 51.5584 34.0911C50.9741 34.6251 50.0881 34.6071 49.5792 34.0508C49.0702 33.4942 49.131 32.6095 49.7153 32.0752C49.7296 32.0621 49.7446 32.0501 49.7592 32.0377L46.1455 28.0852L50.2962 24.2903Z" fill="#E65325"/>
<path d="M50.2962 24.2903L51.0056 23.5856L50.3295 22.9049L49.6214 23.5523L50.2962 24.2903ZM52.237 24.2929L52.9118 25.0309L52.9122 25.0305L52.237 24.2929ZM52.408 22.3596L51.7332 21.6216L51.0251 22.2689L51.6426 23.0032L52.408 22.3596ZM56.5587 18.5647L57.2967 17.8899L56.6219 17.1519L55.8839 17.8267L56.5587 18.5647ZM60.1723 22.5172L59.4343 23.192L60.0841 23.9027L60.8188 23.2802L60.1723 22.5172ZM62.1084 22.5956L62.8466 21.921L62.8464 21.9209L62.1084 22.5956ZM62.0121 24.5295L61.31 23.8175L60.6244 24.4936L61.2741 25.2043L62.0121 24.5295ZM65.6271 28.4835L66.3019 29.2215L67.0399 28.5467L66.3652 27.8087L65.6271 28.4835ZM61.4764 32.2784L60.7104 32.9211L61.3811 33.7205L62.1512 33.0164L61.4764 32.2784ZM61.4417 32.236L62.1798 31.5614L62.1795 31.5611L61.4417 32.236ZM59.4618 32.195L58.7872 31.4568L58.787 31.457L59.4618 32.195ZM59.3256 34.1707L58.5874 34.8453L58.5877 34.8456L59.3256 34.1707ZM59.3647 34.2091L60.0394 34.9471L60.8095 34.2431L60.0734 33.5036L59.3647 34.2091ZM55.214 38.004L54.4759 38.6787L55.1507 39.4168L55.8887 38.742L55.214 38.004ZM51.599 34.05L52.337 33.3753L51.6362 32.6088L50.8968 33.338L51.599 34.05ZM51.5584 34.0911L52.2331 34.8292L52.2333 34.829L51.5584 34.0911ZM49.5792 34.0508L48.8411 34.7256L48.8414 34.7258L49.5792 34.0508ZM49.7153 32.0752L49.0406 31.3371L49.0404 31.3372L49.7153 32.0752ZM49.7592 32.0377L50.4056 32.8007L51.198 32.1294L50.4972 31.363L49.7592 32.0377ZM46.1455 28.0852L45.4707 27.3472L44.7327 28.0219L45.4075 28.76L46.1455 28.0852ZM50.2962 24.2903L49.5868 24.9951C50.5056 25.92 51.9746 25.8878 52.9118 25.0309L52.237 24.2929L51.5623 23.5549C51.3591 23.7407 51.1151 23.6957 51.0056 23.5856L50.2962 24.2903ZM52.237 24.2929L52.9122 25.0305C53.8479 24.1741 54.0126 22.714 53.1733 21.716L52.408 22.3596L51.6426 23.0032C51.742 23.1214 51.7655 23.3689 51.5618 23.5553L52.237 24.2929ZM52.408 22.3596L53.0827 23.0976L57.2334 19.3027L56.5587 18.5647L55.8839 17.8267L51.7332 21.6216L52.408 22.3596ZM56.5587 18.5647L55.8206 19.2395L59.4343 23.192L60.1723 22.5172L60.9104 21.8424L57.2967 17.8899L56.5587 18.5647ZM60.1723 22.5172L60.8188 23.2802C61.0281 23.1028 61.2671 23.1574 61.3704 23.2704L62.1084 22.5956L62.8464 21.9209C61.9567 20.9477 60.4849 20.9417 59.5259 21.7542L60.1723 22.5172ZM62.1084 22.5956L61.3702 23.2702C61.4724 23.3821 61.5065 23.6237 61.31 23.8175L62.0121 24.5295L62.7143 25.2415C63.6079 24.3603 63.737 22.8954 62.8466 21.921L62.1084 22.5956ZM62.0121 24.5295L61.2741 25.2043L64.8891 29.1582L65.6271 28.4835L66.3652 27.8087L62.7502 23.8547L62.0121 24.5295ZM65.6271 28.4835L64.9524 27.7454L60.8017 31.5403L61.4764 32.2784L62.1512 33.0164L66.3019 29.2215L65.6271 28.4835ZM61.4764 32.2784L62.2425 31.6356C62.2474 31.6414 62.2505 31.6453 62.2501 31.6448C62.2499 31.6446 62.2495 31.6441 62.2481 31.6423C62.247 31.641 62.2447 31.6381 62.2424 31.6351C62.2342 31.6248 62.2106 31.595 62.1798 31.5614L61.4417 32.236L60.7035 32.9107C60.6935 32.8997 60.686 32.8909 60.6818 32.8857C60.6777 32.8808 60.6752 32.8777 60.6762 32.8789C60.6767 32.8796 60.6773 32.8803 60.679 32.8825C60.6805 32.8843 60.6829 32.8874 60.6856 32.8907C60.6909 32.8974 60.6997 32.9084 60.7104 32.9211L61.4764 32.2784ZM61.4417 32.236L62.1795 31.5611C61.2678 30.5644 59.7454 30.5813 58.7872 31.4568L59.4618 32.195L60.1363 32.9333C60.3469 32.7408 60.5977 32.7949 60.7038 32.911L61.4417 32.236ZM59.4618 32.195L58.787 31.457C57.8286 32.3333 57.6763 33.8482 58.5874 34.8453L59.3256 34.1707L60.0638 33.4961C59.9575 33.3798 59.9262 33.1254 60.1366 32.9331L59.4618 32.195ZM59.3256 34.1707L58.5877 34.8456C58.6184 34.8792 58.646 34.9054 58.6556 34.9145C58.6583 34.9171 58.661 34.9197 58.6623 34.9208C58.6639 34.9224 58.6644 34.9228 58.6645 34.923C58.665 34.9234 58.6613 34.92 58.6559 34.9146L59.3647 34.2091L60.0734 33.5036C60.0616 33.4918 60.0515 33.482 60.0453 33.4761C60.0422 33.4731 60.0393 33.4704 60.0376 33.4689C60.0356 33.4669 60.035 33.4663 60.0343 33.4657C60.0332 33.4646 60.0361 33.4674 60.0406 33.4719C60.0454 33.4766 60.0535 33.4848 60.0636 33.4958L59.3256 34.1707ZM59.3647 34.2091L58.6899 33.471L54.5392 37.2659L55.214 38.004L55.8887 38.742L60.0394 34.9471L59.3647 34.2091ZM55.214 38.004L55.952 37.3292L52.337 33.3753L51.599 34.05L50.8609 34.7248L54.4759 38.6787L55.214 38.004ZM51.599 34.05L50.8968 33.338C50.8846 33.3501 50.8744 33.3605 50.8681 33.3671C50.8649 33.3705 50.862 33.3735 50.8602 33.3754C50.8579 33.3777 50.8573 33.3784 50.8564 33.3793C50.8549 33.3809 50.8573 33.3784 50.8613 33.3743C50.8656 33.37 50.8733 33.3625 50.8836 33.3531L51.5584 34.0911L52.2333 34.829C52.2664 34.7987 52.2923 34.7716 52.3014 34.7621C52.3039 34.7595 52.3065 34.7567 52.3076 34.7556C52.3083 34.7548 52.3088 34.7543 52.3092 34.7539C52.3093 34.7538 52.3095 34.7536 52.3095 34.7535C52.3096 34.7535 52.3097 34.7534 52.3097 34.7534C52.3097 34.7534 52.3096 34.7535 52.3095 34.7536C52.3094 34.7536 52.3093 34.7538 52.3091 34.754C52.3088 34.7543 52.3082 34.7549 52.3075 34.7556C52.3062 34.757 52.304 34.7592 52.3011 34.762L51.599 34.05ZM51.5584 34.0911L50.8838 33.3529C50.6727 33.5458 50.4227 33.4914 50.317 33.3758L49.5792 34.0508L48.8414 34.7258C49.7536 35.7229 51.2755 35.7044 52.2331 34.8292L51.5584 34.0911ZM49.5792 34.0508L50.3172 33.376C50.2111 33.2601 50.1795 33.0058 50.3902 32.8131L49.7153 32.0752L49.0404 31.3372C48.0825 32.2133 47.9293 33.7283 48.8411 34.7256L49.5792 34.0508ZM49.7153 32.0752L50.39 32.8133C50.3858 32.8171 50.3827 32.8198 50.3812 32.8211C50.3798 32.8223 50.3794 32.8227 50.3808 32.8215C50.3825 32.82 50.3842 32.8186 50.3889 32.8148C50.3927 32.8115 50.3989 32.8064 50.4056 32.8007L49.7592 32.0377L49.1128 31.2747C49.1032 31.2829 49.1147 31.273 49.0935 31.2909C49.082 31.3005 49.0627 31.3169 49.0406 31.3371L49.7153 32.0752ZM49.7592 32.0377L50.4972 31.363L46.8835 27.4104L46.1455 28.0852L45.4075 28.76L49.0211 32.7125L49.7592 32.0377ZM46.1455 28.0852L46.8202 28.8232L50.971 25.0284L50.2962 24.2903L49.6214 23.5523L45.4707 27.3472L46.1455 28.0852Z" fill="#372F32" mask="url(#path-22-inside-3_2220_11257)"/>
</g>
<defs>
<filter id="filter0_n_2220_11257" x="13" y="25.1647" width="71.2988" height="28.2145" filterUnits="userSpaceOnUse" color-interpolation-filters="sRGB">
<feFlood flood-opacity="0" result="BackgroundImageFix"/>
<feBlend mode="normal" in="SourceGraphic" in2="BackgroundImageFix" result="shape"/>
<feTurbulence type="fractalNoise" baseFrequency="0.40000000596046448 0.40000000596046448" stitchTiles="stitch" numOctaves="3" result="noise" seed="2402" />
<feColorMatrix in="noise" type="luminanceToAlpha" result="alphaNoise" />
<feComponentTransfer in="alphaNoise" result="coloredNoise1">
<feFuncA type="discrete" tableValues="0 0 0 0 0 0 0 0 0 0 0 0 0 0 0 0 0 0 1 1 1 1 1 1 1 1 1 1 1 1 1 0 0 0 0 0 0 0 0 0 0 0 0 0 0 0 0 0 0 0 0 0 0 0 0 0 0 0 0 0 0 0 0 0 0 0 0 0 0 0 0 0 0 0 0 0 0 0 0 0 0 0 0 0 0 0 0 0 0 0 0 0 0 0 0 0 0 0 0 0 "/>
</feComponentTransfer>
<feComposite operator="in" in2="shape" in="coloredNoise1" result="noise1Clipped" />
<feFlood flood-color="#E97E8D" result="color1Flood" />
<feComposite operator="in" in2="noise1Clipped" in="color1Flood" result="color1" />
<feMerge result="effect1_noise_2220_11257">
<feMergeNode in="shape" />
<feMergeNode in="color1" />
</feMerge>
</filter>
<filter id="filter1_n_2220_11257" x="29.0181" y="2.82123" width="39.2822" height="53.9905" filterUnits="userSpaceOnUse" color-interpolation-filters="sRGB">
<feFlood flood-opacity="0" result="BackgroundImageFix"/>
<feBlend mode="normal" in="SourceGraphic" in2="BackgroundImageFix" result="shape"/>
<feTurbulence type="fractalNoise" baseFrequency="0.40000000596046448 0.40000000596046448" stitchTiles="stitch" numOctaves="3" result="noise" seed="2402" />
<feColorMatrix in="noise" type="luminanceToAlpha" result="alphaNoise" />
<feComponentTransfer in="alphaNoise" result="coloredNoise1">
<feFuncA type="discrete" tableValues="0 0 0 0 0 0 0 0 0 0 0 0 0 0 0 0 0 0 1 1 1 1 1 1 1 1 1 1 1 1 1 0 0 0 0 0 0 0 0 0 0 0 0 0 0 0 0 0 0 0 0 0 0 0 0 0 0 0 0 0 0 0 0 0 0 0 0 0 0 0 0 0 0 0 0 0 0 0 0 0 0 0 0 0 0 0 0 0 0 0 0 0 0 0 0 0 0 0 0 0 "/>
</feComponentTransfer>
<feComposite operator="in" in2="shape" in="coloredNoise1" result="noise1Clipped" />
<feFlood flood-color="#E97E8D" result="color1Flood" />
<feComposite operator="in" in2="noise1Clipped" in="color1Flood" result="color1" />
<feMerge result="effect1_noise_2220_11257">
<feMergeNode in="shape" />
<feMergeNode in="color1" />
</feMerge>
</filter>
<filter id="filter2_n_2220_11257" x="41.0957" y="35.722" width="15.1074" height="21.5889" filterUnits="userSpaceOnUse" color-interpolation-filters="sRGB">
<feFlood flood-opacity="0" result="BackgroundImageFix"/>
<feBlend mode="normal" in="SourceGraphic" in2="BackgroundImageFix" result="shape"/>
<feTurbulence type="fractalNoise" baseFrequency="0.40000000596046448 0.40000000596046448" stitchTiles="stitch" numOctaves="3" result="noise" seed="9409" />
<feColorMatrix in="noise" type="luminanceToAlpha" result="alphaNoise" />
<feComponentTransfer in="alphaNoise" result="coloredNoise1">
<feFuncA type="discrete" tableValues="0 0 0 0 0 0 0 0 0 0 0 0 0 0 0 0 0 0 1 1 1 1 1 1 1 1 1 1 1 1 1 0 0 0 0 0 0 0 0 0 0 0 0 0 0 0 0 0 0 0 0 0 0 0 0 0 0 0 0 0 0 0 0 0 0 0 0 0 0 0 0 0 0 0 0 0 0 0 0 0 0 0 0 0 0 0 0 0 0 0 0 0 0 0 0 0 0 0 0 0 "/>
</feComponentTransfer>
<feComposite operator="in" in2="shape" in="coloredNoise1" result="noise1Clipped" />
<feFlood flood-color="#FEFDF5" result="color1Flood" />
<feComposite operator="in" in2="noise1Clipped" in="color1Flood" result="color1" />
<feMerge result="effect1_noise_2220_11257">
<feMergeNode in="shape" />
<feMergeNode in="color1" />
</feMerge>
</filter>
<filter id="filter3_n_2220_11257" x="22.4429" y="0.6745" width="27.7666" height="20.5276" filterUnits="userSpaceOnUse" color-interpolation-filters="sRGB">
<feFlood flood-opacity="0" result="BackgroundImageFix"/>
<feBlend mode="normal" in="SourceGraphic" in2="BackgroundImageFix" result="shape"/>
<feTurbulence type="fractalNoise" baseFrequency="0.40000000596046448 0.40000000596046448" stitchTiles="stitch" numOctaves="3" result="noise" seed="7581" />
<feColorMatrix in="noise" type="luminanceToAlpha" result="alphaNoise" />
<feComponentTransfer in="alphaNoise" result="coloredNoise1">
<feFuncA type="discrete" tableValues="0 0 0 0 0 0 0 0 0 0 0 0 0 0 0 0 0 0 1 1 1 1 1 1 1 1 1 1 1 1 1 0 0 0 0 0 0 0 0 0 0 0 0 0 0 0 0 0 0 0 0 0 0 0 0 0 0 0 0 0 0 0 0 0 0 0 0 0 0 0 0 0 0 0 0 0 0 0 0 0 0 0 0 0 0 0 0 0 0 0 0 0 0 0 0 0 0 0 0 0 "/>
</feComponentTransfer>
<feComposite operator="in" in2="shape" in="coloredNoise1" result="noise1Clipped" />
<feFlood flood-color="rgba(0, 0, 0, 0.25)" result="color1Flood" />
<feComposite operator="in" in2="noise1Clipped" in="color1Flood" result="color1" />
<feMerge result="effect1_noise_2220_11257">
<feMergeNode in="shape" />
<feMergeNode in="color1" />
</feMerge>
</filter>
<filter id="filter4_n_2220_11257" x="46.8447" y="0.6745" width="27.7666" height="20.5276" filterUnits="userSpaceOnUse" color-interpolation-filters="sRGB">
<feFlood flood-opacity="0" result="BackgroundImageFix"/>
<feBlend mode="normal" in="SourceGraphic" in2="BackgroundImageFix" result="shape"/>
<feTurbulence type="fractalNoise" baseFrequency="0.40000000596046448 0.40000000596046448" stitchTiles="stitch" numOctaves="3" result="noise" seed="7581" />
<feColorMatrix in="noise" type="luminanceToAlpha" result="alphaNoise" />
<feComponentTransfer in="alphaNoise" result="coloredNoise1">
<feFuncA type="discrete" tableValues="0 0 0 0 0 0 0 0 0 0 0 0 0 0 0 0 0 0 1 1 1 1 1 1 1 1 1 1 1 1 1 0 0 0 0 0 0 0 0 0 0 0 0 0 0 0 0 0 0 0 0 0 0 0 0 0 0 0 0 0 0 0 0 0 0 0 0 0 0 0 0 0 0 0 0 0 0 0 0 0 0 0 0 0 0 0 0 0 0 0 0 0 0 0 0 0 0 0 0 0 "/>
</feComponentTransfer>
<feComposite operator="in" in2="shape" in="coloredNoise1" result="noise1Clipped" />
<feFlood flood-color="rgba(0, 0, 0, 0.25)" result="color1Flood" />
<feComposite operator="in" in2="noise1Clipped" in="color1Flood" result="color1" />
<feMerge result="effect1_noise_2220_11257">
<feMergeNode in="shape" />
<feMergeNode in="color1" />
</feMerge>
</filter>
<filter id="filter5_n_2220_11257" x="17.457" y="32.2903" width="8.24414" height="21.5889" filterUnits="userSpaceOnUse" color-interpolation-filters="sRGB">
<feFlood flood-opacity="0" result="BackgroundImageFix"/>
<feBlend mode="normal" in="SourceGraphic" in2="BackgroundImageFix" result="shape"/>
<feTurbulence type="fractalNoise" baseFrequency="0.40000000596046448 0.40000000596046448" stitchTiles="stitch" numOctaves="3" result="noise" seed="9409" />
<feColorMatrix in="noise" type="luminanceToAlpha" result="alphaNoise" />
<feComponentTransfer in="alphaNoise" result="coloredNoise1">
<feFuncA type="discrete" tableValues="0 0 0 0 0 0 0 0 0 0 0 0 0 0 0 0 0 0 1 1 1 1 1 1 1 1 1 1 1 1 1 0 0 0 0 0 0 0 0 0 0 0 0 0 0 0 0 0 0 0 0 0 0 0 0 0 0 0 0 0 0 0 0 0 0 0 0 0 0 0 0 0 0 0 0 0 0 0 0 0 0 0 0 0 0 0 0 0 0 0 0 0 0 0 0 0 0 0 0 0 "/>
</feComponentTransfer>
<feComposite operator="in" in2="shape" in="coloredNoise1" result="noise1Clipped" />
<feFlood flood-color="#FEFDF5" result="color1Flood" />
<feComposite operator="in" in2="noise1Clipped" in="color1Flood" result="color1" />
<feMerge result="effect1_noise_2220_11257">
<feMergeNode in="shape" />
<feMergeNode in="color1" />
</feMerge>
</filter>
<filter id="filter6_n_2220_11257" x="72.3608" y="32.2903" width="8.24414" height="21.5889" filterUnits="userSpaceOnUse" color-interpolation-filters="sRGB">
<feFlood flood-opacity="0" result="BackgroundImageFix"/>
<feBlend mode="normal" in="SourceGraphic" in2="BackgroundImageFix" result="shape"/>
<feTurbulence type="fractalNoise" baseFrequency="0.40000000596046448 0.40000000596046448" stitchTiles="stitch" numOctaves="3" result="noise" seed="9409" />
<feColorMatrix in="noise" type="luminanceToAlpha" result="alphaNoise" />
<feComponentTransfer in="alphaNoise" result="coloredNoise1">
<feFuncA type="discrete" tableValues="0 0 0 0 0 0 0 0 0 0 0 0 0 0 0 0 0 0 1 1 1 1 1 1 1 1 1 1 1 1 1 0 0 0 0 0 0 0 0 0 0 0 0 0 0 0 0 0 0 0 0 0 0 0 0 0 0 0 0 0 0 0 0 0 0 0 0 0 0 0 0 0 0 0 0 0 0 0 0 0 0 0 0 0 0 0 0 0 0 0 0 0 0 0 0 0 0 0 0 0 "/>
</feComponentTransfer>
<feComposite operator="in" in2="shape" in="coloredNoise1" result="noise1Clipped" />
<feFlood flood-color="#FEFDF5" result="color1Flood" />
<feComposite operator="in" in2="noise1Clipped" in="color1Flood" result="color1" />
<feMerge result="effect1_noise_2220_11257">
<feMergeNode in="shape" />
<feMergeNode in="color1" />
</feMerge>
</filter>
<filter id="filter7_n_2220_11257" x="33.8022" y="29.1685" width="19.3999" height="19.4656" filterUnits="userSpaceOnUse" color-interpolation-filters="sRGB">
<feFlood flood-opacity="0" result="BackgroundImageFix"/>
<feBlend mode="normal" in="SourceGraphic" in2="BackgroundImageFix" result="shape"/>
<feTurbulence type="fractalNoise" baseFrequency="0.40000000596046448 0.40000000596046448" stitchTiles="stitch" numOctaves="3" result="noise" seed="297" />
<feColorMatrix in="noise" type="luminanceToAlpha" result="alphaNoise" />
<feComponentTransfer in="alphaNoise" result="coloredNoise1">
<feFuncA type="discrete" tableValues="0 0 0 0 0 0 0 0 0 0 0 0 0 0 0 0 0 0 1 1 1 1 1 1 1 1 1 1 1 1 1 0 0 0 0 0 0 0 0 0 0 0 0 0 0 0 0 0 0 0 0 0 0 0 0 0 0 0 0 0 0 0 0 0 0 0 0 0 0 0 0 0 0 0 0 0 0 0 0 0 0 0 0 0 0 0 0 0 0 0 0 0 0 0 0 0 0 0 0 0 "/>
</feComponentTransfer>
<feComposite operator="in" in2="shape" in="coloredNoise1" result="noise1Clipped" />
<feFlood flood-color="rgba(0, 0, 0, 0.25)" result="color1Flood" />
<feComposite operator="in" in2="noise1Clipped" in="color1Flood" result="color1" />
<feMerge result="effect1_noise_2220_11257">
<feMergeNode in="shape" />
<feMergeNode in="color1" />
</feMerge>
</filter>
<filter id="filter8_n_2220_11257" x="46.1455" y="18.5647" width="19.4814" height="19.4393" filterUnits="userSpaceOnUse" color-interpolation-filters="sRGB">
<feFlood flood-opacity="0" result="BackgroundImageFix"/>
<feBlend mode="normal" in="SourceGraphic" in2="BackgroundImageFix" result="shape"/>
<feTurbulence type="fractalNoise" baseFrequency="0.40000000596046448 0.40000000596046448" stitchTiles="stitch" numOctaves="3" result="noise" seed="297" />
<feColorMatrix in="noise" type="luminanceToAlpha" result="alphaNoise" />
<feComponentTransfer in="alphaNoise" result="coloredNoise1">
<feFuncA type="discrete" tableValues="0 0 0 0 0 0 0 0 0 0 0 0 0 0 0 0 0 0 1 1 1 1 1 1 1 1 1 1 1 1 1 0 0 0 0 0 0 0 0 0 0 0 0 0 0 0 0 0 0 0 0 0 0 0 0 0 0 0 0 0 0 0 0 0 0 0 0 0 0 0 0 0 0 0 0 0 0 0 0 0 0 0 0 0 0 0 0 0 0 0 0 0 0 0 0 0 0 0 0 0 "/>
</feComponentTransfer>
<feComposite operator="in" in2="shape" in="coloredNoise1" result="noise1Clipped" />
<feFlood flood-color="rgba(0, 0, 0, 0.25)" result="color1Flood" />
<feComposite operator="in" in2="noise1Clipped" in="color1Flood" result="color1" />
<feMerge result="effect1_noise_2220_11257">
<feMergeNode in="shape" />
<feMergeNode in="color1" />
</feMerge>
</filter>
</defs>
</svg>
