<svg width="87" height="146" viewBox="0 0 87 146" fill="none" xmlns="http://www.w3.org/2000/svg">
<mask id="path-1-inside-1_2802_22189" fill="white">
<path d="M68.6932 145.015C68.5986 145.034 68.5419 145.053 68.4851 145.053C45.685 145.053 22.8849 145.053 0.0595578 145.053C0.0406417 144.965 0.00910772 144.883 0.00280237 144.801C-0.00350297 144.612 0.00280237 144.417 0.00280237 144.228C0.00280237 127.554 0.00280237 110.886 0.00280237 94.2123C0.00280237 90.2942 0.00280237 86.3761 0.00280237 82.4581C0.00280237 78.6597 0.00280237 74.855 0.00280237 71.0566C0.00280237 65.4629 0.00280237 59.8756 0.00280237 54.2819C0.00280237 46.4584 0.00280853 38.6412 0.00911387 30.8176C0.00911387 30.6601 0.0154123 30.4964 0.0217176 30.3389C0.318069 30.2255 0.595511 30.2696 0.866641 30.2822C1.27649 30.3011 1.68002 30.3515 2.08987 30.383C2.51233 30.4208 2.93479 30.446 3.35725 30.5027C4.18325 30.6097 5.01555 30.7042 5.83524 30.8428C6.87563 31.0129 7.90971 31.2208 8.94378 31.416C10.8858 31.7877 12.8342 32.153 14.7762 32.531C15.6968 32.7074 16.6174 32.8774 17.5506 32.9971C18.4081 33.1105 19.2656 33.1987 20.1295 33.2491C20.615 33.2743 21.0942 33.3121 21.5797 33.2932C22.6957 33.2491 23.8055 33.1609 24.8711 32.7893C26.5483 32.2097 27.74 31.1263 28.3516 29.4318C28.5723 28.8208 28.7047 28.1909 28.7741 27.5484C28.875 26.6287 28.8561 25.709 28.7867 24.783C28.6543 23.0949 28.3201 21.4508 27.8913 19.8193C27.5572 18.5469 27.1851 17.2744 26.8636 15.9957C26.624 15.0319 26.4348 14.0556 26.3465 13.0603C26.3087 12.6509 26.2898 12.2414 26.2456 11.8383C26.1763 11.284 26.1763 10.7233 26.2015 10.169C26.2519 8.87768 26.3781 7.59896 26.769 6.35803C27.0086 5.58323 27.2986 4.83363 27.6959 4.12812C28.6669 2.40846 30.0352 1.12973 31.9015 0.430525C33.0491 0.00218322 34.2345 -0.0922963 35.4514 0.0840799C36.5044 0.235259 37.4565 0.619508 38.3456 1.18643C39.3481 1.82894 40.1426 2.67932 40.7795 3.68089C41.5865 4.94702 42.0594 6.34543 42.3243 7.81313C42.4252 8.36116 42.4819 8.90918 42.5071 9.46981C42.5323 9.87925 42.5576 10.2887 42.5576 10.6981C42.5639 11.4918 42.4945 12.2729 42.3999 13.0603C42.2927 13.9926 42.1477 14.9186 41.9207 15.8256C41.6811 16.7894 41.4163 17.7532 41.1389 18.7106C40.6597 20.4051 40.2687 22.1122 40.0291 23.8571C39.9535 24.4366 39.8904 25.0224 39.903 25.6082C39.9219 26.2507 39.8841 26.8996 39.9535 27.5421C40.0922 28.846 40.4768 30.0617 41.3343 31.0948C41.782 31.6302 42.318 32.0522 42.9359 32.3735C44.0267 32.9404 45.1932 33.1609 46.4101 33.2239C46.7884 33.2428 47.1731 33.2806 47.5514 33.2743C48.327 33.2617 49.0962 33.2176 49.8718 33.1294C50.805 33.0223 51.7318 32.9089 52.6587 32.7515C53.7874 32.5625 54.9097 32.3483 56.0258 32.1152C57.3562 31.8381 58.6992 31.5987 60.0423 31.3405C60.9502 31.1704 61.8519 30.994 62.7599 30.8365C63.3967 30.7294 64.0336 30.6601 64.6767 30.572C64.9541 30.5342 65.2316 30.509 65.5027 30.4649C66.1522 30.3767 66.8079 30.3011 67.47 30.2948C67.7789 30.2885 68.0816 30.257 68.3905 30.2444C68.4914 30.2381 68.5923 30.2696 68.7058 30.2822C68.7184 30.3956 68.731 30.4964 68.731 30.5972C68.7373 30.9184 68.7626 31.246 68.7247 31.5672C68.6365 32.3735 68.6995 33.1798 68.6554 33.9798C68.6049 34.8869 68.5797 35.7939 68.5545 36.701C68.5356 37.4443 68.4914 38.1939 68.4536 38.9372C68.4221 39.5356 68.3905 40.1341 68.3527 40.7325C68.3212 41.1545 68.2771 41.5766 68.2392 41.9986C68.214 42.2884 68.1951 42.5844 68.1825 42.8742C68.1636 43.271 68.1509 43.6616 68.1257 44.0584C68.0816 44.701 68.0248 45.3435 67.9744 45.9797C67.9555 46.2442 67.9429 46.5025 67.924 46.7671C67.8861 47.4222 67.8483 48.0836 67.8042 48.7387C67.76 49.3371 67.697 49.9292 67.6465 50.5277C67.6213 50.7922 67.615 51.0505 67.5961 51.3151C67.5583 51.9576 67.5267 52.6001 67.4889 53.2426C67.4637 53.6331 67.4258 54.03 67.3943 54.4205C67.3691 54.7103 67.3502 55.0064 67.3376 55.2961C67.3123 55.7182 67.2871 56.1402 67.2619 56.5622C67.2367 57.0158 67.2051 57.4693 67.1736 57.9229C67.1484 58.2756 67.1232 58.6221 67.1106 58.9748C67.0916 59.4725 67.079 59.9701 67.0601 60.4677C67.0349 61.1102 66.9971 61.7527 66.9655 62.3953C66.9655 62.4519 66.9592 62.5149 66.9592 62.5716C66.9403 63.9196 66.9088 65.2677 66.9025 66.6157C66.8962 67.0251 66.9403 67.4346 66.9592 67.844C66.9781 68.2409 66.9971 68.6314 66.9971 69.0283C66.9971 69.6015 67.0664 70.1684 67.1043 70.7353C67.161 71.6109 67.2997 72.4802 67.47 73.3432C67.6024 74.0487 67.7852 74.7416 68.0374 75.4156C68.2897 76.0896 68.6302 76.7195 69.1157 77.2676C69.6138 77.8282 70.2443 78.1242 70.982 78.2439C71.5117 78.3258 72.0035 78.1872 72.4953 78.0549C73.1385 77.8849 73.7186 77.5699 74.2924 77.236C75.1436 76.7384 75.9128 76.1274 76.6758 75.5038C77.3757 74.9306 78.1386 74.477 78.9772 74.1369C79.3303 73.992 79.7023 73.9038 80.0807 73.8597C80.2383 73.8408 80.4022 73.7967 80.5599 73.803C81.2408 73.8156 81.8903 73.9479 82.4893 74.3069C83.4792 74.8991 84.1413 75.7809 84.6962 76.7636C85.3078 77.8597 85.7239 79.0313 86.0455 80.2408C86.3292 81.3179 86.5184 82.414 86.6634 83.5163C86.7832 84.4171 86.84 85.3179 86.8778 86.225C86.903 86.7793 86.9156 87.3399 86.9219 87.8942C86.9219 88.5808 86.8589 89.2674 86.8337 89.954C86.7769 91.3021 86.5625 92.6312 86.2914 93.954C86.0203 95.2642 85.6293 96.5367 85.0682 97.7524C84.6646 98.6217 84.1728 99.4469 83.4982 100.121C82.7226 100.902 81.802 101.406 80.6481 101.381C80.0365 101.368 79.4564 101.255 78.8952 101.022C78.0882 100.681 77.363 100.228 76.6884 99.6799C76.165 99.2579 75.6291 98.8421 75.0805 98.4516C74.2608 97.8784 73.3844 97.3996 72.4197 97.1225C72.1801 97.0532 71.9405 96.9776 71.6946 96.9587C70.9064 96.8831 70.1687 97.0595 69.5507 97.5634C69.1724 97.8658 68.8571 98.2374 68.6112 98.6595C68.1005 99.5287 67.8104 100.48 67.5835 101.456C67.3312 102.546 67.1925 103.648 67.1106 104.757C67.0412 105.633 66.9719 106.508 66.9845 107.39C66.9908 107.812 66.9403 108.234 66.9277 108.663C66.9151 109.072 66.9214 109.481 66.9277 109.897C66.934 110.25 66.9214 110.596 66.9781 110.949C67.0223 111.22 66.9908 111.503 66.9908 111.787C67.0034 112.549 66.9971 113.311 67.0412 114.073C67.0853 114.773 67.1169 115.478 67.1484 116.177C67.1799 116.921 67.2493 117.664 67.2934 118.414C67.3186 118.867 67.3313 119.321 67.3628 119.774C67.388 120.152 67.4258 120.53 67.4574 120.908C67.4889 121.33 67.5078 121.752 67.5393 122.174C67.5646 122.54 67.5961 122.905 67.6213 123.27C67.6465 123.623 67.6654 123.969 67.6907 124.322C67.7222 124.776 67.76 125.223 67.7915 125.677C67.8168 126.029 67.8294 126.376 67.8546 126.728C67.8861 127.119 67.924 127.516 67.9618 127.906C67.9618 127.919 67.9681 127.938 67.9681 127.951C68.0185 128.782 68.069 129.613 68.1257 130.445C68.1573 130.899 68.1951 131.346 68.2266 131.799C68.2455 132.076 68.2581 132.354 68.2771 132.631C68.3023 133.072 68.3212 133.506 68.3464 133.947C68.3653 134.313 68.3905 134.678 68.4095 135.043C68.441 135.598 68.4725 136.152 68.5103 136.706C68.5419 137.248 68.5734 137.79 68.6049 138.325C68.6049 138.357 68.6049 138.382 68.6049 138.413C68.6239 139.087 68.6175 139.761 68.6617 140.435C68.7184 141.286 68.668 142.136 68.7247 142.987C68.7626 143.528 68.7689 144.07 68.7752 144.612C68.7121 144.744 68.7058 144.857 68.6932 145.015Z"/>
</mask>
<path d="M68.6932 145.015C68.5986 145.034 68.5419 145.053 68.4851 145.053C45.685 145.053 22.8849 145.053 0.0595578 145.053C0.0406417 144.965 0.00910772 144.883 0.00280237 144.801C-0.00350297 144.612 0.00280237 144.417 0.00280237 144.228C0.00280237 127.554 0.00280237 110.886 0.00280237 94.2123C0.00280237 90.2942 0.00280237 86.3761 0.00280237 82.4581C0.00280237 78.6597 0.00280237 74.855 0.00280237 71.0566C0.00280237 65.4629 0.00280237 59.8756 0.00280237 54.2819C0.00280237 46.4584 0.00280853 38.6412 0.00911387 30.8176C0.00911387 30.6601 0.0154123 30.4964 0.0217176 30.3389C0.318069 30.2255 0.595511 30.2696 0.866641 30.2822C1.27649 30.3011 1.68002 30.3515 2.08987 30.383C2.51233 30.4208 2.93479 30.446 3.35725 30.5027C4.18325 30.6097 5.01555 30.7042 5.83524 30.8428C6.87563 31.0129 7.90971 31.2208 8.94378 31.416C10.8858 31.7877 12.8342 32.153 14.7762 32.531C15.6968 32.7074 16.6174 32.8774 17.5506 32.9971C18.4081 33.1105 19.2656 33.1987 20.1295 33.2491C20.615 33.2743 21.0942 33.3121 21.5797 33.2932C22.6957 33.2491 23.8055 33.1609 24.8711 32.7893C26.5483 32.2097 27.74 31.1263 28.3516 29.4318C28.5723 28.8208 28.7047 28.1909 28.7741 27.5484C28.875 26.6287 28.8561 25.709 28.7867 24.783C28.6543 23.0949 28.3201 21.4508 27.8913 19.8193C27.5572 18.5469 27.1851 17.2744 26.8636 15.9957C26.624 15.0319 26.4348 14.0556 26.3465 13.0603C26.3087 12.6509 26.2898 12.2414 26.2456 11.8383C26.1763 11.284 26.1763 10.7233 26.2015 10.169C26.2519 8.87768 26.3781 7.59896 26.769 6.35803C27.0086 5.58323 27.2986 4.83363 27.6959 4.12812C28.6669 2.40846 30.0352 1.12973 31.9015 0.430525C33.0491 0.00218322 34.2345 -0.0922963 35.4514 0.0840799C36.5044 0.235259 37.4565 0.619508 38.3456 1.18643C39.3481 1.82894 40.1426 2.67932 40.7795 3.68089C41.5865 4.94702 42.0594 6.34543 42.3243 7.81313C42.4252 8.36116 42.4819 8.90918 42.5071 9.46981C42.5323 9.87925 42.5576 10.2887 42.5576 10.6981C42.5639 11.4918 42.4945 12.2729 42.3999 13.0603C42.2927 13.9926 42.1477 14.9186 41.9207 15.8256C41.6811 16.7894 41.4163 17.7532 41.1389 18.7106C40.6597 20.4051 40.2687 22.1122 40.0291 23.8571C39.9535 24.4366 39.8904 25.0224 39.903 25.6082C39.9219 26.2507 39.8841 26.8996 39.9535 27.5421C40.0922 28.846 40.4768 30.0617 41.3343 31.0948C41.782 31.6302 42.318 32.0522 42.9359 32.3735C44.0267 32.9404 45.1932 33.1609 46.4101 33.2239C46.7884 33.2428 47.1731 33.2806 47.5514 33.2743C48.327 33.2617 49.0962 33.2176 49.8718 33.1294C50.805 33.0223 51.7318 32.9089 52.6587 32.7515C53.7874 32.5625 54.9097 32.3483 56.0258 32.1152C57.3562 31.8381 58.6992 31.5987 60.0423 31.3405C60.9502 31.1704 61.8519 30.994 62.7599 30.8365C63.3967 30.7294 64.0336 30.6601 64.6767 30.572C64.9541 30.5342 65.2316 30.509 65.5027 30.4649C66.1522 30.3767 66.8079 30.3011 67.47 30.2948C67.7789 30.2885 68.0816 30.257 68.3905 30.2444C68.4914 30.2381 68.5923 30.2696 68.7058 30.2822C68.7184 30.3956 68.731 30.4964 68.731 30.5972C68.7373 30.9184 68.7626 31.246 68.7247 31.5672C68.6365 32.3735 68.6995 33.1798 68.6554 33.9798C68.6049 34.8869 68.5797 35.7939 68.5545 36.701C68.5356 37.4443 68.4914 38.1939 68.4536 38.9372C68.4221 39.5356 68.3905 40.1341 68.3527 40.7325C68.3212 41.1545 68.2771 41.5766 68.2392 41.9986C68.214 42.2884 68.1951 42.5844 68.1825 42.8742C68.1636 43.271 68.1509 43.6616 68.1257 44.0584C68.0816 44.701 68.0248 45.3435 67.9744 45.9797C67.9555 46.2442 67.9429 46.5025 67.924 46.7671C67.8861 47.4222 67.8483 48.0836 67.8042 48.7387C67.76 49.3371 67.697 49.9292 67.6465 50.5277C67.6213 50.7922 67.615 51.0505 67.5961 51.3151C67.5583 51.9576 67.5267 52.6001 67.4889 53.2426C67.4637 53.6331 67.4258 54.03 67.3943 54.4205C67.3691 54.7103 67.3502 55.0064 67.3376 55.2961C67.3123 55.7182 67.2871 56.1402 67.2619 56.5622C67.2367 57.0158 67.2051 57.4693 67.1736 57.9229C67.1484 58.2756 67.1232 58.6221 67.1106 58.9748C67.0916 59.4725 67.079 59.9701 67.0601 60.4677C67.0349 61.1102 66.9971 61.7527 66.9655 62.3953C66.9655 62.4519 66.9592 62.5149 66.9592 62.5716C66.9403 63.9196 66.9088 65.2677 66.9025 66.6157C66.8962 67.0251 66.9403 67.4346 66.9592 67.844C66.9781 68.2409 66.9971 68.6314 66.9971 69.0283C66.9971 69.6015 67.0664 70.1684 67.1043 70.7353C67.161 71.6109 67.2997 72.4802 67.47 73.3432C67.6024 74.0487 67.7852 74.7416 68.0374 75.4156C68.2897 76.0896 68.6302 76.7195 69.1157 77.2676C69.6138 77.8282 70.2443 78.1242 70.982 78.2439C71.5117 78.3258 72.0035 78.1872 72.4953 78.0549C73.1385 77.8849 73.7186 77.5699 74.2924 77.236C75.1436 76.7384 75.9128 76.1274 76.6758 75.5038C77.3757 74.9306 78.1386 74.477 78.9772 74.1369C79.3303 73.992 79.7023 73.9038 80.0807 73.8597C80.2383 73.8408 80.4022 73.7967 80.5599 73.803C81.2408 73.8156 81.8903 73.9479 82.4893 74.3069C83.4792 74.8991 84.1413 75.7809 84.6962 76.7636C85.3078 77.8597 85.7239 79.0313 86.0455 80.2408C86.3292 81.3179 86.5184 82.414 86.6634 83.5163C86.7832 84.4171 86.84 85.3179 86.8778 86.225C86.903 86.7793 86.9156 87.3399 86.9219 87.8942C86.9219 88.5808 86.8589 89.2674 86.8337 89.954C86.7769 91.3021 86.5625 92.6312 86.2914 93.954C86.0203 95.2642 85.6293 96.5367 85.0682 97.7524C84.6646 98.6217 84.1728 99.4469 83.4982 100.121C82.7226 100.902 81.802 101.406 80.6481 101.381C80.0365 101.368 79.4564 101.255 78.8952 101.022C78.0882 100.681 77.363 100.228 76.6884 99.6799C76.165 99.2579 75.6291 98.8421 75.0805 98.4516C74.2608 97.8784 73.3844 97.3996 72.4197 97.1225C72.1801 97.0532 71.9405 96.9776 71.6946 96.9587C70.9064 96.8831 70.1687 97.0595 69.5507 97.5634C69.1724 97.8658 68.8571 98.2374 68.6112 98.6595C68.1005 99.5287 67.8104 100.48 67.5835 101.456C67.3312 102.546 67.1925 103.648 67.1106 104.757C67.0412 105.633 66.9719 106.508 66.9845 107.39C66.9908 107.812 66.9403 108.234 66.9277 108.663C66.9151 109.072 66.9214 109.481 66.9277 109.897C66.934 110.25 66.9214 110.596 66.9781 110.949C67.0223 111.22 66.9908 111.503 66.9908 111.787C67.0034 112.549 66.9971 113.311 67.0412 114.073C67.0853 114.773 67.1169 115.478 67.1484 116.177C67.1799 116.921 67.2493 117.664 67.2934 118.414C67.3186 118.867 67.3313 119.321 67.3628 119.774C67.388 120.152 67.4258 120.53 67.4574 120.908C67.4889 121.33 67.5078 121.752 67.5393 122.174C67.5646 122.54 67.5961 122.905 67.6213 123.27C67.6465 123.623 67.6654 123.969 67.6907 124.322C67.7222 124.776 67.76 125.223 67.7915 125.677C67.8168 126.029 67.8294 126.376 67.8546 126.728C67.8861 127.119 67.924 127.516 67.9618 127.906C67.9618 127.919 67.9681 127.938 67.9681 127.951C68.0185 128.782 68.069 129.613 68.1257 130.445C68.1573 130.899 68.1951 131.346 68.2266 131.799C68.2455 132.076 68.2581 132.354 68.2771 132.631C68.3023 133.072 68.3212 133.506 68.3464 133.947C68.3653 134.313 68.3905 134.678 68.4095 135.043C68.441 135.598 68.4725 136.152 68.5103 136.706C68.5419 137.248 68.5734 137.79 68.6049 138.325C68.6049 138.357 68.6049 138.382 68.6049 138.413C68.6239 139.087 68.6175 139.761 68.6617 140.435C68.7184 141.286 68.668 142.136 68.7247 142.987C68.7626 143.528 68.7689 144.07 68.7752 144.612C68.7121 144.744 68.7058 144.857 68.6932 145.015Z" fill="#E65325" stroke="#FFFEF6" stroke-width="2" mask="url(#path-1-inside-1_2802_22189)"/>
</svg>
