<svg width="73" height="118" viewBox="0 0 73 118" fill="none" xmlns="http://www.w3.org/2000/svg">
<mask id="path-1-inside-1_2802_22185" fill="white">
<path d="M1.81513 114.647C1.80882 114.521 1.79623 114.421 1.79623 114.314C1.79623 114.062 1.80254 113.816 1.79623 113.564C1.77731 112.537 1.78989 111.51 1.72683 110.489C1.7016 109.991 1.70163 109.494 1.6764 108.996C1.63225 108.246 1.61331 107.503 1.57547 106.753C1.53763 106.085 1.4935 105.417 1.48089 104.749C1.36737 104.34 1.46194 103.911 1.37365 103.495C1.31689 103.231 1.34844 102.947 1.3106 102.676C1.26645 102.298 1.27904 101.914 1.25382 101.536C1.22859 101.133 1.19078 100.723 1.16555 100.32C1.14663 100.055 1.12769 99.797 1.10877 99.5323C1.08355 99.1543 1.07095 98.77 1.04572 98.3919C1.02049 98.0139 0.982637 97.6358 0.951103 97.2578C0.944796 97.2074 0.944784 97.1507 0.938477 97.1003C0.919557 96.7223 0.900652 96.3379 0.875425 95.9599C0.831277 95.3424 0.768215 94.7313 0.724068 94.1201C0.67992 93.4774 0.679925 92.8348 0.61055 92.1921C0.566402 91.8015 0.591614 91.4046 0.515933 91.0139C0.459172 90.7367 0.497034 90.4406 0.459193 90.1507C0.408739 89.7601 0.421329 89.3632 0.396102 88.9725C0.370875 88.5252 0.333051 88.0841 0.29521 87.6368C0.29521 87.599 0.288897 87.5612 0.288897 87.5171C0.269977 87.0445 0.263659 86.572 0.238432 86.0995C0.213205 85.6395 0.175387 85.1859 0.143853 84.7259C0.143853 84.7007 0.13754 84.6755 0.13754 84.644C0.11862 84.0896 0.0996827 83.5414 0.0807623 82.987C0.0681487 82.6467 0.112318 82.3065 0.0240227 81.9663C0.00510233 81.8907 0.0177098 81.8087 0.0177098 81.7268C0.0177098 80.0824 0.0114091 78.4379 0.0240227 76.7872C0.0303295 76.2516 0.0933805 75.7161 0.124915 75.1805C0.143835 74.9033 0.150152 74.6324 0.17538 74.3551C0.225834 73.807 0.263681 73.2588 0.339363 72.7107C0.459192 71.8664 0.623159 71.0284 0.881738 70.2093C1.10878 69.4785 1.39257 68.7728 1.89081 68.1742C2.11155 67.9096 2.34491 67.6639 2.65395 67.5001C3.10803 67.2607 3.58103 67.1535 4.09819 67.2355C4.46398 67.2922 4.82978 67.3174 5.17035 67.4623C5.56768 67.6324 5.97762 67.7962 6.34972 68.0167C7.02455 68.42 7.68676 68.8484 8.28591 69.3714C8.68324 69.7179 9.09947 70.0392 9.53464 70.3354C10.2347 70.8079 10.9663 71.23 11.7925 71.4506C12.1204 71.5388 12.4547 71.627 12.7953 71.6333C12.871 71.6333 12.9466 71.6648 13.0286 71.6711C13.1485 71.6837 13.2683 71.7026 13.3818 71.6837C14.1639 71.5451 14.927 71.3561 15.5766 70.8709C16.0307 70.5307 16.4469 70.1526 16.8001 69.7053C17.3992 68.9429 17.8659 68.1112 18.2381 67.2229C18.8687 65.7233 19.2787 64.1671 19.5246 62.5604C19.6003 62.0564 19.6949 61.5523 19.7517 61.0483C19.821 60.4245 19.8589 59.7945 19.903 59.1644C19.9661 58.2067 19.9346 57.2427 19.9346 56.285C19.9346 55.8125 19.8778 55.3399 19.8463 54.8674C19.821 54.4767 19.7832 54.0861 19.7517 53.6892C19.7075 53.0969 19.5751 52.5236 19.4931 51.9376C19.367 51.0492 19.1588 50.1797 18.9066 49.3228C18.6165 48.3526 18.2633 47.4075 17.7839 46.5065C17.4623 45.9016 17.0902 45.3283 16.655 44.799C16.1568 44.1942 15.5576 43.6838 14.8324 43.3814C13.8611 42.9718 12.852 42.8899 11.824 43.2113C11.2312 43.4003 10.6762 43.6649 10.1338 43.9736C9.47789 44.3454 8.89765 44.8179 8.31112 45.2905C7.57953 45.8764 6.82272 46.4183 5.99023 46.853C5.34693 47.1932 4.67213 47.439 3.92793 47.4579C3.2531 47.4768 2.66023 47.3004 2.162 46.8215C1.77728 46.4498 1.48087 46.015 1.26644 45.5299C0.888035 44.6856 0.63577 43.8035 0.484406 42.8899C0.396111 42.3481 0.3015 41.8062 0.238432 41.2581C0.175364 40.7351 0.16905 40.2122 0.112289 39.6892C0.0618342 39.2671 0.106003 38.845 0.055549 38.4291C-0.00121216 37.9944 0.0113968 37.5659 0.0113968 37.1312C0.00509001 35.8018 -0.0138242 34.4723 0.0177098 33.1429C0.0366301 32.3805 0.0366132 31.6182 0.118602 30.8621C0.118602 30.8369 0.118602 30.8117 0.118602 30.7802C0.137522 30.2257 0.14384 29.6776 0.169067 29.1231C0.187987 28.6758 0.23215 28.2347 0.263684 27.7874C0.263684 27.7496 0.269958 27.7055 0.269958 27.6677C0.288879 27.1951 0.301509 26.7226 0.326737 26.2501C0.351964 25.8594 0.396094 25.4688 0.427628 25.0781C0.452856 24.6875 0.465498 24.2906 0.497032 23.8999C0.52226 23.4967 0.56639 23.0934 0.597924 22.6839C0.616845 22.4193 0.629469 22.161 0.648389 21.8963C0.66731 21.5561 0.692528 21.2159 0.717755 20.8756C0.736675 20.5102 0.755613 20.1385 0.774533 19.773C0.787147 19.5651 0.799726 19.3509 0.818647 19.143C0.850181 18.7901 0.888049 18.4373 0.92589 18.0908C0.932197 18.053 0.938477 18.0152 0.938477 17.9711C0.957398 17.593 0.970028 17.2087 0.995255 16.8307C1.02048 16.4652 1.06465 16.0998 1.08987 15.7344C1.10879 15.4886 1.12137 15.2366 1.13399 14.9846C1.15291 14.5939 1.17185 14.197 1.19708 13.8064C1.216 13.4409 1.24121 13.0755 1.26013 12.7038C1.29166 12.2312 1.32321 11.765 1.35475 11.2924C1.36736 11.1349 1.40519 10.9837 1.4178 10.8262C1.44303 10.4229 1.44305 10.0134 1.48089 9.61017C1.52504 9.08722 1.48717 8.55797 1.57547 8.04132C1.57547 8.02872 1.57547 8.01612 1.57547 8.00352C1.59439 7.50577 1.61332 7.00802 1.62593 6.50397C1.64486 5.88652 1.62592 5.26275 1.68899 4.6516C1.74575 4.09714 1.69531 3.54899 1.74577 3.00084C1.82145 2.08095 1.78362 1.16106 1.80254 0.241176C1.80254 0.190771 1.81514 0.140367 1.82776 0.0647602C1.90344 0.0458584 1.9728 0.0206549 2.04848 0.0143543C2.16831 0.00805367 2.28814 0.00805233 2.40166 0.00805233C24.8791 0.00805233 47.3502 0.00805233 69.8276 0.00805233C70.0105 0.00805233 70.1934 -0.0297501 70.3889 0.0584583C70.4016 0.115164 70.4205 0.17817 70.4268 0.241176C70.4331 0.348286 70.4268 0.449096 70.4331 0.556206C70.4457 1.75332 70.4394 2.95043 70.4898 4.14755C70.5088 4.6579 70.5025 5.17455 70.5466 5.68489C70.5781 6.08183 70.5466 6.47877 70.6034 6.86311C70.679 7.33565 70.5971 7.8082 70.698 8.27444C70.7043 8.29964 70.698 8.32484 70.7043 8.35635C70.7232 8.8667 70.7358 9.37704 70.7673 9.89369C70.7926 10.3095 70.8367 10.7317 70.862 11.1475C70.8872 11.5697 70.8998 11.9855 70.925 12.4076C70.9502 12.7857 70.9818 13.1637 71.007 13.548C71.007 13.5858 71.0196 13.6236 71.0196 13.6678C71.0449 14.071 71.0638 14.4805 71.089 14.8838C71.1142 15.2366 71.1583 15.5894 71.1899 15.9423C71.2151 16.2321 71.2277 16.5156 71.2467 16.8055C71.2719 17.1835 71.2845 17.5678 71.3097 17.9459C71.3349 18.2735 71.3665 18.6011 71.398 18.9225C71.4043 18.9729 71.4043 19.0296 71.4043 19.08C71.4422 19.5777 71.48 20.0755 71.5115 20.5732C71.5368 20.9513 71.5431 21.3356 71.5746 21.7136C71.5998 22.0917 71.644 22.4697 71.6755 22.8477C71.7007 23.125 71.7134 23.3959 71.726 23.6731C71.7449 24.0763 71.7638 24.4859 71.789 24.8891C71.8143 25.2924 71.8458 25.7019 71.8773 26.1051C71.8773 26.1303 71.8837 26.1555 71.8837 26.1807C71.9026 26.6533 71.9215 27.1258 71.953 27.5984C71.9782 28.0457 72.0161 28.4868 72.0539 28.9278C72.0539 28.953 72.0602 28.9782 72.0602 29.0097C72.0791 29.5579 72.0981 30.1123 72.117 30.6605C72.1296 30.9881 72.1548 31.3157 72.1737 31.6434C72.1927 31.971 72.2053 32.2986 72.2179 32.6263C72.2242 32.7334 72.2242 32.8342 72.2242 32.9413C72.2242 34.5353 72.2431 36.1294 72.2242 37.7234C72.2179 38.2968 72.1864 38.8765 72.1422 39.4498C72.1044 39.9224 72.0791 40.3949 72.0224 40.8611C71.953 41.4093 71.8837 41.9511 71.808 42.4993C71.7008 43.2302 71.5241 43.9421 71.2971 44.6415C71.089 45.2842 70.8052 45.8953 70.4015 46.4309C69.9664 47.0105 69.3988 47.3823 68.6483 47.4327C67.9734 47.4768 67.349 47.3382 66.7373 47.0672C65.6904 46.6136 64.7696 45.9583 63.8929 45.2464C63.3001 44.7675 62.701 44.3013 62.0324 43.9169C61.2252 43.4507 60.3737 43.1168 59.4466 43.0097C59.0493 42.9655 58.6583 43.0223 58.2736 43.1042C57.5861 43.2428 56.9933 43.5641 56.4383 43.9736C55.8896 44.3769 55.4671 44.8998 55.0887 45.4543C54.5652 46.2167 54.1616 47.042 53.8336 47.9052C53.3984 49.0393 53.0894 50.2049 52.8497 51.3894C52.711 52.0951 52.5975 52.8071 52.5218 53.5253C52.4713 54.0231 52.4146 54.5145 52.3641 55.0123C52.3515 55.1446 52.3641 55.2769 52.3578 55.4092C52.3452 55.5793 52.32 55.7495 52.3073 55.9133C52.301 56.0204 52.2948 56.1212 52.2948 56.2283C52.2948 56.9781 52.2948 57.7278 52.2948 58.4776C52.2948 58.6225 52.3262 58.7612 52.3389 58.9061C52.3452 58.9691 52.3515 59.0384 52.3578 59.1014C52.402 60.7332 52.629 62.3399 52.9822 63.9339C53.2344 65.0807 53.5687 66.2022 54.0291 67.2796C54.3255 67.9789 54.6661 68.6657 55.1391 69.2705C55.3724 69.5667 55.5932 69.888 55.8518 70.1589C56.1419 70.4614 56.4762 70.7197 56.823 70.9591C57.4285 71.3687 58.1222 71.5199 58.816 71.6585C58.8916 71.6711 58.9736 71.6774 59.0493 71.6648C59.598 71.5892 60.1467 71.5451 60.6702 71.3624C61.181 71.1859 61.6666 70.9528 62.127 70.6693C62.6189 70.3669 63.0793 70.014 63.5334 69.6549C64.265 69.0752 64.9966 68.4956 65.8102 68.0293C66.258 67.771 66.7121 67.5379 67.1977 67.3741C67.3553 67.3174 67.532 67.2859 67.6959 67.267C68.0743 67.2229 68.4401 67.141 68.8311 67.2166C69.2474 67.2922 69.6132 67.4497 69.9222 67.7269C70.1556 67.9348 70.37 68.1679 70.5466 68.4326C70.8304 68.8799 71.0511 69.3588 71.2214 69.8502C71.5494 70.7953 71.7449 71.7719 71.8837 72.7674C71.9719 73.3911 72.0287 74.0149 72.0918 74.6387C72.1422 75.1238 72.1359 75.609 72.1612 76.0941C72.2621 77.9213 72.1863 79.7548 72.2053 81.5819C72.2116 82.1868 72.199 82.7916 72.1485 83.3965C72.117 83.7619 72.117 84.1337 72.0981 84.4991C72.0791 84.959 72.035 85.4127 72.0035 85.8726C72.0035 85.8978 71.9972 85.923 71.9972 85.9545C71.9782 86.4397 71.9593 86.9248 71.9341 87.41C71.9089 87.8132 71.871 88.2165 71.8332 88.626C71.8269 88.6764 71.8206 88.7331 71.8206 88.7835C71.8016 89.2057 71.7953 89.6215 71.7701 90.0436C71.7449 90.4217 71.7071 90.7997 71.6818 91.1777C71.6629 91.4676 71.6377 91.7511 71.6251 92.0409C71.5998 92.4316 71.5872 92.8285 71.562 93.2191C71.5368 93.572 71.4989 93.9248 71.4674 94.2776C71.4422 94.5801 71.4169 94.8762 71.398 95.1786C71.3602 95.8087 71.335 96.4387 71.2908 97.0625C71.2656 97.4279 71.2214 97.7934 71.1899 98.1588C71.171 98.3919 71.1583 98.6314 71.1457 98.8645C71.1205 99.2551 71.1142 99.6521 71.0764 100.043C71.0385 100.396 71.007 100.748 71.0007 101.101C71.0007 101.246 70.9818 101.391 70.9755 101.53C70.9566 101.725 70.9313 101.92 70.925 102.116C70.9061 102.55 70.8935 102.979 70.8682 103.413C70.843 103.817 70.8052 104.226 70.7737 104.63C70.7737 104.642 70.7737 104.655 70.7737 104.667C70.7547 105.127 70.7295 105.587 70.7106 106.041C70.6916 106.488 70.7106 106.936 70.6538 107.377C70.6034 107.742 70.6412 108.114 70.597 108.473C70.534 108.983 70.5844 109.5 70.534 110.01C70.4835 110.533 70.5151 111.062 70.4835 111.585C70.4268 112.518 70.4457 113.45 70.4457 114.383C70.4457 114.446 70.4331 114.509 70.4268 114.559C70.3322 114.666 70.2186 114.641 70.1177 114.641C69.6195 114.66 69.1149 114.66 68.623 114.698C68.0113 114.748 67.3932 114.818 66.7878 114.899C66.0057 115 65.23 115.107 64.4479 115.227C63.7983 115.328 63.155 115.448 62.5117 115.574C60.9224 115.876 59.3394 116.191 57.7564 116.5C56.9176 116.664 56.0788 116.834 55.24 116.972C54.2562 117.136 53.2723 117.287 52.2821 117.426C51.8406 117.489 51.3929 117.483 50.9514 117.552C50.573 117.609 50.1883 117.59 49.8099 117.602C49.6522 117.609 49.4945 117.634 49.3431 117.647C49.2359 117.653 49.135 117.665 49.0278 117.665C48.5548 117.653 48.0881 117.596 47.6151 117.552C47.1042 117.502 46.5997 117.42 46.1015 117.294C44.9536 116.998 44.0076 116.386 43.2949 115.441C43.0111 115.063 42.7967 114.635 42.6453 114.181C42.5381 113.86 42.4498 113.526 42.3741 113.192C42.3237 112.978 42.2985 112.751 42.2669 112.53C42.1471 111.762 42.1534 110.981 42.1976 110.206C42.2669 108.895 42.4687 107.597 42.7652 106.318C42.9607 105.486 43.1562 104.655 43.3706 103.829C43.5346 103.206 43.749 102.594 43.913 101.977C44.1779 100.975 44.4239 99.9671 44.5563 98.9338C44.6257 98.4171 44.7076 97.8942 44.7707 97.3775C44.7959 97.1696 44.8149 96.9617 44.8212 96.7538C44.8338 95.941 44.8779 95.1219 44.796 94.3091C44.7518 93.8933 44.7139 93.4712 44.6509 93.0616C44.531 92.2677 44.3671 91.4865 44.0959 90.7241C43.768 89.8042 43.358 88.9284 42.803 88.1156C42.4813 87.6494 42.1345 87.2084 41.7435 86.7988C41.22 86.2507 40.6208 85.8096 39.9649 85.4316C39.3343 85.0662 38.6657 84.8078 37.9594 84.6188C36.9061 84.3416 35.8529 84.329 34.7934 84.5054C34.2132 84.5999 33.6455 84.7826 33.0969 85.022C32.2896 85.3749 31.5706 85.8474 30.9084 86.4145C30.5174 86.7484 30.1768 87.1328 29.8552 87.536C29.4704 88.0211 29.1235 88.5378 28.846 89.0859C28.3541 90.0625 27.9757 91.0832 27.755 92.1606C27.6162 92.8285 27.5279 93.5027 27.4712 94.1831C27.4018 94.9959 27.4144 95.815 27.446 96.6278C27.4838 97.6106 27.6225 98.5809 27.7991 99.5512C28.0388 100.874 28.3983 102.16 28.7704 103.451C29.0353 104.371 29.2812 105.297 29.483 106.236C29.6596 107.074 29.7795 107.912 29.9182 108.756C30.0759 109.739 30.0885 110.716 30.0759 111.705C30.0633 112.417 29.9308 113.116 29.7353 113.797C29.6029 114.269 29.4137 114.717 29.1551 115.133C28.5875 116.027 27.8244 116.67 26.8279 117.061C26.1342 117.332 25.4152 117.47 24.6836 117.546C24.3304 117.584 23.9835 117.64 23.6304 117.659C23.3718 117.678 23.1069 117.697 22.842 117.628C22.7411 117.602 22.6339 117.602 22.5267 117.609C21.7762 117.621 21.032 117.558 20.2878 117.451C19.7454 117.369 19.1904 117.325 18.648 117.243C17.7524 117.098 16.8632 116.941 15.9739 116.783C15.1855 116.638 14.3972 116.481 13.6152 116.33C12.8268 116.179 12.0385 116.04 11.2564 115.87C10.0897 115.624 8.91028 115.422 7.73091 115.221C7.17591 115.126 6.60832 115.076 6.05332 114.969C5.49832 114.862 4.93699 114.836 4.37569 114.761C4.07927 114.717 3.77024 114.729 3.47382 114.698C2.97558 114.641 2.47735 114.647 1.97911 114.654C1.92866 114.685 1.89081 114.666 1.81513 114.647Z"/>
</mask>
<path d="M1.81513 114.647C1.80882 114.521 1.79623 114.421 1.79623 114.314C1.79623 114.062 1.80254 113.816 1.79623 113.564C1.77731 112.537 1.78989 111.51 1.72683 110.489C1.7016 109.991 1.70163 109.494 1.6764 108.996C1.63225 108.246 1.61331 107.503 1.57547 106.753C1.53763 106.085 1.4935 105.417 1.48089 104.749C1.36737 104.34 1.46194 103.911 1.37365 103.495C1.31689 103.231 1.34844 102.947 1.3106 102.676C1.26645 102.298 1.27904 101.914 1.25382 101.536C1.22859 101.133 1.19078 100.723 1.16555 100.32C1.14663 100.055 1.12769 99.797 1.10877 99.5323C1.08355 99.1543 1.07095 98.77 1.04572 98.3919C1.02049 98.0139 0.982637 97.6358 0.951103 97.2578C0.944796 97.2074 0.944784 97.1507 0.938477 97.1003C0.919557 96.7223 0.900652 96.3379 0.875425 95.9599C0.831277 95.3424 0.768215 94.7313 0.724068 94.1201C0.67992 93.4774 0.679925 92.8348 0.61055 92.1921C0.566402 91.8015 0.591614 91.4046 0.515933 91.0139C0.459172 90.7367 0.497034 90.4406 0.459193 90.1507C0.408739 89.7601 0.421329 89.3632 0.396102 88.9725C0.370875 88.5252 0.333051 88.0841 0.29521 87.6368C0.29521 87.599 0.288897 87.5612 0.288897 87.5171C0.269977 87.0445 0.263659 86.572 0.238432 86.0995C0.213205 85.6395 0.175387 85.1859 0.143853 84.7259C0.143853 84.7007 0.13754 84.6755 0.13754 84.644C0.11862 84.0896 0.0996827 83.5414 0.0807623 82.987C0.0681487 82.6467 0.112318 82.3065 0.0240227 81.9663C0.00510233 81.8907 0.0177098 81.8087 0.0177098 81.7268C0.0177098 80.0824 0.0114091 78.4379 0.0240227 76.7872C0.0303295 76.2516 0.0933805 75.7161 0.124915 75.1805C0.143835 74.9033 0.150152 74.6324 0.17538 74.3551C0.225834 73.807 0.263681 73.2588 0.339363 72.7107C0.459192 71.8664 0.623159 71.0284 0.881738 70.2093C1.10878 69.4785 1.39257 68.7728 1.89081 68.1742C2.11155 67.9096 2.34491 67.6639 2.65395 67.5001C3.10803 67.2607 3.58103 67.1535 4.09819 67.2355C4.46398 67.2922 4.82978 67.3174 5.17035 67.4623C5.56768 67.6324 5.97762 67.7962 6.34972 68.0167C7.02455 68.42 7.68676 68.8484 8.28591 69.3714C8.68324 69.7179 9.09947 70.0392 9.53464 70.3354C10.2347 70.8079 10.9663 71.23 11.7925 71.4506C12.1204 71.5388 12.4547 71.627 12.7953 71.6333C12.871 71.6333 12.9466 71.6648 13.0286 71.6711C13.1485 71.6837 13.2683 71.7026 13.3818 71.6837C14.1639 71.5451 14.927 71.3561 15.5766 70.8709C16.0307 70.5307 16.4469 70.1526 16.8001 69.7053C17.3992 68.9429 17.8659 68.1112 18.2381 67.2229C18.8687 65.7233 19.2787 64.1671 19.5246 62.5604C19.6003 62.0564 19.6949 61.5523 19.7517 61.0483C19.821 60.4245 19.8589 59.7945 19.903 59.1644C19.9661 58.2067 19.9346 57.2427 19.9346 56.285C19.9346 55.8125 19.8778 55.3399 19.8463 54.8674C19.821 54.4767 19.7832 54.0861 19.7517 53.6892C19.7075 53.0969 19.5751 52.5236 19.4931 51.9376C19.367 51.0492 19.1588 50.1797 18.9066 49.3228C18.6165 48.3526 18.2633 47.4075 17.7839 46.5065C17.4623 45.9016 17.0902 45.3283 16.655 44.799C16.1568 44.1942 15.5576 43.6838 14.8324 43.3814C13.8611 42.9718 12.852 42.8899 11.824 43.2113C11.2312 43.4003 10.6762 43.6649 10.1338 43.9736C9.47789 44.3454 8.89765 44.8179 8.31112 45.2905C7.57953 45.8764 6.82272 46.4183 5.99023 46.853C5.34693 47.1932 4.67213 47.439 3.92793 47.4579C3.2531 47.4768 2.66023 47.3004 2.162 46.8215C1.77728 46.4498 1.48087 46.015 1.26644 45.5299C0.888035 44.6856 0.63577 43.8035 0.484406 42.8899C0.396111 42.3481 0.3015 41.8062 0.238432 41.2581C0.175364 40.7351 0.16905 40.2122 0.112289 39.6892C0.0618342 39.2671 0.106003 38.845 0.055549 38.4291C-0.00121216 37.9944 0.0113968 37.5659 0.0113968 37.1312C0.00509001 35.8018 -0.0138242 34.4723 0.0177098 33.1429C0.0366301 32.3805 0.0366132 31.6182 0.118602 30.8621C0.118602 30.8369 0.118602 30.8117 0.118602 30.7802C0.137522 30.2257 0.14384 29.6776 0.169067 29.1231C0.187987 28.6758 0.23215 28.2347 0.263684 27.7874C0.263684 27.7496 0.269958 27.7055 0.269958 27.6677C0.288879 27.1951 0.301509 26.7226 0.326737 26.2501C0.351964 25.8594 0.396094 25.4688 0.427628 25.0781C0.452856 24.6875 0.465498 24.2906 0.497032 23.8999C0.52226 23.4967 0.56639 23.0934 0.597924 22.6839C0.616845 22.4193 0.629469 22.161 0.648389 21.8963C0.66731 21.5561 0.692528 21.2159 0.717755 20.8756C0.736675 20.5102 0.755613 20.1385 0.774533 19.773C0.787147 19.5651 0.799726 19.3509 0.818647 19.143C0.850181 18.7901 0.888049 18.4373 0.92589 18.0908C0.932197 18.053 0.938477 18.0152 0.938477 17.9711C0.957398 17.593 0.970028 17.2087 0.995255 16.8307C1.02048 16.4652 1.06465 16.0998 1.08987 15.7344C1.10879 15.4886 1.12137 15.2366 1.13399 14.9846C1.15291 14.5939 1.17185 14.197 1.19708 13.8064C1.216 13.4409 1.24121 13.0755 1.26013 12.7038C1.29166 12.2312 1.32321 11.765 1.35475 11.2924C1.36736 11.1349 1.40519 10.9837 1.4178 10.8262C1.44303 10.4229 1.44305 10.0134 1.48089 9.61017C1.52504 9.08722 1.48717 8.55797 1.57547 8.04132C1.57547 8.02872 1.57547 8.01612 1.57547 8.00352C1.59439 7.50577 1.61332 7.00802 1.62593 6.50397C1.64486 5.88652 1.62592 5.26275 1.68899 4.6516C1.74575 4.09714 1.69531 3.54899 1.74577 3.00084C1.82145 2.08095 1.78362 1.16106 1.80254 0.241176C1.80254 0.190771 1.81514 0.140367 1.82776 0.0647602C1.90344 0.0458584 1.9728 0.0206549 2.04848 0.0143543C2.16831 0.00805367 2.28814 0.00805233 2.40166 0.00805233C24.8791 0.00805233 47.3502 0.00805233 69.8276 0.00805233C70.0105 0.00805233 70.1934 -0.0297501 70.3889 0.0584583C70.4016 0.115164 70.4205 0.17817 70.4268 0.241176C70.4331 0.348286 70.4268 0.449096 70.4331 0.556206C70.4457 1.75332 70.4394 2.95043 70.4898 4.14755C70.5088 4.6579 70.5025 5.17455 70.5466 5.68489C70.5781 6.08183 70.5466 6.47877 70.6034 6.86311C70.679 7.33565 70.5971 7.8082 70.698 8.27444C70.7043 8.29964 70.698 8.32484 70.7043 8.35635C70.7232 8.8667 70.7358 9.37704 70.7673 9.89369C70.7926 10.3095 70.8367 10.7317 70.862 11.1475C70.8872 11.5697 70.8998 11.9855 70.925 12.4076C70.9502 12.7857 70.9818 13.1637 71.007 13.548C71.007 13.5858 71.0196 13.6236 71.0196 13.6678C71.0449 14.071 71.0638 14.4805 71.089 14.8838C71.1142 15.2366 71.1583 15.5894 71.1899 15.9423C71.2151 16.2321 71.2277 16.5156 71.2467 16.8055C71.2719 17.1835 71.2845 17.5678 71.3097 17.9459C71.3349 18.2735 71.3665 18.6011 71.398 18.9225C71.4043 18.9729 71.4043 19.0296 71.4043 19.08C71.4422 19.5777 71.48 20.0755 71.5115 20.5732C71.5368 20.9513 71.5431 21.3356 71.5746 21.7136C71.5998 22.0917 71.644 22.4697 71.6755 22.8477C71.7007 23.125 71.7134 23.3959 71.726 23.6731C71.7449 24.0763 71.7638 24.4859 71.789 24.8891C71.8143 25.2924 71.8458 25.7019 71.8773 26.1051C71.8773 26.1303 71.8837 26.1555 71.8837 26.1807C71.9026 26.6533 71.9215 27.1258 71.953 27.5984C71.9782 28.0457 72.0161 28.4868 72.0539 28.9278C72.0539 28.953 72.0602 28.9782 72.0602 29.0097C72.0791 29.5579 72.0981 30.1123 72.117 30.6605C72.1296 30.9881 72.1548 31.3157 72.1737 31.6434C72.1927 31.971 72.2053 32.2986 72.2179 32.6263C72.2242 32.7334 72.2242 32.8342 72.2242 32.9413C72.2242 34.5353 72.2431 36.1294 72.2242 37.7234C72.2179 38.2968 72.1864 38.8765 72.1422 39.4498C72.1044 39.9224 72.0791 40.3949 72.0224 40.8611C71.953 41.4093 71.8837 41.9511 71.808 42.4993C71.7008 43.2302 71.5241 43.9421 71.2971 44.6415C71.089 45.2842 70.8052 45.8953 70.4015 46.4309C69.9664 47.0105 69.3988 47.3823 68.6483 47.4327C67.9734 47.4768 67.349 47.3382 66.7373 47.0672C65.6904 46.6136 64.7696 45.9583 63.8929 45.2464C63.3001 44.7675 62.701 44.3013 62.0324 43.9169C61.2252 43.4507 60.3737 43.1168 59.4466 43.0097C59.0493 42.9655 58.6583 43.0223 58.2736 43.1042C57.5861 43.2428 56.9933 43.5641 56.4383 43.9736C55.8896 44.3769 55.4671 44.8998 55.0887 45.4543C54.5652 46.2167 54.1616 47.042 53.8336 47.9052C53.3984 49.0393 53.0894 50.2049 52.8497 51.3894C52.711 52.0951 52.5975 52.8071 52.5218 53.5253C52.4713 54.0231 52.4146 54.5145 52.3641 55.0123C52.3515 55.1446 52.3641 55.2769 52.3578 55.4092C52.3452 55.5793 52.32 55.7495 52.3073 55.9133C52.301 56.0204 52.2948 56.1212 52.2948 56.2283C52.2948 56.9781 52.2948 57.7278 52.2948 58.4776C52.2948 58.6225 52.3262 58.7612 52.3389 58.9061C52.3452 58.9691 52.3515 59.0384 52.3578 59.1014C52.402 60.7332 52.629 62.3399 52.9822 63.9339C53.2344 65.0807 53.5687 66.2022 54.0291 67.2796C54.3255 67.9789 54.6661 68.6657 55.1391 69.2705C55.3724 69.5667 55.5932 69.888 55.8518 70.1589C56.1419 70.4614 56.4762 70.7197 56.823 70.9591C57.4285 71.3687 58.1222 71.5199 58.816 71.6585C58.8916 71.6711 58.9736 71.6774 59.0493 71.6648C59.598 71.5892 60.1467 71.5451 60.6702 71.3624C61.181 71.1859 61.6666 70.9528 62.127 70.6693C62.6189 70.3669 63.0793 70.014 63.5334 69.6549C64.265 69.0752 64.9966 68.4956 65.8102 68.0293C66.258 67.771 66.7121 67.5379 67.1977 67.3741C67.3553 67.3174 67.532 67.2859 67.6959 67.267C68.0743 67.2229 68.4401 67.141 68.8311 67.2166C69.2474 67.2922 69.6132 67.4497 69.9222 67.7269C70.1556 67.9348 70.37 68.1679 70.5466 68.4326C70.8304 68.8799 71.0511 69.3588 71.2214 69.8502C71.5494 70.7953 71.7449 71.7719 71.8837 72.7674C71.9719 73.3911 72.0287 74.0149 72.0918 74.6387C72.1422 75.1238 72.1359 75.609 72.1612 76.0941C72.2621 77.9213 72.1863 79.7548 72.2053 81.5819C72.2116 82.1868 72.199 82.7916 72.1485 83.3965C72.117 83.7619 72.117 84.1337 72.0981 84.4991C72.0791 84.959 72.035 85.4127 72.0035 85.8726C72.0035 85.8978 71.9972 85.923 71.9972 85.9545C71.9782 86.4397 71.9593 86.9248 71.9341 87.41C71.9089 87.8132 71.871 88.2165 71.8332 88.626C71.8269 88.6764 71.8206 88.7331 71.8206 88.7835C71.8016 89.2057 71.7953 89.6215 71.7701 90.0436C71.7449 90.4217 71.7071 90.7997 71.6818 91.1777C71.6629 91.4676 71.6377 91.7511 71.6251 92.0409C71.5998 92.4316 71.5872 92.8285 71.562 93.2191C71.5368 93.572 71.4989 93.9248 71.4674 94.2776C71.4422 94.5801 71.4169 94.8762 71.398 95.1786C71.3602 95.8087 71.335 96.4387 71.2908 97.0625C71.2656 97.4279 71.2214 97.7934 71.1899 98.1588C71.171 98.3919 71.1583 98.6314 71.1457 98.8645C71.1205 99.2551 71.1142 99.6521 71.0764 100.043C71.0385 100.396 71.007 100.748 71.0007 101.101C71.0007 101.246 70.9818 101.391 70.9755 101.53C70.9566 101.725 70.9313 101.92 70.925 102.116C70.9061 102.55 70.8935 102.979 70.8682 103.413C70.843 103.817 70.8052 104.226 70.7737 104.63C70.7737 104.642 70.7737 104.655 70.7737 104.667C70.7547 105.127 70.7295 105.587 70.7106 106.041C70.6916 106.488 70.7106 106.936 70.6538 107.377C70.6034 107.742 70.6412 108.114 70.597 108.473C70.534 108.983 70.5844 109.5 70.534 110.01C70.4835 110.533 70.5151 111.062 70.4835 111.585C70.4268 112.518 70.4457 113.45 70.4457 114.383C70.4457 114.446 70.4331 114.509 70.4268 114.559C70.3322 114.666 70.2186 114.641 70.1177 114.641C69.6195 114.66 69.1149 114.66 68.623 114.698C68.0113 114.748 67.3932 114.818 66.7878 114.899C66.0057 115 65.23 115.107 64.4479 115.227C63.7983 115.328 63.155 115.448 62.5117 115.574C60.9224 115.876 59.3394 116.191 57.7564 116.5C56.9176 116.664 56.0788 116.834 55.24 116.972C54.2562 117.136 53.2723 117.287 52.2821 117.426C51.8406 117.489 51.3929 117.483 50.9514 117.552C50.573 117.609 50.1883 117.59 49.8099 117.602C49.6522 117.609 49.4945 117.634 49.3431 117.647C49.2359 117.653 49.135 117.665 49.0278 117.665C48.5548 117.653 48.0881 117.596 47.6151 117.552C47.1042 117.502 46.5997 117.42 46.1015 117.294C44.9536 116.998 44.0076 116.386 43.2949 115.441C43.0111 115.063 42.7967 114.635 42.6453 114.181C42.5381 113.86 42.4498 113.526 42.3741 113.192C42.3237 112.978 42.2985 112.751 42.2669 112.53C42.1471 111.762 42.1534 110.981 42.1976 110.206C42.2669 108.895 42.4687 107.597 42.7652 106.318C42.9607 105.486 43.1562 104.655 43.3706 103.829C43.5346 103.206 43.749 102.594 43.913 101.977C44.1779 100.975 44.4239 99.9671 44.5563 98.9338C44.6257 98.4171 44.7076 97.8942 44.7707 97.3775C44.7959 97.1696 44.8149 96.9617 44.8212 96.7538C44.8338 95.941 44.8779 95.1219 44.796 94.3091C44.7518 93.8933 44.7139 93.4712 44.6509 93.0616C44.531 92.2677 44.3671 91.4865 44.0959 90.7241C43.768 89.8042 43.358 88.9284 42.803 88.1156C42.4813 87.6494 42.1345 87.2084 41.7435 86.7988C41.22 86.2507 40.6208 85.8096 39.9649 85.4316C39.3343 85.0662 38.6657 84.8078 37.9594 84.6188C36.9061 84.3416 35.8529 84.329 34.7934 84.5054C34.2132 84.5999 33.6455 84.7826 33.0969 85.022C32.2896 85.3749 31.5706 85.8474 30.9084 86.4145C30.5174 86.7484 30.1768 87.1328 29.8552 87.536C29.4704 88.0211 29.1235 88.5378 28.846 89.0859C28.3541 90.0625 27.9757 91.0832 27.755 92.1606C27.6162 92.8285 27.5279 93.5027 27.4712 94.1831C27.4018 94.9959 27.4144 95.815 27.446 96.6278C27.4838 97.6106 27.6225 98.5809 27.7991 99.5512C28.0388 100.874 28.3983 102.16 28.7704 103.451C29.0353 104.371 29.2812 105.297 29.483 106.236C29.6596 107.074 29.7795 107.912 29.9182 108.756C30.0759 109.739 30.0885 110.716 30.0759 111.705C30.0633 112.417 29.9308 113.116 29.7353 113.797C29.6029 114.269 29.4137 114.717 29.1551 115.133C28.5875 116.027 27.8244 116.67 26.8279 117.061C26.1342 117.332 25.4152 117.47 24.6836 117.546C24.3304 117.584 23.9835 117.64 23.6304 117.659C23.3718 117.678 23.1069 117.697 22.842 117.628C22.7411 117.602 22.6339 117.602 22.5267 117.609C21.7762 117.621 21.032 117.558 20.2878 117.451C19.7454 117.369 19.1904 117.325 18.648 117.243C17.7524 117.098 16.8632 116.941 15.9739 116.783C15.1855 116.638 14.3972 116.481 13.6152 116.33C12.8268 116.179 12.0385 116.04 11.2564 115.87C10.0897 115.624 8.91028 115.422 7.73091 115.221C7.17591 115.126 6.60832 115.076 6.05332 114.969C5.49832 114.862 4.93699 114.836 4.37569 114.761C4.07927 114.717 3.77024 114.729 3.47382 114.698C2.97558 114.641 2.47735 114.647 1.97911 114.654C1.92866 114.685 1.89081 114.666 1.81513 114.647Z" fill="#E65325" stroke="#FFFEF6" stroke-width="2" mask="url(#path-1-inside-1_2802_22185)"/>
</svg>
