<svg width="89" height="118" viewBox="0 0 89 118" fill="none" xmlns="http://www.w3.org/2000/svg">
<mask id="path-1-inside-1_2802_22193" fill="white">
<path d="M1.84127 117.806C1.74063 117.68 1.77209 117.542 1.77209 117.41C1.7658 116.913 1.78466 116.411 1.76579 115.914C1.74063 115.154 1.73434 114.394 1.70289 113.633C1.68402 113.162 1.70289 112.684 1.64628 112.219C1.57081 111.673 1.65886 111.114 1.54564 110.573C1.53935 110.548 1.54564 110.523 1.54564 110.491C1.52677 109.951 1.52049 109.417 1.49533 108.877C1.47646 108.456 1.43244 108.041 1.40099 107.626C1.3947 107.576 1.39469 107.519 1.39469 107.469C1.37582 107.035 1.36953 106.602 1.33808 106.175C1.31292 105.772 1.25632 105.37 1.22487 104.968C1.206 104.723 1.19342 104.472 1.18084 104.22C1.16197 103.831 1.1368 103.435 1.11793 103.045C1.09906 102.693 1.07391 102.341 1.04875 101.983C1.0173 101.55 0.992134 101.122 0.960685 100.689C0.935525 100.337 0.910362 99.9851 0.878913 99.6332C0.872623 99.5703 0.86634 99.5012 0.86634 99.4384C0.84747 98.9671 0.797149 98.5021 0.746829 98.0308C0.71538 97.7606 0.702802 97.4841 0.690222 97.2076C0.671353 96.8306 0.658775 96.4473 0.633615 96.0703C0.614746 95.7561 0.589582 95.4419 0.570712 95.1277C0.539263 94.669 0.514113 94.2103 0.482663 93.7579C0.451214 93.3432 0.413472 92.9221 0.382022 92.5074C0.375732 92.4697 0.37572 92.432 0.36943 92.388C0.35056 91.967 0.337983 91.5523 0.312823 91.1312C0.300243 90.9113 0.275086 90.6914 0.256216 90.4652C0.237346 90.2578 0.224775 90.0504 0.205905 89.8368C0.205905 89.7991 0.199609 89.7614 0.199609 89.7174C0.180739 89.2336 0.174439 88.7497 0.149279 88.2596C0.124119 87.7129 0.0863834 87.1599 0.0549338 86.6132C0.0549338 86.563 0.0486569 86.5064 0.0486569 86.4561C0.00462743 84.8663 -0.00795703 83.2766 0.00462282 81.6868C0.00462282 81.2281 0.00462282 80.7693 0.00462282 80.3044C-0.00166711 79.632 0.0486423 78.9659 0.0926718 78.2998C0.111542 78.0108 0.130409 77.7217 0.149279 77.439C0.180728 76.8609 0.256219 76.289 0.337988 75.7235C0.444917 74.982 0.595876 74.2531 0.790864 73.5305C0.954402 72.9461 1.16197 72.3806 1.45759 71.8527C1.69032 71.4254 2.0111 71.0547 2.39479 70.7531C2.67154 70.5394 2.99234 70.4263 3.3257 70.3446C3.73455 70.2441 4.1308 70.3195 4.53336 70.376C5.21267 70.4766 5.80392 70.797 6.3826 71.1301C7.11223 71.5448 7.78525 72.0475 8.44569 72.5754C8.96776 72.9901 9.48984 73.4111 10.0748 73.7504C10.8296 74.184 11.6032 74.5673 12.4838 74.6804C13.1254 74.7621 13.7607 74.7495 14.3897 74.5484C14.9998 74.3536 15.5281 74.0269 16.0125 73.6122C16.6666 73.0466 17.1761 72.3743 17.585 71.6139C17.8051 71.2118 18.0127 70.8033 18.2014 70.3823C18.5473 69.6157 18.8115 68.8177 19.0254 68.0071C19.2644 67.1085 19.4405 66.1911 19.5977 65.2736C19.6858 64.7458 19.755 64.2117 19.7927 63.6776C19.8368 63.0366 19.9059 62.402 19.9374 61.761C19.9626 61.2772 19.95 60.787 19.95 60.3032C19.95 60.0267 19.9563 59.7502 19.95 59.4737C19.9374 58.9396 19.9122 58.3992 19.8556 57.8651C19.8116 57.4755 19.7864 57.0796 19.755 56.69C19.6795 55.892 19.5285 55.1065 19.3839 54.3211C19.2329 53.479 19.0065 52.6559 18.7486 51.8453C18.5788 51.3111 18.3398 50.7959 18.1322 50.2681C17.7737 49.3695 17.2516 48.5714 16.6352 47.83C16.3018 47.4215 15.893 47.0885 15.459 46.7931C14.8677 46.3973 14.2136 46.1773 13.5154 46.0956C12.9933 46.0328 12.4713 46.1082 11.9555 46.2465C10.861 46.5481 9.89867 47.0947 9.01808 47.8048C8.44569 48.2635 7.86073 48.716 7.26948 49.1433C6.58388 49.6334 5.84796 50.0418 5.05543 50.3309C4.46418 50.5445 3.85406 50.5822 3.23136 50.4754C2.71558 50.3811 2.31931 50.0795 1.98595 49.6962C1.49533 49.137 1.17456 48.4772 0.954408 47.7608C0.866349 47.4718 0.765702 47.189 0.690222 46.8937C0.520394 46.259 0.413474 45.6118 0.325415 44.9646C0.256226 44.4304 0.21848 43.8963 0.161871 43.3622C0.0989717 42.7778 0.0863895 42.1871 0.0612298 41.5965C-0.039409 39.6925 0.0360717 37.7885 0.0234918 35.8845C0.0172019 35.231 0.0800912 34.5775 0.111541 33.924C0.111541 33.8863 0.111541 33.8423 0.111541 33.8046C0.130411 33.2265 0.143007 32.6484 0.168167 32.0766C0.193327 31.4357 0.218476 30.7947 0.275085 30.1538C0.325404 29.582 0.35056 29.0039 0.388299 28.432C0.426039 27.8853 0.470083 27.3387 0.501532 26.7857C0.532982 26.2516 0.570705 25.7112 0.602154 25.1771C0.633604 24.5487 0.7028 23.9266 0.746829 23.2982C0.771989 22.9086 0.784573 22.5127 0.809733 22.1231C0.822312 21.9032 0.853753 21.6833 0.878913 21.4634C0.910362 21.1115 0.935531 20.7596 0.966981 20.4077C0.973271 20.3448 0.973264 20.2757 0.979554 20.2129C1.011 19.7416 1.04874 19.2703 1.0739 18.8053C1.09906 18.4157 1.11166 18.0199 1.13052 17.624C1.14939 17.2595 1.18084 16.8951 1.206 16.5306C1.21229 16.4112 1.22486 16.2981 1.23744 16.1787C1.27518 15.72 1.27518 15.2613 1.35066 14.8151C1.35695 14.79 1.35695 14.7649 1.35695 14.7397C1.37582 14.3062 1.3884 13.8726 1.41356 13.4453C1.43872 13.0117 1.47646 12.5844 1.50791 12.1508C1.51419 12.1006 1.5142 12.044 1.5142 11.9937C1.52049 11.6796 1.52679 11.3654 1.55824 11.0512C1.60226 10.5296 1.59597 10.0018 1.61484 9.48025C1.64 8.87701 1.64629 8.27377 1.69032 7.67053C1.72806 7.16154 1.70291 6.64627 1.74065 6.13729C1.80984 5.19473 1.78468 4.24588 1.79726 3.30332C1.79726 3.24048 1.81611 3.17764 1.8224 3.12737C1.86014 3.10224 1.87901 3.07711 1.90417 3.07711C2.33818 3.05197 2.76589 3.03311 3.1999 3.00798C3.52697 2.98913 3.85405 2.97657 4.18112 2.93887C4.93591 2.85718 5.6907 2.78178 6.4392 2.66867C7.2569 2.54299 8.07459 2.44245 8.8797 2.25394C9.38918 2.13455 9.91126 2.07799 10.427 1.97745C11.3894 1.78894 12.358 1.58787 13.3204 1.39307C13.7607 1.3051 14.201 1.22969 14.635 1.13543C15.981 0.840098 17.3397 0.620165 18.6983 0.406517C19.4971 0.280842 20.3148 0.230564 21.1199 0.142591C21.4596 0.104889 21.7929 0.060901 22.1326 0.0231985C22.2081 0.0169148 22.2898 0.0169278 22.3716 0.0169278C22.6358 0.0169278 22.9 0.0232116 23.1578 0.0169278C23.9881 0.00436034 24.8058 0.111187 25.6172 0.255713C26.4978 0.412807 27.3092 0.745829 28.0262 1.27995C28.542 1.66954 28.9634 2.15341 29.2716 2.73151C29.605 3.3536 29.8189 4.0071 29.9384 4.69831C30.0201 5.17587 30.083 5.65345 30.0893 6.14358C30.0893 6.39493 30.0893 6.64 30.0893 6.89135C30.083 7.70195 30.0138 8.51256 29.8692 9.31059C29.7685 9.8887 29.6868 10.4731 29.5736 11.0512C29.3975 11.9686 29.1647 12.8672 28.9131 13.7658C28.6364 14.7649 28.3407 15.7577 28.0891 16.7631C27.9319 17.3852 27.8313 18.0199 27.7243 18.6545C27.63 19.1949 27.5608 19.7416 27.4979 20.2883C27.4539 20.6779 27.4476 21.0738 27.435 21.4634C27.4224 21.8467 27.435 22.2237 27.435 22.607C27.435 23.5558 27.5419 24.4921 27.7495 25.4096C27.8375 25.8054 27.9256 26.2076 28.0451 26.5909C28.3093 27.4141 28.6238 28.2184 29.0704 28.9724C29.4415 29.5945 29.8629 30.1726 30.3535 30.7067C30.9888 31.4042 31.7373 31.9509 32.5487 32.4096C33.2846 32.8244 34.096 33.0632 34.9263 33.2014C35.3917 33.2831 35.8635 33.3396 36.3352 33.3082C36.9642 33.2768 37.5869 33.1763 38.1971 33.0066C39.1594 32.7427 40.0274 32.2965 40.8199 31.687C41.1219 31.4545 41.4363 31.2283 41.6942 30.9581C42.2037 30.4303 42.6629 29.8584 43.0529 29.2301C43.4428 28.5891 43.7699 27.9168 44.0341 27.2193C44.2668 26.5909 44.4241 25.9374 44.5562 25.2839C44.6757 24.7058 44.7574 24.1277 44.8078 23.537C44.8832 22.7075 44.8643 21.8844 44.8392 21.0549C44.814 20.1249 44.6631 19.2075 44.5058 18.2901C44.3486 17.3475 44.1159 16.4175 43.8643 15.4875C43.6693 14.7649 43.4491 14.0548 43.2479 13.3322C42.9271 12.1446 42.6566 10.9381 42.4616 9.71904C42.361 9.08438 42.2855 8.44971 42.2289 7.80877C42.1723 7.20553 42.1723 6.60229 42.1975 5.99905C42.2226 5.30784 42.3044 4.61663 42.5057 3.94427C42.6692 3.41015 42.8768 2.90746 43.1661 2.43617C43.2541 2.29165 43.3548 2.15339 43.468 2.02772C43.9272 1.4936 44.4555 1.05375 45.0971 0.745845C45.8079 0.400239 46.5626 0.255706 47.33 0.130031C48.2169 -0.0144955 49.1101 -0.0144909 49.9969 0.0169278C50.3429 0.0294953 50.7014 0.042059 51.0474 0.11118C51.4059 0.186585 51.777 0.180297 52.1418 0.224283C52.8589 0.312256 53.5696 0.412809 54.2867 0.513349C55.8088 0.73328 57.3058 1.06631 58.8091 1.34908C59.8281 1.53759 60.8345 1.77009 61.8535 1.9586C63.0674 2.17853 64.2751 2.42361 65.4953 2.59327C66.1809 2.68752 66.8665 2.78805 67.5584 2.87602C67.7408 2.90116 67.9232 2.89489 68.1057 2.90746C68.4956 2.92631 68.8919 2.95143 69.2819 2.97657C69.6341 2.99542 69.9863 3.01427 70.3449 3.03941C70.3826 3.03941 70.414 3.06454 70.4392 3.07711C70.4581 3.09596 70.4706 3.10853 70.4706 3.1211C70.4706 3.64265 70.4769 4.17049 70.4706 4.69204C70.4706 4.83656 70.4392 4.98108 70.4392 5.11933C70.4329 5.60318 70.4392 6.09331 70.4329 6.57716C70.4203 7.15527 70.4266 7.73337 70.3763 8.30519C70.3449 8.70107 70.3512 9.09066 70.3323 9.48654C70.3071 10.0081 70.2694 10.5296 70.2379 11.0575C70.2379 11.0826 70.2379 11.1077 70.2379 11.1391C70.219 11.6356 70.2065 12.132 70.175 12.6347C70.1499 13.0494 70.0996 13.4704 70.0681 13.8852C70.0618 13.948 70.0555 14.0171 70.0555 14.08C70.0492 14.6015 70.0241 15.1293 69.9675 15.6509C69.936 15.9085 69.936 16.1724 69.9234 16.4364C69.9045 16.8448 69.8857 17.247 69.8605 17.6554C69.8354 18.0199 69.7977 18.3843 69.7599 18.7488C69.7536 18.8116 69.7536 18.8807 69.7473 18.9436C69.7096 19.4149 69.6719 19.8798 69.6404 20.3511C69.6152 20.703 69.6089 21.0549 69.5901 21.4131C69.5649 21.7775 69.5335 22.142 69.5083 22.5065C69.502 22.5693 69.4957 22.6384 69.4957 22.7013C69.458 23.3422 69.4517 23.9894 69.3699 24.6241C69.3196 25.0011 69.3511 25.3781 69.2756 25.7551C69.2064 26.1259 69.2316 26.5092 69.2064 26.8925C69.1812 27.3135 69.1435 27.7282 69.112 28.143C69.0932 28.432 69.0806 28.7211 69.0617 29.0039C69.0428 29.4249 69.024 29.8396 69.0051 30.2606C68.9799 30.7319 68.9422 31.2032 68.9044 31.6682C68.9044 31.6933 68.8982 31.7184 68.8982 31.7436C68.8793 32.1897 68.8604 32.6359 68.8416 33.082C68.829 33.3459 68.8667 33.6098 68.7849 33.8612C68.7724 33.8989 68.7786 33.9366 68.7786 33.9806C68.7598 34.8729 68.7409 35.7652 68.7221 36.6575C68.7095 37.4052 68.678 38.153 68.678 38.9008C68.678 39.7553 68.7032 40.6099 68.7221 41.4582C68.8416 41.8918 68.7283 42.3442 68.829 42.7904C68.8856 43.0417 68.873 43.3119 68.8919 43.5696C68.9988 44.996 69.2189 46.4098 69.653 47.7734C69.8668 48.452 70.1625 49.0993 70.5839 49.6774C71.0116 50.2618 71.5274 50.733 72.2444 50.9341C72.691 51.0535 73.1376 51.1352 73.5967 51.0221C74.1062 50.9027 74.6094 50.7707 75.0938 50.5508C76.2134 50.0293 77.2009 49.3255 78.1444 48.5463C78.6224 48.1567 79.113 47.7797 79.654 47.4781C80.1823 47.1827 80.7107 46.8811 81.3082 46.7617C81.6416 46.6926 81.9812 46.6423 82.3146 46.6109C82.7234 46.5732 83.126 46.68 83.516 46.7868C84.1827 46.9691 84.7173 47.3587 85.1954 47.8425C85.7552 48.4081 86.1766 49.0678 86.554 49.7653C86.9565 50.5068 87.2648 51.286 87.5164 52.0903C87.6925 52.6496 87.8497 53.2214 87.9692 53.7995C88.095 54.4028 88.2334 54.9997 88.3089 55.6155C88.3781 56.1748 88.441 56.734 88.5102 57.2933C88.5479 57.6326 88.5857 57.9656 88.6234 58.305C88.6234 58.3301 88.6297 58.3552 88.6297 58.3866C88.6486 59.3292 88.6674 60.2781 88.6737 61.2206C88.6737 61.6165 88.6674 62.0061 88.6234 62.402C88.5416 63.2063 88.4976 64.0169 88.3592 64.8212C88.2963 65.1857 88.246 65.5438 88.1894 65.9083C88.0636 66.7126 87.8749 67.5044 87.6422 68.2835C87.3717 69.2198 87.0446 70.131 86.598 70.9981C86.2206 71.727 85.7803 72.4057 85.2017 72.9901C84.5538 73.6436 83.7864 74.0897 82.8618 74.1903C82.1133 74.272 81.3711 74.184 80.6666 73.8698C80.2829 73.7001 79.9056 73.5179 79.5407 73.3043C79.1885 73.0969 78.8677 72.8518 78.5406 72.6068C78.0186 72.2109 77.5091 71.7962 76.987 71.4003C76.4838 71.0233 75.9366 70.7028 75.3705 70.42C74.8484 70.1561 74.3075 69.9739 73.7414 69.8356C72.9803 69.6534 72.2507 69.7791 71.5777 70.1624C71.0871 70.4389 70.7286 70.8536 70.4266 71.3249C69.9297 72.0978 69.6341 72.9524 69.4139 73.8321C69.2127 74.6301 69.068 75.447 68.9799 76.2702C68.9233 76.842 68.8227 77.4138 68.8227 77.9919C68.7032 78.4129 68.7912 78.8528 68.7158 79.2801C68.6654 79.5754 68.7095 79.8833 68.7032 80.185C68.6906 81.1275 68.6654 82.0764 68.6654 83.0189C68.6654 83.8484 68.6654 84.6716 68.7158 85.501C68.7409 85.9597 68.7095 86.4247 68.7724 86.8772C68.8416 87.361 68.7598 87.8512 68.873 88.3287C68.8793 88.3539 68.873 88.379 68.8793 88.4104C68.8982 88.9068 68.9107 89.4095 68.9359 89.9059C68.9611 90.3395 69.0051 90.7668 69.0303 91.2004C69.0491 91.502 69.068 91.8036 69.0869 92.1053C69.1058 92.5263 69.1246 92.941 69.1498 93.362C69.1749 93.7516 69.2064 94.1475 69.2378 94.5371C69.2378 94.5622 69.2441 94.5873 69.2441 94.6125C69.2693 95.0146 69.2882 95.4231 69.3133 95.8252C69.3385 96.1897 69.3825 96.5541 69.4076 96.9186C69.4328 97.283 69.4517 97.6538 69.4706 98.0182C69.4894 98.3576 69.5083 98.6969 69.5334 99.0362C69.5649 99.4824 69.5901 99.9222 69.6278 100.368C69.6593 100.733 69.697 101.097 69.7284 101.462C69.7536 101.726 69.7725 101.983 69.7851 102.247C69.8102 102.624 69.8291 103.008 69.8542 103.385C69.8794 103.774 69.9109 104.17 69.9423 104.56C69.9486 104.666 69.9486 104.767 69.9549 104.874C69.9675 105.056 69.9863 105.238 70.0052 105.421C70.0115 105.458 70.0178 105.496 70.0178 105.54C70.0304 105.936 70.0241 106.325 70.0618 106.721C70.1058 107.149 70.0681 107.588 70.1624 108.009C70.1687 108.035 70.1687 108.06 70.1687 108.085C70.1876 108.544 70.2065 109.002 70.2317 109.461C70.2631 110.008 70.2945 110.561 70.3323 111.107C70.3323 111.132 70.3386 111.158 70.3386 111.189C70.3574 111.868 70.3637 112.553 70.4015 113.231C70.4518 114.086 70.4078 114.94 70.4581 115.789C70.4895 116.342 70.4958 116.888 70.5021 117.441C70.5021 117.554 70.4895 117.674 70.4769 117.768C70.4266 117.793 70.4078 117.818 70.3826 117.818C47.6068 117.825 24.8247 117.831 2.04885 117.831C1.9545 117.825 1.89159 117.812 1.84127 117.806Z"/>
</mask>
<path d="M1.84127 117.806C1.74063 117.68 1.77209 117.542 1.77209 117.41C1.7658 116.913 1.78466 116.411 1.76579 115.914C1.74063 115.154 1.73434 114.394 1.70289 113.633C1.68402 113.162 1.70289 112.684 1.64628 112.219C1.57081 111.673 1.65886 111.114 1.54564 110.573C1.53935 110.548 1.54564 110.523 1.54564 110.491C1.52677 109.951 1.52049 109.417 1.49533 108.877C1.47646 108.456 1.43244 108.041 1.40099 107.626C1.3947 107.576 1.39469 107.519 1.39469 107.469C1.37582 107.035 1.36953 106.602 1.33808 106.175C1.31292 105.772 1.25632 105.37 1.22487 104.968C1.206 104.723 1.19342 104.472 1.18084 104.22C1.16197 103.831 1.1368 103.435 1.11793 103.045C1.09906 102.693 1.07391 102.341 1.04875 101.983C1.0173 101.55 0.992134 101.122 0.960685 100.689C0.935525 100.337 0.910362 99.9851 0.878913 99.6332C0.872623 99.5703 0.86634 99.5012 0.86634 99.4384C0.84747 98.9671 0.797149 98.5021 0.746829 98.0308C0.71538 97.7606 0.702802 97.4841 0.690222 97.2076C0.671353 96.8306 0.658775 96.4473 0.633615 96.0703C0.614746 95.7561 0.589582 95.4419 0.570712 95.1277C0.539263 94.669 0.514113 94.2103 0.482663 93.7579C0.451214 93.3432 0.413472 92.9221 0.382022 92.5074C0.375732 92.4697 0.37572 92.432 0.36943 92.388C0.35056 91.967 0.337983 91.5523 0.312823 91.1312C0.300243 90.9113 0.275086 90.6914 0.256216 90.4652C0.237346 90.2578 0.224775 90.0504 0.205905 89.8368C0.205905 89.7991 0.199609 89.7614 0.199609 89.7174C0.180739 89.2336 0.174439 88.7497 0.149279 88.2596C0.124119 87.7129 0.0863834 87.1599 0.0549338 86.6132C0.0549338 86.563 0.0486569 86.5064 0.0486569 86.4561C0.00462743 84.8663 -0.00795703 83.2766 0.00462282 81.6868C0.00462282 81.2281 0.00462282 80.7693 0.00462282 80.3044C-0.00166711 79.632 0.0486423 78.9659 0.0926718 78.2998C0.111542 78.0108 0.130409 77.7217 0.149279 77.439C0.180728 76.8609 0.256219 76.289 0.337988 75.7235C0.444917 74.982 0.595876 74.2531 0.790864 73.5305C0.954402 72.9461 1.16197 72.3806 1.45759 71.8527C1.69032 71.4254 2.0111 71.0547 2.39479 70.7531C2.67154 70.5394 2.99234 70.4263 3.3257 70.3446C3.73455 70.2441 4.1308 70.3195 4.53336 70.376C5.21267 70.4766 5.80392 70.797 6.3826 71.1301C7.11223 71.5448 7.78525 72.0475 8.44569 72.5754C8.96776 72.9901 9.48984 73.4111 10.0748 73.7504C10.8296 74.184 11.6032 74.5673 12.4838 74.6804C13.1254 74.7621 13.7607 74.7495 14.3897 74.5484C14.9998 74.3536 15.5281 74.0269 16.0125 73.6122C16.6666 73.0466 17.1761 72.3743 17.585 71.6139C17.8051 71.2118 18.0127 70.8033 18.2014 70.3823C18.5473 69.6157 18.8115 68.8177 19.0254 68.0071C19.2644 67.1085 19.4405 66.1911 19.5977 65.2736C19.6858 64.7458 19.755 64.2117 19.7927 63.6776C19.8368 63.0366 19.9059 62.402 19.9374 61.761C19.9626 61.2772 19.95 60.787 19.95 60.3032C19.95 60.0267 19.9563 59.7502 19.95 59.4737C19.9374 58.9396 19.9122 58.3992 19.8556 57.8651C19.8116 57.4755 19.7864 57.0796 19.755 56.69C19.6795 55.892 19.5285 55.1065 19.3839 54.3211C19.2329 53.479 19.0065 52.6559 18.7486 51.8453C18.5788 51.3111 18.3398 50.7959 18.1322 50.2681C17.7737 49.3695 17.2516 48.5714 16.6352 47.83C16.3018 47.4215 15.893 47.0885 15.459 46.7931C14.8677 46.3973 14.2136 46.1773 13.5154 46.0956C12.9933 46.0328 12.4713 46.1082 11.9555 46.2465C10.861 46.5481 9.89867 47.0947 9.01808 47.8048C8.44569 48.2635 7.86073 48.716 7.26948 49.1433C6.58388 49.6334 5.84796 50.0418 5.05543 50.3309C4.46418 50.5445 3.85406 50.5822 3.23136 50.4754C2.71558 50.3811 2.31931 50.0795 1.98595 49.6962C1.49533 49.137 1.17456 48.4772 0.954408 47.7608C0.866349 47.4718 0.765702 47.189 0.690222 46.8937C0.520394 46.259 0.413474 45.6118 0.325415 44.9646C0.256226 44.4304 0.21848 43.8963 0.161871 43.3622C0.0989717 42.7778 0.0863895 42.1871 0.0612298 41.5965C-0.039409 39.6925 0.0360717 37.7885 0.0234918 35.8845C0.0172019 35.231 0.0800912 34.5775 0.111541 33.924C0.111541 33.8863 0.111541 33.8423 0.111541 33.8046C0.130411 33.2265 0.143007 32.6484 0.168167 32.0766C0.193327 31.4357 0.218476 30.7947 0.275085 30.1538C0.325404 29.582 0.35056 29.0039 0.388299 28.432C0.426039 27.8853 0.470083 27.3387 0.501532 26.7857C0.532982 26.2516 0.570705 25.7112 0.602154 25.1771C0.633604 24.5487 0.7028 23.9266 0.746829 23.2982C0.771989 22.9086 0.784573 22.5127 0.809733 22.1231C0.822312 21.9032 0.853753 21.6833 0.878913 21.4634C0.910362 21.1115 0.935531 20.7596 0.966981 20.4077C0.973271 20.3448 0.973264 20.2757 0.979554 20.2129C1.011 19.7416 1.04874 19.2703 1.0739 18.8053C1.09906 18.4157 1.11166 18.0199 1.13052 17.624C1.14939 17.2595 1.18084 16.8951 1.206 16.5306C1.21229 16.4112 1.22486 16.2981 1.23744 16.1787C1.27518 15.72 1.27518 15.2613 1.35066 14.8151C1.35695 14.79 1.35695 14.7649 1.35695 14.7397C1.37582 14.3062 1.3884 13.8726 1.41356 13.4453C1.43872 13.0117 1.47646 12.5844 1.50791 12.1508C1.51419 12.1006 1.5142 12.044 1.5142 11.9937C1.52049 11.6796 1.52679 11.3654 1.55824 11.0512C1.60226 10.5296 1.59597 10.0018 1.61484 9.48025C1.64 8.87701 1.64629 8.27377 1.69032 7.67053C1.72806 7.16154 1.70291 6.64627 1.74065 6.13729C1.80984 5.19473 1.78468 4.24588 1.79726 3.30332C1.79726 3.24048 1.81611 3.17764 1.8224 3.12737C1.86014 3.10224 1.87901 3.07711 1.90417 3.07711C2.33818 3.05197 2.76589 3.03311 3.1999 3.00798C3.52697 2.98913 3.85405 2.97657 4.18112 2.93887C4.93591 2.85718 5.6907 2.78178 6.4392 2.66867C7.2569 2.54299 8.07459 2.44245 8.8797 2.25394C9.38918 2.13455 9.91126 2.07799 10.427 1.97745C11.3894 1.78894 12.358 1.58787 13.3204 1.39307C13.7607 1.3051 14.201 1.22969 14.635 1.13543C15.981 0.840098 17.3397 0.620165 18.6983 0.406517C19.4971 0.280842 20.3148 0.230564 21.1199 0.142591C21.4596 0.104889 21.7929 0.060901 22.1326 0.0231985C22.2081 0.0169148 22.2898 0.0169278 22.3716 0.0169278C22.6358 0.0169278 22.9 0.0232116 23.1578 0.0169278C23.9881 0.00436034 24.8058 0.111187 25.6172 0.255713C26.4978 0.412807 27.3092 0.745829 28.0262 1.27995C28.542 1.66954 28.9634 2.15341 29.2716 2.73151C29.605 3.3536 29.8189 4.0071 29.9384 4.69831C30.0201 5.17587 30.083 5.65345 30.0893 6.14358C30.0893 6.39493 30.0893 6.64 30.0893 6.89135C30.083 7.70195 30.0138 8.51256 29.8692 9.31059C29.7685 9.8887 29.6868 10.4731 29.5736 11.0512C29.3975 11.9686 29.1647 12.8672 28.9131 13.7658C28.6364 14.7649 28.3407 15.7577 28.0891 16.7631C27.9319 17.3852 27.8313 18.0199 27.7243 18.6545C27.63 19.1949 27.5608 19.7416 27.4979 20.2883C27.4539 20.6779 27.4476 21.0738 27.435 21.4634C27.4224 21.8467 27.435 22.2237 27.435 22.607C27.435 23.5558 27.5419 24.4921 27.7495 25.4096C27.8375 25.8054 27.9256 26.2076 28.0451 26.5909C28.3093 27.4141 28.6238 28.2184 29.0704 28.9724C29.4415 29.5945 29.8629 30.1726 30.3535 30.7067C30.9888 31.4042 31.7373 31.9509 32.5487 32.4096C33.2846 32.8244 34.096 33.0632 34.9263 33.2014C35.3917 33.2831 35.8635 33.3396 36.3352 33.3082C36.9642 33.2768 37.5869 33.1763 38.1971 33.0066C39.1594 32.7427 40.0274 32.2965 40.8199 31.687C41.1219 31.4545 41.4363 31.2283 41.6942 30.9581C42.2037 30.4303 42.6629 29.8584 43.0529 29.2301C43.4428 28.5891 43.7699 27.9168 44.0341 27.2193C44.2668 26.5909 44.4241 25.9374 44.5562 25.2839C44.6757 24.7058 44.7574 24.1277 44.8078 23.537C44.8832 22.7075 44.8643 21.8844 44.8392 21.0549C44.814 20.1249 44.6631 19.2075 44.5058 18.2901C44.3486 17.3475 44.1159 16.4175 43.8643 15.4875C43.6693 14.7649 43.4491 14.0548 43.2479 13.3322C42.9271 12.1446 42.6566 10.9381 42.4616 9.71904C42.361 9.08438 42.2855 8.44971 42.2289 7.80877C42.1723 7.20553 42.1723 6.60229 42.1975 5.99905C42.2226 5.30784 42.3044 4.61663 42.5057 3.94427C42.6692 3.41015 42.8768 2.90746 43.1661 2.43617C43.2541 2.29165 43.3548 2.15339 43.468 2.02772C43.9272 1.4936 44.4555 1.05375 45.0971 0.745845C45.8079 0.400239 46.5626 0.255706 47.33 0.130031C48.2169 -0.0144955 49.1101 -0.0144909 49.9969 0.0169278C50.3429 0.0294953 50.7014 0.042059 51.0474 0.11118C51.4059 0.186585 51.777 0.180297 52.1418 0.224283C52.8589 0.312256 53.5696 0.412809 54.2867 0.513349C55.8088 0.73328 57.3058 1.06631 58.8091 1.34908C59.8281 1.53759 60.8345 1.77009 61.8535 1.9586C63.0674 2.17853 64.2751 2.42361 65.4953 2.59327C66.1809 2.68752 66.8665 2.78805 67.5584 2.87602C67.7408 2.90116 67.9232 2.89489 68.1057 2.90746C68.4956 2.92631 68.8919 2.95143 69.2819 2.97657C69.6341 2.99542 69.9863 3.01427 70.3449 3.03941C70.3826 3.03941 70.414 3.06454 70.4392 3.07711C70.4581 3.09596 70.4706 3.10853 70.4706 3.1211C70.4706 3.64265 70.4769 4.17049 70.4706 4.69204C70.4706 4.83656 70.4392 4.98108 70.4392 5.11933C70.4329 5.60318 70.4392 6.09331 70.4329 6.57716C70.4203 7.15527 70.4266 7.73337 70.3763 8.30519C70.3449 8.70107 70.3512 9.09066 70.3323 9.48654C70.3071 10.0081 70.2694 10.5296 70.2379 11.0575C70.2379 11.0826 70.2379 11.1077 70.2379 11.1391C70.219 11.6356 70.2065 12.132 70.175 12.6347C70.1499 13.0494 70.0996 13.4704 70.0681 13.8852C70.0618 13.948 70.0555 14.0171 70.0555 14.08C70.0492 14.6015 70.0241 15.1293 69.9675 15.6509C69.936 15.9085 69.936 16.1724 69.9234 16.4364C69.9045 16.8448 69.8857 17.247 69.8605 17.6554C69.8354 18.0199 69.7977 18.3843 69.7599 18.7488C69.7536 18.8116 69.7536 18.8807 69.7473 18.9436C69.7096 19.4149 69.6719 19.8798 69.6404 20.3511C69.6152 20.703 69.6089 21.0549 69.5901 21.4131C69.5649 21.7775 69.5335 22.142 69.5083 22.5065C69.502 22.5693 69.4957 22.6384 69.4957 22.7013C69.458 23.3422 69.4517 23.9894 69.3699 24.6241C69.3196 25.0011 69.3511 25.3781 69.2756 25.7551C69.2064 26.1259 69.2316 26.5092 69.2064 26.8925C69.1812 27.3135 69.1435 27.7282 69.112 28.143C69.0932 28.432 69.0806 28.7211 69.0617 29.0039C69.0428 29.4249 69.024 29.8396 69.0051 30.2606C68.9799 30.7319 68.9422 31.2032 68.9044 31.6682C68.9044 31.6933 68.8982 31.7184 68.8982 31.7436C68.8793 32.1897 68.8604 32.6359 68.8416 33.082C68.829 33.3459 68.8667 33.6098 68.7849 33.8612C68.7724 33.8989 68.7786 33.9366 68.7786 33.9806C68.7598 34.8729 68.7409 35.7652 68.7221 36.6575C68.7095 37.4052 68.678 38.153 68.678 38.9008C68.678 39.7553 68.7032 40.6099 68.7221 41.4582C68.8416 41.8918 68.7283 42.3442 68.829 42.7904C68.8856 43.0417 68.873 43.3119 68.8919 43.5696C68.9988 44.996 69.2189 46.4098 69.653 47.7734C69.8668 48.452 70.1625 49.0993 70.5839 49.6774C71.0116 50.2618 71.5274 50.733 72.2444 50.9341C72.691 51.0535 73.1376 51.1352 73.5967 51.0221C74.1062 50.9027 74.6094 50.7707 75.0938 50.5508C76.2134 50.0293 77.2009 49.3255 78.1444 48.5463C78.6224 48.1567 79.113 47.7797 79.654 47.4781C80.1823 47.1827 80.7107 46.8811 81.3082 46.7617C81.6416 46.6926 81.9812 46.6423 82.3146 46.6109C82.7234 46.5732 83.126 46.68 83.516 46.7868C84.1827 46.9691 84.7173 47.3587 85.1954 47.8425C85.7552 48.4081 86.1766 49.0678 86.554 49.7653C86.9565 50.5068 87.2648 51.286 87.5164 52.0903C87.6925 52.6496 87.8497 53.2214 87.9692 53.7995C88.095 54.4028 88.2334 54.9997 88.3089 55.6155C88.3781 56.1748 88.441 56.734 88.5102 57.2933C88.5479 57.6326 88.5857 57.9656 88.6234 58.305C88.6234 58.3301 88.6297 58.3552 88.6297 58.3866C88.6486 59.3292 88.6674 60.2781 88.6737 61.2206C88.6737 61.6165 88.6674 62.0061 88.6234 62.402C88.5416 63.2063 88.4976 64.0169 88.3592 64.8212C88.2963 65.1857 88.246 65.5438 88.1894 65.9083C88.0636 66.7126 87.8749 67.5044 87.6422 68.2835C87.3717 69.2198 87.0446 70.131 86.598 70.9981C86.2206 71.727 85.7803 72.4057 85.2017 72.9901C84.5538 73.6436 83.7864 74.0897 82.8618 74.1903C82.1133 74.272 81.3711 74.184 80.6666 73.8698C80.2829 73.7001 79.9056 73.5179 79.5407 73.3043C79.1885 73.0969 78.8677 72.8518 78.5406 72.6068C78.0186 72.2109 77.5091 71.7962 76.987 71.4003C76.4838 71.0233 75.9366 70.7028 75.3705 70.42C74.8484 70.1561 74.3075 69.9739 73.7414 69.8356C72.9803 69.6534 72.2507 69.7791 71.5777 70.1624C71.0871 70.4389 70.7286 70.8536 70.4266 71.3249C69.9297 72.0978 69.6341 72.9524 69.4139 73.8321C69.2127 74.6301 69.068 75.447 68.9799 76.2702C68.9233 76.842 68.8227 77.4138 68.8227 77.9919C68.7032 78.4129 68.7912 78.8528 68.7158 79.2801C68.6654 79.5754 68.7095 79.8833 68.7032 80.185C68.6906 81.1275 68.6654 82.0764 68.6654 83.0189C68.6654 83.8484 68.6654 84.6716 68.7158 85.501C68.7409 85.9597 68.7095 86.4247 68.7724 86.8772C68.8416 87.361 68.7598 87.8512 68.873 88.3287C68.8793 88.3539 68.873 88.379 68.8793 88.4104C68.8982 88.9068 68.9107 89.4095 68.9359 89.9059C68.9611 90.3395 69.0051 90.7668 69.0303 91.2004C69.0491 91.502 69.068 91.8036 69.0869 92.1053C69.1058 92.5263 69.1246 92.941 69.1498 93.362C69.1749 93.7516 69.2064 94.1475 69.2378 94.5371C69.2378 94.5622 69.2441 94.5873 69.2441 94.6125C69.2693 95.0146 69.2882 95.4231 69.3133 95.8252C69.3385 96.1897 69.3825 96.5541 69.4076 96.9186C69.4328 97.283 69.4517 97.6538 69.4706 98.0182C69.4894 98.3576 69.5083 98.6969 69.5334 99.0362C69.5649 99.4824 69.5901 99.9222 69.6278 100.368C69.6593 100.733 69.697 101.097 69.7284 101.462C69.7536 101.726 69.7725 101.983 69.7851 102.247C69.8102 102.624 69.8291 103.008 69.8542 103.385C69.8794 103.774 69.9109 104.17 69.9423 104.56C69.9486 104.666 69.9486 104.767 69.9549 104.874C69.9675 105.056 69.9863 105.238 70.0052 105.421C70.0115 105.458 70.0178 105.496 70.0178 105.54C70.0304 105.936 70.0241 106.325 70.0618 106.721C70.1058 107.149 70.0681 107.588 70.1624 108.009C70.1687 108.035 70.1687 108.06 70.1687 108.085C70.1876 108.544 70.2065 109.002 70.2317 109.461C70.2631 110.008 70.2945 110.561 70.3323 111.107C70.3323 111.132 70.3386 111.158 70.3386 111.189C70.3574 111.868 70.3637 112.553 70.4015 113.231C70.4518 114.086 70.4078 114.94 70.4581 115.789C70.4895 116.342 70.4958 116.888 70.5021 117.441C70.5021 117.554 70.4895 117.674 70.4769 117.768C70.4266 117.793 70.4078 117.818 70.3826 117.818C47.6068 117.825 24.8247 117.831 2.04885 117.831C1.9545 117.825 1.89159 117.812 1.84127 117.806Z" fill="#E65325" stroke="#FFFEF6" stroke-width="2" mask="url(#path-1-inside-1_2802_22193)"/>
</svg>
