<svg width="72" height="118" viewBox="0 0 72 118" fill="none" xmlns="http://www.w3.org/2000/svg">
<path d="M71.4902 76.3322C71.4902 78.2135 71.4902 80.101 71.4902 81.9823C71.4077 82.0698 71.4394 82.1823 71.4394 82.2886C71.4267 83.0136 71.414 83.7448 71.4013 84.4698C71.4013 84.5261 71.395 84.5886 71.3886 84.6448C71.3759 84.7823 71.3569 84.9136 71.3505 85.0511C71.3442 85.2261 71.3759 85.4074 71.3378 85.5761C71.287 85.8574 71.2997 86.1386 71.2934 86.4199C71.2934 86.4949 71.2807 86.5761 71.2743 86.6511C71.2616 86.7574 71.2489 86.8636 71.2426 86.9699C71.2235 87.4136 71.2045 87.8574 71.1854 88.3011C71.1854 88.3324 71.1854 88.3636 71.1727 88.3886C71.1155 88.5261 71.1346 88.6761 71.1282 88.8199C71.1282 88.9574 71.1536 89.1011 71.1155 89.2261C71.0647 89.4011 71.0774 89.5699 71.0711 89.7449C71.0711 89.8512 71.0901 89.9637 71.0584 90.0637C70.9949 90.2762 71.0139 90.4887 71.0076 90.7012C71.0076 90.7699 71.0203 90.8449 70.9949 90.9012C70.9377 91.0637 70.9504 91.2262 70.9504 91.3887C70.9504 91.7387 70.8678 92.0824 70.8932 92.4324C70.8932 92.4574 70.8805 92.4887 70.8742 92.52C70.8615 92.6137 70.8488 92.7137 70.8424 92.8074C70.8234 93.1825 70.8107 93.5637 70.7916 93.9387C70.7916 93.9575 70.7916 93.9762 70.7853 93.995C70.7281 94.1637 70.7472 94.3387 70.7408 94.5137C70.7408 94.5825 70.7535 94.6512 70.7345 94.7137C70.671 94.9325 70.69 95.1575 70.69 95.3762C70.69 95.4325 70.6964 95.495 70.6773 95.5512C70.6202 95.7137 70.6329 95.8762 70.6329 96.0387C70.6329 96.095 70.6456 96.1575 70.6265 96.2138C70.5503 96.42 70.5821 96.6387 70.5757 96.8512C70.5757 96.9075 70.5821 96.97 70.563 97.0263C70.5059 97.1575 70.5185 97.295 70.5185 97.4263C70.5185 97.5325 70.5376 97.645 70.5059 97.745C70.455 97.9263 70.4677 98.1075 70.4614 98.295C70.4614 98.3638 70.4741 98.4388 70.455 98.495C70.3979 98.6763 70.4169 98.8575 70.4106 99.045C70.4106 99.12 70.4233 99.2075 70.4042 99.2763C70.3153 99.6075 70.3788 99.9513 70.3153 100.289C70.2645 100.551 70.3026 100.826 70.2582 101.101C70.2201 101.358 70.2391 101.62 70.2074 101.883C70.1693 102.158 70.182 102.439 70.1502 102.72C70.1121 102.995 70.1312 103.276 70.093 103.558C70.0486 103.883 70.0803 104.214 70.0359 104.539C69.9978 104.808 70.0232 105.076 69.9914 105.351C69.947 105.708 69.9787 106.064 69.9406 106.426C69.9025 106.77 69.9279 107.12 69.8898 107.47C69.8454 107.883 69.8898 108.301 69.8327 108.714C69.7946 108.983 69.8263 109.258 69.8263 109.526C69.8263 109.614 69.8454 109.708 69.8199 109.789C69.7501 110.02 69.7755 110.251 69.7755 110.483C69.7691 110.814 69.7755 111.145 69.7755 111.47C69.7755 111.545 69.7882 111.633 69.7628 111.701C69.712 111.845 69.7183 111.989 69.7183 112.133C69.7183 112.764 69.7183 113.395 69.7183 114.026C69.7183 114.12 69.7437 114.22 69.6612 114.326C69.5723 114.333 69.4643 114.339 69.3563 114.339C69.0579 114.339 68.7594 114.301 68.4672 114.351C68.1179 114.408 67.7623 114.364 67.413 114.439C67.1653 114.489 66.9049 114.476 66.6509 114.501C66.3587 114.533 66.0666 114.57 65.7808 114.608C65.5966 114.633 65.4124 114.651 65.2283 114.683C65.025 114.714 64.8218 114.745 64.6186 114.776C64.3455 114.814 64.0724 114.845 63.7993 114.895C63.3484 114.97 62.8975 115.064 62.4466 115.145C61.9639 115.233 61.4812 115.32 60.9986 115.395C60.7191 115.445 60.4397 115.501 60.1602 115.564C59.6268 115.683 59.0806 115.764 58.5408 115.87C57.8549 116.001 57.1753 116.127 56.4894 116.27C56.0512 116.364 55.6003 116.408 55.1684 116.533C55.0541 116.564 54.9398 116.577 54.8191 116.595C54.4317 116.658 54.0443 116.714 53.6569 116.777C53.3839 116.82 53.1171 116.877 52.844 116.914C52.5265 116.964 52.2026 116.995 51.8787 117.039C51.5167 117.083 51.161 117.139 50.799 117.177C50.5387 117.202 50.2719 117.258 50.0052 117.239C49.9671 117.239 49.929 117.252 49.8909 117.258C49.8147 117.27 49.7384 117.289 49.6622 117.295C49.1986 117.314 48.735 117.245 48.2777 117.358C48.011 117.345 47.7443 117.402 47.4839 117.308C47.4458 117.295 47.4077 117.295 47.3696 117.302C47.0647 117.333 46.7599 117.258 46.4614 117.227C46.0613 117.189 45.6612 117.127 45.2738 117.02C44.7339 116.87 44.2068 116.695 43.7178 116.402C43.1018 116.033 42.5873 115.564 42.1872 114.976C41.9014 114.558 41.6982 114.095 41.5458 113.614C41.3743 113.07 41.2664 112.508 41.2283 111.939C41.2283 111.901 41.2282 111.858 41.2155 111.826C41.1584 111.695 41.1647 111.558 41.1711 111.426C41.1965 110.82 41.1203 110.208 41.2219 109.595C41.26 109.376 41.2473 109.158 41.2791 108.933C41.3362 108.533 41.387 108.126 41.4378 107.726C41.5331 106.945 41.7173 106.189 41.8951 105.426C42.1174 104.464 42.3968 103.514 42.6763 102.57C42.9176 101.751 43.1589 100.939 43.3113 100.095C43.3812 99.7263 43.4638 99.3575 43.5273 98.9888C43.5844 98.6825 43.6352 98.3825 43.6733 98.0763C43.7051 97.8575 43.7115 97.6325 43.7305 97.4138C43.7305 97.3825 43.7305 97.3575 43.7369 97.3263C43.8194 97.0325 43.7559 96.7262 43.8321 96.4325C43.8067 95.6387 43.8766 94.845 43.7877 94.0512C43.7432 93.6887 43.7305 93.3199 43.6733 92.9574C43.6035 92.5387 43.54 92.1199 43.432 91.7074C43.2859 91.1449 43.1272 90.5824 42.8922 90.0512C42.7271 89.6887 42.5873 89.3137 42.3968 88.9637C42.1491 88.5011 41.8697 88.0574 41.5458 87.6449C41.3172 87.3574 41.0885 87.0636 40.8218 86.8011C40.5297 86.5136 40.2248 86.2449 39.8946 85.9886C39.2785 85.5074 38.6053 85.1386 37.8813 84.8511C37.3796 84.6511 36.8588 84.5073 36.3254 84.4261C36.0078 84.3761 35.6839 84.3198 35.36 84.3323C35.2203 84.3386 35.0806 84.3386 34.9472 84.3323C34.6233 84.3073 34.2994 84.3573 33.9755 84.4011C33.5691 84.4511 33.169 84.5636 32.7752 84.6823C32.2544 84.8386 31.7654 85.0636 31.2955 85.3199C30.762 85.6136 30.2666 85.9699 29.8094 86.3636C29.4728 86.6574 29.1489 86.9699 28.8758 87.3324C28.7234 87.5324 28.5709 87.7324 28.4185 87.9386C28.3423 88.0386 28.2724 88.1449 28.2089 88.2511C28.0438 88.5136 27.8723 88.7761 27.7326 89.0511C27.5738 89.3512 27.4468 89.6699 27.3135 89.9824C27.0721 90.5574 26.8752 91.1449 26.7355 91.7512C26.6085 92.3262 26.4688 92.9012 26.4434 93.495C26.4434 93.5325 26.4243 93.57 26.418 93.6075C26.4053 93.695 26.3926 93.7762 26.3862 93.8637C26.3799 93.9387 26.3989 94.0262 26.3799 94.095C26.31 94.345 26.3354 94.595 26.3354 94.845C26.3291 95.32 26.3354 95.795 26.3354 96.27C26.3354 96.5888 26.418 96.9075 26.3926 97.2263C26.3926 97.245 26.3926 97.2638 26.4053 97.2825C26.4624 97.3825 26.4497 97.4888 26.4497 97.595C26.4497 97.6513 26.4561 97.7138 26.4688 97.77C26.5196 98.0763 26.5704 98.3763 26.6149 98.6825C26.6784 99.0638 26.7292 99.445 26.799 99.8263C26.8625 100.158 26.9578 100.483 27.0277 100.814C27.2118 101.645 27.4849 102.458 27.7072 103.276C27.8025 103.639 27.9295 104.001 28.0184 104.364C28.1772 105.001 28.3296 105.645 28.4757 106.283C28.5519 106.62 28.6154 106.964 28.6789 107.308C28.7297 107.589 28.7678 107.876 28.8123 108.164C28.8821 108.614 28.9583 109.064 28.9583 109.52C28.9583 109.57 28.952 109.62 28.9647 109.664C29.0282 109.895 29.0028 110.126 29.0091 110.358C29.0155 110.695 29.0155 111.039 29.0091 111.376C29.0028 111.645 28.9774 111.92 28.952 112.189C28.9393 112.333 28.9266 112.476 28.9012 112.62C28.7805 113.208 28.6281 113.789 28.3741 114.339C27.9104 115.339 27.1737 116.083 26.183 116.577C25.7067 116.814 25.1986 116.97 24.6778 117.089C24.3412 117.164 24.0046 117.214 23.6617 117.245C23.3568 117.27 23.0584 117.345 22.7535 117.314C22.7154 117.308 22.6773 117.327 22.6392 117.339C22.3661 117.408 22.0867 117.395 21.8199 117.358C21.6421 117.333 21.4706 117.314 21.2928 117.314C21.0578 117.314 20.8165 117.314 20.5815 117.314C20.5117 117.314 20.4354 117.32 20.3783 117.302C20.2322 117.245 20.0861 117.258 19.9401 117.258C19.8829 117.258 19.8194 117.264 19.7622 117.252C19.3367 117.17 18.9049 117.152 18.4794 117.095C18.2825 117.07 18.092 117.039 17.8951 117.014C17.5013 116.952 17.1012 116.889 16.7075 116.827C16.4344 116.783 16.1613 116.758 15.8946 116.708C15.2087 116.583 14.5291 116.451 13.8496 116.32C13.1637 116.189 12.4841 116.052 11.7982 115.92C11.3727 115.839 10.9536 115.751 10.5281 115.67C10.2296 115.614 9.93107 115.564 9.63258 115.489C9.36584 115.426 9.09276 115.401 8.81967 115.351C8.15282 115.233 7.49233 115.095 6.82549 114.995C6.26026 114.914 5.70138 114.826 5.13615 114.745C4.96468 114.72 4.78686 114.701 4.61538 114.676C4.36135 114.639 4.11366 114.576 3.85963 114.576C3.80247 114.576 3.74531 114.57 3.6818 114.558C3.44682 114.526 3.21818 114.483 2.9832 114.476C2.6593 114.464 2.34176 114.389 2.01151 114.42C1.97976 114.42 1.94801 114.42 1.9226 114.414C1.75113 114.351 1.5733 114.37 1.39548 114.37C1.16685 114.37 0.94457 114.37 0.715938 114.37C0.652429 114.37 0.588919 114.345 0.506357 114.333C0.506357 114.158 0.5 113.989 0.5 113.826C0.5 76.2322 0.5 38.638 0.5 1.05001C0.5 0.962509 0.5 0.875009 0.5 0.787508C0.506351 0.693757 0.512701 0.593751 0.519052 0.5C23.5855 0.5 46.6519 0.5 69.712 0.5C69.712 1.26876 69.712 2.03127 69.7183 2.80003C69.7183 2.88753 69.6993 2.98129 69.7247 3.06254C69.7882 3.25629 69.7691 3.44379 69.7691 3.63754C69.7691 3.9563 69.7691 4.2813 69.7691 4.60006C69.7691 4.66881 69.7565 4.73756 69.7755 4.80006C69.8581 5.07506 69.82 5.35631 69.8263 5.63757C69.8327 5.83132 69.8009 6.03132 69.8327 6.21883C69.9025 6.57508 69.8644 6.93133 69.8771 7.29384C69.8771 7.36259 69.8835 7.43134 69.8898 7.49384C69.9025 7.63759 69.9216 7.78135 69.9279 7.9251C69.9343 8.11885 69.9025 8.31885 69.9406 8.50636C69.9851 8.75011 69.9724 8.98761 69.9787 9.23136C69.9787 9.33137 69.966 9.43137 69.9851 9.51887C70.0422 9.75638 70.0041 10.0001 70.0295 10.2439C70.074 10.6001 70.0803 10.9564 70.0803 11.3189C70.0803 11.3501 70.0803 11.3814 70.093 11.4064C70.1502 11.5376 70.1375 11.6751 70.1375 11.8064C70.1375 11.9251 70.1184 12.0439 70.1438 12.1564C70.2074 12.3939 70.1819 12.6377 70.1946 12.8814C70.1946 12.9377 70.1883 13.0002 70.2074 13.0564C70.2582 13.2064 70.2518 13.3627 70.2518 13.5189C70.2518 13.8689 70.3344 14.2127 70.309 14.5627C70.3788 14.7877 70.3534 15.0252 70.3598 15.2564C70.3598 15.3252 70.3725 15.3939 70.3788 15.4564C70.3915 15.5502 70.4042 15.6502 70.4106 15.7439C70.4296 16.1315 70.4233 16.519 70.4741 16.9002C70.5058 17.144 70.5122 17.3815 70.5185 17.6252C70.5185 17.6627 70.5186 17.7065 70.5313 17.7377C70.5884 17.869 70.5757 18.0065 70.5757 18.1377C70.5757 18.244 70.5567 18.3565 70.5884 18.4565C70.6456 18.6377 70.6329 18.819 70.6392 19.0065C70.6392 19.0565 70.6329 19.1065 70.6456 19.1502C70.7154 19.3502 70.69 19.5502 70.6964 19.7565C70.6964 19.8252 70.6837 19.894 70.7027 19.9565C70.7599 20.1378 70.7472 20.319 70.7472 20.5065C70.7472 20.5753 70.7408 20.644 70.7535 20.7065C70.8107 20.9003 70.7916 21.094 70.798 21.2878C70.798 21.3565 70.8043 21.4253 70.8107 21.494C70.8234 21.619 70.8425 21.744 70.8488 21.869C70.8679 22.2378 70.8869 22.6003 70.906 22.969C70.906 22.9878 70.9059 23.0065 70.9123 23.0253C70.9695 23.1628 70.9568 23.3128 70.9568 23.4566C70.9504 23.8316 71.052 24.2066 71.0203 24.5878C71.0203 24.6128 71.033 24.6441 71.033 24.6753C71.0457 24.7878 71.0647 24.9066 71.0711 25.0191C71.0774 25.1753 71.052 25.3378 71.0838 25.4816C71.1282 25.6628 71.1219 25.8441 71.1282 26.0316C71.1409 26.2128 71.1727 26.3941 71.179 26.5753C71.1917 26.8566 71.1854 27.1316 71.2235 27.4128C71.268 27.7441 71.2362 28.0879 71.2807 28.4254C71.3188 28.7129 71.2934 29.0004 71.3315 29.2941C71.3759 29.6566 71.3632 30.0254 71.3823 30.3941C71.4267 31.1129 71.414 31.8254 71.4267 32.5442C71.4267 32.6004 71.4267 32.6629 71.4331 32.7192C71.4394 32.7442 71.4648 32.7629 71.4775 32.7879C71.4775 34.6942 71.4775 36.5942 71.4775 38.5005C71.4585 38.5567 71.4267 38.6067 71.4267 38.663C71.414 39.1068 71.4077 39.5568 71.3886 40.0005C71.3759 40.3005 71.3632 40.6005 71.3315 40.9005C71.2934 41.2943 71.2362 41.688 71.179 42.0755C71.1473 42.313 71.1092 42.5505 71.0711 42.7881C71.052 42.8943 71.033 42.9943 71.0076 43.1006C70.9377 43.4506 70.8742 43.8006 70.7853 44.1506C70.6519 44.6568 70.4741 45.1506 70.2709 45.6318C70.0359 46.1756 69.7247 46.6631 69.2801 47.0569C69.1277 47.1944 68.9626 47.3194 68.7784 47.4069C68.2322 47.6631 67.6479 47.6944 67.0573 47.6069C66.4921 47.5256 65.9777 47.3069 65.4759 47.0631C65.0949 46.8819 64.7392 46.6569 64.3836 46.4256C63.8755 46.1006 63.3928 45.7256 62.9165 45.3506C62.4466 44.9818 61.9766 44.6131 61.4685 44.3068C60.8843 43.9568 60.2873 43.6443 59.6331 43.4568C59.1505 43.3193 58.6614 43.2193 58.1597 43.2318C58.0137 43.2381 57.8676 43.2631 57.7215 43.2881C57.423 43.3443 57.1309 43.4068 56.8387 43.5068C56.445 43.6506 56.0893 43.8443 55.7527 44.0818C55.4923 44.2693 55.232 44.4631 55.016 44.7006C54.9398 44.7818 54.8827 44.8693 54.8128 44.9506C54.5397 45.2443 54.292 45.5568 54.0761 45.8943C53.9745 46.0506 53.8602 46.1943 53.7776 46.3568C53.5998 46.6881 53.422 47.0256 53.2695 47.3694C53.1044 47.7319 52.9456 48.1006 52.8123 48.4756C52.6345 48.9756 52.4503 49.4819 52.3296 50.0006C52.228 50.4256 52.101 50.8444 52.0184 51.2694C51.9104 51.8069 51.8406 52.3569 51.7326 52.8944C51.7009 53.0569 51.6945 53.2194 51.6691 53.3819C51.6374 53.5882 51.5929 53.8007 51.5738 54.0069C51.5484 54.2944 51.5357 54.5882 51.5167 54.8757C51.5167 54.8945 51.5167 54.9132 51.5103 54.932C51.4405 55.1632 51.4722 55.3945 51.4659 55.6257C51.4659 55.7257 51.4786 55.8257 51.4532 55.9132C51.4087 56.0757 51.4151 56.2382 51.4151 56.407C51.4151 56.6882 51.4087 56.9695 51.4151 57.2507C51.4341 57.882 51.377 58.507 51.4595 59.1383C51.4976 59.432 51.4468 59.7383 51.5167 60.0383C51.523 60.0758 51.5167 60.1133 51.5167 60.157C51.5357 60.4258 51.5484 60.6945 51.5738 60.9695C51.5865 61.1258 51.5993 61.282 51.631 61.4258C51.7072 61.7446 51.7263 62.0758 51.7898 62.3946C51.8406 62.6696 51.8787 62.9508 51.9359 63.2196C52.0057 63.5696 52.0883 63.9196 52.1772 64.2633C52.2915 64.7258 52.3995 65.1883 52.5392 65.6383C52.717 66.1821 52.8948 66.7259 53.1362 67.2509C53.4918 68.0321 53.8792 68.7884 54.4063 69.4759C54.7874 69.9759 55.2193 70.4197 55.7273 70.7947C56.0195 71.0072 56.3243 71.2009 56.6736 71.3197C56.9721 71.4197 57.2642 71.5259 57.5754 71.5759C57.8866 71.6259 58.1851 71.7259 58.5027 71.6134C58.5281 71.6072 58.5598 71.6072 58.5916 71.6072C59.0488 71.6072 59.4871 71.4822 59.9126 71.3447C60.3825 71.1884 60.8207 70.9697 61.2463 70.7259C61.6591 70.4822 62.0592 70.2134 62.4402 69.9197C62.7578 69.6759 63.0563 69.4072 63.3802 69.1696C63.8057 68.8571 64.2312 68.5509 64.6884 68.2759C65.2283 67.9509 65.7808 67.6634 66.3714 67.4446C66.5492 67.3759 66.7334 67.3571 66.9176 67.3196C67.1462 67.2759 67.3812 67.2509 67.6162 67.2259C67.7813 67.2071 67.9464 67.2509 68.1116 67.2696C68.5053 67.3134 68.8546 67.4759 69.1531 67.7134C69.458 67.9571 69.712 68.2571 69.9279 68.5884C70.2201 69.0321 70.4106 69.5196 70.5821 70.0134C70.7789 70.5822 70.9123 71.1697 71.0266 71.7572C71.0774 72.0197 71.1282 72.2884 71.16 72.5572C71.1854 72.7759 71.2171 72.9947 71.2552 73.2134C71.2934 73.4259 71.2997 73.6385 71.3124 73.851C71.3315 74.1322 71.3886 74.4072 71.4013 74.6885C71.4267 75.151 71.4267 75.6197 71.4394 76.0822C71.4394 76.1572 71.4394 76.2385 71.4458 76.3135C71.4458 76.2885 71.4712 76.3072 71.4902 76.3322Z" fill="#E65325" stroke="#FFFEF6" stroke-miterlimit="10"/>
</svg>
