<svg xmlns="http://www.w3.org/2000/svg" width="281" height="196" viewBox="213 735 281 196" fill="none"><defs><filter id="creamNoise" filterUnits="objectBoundingBox" x="0" y="0" width="1" height="1" color-interpolation-filters="sRGB">
<feTurbulence type="fractalNoise" baseFrequency="0.256410 0.256410" stitchTiles="stitch" numOctaves="3" result="noise" seed="255444" />
<feColorMatrix in="noise" type="luminanceToAlpha" result="alphaNoise" />
<feComponentTransfer in="alphaNoise" result="discreteNoise"><feFuncA type="discrete" tableValues="0 0 0 0 0 0 0 0 0 0 0 0 0 0 0 0 0 0 0 0 0 1 1 1 1 1 1 1 1 0 0 0 0 0 0 0 0 0 0 0 0 0 0 0 0 0 0 0 0 0 0 0 0 0 0 0 0 0 0 0 0 0 0 0 0 0 0 0 0 0 0 0 0 0 0 0 0 0 0 0 0 0 0 0 0 0 0 0 0 0 0 0 0 0 0 0 0 0 0 0" /></feComponentTransfer>
<feFlood flood-color="rgb(0 0 0)" flood-opacity="0.25" result="flood" />
<feComposite operator="in" in="flood" in2="discreteNoise" result="noiseOnly" />
<feComposite operator="in" in="noiseOnly" in2="SourceGraphic" result="noiseClipped" />
<feMerge><feMergeNode in="SourceGraphic" /><feMergeNode in="noiseClipped" /></feMerge>
</filter>

</defs><path d="M488.572 814.968C488.049 815.193 487.425 815.316 486.779 815.316C484.985 815.316 482.767 814.394 482.121 812.375C480.302 806.744 478.58 802.133 476.689 797.849C475.767 795.754 474.819 793.76 473.871 791.92L473.723 791.623C472.851 790.003 472.703 789.706 471.453 787.759C470.505 786.289 469.583 784.993 468.635 783.798C468.138 783.174 467.59 782.553 467.067 781.928C466.893 781.754 466.795 781.631 466.744 781.58C466.693 781.503 466.621 781.431 466.544 781.355C465.524 780.458 464.475 779.587 463.331 778.715L463.183 778.618C463.085 778.52 462.957 778.443 462.834 778.392C462.537 778.193 462.311 778.069 462.086 778.018C461.835 777.895 461.614 777.768 461.364 777.67C461.164 777.593 460.939 777.521 460.718 777.419C460.467 777.296 460.144 777.168 459.77 777.122C459.693 777.096 459.647 777.096 459.57 777.096C459.273 777.045 458.996 777.02 458.75 777.02C458.55 776.922 458.35 776.871 458.125 776.871H457.925C457.454 776.969 456.952 777.02 456.48 777.096C456.357 777.045 456.208 777.02 456.055 777.02C455.805 777.02 455.681 777.071 455.282 777.245C455.256 777.245 453.96 777.742 453.714 777.87C453.365 778.018 453.017 778.193 452.668 778.367L452.294 778.541C452.243 778.592 451.997 778.766 451.946 778.792L451.274 779.264C450.649 779.714 450.029 780.135 449.43 780.632C449.107 780.904 448.784 781.206 448.456 781.503C448.456 781.503 447.708 782.149 447.683 782.2L447.458 782.426C446.659 783.297 445.838 784.194 445.065 785.141C443.446 787.135 441.877 789.328 440.279 791.869C439.854 792.566 439.434 793.263 439.034 793.964C438.983 794.015 438.834 794.313 438.834 794.313L438.486 794.938C437.738 796.306 437.041 797.679 436.344 799.047C433.403 805.053 430.764 811.632 428.294 819.205C417.729 851.424 413.993 888.374 417.754 923.262C417.903 924.733 417.529 926.029 416.632 927.023C415.659 928.12 414.116 928.766 412.497 928.766C410.478 928.766 408.213 927.695 407.886 924.677C405.57 903.3 406.041 880.97 409.28 858.271C411.124 845.338 413.717 833.205 416.981 822.014C416.19 807.938 414.308 784.33 412.047 776.191C409.603 767.398 406.216 758.426 399.339 752.144C394.605 747.809 388.276 745.493 381.974 747.236C373.678 749.505 368.093 757.176 364.183 764.329C361.268 769.637 353.244 764.826 356.134 759.569C361.514 749.752 369.938 739.858 381.523 737.741C403.003 733.852 416.581 755.506 420.993 773.471C423.135 782.141 424.282 791.164 424.831 800.131C428.817 790.862 434.372 780.696 442.621 773.369C447.13 769.357 452.536 767.138 457.845 767.138C461.857 767.138 465.694 768.333 469.23 770.7C473.293 773.416 476.957 777.576 480.467 783.484C484.556 790.36 487.994 798.261 491.233 808.351C492.006 810.692 491.483 813.757 488.568 814.955L488.572 814.968Z" fill="#6AC075" stroke="#382F32" stroke-width="1.5" stroke-miterlimit="10" />
<path d="M245.636 814.59C254.731 799.222 271.438 790.956 288.973 789.889C304.503 788.945 318.439 794.169 330.598 802.681C331.512 803.03 339.969 810.025 343.233 813.204C354.887 824.556 362.197 837.4 366.595 851.157C374.135 852.547 381.232 855.785 386.638 861.421C392.644 867.681 395.827 876.015 395.882 884.66C395.899 887.541 393.336 890.299 390.374 890.168C387.374 890.032 384.887 887.749 384.866 884.66C384.862 883.763 384.828 882.866 384.747 881.974C384.73 881.795 384.713 881.612 384.692 881.434C384.637 881.111 384.586 880.792 384.522 880.469C384.195 878.803 383.693 877.201 383.102 875.611C383.094 875.59 383.09 875.59 383.081 875.569C382.869 875.14 382.673 874.71 382.452 874.285C382.065 873.55 381.645 872.832 381.194 872.135C380.999 871.837 380.803 871.544 380.595 871.251C380.527 871.153 380.455 871.06 380.387 870.966C379.868 870.388 379.392 869.776 378.852 869.215C378.317 868.654 377.756 868.119 377.174 867.604C376.965 867.422 376.171 866.771 376.026 866.665C374.624 865.662 373.132 864.782 371.581 864.034C371.309 863.903 369.838 863.325 369.711 863.278C373.514 882.386 372.796 902.837 370.956 923.228C370.293 930.581 358.72 930.653 359.387 923.228C361.848 896.003 363.671 867.06 351.023 842.538C349.753 842.852 348.486 843.192 347.245 843.609C346.722 843.787 346.2 843.97 345.685 844.17C345.545 844.225 345.413 844.276 345.307 844.323C344.521 844.68 343.739 845.041 342.978 845.449C342.175 845.878 341.393 846.346 340.636 846.847C340.318 847.06 340.007 847.285 339.693 847.51C339.548 847.617 339.378 847.744 339.293 847.825C338.626 848.42 337.963 849.006 337.347 849.652C336.994 850.022 336.663 850.409 336.323 850.791C336.25 850.881 336.178 850.97 336.106 851.059C335.672 851.854 335.069 852.572 334.623 853.363C334.389 853.771 334.168 854.187 333.96 854.608C333.921 854.68 333.705 855.16 333.569 855.445C333.454 855.747 333.237 856.287 333.207 856.367C333.037 856.848 332.88 857.332 332.731 857.817C332.425 858.837 332.17 859.869 331.962 860.911C331.852 861.459 331.762 862.007 331.669 862.555C331.665 862.598 331.66 862.611 331.656 862.649C331.631 862.87 331.605 863.091 331.584 863.312C331.486 864.54 331.388 865.76 331.359 866.992C331.286 869.853 331.456 872.704 331.754 875.548C332.064 878.51 329 881.056 326.246 881.056C323.012 881.056 321.048 878.518 320.738 875.548C319.663 865.258 320.479 853.775 326.837 845.173C331.41 838.985 337.882 835.096 345.035 832.81C344.712 832.368 344.402 831.917 344.066 831.479C339.136 824.99 333.25 818.793 326.582 813.723C325.574 813.965 324.571 814.233 323.581 814.543C322.633 814.836 321.711 815.189 320.78 815.525C320.708 815.55 320.678 815.559 320.632 815.576C320.602 815.589 320.598 815.593 320.559 815.61C320.062 815.839 319.561 816.065 319.072 816.311C317.516 817.093 316.05 818.011 314.635 819.023C314.427 819.188 313.938 819.567 313.815 819.677C313.513 819.941 313.211 820.213 312.922 820.489C312.187 821.186 311.49 821.921 310.831 822.695C310.691 822.86 310.198 823.532 310.219 823.489C310.002 823.795 309.786 824.093 309.577 824.407C309.025 825.249 308.519 826.116 308.052 827.008C307.848 827.404 307.648 827.799 307.461 828.203C307.359 828.415 307.265 828.628 307.172 828.844C307.151 828.895 307.142 828.921 307.117 828.985C306.734 830.034 306.352 831.076 306.033 832.151C305.697 833.286 305.412 834.437 305.17 835.593C305.026 836.29 304.894 836.987 304.779 837.689C304.779 837.71 304.686 838.36 304.643 838.628C304.282 841.582 304.163 844.561 304.18 847.536C304.193 850.511 301.638 853.044 298.672 853.044C295.705 853.044 293.181 850.524 293.164 847.536C293.109 836.01 295.285 824.314 302.782 815.223C305.965 811.364 310.045 808.474 314.524 806.345C309.288 803.884 303.725 802.205 297.886 801.606C281.634 799.932 264.217 805.945 255.636 820.438C251.85 826.838 241.845 821.029 245.649 814.598L245.636 814.59ZM339.842 847.391C339.944 847.319 339.927 847.332 339.842 847.391Z" fill="#89CC8F" stroke="#382F32" stroke-width="1.5" stroke-miterlimit="10" />
<path d="M341.987 924.308C338.009 913.696 339.582 901.532 346.475 892.446C352.918 883.954 363.509 879.989 372.298 874.528C381.746 868.654 389.052 860.804 390.552 849.38C392.311 835.98 386.34 823.57 382.987 810.948C380.093 800.046 379.634 782.473 393.234 778.376C397.824 776.994 395.962 769.748 391.338 771.142C380.178 774.504 374.185 785.822 373.645 796.927C372.931 811.555 380.955 824.641 382.991 838.819C383.926 845.343 383.446 852.224 379.833 857.897C377.007 862.339 372.668 865.526 368.248 868.242C358.588 874.179 347.746 878.642 340.623 887.864C332.357 898.566 330.002 913.526 334.754 926.203C336.424 930.657 343.679 928.821 341.987 924.308Z" fill="#6AC075" stroke="#382F32" stroke-width="1.5" stroke-miterlimit="10" />
<path d="M385.029 771.163C379.449 771.868 379.449 779.952 385.029 780.657C383.975 786.182 391.663 788.681 394.06 783.59C398.99 786.301 403.742 779.76 399.64 775.906C403.742 772.055 398.99 765.514 394.06 768.222C391.663 763.13 383.975 765.629 385.029 771.154V771.163Z" fill="#FAE100" stroke="#382F32" stroke-width="1.5" stroke-miterlimit="10" />
<path d="M391.562 777.661C394.15 777.661 394.154 773.637 391.562 773.637C388.969 773.637 388.969 777.661 391.562 777.661Z" fill="#E87E8D" stroke="#382F32" stroke-width="1.5" stroke-miterlimit="10" />
<path d="M397.642 808.325C392.062 809.03 392.062 817.114 397.642 817.819C396.588 823.344 404.276 825.843 406.673 820.752C411.603 823.463 416.355 816.923 412.254 813.068C416.355 809.217 411.603 802.677 406.673 805.384C404.276 800.292 396.588 802.791 397.642 808.316V808.325Z" fill="#FFFEF6" filter="url(#creamNoise)" stroke="#382F32" stroke-width="1.5" stroke-miterlimit="10" />
<path d="M404.179 814.824C406.767 814.824 406.771 810.799 404.179 810.799C401.586 810.799 401.586 814.824 404.179 814.824Z" fill="#FAE100" stroke="#382F32" stroke-width="1.5" stroke-miterlimit="10" />
<path d="M341.533 825.937C344.695 822.214 350.568 826.051 348.435 830.442C352.948 832.299 351.117 839.069 346.284 838.398C345.915 843.264 338.906 843.617 338.052 838.81C333.309 839.962 330.81 833.404 335.115 831.109C332.553 826.952 338.018 822.549 341.533 825.937Z" fill="#E65325" stroke="#382F32" stroke-width="1.5" stroke-miterlimit="10" />
<path d="M343.153 833.769C341.925 835.652 339.001 833.743 340.229 831.861C341.457 829.978 344.381 831.886 343.153 833.769Z" fill="#FAE100" stroke="#382F32" stroke-width="1.5" stroke-miterlimit="10" />
<path d="M376.319 784.448C377.413 774.814 372.441 766.338 365.213 765.517C357.986 764.696 351.24 771.841 350.145 781.475C349.051 791.11 354.023 799.585 361.251 800.406C368.478 801.227 375.224 794.083 376.319 784.448Z" fill="#E87E8D" stroke="#382F32" stroke-width="1.5" stroke-miterlimit="10" />
<path d="M348.081 780.521C354.753 773.485 355.883 763.724 350.605 758.719C345.327 753.713 335.64 755.36 328.968 762.395C322.295 769.431 321.165 779.192 326.444 784.198C331.722 789.203 341.409 787.557 348.081 780.521Z" fill="#E87E8D" stroke="#382F32" stroke-width="1.5" stroke-miterlimit="10" />
<path d="M365.002 783.793C369.521 774.093 367.285 763.482 360.009 760.092C352.732 756.702 343.17 761.817 338.651 771.517C334.132 781.217 336.368 791.828 343.644 795.218C350.921 798.608 360.483 793.493 365.002 783.793Z" fill="#E87E8D" stroke="#382F32" stroke-width="1.5" stroke-miterlimit="10" />
<path d="M255.012 848.896C253.164 849.584 246.967 828.64 245.093 828.717C243.155 828.797 238.731 850.166 236.903 849.656C235.054 849.138 242.343 828.559 240.745 827.497C239.16 826.447 223.023 841.156 221.816 839.635C220.651 838.169 238.641 825.818 237.953 823.965C237.264 822.116 215.581 824.526 215.5 822.656C215.419 820.718 237.247 821.3 237.762 819.469C238.28 817.62 219.308 806.812 220.371 805.21C221.42 803.625 238.735 816.906 240.256 815.699C241.723 814.534 232.721 794.636 234.574 793.947C236.423 793.259 242.619 814.203 244.494 814.126C246.432 814.046 250.856 792.677 252.683 793.187C254.532 793.705 247.243 814.284 248.841 815.346C250.427 816.396 266.564 801.687 267.771 803.208C268.935 804.674 250.945 817.025 251.634 818.878C252.322 820.727 274.006 818.317 274.086 820.187C274.167 822.125 252.339 821.543 251.825 823.374C251.306 825.223 270.278 836.031 269.216 837.633C268.166 839.218 250.852 825.937 249.33 827.144C247.864 828.309 256.865 848.207 255.012 848.896Z" fill="#E87E8D" stroke="#382F32" stroke-width="1.5" stroke-miterlimit="10" />
<path d="M244.793 824.029C246.232 824.029 247.398 822.862 247.398 821.424C247.398 819.985 246.232 818.818 244.793 818.818C243.354 818.818 242.188 819.985 242.188 821.424C242.188 822.862 243.354 824.029 244.793 824.029Z" fill="#FFFEF6" filter="url(#creamNoise)" stroke="#382F32" stroke-width="1.5" stroke-miterlimit="10" />
<path d="M424.14 906.645C422.72 908.838 399.579 891.528 397.654 893.096C395.66 894.72 407.883 920.878 405.533 921.784C403.162 922.697 394.611 895.102 392.073 895.242C389.562 895.383 384.088 923.756 381.606 923.093C379.209 922.455 388.512 895.123 386.319 893.708C384.126 892.289 363.033 912.009 361.469 910.088C359.846 908.094 383.459 891.439 382.553 889.093C381.64 886.721 352.969 890.27 352.825 887.733C352.684 885.221 381.555 885.608 382.213 883.121C382.851 880.724 357.555 866.746 358.97 864.549C360.385 862.352 383.531 879.666 385.456 878.098C387.449 876.474 375.226 850.316 377.577 849.41C379.948 848.497 388.499 876.092 391.036 875.952C393.548 875.811 399.022 847.438 401.504 848.101C403.901 848.739 394.598 876.071 396.791 877.486C398.984 878.905 420.077 859.185 421.641 861.106C423.264 863.1 399.651 879.755 400.556 882.101C401.47 884.473 430.141 880.924 430.285 883.461C430.425 885.973 401.555 885.586 400.896 888.073C400.259 890.47 425.555 904.448 424.14 906.645Z" fill="#FAE100" stroke="#382F32" stroke-width="2" stroke-miterlimit="10" />
<path d="M391.56 889.046C393.464 889.046 395.007 887.503 395.007 885.599C395.007 883.696 393.464 882.152 391.56 882.152C389.656 882.152 388.113 883.696 388.113 885.599C388.113 887.503 389.656 889.046 391.56 889.046Z" fill="#FFFEF6" filter="url(#creamNoise)" stroke="#382F32" stroke-width="2" stroke-miterlimit="10" />
</svg>