<svg width="98" height="120" viewBox="0 0 98 120" fill="none" xmlns="http://www.w3.org/2000/svg">
<mask id="mask0_2220_11258" style="mask-type:alpha" maskUnits="userSpaceOnUse" x="0" y="3" width="98" height="117">
<rect x="0.5" y="3.50073" width="96.4667" height="115.077" fill="#6ABF73" stroke="#382F32"/>
</mask>
<g mask="url(#mask0_2220_11258)">
<path d="M48.3921 36.6655C80.8381 36.6655 107.19 64.5638 107.19 99.0405C107.19 133.517 80.8381 161.416 48.3921 161.416C15.9461 161.415 -10.4058 133.517 -10.4058 99.0405C-10.4058 64.5638 15.9461 36.6656 48.3921 36.6655Z" fill="#6ABF73" stroke="#372F32"/>
</g>
<g filter="url(#filter0_n_2220_11258)">
<rect x="22.6123" y="8.56683" width="47.2641" height="48.4457" rx="12" fill="#FEFDF5"/>
<rect x="23.1123" y="9.06683" width="46.2641" height="47.4457" rx="11.5" stroke="#372F32"/>
</g>
<g filter="url(#filter1_n_2220_11258)">
<mask id="path-5-inside-1_2220_11258" fill="white">
<path d="M21.4307 21.288C21.4307 21.2906 21.4286 21.2926 21.4261 21.2926C21.4237 21.2926 21.4217 21.2945 21.4215 21.2968C21.3216 22.5011 20.3726 23.4457 19.2158 23.4459C18.059 23.4459 17.1104 22.5014 17.0102 21.2973C17.0099 21.2947 17.0077 21.2926 17.0051 21.2926C17.0023 21.2926 17 21.2903 17 21.2875V12.1349C17 10.9114 17.9918 9.91956 19.2153 9.91956C20.4388 9.91956 21.4307 10.9114 21.4307 12.1349V21.288Z"/>
</mask>
<path d="M21.4307 21.288C21.4307 21.2906 21.4286 21.2926 21.4261 21.2926C21.4237 21.2926 21.4217 21.2945 21.4215 21.2968C21.3216 22.5011 20.3726 23.4457 19.2158 23.4459C18.059 23.4459 17.1104 22.5014 17.0102 21.2973C17.0099 21.2947 17.0077 21.2926 17.0051 21.2926C17.0023 21.2926 17 21.2903 17 21.2875V12.1349C17 10.9114 17.9918 9.91956 19.2153 9.91956C20.4388 9.91956 21.4307 10.9114 21.4307 12.1349V21.288Z" fill="#E65325"/>
<path d="M19.2158 23.4459V24.4459H19.216L19.2158 23.4459ZM17.0102 21.2973L18.0067 21.2144L17.0102 21.2973ZM21.4215 21.2968L20.425 21.2141L21.4215 21.2968ZM21.4215 21.2968L20.425 21.2141C20.3632 21.958 19.7961 22.4458 19.2156 22.4459L19.2158 23.4459L19.216 24.4459C20.9492 24.4456 22.2799 23.0442 22.4181 21.3796L21.4215 21.2968ZM19.2158 23.4459V22.4459C18.6356 22.4459 18.0686 21.9584 18.0067 21.2144L17.0102 21.2973L16.0136 21.3802C16.1521 23.0444 17.4824 24.4459 19.2158 24.4459V23.4459ZM17 21.2875H18V12.1349H17H16V21.2875H17ZM21.4307 12.1349H20.4307V21.288H21.4307H22.4307V12.1349H21.4307ZM19.2153 9.91956V10.9196C19.8865 10.9196 20.4307 11.4637 20.4307 12.1349H21.4307H22.4307C22.4307 10.3591 20.9911 8.91956 19.2153 8.91956V9.91956ZM17.0051 21.2926V20.2926C17.5546 20.2926 18 20.738 18 21.2875H17H16C16 21.8426 16.45 22.2926 17.0051 22.2926V21.2926ZM17.0102 21.2973L18.0067 21.2144C17.9639 20.7 17.5344 20.2926 17.0051 20.2926V21.2926V22.2926C16.481 22.2926 16.056 21.8894 16.0136 21.3802L17.0102 21.2973ZM21.4261 21.2926V20.2926C20.897 20.2926 20.4677 20.6998 20.425 21.2141L21.4215 21.2968L22.4181 21.3796C22.3758 21.8891 21.9504 22.2926 21.4261 22.2926V21.2926ZM17 12.1349H18C18 11.4637 18.5441 10.9196 19.2153 10.9196V9.91956V8.91956C17.4396 8.91956 16 10.3591 16 12.1349H17ZM21.4261 21.2926V22.2926C21.9809 22.2926 22.4307 21.8428 22.4307 21.288H21.4307H20.4307C20.4307 20.7383 20.8763 20.2926 21.4261 20.2926V21.2926Z" fill="#372F32" mask="url(#path-5-inside-1_2220_11258)"/>
<mask id="path-7-inside-2_2220_11258" fill="white">
<path d="M46.2441 21.2874C46.2441 21.2902 46.2419 21.2925 46.2391 21.2925C46.2364 21.2925 46.2342 21.2945 46.234 21.2972C46.1338 22.5011 45.1859 23.4455 44.0293 23.4458C42.8725 23.4458 41.9238 22.5013 41.8236 21.2972C41.8234 21.2945 41.8212 21.2925 41.8186 21.2925C41.8158 21.2925 41.8135 21.2902 41.8135 21.2874V12.1348C41.8135 10.9113 42.8053 9.91943 44.0288 9.91943C45.2523 9.91943 46.2441 10.9113 46.2441 12.1348V21.2874Z"/>
</mask>
<path d="M46.2441 21.2874C46.2441 21.2902 46.2419 21.2925 46.2391 21.2925C46.2364 21.2925 46.2342 21.2945 46.234 21.2972C46.1338 22.5011 45.1859 23.4455 44.0293 23.4458C42.8725 23.4458 41.9238 22.5013 41.8236 21.2972C41.8234 21.2945 41.8212 21.2925 41.8186 21.2925C41.8158 21.2925 41.8135 21.2902 41.8135 21.2874V12.1348C41.8135 10.9113 42.8053 9.91943 44.0288 9.91943C45.2523 9.91943 46.2441 10.9113 46.2441 12.1348V21.2874Z" fill="#E65325"/>
<path d="M44.0293 23.4458V24.4458H44.0295L44.0293 23.4458ZM41.8236 21.2972L40.8271 21.3801L41.8236 21.2972ZM46.234 21.2972L45.2374 21.2142L46.234 21.2972ZM46.234 21.2972L45.2374 21.2142C45.1755 21.9585 44.6089 22.4457 44.0291 22.4458L44.0293 23.4458L44.0295 24.4458C45.7629 24.4454 47.0921 23.0438 47.2305 21.3801L46.234 21.2972ZM44.0293 23.4458V22.4458C43.4491 22.4458 42.8821 21.9583 42.8202 21.2142L41.8236 21.2972L40.8271 21.3801C40.9656 23.0443 42.2959 24.4458 44.0293 24.4458V23.4458ZM41.8135 21.2874H42.8135V12.1348H41.8135H40.8135V21.2874H41.8135ZM46.2441 12.1348H45.2441V21.2874H46.2441H47.2441V12.1348H46.2441ZM44.0288 9.91943V10.9194C44.7 10.9194 45.2441 11.4636 45.2441 12.1348H46.2441H47.2441C47.2441 10.359 45.8046 8.91943 44.0288 8.91943V9.91943ZM41.8186 21.2925V20.2925C42.368 20.2925 42.8135 20.7379 42.8135 21.2874H41.8135H40.8135C40.8135 21.8425 41.2635 22.2925 41.8186 22.2925V21.2925ZM41.8236 21.2972L42.8202 21.2142C42.7774 20.6998 42.3479 20.2925 41.8186 20.2925V21.2925V22.2925C41.2945 22.2925 40.8694 21.8892 40.8271 21.3801L41.8236 21.2972ZM46.2391 21.2925V20.2925C45.7097 20.2925 45.2802 20.6998 45.2374 21.2142L46.234 21.2972L47.2305 21.3801C47.1882 21.8892 46.7631 22.2925 46.2391 22.2925V21.2925ZM41.8135 12.1348H42.8135C42.8135 11.4636 43.3576 10.9194 44.0288 10.9194V9.91943V8.91943C42.253 8.91943 40.8135 10.359 40.8135 12.1348H41.8135ZM46.2391 21.2925V22.2925C46.7942 22.2925 47.2441 21.8424 47.2441 21.2874H46.2441H45.2441C45.2441 20.738 45.6895 20.2925 46.2391 20.2925V21.2925Z" fill="#372F32" mask="url(#path-7-inside-2_2220_11258)"/>
<mask id="path-9-inside-3_2220_11258" fill="white">
<path d="M29.7017 21.2874C29.7017 21.2902 29.6994 21.2925 29.6966 21.2925C29.6939 21.2925 29.6917 21.2945 29.6915 21.2972C29.5913 22.5013 28.6427 23.4458 27.4858 23.4458C26.329 23.4457 25.3801 22.501 25.2801 21.2967C25.2799 21.2943 25.278 21.2925 25.2756 21.2925C25.273 21.2925 25.271 21.2904 25.271 21.2879V12.1348C25.271 10.9113 26.2628 9.91943 27.4863 9.91943C28.7098 9.91943 29.7017 10.9113 29.7017 12.1348V21.2874Z"/>
</mask>
<path d="M29.7017 21.2874C29.7017 21.2902 29.6994 21.2925 29.6966 21.2925C29.6939 21.2925 29.6917 21.2945 29.6915 21.2972C29.5913 22.5013 28.6427 23.4458 27.4858 23.4458C26.329 23.4457 25.3801 22.501 25.2801 21.2967C25.2799 21.2943 25.278 21.2925 25.2756 21.2925C25.273 21.2925 25.271 21.2904 25.271 21.2879V12.1348C25.271 10.9113 26.2628 9.91943 27.4863 9.91943C28.7098 9.91943 29.7017 10.9113 29.7017 12.1348V21.2874Z" fill="#E65325"/>
<path d="M27.4858 23.4458L27.4857 24.4458H27.4858V23.4458ZM25.2801 21.2967L26.2767 21.214L25.2801 21.2967ZM29.6915 21.2972L30.6881 21.3801L29.6915 21.2972ZM29.6915 21.2972L28.695 21.2142C28.633 21.9583 28.066 22.4458 27.4858 22.4458V23.4458V24.4458C29.2193 24.4458 30.5496 23.0443 30.6881 21.3801L29.6915 21.2972ZM27.4858 23.4458L27.486 22.4458C26.9056 22.4457 26.3385 21.958 26.2767 21.214L25.2801 21.2967L24.2836 21.3794C24.4218 23.044 25.7524 24.4456 27.4857 24.4458L27.4858 23.4458ZM25.271 21.2879H26.271V12.1348H25.271H24.271V21.2879H25.271ZM29.7017 12.1348H28.7017V21.2874H29.7017H30.7017V12.1348H29.7017ZM27.4863 9.91943V10.9194C28.1575 10.9194 28.7017 11.4636 28.7017 12.1348H29.7017H30.7017C30.7017 10.359 29.2621 8.91943 27.4863 8.91943V9.91943ZM25.2756 21.2925V20.2925C25.8253 20.2925 26.271 20.7381 26.271 21.2879H25.271H24.271C24.271 21.8427 24.7208 22.2925 25.2756 22.2925V21.2925ZM25.2801 21.2967L26.2767 21.214C26.234 20.6996 25.8046 20.2925 25.2756 20.2925V21.2925V22.2925C24.7513 22.2925 24.3259 21.889 24.2836 21.3794L25.2801 21.2967ZM29.6966 21.2925V20.2925C29.1672 20.2925 28.7378 20.6998 28.695 21.2142L29.6915 21.2972L30.6881 21.3801C30.6457 21.8892 30.2206 22.2925 29.6966 22.2925V21.2925ZM25.271 12.1348H26.271C26.271 11.4636 26.8151 10.9194 27.4863 10.9194V9.91943V8.91943C25.7105 8.91943 24.271 10.359 24.271 12.1348H25.271ZM29.6966 21.2925V22.2925C30.2518 22.2925 30.7017 21.8424 30.7017 21.2874H29.7017H28.7017C28.7017 20.738 29.147 20.2925 29.6966 20.2925V21.2925Z" fill="#372F32" mask="url(#path-9-inside-3_2220_11258)"/>
<mask id="path-11-inside-4_2220_11258" fill="white">
<path d="M54.5161 21.2874C54.5161 21.2902 54.5138 21.2925 54.511 21.2925C54.5084 21.2925 54.5062 21.2945 54.506 21.2972C54.4058 22.5013 53.4571 23.4458 52.3003 23.4458C51.1435 23.4457 50.1948 22.5013 50.0946 21.2972C50.0944 21.2945 50.0922 21.2925 50.0896 21.2925C50.0867 21.2925 50.0845 21.2902 50.0845 21.2874V12.1353C50.0845 10.9115 51.0765 9.91943 52.3003 9.91943C53.5241 9.91943 54.5161 10.9115 54.5161 12.1353V21.2874Z"/>
</mask>
<path d="M54.5161 21.2874C54.5161 21.2902 54.5138 21.2925 54.511 21.2925C54.5084 21.2925 54.5062 21.2945 54.506 21.2972C54.4058 22.5013 53.4571 23.4458 52.3003 23.4458C51.1435 23.4457 50.1948 22.5013 50.0946 21.2972C50.0944 21.2945 50.0922 21.2925 50.0896 21.2925C50.0867 21.2925 50.0845 21.2902 50.0845 21.2874V12.1353C50.0845 10.9115 51.0765 9.91943 52.3003 9.91943C53.5241 9.91943 54.5161 10.9115 54.5161 12.1353V21.2874Z" fill="#E65325"/>
<path d="M52.3003 23.4458L52.3002 24.4458H52.3003V23.4458ZM50.0946 21.2972L49.0981 21.3801L50.0946 21.2972ZM54.506 21.2972L53.5094 21.2142L54.506 21.2972ZM54.506 21.2972L53.5094 21.2142C53.4475 21.9583 52.8805 22.4458 52.3003 22.4458V23.4458V24.4458C54.0337 24.4458 55.364 23.0443 55.5025 21.3801L54.506 21.2972ZM52.3003 23.4458L52.3004 22.4458C51.7201 22.4458 51.1531 21.9582 51.0912 21.2142L50.0946 21.2972L49.0981 21.3801C49.2366 23.0444 50.567 24.4457 52.3002 24.4458L52.3003 23.4458ZM50.0845 21.2874H51.0845V12.1353H50.0845H49.0845V21.2874H50.0845ZM54.5161 12.1353H53.5161V21.2874H54.5161H55.5161V12.1353H54.5161ZM52.3003 9.91943V10.9194C52.9718 10.9194 53.5161 11.4638 53.5161 12.1353H54.5161H55.5161C55.5161 10.3592 54.0763 8.91943 52.3003 8.91943V9.91943ZM50.0896 21.2925V20.2925C50.639 20.2925 51.0845 20.7379 51.0845 21.2874H50.0845H49.0845C49.0845 21.8425 49.5345 22.2925 50.0896 22.2925V21.2925ZM50.0946 21.2972L51.0912 21.2142C51.0484 20.6999 50.6189 20.2925 50.0896 20.2925V21.2925V22.2925C49.5655 22.2925 49.1404 21.8892 49.0981 21.3801L50.0946 21.2972ZM54.511 21.2925V20.2925C53.9817 20.2925 53.5522 20.6998 53.5094 21.2142L54.506 21.2972L55.5025 21.3801C55.4601 21.8892 55.0351 22.2925 54.511 22.2925V21.2925ZM50.0845 12.1353H51.0845C51.0845 11.4638 51.6288 10.9194 52.3003 10.9194V9.91943V8.91943C50.5242 8.91943 49.0845 10.3592 49.0845 12.1353H50.0845ZM54.511 21.2925V22.2925C55.0662 22.2925 55.5161 21.8424 55.5161 21.2874H54.5161H53.5161C53.5161 20.738 53.9615 20.2925 54.511 20.2925V21.2925Z" fill="#372F32" mask="url(#path-11-inside-4_2220_11258)"/>
<mask id="path-13-inside-5_2220_11258" fill="white">
<path d="M37.9736 21.2874C37.9736 21.2902 37.9714 21.2925 37.9686 21.2925C37.9659 21.2925 37.9637 21.2945 37.9635 21.2972C37.8633 22.5013 36.9146 23.4457 35.7578 23.4458C34.601 23.4458 33.6524 22.5013 33.5521 21.2972C33.5519 21.2945 33.5497 21.2925 33.5471 21.2925C33.5443 21.2925 33.542 21.2902 33.542 21.2874V12.1353C33.542 10.9115 34.534 9.91943 35.7578 9.91943C36.9816 9.91943 37.9736 10.9115 37.9736 12.1353V21.2874Z"/>
</mask>
<path d="M37.9736 21.2874C37.9736 21.2902 37.9714 21.2925 37.9686 21.2925C37.9659 21.2925 37.9637 21.2945 37.9635 21.2972C37.8633 22.5013 36.9146 23.4457 35.7578 23.4458C34.601 23.4458 33.6524 22.5013 33.5521 21.2972C33.5519 21.2945 33.5497 21.2925 33.5471 21.2925C33.5443 21.2925 33.542 21.2902 33.542 21.2874V12.1353C33.542 10.9115 34.534 9.91943 35.7578 9.91943C36.9816 9.91943 37.9736 10.9115 37.9736 12.1353V21.2874Z" fill="#E65325"/>
<path d="M35.7578 23.4458V24.4458H35.7579L35.7578 23.4458ZM33.5521 21.2972L34.5487 21.2142L33.5521 21.2972ZM37.9635 21.2972L36.9669 21.2142L37.9635 21.2972ZM37.9635 21.2972L36.9669 21.2142C36.905 21.9582 36.338 22.4458 35.7578 22.4458L35.7578 23.4458L35.7579 24.4458C37.4911 24.4457 38.8216 23.0444 38.96 21.3801L37.9635 21.2972ZM35.7578 23.4458V22.4458C35.1776 22.4458 34.6106 21.9583 34.5487 21.2142L33.5521 21.2972L32.5556 21.3801C32.6941 23.0443 34.0244 24.4458 35.7578 24.4458V23.4458ZM33.542 21.2874H34.542V12.1353H33.542H32.542V21.2874H33.542ZM37.9736 12.1353H36.9736V21.2874H37.9736H38.9736V12.1353H37.9736ZM35.7578 9.91943V10.9194C36.4293 10.9194 36.9736 11.4638 36.9736 12.1353H37.9736H38.9736C38.9736 10.3592 37.5339 8.91943 35.7578 8.91943V9.91943ZM33.5471 21.2925V20.2925C34.0966 20.2925 34.542 20.7379 34.542 21.2874H33.542H32.542C32.542 21.8425 32.992 22.2925 33.5471 22.2925V21.2925ZM33.5521 21.2972L34.5487 21.2142C34.5059 20.6998 34.0764 20.2925 33.5471 20.2925V21.2925V22.2925C33.0231 22.2925 32.598 21.8893 32.5556 21.3801L33.5521 21.2972ZM37.9686 21.2925V20.2925C37.4392 20.2925 37.0097 20.6998 36.9669 21.2142L37.9635 21.2972L38.96 21.3801C38.9177 21.8892 38.4926 22.2925 37.9686 22.2925V21.2925ZM33.542 12.1353H34.542C34.542 11.4638 35.0863 10.9194 35.7578 10.9194V9.91943V8.91943C33.9818 8.91943 32.542 10.3592 32.542 12.1353H33.542ZM37.9686 21.2925V22.2925C38.5237 22.2925 38.9736 21.8424 38.9736 21.2874H37.9736H36.9736C36.9736 20.738 37.419 20.2925 37.9686 20.2925V21.2925Z" fill="#372F32" mask="url(#path-13-inside-5_2220_11258)"/>
<mask id="path-15-inside-6_2220_11258" fill="white">
<path d="M62.7861 21.2879C62.7861 21.2904 62.7841 21.2925 62.7816 21.2925C62.7792 21.2925 62.7772 21.2943 62.777 21.2967C62.677 22.501 61.7282 23.4457 60.5713 23.4458C59.4145 23.4458 58.4658 22.5013 58.3656 21.2972C58.3654 21.2945 58.3632 21.2925 58.3605 21.2925C58.3577 21.2925 58.3555 21.2902 58.3555 21.2874V12.1348C58.3555 10.9113 59.3473 9.91943 60.5708 9.91943C61.7943 9.91943 62.7861 10.9113 62.7861 12.1348V21.2879Z"/>
</mask>
<path d="M62.7861 21.2879C62.7861 21.2904 62.7841 21.2925 62.7816 21.2925C62.7792 21.2925 62.7772 21.2943 62.777 21.2967C62.677 22.501 61.7282 23.4457 60.5713 23.4458C59.4145 23.4458 58.4658 22.5013 58.3656 21.2972C58.3654 21.2945 58.3632 21.2925 58.3605 21.2925C58.3577 21.2925 58.3555 21.2902 58.3555 21.2874V12.1348C58.3555 10.9113 59.3473 9.91943 60.5708 9.91943C61.7943 9.91943 62.7861 10.9113 62.7861 12.1348V21.2879Z" fill="#E65325"/>
<path d="M60.5713 23.4458V24.4458H60.5714L60.5713 23.4458ZM58.3656 21.2972L57.3691 21.3801L58.3656 21.2972ZM62.777 21.2967L61.7804 21.214L62.777 21.2967ZM62.777 21.2967L61.7804 21.214C61.7187 21.958 61.1516 22.4457 60.5712 22.4458L60.5713 23.4458L60.5714 24.4458C62.3048 24.4456 63.6354 23.044 63.7736 21.3794L62.777 21.2967ZM60.5713 23.4458V22.4458C59.9911 22.4458 59.4241 21.9583 59.3622 21.2142L58.3656 21.2972L57.3691 21.3801C57.5076 23.0443 58.8379 24.4458 60.5713 24.4458V23.4458ZM58.3555 21.2874H59.3555V12.1348H58.3555H57.3555V21.2874H58.3555ZM62.7861 12.1348H61.7861V21.2879H62.7861H63.7861V12.1348H62.7861ZM60.5708 9.91943V10.9194C61.242 10.9194 61.7861 11.4636 61.7861 12.1348H62.7861H63.7861C63.7861 10.359 62.3466 8.91943 60.5708 8.91943V9.91943ZM58.3605 21.2925V20.2925C58.91 20.2925 59.3555 20.7379 59.3555 21.2874H58.3555H57.3555C57.3555 21.8425 57.8055 22.2925 58.3605 22.2925V21.2925ZM58.3656 21.2972L59.3622 21.2142C59.3194 20.6998 58.8899 20.2925 58.3605 20.2925V21.2925V22.2925C57.8365 22.2925 57.4114 21.8892 57.3691 21.3801L58.3656 21.2972ZM62.7816 21.2925V20.2925C62.2525 20.2925 61.8231 20.6996 61.7804 21.214L62.777 21.2967L63.7736 21.3794C63.7313 21.889 63.3059 22.2925 62.7816 22.2925V21.2925ZM58.3555 12.1348H59.3555C59.3555 11.4636 59.8996 10.9194 60.5708 10.9194V9.91943V8.91943C58.795 8.91943 57.3555 10.359 57.3555 12.1348H58.3555ZM62.7816 21.2925V22.2925C63.3364 22.2925 63.7861 21.8427 63.7861 21.2879H62.7861H61.7861C61.7861 20.7382 62.2318 20.2925 62.7816 20.2925V21.2925Z" fill="#372F32" mask="url(#path-15-inside-6_2220_11258)"/>
<mask id="path-17-inside-7_2220_11258" fill="white">
<path d="M71.0591 21.2874C71.0591 21.2902 71.0568 21.2925 71.054 21.2925C71.0514 21.2925 71.0491 21.2945 71.0489 21.2972C70.9487 22.5013 70.0001 23.4458 68.8433 23.4458C67.6865 23.4458 66.7378 22.5013 66.6376 21.2972C66.6374 21.2945 66.6352 21.2925 66.6325 21.2925C66.6297 21.2925 66.6274 21.2902 66.6274 21.2874V12.1353C66.6274 10.9115 67.6195 9.91943 68.8433 9.91943C70.067 9.91943 71.0591 10.9115 71.0591 12.1353V21.2874Z"/>
</mask>
<path d="M71.0591 21.2874C71.0591 21.2902 71.0568 21.2925 71.054 21.2925C71.0514 21.2925 71.0491 21.2945 71.0489 21.2972C70.9487 22.5013 70.0001 23.4458 68.8433 23.4458C67.6865 23.4458 66.7378 22.5013 66.6376 21.2972C66.6374 21.2945 66.6352 21.2925 66.6325 21.2925C66.6297 21.2925 66.6274 21.2902 66.6274 21.2874V12.1353C66.6274 10.9115 67.6195 9.91943 68.8433 9.91943C70.067 9.91943 71.0591 10.9115 71.0591 12.1353V21.2874Z" fill="#E65325"/>
<path d="M68.8433 23.4458L68.8432 24.4458H68.8433V23.4458ZM66.6376 21.2972L65.641 21.3801L66.6376 21.2972ZM71.0489 21.2972L72.0455 21.3801L71.0489 21.2972ZM71.0489 21.2972L70.0524 21.2142C69.9905 21.9583 69.4235 22.4458 68.8433 22.4458V23.4458V24.4458C70.5767 24.4458 71.907 23.0443 72.0455 21.3801L71.0489 21.2972ZM68.8433 23.4458L68.8433 22.4458C68.263 22.4458 67.6961 21.9582 67.6341 21.2142L66.6376 21.2972L65.641 21.3801C65.7795 23.0444 67.1099 24.4457 68.8432 24.4458L68.8433 23.4458ZM66.6274 21.2874H67.6274V12.1353H66.6274H65.6274V21.2874H66.6274ZM71.0591 12.1353H70.0591V21.2874H71.0591H72.0591V12.1353H71.0591ZM68.8433 9.91943V10.9194C69.5147 10.9194 70.0591 11.4638 70.0591 12.1353H71.0591H72.0591C72.0591 10.3592 70.6193 8.91943 68.8433 8.91943V9.91943ZM66.6325 21.2925V20.2925C67.182 20.2925 67.6274 20.7379 67.6274 21.2874H66.6274H65.6274C65.6274 21.8425 66.0774 22.2925 66.6325 22.2925V21.2925ZM66.6376 21.2972L67.6341 21.2142C67.5913 20.6998 67.1619 20.2925 66.6325 20.2925V21.2925V22.2925C66.1085 22.2925 65.6834 21.8892 65.641 21.3801L66.6376 21.2972ZM71.054 21.2925V20.2925C70.5247 20.2925 70.0952 20.6998 70.0524 21.2142L71.0489 21.2972L72.0455 21.3801C72.0031 21.8892 71.5781 22.2925 71.054 22.2925V21.2925ZM66.6274 12.1353H67.6274C67.6274 11.4638 68.1718 10.9194 68.8433 10.9194V9.91943V8.91943C67.0672 8.91943 65.6274 10.3592 65.6274 12.1353H66.6274ZM71.054 21.2925V22.2925C71.6092 22.2925 72.0591 21.8424 72.0591 21.2874H71.0591H70.0591C70.0591 20.738 70.5044 20.2925 71.054 20.2925V21.2925Z" fill="#372F32" mask="url(#path-17-inside-7_2220_11258)"/>
<mask id="path-19-inside-8_2220_11258" fill="white">
<path d="M25.5659 21.2874C25.5659 21.2902 25.5636 21.2925 25.5608 21.2925C25.5582 21.2925 25.556 21.2945 25.5558 21.2972C25.4555 22.5013 24.5069 23.4458 23.3501 23.4458C22.1933 23.4456 21.2444 22.5009 21.1444 21.2967C21.1442 21.2943 21.1422 21.2925 21.1398 21.2925C21.1373 21.2925 21.1353 21.2904 21.1353 21.2879V12.1348C21.1353 10.9113 22.1271 9.91943 23.3506 9.91943C24.5741 9.91943 25.5659 10.9113 25.5659 12.1348V21.2874Z"/>
</mask>
<path d="M25.5659 21.2874C25.5659 21.2902 25.5636 21.2925 25.5608 21.2925C25.5582 21.2925 25.556 21.2945 25.5558 21.2972C25.4555 22.5013 24.5069 23.4458 23.3501 23.4458C22.1933 23.4456 21.2444 22.5009 21.1444 21.2967C21.1442 21.2943 21.1422 21.2925 21.1398 21.2925C21.1373 21.2925 21.1353 21.2904 21.1353 21.2879V12.1348C21.1353 10.9113 22.1271 9.91943 23.3506 9.91943C24.5741 9.91943 25.5659 10.9113 25.5659 12.1348V21.2874Z" fill="#FEFDF5"/>
<path d="M23.3501 23.4458L23.3499 24.4458H23.3501V23.4458ZM21.1444 21.2967L20.1478 21.3794L21.1444 21.2967ZM25.5558 21.2972L26.5523 21.3801L25.5558 21.2972ZM25.5558 21.2972L24.5592 21.2142C24.4973 21.9583 23.9303 22.4458 23.3501 22.4458V23.4458V24.4458C25.0835 24.4458 26.4138 23.0443 26.5523 21.3801L25.5558 21.2972ZM23.3501 23.4458L23.3503 22.4458C22.7698 22.4457 22.2027 21.9578 22.141 21.214L21.1444 21.2967L20.1478 21.3794C20.286 23.0441 21.6168 24.4455 23.3499 24.4458L23.3501 23.4458ZM21.1353 21.2879H22.1353V12.1348H21.1353H20.1353V21.2879H21.1353ZM25.5659 12.1348H24.5659V21.2874H25.5659H26.5659V12.1348H25.5659ZM23.3506 9.91943V10.9194C24.0218 10.9194 24.5659 11.4636 24.5659 12.1348H25.5659H26.5659C26.5659 10.359 25.1264 8.91943 23.3506 8.91943V9.91943ZM21.1398 21.2925V20.2925C21.6896 20.2925 22.1353 20.7381 22.1353 21.2879H21.1353H20.1353C20.1353 21.8427 20.585 22.2925 21.1398 22.2925V21.2925ZM21.1444 21.2967L22.141 21.214C22.0983 20.6996 21.6689 20.2925 21.1398 20.2925V21.2925V22.2925C20.6155 22.2925 20.1901 21.889 20.1478 21.3794L21.1444 21.2967ZM25.5608 21.2925V20.2925C25.0315 20.2925 24.602 20.6998 24.5592 21.2142L25.5558 21.2972L26.5523 21.3801C26.5099 21.8892 26.0849 22.2925 25.5608 22.2925V21.2925ZM21.1353 12.1348H22.1353C22.1353 11.4636 22.6794 10.9194 23.3506 10.9194V9.91943V8.91943C21.5748 8.91943 20.1353 10.359 20.1353 12.1348H21.1353ZM25.5608 21.2925V22.2925C26.116 22.2925 26.5659 21.8424 26.5659 21.2874H25.5659H24.5659C24.5659 20.738 25.0113 20.2925 25.5608 20.2925V21.2925Z" fill="#372F32" mask="url(#path-19-inside-8_2220_11258)"/>
<mask id="path-21-inside-9_2220_11258" fill="white">
<path d="M50.3794 21.2874C50.3794 21.2902 50.3771 21.2925 50.3743 21.2925C50.3717 21.2925 50.3695 21.2945 50.3692 21.2972C50.269 22.5013 49.3204 23.4458 48.1636 23.4458C47.0067 23.4456 46.0578 22.501 45.9579 21.2967C45.9577 21.2943 45.9557 21.2925 45.9533 21.2925C45.9508 21.2925 45.9487 21.2904 45.9487 21.2879V12.1348C45.9487 10.9113 46.9406 9.91943 48.1641 9.91943C49.3876 9.91943 50.3794 10.9113 50.3794 12.1348V21.2874Z"/>
</mask>
<path d="M50.3794 21.2874C50.3794 21.2902 50.3771 21.2925 50.3743 21.2925C50.3717 21.2925 50.3695 21.2945 50.3692 21.2972C50.269 22.5013 49.3204 23.4458 48.1636 23.4458C47.0067 23.4456 46.0578 22.501 45.9579 21.2967C45.9577 21.2943 45.9557 21.2925 45.9533 21.2925C45.9508 21.2925 45.9487 21.2904 45.9487 21.2879V12.1348C45.9487 10.9113 46.9406 9.91943 48.1641 9.91943C49.3876 9.91943 50.3794 10.9113 50.3794 12.1348V21.2874Z" fill="#FEFDF5"/>
<path d="M48.1636 23.4458L48.1634 24.4458H48.1636V23.4458ZM45.9579 21.2967L44.9613 21.3794L45.9579 21.2967ZM50.3692 21.2972L49.3727 21.2142L50.3692 21.2972ZM50.3692 21.2972L49.3727 21.2142C49.3108 21.9583 48.7438 22.4458 48.1636 22.4458V23.4458V24.4458C49.897 24.4458 51.2273 23.0443 51.3658 21.3801L50.3692 21.2972ZM48.1636 23.4458L48.1637 22.4458C47.5833 22.4457 47.0162 21.9579 46.9544 21.214L45.9579 21.2967L44.9613 21.3794C45.0995 23.044 46.4302 24.4455 48.1634 24.4458L48.1636 23.4458ZM45.9487 21.2879H46.9487V12.1348H45.9487H44.9487V21.2879H45.9487ZM50.3794 12.1348H49.3794V21.2874H50.3794H51.3794V12.1348H50.3794ZM48.1641 9.91943V10.9194C48.8353 10.9194 49.3794 11.4636 49.3794 12.1348H50.3794H51.3794C51.3794 10.359 49.9398 8.91943 48.1641 8.91943V9.91943ZM45.9533 21.2925V20.2925C46.5031 20.2925 46.9487 20.7381 46.9487 21.2879H45.9487H44.9487C44.9487 21.8427 45.3985 22.2925 45.9533 22.2925V21.2925ZM45.9579 21.2967L46.9544 21.214C46.9117 20.6997 46.4824 20.2925 45.9533 20.2925V21.2925V22.2925C45.429 22.2925 45.0036 21.889 44.9613 21.3794L45.9579 21.2967ZM50.3743 21.2925V20.2925C49.845 20.2925 49.4155 20.6998 49.3727 21.2142L50.3692 21.2972L51.3658 21.3801C51.3234 21.8892 50.8984 22.2925 50.3743 22.2925V21.2925ZM45.9487 12.1348H46.9487C46.9487 11.4636 47.4929 10.9194 48.1641 10.9194V9.91943V8.91943C46.3883 8.91943 44.9487 10.359 44.9487 12.1348H45.9487ZM50.3743 21.2925V22.2925C50.9295 22.2925 51.3794 21.8424 51.3794 21.2874H50.3794H49.3794C49.3794 20.738 49.8247 20.2925 50.3743 20.2925V21.2925Z" fill="#372F32" mask="url(#path-21-inside-9_2220_11258)"/>
<mask id="path-23-inside-10_2220_11258" fill="white">
<path d="M33.8384 21.2874C33.8384 21.2902 33.8361 21.2925 33.8333 21.2925C33.8307 21.2925 33.8284 21.2945 33.8282 21.2972C33.728 22.5013 32.7794 23.4458 31.6226 23.4458C30.4658 23.4458 29.5171 22.5013 29.4169 21.2972C29.4167 21.2945 29.4145 21.2925 29.4118 21.2925C29.409 21.2925 29.4067 21.2902 29.4067 21.2874V12.1353C29.4067 10.9115 30.3988 9.91943 31.6226 9.91943C32.8463 9.91943 33.8384 10.9115 33.8384 12.1353V21.2874Z"/>
</mask>
<path d="M33.8384 21.2874C33.8384 21.2902 33.8361 21.2925 33.8333 21.2925C33.8307 21.2925 33.8284 21.2945 33.8282 21.2972C33.728 22.5013 32.7794 23.4458 31.6226 23.4458C30.4658 23.4458 29.5171 22.5013 29.4169 21.2972C29.4167 21.2945 29.4145 21.2925 29.4118 21.2925C29.409 21.2925 29.4067 21.2902 29.4067 21.2874V12.1353C29.4067 10.9115 30.3988 9.91943 31.6226 9.91943C32.8463 9.91943 33.8384 10.9115 33.8384 12.1353V21.2874Z" fill="#FEFDF5"/>
<path d="M31.6226 23.4458L31.6225 24.4458H31.6226V23.4458ZM29.4169 21.2972L30.4134 21.2142L29.4169 21.2972ZM33.8282 21.2972L34.8248 21.3801L33.8282 21.2972ZM33.8282 21.2972L32.8317 21.2142C32.7698 21.9583 32.2028 22.4458 31.6226 22.4458V23.4458V24.4458C33.356 24.4458 34.6863 23.0443 34.8248 21.3801L33.8282 21.2972ZM31.6226 23.4458L31.6226 22.4458C31.0423 22.4458 30.4754 21.9583 30.4134 21.2142L29.4169 21.2972L28.4203 21.3801C28.5588 23.0444 29.8892 24.4458 31.6225 24.4458L31.6226 23.4458ZM29.4067 21.2874H30.4067V12.1353H29.4067H28.4067V21.2874H29.4067ZM33.8384 12.1353H32.8384V21.2874H33.8384H34.8384V12.1353H33.8384ZM31.6226 9.91943V10.9194C32.294 10.9194 32.8384 11.4638 32.8384 12.1353H33.8384H34.8384C34.8384 10.3592 33.3986 8.91943 31.6226 8.91943V9.91943ZM29.4118 21.2925V20.2925C29.9613 20.2925 30.4067 20.7379 30.4067 21.2874H29.4067H28.4067C28.4067 21.8425 28.8567 22.2925 29.4118 22.2925V21.2925ZM29.4169 21.2972L30.4134 21.2142C30.3706 20.6998 29.9412 20.2925 29.4118 20.2925V21.2925V22.2925C28.8878 22.2925 28.4627 21.8892 28.4203 21.3801L29.4169 21.2972ZM33.8333 21.2925V20.2925C33.3039 20.2925 32.8745 20.6998 32.8317 21.2142L33.8282 21.2972L34.8248 21.3801C34.7824 21.8892 34.3574 22.2925 33.8333 22.2925V21.2925ZM29.4067 12.1353H30.4067C30.4067 11.4638 30.9511 10.9194 31.6226 10.9194V9.91943V8.91943C29.8465 8.91943 28.4067 10.3592 28.4067 12.1353H29.4067ZM33.8333 21.2925V22.2925C34.3885 22.2925 34.8384 21.8424 34.8384 21.2874H33.8384H32.8384C32.8384 20.738 33.2837 20.2925 33.8333 20.2925V21.2925Z" fill="#372F32" mask="url(#path-23-inside-10_2220_11258)"/>
<mask id="path-25-inside-11_2220_11258" fill="white">
<path d="M58.6519 21.2874C58.6519 21.2902 58.6496 21.2925 58.6468 21.2925C58.6441 21.2925 58.6419 21.2945 58.6417 21.2972C58.5415 22.5013 57.5928 23.4458 56.436 23.4458C55.2792 23.4458 54.3306 22.5013 54.2304 21.2972C54.2301 21.2945 54.2279 21.2925 54.2253 21.2925C54.2225 21.2925 54.2202 21.2902 54.2202 21.2874V12.1353C54.2202 10.9115 55.2123 9.91943 56.436 9.91943C57.6598 9.91943 58.6519 10.9115 58.6519 12.1353V21.2874Z"/>
</mask>
<path d="M58.6519 21.2874C58.6519 21.2902 58.6496 21.2925 58.6468 21.2925C58.6441 21.2925 58.6419 21.2945 58.6417 21.2972C58.5415 22.5013 57.5928 23.4458 56.436 23.4458C55.2792 23.4458 54.3306 22.5013 54.2304 21.2972C54.2301 21.2945 54.2279 21.2925 54.2253 21.2925C54.2225 21.2925 54.2202 21.2902 54.2202 21.2874V12.1353C54.2202 10.9115 55.2123 9.91943 56.436 9.91943C57.6598 9.91943 58.6519 10.9115 58.6519 12.1353V21.2874Z" fill="#FEFDF5"/>
<path d="M56.436 23.4458V24.4458H56.4361L56.436 23.4458ZM54.2304 21.2972L55.2269 21.2142L54.2304 21.2972ZM58.6417 21.2972L57.6451 21.2142L58.6417 21.2972ZM58.6417 21.2972L57.6451 21.2142C57.5832 21.9583 57.0163 22.4458 56.436 22.4458L56.436 23.4458L56.4361 24.4458C58.1694 24.4458 59.4998 23.0444 59.6383 21.3801L58.6417 21.2972ZM56.436 23.4458V22.4458C55.8558 22.4458 55.2888 21.9583 55.2269 21.2142L54.2304 21.2972L53.2338 21.3801C53.3723 23.0443 54.7026 24.4458 56.436 24.4458V23.4458ZM54.2202 21.2874H55.2202V12.1353H54.2202H53.2202V21.2874H54.2202ZM58.6519 12.1353H57.6519V21.2874H58.6519H59.6519V12.1353H58.6519ZM56.436 9.91943V10.9194C57.1075 10.9194 57.6519 11.4638 57.6519 12.1353H58.6519H59.6519C59.6519 10.3592 58.2121 8.91943 56.436 8.91943V9.91943ZM54.2253 21.2925V20.2925C54.7748 20.2925 55.2202 20.7379 55.2202 21.2874H54.2202H53.2202C53.2202 21.8425 53.6702 22.2925 54.2253 22.2925V21.2925ZM54.2304 21.2972L55.2269 21.2142C55.1841 20.6998 54.7546 20.2925 54.2253 20.2925V21.2925V22.2925C53.7013 22.2925 53.2762 21.8893 53.2338 21.3801L54.2304 21.2972ZM58.6468 21.2925V20.2925C58.1174 20.2925 57.688 20.6998 57.6451 21.2142L58.6417 21.2972L59.6383 21.3801C59.5959 21.8892 59.1708 22.2925 58.6468 22.2925V21.2925ZM54.2202 12.1353H55.2202C55.2202 11.4638 55.7646 10.9194 56.436 10.9194V9.91943V8.91943C54.66 8.91943 53.2202 10.3592 53.2202 12.1353H54.2202ZM58.6468 21.2925V22.2925C59.202 22.2925 59.6519 21.8424 59.6519 21.2874H58.6519H57.6519C57.6519 20.738 58.0972 20.2925 58.6468 20.2925V21.2925Z" fill="#372F32" mask="url(#path-25-inside-11_2220_11258)"/>
<mask id="path-27-inside-12_2220_11258" fill="white">
<path d="M42.1084 21.2879C42.1084 21.2904 42.1064 21.2925 42.1038 21.2925C42.1014 21.2925 42.0995 21.2943 42.0993 21.2967C41.9993 22.501 41.0504 23.4456 39.8936 23.4458C38.7367 23.4458 37.7881 22.5013 37.6879 21.2972C37.6877 21.2945 37.6855 21.2925 37.6828 21.2925C37.68 21.2925 37.6777 21.2902 37.6777 21.2874V12.1348C37.6777 10.9113 38.6696 9.91943 39.8931 9.91943C41.1166 9.91943 42.1084 10.9113 42.1084 12.1348V21.2879Z"/>
</mask>
<path d="M42.1084 21.2879C42.1084 21.2904 42.1064 21.2925 42.1038 21.2925C42.1014 21.2925 42.0995 21.2943 42.0993 21.2967C41.9993 22.501 41.0504 23.4456 39.8936 23.4458C38.7367 23.4458 37.7881 22.5013 37.6879 21.2972C37.6877 21.2945 37.6855 21.2925 37.6828 21.2925C37.68 21.2925 37.6777 21.2902 37.6777 21.2874V12.1348C37.6777 10.9113 38.6696 9.91943 39.8931 9.91943C41.1166 9.91943 42.1084 10.9113 42.1084 12.1348V21.2879Z" fill="#FEFDF5"/>
<path d="M39.8936 23.4458V24.4458H39.8937L39.8936 23.4458ZM37.6879 21.2972L38.6844 21.2142L37.6879 21.2972ZM42.0993 21.2967L43.0958 21.3794L42.0993 21.2967ZM42.0993 21.2967L41.1027 21.214C41.0409 21.9579 40.4738 22.4457 39.8934 22.4458L39.8936 23.4458L39.8937 24.4458C41.627 24.4456 42.9576 23.044 43.0958 21.3794L42.0993 21.2967ZM39.8936 23.4458V22.4458C39.3133 22.4458 38.7464 21.9583 38.6844 21.2142L37.6879 21.2972L36.6913 21.3801C36.8298 23.0443 38.1601 24.4458 39.8936 24.4458V23.4458ZM37.6777 21.2874H38.6777V12.1348H37.6777H36.6777V21.2874H37.6777ZM42.1084 12.1348H41.1084V21.2879H42.1084H43.1084V12.1348H42.1084ZM39.8931 9.91943V10.9194C40.5643 10.9194 41.1084 11.4636 41.1084 12.1348H42.1084H43.1084C43.1084 10.359 41.6688 8.91943 39.8931 8.91943V9.91943ZM37.6828 21.2925V20.2925C38.2323 20.2925 38.6777 20.7379 38.6777 21.2874H37.6777H36.6777C36.6777 21.8425 37.1277 22.2925 37.6828 22.2925V21.2925ZM37.6879 21.2972L38.6844 21.2142C38.6416 20.6998 38.2122 20.2925 37.6828 20.2925V21.2925V22.2925C37.1588 22.2925 36.7337 21.8892 36.6913 21.3801L37.6879 21.2972ZM42.1038 21.2925V20.2925C41.5748 20.2925 41.1454 20.6996 41.1027 21.214L42.0993 21.2967L43.0958 21.3794C43.0535 21.889 42.6281 22.2925 42.1038 22.2925V21.2925ZM37.6777 12.1348H38.6777C38.6777 11.4636 39.2219 10.9194 39.8931 10.9194V9.91943V8.91943C38.1173 8.91943 36.6777 10.359 36.6777 12.1348H37.6777ZM42.1038 21.2925V22.2925C42.6587 22.2925 43.1084 21.8427 43.1084 21.2879H42.1084H41.1084C41.1084 20.7382 41.554 20.2925 42.1038 20.2925V21.2925Z" fill="#372F32" mask="url(#path-27-inside-12_2220_11258)"/>
<mask id="path-29-inside-13_2220_11258" fill="white">
<path d="M66.9219 21.2879C66.9219 21.2904 66.9198 21.2925 66.9173 21.2925C66.9149 21.2925 66.9129 21.2943 66.9127 21.2967C66.8128 22.501 65.8638 23.4456 64.707 23.4458C63.5502 23.4458 62.6016 22.5013 62.5014 21.2972C62.5011 21.2945 62.4989 21.2925 62.4963 21.2925C62.4935 21.2925 62.4912 21.2902 62.4912 21.2874V12.1348C62.4912 10.9113 63.483 9.91943 64.7065 9.91943C65.93 9.91943 66.9219 10.9113 66.9219 12.1348V21.2879Z"/>
</mask>
<path d="M66.9219 21.2879C66.9219 21.2904 66.9198 21.2925 66.9173 21.2925C66.9149 21.2925 66.9129 21.2943 66.9127 21.2967C66.8128 22.501 65.8638 23.4456 64.707 23.4458C63.5502 23.4458 62.6016 22.5013 62.5014 21.2972C62.5011 21.2945 62.4989 21.2925 62.4963 21.2925C62.4935 21.2925 62.4912 21.2902 62.4912 21.2874V12.1348C62.4912 10.9113 63.483 9.91943 64.7065 9.91943C65.93 9.91943 66.9219 10.9113 66.9219 12.1348V21.2879Z" fill="#FEFDF5"/>
<path d="M64.707 23.4458V24.4458H64.7072L64.707 23.4458ZM62.5014 21.2972L61.5048 21.3801L62.5014 21.2972ZM66.9127 21.2967L65.9162 21.214L66.9127 21.2967ZM66.9127 21.2967L65.9162 21.214C65.8544 21.9578 65.2873 22.4457 64.7068 22.4458L64.707 23.4458L64.7072 24.4458C66.4404 24.4455 67.7711 23.0441 67.9093 21.3794L66.9127 21.2967ZM64.707 23.4458V22.4458C64.1268 22.4458 63.5598 21.9583 63.4979 21.2142L62.5014 21.2972L61.5048 21.3801C61.6433 23.0443 62.9736 24.4458 64.707 24.4458V23.4458ZM62.4912 21.2874H63.4912V12.1348H62.4912H61.4912V21.2874H62.4912ZM66.9219 12.1348H65.9219V21.2879H66.9219H67.9219V12.1348H66.9219ZM64.7065 9.91943V10.9194C65.3778 10.9194 65.9219 11.4636 65.9219 12.1348H66.9219H67.9219C67.9219 10.359 66.4823 8.91943 64.7065 8.91943V9.91943ZM62.4963 21.2925V20.2925C63.0458 20.2925 63.4912 20.7379 63.4912 21.2874H62.4912H61.4912C61.4912 21.8425 61.9412 22.2925 62.4963 22.2925V21.2925ZM62.5014 21.2972L63.4979 21.2142C63.4551 20.6998 63.0256 20.2925 62.4963 20.2925V21.2925V22.2925C61.9722 22.2925 61.5472 21.8892 61.5048 21.3801L62.5014 21.2972ZM66.9173 21.2925V20.2925C66.3882 20.2925 65.9589 20.6997 65.9162 21.214L66.9127 21.2967L67.9093 21.3794C67.867 21.889 67.4416 22.2925 66.9173 22.2925V21.2925ZM62.4912 12.1348H63.4912C63.4912 11.4636 64.0353 10.9194 64.7065 10.9194V9.91943V8.91943C62.9308 8.91943 61.4912 10.359 61.4912 12.1348H62.4912ZM66.9173 21.2925V22.2925C67.4721 22.2925 67.9219 21.8427 67.9219 21.2879H66.9219H65.9219C65.9219 20.7382 66.3675 20.2925 66.9173 20.2925V21.2925Z" fill="#372F32" mask="url(#path-29-inside-13_2220_11258)"/>
<mask id="path-31-inside-14_2220_11258" fill="white">
<path d="M75.1929 21.2874C75.1929 21.2902 75.1906 21.2925 75.1878 21.2925C75.1851 21.2925 75.1829 21.2945 75.1827 21.2972C75.0825 22.5013 74.1339 23.4458 72.9771 23.4458C71.8202 23.4457 70.8713 22.501 70.7713 21.2967C70.7711 21.2943 70.7692 21.2925 70.7668 21.2925C70.7643 21.2925 70.7622 21.2904 70.7622 21.2879V12.1348C70.7622 10.9113 71.754 9.91943 72.9775 9.91943C74.201 9.91943 75.1929 10.9113 75.1929 12.1348V21.2874Z"/>
</mask>
<path d="M75.1929 21.2874C75.1929 21.2902 75.1906 21.2925 75.1878 21.2925C75.1851 21.2925 75.1829 21.2945 75.1827 21.2972C75.0825 22.5013 74.1339 23.4458 72.9771 23.4458C71.8202 23.4457 70.8713 22.501 70.7713 21.2967C70.7711 21.2943 70.7692 21.2925 70.7668 21.2925C70.7643 21.2925 70.7622 21.2904 70.7622 21.2879V12.1348C70.7622 10.9113 71.754 9.91943 72.9775 9.91943C74.201 9.91943 75.1929 10.9113 75.1929 12.1348V21.2874Z" fill="#FEFDF5"/>
<path d="M72.9771 23.4458L72.9769 24.4458H72.9771V23.4458ZM70.7713 21.2967L71.7679 21.214L70.7713 21.2967ZM75.1827 21.2972L74.1862 21.2142L75.1827 21.2972ZM75.1827 21.2972L74.1862 21.2142C74.1242 21.9583 73.5573 22.4458 72.9771 22.4458V23.4458V24.4458C74.7105 24.4458 76.0408 23.0443 76.1793 21.3801L75.1827 21.2972ZM72.9771 23.4458L72.9772 22.4458C72.3968 22.4457 71.8297 21.958 71.7679 21.214L70.7713 21.2967L69.7748 21.3794C69.913 23.044 71.2436 24.4456 72.9769 24.4458L72.9771 23.4458ZM70.7622 21.2879H71.7622V12.1348H70.7622H69.7622V21.2879H70.7622ZM75.1929 12.1348H74.1929V21.2874H75.1929H76.1929V12.1348H75.1929ZM72.9775 9.91943V10.9194C73.6487 10.9194 74.1929 11.4636 74.1929 12.1348H75.1929H76.1929C76.1929 10.359 74.7533 8.91943 72.9775 8.91943V9.91943ZM70.7668 21.2925V20.2925C71.3165 20.2925 71.7622 20.7381 71.7622 21.2879H70.7622H69.7622C69.7622 21.8427 70.212 22.2925 70.7668 22.2925V21.2925ZM70.7713 21.2967L71.7679 21.214C71.7252 20.6996 71.2958 20.2925 70.7668 20.2925V21.2925V22.2925C70.2425 22.2925 69.8171 21.889 69.7748 21.3794L70.7713 21.2967ZM75.1878 21.2925V20.2925C74.6584 20.2925 74.229 20.6998 74.1862 21.2142L75.1827 21.2972L76.1793 21.3801C76.1369 21.8892 75.7118 22.2925 75.1878 22.2925V21.2925ZM70.7622 12.1348H71.7622C71.7622 11.4636 72.3063 10.9194 72.9775 10.9194V9.91943V8.91943C71.2018 8.91943 69.7622 10.359 69.7622 12.1348H70.7622ZM75.1878 21.2925V22.2925C75.743 22.2925 76.1929 21.8424 76.1929 21.2874H75.1929H74.1929C74.1929 20.738 74.6382 20.2925 75.1878 20.2925V21.2925Z" fill="#372F32" mask="url(#path-31-inside-14_2220_11258)"/>
</g>
<g filter="url(#filter2_n_2220_11258)">
<rect x="17" y="6.79437" width="58.194" height="6.49882" rx="3.24941" fill="#6ABF73"/>
<rect x="17.5" y="7.29437" width="57.194" height="5.49882" rx="2.74941" stroke="#372F32"/>
</g>
<g filter="url(#filter3_n_2220_11258)">
<ellipse cx="45.9487" cy="5.61262" rx="15.6562" ry="5.61262" fill="#E65325"/>
<path d="M45.9487 0.5C50.2301 0.500001 54.0849 1.12261 56.8511 2.11426C58.2362 2.61083 59.3215 3.19104 60.0513 3.80957C60.7831 4.42985 61.1049 5.04095 61.105 5.6123C61.105 6.18377 60.7833 6.7956 60.0513 7.41602C59.3215 8.03449 58.236 8.61382 56.8511 9.11035C54.0849 10.102 50.2301 10.7256 45.9487 10.7256C41.6673 10.7256 37.8126 10.102 35.0464 9.11035C33.6615 8.61382 32.5759 8.03448 31.8462 7.41602C31.1142 6.7956 30.7925 6.18377 30.7925 5.6123C30.7926 5.04094 31.1144 4.42986 31.8462 3.80957C32.576 3.19103 33.6613 2.61083 35.0464 2.11426C37.8126 1.12261 41.6673 0.5 45.9487 0.5Z" stroke="#372F32"/>
</g>
<g filter="url(#filter4_n_2220_11258)">
<path d="M39.74 32.4633H52.4224C53.5269 32.4633 54.4224 33.3587 54.4224 34.4633V54.8105C54.4224 55.9151 53.5269 56.8105 52.4224 56.8105H39.74C38.6354 56.8105 37.74 55.9151 37.74 54.8105V34.4633C37.74 33.3587 38.6354 32.4633 39.74 32.4633Z" fill="#E87E8C" stroke="#372F32" stroke-miterlimit="10"/>
<path d="M46.0814 43.2844C43.7158 43.2844 41.7981 41.4676 41.7981 39.2265C41.7981 36.9854 43.7158 35.1686 46.0814 35.1686C48.447 35.1686 50.3647 36.9854 50.3647 39.2265C50.3647 41.4676 48.447 43.2844 46.0814 43.2844Z" fill="#80CBE8" stroke="#372F32" stroke-miterlimit="10"/>
<path d="M45.8555 35.1686V43.2844" stroke="#372F32" stroke-miterlimit="10"/>
<path d="M41.7981 39.2265H50.3647" stroke="#372F32" stroke-miterlimit="10"/>
<path d="M41.572 46.8911C40.9495 46.8911 40.4448 46.3864 40.4448 45.7639C40.4448 45.1414 40.9495 44.6367 41.572 44.6367C42.1946 44.6367 42.6992 45.1414 42.6992 45.7639C42.6992 46.3864 42.1946 46.8911 41.572 46.8911Z" fill="#FBE200" stroke="#372F32" stroke-miterlimit="10"/>
</g>
<g filter="url(#filter5_n_2220_11258)">
<mask id="path-42-inside-15_2220_11258" fill="white">
<path d="M75.4993 27.7968C75.4393 27.8228 75.3817 27.8571 75.3311 27.9043C75.0933 28.1262 75.0796 28.4993 75.3015 28.7372C75.5235 28.975 75.8967 28.9873 76.1345 28.7654C76.1851 28.7182 76.2233 28.6632 76.2534 28.6051L76.839 29.2328C76.7788 29.2588 76.7208 29.2936 76.6701 29.3409C76.4325 29.5629 76.4194 29.9354 76.6412 30.1732C76.8631 30.4108 77.2357 30.4237 77.4735 30.2021C77.5242 30.1548 77.5629 30.0993 77.5931 30.0411L78.178 30.6681C78.1176 30.6941 78.0599 30.7288 78.0091 30.7762C77.7712 30.9981 77.7583 31.3706 77.9802 31.6085C78.2021 31.8463 78.5747 31.8592 78.8125 31.6374C78.8633 31.59 78.9019 31.5347 78.9321 31.4764L79.3837 31.9605C79.3237 31.9865 79.2655 32.0201 79.2149 32.0673C78.977 32.2892 78.9641 32.6631 79.186 32.901C79.4079 33.1385 79.7812 33.151 80.019 32.9292C80.0695 32.8819 80.1071 32.8263 80.1372 32.7681L80.7227 33.3958C80.6628 33.4218 80.6057 33.4569 80.5552 33.504C80.3174 33.7259 80.3044 34.0984 80.5264 34.3363C80.7483 34.574 81.1208 34.587 81.3586 34.3652C81.4091 34.3181 81.4481 34.2635 81.4782 34.2056L82.0624 34.8318C82.0024 34.8578 81.9448 34.8921 81.8942 34.9393C81.6564 35.1612 81.6434 35.5337 81.8653 35.7716C82.0873 36.0092 82.4598 36.0223 82.6976 35.8004C82.7482 35.7533 82.7864 35.6982 82.8165 35.6401L83.4021 36.2678C83.342 36.2938 83.2839 36.3274 83.2332 36.3746C82.9954 36.5965 82.9831 36.9697 83.205 37.2076C83.427 37.4451 83.7995 37.4582 84.0373 37.2364C84.0879 37.1892 84.1254 37.1335 84.1555 37.0754L84.6072 37.5595C84.5472 37.5856 84.4896 37.6199 84.439 37.667C84.2011 37.8889 84.1883 38.2614 84.4101 38.4993C84.632 38.7372 85.0045 38.7501 85.2424 38.5282C85.2929 38.481 85.3312 38.426 85.3613 38.3679L85.9222 38.9691L84.1998 40.5759L84.1992 40.5752C83.9772 40.3376 83.604 40.3252 83.3662 40.547C83.1286 40.7688 83.1158 41.1415 83.3373 41.3793L83.3387 41.3793L82.7639 41.9156L82.7632 41.9149C82.5414 41.6773 82.1687 41.6645 81.9309 41.886C81.6931 42.1078 81.6796 42.481 81.9013 42.7189L81.9027 42.719L81.3279 43.2552L81.3272 43.2545C81.1052 43.0169 80.732 43.0045 80.4942 43.2263C80.2567 43.4482 80.2438 43.8208 80.4653 44.0586L80.4667 44.0586L80.0354 44.461L80.0347 44.4603C79.8128 44.2225 79.4403 44.2095 79.2024 44.4314C78.9647 44.6533 78.9517 45.0259 79.1736 45.2637L79.1749 45.2637L78.6001 45.8L78.5995 45.7993C78.3775 45.5617 78.005 45.5487 77.7672 45.7704C77.5294 45.9922 77.5166 46.3648 77.7383 46.6027L77.7397 46.6027L77.1641 47.1397L77.1635 47.139C76.9415 46.9013 76.569 46.8882 76.3312 47.1101C76.0934 47.3319 76.0806 47.7045 76.3023 47.9424L76.3037 47.9424L75.7288 48.4787C75.507 48.2409 75.1345 48.2282 74.8966 48.4498C74.6885 48.6439 74.6522 48.9533 74.795 49.187L74.867 49.2827L74.4364 49.6844C74.2145 49.4466 73.8413 49.4329 73.6034 49.6548C73.3954 49.849 73.3596 50.159 73.5025 50.3927L73.5752 50.4878L71.8522 52.0953L71.3152 51.5198C71.5529 51.2978 71.566 50.9253 71.3441 50.6875C71.1223 50.4499 70.7497 50.437 70.5118 50.6586L70.1108 50.2287C70.3486 50.0068 70.3609 49.6336 70.139 49.3957C69.9171 49.1581 69.5445 49.1451 69.3067 49.3668L68.7711 48.7927C69.0089 48.5709 69.0216 48.1983 68.8 47.9604C68.5781 47.7226 68.205 47.7089 67.9671 47.9308L67.4315 47.3567C67.6693 47.1348 67.6822 46.7623 67.4604 46.5244C67.2385 46.2866 66.866 46.2737 66.6281 46.4956L66.0925 45.9214C66.33 45.6996 66.3429 45.327 66.1214 45.0892C65.8995 44.8514 65.5263 44.8379 65.2884 45.0596L64.8867 44.629C65.1242 44.407 65.1367 44.0337 64.9149 43.796C64.6931 43.5585 64.3204 43.5457 64.0827 43.7671L63.5471 43.193C63.7848 42.9711 63.7978 42.5985 63.5759 42.3607C63.354 42.1231 62.9815 42.1101 62.7437 42.3318L62.2081 41.7577C62.4459 41.5358 62.4582 41.1626 62.2363 40.9247C62.0143 40.6872 61.6418 40.674 61.404 40.8958L60.7352 40.1789L62.4582 38.5714C62.6801 38.8093 63.0533 38.823 63.2912 38.601C63.5289 38.3791 63.5412 38.0059 63.3194 37.768L63.75 37.3663C63.9719 37.6041 64.3444 37.6171 64.5822 37.3952C64.7904 37.2009 64.8264 36.8911 64.6832 36.6573L64.6111 36.5629L65.186 36.0267C65.4078 36.2645 65.781 36.2781 66.0189 36.0563C66.227 35.8621 66.2628 35.5521 66.1198 35.3184L66.0471 35.2233L66.6212 34.6877C66.8432 34.9255 67.2156 34.9385 67.4535 34.7166C67.6614 34.5225 67.6978 34.213 67.5551 33.9794L67.4824 33.8843L68.0565 33.3487C68.2784 33.5866 68.6516 33.5988 68.8895 33.3769C69.1271 33.155 69.1402 32.7824 68.9184 32.5446L69.349 32.1429C69.5708 32.3807 69.9434 32.3935 70.1813 32.1718C70.4191 31.9499 70.4327 31.5767 70.2109 31.3389L70.7843 30.8039C71.0061 31.0416 71.3787 31.0544 71.6165 30.8328C71.8544 30.6109 71.868 30.2377 71.6461 29.9999L72.221 29.4636C72.4429 29.7015 72.816 29.7151 73.0539 29.4932C73.2916 29.2713 73.304 28.898 73.0821 28.6602L74.8052 27.0527L75.4993 27.7968Z"/>
</mask>
<path d="M75.4993 27.7968C75.4393 27.8228 75.3817 27.8571 75.3311 27.9043C75.0933 28.1262 75.0796 28.4993 75.3015 28.7372C75.5235 28.975 75.8967 28.9873 76.1345 28.7654C76.1851 28.7182 76.2233 28.6632 76.2534 28.6051L76.839 29.2328C76.7788 29.2588 76.7208 29.2936 76.6701 29.3409C76.4325 29.5629 76.4194 29.9354 76.6412 30.1732C76.8631 30.4108 77.2357 30.4237 77.4735 30.2021C77.5242 30.1548 77.5629 30.0993 77.5931 30.0411L78.178 30.6681C78.1176 30.6941 78.0599 30.7288 78.0091 30.7762C77.7712 30.9981 77.7583 31.3706 77.9802 31.6085C78.2021 31.8463 78.5747 31.8592 78.8125 31.6374C78.8633 31.59 78.9019 31.5347 78.9321 31.4764L79.3837 31.9605C79.3237 31.9865 79.2655 32.0201 79.2149 32.0673C78.977 32.2892 78.9641 32.6631 79.186 32.901C79.4079 33.1385 79.7812 33.151 80.019 32.9292C80.0695 32.8819 80.1071 32.8263 80.1372 32.7681L80.7227 33.3958C80.6628 33.4218 80.6057 33.4569 80.5552 33.504C80.3174 33.7259 80.3044 34.0984 80.5264 34.3363C80.7483 34.574 81.1208 34.587 81.3586 34.3652C81.4091 34.3181 81.4481 34.2635 81.4782 34.2056L82.0624 34.8318C82.0024 34.8578 81.9448 34.8921 81.8942 34.9393C81.6564 35.1612 81.6434 35.5337 81.8653 35.7716C82.0873 36.0092 82.4598 36.0223 82.6976 35.8004C82.7482 35.7533 82.7864 35.6982 82.8165 35.6401L83.4021 36.2678C83.342 36.2938 83.2839 36.3274 83.2332 36.3746C82.9954 36.5965 82.9831 36.9697 83.205 37.2076C83.427 37.4451 83.7995 37.4582 84.0373 37.2364C84.0879 37.1892 84.1254 37.1335 84.1555 37.0754L84.6072 37.5595C84.5472 37.5856 84.4896 37.6199 84.439 37.667C84.2011 37.8889 84.1883 38.2614 84.4101 38.4993C84.632 38.7372 85.0045 38.7501 85.2424 38.5282C85.2929 38.481 85.3312 38.426 85.3613 38.3679L85.9222 38.9691L84.1998 40.5759L84.1992 40.5752C83.9772 40.3376 83.604 40.3252 83.3662 40.547C83.1286 40.7688 83.1158 41.1415 83.3373 41.3793L83.3387 41.3793L82.7639 41.9156L82.7632 41.9149C82.5414 41.6773 82.1687 41.6645 81.9309 41.886C81.6931 42.1078 81.6796 42.481 81.9013 42.7189L81.9027 42.719L81.3279 43.2552L81.3272 43.2545C81.1052 43.0169 80.732 43.0045 80.4942 43.2263C80.2567 43.4482 80.2438 43.8208 80.4653 44.0586L80.4667 44.0586L80.0354 44.461L80.0347 44.4603C79.8128 44.2225 79.4403 44.2095 79.2024 44.4314C78.9647 44.6533 78.9517 45.0259 79.1736 45.2637L79.1749 45.2637L78.6001 45.8L78.5995 45.7993C78.3775 45.5617 78.005 45.5487 77.7672 45.7704C77.5294 45.9922 77.5166 46.3648 77.7383 46.6027L77.7397 46.6027L77.1641 47.1397L77.1635 47.139C76.9415 46.9013 76.569 46.8882 76.3312 47.1101C76.0934 47.3319 76.0806 47.7045 76.3023 47.9424L76.3037 47.9424L75.7288 48.4787C75.507 48.2409 75.1345 48.2282 74.8966 48.4498C74.6885 48.6439 74.6522 48.9533 74.795 49.187L74.867 49.2827L74.4364 49.6844C74.2145 49.4466 73.8413 49.4329 73.6034 49.6548C73.3954 49.849 73.3596 50.159 73.5025 50.3927L73.5752 50.4878L71.8522 52.0953L71.3152 51.5198C71.5529 51.2978 71.566 50.9253 71.3441 50.6875C71.1223 50.4499 70.7497 50.437 70.5118 50.6586L70.1108 50.2287C70.3486 50.0068 70.3609 49.6336 70.139 49.3957C69.9171 49.1581 69.5445 49.1451 69.3067 49.3668L68.7711 48.7927C69.0089 48.5709 69.0216 48.1983 68.8 47.9604C68.5781 47.7226 68.205 47.7089 67.9671 47.9308L67.4315 47.3567C67.6693 47.1348 67.6822 46.7623 67.4604 46.5244C67.2385 46.2866 66.866 46.2737 66.6281 46.4956L66.0925 45.9214C66.33 45.6996 66.3429 45.327 66.1214 45.0892C65.8995 44.8514 65.5263 44.8379 65.2884 45.0596L64.8867 44.629C65.1242 44.407 65.1367 44.0337 64.9149 43.796C64.6931 43.5585 64.3204 43.5457 64.0827 43.7671L63.5471 43.193C63.7848 42.9711 63.7978 42.5985 63.5759 42.3607C63.354 42.1231 62.9815 42.1101 62.7437 42.3318L62.2081 41.7577C62.4459 41.5358 62.4582 41.1626 62.2363 40.9247C62.0143 40.6872 61.6418 40.674 61.404 40.8958L60.7352 40.1789L62.4582 38.5714C62.6801 38.8093 63.0533 38.823 63.2912 38.601C63.5289 38.3791 63.5412 38.0059 63.3194 37.768L63.75 37.3663C63.9719 37.6041 64.3444 37.6171 64.5822 37.3952C64.7904 37.2009 64.8264 36.8911 64.6832 36.6573L64.6111 36.5629L65.186 36.0267C65.4078 36.2645 65.781 36.2781 66.0189 36.0563C66.227 35.8621 66.2628 35.5521 66.1198 35.3184L66.0471 35.2233L66.6212 34.6877C66.8432 34.9255 67.2156 34.9385 67.4535 34.7166C67.6614 34.5225 67.6978 34.213 67.5551 33.9794L67.4824 33.8843L68.0565 33.3487C68.2784 33.5866 68.6516 33.5988 68.8895 33.3769C69.1271 33.155 69.1402 32.7824 68.9184 32.5446L69.349 32.1429C69.5708 32.3807 69.9434 32.3935 70.1813 32.1718C70.4191 31.9499 70.4327 31.5767 70.2109 31.3389L70.7843 30.8039C71.0061 31.0416 71.3787 31.0544 71.6165 30.8328C71.8544 30.6109 71.868 30.2377 71.6461 29.9999L72.221 29.4636C72.4429 29.7015 72.816 29.7151 73.0539 29.4932C73.2916 29.2713 73.304 28.898 73.0821 28.6602L74.8052 27.0527L75.4993 27.7968Z" fill="#FEFDF5"/>
<path d="M75.4993 27.7968L75.8967 28.7144L77.1975 28.1511L76.2305 27.1146L75.4993 27.7968ZM75.3311 27.9043L74.6495 27.1726L74.649 27.1731L75.3311 27.9043ZM75.3015 28.7372L74.5703 29.4194L74.5704 29.4195L75.3015 28.7372ZM76.1345 28.7654L76.8167 29.4966L76.8172 29.4962L76.1345 28.7654ZM76.2534 28.6051L76.9846 27.923L76.0178 26.8866L75.3656 28.1449L76.2534 28.6051ZM76.839 29.2328L77.2361 30.1506L78.5375 29.5874L77.5702 28.5506L76.839 29.2328ZM76.6701 29.3409L75.9879 28.6097L75.9874 28.6102L76.6701 29.3409ZM76.6412 30.1732L75.91 30.8554L75.9103 30.8557L76.6412 30.1732ZM77.4735 30.2021L78.1552 30.9338L78.1557 30.9333L77.4735 30.2021ZM77.5931 30.0411L78.3243 29.359L77.3574 28.3225L76.7052 29.581L77.5931 30.0411ZM78.178 30.6681L78.5746 31.5861L79.877 31.0233L78.9092 29.9859L78.178 30.6681ZM78.0091 30.7762L77.3269 30.045L77.3269 30.045L78.0091 30.7762ZM77.9802 31.6085L77.249 32.2907L77.2492 32.2908L77.9802 31.6085ZM78.8125 31.6374L79.4946 32.3686L79.4946 32.3686L78.8125 31.6374ZM78.9321 31.4764L79.6633 30.7942L78.6956 29.757L78.0439 31.0169L78.9321 31.4764ZM79.3837 31.9605L79.7811 32.8782L81.0819 32.3149L80.115 31.2784L79.3837 31.9605ZM79.2149 32.0673L78.5332 31.3357L78.5327 31.3361L79.2149 32.0673ZM79.186 32.901L78.4548 33.5831L78.4553 33.5837L79.186 32.901ZM80.019 32.9292L80.7011 33.6604L80.7015 33.66L80.019 32.9292ZM80.1372 32.7681L80.8684 32.086L79.9014 31.0494L79.2493 32.3081L80.1372 32.7681ZM80.7227 33.3958L81.1213 34.313L82.4196 33.7488L81.454 32.7137L80.7227 33.3958ZM80.5552 33.504L79.8731 32.7728L79.8731 32.7728L80.5552 33.504ZM80.5264 34.3363L79.7951 35.0184L79.7954 35.0187L80.5264 34.3363ZM81.3586 34.3652L82.0408 35.0964L82.0408 35.0964L81.3586 34.3652ZM81.4782 34.2056L82.2094 33.5234L81.2439 32.4885L80.591 33.7442L81.4782 34.2056ZM82.0624 34.8318L82.4601 35.7493L83.7602 35.1858L82.7936 34.1496L82.0624 34.8318ZM81.8942 34.9393L81.2123 34.2079L81.2121 34.2081L81.8942 34.9393ZM81.8653 35.7716L81.1341 36.4537L81.1345 36.4541L81.8653 35.7716ZM82.6976 35.8004L83.3798 36.5317L83.38 36.5315L82.6976 35.8004ZM82.8165 35.6401L83.5477 34.958L82.5815 33.9223L81.9289 35.1795L82.8165 35.6401ZM83.4021 36.2678L83.7995 37.1854L85.1002 36.6221L84.1333 35.5856L83.4021 36.2678ZM83.2332 36.3746L82.5514 35.643L82.5511 35.6434L83.2332 36.3746ZM83.205 37.2076L82.4738 37.8897L82.4744 37.8903L83.205 37.2076ZM84.0373 37.2364L84.7194 37.9676L84.7198 37.9673L84.0373 37.2364ZM84.1555 37.0754L84.8867 36.3933L83.9198 35.3568L83.2676 36.6153L84.1555 37.0754ZM84.6072 37.5595L85.0049 38.477L86.3049 37.9134L85.3384 36.8774L84.6072 37.5595ZM84.439 37.667L83.7572 36.9355L83.7568 36.9358L84.439 37.667ZM84.4101 38.4993L83.6788 39.1813L83.6789 39.1815L84.4101 38.4993ZM85.2424 38.5282L85.9245 39.2594L85.9249 39.2591L85.2424 38.5282ZM85.3613 38.3679L86.0925 37.6857L85.1258 36.6495L84.4735 37.9076L85.3613 38.3679ZM85.9222 38.9691L86.6043 39.7003L87.3355 39.0182L86.6534 38.287L85.9222 38.9691ZM84.1998 40.5759L83.4686 41.2581L84.1508 41.9893L84.882 41.3071L84.1998 40.5759ZM84.1992 40.5752L84.9304 39.893L84.9299 39.8925L84.1992 40.5752ZM83.3662 40.547L82.684 39.8158L82.6836 39.8161L83.3662 40.547ZM83.3373 41.3793L82.6056 42.0609L82.8882 42.3643L83.3026 42.3787L83.3373 41.3793ZM83.3387 41.3793L84.0208 42.1105L85.7861 40.4637L83.3734 40.3799L83.3387 41.3793ZM82.7639 41.9156L82.0326 42.5977L82.7148 43.3289L83.446 42.6468L82.7639 41.9156ZM82.7632 41.9149L83.4944 41.2327L83.4941 41.2324L82.7632 41.9149ZM81.9309 41.886L81.2493 41.1542L81.2488 41.1548L81.9309 41.886ZM81.9013 42.7189L81.1698 43.4007L81.4524 43.704L81.8666 43.7183L81.9013 42.7189ZM81.9027 42.719L82.5848 43.4502L84.3501 41.8033L81.9374 41.7196L81.9027 42.719ZM81.3279 43.2552L80.5967 43.9374L81.2788 44.6686L82.01 43.9865L81.3279 43.2552ZM81.3272 43.2545L82.0584 42.5724L82.058 42.5719L81.3272 43.2545ZM80.4942 43.2263L79.812 42.4951L79.8115 42.4956L80.4942 43.2263ZM80.4653 44.0586L79.7337 44.7403L80.0163 45.0436L80.4306 45.058L80.4653 44.0586ZM80.4667 44.0586L81.1489 44.7898L82.9141 43.143L80.5014 43.0592L80.4667 44.0586ZM80.0354 44.461L79.3042 45.1432L79.9863 45.8744L80.7176 45.1922L80.0354 44.461ZM80.0347 44.4603L80.7659 43.7781L80.7659 43.778L80.0347 44.4603ZM79.2024 44.4314L78.5203 43.7002L78.5201 43.7004L79.2024 44.4314ZM79.1736 45.2637L78.4423 45.9458L78.7248 46.2487L79.1389 46.2631L79.1736 45.2637ZM79.1749 45.2637L79.8571 45.9949L81.6224 44.3481L79.2096 44.2643L79.1749 45.2637ZM78.6001 45.8L77.8689 46.4822L78.5511 47.2134L79.2823 46.5312L78.6001 45.8ZM78.5995 45.7993L79.3307 45.1171L79.3302 45.1167L78.5995 45.7993ZM77.7672 45.7704L77.0852 45.0391L77.085 45.0392L77.7672 45.7704ZM77.7383 46.6027L77.0066 47.2844L77.2893 47.5877L77.7036 47.6021L77.7383 46.6027ZM77.7397 46.6027L78.4218 47.3339L80.1871 45.6871L77.7744 45.6033L77.7397 46.6027ZM77.1641 47.1397L76.4329 47.8218L77.1151 48.553L77.8463 47.8709L77.1641 47.1397ZM77.1635 47.139L77.8947 46.4568L77.8944 46.4565L77.1635 47.139ZM76.3312 47.1101L75.649 46.3789L75.6489 46.3789L76.3312 47.1101ZM76.3023 47.9424L75.5708 48.6242L75.8534 48.9274L76.2676 48.9418L76.3023 47.9424ZM76.3037 47.9424L76.9858 48.6736L78.7511 47.0267L76.3384 46.943L76.3037 47.9424ZM75.7288 48.4787L74.9976 49.1608L75.6798 49.892L76.411 49.2099L75.7288 48.4787ZM74.8966 48.4498L74.215 47.718L74.2144 47.7186L74.8966 48.4498ZM74.795 49.187L73.9416 49.7082L73.9667 49.7493L73.9956 49.7878L74.795 49.187ZM74.867 49.2827L75.5491 50.0139L76.2066 49.4006L75.6663 48.6819L74.867 49.2827ZM74.4364 49.6844L73.7052 50.3666L74.3873 51.0978L75.1185 50.4156L74.4364 49.6844ZM73.6034 49.6548L72.9213 48.9236L72.9212 48.9237L73.6034 49.6548ZM73.5025 50.3927L72.6494 50.9144L72.6765 50.9588L72.708 51L73.5025 50.3927ZM73.5752 50.4878L74.2574 51.219L74.9202 50.6007L74.3697 49.8805L73.5752 50.4878ZM71.8522 52.0953L71.121 52.7774L71.8031 53.5087L72.5343 52.8265L71.8522 52.0953ZM71.3152 51.5198L70.6327 50.7889L69.9023 51.4711L70.584 52.2019L71.3152 51.5198ZM71.3441 50.6875L72.0753 50.0053L72.075 50.005L71.3441 50.6875ZM70.5118 50.6586L69.7806 51.3407L70.4624 52.0715L71.1936 51.3902L70.5118 50.6586ZM70.1108 50.2287L69.4285 49.4976L68.6976 50.1798L69.3796 50.9109L70.1108 50.2287ZM70.139 49.3957L70.8702 48.7136L70.8699 48.7132L70.139 49.3957ZM69.3067 49.3668L68.5755 50.049L69.2576 50.7801L69.9888 50.0982L69.3067 49.3668ZM68.7711 48.7927L68.089 48.0615L67.3578 48.7437L68.0399 49.4749L68.7711 48.7927ZM68.8 47.9604L69.5318 47.2789L69.5312 47.2783L68.8 47.9604ZM67.9671 47.9308L67.2359 48.613L67.918 49.3442L68.6492 48.662L67.9671 47.9308ZM67.4315 47.3567L66.7492 46.6256L66.0182 47.3078L66.7003 48.0389L67.4315 47.3567ZM67.4604 46.5244L68.1916 45.8424L68.1916 45.8423L67.4604 46.5244ZM66.6281 46.4956L65.8969 47.1777L66.5789 47.9088L67.3102 47.2268L66.6281 46.4956ZM66.0925 45.9214L65.4099 45.1907L64.6795 45.8729L65.3613 46.6036L66.0925 45.9214ZM66.1214 45.0892L66.853 44.4075L66.8526 44.407L66.1214 45.0892ZM65.2884 45.0596L64.5572 45.7417L65.2389 46.4725L65.9701 45.7912L65.2884 45.0596ZM64.8867 44.629L64.2039 43.8984L63.474 44.5806L64.1555 45.3111L64.8867 44.629ZM64.9149 43.796L65.6461 43.1138L65.6457 43.1133L64.9149 43.796ZM64.0827 43.7671L63.3514 44.4493L64.033 45.1798L64.7641 44.4989L64.0827 43.7671ZM63.5471 43.193L62.8647 42.462L62.1339 43.1441L62.8158 43.8751L63.5471 43.193ZM63.5759 42.3607L64.3071 41.6786L64.3068 41.6782L63.5759 42.3607ZM62.7437 42.3318L62.0124 43.014L62.6944 43.745L63.4256 43.0632L62.7437 42.3318ZM62.2081 41.7577L61.5259 41.0265L60.7947 41.7087L61.4768 42.4399L62.2081 41.7577ZM62.2363 40.9247L62.9675 40.2426L62.9669 40.242L62.2363 40.9247ZM61.404 40.8958L60.6728 41.578L61.3549 42.3092L62.0861 41.6271L61.404 40.8958ZM60.7352 40.1789L60.053 39.4477L59.3218 40.1299L60.004 40.8611L60.7352 40.1789ZM62.4582 38.5714L63.1894 37.8893L62.5073 37.1581L61.7761 37.8402L62.4582 38.5714ZM63.2912 38.601L63.9733 39.3322L63.9736 39.332L63.2912 38.601ZM63.3194 37.768L62.6372 37.0368L61.906 37.719L62.5882 38.4502L63.3194 37.768ZM63.75 37.3663L64.481 36.6841L63.7989 35.9531L63.0678 36.6351L63.75 37.3663ZM64.5822 37.3952L65.2644 38.1264L65.2645 38.1263L64.5822 37.3952ZM64.6832 36.6573L65.5359 36.1349L65.5091 36.0913L65.4781 36.0507L64.6832 36.6573ZM64.6111 36.5629L63.929 35.8317L63.2667 36.4496L63.8162 37.1696L64.6111 36.5629ZM65.186 36.0267L65.9172 35.3445L65.235 34.6133L64.5038 35.2955L65.186 36.0267ZM66.0189 36.0563L66.7008 36.7877L66.7011 36.7875L66.0189 36.0563ZM66.1198 35.3184L66.9729 34.7967L66.9458 34.7523L66.9143 34.7111L66.1198 35.3184ZM66.0471 35.2233L65.365 34.4921L64.7021 35.1104L65.2526 35.8306L66.0471 35.2233ZM66.6212 34.6877L67.3524 34.0055L66.6702 33.2744L65.9391 33.9565L66.6212 34.6877ZM67.4535 34.7166L68.1357 35.4478L68.1359 35.4476L67.4535 34.7166ZM67.5551 33.9794L68.4086 33.4583L68.3813 33.4136L68.3496 33.3721L67.5551 33.9794ZM67.4824 33.8843L66.8002 33.1531L66.1374 33.7714L66.6879 34.4916L67.4824 33.8843ZM68.0565 33.3487L68.7877 32.6665L68.1056 31.9353L67.3744 32.6175L68.0565 33.3487ZM68.8895 33.3769L69.5717 34.1081L69.5721 34.1077L68.8895 33.3769ZM68.9184 32.5446L68.2362 31.8134L67.505 32.4956L68.1872 33.2268L68.9184 32.5446ZM69.349 32.1429L70.0801 31.4607L69.3979 30.7296L68.6668 31.4117L69.349 32.1429ZM70.1813 32.1718L70.863 32.9034L70.8634 32.903L70.1813 32.1718ZM70.2109 31.3389L69.5287 30.6077L68.7976 31.2897L69.4796 32.0209L70.2109 31.3389ZM70.7843 30.8039L71.5153 30.1216L70.8331 29.3907L70.1021 30.0727L70.7843 30.8039ZM71.6165 30.8328L72.2981 31.5645L72.2987 31.564L71.6165 30.8328ZM71.6461 29.9999L70.964 29.2687L70.2329 29.9507L70.9148 30.6818L71.6461 29.9999ZM72.221 29.4636L72.9522 28.7814L72.27 28.0502L71.5388 28.7324L72.221 29.4636ZM73.0539 29.4932L73.7361 30.2244L73.7363 30.2241L73.0539 29.4932ZM73.0821 28.6602L72.4 27.929L71.6688 28.6111L72.3509 29.3424L73.0821 28.6602ZM74.8052 27.0527L75.5364 26.3706L74.8542 25.6394L74.123 26.3215L74.8052 27.0527ZM75.4993 27.7968L75.1019 26.8792C74.9612 26.9401 74.8008 27.0317 74.6495 27.1726L75.3311 27.9043L76.0128 28.636C75.9627 28.6826 75.9173 28.7055 75.8967 28.7144L75.4993 27.7968ZM75.3311 27.9043L74.649 27.1731C74.0089 27.7703 73.9702 28.7761 74.5703 29.4194L75.3015 28.7372L76.0328 28.0551C76.1891 28.2226 76.1777 28.4821 76.0133 28.6355L75.3311 27.9043ZM75.3015 28.7372L74.5704 29.4195C75.1705 30.0624 76.1765 30.0939 76.8167 29.4966L76.1345 28.7654L75.4524 28.0342C75.6169 27.8808 75.8765 27.8876 76.0326 28.055L75.3015 28.7372ZM76.1345 28.7654L76.8172 29.4962C76.9683 29.355 77.0708 29.2012 77.1413 29.0653L76.2534 28.6051L75.3656 28.1449C75.3759 28.1251 75.4018 28.0815 75.4519 28.0347L76.1345 28.7654ZM76.2534 28.6051L75.5222 29.2873L76.1078 29.9149L76.839 29.2328L77.5702 28.5506L76.9846 27.923L76.2534 28.6051ZM76.839 29.2328L76.4419 28.315C76.2993 28.3767 76.1386 28.4692 75.9879 28.6097L76.6701 29.3409L77.3523 30.0721C77.303 30.118 77.2582 30.141 77.2361 30.1506L76.839 29.2328ZM76.6701 29.3409L75.9874 28.6102C75.3472 29.2083 75.311 30.2133 75.91 30.8554L76.6412 30.1732L77.3724 29.4911C77.5278 29.6576 77.5179 29.9174 77.3527 30.0717L76.6701 29.3409ZM76.6412 30.1732L75.9103 30.8557C76.509 31.4968 77.5138 31.5313 78.1552 30.9338L77.4735 30.2021L76.7918 29.4704C76.9576 29.316 77.2171 29.3247 77.3721 29.4907L76.6412 30.1732ZM77.4735 30.2021L78.1557 30.9333C78.3064 30.7927 78.4097 30.6387 78.481 30.5012L77.5931 30.0411L76.7052 29.581C76.7161 29.56 76.742 29.517 76.7913 29.4709L77.4735 30.2021ZM77.5931 30.0411L76.8619 30.7233L77.4468 31.3502L78.178 30.6681L78.9092 29.9859L78.3243 29.359L77.5931 30.0411ZM78.178 30.6681L77.7814 29.7501C77.6379 29.812 77.4775 29.9046 77.3269 30.045L78.0091 30.7762L78.6912 31.5074C78.6423 31.5531 78.5974 31.5762 78.5746 31.5861L78.178 30.6681ZM78.0091 30.7762L77.3269 30.045C76.6853 30.6437 76.6503 31.6489 77.249 32.2907L77.9802 31.6085L78.7114 30.9263C78.8663 31.0923 78.8572 31.3526 78.6913 31.5074L78.0091 30.7762ZM77.9802 31.6085L77.2492 32.2908C77.8477 32.932 78.8528 32.9673 79.4946 32.3686L78.8125 31.6374L78.1304 30.9061C78.2965 30.7511 78.5566 30.7605 78.7112 30.9261L77.9802 31.6085ZM78.8125 31.6374L79.4946 32.3686C79.6452 32.2281 79.7486 32.0744 79.8203 31.9359L78.9321 31.4764L78.0439 31.0169C78.0552 30.9951 78.0813 30.9519 78.1303 30.9062L78.8125 31.6374ZM78.9321 31.4764L78.2009 32.1585L78.6525 32.6427L79.3837 31.9605L80.115 31.2784L79.6633 30.7942L78.9321 31.4764ZM79.3837 31.9605L78.9864 31.0429C78.8558 31.0994 78.6908 31.1888 78.5332 31.3357L79.2149 32.0673L79.8967 32.7989C79.8403 32.8514 79.7915 32.8737 79.7811 32.8782L79.3837 31.9605ZM79.2149 32.0673L78.5327 31.3361C77.891 31.9348 77.8561 32.9414 78.4548 33.5831L79.186 32.901L79.9172 32.2188C80.072 32.3848 80.063 32.6437 79.8971 32.7985L79.2149 32.0673ZM79.186 32.901L78.4553 33.5837C79.0548 34.2254 80.0606 34.258 80.7011 33.6604L80.019 32.9292L79.3368 32.198C79.5018 32.044 79.761 32.0517 79.9167 32.2183L79.186 32.901ZM80.019 32.9292L80.7015 33.66C80.859 33.513 80.9596 33.3545 81.0251 33.2281L80.1372 32.7681L79.2493 32.3081C79.2545 32.298 79.2801 32.2509 79.3364 32.1984L80.019 32.9292ZM80.1372 32.7681L79.406 33.4503L79.9915 34.078L80.7227 33.3958L81.454 32.7137L80.8684 32.086L80.1372 32.7681ZM80.7227 33.3958L80.3242 32.4787C80.1761 32.543 80.0188 32.6368 79.8731 32.7728L80.5552 33.504L81.2374 34.2352C81.1926 34.277 81.1496 34.3007 81.1213 34.313L80.7227 33.3958ZM80.5552 33.504L79.8731 32.7728C79.2314 33.3715 79.1965 34.3767 79.7951 35.0184L80.5264 34.3363L81.2576 33.6541C81.4124 33.8201 81.4033 34.0804 81.2374 34.2352L80.5552 33.504ZM80.5264 34.3363L79.7954 35.0187C80.3938 35.6597 81.3989 35.6952 82.0408 35.0964L81.3586 34.3652L80.6765 33.634C80.8427 33.4789 81.1028 33.4883 81.2573 33.6539L80.5264 34.3363ZM81.3586 34.3652L82.0408 35.0964C82.1866 34.9603 82.291 34.8099 82.3654 34.6669L81.4782 34.2056L80.591 33.7442C80.6051 33.7171 80.6316 33.6758 80.6765 33.634L81.3586 34.3652ZM81.4782 34.2056L80.747 34.8877L81.3312 35.514L82.0624 34.8318L82.7936 34.1496L82.2094 33.5234L81.4782 34.2056ZM82.0624 34.8318L81.6647 33.9143C81.5248 33.9749 81.364 34.0664 81.2123 34.2079L81.8942 34.9393L82.5762 35.6707C82.5256 35.7178 82.4799 35.7407 82.4601 35.7493L82.0624 34.8318ZM81.8942 34.9393L81.2121 34.2081C80.5704 34.8067 80.5355 35.812 81.1341 36.4537L81.8653 35.7716L82.5966 35.0894C82.7514 35.2554 82.7423 35.5157 82.5764 35.6705L81.8942 34.9393ZM81.8653 35.7716L81.1345 36.4541C81.7328 37.0947 82.7378 37.1306 83.3798 36.5317L82.6976 35.8004L82.0155 35.0692C82.1819 34.914 82.4418 34.9237 82.5962 35.089L81.8653 35.7716ZM82.6976 35.8004L83.38 36.5315C83.5318 36.3898 83.6341 36.2356 83.7041 36.1008L82.8165 35.6401L81.9289 35.1795C81.9387 35.1607 81.9646 35.1168 82.0153 35.0694L82.6976 35.8004ZM82.8165 35.6401L82.0853 36.3223L82.6709 36.95L83.4021 36.2678L84.1333 35.5856L83.5477 34.958L82.8165 35.6401ZM83.4021 36.2678L83.0047 35.3502C82.8742 35.4067 82.7091 35.4961 82.5514 35.643L83.2332 36.3746L83.915 37.1061C83.8586 37.1587 83.8098 37.181 83.7995 37.1854L83.4021 36.2678ZM83.2332 36.3746L82.5511 35.6434C81.9078 36.2435 81.8766 37.2496 82.4738 37.8897L83.205 37.2076L83.9362 36.5254C84.0896 36.6898 84.0829 36.9495 83.9154 37.1058L83.2332 36.3746ZM83.205 37.2076L82.4744 37.8903C83.0724 38.5303 84.0773 38.5668 84.7194 37.9676L84.0373 37.2364L83.3551 36.5052C83.5218 36.3497 83.7815 36.3599 83.9357 36.5248L83.205 37.2076ZM84.0373 37.2364L84.7198 37.9673C84.8773 37.8202 84.978 37.6617 85.0434 37.5355L84.1555 37.0754L83.2676 36.6153C83.2728 36.6054 83.2984 36.5582 83.3548 36.5056L84.0373 37.2364ZM84.1555 37.0754L83.4243 37.7576L83.876 38.2417L84.6072 37.5595L85.3384 36.8774L84.8867 36.3933L84.1555 37.0754ZM84.6072 37.5595L84.2094 36.6421C84.0695 36.7027 83.9088 36.7942 83.7572 36.9355L84.439 37.667L85.1208 38.3985C85.0704 38.4456 85.0248 38.4684 85.0049 38.477L84.6072 37.5595ZM84.439 37.667L83.7568 36.9358C83.115 37.5346 83.0805 38.5398 83.6788 39.1813L84.4101 38.4993L85.1415 37.8173C85.296 37.9831 85.2873 38.2432 85.1211 38.3982L84.439 37.667ZM84.4101 38.4993L83.6789 39.1815C84.2776 39.8232 85.2828 39.8581 85.9245 39.2594L85.2424 38.5282L84.5602 37.797C84.7262 37.6422 84.9865 37.6512 85.1413 37.8172L84.4101 38.4993ZM85.2424 38.5282L85.9249 39.2591C86.0763 39.1177 86.1787 38.9637 86.249 38.8282L85.3613 38.3679L84.4735 37.9076C84.4836 37.8882 84.5096 37.8443 84.5599 37.7973L85.2424 38.5282ZM85.3613 38.3679L84.6301 39.05L85.191 39.6513L85.9222 38.9691L86.6534 38.287L86.0925 37.6857L85.3613 38.3679ZM85.9222 38.9691L85.24 38.2379L83.5177 39.8447L84.1998 40.5759L84.882 41.3071L86.6043 39.7003L85.9222 38.9691ZM84.1998 40.5759L84.9311 39.8938L84.9304 39.893L84.1992 40.5752L83.468 41.2574L83.4686 41.2581L84.1998 40.5759ZM84.1992 40.5752L84.9299 39.8925C84.3303 39.2507 83.3246 39.2182 82.684 39.8158L83.3662 40.547L84.0483 41.2782C83.8834 41.4321 83.6242 41.4245 83.4685 41.2579L84.1992 40.5752ZM83.3662 40.547L82.6836 39.8161C82.0426 40.4148 82.0081 41.4195 82.6056 42.0609L83.3373 41.3793L84.069 40.6976C84.2234 40.8634 84.2146 41.1229 84.0487 41.2778L83.3662 40.547ZM83.3373 41.3793L83.3026 42.3787L83.304 42.3787L83.3387 41.3793L83.3734 40.3799L83.372 40.3799L83.3373 41.3793ZM83.3387 41.3793L82.6565 40.6481L82.0817 41.1844L82.7639 41.9156L83.446 42.6468L84.0208 42.1105L83.3387 41.3793ZM82.7639 41.9156L83.4951 41.2334L83.4944 41.2327L82.7632 41.9149L82.032 42.597L82.0326 42.5977L82.7639 41.9156ZM82.7632 41.9149L83.4941 41.2324C82.8953 40.5912 81.8906 40.5569 81.2493 41.1542L81.9309 41.886L82.6125 42.6177C82.4469 42.772 82.1874 42.7634 82.0323 42.5974L82.7632 41.9149ZM81.9309 41.886L81.2488 41.1548C80.6083 41.7522 80.5706 42.7579 81.1698 43.4007L81.9013 42.7189L82.6328 42.0371C82.7886 42.2042 82.7779 42.4634 82.6131 42.6172L81.9309 41.886ZM81.9013 42.7189L81.8666 43.7183L81.868 43.7184L81.9027 42.719L81.9374 41.7196L81.936 41.7195L81.9013 42.7189ZM81.9027 42.719L81.2205 41.9878L80.6457 42.524L81.3279 43.2552L82.01 43.9865L82.5848 43.4502L81.9027 42.719ZM81.3279 43.2552L82.0591 42.5731L82.0584 42.5724L81.3272 43.2545L80.596 43.9367L80.5967 43.9374L81.3279 43.2552ZM81.3272 43.2545L82.058 42.5719C81.4583 41.93 80.4526 41.8976 79.812 42.4951L80.4942 43.2263L81.1764 43.9575C81.0114 44.1114 80.7522 44.1039 80.5964 43.9372L81.3272 43.2545ZM80.4942 43.2263L79.8115 42.4956C79.171 43.0941 79.1359 44.0987 79.7337 44.7403L80.4653 44.0586L81.197 43.3769C81.3516 43.5429 81.3425 43.8023 81.1769 43.957L80.4942 43.2263ZM80.4653 44.0586L80.4306 45.058L80.432 45.058L80.4667 44.0586L80.5014 43.0592L80.5 43.0592L80.4653 44.0586ZM80.4667 44.0586L79.7845 43.3274L79.3532 43.7298L80.0354 44.461L80.7176 45.1922L81.1489 44.7898L80.4667 44.0586ZM80.0354 44.461L80.7666 43.7789L80.7659 43.7781L80.0347 44.4603L79.3035 45.1424L79.3042 45.1432L80.0354 44.461ZM80.0347 44.4603L80.7659 43.778C80.1673 43.1366 79.1621 43.1015 78.5203 43.7002L79.2024 44.4314L79.8846 45.1626C79.7185 45.3175 79.4583 45.3083 79.3036 45.1425L80.0347 44.4603ZM79.2024 44.4314L78.5201 43.7004C77.879 44.2989 77.8437 45.304 78.4423 45.9458L79.1736 45.2637L79.9049 44.5816C80.0598 44.7478 80.0505 45.0077 79.8848 45.1624L79.2024 44.4314ZM79.1736 45.2637L79.1389 46.2631L79.1403 46.2631L79.1749 45.2637L79.2096 44.2643L79.2082 44.2643L79.1736 45.2637ZM79.1749 45.2637L78.4928 44.5325L77.918 45.0688L78.6001 45.8L79.2823 46.5312L79.8571 45.9949L79.1749 45.2637ZM78.6001 45.8L79.3313 45.1178L79.3307 45.1171L78.5995 45.7993L77.8682 46.4814L77.8689 46.4822L78.6001 45.8ZM78.5995 45.7993L79.3302 45.1167C78.7319 44.4762 77.7271 44.4405 77.0852 45.0391L77.7672 45.7704L78.4492 46.5018C78.2829 46.6569 78.0231 46.6473 77.8687 46.4819L78.5995 45.7993ZM77.7672 45.7704L77.085 45.0392C76.4429 45.6382 76.4093 46.6432 77.0066 47.2844L77.7383 46.6027L78.4699 45.921C78.624 46.0864 78.6158 46.3463 78.4493 46.5016L77.7672 45.7704ZM77.7383 46.6027L77.7036 47.6021L77.705 47.6021L77.7397 46.6027L77.7744 45.6033L77.773 45.6033L77.7383 46.6027ZM77.7397 46.6027L77.0575 45.8715L76.482 46.4085L77.1641 47.1397L77.8463 47.8709L78.4218 47.3339L77.7397 46.6027ZM77.1641 47.1397L77.8953 46.4575L77.8947 46.4568L77.1635 47.139L76.4323 47.8211L76.4329 47.8218L77.1641 47.1397ZM77.1635 47.139L77.8944 46.4565C77.296 45.8157 76.291 45.78 75.649 46.3789L76.3312 47.1101L77.0133 47.8413C76.847 47.9964 76.587 47.9869 76.4325 47.8214L77.1635 47.139ZM76.3312 47.1101L75.6489 46.3789C75.0072 46.9777 74.9729 47.9828 75.5708 48.6242L76.3023 47.9424L77.0338 47.2605C77.1882 47.4262 77.1796 47.6861 77.0134 47.8412L76.3312 47.1101ZM76.3023 47.9424L76.2676 48.9418L76.269 48.9418L76.3037 47.9424L76.3384 46.943L76.337 46.943L76.3023 47.9424ZM76.3037 47.9424L75.6215 47.2112L75.0467 47.7475L75.7288 48.4787L76.411 49.2099L76.9858 48.6736L76.3037 47.9424ZM75.7288 48.4787L76.4601 47.7965C75.861 47.1543 74.856 47.121 74.215 47.718L74.8966 48.4498L75.5781 49.1815C75.4129 49.3354 75.1531 49.3275 74.9976 49.1608L75.7288 48.4787ZM74.8966 48.4498L74.2144 47.7186C73.653 48.2423 73.5558 49.0765 73.9416 49.7082L74.795 49.187L75.6484 48.6657C75.7487 48.83 75.724 49.0454 75.5787 49.181L74.8966 48.4498ZM74.795 49.187L73.9956 49.7878L74.0676 49.8836L74.867 49.2827L75.6663 48.6819L75.5943 48.5861L74.795 49.187ZM74.867 49.2827L74.1848 48.5515L73.7542 48.9532L74.4364 49.6844L75.1185 50.4156L75.5491 50.0139L74.867 49.2827ZM74.4364 49.6844L75.1676 49.0023C74.5704 48.3621 73.5646 48.3235 72.9213 48.9236L73.6034 49.6548L74.2856 50.386C74.1181 50.5423 73.8585 50.531 73.7052 50.3666L74.4364 49.6844ZM73.6034 49.6548L72.9212 48.9237C72.3586 49.4488 72.2639 50.2841 72.6494 50.9144L73.5025 50.3927L74.3556 49.871C74.4553 50.0339 74.4322 50.2493 74.2857 50.3859L73.6034 49.6548ZM73.5025 50.3927L72.708 51L72.7807 51.0951L73.5752 50.4878L74.3697 49.8805L74.297 49.7854L73.5025 50.3927ZM73.5752 50.4878L72.8931 49.7566L71.17 51.3641L71.8522 52.0953L72.5343 52.8265L74.2574 51.219L73.5752 50.4878ZM71.8522 52.0953L72.5834 51.4131L72.0464 50.8376L71.3152 51.5198L70.584 52.2019L71.121 52.7774L71.8522 52.0953ZM71.3152 51.5198L71.9978 52.2506C72.6383 51.6523 72.6743 50.6474 72.0753 50.0053L71.3441 50.6875L70.6129 51.3696C70.4576 51.2032 70.4674 50.9433 70.6327 50.7889L71.3152 51.5198ZM71.3441 50.6875L72.075 50.005C71.4764 49.3638 70.4715 49.3293 69.8301 49.927L70.5118 50.6586L71.1936 51.3902C71.0278 51.5447 70.7681 51.5359 70.6132 51.3699L71.3441 50.6875ZM70.5118 50.6586L71.243 49.9764L70.842 49.5466L70.1108 50.2287L69.3796 50.9109L69.7806 51.3407L70.5118 50.6586ZM70.1108 50.2287L70.7931 50.9598C71.436 50.3598 71.4675 49.3538 70.8702 48.7136L70.139 49.3957L69.4078 50.0779C69.2543 49.9133 69.2612 49.6538 69.4285 49.4976L70.1108 50.2287ZM70.139 49.3957L70.8699 48.7132C70.2715 48.0725 69.2666 48.0369 68.6247 48.6355L69.3067 49.3668L69.9888 50.0982C69.8225 50.2532 69.5627 50.2437 69.4082 50.0783L70.139 49.3957ZM69.3067 49.3668L70.0379 48.6847L69.5023 48.1106L68.7711 48.7927L68.0399 49.4749L68.5755 50.049L69.3067 49.3668ZM68.7711 48.7927L69.4533 49.5239C70.0955 48.9248 70.1288 47.9199 69.5318 47.2789L68.8 47.9604L68.0683 48.642C67.9144 48.4768 67.9223 48.217 68.089 48.0615L68.7711 48.7927ZM68.8 47.9604L69.5312 47.2783C68.934 46.6382 67.9282 46.5995 67.2849 47.1996L67.9671 47.9308L68.6492 48.662C68.4817 48.8183 68.2222 48.807 68.0688 48.6426L68.8 47.9604ZM67.9671 47.9308L68.6983 47.2487L68.1627 46.6746L67.4315 47.3567L66.7003 48.0389L67.2359 48.613L67.9671 47.9308ZM67.4315 47.3567L68.1137 48.0879C68.7552 47.4892 68.7902 46.484 68.1916 45.8424L67.4604 46.5244L66.7291 47.2065C66.5743 47.0406 66.5833 46.7804 66.7492 46.6256L67.4315 47.3567ZM67.4604 46.5244L68.1916 45.8423C67.5928 45.2005 66.5876 45.1658 65.946 45.7643L66.6281 46.4956L67.3102 47.2268C67.1443 47.3815 66.8841 47.3727 66.7292 47.2066L67.4604 46.5244ZM66.6281 46.4956L67.3593 45.8134L66.8237 45.2393L66.0925 45.9214L65.3613 46.6036L65.8969 47.1777L66.6281 46.4956ZM66.0925 45.9214L66.7751 46.6522C67.4159 46.0537 67.4507 45.049 66.853 44.4075L66.1214 45.0892L65.3897 45.7709C65.2351 45.6049 65.2441 45.3455 65.4099 45.1907L66.0925 45.9214ZM66.1214 45.0892L66.8526 44.407C66.255 43.7665 65.2494 43.7291 64.6067 44.3279L65.2884 45.0596L65.9701 45.7912C65.8032 45.9468 65.544 45.9363 65.3902 45.7713L66.1214 45.0892ZM65.2884 45.0596L66.0196 44.3774L65.6179 43.9468L64.8867 44.629L64.1555 45.3111L64.5572 45.7417L65.2884 45.0596ZM64.8867 44.629L65.5695 45.3596C66.2109 44.7601 66.2438 43.7545 65.6461 43.1138L64.9149 43.796L64.1837 44.4781C64.0296 44.313 64.0375 44.0539 64.2039 43.8984L64.8867 44.629ZM64.9149 43.796L65.6457 43.1133C65.047 42.4725 64.0424 42.4381 63.4012 43.0353L64.0827 43.7671L64.7641 44.4989C64.5984 44.6532 64.3392 44.6445 64.1842 44.4786L64.9149 43.796ZM64.0827 43.7671L64.8139 43.0849L64.2783 42.5108L63.5471 43.193L62.8158 43.8751L63.3514 44.4493L64.0827 43.7671ZM63.5471 43.193L64.2294 43.924C64.8705 43.3256 64.906 42.3204 64.3071 41.6786L63.5759 42.3607L62.8447 43.0429C62.6897 42.8767 62.6991 42.6166 62.8647 42.462L63.5471 43.193ZM63.5759 42.3607L64.3068 41.6782C63.7084 41.0373 62.7034 41.0021 62.0617 41.6004L62.7437 42.3318L63.4256 43.0632C63.2595 43.2181 62.9997 43.2088 62.8451 43.0432L63.5759 42.3607ZM62.7437 42.3318L63.4749 41.6497L62.9393 41.0756L62.2081 41.7577L61.4768 42.4399L62.0124 43.014L62.7437 42.3318ZM62.2081 41.7577L62.8903 42.4889C63.5334 41.8888 63.5647 40.8827 62.9675 40.2426L62.2363 40.9247L61.5051 41.6069C61.3517 41.4424 61.3584 41.1828 61.5259 41.0265L62.2081 41.7577ZM62.2363 40.9247L62.9669 40.242C62.3688 39.6019 61.364 39.5656 60.7219 40.1646L61.404 40.8958L62.0861 41.6271C61.9195 41.7825 61.6598 41.7725 61.5056 41.6074L62.2363 40.9247ZM61.404 40.8958L62.1352 40.2137L61.4664 39.4967L60.7352 40.1789L60.004 40.8611L60.6728 41.578L61.404 40.8958ZM60.7352 40.1789L61.4173 40.9101L63.1404 39.3026L62.4582 38.5714L61.7761 37.8402L60.053 39.4477L60.7352 40.1789ZM62.4582 38.5714L61.727 39.2536C62.3242 39.8937 63.33 39.9324 63.9733 39.3322L63.2912 38.601L62.609 37.8698C62.7765 37.7135 63.0361 37.7249 63.1894 37.8893L62.4582 38.5714ZM63.2912 38.601L63.9736 39.332C64.6161 38.7321 64.648 37.7262 64.0506 37.0859L63.3194 37.768L62.5882 38.4502C62.4345 38.2855 62.4417 38.0261 62.6087 37.8701L63.2912 38.601ZM63.3194 37.768L64.0015 38.4993L64.4321 38.0976L63.75 37.3663L63.0678 36.6351L62.6372 37.0368L63.3194 37.768ZM63.75 37.3663L63.0189 38.0486C63.6174 38.69 64.6226 38.7252 65.2644 38.1264L64.5822 37.3952L63.9001 36.664C64.0662 36.5091 64.3264 36.5183 64.481 36.6841L63.75 37.3663ZM64.5822 37.3952L65.2645 38.1263C65.8268 37.6016 65.9226 36.7662 65.5359 36.1349L64.6832 36.6573L63.8305 37.1797C63.7301 37.016 63.7541 36.8002 63.9 36.6641L64.5822 37.3952ZM64.6832 36.6573L65.4781 36.0507L65.4061 35.9563L64.6111 36.5629L63.8162 37.1696L63.8882 37.264L64.6832 36.6573ZM64.6111 36.5629L65.2933 37.2942L65.8681 36.7579L65.186 36.0267L64.5038 35.2955L63.929 35.8317L64.6111 36.5629ZM65.186 36.0267L64.4547 36.7088C65.0521 37.3492 66.0578 37.3872 66.7008 36.7877L66.0189 36.0563L65.337 35.3248C65.5042 35.1689 65.7635 35.1798 65.9172 35.3445L65.186 36.0267ZM66.0189 36.0563L66.7011 36.7875C67.264 36.2623 67.3584 35.4269 66.9729 34.7967L66.1198 35.3184L65.2667 35.8401C65.1672 35.6774 65.1901 35.4619 65.3367 35.3251L66.0189 36.0563ZM66.1198 35.3184L66.9143 34.7111L66.8416 34.616L66.0471 35.2233L65.2526 35.8306L65.3254 35.9257L66.1198 35.3184ZM66.0471 35.2233L66.7293 35.9545L67.3034 35.4189L66.6212 34.6877L65.9391 33.9565L65.365 34.4921L66.0471 35.2233ZM66.6212 34.6877L65.8901 35.3699C66.4887 36.0115 67.4939 36.0465 68.1357 35.4478L67.4535 34.7166L66.7714 33.9854C66.9374 33.8305 67.1976 33.8396 67.3524 34.0055L66.6212 34.6877ZM67.4535 34.7166L68.1359 35.4476C68.6968 34.924 68.7943 34.0899 68.4086 33.4583L67.5551 33.9794L66.7016 34.5005C66.6013 34.3362 66.6261 34.121 66.7712 33.9856L67.4535 34.7166ZM67.5551 33.9794L68.3496 33.3721L68.2769 33.277L67.4824 33.8843L66.6879 34.4916L66.7606 34.5867L67.5551 33.9794ZM67.4824 33.8843L68.1646 34.6155L68.7387 34.0799L68.0565 33.3487L67.3744 32.6175L66.8002 33.1531L67.4824 33.8843ZM68.0565 33.3487L67.3253 34.0308C67.9254 34.6741 68.9315 34.7053 69.5717 34.1081L68.8895 33.3769L68.2073 32.6457C68.3717 32.4923 68.6314 32.499 68.7877 32.6665L68.0565 33.3487ZM68.8895 33.3769L69.5721 34.1077C70.2126 33.5095 70.2486 32.5045 69.6496 31.8625L68.9184 32.5446L68.1872 33.2268C68.0319 33.0603 68.0417 32.8004 68.2069 32.6461L68.8895 33.3769ZM68.9184 32.5446L69.6005 33.2758L70.0311 32.8741L69.349 32.1429L68.6668 31.4117L68.2362 31.8134L68.9184 32.5446ZM69.349 32.1429L68.6178 32.8252C69.2167 33.467 70.2217 33.5009 70.863 32.9034L70.1813 32.1718L69.4995 31.4402C69.665 31.286 69.9249 31.2943 70.0801 31.4607L69.349 32.1429ZM70.1813 32.1718L70.8634 32.903C71.5036 32.3058 71.542 31.3 70.9421 30.6568L70.2109 31.3389L69.4796 32.0209C69.3234 31.8535 69.3346 31.594 69.4991 31.4406L70.1813 32.1718ZM70.2109 31.3389L70.893 32.0701L71.4664 31.5351L70.7843 30.8039L70.1021 30.0727L69.5287 30.6077L70.2109 31.3389ZM70.7843 30.8039L70.0532 31.4863C70.6521 32.1279 71.657 32.1618 72.2981 31.5645L71.6165 30.8328L70.9349 30.1011C71.1004 29.947 71.3601 29.9553 71.5153 30.1216L70.7843 30.8039ZM71.6165 30.8328L72.2987 31.564C72.939 30.9667 72.9772 29.961 72.3775 29.3179L71.6461 29.9999L70.9148 30.6818C70.7587 30.5145 70.7698 30.2551 70.9344 30.1016L71.6165 30.8328ZM71.6461 29.9999L72.3283 30.7311L72.9031 30.1948L72.221 29.4636L71.5388 28.7324L70.964 29.2687L71.6461 29.9999ZM72.221 29.4636L71.4898 30.1458C72.0869 30.7859 73.0928 30.8245 73.7361 30.2244L73.0539 29.4932L72.3718 28.762C72.5393 28.6057 72.7988 28.6171 72.9522 28.7814L72.221 29.4636ZM73.0539 29.4932L73.7363 30.2241C74.3788 29.6243 74.4107 28.6184 73.8133 27.978L73.0821 28.6602L72.3509 29.3424C72.1973 29.1776 72.2044 28.9182 72.3715 28.7622L73.0539 29.4932ZM73.0821 28.6602L73.7643 29.3914L75.4873 27.7839L74.8052 27.0527L74.123 26.3215L72.4 27.929L73.0821 28.6602ZM74.8052 27.0527L74.074 27.7349L74.7681 28.479L75.4993 27.7968L76.2305 27.1146L75.5364 26.3706L74.8052 27.0527Z" fill="#372F32" mask="url(#path-42-inside-15_2220_11258)"/>
</g>
<g filter="url(#filter6_n_2220_11258)">
<rect x="74.6411" y="31.7703" width="9.81734" height="13.1552" transform="rotate(46.9877 74.6411 31.7703)" fill="#80CBE8"/>
<rect x="74.6166" y="32.4769" width="8.81734" height="12.1552" transform="rotate(46.9877 74.6166 32.4769)" stroke="#372F32"/>
</g>
<defs>
<filter id="filter0_n_2220_11258" x="22.6123" y="8.56683" width="47.2642" height="48.4457" filterUnits="userSpaceOnUse" color-interpolation-filters="sRGB">
<feFlood flood-opacity="0" result="BackgroundImageFix"/>
<feBlend mode="normal" in="SourceGraphic" in2="BackgroundImageFix" result="shape"/>
<feTurbulence type="fractalNoise" baseFrequency="0.40000000596046448 0.40000000596046448" stitchTiles="stitch" numOctaves="3" result="noise" seed="4338" />
<feColorMatrix in="noise" type="luminanceToAlpha" result="alphaNoise" />
<feComponentTransfer in="alphaNoise" result="coloredNoise1">
<feFuncA type="discrete" tableValues="0 0 0 0 0 0 0 0 0 0 0 0 0 0 0 0 0 1 1 1 1 1 1 1 1 1 1 1 1 1 1 1 1 0 0 0 0 0 0 0 0 0 0 0 0 0 0 0 0 0 0 0 0 0 0 0 0 0 0 0 0 0 0 0 0 0 0 0 0 0 0 0 0 0 0 0 0 0 0 0 0 0 0 0 0 0 0 0 0 0 0 0 0 0 0 0 0 0 0 0 "/>
</feComponentTransfer>
<feComposite operator="in" in2="shape" in="coloredNoise1" result="noise1Clipped" />
<feFlood flood-color="#E75124" result="color1Flood" />
<feComposite operator="in" in2="noise1Clipped" in="color1Flood" result="color1" />
<feMerge result="effect1_noise_2220_11258">
<feMergeNode in="shape" />
<feMergeNode in="color1" />
</feMerge>
</filter>
<filter id="filter1_n_2220_11258" x="17" y="9.91943" width="58.1929" height="13.5265" filterUnits="userSpaceOnUse" color-interpolation-filters="sRGB">
<feFlood flood-opacity="0" result="BackgroundImageFix"/>
<feBlend mode="normal" in="SourceGraphic" in2="BackgroundImageFix" result="shape"/>
<feTurbulence type="fractalNoise" baseFrequency="0.40000000596046448 0.40000000596046448" stitchTiles="stitch" numOctaves="3" result="noise" seed="5903" />
<feColorMatrix in="noise" type="luminanceToAlpha" result="alphaNoise" />
<feComponentTransfer in="alphaNoise" result="coloredNoise1">
<feFuncA type="discrete" tableValues="0 0 0 0 0 0 0 0 0 0 0 0 0 0 0 0 0 0 1 1 1 1 1 1 1 1 1 1 1 1 1 0 0 0 0 0 0 0 0 0 0 0 0 0 0 0 0 0 0 0 0 0 0 0 0 0 0 0 0 0 0 0 0 0 0 0 0 0 0 0 0 0 0 0 0 0 0 0 0 0 0 0 0 0 0 0 0 0 0 0 0 0 0 0 0 0 0 0 0 0 "/>
</feComponentTransfer>
<feComposite operator="in" in2="shape" in="coloredNoise1" result="noise1Clipped" />
<feFlood flood-color="rgba(0, 0, 0, 0.25)" result="color1Flood" />
<feComposite operator="in" in2="noise1Clipped" in="color1Flood" result="color1" />
<feMerge result="effect1_noise_2220_11258">
<feMergeNode in="shape" />
<feMergeNode in="color1" />
</feMerge>
</filter>
<filter id="filter2_n_2220_11258" x="17" y="6.79437" width="58.1938" height="6.49884" filterUnits="userSpaceOnUse" color-interpolation-filters="sRGB">
<feFlood flood-opacity="0" result="BackgroundImageFix"/>
<feBlend mode="normal" in="SourceGraphic" in2="BackgroundImageFix" result="shape"/>
<feTurbulence type="fractalNoise" baseFrequency="0.40000000596046448 0.40000000596046448" stitchTiles="stitch" numOctaves="3" result="noise" seed="1133" />
<feColorMatrix in="noise" type="luminanceToAlpha" result="alphaNoise" />
<feComponentTransfer in="alphaNoise" result="coloredNoise1">
<feFuncA type="discrete" tableValues="0 0 0 0 0 0 0 0 0 0 0 0 0 0 0 0 0 0 1 1 1 1 1 1 1 1 1 1 1 1 1 0 0 0 0 0 0 0 0 0 0 0 0 0 0 0 0 0 0 0 0 0 0 0 0 0 0 0 0 0 0 0 0 0 0 0 0 0 0 0 0 0 0 0 0 0 0 0 0 0 0 0 0 0 0 0 0 0 0 0 0 0 0 0 0 0 0 0 0 0 "/>
</feComponentTransfer>
<feComposite operator="in" in2="shape" in="coloredNoise1" result="noise1Clipped" />
<feFlood flood-color="rgba(0, 0, 0, 0.25)" result="color1Flood" />
<feComposite operator="in" in2="noise1Clipped" in="color1Flood" result="color1" />
<feMerge result="effect1_noise_2220_11258">
<feMergeNode in="shape" />
<feMergeNode in="color1" />
</feMerge>
</filter>
<filter id="filter3_n_2220_11258" x="30.2925" y="0" width="31.3125" height="11.2252" filterUnits="userSpaceOnUse" color-interpolation-filters="sRGB">
<feFlood flood-opacity="0" result="BackgroundImageFix"/>
<feBlend mode="normal" in="SourceGraphic" in2="BackgroundImageFix" result="shape"/>
<feTurbulence type="fractalNoise" baseFrequency="0.40000000596046448 0.40000000596046448" stitchTiles="stitch" numOctaves="3" result="noise" seed="4271" />
<feColorMatrix in="noise" type="luminanceToAlpha" result="alphaNoise" />
<feComponentTransfer in="alphaNoise" result="coloredNoise1">
<feFuncA type="discrete" tableValues="0 0 0 0 0 0 0 0 0 0 0 0 0 0 0 0 0 0 1 1 1 1 1 1 1 1 1 1 1 1 1 0 0 0 0 0 0 0 0 0 0 0 0 0 0 0 0 0 0 0 0 0 0 0 0 0 0 0 0 0 0 0 0 0 0 0 0 0 0 0 0 0 0 0 0 0 0 0 0 0 0 0 0 0 0 0 0 0 0 0 0 0 0 0 0 0 0 0 0 0 "/>
</feComponentTransfer>
<feComposite operator="in" in2="shape" in="coloredNoise1" result="noise1Clipped" />
<feFlood flood-color="rgba(0, 0, 0, 0.25)" result="color1Flood" />
<feComposite operator="in" in2="noise1Clipped" in="color1Flood" result="color1" />
<feMerge result="effect1_noise_2220_11258">
<feMergeNode in="shape" />
<feMergeNode in="color1" />
</feMerge>
</filter>
<filter id="filter4_n_2220_11258" x="37.2397" y="31.9633" width="17.6826" height="25.3472" filterUnits="userSpaceOnUse" color-interpolation-filters="sRGB">
<feFlood flood-opacity="0" result="BackgroundImageFix"/>
<feBlend mode="normal" in="SourceGraphic" in2="BackgroundImageFix" result="shape"/>
<feTurbulence type="fractalNoise" baseFrequency="0.40000000596046448 0.40000000596046448" stitchTiles="stitch" numOctaves="3" result="noise" seed="9409" />
<feColorMatrix in="noise" type="luminanceToAlpha" result="alphaNoise" />
<feComponentTransfer in="alphaNoise" result="coloredNoise1">
<feFuncA type="discrete" tableValues="0 0 0 0 0 0 0 0 0 0 0 0 0 0 0 0 0 0 1 1 1 1 1 1 1 1 1 1 1 1 1 0 0 0 0 0 0 0 0 0 0 0 0 0 0 0 0 0 0 0 0 0 0 0 0 0 0 0 0 0 0 0 0 0 0 0 0 0 0 0 0 0 0 0 0 0 0 0 0 0 0 0 0 0 0 0 0 0 0 0 0 0 0 0 0 0 0 0 0 0 "/>
</feComponentTransfer>
<feComposite operator="in" in2="shape" in="coloredNoise1" result="noise1Clipped" />
<feFlood flood-color="#FEFDF5" result="color1Flood" />
<feComposite operator="in" in2="noise1Clipped" in="color1Flood" result="color1" />
<feMerge result="effect1_noise_2220_11258">
<feMergeNode in="shape" />
<feMergeNode in="color1" />
</feMerge>
</filter>
<filter id="filter5_n_2220_11258" x="60.7354" y="27.0527" width="25.187" height="25.0425" filterUnits="userSpaceOnUse" color-interpolation-filters="sRGB">
<feFlood flood-opacity="0" result="BackgroundImageFix"/>
<feBlend mode="normal" in="SourceGraphic" in2="BackgroundImageFix" result="shape"/>
<feTurbulence type="fractalNoise" baseFrequency="0.40000000596046448 0.40000000596046448" stitchTiles="stitch" numOctaves="3" result="noise" seed="8916" />
<feColorMatrix in="noise" type="luminanceToAlpha" result="alphaNoise" />
<feComponentTransfer in="alphaNoise" result="coloredNoise1">
<feFuncA type="discrete" tableValues="0 0 0 0 0 0 0 0 0 0 0 0 0 0 0 0 0 0 1 1 1 1 1 1 1 1 1 1 1 1 1 0 0 0 0 0 0 0 0 0 0 0 0 0 0 0 0 0 0 0 0 0 0 0 0 0 0 0 0 0 0 0 0 0 0 0 0 0 0 0 0 0 0 0 0 0 0 0 0 0 0 0 0 0 0 0 0 0 0 0 0 0 0 0 0 0 0 0 0 0 "/>
</feComponentTransfer>
<feComposite operator="in" in2="shape" in="coloredNoise1" result="noise1Clipped" />
<feFlood flood-color="rgba(0, 0, 0, 0.25)" result="color1Flood" />
<feComposite operator="in" in2="noise1Clipped" in="color1Flood" result="color1" />
<feMerge result="effect1_noise_2220_11258">
<feMergeNode in="shape" />
<feMergeNode in="color1" />
</feMerge>
</filter>
<filter id="filter6_n_2220_11258" x="65.022" y="31.7703" width="16.3159" height="16.1524" filterUnits="userSpaceOnUse" color-interpolation-filters="sRGB">
<feFlood flood-opacity="0" result="BackgroundImageFix"/>
<feBlend mode="normal" in="SourceGraphic" in2="BackgroundImageFix" result="shape"/>
<feTurbulence type="fractalNoise" baseFrequency="0.40000000596046448 0.40000000596046448" stitchTiles="stitch" numOctaves="3" result="noise" seed="9211" />
<feColorMatrix in="noise" type="luminanceToAlpha" result="alphaNoise" />
<feComponentTransfer in="alphaNoise" result="coloredNoise1">
<feFuncA type="discrete" tableValues="0 0 0 0 0 0 0 0 0 0 0 0 0 0 0 0 0 0 1 1 1 1 1 1 1 1 1 1 1 1 1 0 0 0 0 0 0 0 0 0 0 0 0 0 0 0 0 0 0 0 0 0 0 0 0 0 0 0 0 0 0 0 0 0 0 0 0 0 0 0 0 0 0 0 0 0 0 0 0 0 0 0 0 0 0 0 0 0 0 0 0 0 0 0 0 0 0 0 0 0 "/>
</feComponentTransfer>
<feComposite operator="in" in2="shape" in="coloredNoise1" result="noise1Clipped" />
<feFlood flood-color="#FFFEF6" result="color1Flood" />
<feComposite operator="in" in2="noise1Clipped" in="color1Flood" result="color1" />
<feMerge result="effect1_noise_2220_11258">
<feMergeNode in="shape" />
<feMergeNode in="color1" />
</feMerge>
</filter>
</defs>
</svg>
