<svg width="126" height="152" viewBox="0 0 126 152" fill="none" xmlns="http://www.w3.org/2000/svg">
<path d="M0.178545 40.4697C0.833133 49.9243 -3.05535 59.433 -11.1434 64.818C-15.4141 67.662 -20.7335 69.0755 -25.7851 68.3276C-27.1066 68.132 -28.1908 67.2663 -28.154 65.8177C-28.1217 64.6178 -26.9111 63.2115 -25.6006 63.4054C-18.0036 64.53 -11.3371 60.3079 -7.68467 54.097C-10.2905 55.3742 -13.1869 56.0344 -16.0601 55.8238C-17.3427 55.7287 -18.5376 54.6897 -18.429 53.3139C-18.3259 52.0409 -17.2467 50.8015 -15.8756 50.9015C-15.3244 50.9425 -14.7735 50.9503 -14.221 50.9169C-14.1099 50.9096 -13.9986 50.8991 -13.8891 50.8934C-13.6152 50.8544 -13.3429 50.8139 -13.0717 50.7622C-12.5054 50.6547 -11.9456 50.5106 -11.3942 50.3377C-11.2709 50.3006 -11.1489 50.2587 -11.0255 50.2183C-10.9549 50.1944 -10.9004 50.1765 -10.8618 50.1614C-10.6318 50.0693 -10.4034 49.9757 -10.1794 49.874C-9.67672 49.6463 -9.1842 49.3948 -8.70656 49.1175C-8.45396 48.9705 -8.20745 48.817 -7.96387 48.6571C-7.85997 48.5894 -7.75899 48.5154 -7.65508 48.4478C-7.64852 48.4416 -7.64688 48.44 -7.63867 48.4323C-7.21435 48.0986 -6.79916 47.7552 -6.40823 47.3828C-6.20298 47.1889 -6.00851 46.9868 -5.8186 46.7799C-5.72277 46.6741 -5.63163 46.5666 -5.5358 46.4608C-5.53087 46.4562 -5.52923 46.4546 -5.52419 46.4468C-5.34435 46.2128 -5.12748 46.0048 -4.89105 45.8242C-4.62869 43.7687 -4.6101 41.7512 -4.81968 39.7783C-8.54534 43.5058 -13.752 45.7135 -19.0131 45.6552C-20.7326 45.637 -22.3131 44.0677 -22.1711 42.3092C-22.0281 40.5223 -20.6022 39.0743 -18.7672 39.0933C-18.4474 39.0964 -18.1273 39.0933 -17.8069 39.0806C-17.6371 39.0729 -17.4703 39.0588 -17.3019 39.0463C-16.6386 38.9295 -15.9821 38.8253 -15.3293 38.6482C-15.0189 38.5657 -14.7129 38.4719 -14.4081 38.3703C-14.3471 38.3493 -14.0971 38.2291 -13.9952 38.2153C-13.9856 38.2123 -13.9775 38.2077 -13.9679 38.2048C-13.3386 37.9369 -12.7236 37.6307 -12.1311 37.2876C-11.851 37.1269 -11.577 36.9565 -11.3075 36.7813C-11.2669 36.7552 -11.2096 36.7072 -11.1541 36.6608C-11.2326 36.7289 -11.2451 36.7651 -11.0394 36.6013C-11.0181 36.5843 -11.0001 36.5672 -10.9789 36.5502C-10.9562 36.538 -10.9268 36.5132 -10.906 36.5089C-10.9172 36.5102 -10.9317 36.5179 -10.9446 36.524C-10.4401 36.1206 -9.94794 35.7106 -9.48745 35.2572C-9.2293 35.0041 -8.97712 34.7415 -8.73572 34.4706C-8.70264 34.4333 -8.66088 34.3755 -8.62076 34.3193C-8.67614 34.4021 -8.67896 34.4353 -8.52552 34.2293C-8.51379 34.2121 -8.50205 34.1949 -8.49032 34.1777C-8.46569 34.1545 -8.44211 34.1169 -8.41948 34.1047C-8.43402 34.1123 -8.44715 34.1247 -8.46345 34.1371C-8.05767 33.5797 -7.67523 33.0107 -7.33439 32.4108C-7.2072 32.1869 -7.04144 31.9906 -6.85882 31.8089C-9.20119 26.0557 -13.1811 20.8877 -17.6712 16.6141C-19.9485 14.4482 -16.3315 11.0432 -14.0604 13.2027C-6.46103 20.4349 -0.574884 29.7222 0.170698 40.4679L0.178545 40.4697ZM-13.9147 50.8992C-13.9147 50.8992 -13.8987 50.8963 -13.8908 50.8949C-14.0543 50.9059 -14.1742 50.9336 -13.9147 50.8992Z" fill="#6AC075" stroke="#382F32" stroke-width="0.5" stroke-miterlimit="10"/>
<path d="M2.11187 74.8649C2.23333 74.588 2.43091 74.3126 2.68098 74.0764C3.37525 73.4205 4.56525 72.96 5.54032 73.4919C8.26683 74.9694 10.5892 76.0945 12.8598 77.0329C13.9693 77.4929 15.052 77.9047 16.0798 78.2584L16.2442 78.3172C17.163 78.6147 17.3275 78.6735 18.5102 78.9571C19.4052 79.1701 20.2277 79.326 21.0235 79.4338C21.4403 79.4897 21.8754 79.5253 22.3021 79.5718C22.4322 79.5744 22.5143 79.5856 22.5523 79.5863C22.5995 79.5968 22.6535 79.5978 22.7106 79.599C23.4274 79.5672 24.1467 79.5148 24.9022 79.4282L24.9948 79.411C25.0678 79.4124 25.1446 79.3949 25.2106 79.3692C25.3975 79.3364 25.529 79.3009 25.6345 79.238C25.7758 79.1932 25.9072 79.1608 26.0394 79.1063C26.1442 79.0624 26.2573 79.0075 26.3795 78.9655C26.5208 78.9207 26.6916 78.8511 26.8532 78.7321C26.892 78.7138 26.9101 78.6967 26.9397 78.6687C27.0732 78.5793 27.1892 78.488 27.2847 78.3979C27.3971 78.362 27.4927 78.3084 27.5799 78.226L27.6573 78.1529C27.8048 77.9432 27.9806 77.7404 28.1357 77.5388C28.2018 77.5131 28.2685 77.4684 28.3277 77.4124C28.4248 77.3207 28.4542 77.2562 28.5462 77.0438C28.5561 77.0345 28.8793 76.3712 28.929 76.2326C29.0104 76.0485 29.0828 75.8548 29.1551 75.661L29.2373 75.4579C29.2387 75.4199 29.2715 75.2634 29.2821 75.2351L29.3727 74.81C29.4527 74.4101 29.5418 74.023 29.5952 73.6147C29.6225 73.3931 29.6392 73.1601 29.659 72.9272C29.659 72.9272 29.7166 72.4079 29.7081 72.3791L29.7144 72.211C29.7108 71.5873 29.7063 70.9461 29.6654 70.3026C29.5763 68.952 29.3958 67.544 29.1017 65.9925C29.0159 65.5718 28.9284 65.1528 28.8312 64.7398C28.8327 64.7018 28.7834 64.5342 28.7834 64.5342L28.6939 64.169C28.492 63.3747 28.2688 62.5975 28.0472 61.8218C27.0289 58.4612 25.6879 54.9926 23.9238 51.2078C16.4427 35.0842 4.61896 19.6584 -9.3666 7.75874C-9.95229 7.2536 -10.273 6.62359 -10.2831 5.91722C-10.3001 5.14405 -9.93491 4.33403 -9.3081 3.74184C-8.52663 3.00354 -7.26512 2.58262 -6.05476 3.61112C2.51927 10.8983 10.356 19.5674 17.2544 29.3889C21.185 34.9845 24.5391 40.5496 27.2944 46.0013C32.6556 51.0682 41.8631 59.3629 45.6612 61.6329C49.7652 64.085 54.2985 66.2601 59.2163 66.1353C62.6059 66.0533 65.8874 64.6203 67.7014 61.6522C70.0978 57.7547 69.5045 52.7933 68.4493 48.6417C67.6715 45.5556 72.5054 44.4517 73.2748 47.5091C74.7178 53.2124 75.0103 60.0578 71.2856 65.1002C64.3674 74.4354 51.3344 71.162 43.175 65.9397C39.2321 63.4241 35.5475 60.4105 32.1148 57.1988C33.9005 62.1838 35.4012 68.0835 34.8393 73.8884C34.5346 77.0641 33.2386 79.8853 31.1838 81.8267C29.6307 83.2939 27.7162 84.2431 25.4973 84.6355C22.9492 85.0881 20.0367 84.8447 16.5562 83.8807C12.504 82.7594 8.33558 81.0105 3.45847 78.3558C2.31804 77.7476 1.41992 76.3905 2.1181 74.8682L2.11187 74.8649Z" fill="#6AC075" stroke="#382F32" stroke-width="0.5" stroke-miterlimit="10"/>
<path d="M95.7333 -13.4924C97.728 -4.33559 94.236 4.90259 87.8431 11.7089C82.181 17.7362 74.9242 20.8395 67.1746 22.045C66.6966 22.2462 60.9212 22.6766 58.5205 22.6607C49.9486 22.6033 42.5203 20.3938 35.8892 16.7746C32.4779 18.999 28.5747 20.3598 24.4658 20.1929C19.9015 20.0074 15.684 18.0041 12.5639 14.7411C11.5244 13.6529 11.5259 11.6698 12.7177 10.6385C13.9258 9.59483 15.7045 9.55405 16.8203 10.7198C17.1434 11.0588 17.478 11.387 17.8291 11.6965C17.8996 11.7581 17.9717 11.8213 18.0439 11.8813C18.181 11.9838 18.315 12.0863 18.4554 12.1857C19.1791 12.6989 19.9472 13.1244 20.7452 13.5125C20.7561 13.5174 20.7578 13.5159 20.7687 13.5208C21.0046 13.6063 21.234 13.698 21.4718 13.7787C21.8848 13.9168 22.3048 14.036 22.7287 14.1363C22.9109 14.1779 23.0916 14.2179 23.2771 14.2532C23.3385 14.2655 23.3999 14.2747 23.4597 14.2854C23.8672 14.3156 24.2705 14.3743 24.6801 14.3903C25.0882 14.4079 25.4969 14.4065 25.9062 14.3893C26.0522 14.3827 26.5923 14.3395 26.6862 14.3271C27.5877 14.1961 28.4794 13.9857 29.3469 13.7035C29.4992 13.6542 30.2746 13.337 30.3406 13.3082C22.0214 7.43949 14.968 -0.589987 8.36942 -9.00646C5.98999 -12.041 10.4356 -16.2929 12.8393 -13.2294C21.6478 -1.99091 31.3182 9.66702 44.9955 14.3636C45.3738 13.7803 45.7412 13.1889 46.0714 12.5776C46.2094 12.319 46.3459 12.0588 46.473 11.7952C46.5074 11.723 46.54 11.6556 46.5643 11.599C46.7401 11.1764 46.9128 10.7537 47.0604 10.3211C47.2169 9.86484 47.3515 9.40182 47.464 8.93519C47.511 8.73813 47.5501 8.53932 47.5909 8.33897C47.6087 8.24586 47.6286 8.13539 47.6325 8.07369C47.6771 7.60414 47.723 7.13936 47.7295 6.66905C47.7333 6.39985 47.7227 6.13196 47.717 5.86257C47.7129 5.8023 47.7088 5.74203 47.7048 5.68176C47.5874 5.22166 47.5631 4.72856 47.4521 4.26543C47.3962 4.02514 47.3323 3.78629 47.2619 3.55047C47.2508 3.50906 47.1624 3.24754 47.1129 3.08975C47.049 2.93326 46.9393 2.64913 46.9219 2.60761C46.8154 2.36315 46.7025 2.12173 46.5863 1.88342C46.3389 1.38432 46.0672 0.898997 45.7744 0.427509C45.6206 0.178948 45.4585 -0.0618576 45.2981 -0.304215C45.2845 -0.321909 45.2816 -0.328302 45.2695 -0.34438C45.2002 -0.437624 45.1308 -0.530869 45.0598 -0.622565C44.6573 -1.12474 44.2578 -1.62368 43.8275 -2.10264C42.8301 -3.21534 41.7422 -4.23638 40.6081 -5.20765C39.4263 -6.21946 39.6977 -8.30491 40.7618 -9.31024C42.0115 -10.4909 43.6796 -10.244 44.8644 -9.22894C48.9682 -5.71359 52.7693 -1.05429 53.3962 4.53369C53.8475 8.55323 52.7405 12.393 50.7965 15.8725C51.0797 15.9224 51.3611 15.9803 51.6477 16.024C55.8789 16.6891 60.3744 16.8938 64.7684 16.3853C65.0707 15.9256 65.3623 15.4578 65.6337 14.9785C65.8948 14.5211 66.1247 14.0505 66.3639 13.5832C66.3827 13.5472 66.3912 13.5331 66.4031 13.5096C66.4101 13.4939 66.4102 13.4907 66.4189 13.4703C66.5287 13.2016 66.6417 12.933 66.7422 12.6609C67.0629 11.7961 67.3004 10.9122 67.4846 10.0114C67.5057 9.87245 67.5589 9.55038 67.5669 9.46342C67.5891 9.25319 67.6082 9.03973 67.6208 8.82932C67.655 8.2962 67.6608 7.76252 67.638 7.22827C67.6328 7.11412 67.5826 6.67912 67.5896 6.70302C67.5637 6.50768 67.5408 6.31556 67.5085 6.12009C67.4203 5.59881 67.3049 5.0849 67.1656 4.57527C67.1028 4.35069 67.0383 4.12766 66.9658 3.90605C66.929 3.78811 66.889 3.67327 66.8474 3.55681C66.8374 3.52969 66.8315 3.5169 66.8185 3.48338C66.59 2.94506 66.3645 2.40996 66.1022 1.88522C65.8252 1.33168 65.5224 0.790301 65.2016 0.262823C65.0076 -0.0546485 64.8086 -0.367463 64.6016 -0.675687C64.594 -0.683757 64.397 -0.964855 64.3175 -1.08206C63.3982 -2.33577 62.3763 -3.51073 61.3033 -4.63443C60.2319 -5.75968 60.3108 -7.65412 61.457 -8.73701C62.6032 -9.81991 64.482 -9.78426 65.5596 -8.65572C69.7126 -4.29831 73.0644 0.938164 73.4264 7.12755C73.5798 9.75521 73.0393 12.3422 72.0718 14.7861C74.977 13.8093 77.7283 12.4161 80.1993 10.512C87.079 5.21537 91.6527 -3.42639 89.7731 -12.063C88.9419 -15.8762 94.89 -17.3217 95.7253 -13.491L95.7333 -13.4924ZM47.5761 8.43847C47.5646 8.4921 47.5626 8.50314 47.5761 8.43847V8.43847Z" fill="#6AC075" stroke="#382F32" stroke-width="0.5" stroke-miterlimit="10"/>
<path d="M19.2675 -20.2457C24.631 -17.6567 28.3993 -12.4417 28.9955 -6.44975C29.5523 -0.84985 26.8703 4.54433 25.4261 9.84852C23.8746 15.5514 23.8657 21.2228 27.3958 26.1293C31.5368 31.8845 38.3207 34.4285 44.1655 38.0131C49.2125 41.1095 55.7165 47.6431 51.9145 54.1904C50.6308 56.3996 53.9615 58.4807 55.2538 56.2542C58.3739 50.8814 56.625 44.3689 52.8369 39.9359C47.8482 34.0956 40.0245 32.0463 34.131 27.3856C31.4199 25.2404 29.1295 22.4404 28.4887 18.9525C27.9866 16.2229 28.5229 13.4168 29.2602 10.7611C30.8712 4.956 33.4714 -0.719722 32.9153 -6.84764C32.2705 -13.9586 27.7989 -20.5267 21.3918 -23.6199C19.1405 -24.7062 16.9865 -21.3469 19.2675 -20.2457Z" fill="#6AC075" stroke="#382F32" stroke-width="0.5" stroke-miterlimit="10"/>
<path d="M13.3563 48.4135C16.4219 46.3701 16.83 42.4172 15.5111 39.2769C15.2929 38.7525 15.0514 38.2593 14.7688 37.8018C14.8056 37.7946 14.8423 37.7874 14.8774 37.7818C22.4154 36.688 28.4851 42.5721 33.3255 47.371C35.1057 49.1188 38.1874 46.6016 36.4047 44.8348C30.9002 39.3947 24.5512 33.475 16.1785 33.7403C14.7402 33.7848 13.2773 34.0206 11.8965 34.4784C10.4614 34.9447 9.10329 35.6441 7.92894 36.6007C7.60628 36.875 7.28609 37.1683 6.97914 37.4889C4.67352 39.9025 3.67573 43.4251 5.43474 46.3728C7.07331 49.1072 10.5298 50.2983 13.3564 48.4104L13.3563 48.4135ZM8.55259 42.2992C8.87195 40.9704 9.78354 39.9594 10.9099 39.2254C12.1457 40.8181 12.9942 42.8867 11.8207 44.5395C10.2621 46.7792 8.08016 44.2006 8.55259 42.2992Z" fill="#6AC075" stroke="#382F32" stroke-width="0.5" stroke-miterlimit="10"/>
<path d="M-25.2187 18.7782C-25.2093 16.2391 -21.2758 16.5634 -21.2768 19.0914C-21.2835 22.6205 -18.4755 25.4139 -15.5564 26.9416C-11.9502 28.834 -7.66459 29.0493 -3.67276 29.4287C1.51008 29.9143 7.67402 30.8913 11.8159 34.2626C10.3778 34.7299 9.01669 35.4307 7.83981 36.3893C5.59676 35.0133 2.99444 34.2769 0.400444 33.8696C-5.49453 32.9662 -11.8137 33.2907 -17.237 30.5296C-21.7634 28.2169 -25.2188 24.0806 -25.2187 18.7782Z" fill="#6AC075" stroke="#382F32" stroke-width="0.5" stroke-miterlimit="10"/>
<path d="M14.7153 37.7483C13.2874 37.9285 12.0166 38.4228 10.8755 39.166L14.7153 37.7483Z" fill="#6AC075"/>
<path d="M14.7153 37.7483L14.6854 37.5123C13.2197 37.6972 11.915 38.2049 10.7456 38.9666L10.8755 39.166L11.0053 39.3654C12.1182 38.6406 13.3551 38.1598 14.7453 37.9844L14.7153 37.7483Z" fill="#382F32"/>
<path d="M57.9529 53.945C59.857 51.6389 56.9579 48.5673 54.5478 50.3373C52.9738 47.8529 49.1055 49.7112 50.0049 52.5214C47.1267 53.2916 47.6357 57.5123 50.6035 57.4792C50.399 60.4402 54.5816 61.1902 55.5164 58.361C58.269 59.4202 60.3448 55.6627 57.9559 53.9483L57.9529 53.945Z" fill="#FAE100" stroke="#382F32" stroke-width="0.5" stroke-miterlimit="10"/>
<path d="M53.0988 53.8623C52.0982 54.8076 53.5401 56.3385 54.5423 55.3917C55.5445 54.4448 54.101 52.9154 53.0988 53.8623Z" fill="#E87E8D" stroke="#382F32" stroke-width="0.5" stroke-miterlimit="10"/>
<path d="M39.6672 44.27C41.5713 41.9639 38.6723 38.8923 36.2621 40.6623C34.6881 38.1779 30.8199 40.0362 31.7193 42.8463C28.841 43.6165 29.35 47.8373 32.3179 47.8042C32.1134 50.7651 36.2959 51.5152 37.2308 48.6859C39.9834 49.7452 42.0592 45.9877 39.6703 44.2733L39.6672 44.27Z" fill="#FFFEF6" stroke="#382F32" stroke-width="0.5" stroke-miterlimit="10"/>
<path d="M34.8127 44.1866C33.8121 45.1319 35.2539 46.6629 36.2562 45.716C37.2584 44.7691 35.8149 43.2397 34.8127 44.1866Z" fill="#FAE100" stroke="#382F32" stroke-width="0.5" stroke-miterlimit="10"/>
<path d="M5.32237 44.1979C7.8794 44.4577 8.77336 40.855 6.37459 39.9662C7.45307 37.6125 4.31753 35.7092 2.69068 37.7288C0.802901 36.0151 -2.03221 38.4402 -0.63883 40.5782C-2.88494 41.8725 -1.49939 45.2764 0.987461 44.5763C1.48736 47.0911 5.1785 46.7682 5.32237 44.1979Z" fill="#E87E8D" stroke="#382F32" stroke-width="0.5" stroke-miterlimit="10"/>
<path d="M3.14658 40.6267C1.99677 40.3599 1.5509 42.1525 2.70071 42.4193C3.85051 42.6861 4.29639 40.8934 3.14658 40.6267Z" fill="#FAE100" stroke="#382F32" stroke-width="0.5" stroke-miterlimit="10"/>
<path d="M54.7719 17.2243C54.8847 19.7933 51.2386 20.48 50.489 18.033C48.0786 18.9756 46.3589 15.7346 48.4673 14.2252C46.8654 12.2415 49.4475 9.54842 51.5012 11.0626C52.9214 8.89317 56.2386 10.472 55.3976 12.916C57.8784 13.5593 57.3448 17.2277 54.7719 17.2243Z" fill="#E65325" stroke="#382F32" stroke-width="0.5" stroke-miterlimit="10"/>
<path d="M51.3363 14.8439C51.1359 13.6801 52.9503 13.3374 53.1506 14.5012C53.351 15.6649 51.5367 16.0077 51.3363 14.8439Z" fill="#FAE100" stroke="#382F32" stroke-width="0.5" stroke-miterlimit="10"/>
<path d="M56.4243 45.7881C59.4632 49.8493 64.4358 51.2542 67.531 48.9262C70.6261 46.5982 70.6717 41.4188 67.6328 37.3577C64.5939 33.2965 59.6213 31.8916 56.5261 34.2196C53.431 36.5476 53.3854 41.727 56.4243 45.7881Z" fill="#E65325" stroke="#382F32" stroke-width="0.5" stroke-miterlimit="10"/>
<path d="M68.7976 37.0862C68.7424 42.1795 71.7697 46.2876 75.5593 46.2619C79.349 46.2363 82.4659 42.0865 82.5211 36.9932C82.5763 31.9 79.549 27.7918 75.7594 27.8175C71.9697 27.8432 68.8529 31.9929 68.7976 37.0862Z" fill="#E65325" stroke="#382F32" stroke-width="0.5" stroke-miterlimit="10"/>
<path d="M60.9825 41.9523C62.7243 47.2736 67.4211 50.4803 71.4731 49.1148C75.525 47.7493 77.3977 42.3286 75.6559 37.0073C73.914 31.6861 69.2172 28.4793 65.1653 29.8448C61.1133 31.2104 59.2406 36.6311 60.9825 41.9523Z" fill="#E65325" stroke="#382F32" stroke-width="0.5" stroke-miterlimit="10"/>
<path d="M7.60658 76.2766C11.0409 80.0092 16.1338 80.9077 18.9819 78.2834C21.83 75.6591 21.3548 70.5059 17.9205 66.7733C14.4862 63.0407 9.39329 62.1422 6.54517 64.7665C3.69705 67.3908 4.17226 72.5441 7.60658 76.2766Z" fill="#FAE100" stroke="#382F32" stroke-width="0.5" stroke-miterlimit="10"/>
<path d="M-3.23396 82.5097C-3.95427 86.3183 -0.487119 90.1216 4.51015 91.0044C9.50741 91.8873 14.1424 89.5155 14.8627 85.7069C15.5831 81.8983 12.1159 78.0951 7.11864 77.2122C2.12138 76.3293 -2.51364 78.7011 -3.23396 82.5097Z" fill="#FAE100" stroke="#382F32" stroke-width="0.5" stroke-miterlimit="10"/>
<path d="M0.678821 72.4734C-1.39364 76.212 0.906384 81.4231 5.81608 84.1127C10.7258 86.8023 16.3859 85.952 18.4584 82.2134C20.5309 78.4748 18.2308 73.2637 13.3211 70.5741C8.41145 67.8844 2.75129 68.7348 0.678821 72.4734Z" fill="#FAE100" stroke="#382F32" stroke-width="0.5" stroke-miterlimit="10"/>
<path d="M79.7018 -22.7343C80.1694 -23.6708 90.0733 -17.9771 90.7702 -18.6905C91.4902 -19.4287 85.5384 -29.1617 86.4275 -29.6353C87.3279 -30.1133 91.8893 -19.6347 92.8878 -19.8145C93.8768 -19.9946 94.8394 -31.4743 95.8513 -31.337C96.8271 -31.2052 94.3027 -19.9449 95.2331 -19.4924C96.162 -19.0415 103.678 -27.8739 104.38 -27.193C105.106 -26.4863 96.4612 -18.7377 96.9192 -17.8541C97.3817 -16.9625 108.589 -19.7839 108.752 -18.7873C108.915 -17.8018 97.4619 -16.5252 97.3067 -15.5112C97.1575 -14.5335 107.771 -10.2611 107.301 -9.32294C106.834 -8.38639 96.9298 -14.0801 96.2329 -13.3667C95.5129 -12.6285 101.465 -2.89546 100.576 -2.42195C99.6752 -1.94391 95.1139 -12.4225 94.1154 -12.2427C93.1264 -12.0626 92.1638 -0.582902 91.1518 -0.720191C90.1761 -0.852008 92.7005 -12.1123 91.77 -12.5648C90.8411 -13.0157 83.3253 -4.18327 82.6236 -4.86416C81.8976 -5.57088 90.542 -13.3195 90.084 -14.2031C89.6215 -15.0947 78.4146 -12.2733 78.2508 -13.2699C78.0881 -14.2554 89.5412 -15.532 89.6965 -16.546C89.8456 -17.5237 79.2325 -21.7961 79.7018 -22.7343Z" fill="#E87E8D" stroke="#382F32" stroke-width="0.5" stroke-miterlimit="10"/>
<path d="M79.7018 -22.7343C80.1694 -23.6708 90.0733 -17.9771 90.7702 -18.6905C91.4902 -19.4287 85.5384 -29.1617 86.4275 -29.6353C87.3279 -30.1133 91.8893 -19.6347 92.8878 -19.8145C93.8768 -19.9946 94.8394 -31.4743 95.8513 -31.337C96.8271 -31.2052 94.3027 -19.9449 95.2331 -19.4924C96.162 -19.0415 103.678 -27.8739 104.38 -27.193C105.106 -26.4863 96.4612 -18.7377 96.9192 -17.8541C97.3817 -16.9625 108.589 -19.7839 108.752 -18.7873C108.915 -17.8018 97.4619 -16.5252 97.3067 -15.5112C97.1575 -14.5335 107.771 -10.2611 107.301 -9.32294C106.834 -8.38639 96.9298 -14.0801 96.2329 -13.3667C95.5129 -12.6285 101.465 -2.89546 100.576 -2.42195C99.6752 -1.94391 95.1139 -12.4225 94.1154 -12.2427C93.1264 -12.0626 92.1638 -0.582902 91.1518 -0.720191C90.1761 -0.852008 92.7005 -12.1123 91.77 -12.5648C90.8411 -13.0157 83.3253 -4.18327 82.6236 -4.86416C81.8976 -5.57088 90.542 -13.3195 90.084 -14.2031C89.6215 -15.0947 78.4146 -12.2733 78.2508 -13.2699C78.0881 -14.2554 89.5412 -15.532 89.6965 -16.546C89.8456 -17.5237 79.2325 -21.7961 79.7018 -22.7343Z" fill="#E87E8D" stroke="#382F32" stroke-width="0.5" stroke-miterlimit="10"/>
<path d="M-6.10598 16.39C-6.34368 15.0386 8.80613 13.1651 8.98789 11.8664C9.17612 10.5218 -4.92672 5.04741 -4.343 3.84538C-3.75411 2.63237 9.44467 9.99324 10.375 9.01355C11.2954 8.04317 3.23793 -4.73402 4.43486 -5.38839C5.58979 -6.02142 11.794 7.75836 13.149 7.49528C14.5054 7.23381 15.5866 -7.95902 16.8798 -7.80031C18.2219 -7.63588 15.0681 7.31309 16.2591 7.87377C17.4625 8.44104 27.2703 -3.37539 28.2359 -2.46428C29.1906 -1.56131 17.8946 8.83301 18.5314 10.018C19.1445 11.1614 33.9324 7.23533 34.1732 8.58677C34.4141 9.93822 19.2611 11.8117 19.0794 13.1104C18.8911 14.4549 32.994 19.9293 32.4103 21.1314C31.8214 22.3444 18.6226 14.9835 17.6923 15.9632C16.7719 16.9336 24.8293 29.7108 23.6324 30.3652C22.4775 30.9982 16.2732 17.2184 14.9183 17.4815C13.5618 17.7429 12.4806 32.9358 11.1874 32.7771C9.84535 32.6126 12.9992 17.6637 11.8082 17.103C10.6048 16.5357 0.796952 28.3521 -0.168606 27.441C-1.12338 26.5381 10.1727 16.1438 9.53582 14.9587C8.92277 13.8154 -5.86512 17.7414 -6.10598 16.39Z" fill="#FAE100" stroke="#382F32" stroke-width="0.5" stroke-miterlimit="10"/>
<path d="M-6.10598 16.39C-6.34368 15.0386 8.80613 13.1651 8.98789 11.8664C9.17612 10.5218 -4.92672 5.04741 -4.343 3.84538C-3.75411 2.63237 9.44467 9.99324 10.375 9.01355C11.2954 8.04317 3.23793 -4.73402 4.43486 -5.38839C5.58979 -6.02142 11.794 7.75836 13.149 7.49528C14.5054 7.23381 15.5866 -7.95902 16.8798 -7.80031C18.2219 -7.63588 15.0681 7.31309 16.2591 7.87377C17.4625 8.44104 27.2703 -3.37539 28.2359 -2.46428C29.1906 -1.56131 17.8946 8.83301 18.5314 10.018C19.1445 11.1614 33.9324 7.23533 34.1732 8.58677C34.4141 9.93822 19.2611 11.8117 19.0794 13.1104C18.8911 14.4549 32.994 19.9293 32.4103 21.1314C31.8214 22.3444 18.6226 14.9835 17.6923 15.9632C16.7719 16.9336 24.8293 29.7108 23.6324 30.3652C22.4775 30.9982 16.2732 17.2184 14.9183 17.4815C13.5618 17.7429 12.4806 32.9358 11.1874 32.7771C9.84535 32.6126 12.9992 17.6637 11.8082 17.103C10.6048 16.5357 0.796952 28.3521 -0.168606 27.441C-1.12338 26.5381 10.1727 16.1438 9.53582 14.9587C8.92277 13.8154 -5.86512 17.7414 -6.10598 16.39Z" fill="#FAE100" stroke="#382F32" stroke-width="0.5" stroke-miterlimit="10"/>
<path d="M12.7954 11.1794C12.0596 11.8745 12.0165 13.0244 12.6991 13.7476C13.3818 14.4709 14.5316 14.4936 15.2674 13.7985C16.0031 13.1033 16.0462 11.9535 15.3636 11.2303C14.681 10.507 13.5312 10.4842 12.7954 11.1794Z" fill="#FFFEF6" stroke="#382F32" stroke-width="0.5" stroke-miterlimit="10"/>
</svg>
