<svg width="81" height="51" viewBox="0 0 81 51" fill="none" xmlns="http://www.w3.org/2000/svg">
<mask id="path-1-outside-1_2125_6385" maskUnits="userSpaceOnUse" x="0.374356" y="25.9856" width="18.3" height="19.2223" fill="black">
<rect fill="white" x="0.374356" y="25.9856" width="18.3" height="19.2223"/>
<path d="M9.90985 42.8683C8.48719 42.9751 7.20727 42.757 6.07008 42.214C4.9319 41.6576 4.02072 40.8302 3.33656 39.7317C2.65239 38.6331 2.2534 37.326 2.1396 35.8103C2.02679 34.3078 2.23327 32.9619 2.75903 31.7726C3.29708 30.5689 4.08779 29.6137 5.13113 28.9069C6.18677 28.1858 7.41263 27.7729 8.8087 27.6681C10.3377 27.5533 11.6667 27.8011 12.7956 28.4117C13.9234 29.0089 14.7803 29.914 15.3661 31.1268C15.3814 31.1524 15.391 31.1918 15.395 31.245C15.404 31.3647 15.3496 31.4423 15.232 31.4779L13.1429 32.2364L13.0646 32.2623C12.945 32.2713 12.8607 32.2175 12.8118 32.1008C12.4162 31.462 11.8925 30.9865 11.2406 30.6744C10.6021 30.3614 9.8706 30.2358 9.04625 30.2977C7.65018 30.4025 6.58721 30.9369 5.85734 31.9009C5.12747 32.865 4.81943 34.1048 4.93324 35.6206C5.04604 37.123 5.53526 38.2963 6.4009 39.1406C7.27884 39.9705 8.40919 40.3335 9.79197 40.2297C10.8955 40.1469 11.7853 39.7993 12.4614 39.1869C13.1497 38.5603 13.5082 37.7245 13.5367 36.6794L9.88693 36.9534C9.71409 36.9664 9.62117 36.8865 9.6082 36.7136L9.45995 34.7392C9.44697 34.5663 9.52691 34.4734 9.69975 34.4604L15.8026 34.0022C15.9754 33.9892 16.0683 34.0692 16.0813 34.242L16.2056 35.8974C16.2984 37.1339 16.1159 38.2641 15.6579 39.2879C15.2123 40.2974 14.4985 41.1198 13.5166 41.7551C12.5348 42.3904 11.3325 42.7615 9.90985 42.8683Z"/>
</mask>
<path d="M9.90985 42.8683C8.48719 42.9751 7.20727 42.757 6.07008 42.214C4.9319 41.6576 4.02072 40.8302 3.33656 39.7317C2.65239 38.6331 2.2534 37.326 2.1396 35.8103C2.02679 34.3078 2.23327 32.9619 2.75903 31.7726C3.29708 30.5689 4.08779 29.6137 5.13113 28.9069C6.18677 28.1858 7.41263 27.7729 8.8087 27.6681C10.3377 27.5533 11.6667 27.8011 12.7956 28.4117C13.9234 29.0089 14.7803 29.914 15.3661 31.1268C15.3814 31.1524 15.391 31.1918 15.395 31.245C15.404 31.3647 15.3496 31.4423 15.232 31.4779L13.1429 32.2364L13.0646 32.2623C12.945 32.2713 12.8607 32.2175 12.8118 32.1008C12.4162 31.462 11.8925 30.9865 11.2406 30.6744C10.6021 30.3614 9.8706 30.2358 9.04625 30.2977C7.65018 30.4025 6.58721 30.9369 5.85734 31.9009C5.12747 32.865 4.81943 34.1048 4.93324 35.6206C5.04604 37.123 5.53526 38.2963 6.4009 39.1406C7.27884 39.9705 8.40919 40.3335 9.79197 40.2297C10.8955 40.1469 11.7853 39.7993 12.4614 39.1869C13.1497 38.5603 13.5082 37.7245 13.5367 36.6794L9.88693 36.9534C9.71409 36.9664 9.62117 36.8865 9.6082 36.7136L9.45995 34.7392C9.44697 34.5663 9.52691 34.4734 9.69975 34.4604L15.8026 34.0022C15.9754 33.9892 16.0683 34.0692 16.0813 34.242L16.2056 35.8974C16.2984 37.1339 16.1159 38.2641 15.6579 39.2879C15.2123 40.2974 14.4985 41.1198 13.5166 41.7551C12.5348 42.3904 11.3325 42.7615 9.90985 42.8683Z" fill="#8B688D"/>
<path d="M6.07008 42.214L5.63092 43.1124L5.63916 43.1163L6.07008 42.214ZM3.33656 39.7317L2.48772 40.2603V40.2603L3.33656 39.7317ZM2.75903 31.7726L1.84608 31.3645L1.8444 31.3682L2.75903 31.7726ZM5.13113 28.9069L5.69198 29.7348L5.69516 29.7327L5.13113 28.9069ZM12.7956 28.4117L12.3198 29.2913L12.3276 29.2954L12.7956 28.4117ZM15.3661 31.1268L14.4656 31.5617L14.4849 31.6017L14.5076 31.6398L15.3661 31.1268ZM15.232 31.4779L14.9426 30.5207L14.9164 30.5286L14.8907 30.5379L15.232 31.4779ZM13.1429 32.2364L13.4574 33.1857L13.4709 33.1812L13.4842 33.1764L13.1429 32.2364ZM13.0646 32.2623L13.1395 33.2595L13.2623 33.2503L13.3791 33.2116L13.0646 32.2623ZM12.8118 32.1008L13.7342 31.7144L13.7036 31.6415L13.662 31.5743L12.8118 32.1008ZM11.2406 30.6744L10.8004 31.5724L10.8088 31.5764L11.2406 30.6744ZM5.85734 31.9009L5.06007 31.2973L5.85734 31.9009ZM6.4009 39.1406L5.70271 39.8565L5.70828 39.8619L5.71394 39.8673L6.4009 39.1406ZM12.4614 39.1869L13.1327 39.9281L13.1346 39.9264L12.4614 39.1869ZM13.5367 36.6794L14.5363 36.7067L14.5665 35.5993L13.4618 35.6822L13.5367 36.6794ZM15.6579 39.2879L14.7451 38.8796L14.7431 38.884L15.6579 39.2879ZM13.5166 41.7551L12.9734 40.9156V40.9156L13.5166 41.7551ZM9.90985 42.8683L9.83498 41.8711C8.5629 41.9666 7.46085 41.7699 6.50101 41.3116L6.07008 42.214L5.63916 43.1163C6.95369 43.7441 8.41148 43.9836 9.98472 43.8655L9.90985 42.8683ZM6.07008 42.214L6.50923 41.3155C5.54338 40.8434 4.77264 40.1459 4.18539 39.203L3.33656 39.7317L2.48772 40.2603C3.26881 41.5145 4.32042 42.4718 5.63094 43.1124L6.07008 42.214ZM3.33656 39.7317L4.18539 39.203C3.60033 38.2636 3.24061 37.1182 3.13679 35.7354L2.1396 35.8103L1.1424 35.8851C1.26619 37.5338 1.70445 39.0027 2.48772 40.2603L3.33656 39.7317ZM2.1396 35.8103L3.13679 35.7354C3.03434 34.3709 3.22428 33.1934 3.67365 32.1769L2.75903 31.7726L1.8444 31.3682C1.24226 32.7304 1.01924 34.2448 1.1424 35.8851L2.1396 35.8103ZM2.75903 31.7726L3.67197 32.1807C4.13772 31.1387 4.81009 30.3322 5.69197 29.7348L5.13113 28.9069L4.57029 28.079C3.36548 28.8951 2.45645 29.999 1.84609 31.3645L2.75903 31.7726ZM5.13113 28.9069L5.69516 29.7327C6.59208 29.12 7.64564 28.7582 8.88357 28.6653L8.8087 27.6681L8.73383 26.6709C7.17962 26.7876 5.78146 27.2517 4.5671 28.0812L5.13113 28.9069ZM8.8087 27.6681L8.88357 28.6653C10.2593 28.562 11.3898 28.7883 12.3199 29.2913L12.7956 28.4117L13.2713 27.5321C11.9435 26.814 10.4162 26.5446 8.73383 26.6709L8.8087 27.6681ZM12.7956 28.4117L12.3276 29.2954C13.2564 29.7872 13.967 30.5294 14.4656 31.5617L15.3661 31.1268L16.2665 30.6919C15.5936 29.2985 14.5905 28.2306 13.2635 27.5279L12.7956 28.4117ZM15.3661 31.1268L14.5076 31.6398C14.4495 31.5425 14.4244 31.4582 14.4135 31.4134C14.4018 31.3659 14.3987 31.3322 14.3978 31.3199L15.395 31.245L16.3922 31.1701C16.3844 31.066 16.3596 30.8401 16.2245 30.6139L15.3661 31.1268ZM15.395 31.245L14.3978 31.3199C14.3897 31.2122 14.4045 31.0155 14.5418 30.8195C14.6771 30.6262 14.8511 30.5483 14.9426 30.5207L15.232 31.4779L15.5214 32.4351C15.7305 32.3718 15.9905 32.2373 16.1802 31.9665C16.3718 31.6928 16.4093 31.3975 16.3922 31.1701L15.395 31.245ZM15.232 31.4779L14.8907 30.5379L12.8016 31.2964L13.1429 32.2364L13.4842 33.1764L15.5733 32.4178L15.232 31.4779ZM13.1429 32.2364L12.8284 31.2871L12.7501 31.3131L13.0646 32.2623L13.3791 33.2116L13.4574 33.1857L13.1429 32.2364ZM13.0646 32.2623L12.9898 31.2651C13.1013 31.2568 13.2757 31.2746 13.4501 31.386C13.6198 31.4945 13.7009 31.635 13.7342 31.7144L12.8118 32.1008L11.8895 32.4872C11.9716 32.6833 12.1193 32.9091 12.3733 33.0714C12.632 33.2367 12.9083 33.2769 13.1395 33.2595L13.0646 32.2623ZM12.8118 32.1008L13.662 31.5743C13.1699 30.7797 12.5039 30.1705 11.6724 29.7725L11.2406 30.6744L10.8088 31.5764C11.2811 31.8025 11.6625 32.1442 11.9616 32.6273L12.8118 32.1008ZM11.2406 30.6744L11.6808 29.7765C10.8581 29.3732 9.94402 29.2275 8.97138 29.3005L9.04625 30.2977L9.12112 31.2949C9.79717 31.2441 10.346 31.3496 10.8004 31.5723L11.2406 30.6744ZM9.04625 30.2977L8.97138 29.3005C7.33908 29.423 5.99119 30.0675 5.06007 31.2973L5.85734 31.9009L6.65461 32.5046C7.18322 31.8064 7.96128 31.382 9.12112 31.2949L9.04625 30.2977ZM5.85734 31.9009L5.06007 31.2973C4.14821 32.5017 3.80885 34.0014 3.93604 35.6954L4.93324 35.6206L5.93043 35.5457C5.83001 34.2083 6.10672 33.2282 6.65461 32.5046L5.85734 31.9009ZM4.93324 35.6206L3.93604 35.6954C4.06243 37.3788 4.62271 38.8032 5.70271 39.8565L6.4009 39.1406L7.0991 38.4247C6.44781 37.7895 6.02965 36.8672 5.93043 35.5457L4.93324 35.6206ZM6.4009 39.1406L5.71394 39.8673C6.82752 40.9199 8.24907 41.3484 9.86684 41.2269L9.79197 40.2297L9.7171 39.2325C8.56931 39.3187 7.73015 39.021 7.08786 38.4139L6.4009 39.1406ZM9.79197 40.2297L9.86684 41.2269C11.1435 41.1311 12.259 40.7195 13.1327 39.9281L12.4614 39.1869L11.7901 38.4458C11.3117 38.8791 10.6476 39.1627 9.7171 39.2325L9.79197 40.2297ZM12.4614 39.1869L13.1346 39.9264C14.0498 39.0933 14.5014 37.9869 14.5363 36.7067L13.5367 36.6794L12.537 36.6521C12.5149 37.4621 12.2497 38.0273 11.7882 38.4475L12.4614 39.1869ZM13.5367 36.6794L13.4618 35.6822L9.81206 35.9562L9.88693 36.9534L9.9618 37.9506L13.6115 37.6766L13.5367 36.6794ZM9.88693 36.9534L9.81206 35.9562C9.87935 35.9512 10.1143 35.9511 10.3398 36.1451C10.5653 36.3391 10.6003 36.5715 10.6054 36.6387L9.6082 36.7136L8.611 36.7885C8.62903 37.0286 8.71702 37.3873 9.03543 37.6613C9.35385 37.9352 9.72167 37.9686 9.9618 37.9506L9.88693 36.9534ZM9.6082 36.7136L10.6054 36.6387L10.4571 34.6643L9.45995 34.7392L8.46276 34.814L8.611 36.7885L9.6082 36.7136ZM9.45995 34.7392L10.4571 34.6643C10.4622 34.7316 10.4622 34.9665 10.2682 35.192C10.0742 35.4175 9.84191 35.4526 9.77463 35.4576L9.69975 34.4604L9.62488 33.4632C9.38475 33.4813 9.02605 33.5693 8.7521 33.8877C8.47816 34.2061 8.44473 34.5739 8.46276 34.814L9.45995 34.7392ZM9.69975 34.4604L9.77463 35.4576L15.8774 34.9994L15.8026 34.0022L15.7277 33.005L9.62488 33.4632L9.69975 34.4604ZM15.8026 34.0022L15.8774 34.9994C15.8102 35.0045 15.5752 35.0045 15.3497 34.8105C15.1242 34.6165 15.0892 34.3842 15.0841 34.3169L16.0813 34.242L17.0785 34.1672C17.0605 33.927 16.9725 33.5683 16.6541 33.2944C16.3357 33.0204 15.9678 32.987 15.7277 33.005L15.8026 34.0022ZM16.0813 34.242L15.0841 34.3169L15.2084 35.9722L16.2056 35.8974L17.2028 35.8225L17.0785 34.1672L16.0813 34.242ZM16.2056 35.8974L15.2084 35.9722C15.2902 37.061 15.1283 38.0228 14.7451 38.8796L15.6579 39.2879L16.5708 39.6962C17.1035 38.5053 17.3067 37.2068 17.2028 35.8225L16.2056 35.8974ZM15.6579 39.2879L14.7431 38.884C14.381 39.7043 13.8018 40.3795 12.9734 40.9156L13.5166 41.7551L14.0599 42.5947C15.1951 41.8602 16.0435 40.8905 16.5727 39.6917L15.6579 39.2879ZM13.5166 41.7551L12.9734 40.9156C12.1597 41.442 11.1272 41.7741 9.83498 41.8711L9.90985 42.8683L9.98472 43.8655C11.5379 43.7489 12.9098 43.3389 14.0599 42.5947L13.5166 41.7551Z" fill="#372F32" mask="url(#path-1-outside-1_2125_6385)"/>
<mask id="path-3-outside-2_2125_6385" maskUnits="userSpaceOnUse" x="17.0881" y="24.9991" width="17.2964" height="17.2964" fill="black">
<rect fill="white" x="17.0881" y="24.9991" width="17.2964" height="17.2964"/>
<path d="M19.0092 41.2667C18.9159 41.2684 18.8488 41.2429 18.8079 41.1903C18.7669 41.1377 18.7656 41.0643 18.804 40.9703L24.4137 26.6894C24.4647 26.5552 24.5635 26.4868 24.7101 26.4842L26.5698 26.4515C26.7165 26.4489 26.8176 26.5138 26.8733 26.6462L32.9818 40.7209C32.9956 40.7473 33.003 40.7872 33.0039 40.8405C33.006 40.9605 32.9338 41.0218 32.7871 41.0244L30.2675 41.0687C30.1209 41.0713 30.0197 41.0064 29.964 40.874L28.876 38.1527L22.7769 38.26L21.7853 41.0179C21.7343 41.1521 21.6355 41.2206 21.4889 41.2231L19.0092 41.2667ZM23.6728 35.7439L27.8722 35.67L25.6747 30.1478L23.6728 35.7439Z"/>
</mask>
<path d="M19.0092 41.2667C18.9159 41.2684 18.8488 41.2429 18.8079 41.1903C18.7669 41.1377 18.7656 41.0643 18.804 40.9703L24.4137 26.6894C24.4647 26.5552 24.5635 26.4868 24.7101 26.4842L26.5698 26.4515C26.7165 26.4489 26.8176 26.5138 26.8733 26.6462L32.9818 40.7209C32.9956 40.7473 33.003 40.7872 33.0039 40.8405C33.006 40.9605 32.9338 41.0218 32.7871 41.0244L30.2675 41.0687C30.1209 41.0713 30.0197 41.0064 29.964 40.874L28.876 38.1527L22.7769 38.26L21.7853 41.0179C21.7343 41.1521 21.6355 41.2206 21.4889 41.2231L19.0092 41.2667ZM23.6728 35.7439L27.8722 35.67L25.6747 30.1478L23.6728 35.7439Z" fill="#8B688D"/>
<path d="M18.8079 41.1903L19.5972 40.5763L19.5972 40.5763L18.8079 41.1903ZM18.804 40.9703L19.73 41.348L19.7348 41.3359L18.804 40.9703ZM24.4137 26.6894L25.3445 27.0551L25.3486 27.0444L24.4137 26.6894ZM26.8733 26.6462L25.9515 27.0339L25.956 27.0443L26.8733 26.6462ZM32.9818 40.7209L32.0645 41.119L32.0788 41.152L32.0954 41.1838L32.9818 40.7209ZM29.964 40.874L29.0355 41.2453L29.0388 41.2535L29.0422 41.2617L29.964 40.874ZM28.876 38.1527L29.8045 37.7815L29.5484 37.1408L28.8584 37.1529L28.876 38.1527ZM22.7769 38.26L22.7594 37.2602L22.0694 37.2723L21.8359 37.9217L22.7769 38.26ZM21.7853 41.0179L22.7202 41.3729L22.7233 41.3646L22.7263 41.3562L21.7853 41.0179ZM23.6728 35.7439L22.7313 35.407L22.244 36.7692L23.6904 36.7437L23.6728 35.7439ZM27.8722 35.67L27.8898 36.6698L29.3362 36.6444L28.8013 35.3003L27.8722 35.67ZM25.6747 30.1478L26.6039 29.7781L25.6249 27.3181L24.7331 29.811L25.6747 30.1478ZM19.0092 41.2667L18.9917 40.2669C19.0359 40.2661 19.1288 40.2703 19.2439 40.314C19.3681 40.3612 19.4964 40.4467 19.5972 40.5763L18.8079 41.1903L18.0185 41.8043C18.3224 42.1949 18.7529 42.2714 19.0268 42.2666L19.0092 41.2667ZM18.8079 41.1903L19.5972 40.5763C19.7229 40.738 19.7733 40.9214 19.776 41.0782C19.7785 41.2184 19.7435 41.3147 19.7299 41.348L18.804 40.9703L17.8781 40.5926C17.781 40.8306 17.6571 41.3396 18.0185 41.8043L18.8079 41.1903ZM18.804 40.9703L19.7348 41.3359L25.3445 27.0551L24.4137 26.6894L23.4829 26.3238L17.8732 40.6047L18.804 40.9703ZM24.4137 26.6894L25.3486 27.0444C25.3165 27.1289 25.2424 27.2577 25.0953 27.3596C24.9497 27.4604 24.8079 27.4826 24.7277 27.484L24.7101 26.4842L24.6925 25.4843C24.4657 25.4883 24.2012 25.546 23.9568 25.7153C23.7108 25.8856 23.5619 26.1158 23.4788 26.3344L24.4137 26.6894ZM24.7101 26.4842L24.7277 27.484L26.5874 27.4513L26.5698 26.4515L26.5523 25.4516L24.6925 25.4843L24.7101 26.4842ZM26.5698 26.4515L26.5874 27.4513C26.5073 27.4527 26.3648 27.4355 26.2157 27.3399C26.0651 27.2433 25.9865 27.1171 25.9515 27.0338L26.8733 26.6462L27.7951 26.2585C27.7044 26.0429 27.5475 25.8181 27.2957 25.6565C27.0455 25.496 26.7791 25.4476 26.5523 25.4516L26.5698 26.4515ZM26.8733 26.6462L25.956 27.0443L32.0645 41.119L32.9818 40.7209L33.8991 40.3228L27.7906 26.248L26.8733 26.6462ZM32.9818 40.7209L32.0954 41.1838C32.0429 41.0833 32.0227 40.9977 32.0143 40.9524C32.0055 40.9043 32.0043 40.8705 32.0041 40.8581L33.0039 40.8405L34.0038 40.823C34.0019 40.7186 33.9902 40.4916 33.8682 40.258L32.9818 40.7209ZM33.0039 40.8405L32.0041 40.8581C32.0014 40.7051 32.053 40.4271 32.3045 40.2138C32.5182 40.0326 32.732 40.0252 32.7695 40.0245L32.7871 41.0244L32.8047 42.0242C32.9889 42.021 33.3121 41.9817 33.598 41.7392C33.9219 41.4646 34.0086 41.096 34.0038 40.823L33.0039 40.8405ZM32.7871 41.0244L32.7695 40.0245L30.2499 40.0689L30.2675 41.0687L30.2851 42.0686L32.8047 42.0242L32.7871 41.0244ZM30.2675 41.0687L30.2499 40.0689C30.3301 40.0675 30.4726 40.0847 30.6216 40.1803C30.7723 40.2769 30.8508 40.4031 30.8858 40.4864L29.964 40.874L29.0422 41.2617C29.1329 41.4773 29.2899 41.7021 29.5417 41.8636C29.7919 42.0242 30.0583 42.0725 30.2851 42.0686L30.2675 41.0687ZM29.964 40.874L30.8926 40.5028L29.8045 37.7815L28.876 38.1527L27.9475 38.524L29.0355 41.2453L29.964 40.874ZM28.876 38.1527L28.8584 37.1529L22.7594 37.2602L22.7769 38.26L22.7945 39.2599L28.8936 39.1526L28.876 38.1527ZM22.7769 38.26L21.8359 37.9217L20.8443 40.6795L21.7853 41.0179L22.7263 41.3562L23.718 38.5984L22.7769 38.26ZM21.7853 41.0179L20.8504 40.6629C20.8825 40.5785 20.9566 40.4496 21.1037 40.3477C21.2493 40.2469 21.3911 40.2247 21.4713 40.2233L21.4889 41.2231L21.5064 42.223C21.7333 42.219 21.9978 42.1613 22.2422 41.9921C22.4882 41.8218 22.6371 41.5916 22.7202 41.3729L21.7853 41.0179ZM21.4889 41.2231L21.4713 40.2233L18.9917 40.2669L19.0092 41.2667L19.0268 42.2666L21.5064 42.223L21.4889 41.2231ZM23.6728 35.7439L23.6904 36.7437L27.8898 36.6698L27.8722 35.67L27.8546 34.6702L23.6552 34.744L23.6728 35.7439ZM27.8722 35.67L28.8013 35.3003L26.6039 29.7781L25.6747 30.1478L24.7456 30.5175L26.943 36.0397L27.8722 35.67ZM25.6747 30.1478L24.7331 29.811L22.7313 35.407L23.6728 35.7439L24.6144 36.0807L26.6163 30.4846L25.6747 30.1478Z" fill="#372F32" mask="url(#path-3-outside-2_2125_6385)"/>
<mask id="path-5-outside-3_2125_6385" maskUnits="userSpaceOnUse" x="34.2862" y="25.9943" width="19.7895" height="17.8873" fill="black">
<rect fill="white" x="34.2862" y="25.9943" width="19.7895" height="17.8873"/>
<path d="M36.1918 42.0648C36.0186 42.0566 35.9362 41.9659 35.9445 41.7927L36.6201 27.6489C36.6284 27.4757 36.7191 27.3933 36.8922 27.4016L39.1896 27.5113C39.3361 27.5183 39.4331 27.583 39.4807 27.7054L44.1522 36.3782L49.5692 28.1874C49.6415 28.0707 49.7443 28.0155 49.8774 28.0219L52.1149 28.1288C52.288 28.137 52.3705 28.2277 52.3622 28.4009L51.6865 42.5447C51.6782 42.7179 51.5875 42.8003 51.4144 42.792L49.3368 42.6928C49.1636 42.6845 49.0812 42.5938 49.0895 42.4207L49.5628 32.512L44.9242 39.4986C44.8652 39.6159 44.7624 39.6711 44.6159 39.6641L43.2575 39.5992C43.1243 39.5928 43.0273 39.5281 42.9664 39.4051L39.0101 32.108L38.5415 41.9168C38.5332 42.0899 38.4425 42.1724 38.2694 42.1641L36.1918 42.0648Z"/>
</mask>
<path d="M36.1918 42.0648C36.0186 42.0566 35.9362 41.9659 35.9445 41.7927L36.6201 27.6489C36.6284 27.4757 36.7191 27.3933 36.8922 27.4016L39.1896 27.5113C39.3361 27.5183 39.4331 27.583 39.4807 27.7054L44.1522 36.3782L49.5692 28.1874C49.6415 28.0707 49.7443 28.0155 49.8774 28.0219L52.1149 28.1288C52.288 28.137 52.3705 28.2277 52.3622 28.4009L51.6865 42.5447C51.6782 42.7179 51.5875 42.8003 51.4144 42.792L49.3368 42.6928C49.1636 42.6845 49.0812 42.5938 49.0895 42.4207L49.5628 32.512L44.9242 39.4986C44.8652 39.6159 44.7624 39.6711 44.6159 39.6641L43.2575 39.5992C43.1243 39.5928 43.0273 39.5281 42.9664 39.4051L39.0101 32.108L38.5415 41.9168C38.5332 42.0899 38.4425 42.1724 38.2694 42.1641L36.1918 42.0648Z" fill="#8B688D"/>
<path d="M39.4807 27.7054L38.5485 28.0675L38.5709 28.1252L38.6003 28.1796L39.4807 27.7054ZM44.1522 36.3782L43.2718 36.8524L44.0643 38.3238L44.9863 36.9298L44.1522 36.3782ZM49.5692 28.1874L50.4033 28.739L50.4114 28.7267L50.4192 28.7142L49.5692 28.1874ZM49.5628 32.512L50.5617 32.5597L50.7346 28.9391L48.7297 31.9589L49.5628 32.512ZM44.9242 39.4986L44.0911 38.9455L44.0578 38.9956L44.0308 39.0493L44.9242 39.4986ZM42.9664 39.4051L43.8627 38.9617L43.8544 38.9449L43.8455 38.9284L42.9664 39.4051ZM39.0101 32.108L39.8892 31.6313L38.1821 28.4828L38.0112 32.0603L39.0101 32.108ZM36.1918 42.0648L36.2395 41.066C36.3069 41.0692 36.5401 41.0979 36.7401 41.318C36.9402 41.5382 36.9465 41.773 36.9433 41.8404L35.9445 41.7927L34.9456 41.745C34.9341 41.9855 34.9775 42.3523 35.26 42.6632C35.5425 42.974 35.9035 43.0522 36.144 43.0637L36.1918 42.0648ZM35.9445 41.7927L36.9433 41.8404L37.619 27.6966L36.6201 27.6489L35.6213 27.6011L34.9456 41.745L35.9445 41.7927ZM36.6201 27.6489L37.619 27.6966C37.6158 27.764 37.5871 27.9971 37.3669 28.1972C37.1468 28.3973 36.9119 28.4036 36.8445 28.4004L36.8922 27.4016L36.94 26.4027C36.6994 26.3912 36.3327 26.4346 36.0218 26.7171C35.711 26.9996 35.6328 27.3606 35.6213 27.6011L36.6201 27.6489ZM36.8922 27.4016L36.8445 28.4004L39.1419 28.5102L39.1896 27.5113L39.2373 26.5124L36.94 26.4027L36.8922 27.4016ZM39.1896 27.5113L39.1419 28.5102C39.0803 28.5072 38.954 28.4881 38.8174 28.397C38.6737 28.3012 38.5895 28.1728 38.5485 28.0675L39.4807 27.7054L40.4128 27.3433C40.3244 27.1156 40.1679 26.8937 39.9271 26.7331C39.6935 26.5773 39.4455 26.5224 39.2373 26.5124L39.1896 27.5113ZM39.4807 27.7054L38.6003 28.1796L43.2718 36.8524L44.1522 36.3782L45.0326 35.904L40.3611 27.2312L39.4807 27.7054ZM44.1522 36.3782L44.9863 36.9298L50.4033 28.739L49.5692 28.1874L48.7351 27.6357L43.3181 35.8266L44.1522 36.3782ZM49.5692 28.1874L50.4192 28.7142C50.3794 28.7783 50.3021 28.8705 50.1735 28.9395C50.0434 29.0094 49.9177 29.0249 49.8297 29.0207L49.8774 28.0219L49.9252 27.023C49.704 27.0124 49.4604 27.0524 49.2275 27.1774C48.9962 27.3016 48.8313 27.4797 48.7192 27.6606L49.5692 28.1874ZM49.8774 28.0219L49.8297 29.0207L52.0672 29.1276L52.1149 28.1288L52.1626 27.1299L49.9252 27.023L49.8774 28.0219ZM52.1149 28.1288L52.0672 29.1276C51.9998 29.1244 51.7666 29.0957 51.5665 28.8756C51.3665 28.6554 51.3601 28.4206 51.3633 28.3532L52.3622 28.4009L53.361 28.4486C53.3725 28.2081 53.3291 27.8413 53.0466 27.5304C52.7641 27.2196 52.4031 27.1414 52.1626 27.1299L52.1149 28.1288ZM52.3622 28.4009L51.3633 28.3532L50.6877 42.497L51.6865 42.5447L52.6854 42.5925L53.361 28.4486L52.3622 28.4009ZM51.6865 42.5447L50.6877 42.497C50.6909 42.4296 50.7196 42.1964 50.9397 41.9964C51.1599 41.7963 51.3947 41.79 51.4621 41.7932L51.4144 42.792L51.3667 43.7909C51.6072 43.8024 51.974 43.759 52.2848 43.4765C52.5957 43.194 52.6739 42.833 52.6854 42.5925L51.6865 42.5447ZM51.4144 42.792L51.4621 41.7932L49.3845 41.6939L49.3368 42.6928L49.2891 43.6917L51.3667 43.7909L51.4144 42.792ZM49.3368 42.6928L49.3845 41.6939C49.4519 41.6971 49.6851 41.7259 49.8851 41.946C50.0852 42.1661 50.0916 42.401 50.0883 42.4684L49.0895 42.4207L48.0906 42.373C48.0791 42.6135 48.1226 42.9803 48.4051 43.2911C48.6876 43.602 49.0485 43.6802 49.2891 43.6917L49.3368 42.6928ZM49.0895 42.4207L50.0883 42.4684L50.5617 32.5597L49.5628 32.512L48.564 32.4643L48.0906 42.373L49.0895 42.4207ZM49.5628 32.512L48.7297 31.9589L44.0911 38.9455L44.9242 39.4986L45.7573 40.0517L50.3959 33.0651L49.5628 32.512ZM44.9242 39.4986L44.0308 39.0493C44.0816 38.9483 44.1776 38.8286 44.3299 38.7469C44.4745 38.6692 44.602 38.6623 44.6636 38.6652L44.6159 39.6641L44.5682 40.6629C44.7763 40.6729 45.0285 40.6418 45.2758 40.509C45.5308 40.3721 45.7078 40.1662 45.8176 39.9479L44.9242 39.4986ZM44.6159 39.6641L44.6636 38.6652L43.3052 38.6003L43.2575 39.5992L43.2097 40.598L44.5682 40.6629L44.6159 39.6641ZM43.2575 39.5992L43.3052 38.6003C43.3932 38.6045 43.5168 38.632 43.6396 38.7139C43.7611 38.7949 43.8293 38.894 43.8627 38.9617L42.9664 39.4051L42.0701 39.8484C42.1644 40.0392 42.3115 40.2322 42.53 40.3778C42.7499 40.5245 42.9886 40.5875 43.2097 40.598L43.2575 39.5992ZM42.9664 39.4051L43.8455 38.9284L39.8892 31.6313L39.0101 32.108L38.131 32.5846L42.0873 39.8817L42.9664 39.4051ZM39.0101 32.108L38.0112 32.0603L37.5426 41.8691L38.5415 41.9168L39.5404 41.9645L40.0089 32.1557L39.0101 32.108ZM38.5415 41.9168L37.5426 41.8691C37.5459 41.8017 37.5746 41.5685 37.7947 41.3684C38.0149 41.1684 38.2497 41.162 38.3171 41.1652L38.2694 42.1641L38.2217 43.1629C38.4622 43.1744 38.829 43.131 39.1398 42.8485C39.4507 42.566 39.5289 42.205 39.5404 41.9645L38.5415 41.9168ZM38.2694 42.1641L38.3171 41.1652L36.2395 41.066L36.1918 42.0648L36.144 43.0637L38.2217 43.1629L38.2694 42.1641Z" fill="#372F32" mask="url(#path-5-outside-3_2125_6385)"/>
<mask id="path-7-outside-4_2125_6385" maskUnits="userSpaceOnUse" x="54.1047" y="25.999" width="13.3533" height="17.2686" fill="black">
<rect fill="white" x="54.1047" y="25.999" width="13.3533" height="17.2686"/>
<path d="M56.2995 42.2289C56.1262 42.2325 56.0378 42.1477 56.0341 41.9744L55.7375 27.8175C55.7339 27.6442 55.8187 27.5557 55.992 27.5521L65.27 27.3577C65.4433 27.3541 65.5317 27.4389 65.5353 27.6122L65.5777 29.6317C65.5813 29.805 65.4965 29.8935 65.3232 29.8971L58.4847 30.0404L58.5546 33.3797L64.7333 33.2502C64.9066 33.2466 64.995 33.3314 64.9987 33.5047L65.0402 35.4843C65.0438 35.6576 64.959 35.7461 64.7857 35.7497L58.607 35.8792L58.6858 39.6383L65.7642 39.49C65.9375 39.4864 66.026 39.5712 66.0296 39.7445L66.0719 41.7641C66.0756 41.9374 65.9907 42.0258 65.8174 42.0294L56.2995 42.2289Z"/>
</mask>
<path d="M56.2995 42.2289C56.1262 42.2325 56.0378 42.1477 56.0341 41.9744L55.7375 27.8175C55.7339 27.6442 55.8187 27.5557 55.992 27.5521L65.27 27.3577C65.4433 27.3541 65.5317 27.4389 65.5353 27.6122L65.5777 29.6317C65.5813 29.805 65.4965 29.8935 65.3232 29.8971L58.4847 30.0404L58.5546 33.3797L64.7333 33.2502C64.9066 33.2466 64.995 33.3314 64.9987 33.5047L65.0402 35.4843C65.0438 35.6576 64.959 35.7461 64.7857 35.7497L58.607 35.8792L58.6858 39.6383L65.7642 39.49C65.9375 39.4864 66.026 39.5712 66.0296 39.7445L66.0719 41.7641C66.0756 41.9374 65.9907 42.0258 65.8174 42.0294L56.2995 42.2289Z" fill="#8B688D"/>
<path d="M58.4847 30.0404L58.4637 29.0407L57.4639 29.0616L57.4849 30.0614L58.4847 30.0404ZM58.5546 33.3797L57.5549 33.4007L57.5758 34.4004L58.5756 34.3795L58.5546 33.3797ZM58.607 35.8792L58.5861 34.8794L57.5863 34.9003L57.6072 35.9001L58.607 35.8792ZM58.6858 39.6383L57.686 39.6593L57.707 40.6591L58.7067 40.6381L58.6858 39.6383ZM56.2995 42.2289L56.2786 41.2291C56.346 41.2277 56.5806 41.2403 56.7954 41.4462C57.0101 41.6521 57.0325 41.886 57.0339 41.9534L56.0341 41.9744L55.0344 41.9953C55.0394 42.2361 55.1079 42.599 55.4111 42.8898C55.7142 43.1805 56.0797 43.2337 56.3205 43.2287L56.2995 42.2289ZM56.0341 41.9744L57.0339 41.9534L56.7373 27.7965L55.7375 27.8175L54.7377 27.8384L55.0344 41.9953L56.0341 41.9744ZM55.7375 27.8175L56.7373 27.7965C56.7387 27.864 56.7261 28.0986 56.5202 28.3133C56.3143 28.528 56.0804 28.5505 56.0129 28.5519L55.992 27.5521L55.971 26.5523C55.7303 26.5574 55.3674 26.6259 55.0766 26.929C54.7859 27.2322 54.7327 27.5977 54.7377 27.8384L55.7375 27.8175ZM55.992 27.5521L56.0129 28.5519L65.2909 28.3575L65.27 27.3577L65.249 26.3579L55.971 26.5523L55.992 27.5521ZM65.27 27.3577L65.2909 28.3575C65.2234 28.3589 64.9888 28.3463 64.7741 28.1404C64.5594 27.9345 64.537 27.7006 64.5356 27.6331L65.5353 27.6122L66.5351 27.5912C66.5301 27.3505 66.4616 26.9876 66.1584 26.6968C65.8552 26.4061 65.4898 26.3529 65.249 26.3579L65.27 27.3577ZM65.5353 27.6122L64.5356 27.6331L64.5779 29.6527L65.5777 29.6317L66.5774 29.6108L66.5351 27.5912L65.5353 27.6122ZM65.5777 29.6317L64.5779 29.6527C64.5765 29.5852 64.5891 29.3506 64.795 29.1359C65.0009 28.9212 65.2348 28.8988 65.3022 28.8974L65.3232 29.8971L65.3441 30.8969C65.5849 30.8919 65.9478 30.8234 66.2385 30.5202C66.5293 30.217 66.5825 29.8516 66.5774 29.6108L65.5777 29.6317ZM65.3232 29.8971L65.3022 28.8974L58.4637 29.0407L58.4847 30.0404L58.5056 31.0402L65.3441 30.8969L65.3232 29.8971ZM58.4847 30.0404L57.4849 30.0614L57.5549 33.4007L58.5546 33.3797L59.5544 33.3588L59.4845 30.0195L58.4847 30.0404ZM58.5546 33.3797L58.5756 34.3795L64.7542 34.25L64.7333 33.2502L64.7123 32.2505L58.5337 32.3799L58.5546 33.3797ZM64.7333 33.2502L64.7542 34.25C64.6868 34.2514 64.4522 34.2388 64.2375 34.0329C64.0228 33.827 64.0003 33.5931 63.9989 33.5257L64.9987 33.5047L65.9985 33.4838C65.9934 33.243 65.9249 32.8801 65.6217 32.5894C65.3186 32.2986 64.9531 32.2454 64.7123 32.2505L64.7333 33.2502ZM64.9987 33.5047L63.9989 33.5257L64.0404 35.5052L65.0402 35.4843L66.0399 35.4633L65.9985 33.4838L64.9987 33.5047ZM65.0402 35.4843L64.0404 35.5052C64.039 35.4378 64.0516 35.2032 64.2575 34.9885C64.4634 34.7738 64.6972 34.7513 64.7647 34.7499L64.7857 35.7497L64.8066 36.7495C65.0474 36.7444 65.4103 36.6759 65.701 36.3728C65.9917 36.0696 66.045 35.7041 66.0399 35.4633L65.0402 35.4843ZM64.7857 35.7497L64.7647 34.7499L58.5861 34.8794L58.607 35.8792L58.628 36.8789L64.8066 36.7495L64.7857 35.7497ZM58.607 35.8792L57.6072 35.9001L57.686 39.6593L58.6858 39.6383L59.6856 39.6174L59.6068 35.8582L58.607 35.8792ZM58.6858 39.6383L58.7067 40.6381L65.7852 40.4898L65.7642 39.49L65.7433 38.4902L58.6648 38.6385L58.6858 39.6383ZM65.7642 39.49L65.7852 40.4898C65.7177 40.4912 65.4831 40.4786 65.2684 40.2727C65.0537 40.0668 65.0313 39.8329 65.0298 39.7655L66.0296 39.7445L67.0294 39.7236C67.0244 39.4828 66.9559 39.1199 66.6527 38.8291C66.3495 38.5384 65.984 38.4852 65.7433 38.4902L65.7642 39.49ZM66.0296 39.7445L65.0298 39.7655L65.0722 41.785L66.0719 41.7641L67.0717 41.7431L67.0294 39.7236L66.0296 39.7445ZM66.0719 41.7641L65.0722 41.785C65.0707 41.7175 65.0834 41.4829 65.2893 41.2682C65.4952 41.0535 65.729 41.0311 65.7965 41.0297L65.8174 42.0294L65.8384 43.0292C66.0792 43.0242 66.4421 42.9557 66.7328 42.6525C67.0235 42.3493 67.0768 41.9839 67.0717 41.7431L66.0719 41.7641ZM65.8174 42.0294L65.7965 41.0297L56.2786 41.2291L56.2995 42.2289L56.3205 43.2287L65.8384 43.0292L65.8174 42.0294Z" fill="#372F32" mask="url(#path-7-outside-4_2125_6385)"/>
<mask id="path-9-outside-5_2125_6385" maskUnits="userSpaceOnUse" x="67.105" y="25.9785" width="14.374" height="18.2893" fill="black">
<rect fill="white" x="67.105" y="25.9785" width="14.374" height="18.2893"/>
<path d="M74.5245 42.3999C73.1514 42.4287 71.9915 42.1262 71.0447 41.4926C70.0976 40.8456 69.4175 39.893 69.0044 38.6347C68.9905 38.6083 68.9831 38.5752 68.9823 38.5352C68.9801 38.4285 69.0452 38.3538 69.1776 38.311L71.2467 37.7676L71.3263 37.7459C71.4462 37.7434 71.5276 37.8084 71.5704 37.9408C71.8507 38.5884 72.214 39.0609 72.6603 39.3583C73.1197 39.6421 73.7227 39.7761 74.4692 39.7605C75.2157 39.7448 75.7929 39.6061 76.2008 39.3441C76.6221 39.0819 76.8271 38.6842 76.816 38.151C76.8053 37.6444 76.5967 37.2354 76.1901 36.9238C75.7966 36.5987 75.1901 36.298 74.3708 36.0217L73.0615 35.5891C70.5375 34.7884 69.2545 33.3883 69.2126 31.3888C69.1961 30.6023 69.3946 29.8913 69.8081 29.2558C70.2348 28.6201 70.8179 28.1211 71.5571 27.7589C72.2961 27.3833 73.1254 27.1859 74.0452 27.1666C75.2983 27.1403 76.3643 27.4181 77.2434 27.9998C78.1355 28.5679 78.7741 29.448 79.1591 30.6402C79.173 30.6666 79.1804 30.6998 79.1812 30.7398C79.1835 30.8464 79.1183 30.9212 78.9859 30.9639L76.7981 31.5699L76.7185 31.5916C76.5986 31.5941 76.5172 31.5291 76.4744 31.3966C76.2221 30.8151 75.9068 30.4017 75.5282 30.1562C75.1496 29.9107 74.6738 29.794 74.1005 29.806C73.4607 29.8194 72.9501 29.9568 72.5688 30.2182C72.1876 30.4796 72.0014 30.8236 72.0103 31.2501C72.0198 31.7034 72.2214 32.0926 72.6149 32.4177C73.0215 32.7293 73.6612 33.0226 74.5338 33.2977L75.5807 33.6159C76.9499 34.0406 77.9551 34.5997 78.5965 35.293C79.2509 35.9728 79.5905 36.9059 79.6153 38.0923C79.6321 38.8921 79.4272 39.6166 79.0007 40.2657C78.5742 40.9147 77.9715 41.4275 77.1926 41.8039C76.4136 42.1803 75.5243 42.379 74.5245 42.3999Z"/>
</mask>
<path d="M74.5245 42.3999C73.1514 42.4287 71.9915 42.1262 71.0447 41.4926C70.0976 40.8456 69.4175 39.893 69.0044 38.6347C68.9905 38.6083 68.9831 38.5752 68.9823 38.5352C68.9801 38.4285 69.0452 38.3538 69.1776 38.311L71.2467 37.7676L71.3263 37.7459C71.4462 37.7434 71.5276 37.8084 71.5704 37.9408C71.8507 38.5884 72.214 39.0609 72.6603 39.3583C73.1197 39.6421 73.7227 39.7761 74.4692 39.7605C75.2157 39.7448 75.7929 39.6061 76.2008 39.3441C76.6221 39.0819 76.8271 38.6842 76.816 38.151C76.8053 37.6444 76.5967 37.2354 76.1901 36.9238C75.7966 36.5987 75.1901 36.298 74.3708 36.0217L73.0615 35.5891C70.5375 34.7884 69.2545 33.3883 69.2126 31.3888C69.1961 30.6023 69.3946 29.8913 69.8081 29.2558C70.2348 28.6201 70.8179 28.1211 71.5571 27.7589C72.2961 27.3833 73.1254 27.1859 74.0452 27.1666C75.2983 27.1403 76.3643 27.4181 77.2434 27.9998C78.1355 28.5679 78.7741 29.448 79.1591 30.6402C79.173 30.6666 79.1804 30.6998 79.1812 30.7398C79.1835 30.8464 79.1183 30.9212 78.9859 30.9639L76.7981 31.5699L76.7185 31.5916C76.5986 31.5941 76.5172 31.5291 76.4744 31.3966C76.2221 30.8151 75.9068 30.4017 75.5282 30.1562C75.1496 29.9107 74.6738 29.794 74.1005 29.806C73.4607 29.8194 72.9501 29.9568 72.5688 30.2182C72.1876 30.4796 72.0014 30.8236 72.0103 31.2501C72.0198 31.7034 72.2214 32.0926 72.6149 32.4177C73.0215 32.7293 73.6612 33.0226 74.5338 33.2977L75.5807 33.6159C76.9499 34.0406 77.9551 34.5997 78.5965 35.293C79.2509 35.9728 79.5905 36.9059 79.6153 38.0923C79.6321 38.8921 79.4272 39.6166 79.0007 40.2657C78.5742 40.9147 77.9715 41.4275 77.1926 41.8039C76.4136 42.1803 75.5243 42.379 74.5245 42.3999Z" fill="#8B688D"/>
<path d="M71.0447 41.4926L70.4806 42.3184L70.4885 42.3237L71.0447 41.4926ZM69.0044 38.6347L69.9545 38.3228L69.9283 38.2431L69.8892 38.1689L69.0044 38.6347ZM69.1776 38.311L68.9236 37.3438L68.8967 37.3509L68.8703 37.3594L69.1776 38.311ZM71.2467 37.7676L71.5008 38.7348L71.5095 38.7324L71.2467 37.7676ZM71.3263 37.7459L71.3053 36.7461L71.1822 36.7487L71.0635 36.781L71.3263 37.7459ZM71.5704 37.9408L70.6188 38.2482L70.6336 38.2939L70.6527 38.338L71.5704 37.9408ZM72.6603 39.3583L72.1059 40.1905L72.1202 40.2L72.1348 40.2091L72.6603 39.3583ZM76.2008 39.3441L75.6723 38.4951L75.6605 38.5027L76.2008 39.3441ZM76.1901 36.9238L75.5532 37.6947L75.5673 37.7064L75.5819 37.7176L76.1901 36.9238ZM74.3708 36.0217L74.6903 35.0741L74.6846 35.0722L74.3708 36.0217ZM73.0615 35.5891L73.3752 34.6395L73.3638 34.6359L73.0615 35.5891ZM69.8081 29.2558L68.9778 28.6985L68.9738 28.7044L68.9699 28.7105L69.8081 29.2558ZM71.5571 27.7589L71.9971 28.6569L72.0037 28.6536L72.0102 28.6503L71.5571 27.7589ZM77.2434 27.9998L76.6915 28.8337L76.6988 28.8386L76.7062 28.8433L77.2434 27.9998ZM79.1591 30.6402L78.2075 30.9476L78.2341 31.0297L78.2743 31.1061L79.1591 30.6402ZM78.9859 30.9639L79.2528 31.9277L79.2731 31.922L79.2932 31.9155L78.9859 30.9639ZM76.7981 31.5699L77.0609 32.5348L77.065 32.5336L76.7981 31.5699ZM76.7185 31.5916L76.7395 32.5914L76.8626 32.5888L76.9813 32.5564L76.7185 31.5916ZM76.4744 31.3966L77.426 31.0893L77.4111 31.0432L77.3918 30.9987L76.4744 31.3966ZM75.5282 30.1562L74.9841 30.9953L74.9841 30.9953L75.5282 30.1562ZM72.5688 30.2182L73.1343 31.043L73.1343 31.043L72.5688 30.2182ZM72.6149 32.4177L71.978 33.1886L71.9922 33.2003L72.0067 33.2115L72.6149 32.4177ZM74.5338 33.2977L74.2331 34.2515L74.243 34.2545L74.5338 33.2977ZM75.5807 33.6159L75.877 32.6607L75.8714 32.6591L75.5807 33.6159ZM78.5965 35.293L77.8624 35.9721L77.8691 35.9794L77.876 35.9866L78.5965 35.293ZM79.0007 40.2657L79.8365 40.8148V40.8148L79.0007 40.2657ZM77.1926 41.8039L77.6277 42.7043V42.7043L77.1926 41.8039ZM74.5245 42.3999L74.5035 41.4001C73.2927 41.4255 72.3447 41.1593 71.6009 40.6615L71.0447 41.4926L70.4885 42.3237C71.6384 43.0932 73.0102 43.4319 74.5454 43.3997L74.5245 42.3999ZM71.0447 41.4926L71.6088 40.6669C70.8707 40.1627 70.31 39.4057 69.9545 38.3228L69.0044 38.6347L68.0543 38.9467C68.525 40.3803 69.3245 41.5286 70.4806 42.3183L71.0447 41.4926ZM69.0044 38.6347L69.8892 38.1689C69.968 38.3185 69.9807 38.4496 69.9821 38.5142L68.9823 38.5352L67.9825 38.5561C67.9855 38.7007 68.0129 38.8981 68.1195 39.1006L69.0044 38.6347ZM68.9823 38.5352L69.9821 38.5142C69.9857 38.6889 69.9273 38.891 69.7833 39.0562C69.6577 39.2003 69.525 39.2497 69.485 39.2626L69.1776 38.311L68.8703 37.3594C68.6978 37.4151 68.4663 37.5233 68.2756 37.7421C68.0665 37.982 67.9766 38.2748 67.9825 38.5561L68.9823 38.5352ZM69.1776 38.311L69.4317 39.2782L71.5008 38.7348L71.2467 37.7676L70.9927 36.8004L68.9236 37.3438L69.1776 38.311ZM71.2467 37.7676L71.5095 38.7324L71.5891 38.7107L71.3263 37.7459L71.0635 36.781L70.9839 36.8027L71.2467 37.7676ZM71.3263 37.7459L71.3472 38.7457C71.2109 38.7485 71.0228 38.7095 70.8533 38.5742C70.6969 38.4493 70.6379 38.3072 70.6188 38.2482L71.5704 37.9408L72.522 37.6335C72.4602 37.442 72.339 37.2011 72.1012 37.0113C71.8504 36.811 71.5616 36.7407 71.3053 36.7461L71.3263 37.7459ZM71.5704 37.9408L70.6527 38.338C70.9858 39.1078 71.4556 39.7573 72.1059 40.1905L72.6603 39.3583L73.2148 38.5261C72.9724 38.3646 72.7156 38.0691 72.4881 37.5436L71.5704 37.9408ZM72.6603 39.3583L72.1348 40.2091C72.8097 40.626 73.6221 40.7785 74.4901 40.7603L74.4692 39.7605L74.4482 38.7607C73.8233 38.7738 73.4297 38.6582 73.1859 38.5075L72.6603 39.3583ZM74.4692 39.7605L74.4901 40.7603C75.3293 40.7427 76.1156 40.5872 76.7411 40.1856L76.2008 39.3441L75.6605 38.5027C75.4702 38.6249 75.1021 38.747 74.4482 38.7607L74.4692 39.7605ZM76.2008 39.3441L76.7293 40.1931C77.4764 39.728 77.8336 38.984 77.8157 38.13L76.816 38.151L75.8162 38.1719C75.8189 38.3039 75.7946 38.366 75.7817 38.3909C75.7707 38.4124 75.747 38.4487 75.6724 38.4952L76.2008 39.3441ZM76.816 38.151L77.8157 38.13C77.7987 37.3159 77.443 36.624 76.7983 36.13L76.1901 36.9238L75.5819 37.7176C75.7505 37.8468 75.812 37.973 75.8162 38.1719L76.816 38.151ZM76.1901 36.9238L76.827 36.1529C76.2961 35.7142 75.5564 35.3662 74.6903 35.0741L74.3708 36.0217L74.0513 36.9693C74.8238 37.2298 75.297 37.4831 75.5532 37.6947L76.1901 36.9238ZM74.3708 36.0217L74.6846 35.0722L73.3752 34.6396L73.0615 35.5891L72.7477 36.5386L74.0571 36.9712L74.3708 36.0217ZM73.0615 35.5891L73.3638 34.6359C72.206 34.2686 71.4292 33.793 70.9435 33.2629C70.4754 32.7521 70.2286 32.1388 70.2124 31.3678L69.2126 31.3888L68.2128 31.4097C68.2386 32.6383 68.6541 33.7248 69.469 34.6141C70.2662 35.4842 71.3929 36.1089 72.7591 36.5423L73.0615 35.5891ZM69.2126 31.3888L70.2124 31.3678C70.2 30.774 70.3466 30.2618 70.6463 29.8012L69.8081 29.2558L68.9699 28.7105C68.4427 29.5208 68.1923 30.4305 68.2128 31.4097L69.2126 31.3888ZM69.8081 29.2558L70.6383 29.8132C70.9599 29.3342 71.4034 28.9478 71.9971 28.6569L71.5571 27.7589L71.1171 26.8609C70.2323 27.2944 69.5098 27.906 68.9778 28.6985L69.8081 29.2558ZM71.5571 27.7589L72.0102 28.6503C72.6009 28.3501 73.28 28.1829 74.0662 28.1664L74.0452 27.1666L74.0243 26.1668C72.9708 26.1889 71.9912 26.4165 71.104 26.8674L71.5571 27.7589ZM74.0452 27.1666L74.0662 28.1664C75.1552 28.1436 76.0122 28.3842 76.6915 28.8337L77.2434 27.9998L77.7953 27.1659C76.7165 26.452 75.4414 26.1371 74.0243 26.1668L74.0452 27.1666ZM77.2434 27.9998L76.7062 28.8433C77.3672 29.2642 77.8802 29.9341 78.2075 30.9476L79.1591 30.6402L80.1107 30.3329C79.6679 28.9619 78.9038 27.8716 77.7805 27.1563L77.2434 27.9998ZM79.1591 30.6402L78.2743 31.1061C78.1955 30.9564 78.1828 30.8254 78.1814 30.7607L79.1812 30.7398L80.181 30.7188C80.178 30.5742 80.1506 30.3768 80.044 30.1744L79.1591 30.6402ZM79.1812 30.7398L78.1814 30.7607C78.1778 30.586 78.2362 30.384 78.3802 30.2188C78.5058 30.0747 78.6385 30.0253 78.6785 30.0123L78.9859 30.9639L79.2932 31.9155C79.4657 31.8598 79.6972 31.7517 79.8879 31.5328C80.097 31.2929 80.1869 31.0002 80.181 30.7188L79.1812 30.7398ZM78.9859 30.9639L78.7189 30.0002L76.5312 30.6062L76.7981 31.5699L77.065 32.5336L79.2528 31.9277L78.9859 30.9639ZM76.7981 31.5699L76.5353 30.6051L76.4557 30.6267L76.7185 31.5916L76.9813 32.5564L77.0609 32.5348L76.7981 31.5699ZM76.7185 31.5916L76.6976 30.5918C76.8339 30.5889 77.022 30.6279 77.1915 30.7633C77.3479 30.8882 77.4069 31.0303 77.426 31.0893L76.4744 31.3966L75.5228 31.704C75.5846 31.8955 75.7057 32.1363 75.9436 32.3262C76.1944 32.5265 76.4832 32.5967 76.7395 32.5914L76.7185 31.5916ZM76.4744 31.3966L77.3918 30.9987C77.0917 30.3069 76.6703 29.7049 76.0722 29.3171L75.5282 30.1562L74.9841 30.9953C75.1432 31.0984 75.3526 31.3234 75.557 31.7946L76.4744 31.3966ZM75.5282 30.1562L76.0722 29.3171C75.4854 28.9366 74.7989 28.7912 74.0796 28.8062L74.1005 29.806L74.1215 30.8058C74.5486 30.7969 74.8139 30.8849 74.9841 30.9953L75.5282 30.1562ZM74.1005 29.806L74.0796 28.8062C73.3173 28.8222 72.596 28.9872 72.0034 29.3934L72.5688 30.2182L73.1343 31.043C73.3042 30.9265 73.604 30.8166 74.1215 30.8058L74.1005 29.806ZM72.5688 30.2182L72.0034 29.3934C71.3716 29.8265 70.9939 30.4753 71.0106 31.2711L72.0103 31.2501L73.0101 31.2292C73.0089 31.173 73.0195 31.1541 73.0227 31.1482C73.0277 31.139 73.0508 31.1002 73.1343 31.043L72.5688 30.2182ZM72.0103 31.2501L71.0106 31.2711C71.027 32.0539 71.3918 32.7043 71.978 33.1886L72.6149 32.4177L73.2519 31.6468C73.0509 31.4808 73.0127 31.3529 73.0101 31.2292L72.0103 31.2501ZM72.6149 32.4177L72.0067 33.2115C72.5515 33.6289 73.3225 33.9644 74.2331 34.2514L74.5338 33.2977L74.8345 32.344C73.9998 32.0809 73.4916 31.8296 73.2231 31.6239L72.6149 32.4177ZM74.5338 33.2977L74.243 34.2545L75.2899 34.5727L75.5807 33.6159L75.8714 32.6591L74.8245 32.3409L74.5338 33.2977ZM75.5807 33.6159L75.2844 34.571C76.5659 34.9685 77.3865 35.4576 77.8624 35.9721L78.5965 35.293L79.3306 34.614C78.5238 33.7418 77.3338 33.1127 75.877 32.6608L75.5807 33.6159ZM78.5965 35.293L77.876 35.9866C78.3144 36.4419 78.5946 37.1108 78.6156 38.1133L79.6153 38.0923L80.6151 38.0714C80.5864 36.7011 80.1874 35.5038 79.3169 34.5995L78.5965 35.293ZM79.6153 38.0923L78.6156 38.1133C78.6282 38.7173 78.4769 39.2418 78.165 39.7165L79.0007 40.2657L79.8365 40.8148C80.3776 39.9913 80.636 39.067 80.6151 38.0714L79.6153 38.0923ZM79.0007 40.2657L78.165 39.7165C77.8489 40.1977 77.3926 40.5966 76.7575 40.9035L77.1926 41.8039L77.6277 42.7043C78.5504 42.2584 79.2996 41.6318 79.8365 40.8148L79.0007 40.2657ZM77.1926 41.8039L76.7575 40.9035C76.1265 41.2084 75.382 41.3817 74.5035 41.4001L74.5245 42.3999L74.5454 43.3997C75.6665 43.3762 76.7007 43.1522 77.6277 42.7043L77.1926 41.8039Z" fill="#372F32" mask="url(#path-9-outside-5_2125_6385)"/>
<mask id="path-11-outside-6_2125_6385" maskUnits="userSpaceOnUse" x="18.6738" y="8.97455" width="19.92" height="14.3861" fill="black">
<rect fill="white" x="18.6738" y="8.97455" width="19.92" height="14.3861"/>
<path d="M21.1877 22.2421C21.0149 22.2551 20.922 22.1752 20.909 22.0023L20.1723 12.1899C20.1593 12.0171 20.2392 11.9242 20.4121 11.9112L22.2868 11.7705C22.4729 11.7565 22.5725 11.8359 22.5855 12.0088L22.7382 13.2408C23.0562 12.6687 23.4968 12.2144 24.0598 11.878C24.6229 11.5416 25.2302 11.3489 25.8817 11.3C26.6528 11.2421 27.3301 11.3584 27.9135 11.6488C28.4959 11.926 28.9496 12.3599 29.2748 12.9506C29.6011 12.311 30.0648 11.8082 30.6657 11.4422C31.2657 11.0629 31.9313 10.8458 32.6626 10.7909C33.7927 10.706 34.7024 10.9787 35.3915 11.6088C36.0939 12.238 36.4895 13.1443 36.5784 14.3276L37.0635 20.7894C37.0765 20.9623 36.9966 21.0552 36.8237 21.0681L34.7496 21.2239C34.5767 21.2369 34.4838 21.1569 34.4708 20.9841L34.065 15.5793C33.9393 13.904 33.2648 13.1123 32.0415 13.2041C31.39 13.253 30.8506 13.5476 30.4231 14.0878C30.009 14.627 29.8369 15.3619 29.9068 16.2926L30.2826 21.2985C30.2956 21.4714 30.2157 21.5643 30.0428 21.5773L27.9687 21.733C27.7958 21.746 27.7029 21.666 27.6899 21.4932L27.2841 16.0884C27.1583 14.4131 26.4838 13.6214 25.2606 13.7133C24.6091 13.7622 24.0697 14.0567 23.6422 14.5969C23.2281 15.1361 23.056 15.871 23.1259 16.8018L23.5017 21.8077C23.5147 21.9805 23.4348 22.0734 23.2619 22.0864L21.1877 22.2421Z"/>
</mask>
<path d="M21.1877 22.2421C21.0149 22.2551 20.922 22.1752 20.909 22.0023L20.1723 12.1899C20.1593 12.0171 20.2392 11.9242 20.4121 11.9112L22.2868 11.7705C22.4729 11.7565 22.5725 11.8359 22.5855 12.0088L22.7382 13.2408C23.0562 12.6687 23.4968 12.2144 24.0598 11.878C24.6229 11.5416 25.2302 11.3489 25.8817 11.3C26.6528 11.2421 27.3301 11.3584 27.9135 11.6488C28.4959 11.926 28.9496 12.3599 29.2748 12.9506C29.6011 12.311 30.0648 11.8082 30.6657 11.4422C31.2657 11.0629 31.9313 10.8458 32.6626 10.7909C33.7927 10.706 34.7024 10.9787 35.3915 11.6088C36.0939 12.238 36.4895 13.1443 36.5784 14.3276L37.0635 20.7894C37.0765 20.9623 36.9966 21.0552 36.8237 21.0681L34.7496 21.2239C34.5767 21.2369 34.4838 21.1569 34.4708 20.9841L34.065 15.5793C33.9393 13.904 33.2648 13.1123 32.0415 13.2041C31.39 13.253 30.8506 13.5476 30.4231 14.0878C30.009 14.627 29.8369 15.3619 29.9068 16.2926L30.2826 21.2985C30.2956 21.4714 30.2157 21.5643 30.0428 21.5773L27.9687 21.733C27.7958 21.746 27.7029 21.666 27.6899 21.4932L27.2841 16.0884C27.1583 14.4131 26.4838 13.6214 25.2606 13.7133C24.6091 13.7622 24.0697 14.0567 23.6422 14.5969C23.2281 15.1361 23.056 15.871 23.1259 16.8018L23.5017 21.8077C23.5147 21.9805 23.4348 22.0734 23.2619 22.0864L21.1877 22.2421Z" fill="#8B688D"/>
<path d="M22.5855 12.0088L21.5883 12.0836L21.5901 12.1077L21.5931 12.1317L22.5855 12.0088ZM22.7382 13.2408L21.7457 13.3638L22.1227 16.4057L23.6122 13.7267L22.7382 13.2408ZM24.0598 11.878L23.5469 11.0196L23.5469 11.0196L24.0598 11.878ZM27.9135 11.6488L27.4678 12.544L27.4757 12.548L27.4838 12.5518L27.9135 11.6488ZM29.2748 12.9506L28.3987 13.4328L29.3082 15.085L30.1655 13.4051L29.2748 12.9506ZM30.6657 11.4422L31.1859 12.2962L31.1931 12.2919L31.2001 12.2874L30.6657 11.4422ZM35.3915 11.6088L34.7166 12.3468L34.7243 12.3537L35.3915 11.6088ZM30.4231 14.0878L29.6389 13.4673L29.6345 13.4729L29.6301 13.4787L30.4231 14.0878ZM23.6422 14.5969L22.858 13.9764L22.8536 13.9821L22.8492 13.9878L23.6422 14.5969ZM21.1877 22.2421L21.1129 21.2449C21.1802 21.2399 21.4151 21.2398 21.6406 21.4338C21.8661 21.6279 21.9012 21.8602 21.9062 21.9275L20.909 22.0023L19.9118 22.0772C19.9298 22.3173 20.0178 22.676 20.3362 22.95C20.6547 23.2239 21.0225 23.2574 21.2626 23.2393L21.1877 22.2421ZM20.909 22.0023L21.9062 21.9275L21.1695 12.1151L20.1723 12.1899L19.1751 12.2648L19.9118 22.0772L20.909 22.0023ZM20.1723 12.1899L21.1695 12.1151C21.1745 12.1824 21.1746 12.4173 20.9806 12.6428C20.7866 12.8683 20.5542 12.9033 20.487 12.9084L20.4121 11.9112L20.3372 10.914C20.0971 10.932 19.7384 11.02 19.4644 11.3384C19.1905 11.6569 19.1571 12.0247 19.1751 12.2648L20.1723 12.1899ZM20.4121 11.9112L20.487 12.9084L22.3617 12.7676L22.2868 11.7704L22.2119 10.7733L20.3372 10.914L20.4121 11.9112ZM22.2868 11.7704L22.3617 12.7676C22.3186 12.7709 22.0999 12.7788 21.8774 12.6012C21.64 12.4118 21.5948 12.1706 21.5883 12.0836L22.5855 12.0088L23.5827 11.9339C23.5632 11.674 23.4618 11.3067 23.1248 11.0379C22.8027 10.7809 22.4411 10.756 22.2119 10.7733L22.2868 11.7704ZM22.5855 12.0088L21.5931 12.1317L21.7457 13.3638L22.7382 13.2408L23.7306 13.1178L23.5779 11.8858L22.5855 12.0088ZM22.7382 13.2408L23.6122 13.7267C23.8445 13.3087 24.1604 12.9828 24.5728 12.7364L24.0598 11.878L23.5469 11.0196C22.8331 11.4461 22.2679 12.0287 21.8642 12.7549L22.7382 13.2408ZM24.0598 11.878L24.5728 12.7364C25.0031 12.4793 25.4605 12.3344 25.9565 12.2972L25.8817 11.3L25.8068 10.3028C24.9999 10.3634 24.2427 10.6038 23.5469 11.0196L24.0598 11.878ZM25.8817 11.3L25.9565 12.2972C26.5819 12.2502 27.0734 12.3476 27.4678 12.544L27.9135 11.6488L28.3592 10.7537C27.5868 10.3691 26.7238 10.2339 25.8068 10.3028L25.8817 11.3ZM27.9135 11.6488L27.4838 12.5518C27.868 12.7347 28.1697 13.0168 28.3987 13.4328L29.2748 12.9506L30.1508 12.4683C29.7295 11.703 29.1237 11.1173 28.3432 10.7459L27.9135 11.6488ZM29.2748 12.9506L30.1655 13.4051C30.4095 12.9269 30.7465 12.5639 31.1859 12.2962L30.6657 11.4422L30.1456 10.5881C29.3831 11.0525 28.7928 11.6951 28.384 12.496L29.2748 12.9506ZM30.6657 11.4422L31.2001 12.2874C31.657 11.9986 32.1639 11.8311 32.7375 11.788L32.6626 10.7909L32.5877 9.79366C31.6988 9.86041 30.8744 10.1272 30.1314 10.597L30.6657 11.4422ZM32.6626 10.7909L32.7375 11.788C33.6559 11.7191 34.2735 11.9416 34.7166 12.3468L35.3915 11.6088L36.0663 10.8709C35.1312 10.0158 33.9296 9.69291 32.5877 9.79366L32.6626 10.7909ZM35.3915 11.6088L34.7243 12.3537C35.1879 12.7689 35.5064 13.407 35.5812 14.4025L36.5784 14.3276L37.5756 14.2527C37.4726 12.8815 36.9999 11.7071 36.0587 10.864L35.3915 11.6088ZM36.5784 14.3276L35.5812 14.4025L36.0664 20.8643L37.0635 20.7894L38.0607 20.7145L37.5756 14.2527L36.5784 14.3276ZM37.0635 20.7894L36.0664 20.8643C36.0613 20.797 36.0613 20.5621 36.2553 20.3366C36.4493 20.111 36.6816 20.076 36.7489 20.071L36.8237 21.0681L36.8986 22.0653C37.1387 22.0473 37.4975 21.9593 37.7714 21.6409C38.0453 21.3225 38.0788 20.9547 38.0607 20.7145L37.0635 20.7894ZM36.8237 21.0681L36.7489 20.071L34.6747 20.2267L34.7496 21.2239L34.8244 22.2211L36.8986 22.0653L36.8237 21.0681ZM34.7496 21.2239L34.6747 20.2267C34.742 20.2216 34.9769 20.2216 35.2024 20.4156C35.4279 20.6096 35.463 20.8419 35.468 20.9092L34.4708 20.9841L33.4736 21.0589C33.4917 21.2991 33.5797 21.6578 33.8981 21.9317C34.2165 22.2057 34.5843 22.2391 34.8244 22.2211L34.7496 21.2239ZM34.4708 20.9841L35.468 20.9092L35.0622 15.5044L34.065 15.5793L33.0678 15.6542L33.4736 21.0589L34.4708 20.9841ZM34.065 15.5793L35.0622 15.5044C34.9924 14.575 34.7622 13.7099 34.226 13.0805C33.6429 12.396 32.8318 12.142 31.9667 12.2069L32.0415 13.2041L32.1164 14.2013C32.4745 14.1744 32.6123 14.2703 32.7036 14.3775C32.842 14.5399 33.0118 14.9083 33.0678 15.6542L34.065 15.5793ZM32.0415 13.2041L31.9667 12.2069C31.0198 12.278 30.2292 12.7213 29.6389 13.4673L30.4231 14.0878L31.2073 14.7083C31.472 14.3738 31.7602 14.2281 32.1164 14.2013L32.0415 13.2041ZM30.4231 14.0878L29.6301 13.4787C29.0181 14.2755 28.8282 15.2834 28.9096 16.3675L29.9068 16.2926L30.904 16.2178C30.8456 15.4404 31 14.9785 31.2162 14.6969L30.4231 14.0878ZM29.9068 16.2926L28.9096 16.3675L29.2854 21.3734L30.2826 21.2985L31.2798 21.2237L30.904 16.2178L29.9068 16.2926ZM30.2826 21.2985L29.2854 21.3734C29.2804 21.3061 29.2803 21.0712 29.4743 20.8457C29.6684 20.6202 29.9007 20.5851 29.968 20.5801L30.0428 21.5773L30.1177 22.5745C30.3578 22.5564 30.7165 22.4685 30.9905 22.15C31.2644 21.8316 31.2979 21.4638 31.2798 21.2237L30.2826 21.2985ZM30.0428 21.5773L29.968 20.5801L27.8938 20.7358L27.9687 21.733L28.0435 22.7302L30.1177 22.5745L30.0428 21.5773ZM27.9687 21.733L27.8938 20.7358C27.9611 20.7308 28.196 20.7307 28.4215 20.9247C28.647 21.1187 28.6821 21.351 28.6871 21.4183L27.6899 21.4932L26.6927 21.5681C26.7108 21.8082 26.7987 22.1669 27.1172 22.4409C27.4356 22.7148 27.8034 22.7482 28.0435 22.7302L27.9687 21.733ZM27.6899 21.4932L28.6871 21.4183L28.2813 16.0135L27.2841 16.0884L26.2869 16.1633L26.6927 21.5681L27.6899 21.4932ZM27.2841 16.0884L28.2813 16.0135C28.2115 15.0841 27.9813 14.219 27.4451 13.5897C26.862 12.9052 26.0509 12.6511 25.1857 12.7161L25.2606 13.7133L25.3355 14.7104C25.6936 14.6836 25.8314 14.7794 25.9227 14.8867C26.0611 15.0491 26.2309 15.4174 26.2869 16.1633L27.2841 16.0884ZM25.2606 13.7133L25.1857 12.7161C24.2389 12.7871 23.4483 13.2305 22.858 13.9764L23.6422 14.5969L24.4264 15.2174C24.6911 14.883 24.9793 14.7372 25.3355 14.7104L25.2606 13.7133ZM23.6422 14.5969L22.8492 13.9878C22.2372 14.7846 22.0473 15.7925 22.1287 16.8766L23.1259 16.8018L24.1231 16.7269C24.0647 15.9495 24.2191 15.4876 24.4353 15.206L23.6422 14.5969ZM23.1259 16.8018L22.1287 16.8766L22.5045 21.8825L23.5017 21.8077L24.4989 21.7328L24.1231 16.7269L23.1259 16.8018ZM23.5017 21.8077L22.5045 21.8825C22.4995 21.8152 22.4994 21.5803 22.6934 21.3548C22.8874 21.1293 23.1198 21.0943 23.187 21.0892L23.2619 22.0864L23.3368 23.0836C23.5769 23.0656 23.9356 22.9776 24.2096 22.6592C24.4835 22.3407 24.5169 21.9729 24.4989 21.7328L23.5017 21.8077ZM23.2619 22.0864L23.187 21.0892L21.1129 21.2449L21.1877 22.2421L21.2626 23.2393L23.3368 23.0836L23.2619 22.0864Z" fill="#372F32" mask="url(#path-11-outside-6_2125_6385)"/>
<mask id="path-13-outside-7_2125_6385" maskUnits="userSpaceOnUse" x="39.0919" y="4.70021" width="6.27729" height="18.0905" fill="black">
<rect fill="white" x="39.0919" y="4.70021" width="6.27729" height="18.0905"/>
<path d="M41.9554 9.54072C41.5155 9.53392 41.1509 9.39494 40.8617 9.12378C40.5859 8.85282 40.4512 8.50403 40.4578 8.07741C40.4644 7.6508 40.6098 7.30633 40.8938 7.04402C41.1913 6.78192 41.5599 6.65427 41.9999 6.66106C42.4398 6.66786 42.7977 6.80673 43.0736 7.07769C43.3628 7.34886 43.5041 7.69775 43.4975 8.12437C43.4909 8.55098 43.3389 8.89534 43.0415 9.15745C42.7574 9.41976 42.3954 9.54751 41.9554 9.54072ZM40.7271 21.7232C40.5538 21.7205 40.4685 21.6325 40.4711 21.4592L40.6231 11.6204C40.6258 11.4471 40.7138 11.3618 40.8871 11.3644L42.9669 11.3966C43.1402 11.3992 43.2255 11.4872 43.2228 11.6605L43.0708 21.4994C43.0682 21.6727 42.9802 21.758 42.8069 21.7553L40.7271 21.7232Z"/>
</mask>
<path d="M41.9554 9.54072C41.5155 9.53392 41.1509 9.39494 40.8617 9.12378C40.5859 8.85282 40.4512 8.50403 40.4578 8.07741C40.4644 7.6508 40.6098 7.30633 40.8938 7.04402C41.1913 6.78192 41.5599 6.65427 41.9999 6.66106C42.4398 6.66786 42.7977 6.80673 43.0736 7.07769C43.3628 7.34886 43.5041 7.69775 43.4975 8.12437C43.4909 8.55098 43.3389 8.89534 43.0415 9.15745C42.7574 9.41976 42.3954 9.54751 41.9554 9.54072ZM40.7271 21.7232C40.5538 21.7205 40.4685 21.6325 40.4711 21.4592L40.6231 11.6204C40.6258 11.4471 40.7138 11.3618 40.8871 11.3644L42.9669 11.3966C43.1402 11.3992 43.2255 11.4872 43.2228 11.6605L43.0708 21.4994C43.0682 21.6727 42.9802 21.758 42.8069 21.7553L40.7271 21.7232Z" fill="#8B688D"/>
<path d="M40.8617 9.12378L40.161 9.83718L40.1692 9.8453L40.1777 9.85324L40.8617 9.12378ZM40.8938 7.04402L40.2327 6.29378L40.224 6.30145L40.2155 6.30932L40.8938 7.04402ZM43.0736 7.07769L42.3728 7.79109L42.3811 7.79922L42.3896 7.80716L43.0736 7.07769ZM43.0415 9.15745L42.3803 8.4072L42.3716 8.41487L42.3631 8.42274L43.0415 9.15745ZM41.9554 9.54072L41.9709 8.54084C41.7501 8.53743 41.633 8.47614 41.5457 8.39431L40.8617 9.12378L40.1777 9.85324C40.6688 10.3137 41.2808 10.5304 41.94 10.5406L41.9554 9.54072ZM40.8617 9.12378L41.5625 8.41037C41.5031 8.35209 41.4549 8.27715 41.4577 8.09286L40.4578 8.07741L39.4579 8.06197C39.4476 8.73091 39.6686 9.35354 40.161 9.83718L40.8617 9.12378ZM40.4578 8.07741L41.4577 8.09286C41.4606 7.90857 41.5111 7.83515 41.5722 7.77873L40.8938 7.04402L40.2155 6.30932C39.7084 6.77752 39.4683 7.39302 39.4579 8.06197L40.4578 8.07741ZM40.8938 7.04402L41.555 7.79426C41.6448 7.71517 41.7637 7.65753 41.9844 7.66094L41.9999 6.66106L42.0153 5.66118C41.3562 5.651 40.7378 5.84867 40.2327 6.29378L40.8938 7.04402ZM41.9999 6.66106L41.9844 7.66094C42.2059 7.66436 42.3057 7.7252 42.3728 7.79109L43.0736 7.07769L43.7743 6.36429C43.2897 5.88827 42.6738 5.67135 42.0153 5.66118L41.9999 6.66106ZM43.0736 7.07769L42.3896 7.80716C42.4563 7.8697 42.5002 7.93989 42.4976 8.10892L43.4975 8.12436L44.4973 8.13981C44.5079 7.45561 44.2693 6.82802 43.7576 6.34823L43.0736 7.07769ZM43.4975 8.12436L42.4976 8.10892C42.495 8.27795 42.4489 8.34675 42.3803 8.4072L43.0415 9.15745L43.7026 9.90769C44.2289 9.44393 44.4868 8.82401 44.4973 8.13981L43.4975 8.12436ZM43.0415 9.15745L42.3631 8.42274C42.294 8.48654 42.1923 8.54426 41.9709 8.54084L41.9554 9.54072L41.94 10.5406C42.5984 10.5508 43.2208 10.353 43.7198 9.89215L43.0415 9.15745ZM40.7271 21.7232L40.7425 20.7233C40.81 20.7244 41.044 20.7455 41.2511 20.9591C41.4581 21.1727 41.4721 21.4072 41.471 21.4747L40.4711 21.4592L39.4713 21.4438C39.4675 21.6846 39.5228 22.0497 39.8152 22.3513C40.1076 22.6529 40.4709 22.7194 40.7117 22.7231L40.7271 21.7232ZM40.4711 21.4592L41.471 21.4747L41.623 11.6358L40.6231 11.6204L39.6232 11.6049L39.4713 21.4438L40.4711 21.4592ZM40.6231 11.6204L41.623 11.6358C41.622 11.7033 41.6008 11.9373 41.3872 12.1444C41.1737 12.3514 40.9391 12.3654 40.8717 12.3643L40.8871 11.3644L40.9026 10.3646C40.6618 10.3608 40.2966 10.4161 39.995 10.7085C39.6935 11.0009 39.627 11.3642 39.6232 11.6049L40.6231 11.6204ZM40.8871 11.3644L40.8717 12.3643L42.9514 12.3964L42.9669 11.3966L42.9823 10.3967L40.9026 10.3646L40.8871 11.3644ZM42.9669 11.3966L42.9514 12.3964C42.884 12.3954 42.65 12.3742 42.4429 12.1607C42.2358 11.9471 42.2219 11.7126 42.2229 11.6451L43.2228 11.6605L44.2227 11.676C44.2264 11.4352 44.1712 11.07 43.8788 10.7685C43.5864 10.4669 43.2231 10.4004 42.9823 10.3967L42.9669 11.3966ZM43.2228 11.6605L42.2229 11.6451L42.071 21.4839L43.0708 21.4994L44.0707 21.5148L44.2227 11.676L43.2228 11.6605ZM43.0708 21.4994L42.071 21.4839C42.072 21.4165 42.0932 21.1825 42.3067 20.9754C42.5203 20.7683 42.7548 20.7544 42.8223 20.7554L42.8069 21.7553L42.7914 22.7552C43.0322 22.7589 43.3974 22.7037 43.6989 22.4113C44.0005 22.1189 44.067 21.7556 44.0707 21.5148L43.0708 21.4994ZM42.8069 21.7553L42.8223 20.7554L40.7425 20.7233L40.7271 21.7232L40.7117 22.7231L42.7914 22.7552L42.8069 21.7553Z" fill="#372F32" mask="url(#path-13-outside-7_2125_6385)"/>
<mask id="path-15-outside-8_2125_6385" maskUnits="userSpaceOnUse" x="45.0919" y="9.69961" width="12.1994" height="13.1838" fill="black">
<rect fill="white" x="45.0919" y="9.69961" width="12.1994" height="13.1838"/>
<path d="M46.7271 21.7232C46.5538 21.7205 46.4685 21.6325 46.4711 21.4592L46.6231 11.6204C46.6258 11.4471 46.7138 11.3618 46.8871 11.3644L48.7669 11.3935C48.9535 11.3964 49.0455 11.4845 49.0428 11.6578L49.0846 12.8386C49.4661 12.311 49.959 11.9119 50.5633 11.6412C51.1675 11.3705 51.8096 11.2404 52.4895 11.251C53.6894 11.2695 54.6107 11.6238 55.2534 12.3138C55.9097 12.9907 56.2286 13.929 56.2101 15.1289L56.11 21.6081C56.1073 21.7814 56.0193 21.8667 55.846 21.8641L53.7663 21.8319C53.593 21.8293 53.5076 21.7413 53.5103 21.5679L53.594 16.1486C53.6074 15.282 53.4572 14.6463 53.1434 14.2414C52.8298 13.8232 52.3331 13.6088 51.6532 13.5983C50.9733 13.5878 50.3894 13.8322 49.9016 14.3313C49.4139 14.8305 49.1628 15.5467 49.1484 16.48L49.0708 21.4994C49.0682 21.6727 48.9802 21.758 48.8069 21.7553L46.7271 21.7232Z"/>
</mask>
<path d="M46.7271 21.7232C46.5538 21.7205 46.4685 21.6325 46.4711 21.4592L46.6231 11.6204C46.6258 11.4471 46.7138 11.3618 46.8871 11.3644L48.7669 11.3935C48.9535 11.3964 49.0455 11.4845 49.0428 11.6578L49.0846 12.8386C49.4661 12.311 49.959 11.9119 50.5633 11.6412C51.1675 11.3705 51.8096 11.2404 52.4895 11.251C53.6894 11.2695 54.6107 11.6238 55.2534 12.3138C55.9097 12.9907 56.2286 13.929 56.2101 15.1289L56.11 21.6081C56.1073 21.7814 56.0193 21.8667 55.846 21.8641L53.7663 21.8319C53.593 21.8293 53.5076 21.7413 53.5103 21.5679L53.594 16.1486C53.6074 15.282 53.4572 14.6463 53.1434 14.2414C52.8298 13.8232 52.3331 13.6088 51.6532 13.5983C50.9733 13.5878 50.3894 13.8322 49.9016 14.3313C49.4139 14.8305 49.1628 15.5467 49.1484 16.48L49.0708 21.4994C49.0682 21.6727 48.9802 21.758 48.8069 21.7553L46.7271 21.7232Z" fill="#8B688D"/>
<path d="M49.0428 11.6578L48.043 11.6423L48.0426 11.6677L48.0435 11.6931L49.0428 11.6578ZM49.0846 12.8386L48.0852 12.8739L48.1882 15.7843L49.8949 13.4246L49.0846 12.8386ZM50.5633 11.6412L50.1544 10.7286L50.1544 10.7286L50.5633 11.6412ZM55.2534 12.3138L54.5217 12.9954L54.5285 13.0027L54.5355 13.0099L55.2534 12.3138ZM53.1434 14.2414L52.3433 14.8413L52.3481 14.8477L52.353 14.854L53.1434 14.2414ZM49.9016 14.3313L50.6169 15.0302L50.6169 15.0302L49.9016 14.3313ZM46.7271 21.7232L46.7425 20.7233C46.81 20.7244 47.044 20.7455 47.2511 20.9591C47.4581 21.1727 47.4721 21.4072 47.471 21.4747L46.4711 21.4592L45.4713 21.4438C45.4675 21.6846 45.5228 22.0497 45.8152 22.3513C46.1076 22.6529 46.4709 22.7194 46.7117 22.7231L46.7271 21.7232ZM46.4711 21.4592L47.471 21.4747L47.623 11.6358L46.6231 11.6204L45.6232 11.6049L45.4713 21.4438L46.4711 21.4592ZM46.6231 11.6204L47.623 11.6358C47.622 11.7033 47.6008 11.9373 47.3872 12.1444C47.1737 12.3514 46.9391 12.3654 46.8717 12.3643L46.8871 11.3644L46.9026 10.3646C46.6618 10.3608 46.2966 10.4161 45.995 10.7085C45.6935 11.0009 45.627 11.3642 45.6232 11.6049L46.6231 11.6204ZM46.8871 11.3644L46.8717 12.3643L48.7514 12.3934L48.7669 11.3935L48.7823 10.3936L46.9026 10.3646L46.8871 11.3644ZM48.7669 11.3935L48.7514 12.3934C48.7083 12.3927 48.4898 12.3808 48.2842 12.1839C48.0648 11.9738 48.0416 11.7296 48.043 11.6423L49.0428 11.6578L50.0427 11.6732C50.0467 11.4126 49.9789 11.0377 49.6675 10.7395C49.37 10.4545 49.0121 10.3971 48.7823 10.3936L48.7669 11.3935ZM49.0428 11.6578L48.0435 11.6931L48.0852 12.8739L49.0846 12.8386L50.084 12.8032L50.0422 11.6224L49.0428 11.6578ZM49.0846 12.8386L49.8949 13.4246C50.1717 13.0418 50.5251 12.7541 50.9721 12.5539L50.5633 11.6412L50.1544 10.7286C49.3929 11.0698 48.7605 11.5803 48.2743 12.2525L49.0846 12.8386ZM50.5633 11.6412L50.9721 12.5539C51.4394 12.3445 51.9362 12.2425 52.4741 12.2508L52.4895 11.251L52.505 10.2511C51.683 10.2384 50.8957 10.3966 50.1544 10.7286L50.5633 11.6412ZM52.4895 11.251L52.4741 12.2508C53.4802 12.2664 54.1119 12.5554 54.5217 12.9954L55.2534 12.3138L55.9852 11.6322C55.1095 10.6922 53.8986 10.2726 52.505 10.2511L52.4895 11.251ZM55.2534 12.3138L54.5355 13.0099C54.9603 13.448 55.2258 14.1028 55.2102 15.1134L56.2101 15.1289L57.21 15.1443C57.2314 13.7552 56.8592 12.5333 55.9714 11.6177L55.2534 12.3138ZM56.2101 15.1289L55.2102 15.1134L55.1101 21.5927L56.11 21.6081L57.1099 21.6236L57.21 15.1443L56.2101 15.1289ZM56.11 21.6081L55.1101 21.5927C55.1112 21.5252 55.1323 21.2912 55.3459 21.0841C55.5595 20.8771 55.794 20.8631 55.8615 20.8642L55.846 21.8641L55.8306 22.8639C56.0714 22.8677 56.4365 22.8124 56.7381 22.52C57.0397 22.2276 57.1062 21.8643 57.1099 21.6236L56.11 21.6081ZM55.846 21.8641L55.8615 20.8642L53.7817 20.8321L53.7663 21.8319L53.7508 22.8318L55.8306 22.8639L55.846 21.8641ZM53.7663 21.8319L53.7817 20.8321C53.8492 20.8331 54.0832 20.8543 54.2902 21.0678C54.4973 21.2814 54.5112 21.5159 54.5102 21.5834L53.5103 21.5679L52.5104 21.5525C52.5067 21.7933 52.562 22.1585 52.8543 22.46C53.1467 22.7616 53.51 22.8281 53.7508 22.8318L53.7663 21.8319ZM53.5103 21.5679L54.5102 21.5834L54.5939 16.164L53.594 16.1486L52.5941 16.1331L52.5104 21.5525L53.5103 21.5679ZM53.594 16.1486L54.5939 16.164C54.6086 15.2136 54.4545 14.3007 53.9338 13.6288L53.1434 14.2414L52.353 14.854C52.4599 14.992 52.6062 15.3505 52.5941 16.1331L53.594 16.1486ZM53.1434 14.2414L53.9435 13.6415C53.391 12.9047 52.5566 12.6121 51.6686 12.5984L51.6532 13.5983L51.6377 14.5982C52.1096 14.6055 52.2686 14.7417 52.3433 14.8413L53.1434 14.2414ZM51.6532 13.5983L51.6686 12.5984C50.7061 12.5836 49.8604 12.9427 49.1864 13.6325L49.9016 14.3313L50.6169 15.0302C50.9185 14.7216 51.2404 14.5921 51.6377 14.5982L51.6532 13.5983ZM49.9016 14.3313L49.1864 13.6325C48.4664 14.3694 48.1655 15.3638 48.1485 16.4645L49.1484 16.48L50.1483 16.4954C50.1601 15.7297 50.3614 15.2917 50.6169 15.0302L49.9016 14.3313ZM49.1484 16.48L48.1485 16.4645L48.071 21.4839L49.0708 21.4994L50.0707 21.5148L50.1483 16.4954L49.1484 16.48ZM49.0708 21.4994L48.071 21.4839C48.072 21.4165 48.0932 21.1825 48.3067 20.9754C48.5203 20.7683 48.7548 20.7544 48.8223 20.7554L48.8069 21.7553L48.7914 22.7552C49.0322 22.7589 49.3974 22.7037 49.6989 22.4113C50.0005 22.1189 50.067 21.7556 50.0707 21.5148L49.0708 21.4994ZM48.8069 21.7553L48.8223 20.7554L46.7425 20.7233L46.7271 21.7232L46.7117 22.7231L48.7914 22.7552L48.8069 21.7553Z" fill="#372F32" mask="url(#path-15-outside-8_2125_6385)"/>
<mask id="path-17-outside-9_2125_6385" maskUnits="userSpaceOnUse" x="58.0919" y="4.70021" width="6.27729" height="18.0905" fill="black">
<rect fill="white" x="58.0919" y="4.70021" width="6.27729" height="18.0905"/>
<path d="M60.9554 9.54072C60.5155 9.53392 60.1509 9.39494 59.8617 9.12378C59.5859 8.85282 59.4512 8.50403 59.4578 8.07741C59.4644 7.6508 59.6098 7.30633 59.8938 7.04402C60.1913 6.78192 60.5599 6.65427 60.9999 6.66106C61.4398 6.66786 61.7977 6.80673 62.0736 7.07769C62.3628 7.34886 62.5041 7.69775 62.4975 8.12437C62.4909 8.55098 62.3389 8.89534 62.0415 9.15745C61.7574 9.41976 61.3954 9.54751 60.9554 9.54072ZM59.7271 21.7232C59.5538 21.7205 59.4685 21.6325 59.4711 21.4592L59.6231 11.6204C59.6258 11.4471 59.7138 11.3618 59.8871 11.3644L61.9669 11.3966C62.1402 11.3992 62.2255 11.4872 62.2228 11.6605L62.0708 21.4994C62.0682 21.6727 61.9802 21.758 61.8069 21.7553L59.7271 21.7232Z"/>
</mask>
<path d="M60.9554 9.54072C60.5155 9.53392 60.1509 9.39494 59.8617 9.12378C59.5859 8.85282 59.4512 8.50403 59.4578 8.07741C59.4644 7.6508 59.6098 7.30633 59.8938 7.04402C60.1913 6.78192 60.5599 6.65427 60.9999 6.66106C61.4398 6.66786 61.7977 6.80673 62.0736 7.07769C62.3628 7.34886 62.5041 7.69775 62.4975 8.12437C62.4909 8.55098 62.3389 8.89534 62.0415 9.15745C61.7574 9.41976 61.3954 9.54751 60.9554 9.54072ZM59.7271 21.7232C59.5538 21.7205 59.4685 21.6325 59.4711 21.4592L59.6231 11.6204C59.6258 11.4471 59.7138 11.3618 59.8871 11.3644L61.9669 11.3966C62.1402 11.3992 62.2255 11.4872 62.2228 11.6605L62.0708 21.4994C62.0682 21.6727 61.9802 21.758 61.8069 21.7553L59.7271 21.7232Z" fill="#8B688D"/>
<path d="M59.8617 9.12378L59.161 9.83718L59.1692 9.8453L59.1777 9.85324L59.8617 9.12378ZM59.8938 7.04402L59.2327 6.29378L59.224 6.30145L59.2155 6.30932L59.8938 7.04402ZM62.0736 7.07769L61.3728 7.79109L61.3811 7.79922L61.3896 7.80716L62.0736 7.07769ZM62.0415 9.15745L61.3803 8.4072L61.3716 8.41487L61.3631 8.42274L62.0415 9.15745ZM60.9554 9.54072L60.9709 8.54084C60.7501 8.53743 60.633 8.47614 60.5457 8.39431L59.8617 9.12378L59.1777 9.85324C59.6688 10.3137 60.2808 10.5304 60.94 10.5406L60.9554 9.54072ZM59.8617 9.12378L60.5625 8.41037C60.5031 8.35209 60.4549 8.27715 60.4577 8.09286L59.4578 8.07741L58.4579 8.06197C58.4476 8.73091 58.6686 9.35354 59.161 9.83718L59.8617 9.12378ZM59.4578 8.07741L60.4577 8.09286C60.4606 7.90857 60.5111 7.83515 60.5722 7.77873L59.8938 7.04402L59.2155 6.30932C58.7084 6.77752 58.4683 7.39302 58.4579 8.06197L59.4578 8.07741ZM59.8938 7.04402L60.555 7.79426C60.6448 7.71517 60.7637 7.65753 60.9844 7.66094L60.9999 6.66106L61.0153 5.66118C60.3562 5.651 59.7378 5.84867 59.2327 6.29378L59.8938 7.04402ZM60.9999 6.66106L60.9844 7.66094C61.2059 7.66436 61.3057 7.7252 61.3728 7.79109L62.0736 7.07769L62.7743 6.36429C62.2897 5.88827 61.6738 5.67135 61.0153 5.66118L60.9999 6.66106ZM62.0736 7.07769L61.3896 7.80716C61.4563 7.8697 61.5002 7.93989 61.4976 8.10892L62.4975 8.12436L63.4973 8.13981C63.5079 7.45561 63.2693 6.82802 62.7576 6.34823L62.0736 7.07769ZM62.4975 8.12436L61.4976 8.10892C61.495 8.27795 61.4489 8.34675 61.3803 8.4072L62.0415 9.15745L62.7026 9.90769C63.2289 9.44393 63.4868 8.82401 63.4973 8.13981L62.4975 8.12436ZM62.0415 9.15745L61.3631 8.42274C61.294 8.48654 61.1923 8.54426 60.9709 8.54084L60.9554 9.54072L60.94 10.5406C61.5984 10.5508 62.2208 10.353 62.7198 9.89215L62.0415 9.15745ZM59.7271 21.7232L59.7425 20.7233C59.81 20.7244 60.044 20.7455 60.2511 20.9591C60.4581 21.1727 60.4721 21.4072 60.471 21.4747L59.4711 21.4592L58.4713 21.4438C58.4675 21.6846 58.5228 22.0497 58.8152 22.3513C59.1076 22.6529 59.4709 22.7194 59.7117 22.7231L59.7271 21.7232ZM59.4711 21.4592L60.471 21.4747L60.623 11.6358L59.6231 11.6204L58.6232 11.6049L58.4713 21.4438L59.4711 21.4592ZM59.6231 11.6204L60.623 11.6358C60.622 11.7033 60.6008 11.9373 60.3872 12.1444C60.1737 12.3514 59.9391 12.3654 59.8717 12.3643L59.8871 11.3644L59.9026 10.3646C59.6618 10.3608 59.2966 10.4161 58.995 10.7085C58.6935 11.0009 58.627 11.3642 58.6232 11.6049L59.6231 11.6204ZM59.8871 11.3644L59.8717 12.3643L61.9514 12.3964L61.9669 11.3966L61.9823 10.3967L59.9026 10.3646L59.8871 11.3644ZM61.9669 11.3966L61.9514 12.3964C61.884 12.3954 61.65 12.3742 61.4429 12.1607C61.2358 11.9471 61.2219 11.7126 61.2229 11.6451L62.2228 11.6605L63.2227 11.676C63.2264 11.4352 63.1712 11.07 62.8788 10.7685C62.5864 10.4669 62.2231 10.4004 61.9823 10.3967L61.9669 11.3966ZM62.2228 11.6605L61.2229 11.6451L61.071 21.4839L62.0708 21.4994L63.0707 21.5148L63.2227 11.676L62.2228 11.6605ZM62.0708 21.4994L61.071 21.4839C61.072 21.4165 61.0932 21.1825 61.3067 20.9754C61.5203 20.7683 61.7548 20.7544 61.8223 20.7554L61.8069 21.7553L61.7914 22.7552C62.0322 22.7589 62.3974 22.7037 62.6989 22.4113C63.0005 22.1189 63.067 21.7556 63.0707 21.5148L62.0708 21.4994ZM61.8069 21.7553L61.8223 20.7554L59.7425 20.7233L59.7271 21.7232L59.7117 22.7231L61.7914 22.7552L61.8069 21.7553Z" fill="#372F32" mask="url(#path-17-outside-9_2125_6385)"/>
</svg>
