<svg width="108" height="55" viewBox="0 0 108 55" fill="none" xmlns="http://www.w3.org/2000/svg">
<mask id="path-1-outside-1_2125_6276" maskUnits="userSpaceOnUse" x="-0.509556" y="6.9861" width="25.2054" height="18.7492" fill="black">
<rect fill="white" x="-0.509556" y="6.9861" width="25.2054" height="18.7492"/>
<path d="M7.50919 24.226C7.34964 24.238 7.24492 24.179 7.19505 24.049L1.02775 10.2921C1.01246 10.2665 1.00331 10.2338 1.00032 10.1939C0.996326 10.1407 1.01278 10.0927 1.04967 10.0498C1.09986 10.0059 1.15819 9.9815 1.22467 9.97651L3.75754 9.78634C3.9038 9.77536 4.00236 9.8415 4.05323 9.98476L8.00542 19.6159L10.515 9.49959C10.5439 9.35034 10.6315 9.27023 10.7778 9.25924L12.5727 9.12448C12.719 9.1135 12.8175 9.17963 12.8684 9.32289L16.862 18.971L19.3502 8.83623C19.3791 8.68698 19.4667 8.60687 19.6129 8.59589L22.086 8.41021C22.179 8.40322 22.2475 8.42482 22.2914 8.47501C22.3353 8.5252 22.3474 8.59782 22.3278 8.69289L18.2838 23.2164C18.2539 23.3524 18.1592 23.4264 17.9997 23.4383L16.1648 23.5761C16.0186 23.5871 15.92 23.5209 15.8691 23.3777L12.0222 14.0796L9.60676 23.8479C9.57786 23.9971 9.49028 24.0772 9.34402 24.0882L7.50919 24.226Z"/>
</mask>
<path d="M7.50919 24.226C7.34964 24.238 7.24492 24.179 7.19505 24.049L1.02775 10.2921C1.01246 10.2665 1.00331 10.2338 1.00032 10.1939C0.996326 10.1407 1.01278 10.0927 1.04967 10.0498C1.09986 10.0059 1.15819 9.9815 1.22467 9.97651L3.75754 9.78634C3.9038 9.77536 4.00236 9.8415 4.05323 9.98476L8.00542 19.6159L10.515 9.49959C10.5439 9.35034 10.6315 9.27023 10.7778 9.25924L12.5727 9.12448C12.719 9.1135 12.8175 9.17963 12.8684 9.32289L16.862 18.971L19.3502 8.83623C19.3791 8.68698 19.4667 8.60687 19.6129 8.59589L22.086 8.41021C22.179 8.40322 22.2475 8.42482 22.2914 8.47501C22.3353 8.5252 22.3474 8.59782 22.3278 8.69289L18.2838 23.2164C18.2539 23.3524 18.1592 23.4264 17.9997 23.4383L16.1648 23.5761C16.0186 23.5871 15.92 23.5209 15.8691 23.3777L12.0222 14.0796L9.60676 23.8479C9.57786 23.9971 9.49028 24.0772 9.34402 24.0882L7.50919 24.226Z" fill="#46984E"/>
<path d="M7.19505 24.049L8.12868 23.6907L8.11881 23.665L8.10755 23.6399L7.19505 24.049ZM1.02775 10.2921L1.94025 9.88306L1.91626 9.82955L1.88618 9.77921L1.02775 10.2921ZM1.04967 10.0498L0.391453 9.29699L0.337955 9.34377L0.291609 9.39764L1.04967 10.0498ZM4.05323 9.98476L3.11087 10.3194L3.11894 10.3421L3.12809 10.3644L4.05323 9.98476ZM8.00542 19.6159L7.08028 19.9955L8.24028 22.8223L8.976 19.8567L8.00542 19.6159ZM10.515 9.49959L11.4856 9.74037L11.4919 9.7152L11.4968 9.68974L10.515 9.49959ZM12.8684 9.32289L11.9261 9.6575L11.9346 9.68166L11.9444 9.70535L12.8684 9.32289ZM16.862 18.971L15.938 19.3534L17.1054 22.1737L17.8332 19.2094L16.862 18.971ZM19.3502 8.83623L20.3213 9.07466L20.3272 9.05065L20.3319 9.02638L19.3502 8.83623ZM22.3278 8.69289L23.2912 8.96113L23.3003 8.92826L23.3072 8.89485L22.3278 8.69289ZM18.2838 23.2164L17.3205 22.9482L17.3131 22.9747L17.3072 23.0016L18.2838 23.2164ZM15.8691 23.3777L16.8115 23.0431L16.8029 23.019L16.7932 22.9954L15.8691 23.3777ZM12.0222 14.0796L12.9462 13.6973L11.7822 10.884L11.0514 13.8396L12.0222 14.0796ZM9.60676 23.8479L8.636 23.6078L8.62987 23.6326L8.62501 23.6577L9.60676 23.8479ZM7.50919 24.226L7.43432 23.2288C7.48745 23.2248 7.63372 23.2248 7.80184 23.3195C7.98368 23.4219 8.08412 23.5746 8.12868 23.6907L7.19505 24.049L6.26143 24.4073C6.35586 24.6534 6.53359 24.9005 6.82014 25.062C7.09297 25.2157 7.37137 25.2391 7.58406 25.2232L7.50919 24.226ZM7.19505 24.049L8.10755 23.6399L1.94025 9.88306L1.02775 10.2921L0.115251 10.7012L6.28255 24.4581L7.19505 24.049ZM1.02775 10.2921L1.88618 9.77921C1.97294 9.92442 1.99267 10.0546 1.99751 10.119L1.00032 10.1939L0.00312568 10.2688C0.0139556 10.413 0.0519705 10.6087 0.169319 10.8051L1.02775 10.2921ZM1.00032 10.1939L1.99751 10.119C2.00513 10.2206 1.99357 10.3315 1.95572 10.442C1.91827 10.5513 1.8628 10.638 1.80773 10.702L1.04967 10.0498L0.291609 9.39764C0.0933873 9.62804 -0.0220226 9.93385 0.00312568 10.2688L1.00032 10.1939ZM1.04967 10.0498L1.70788 10.8026C1.59518 10.9012 1.44883 10.9625 1.29954 10.9737L1.22467 9.97651L1.1498 8.97932C0.867556 9.00051 0.604532 9.11069 0.391453 9.29699L1.04967 10.0498ZM1.22467 9.97651L1.29954 10.9737L3.83241 10.7835L3.75754 9.78634L3.68267 8.78915L1.1498 8.97932L1.22467 9.97651ZM3.75754 9.78634L3.83241 10.7835C3.73606 10.7908 3.56115 10.777 3.38394 10.6581C3.21045 10.5417 3.13699 10.3929 3.11087 10.3194L4.05323 9.98476L4.99558 9.65014C4.9186 9.43333 4.77042 9.1799 4.49837 8.99734C4.2226 8.81229 3.92528 8.77093 3.68267 8.78915L3.75754 9.78634ZM4.05323 9.98476L3.12809 10.3644L7.08028 19.9955L8.00542 19.6159L8.93055 19.2362L4.97836 9.60512L4.05323 9.98476ZM8.00542 19.6159L8.976 19.8567L11.4856 9.74037L10.515 9.49959L9.54446 9.25881L7.03484 19.3751L8.00542 19.6159ZM10.515 9.49959L11.4968 9.68974C11.482 9.76637 11.4315 9.9244 11.2774 10.0654C11.1199 10.2095 10.949 10.2492 10.8527 10.2564L10.7778 9.25925L10.7029 8.26205C10.4603 8.28027 10.1725 8.36556 9.92745 8.58971C9.68571 8.81085 9.57703 9.08356 9.53328 9.30945L10.515 9.49959ZM10.7778 9.25925L10.8527 10.2564L12.6476 10.1217L12.5727 9.12448L12.4979 8.12728L10.7029 8.26205L10.7778 9.25925ZM12.5727 9.12448L12.6476 10.1217C12.5513 10.1289 12.3763 10.1151 12.1991 9.99621C12.0256 9.8798 11.9522 9.73106 11.9261 9.6575L12.8684 9.32289L13.8108 8.98829C13.7338 8.77147 13.5856 8.51803 13.3136 8.33548C13.0378 8.15042 12.7405 8.10907 12.4979 8.12728L12.5727 9.12448ZM12.8684 9.32289L11.9444 9.70535L15.938 19.3534L16.862 18.971L17.786 18.5885L13.7924 8.94044L12.8684 9.32289ZM16.862 18.971L17.8332 19.2094L20.3213 9.07466L19.3502 8.83623L18.379 8.5978L15.8908 18.7325L16.862 18.971ZM19.3502 8.83623L20.3319 9.02638C20.3171 9.10301 20.2667 9.26104 20.1125 9.40206C19.955 9.5461 19.7841 9.58585 19.6878 9.59308L19.6129 8.59589L19.538 7.59869C19.2954 7.61691 19.0076 7.7022 18.7626 7.92635C18.5208 8.14749 18.4122 8.42021 18.3684 8.64609L19.3502 8.83623ZM19.6129 8.59589L19.6878 9.59308L22.1608 9.4074L22.086 8.41021L22.0111 7.41301L19.538 7.59869L19.6129 8.59589ZM22.086 8.41021L22.1608 9.4074C22.1167 9.41071 22.0238 9.4119 21.9063 9.37484C21.7796 9.33488 21.6466 9.25684 21.5386 9.13322L22.2914 8.47501L23.0442 7.81679C22.7185 7.4442 22.2843 7.3925 22.0111 7.41301L22.086 8.41021ZM22.2914 8.47501L21.5386 9.13322C21.2949 8.85455 21.335 8.55599 21.3484 8.49093L22.3278 8.69289L23.3072 8.89485C23.3598 8.63966 23.3756 8.19584 23.0442 7.81679L22.2914 8.47501ZM22.3278 8.69289L21.3644 8.42465L17.3205 22.9482L18.2838 23.2164L19.2472 23.4847L23.2912 8.96113L22.3278 8.69289ZM18.2838 23.2164L17.3072 23.0016C17.3339 22.8801 17.4104 22.7141 17.5749 22.5857C17.727 22.4669 17.8716 22.4451 17.9248 22.4411L17.9997 23.4383L18.0745 24.4355C18.2872 24.4196 18.559 24.3548 18.8058 24.1621C19.065 23.9596 19.2039 23.6887 19.2605 23.4313L18.2838 23.2164ZM17.9997 23.4383L17.9248 22.4411L16.09 22.5789L16.1648 23.5761L16.2397 24.5733L18.0745 24.4355L17.9997 23.4383ZM16.1648 23.5761L16.09 22.5789C16.1863 22.5717 16.3612 22.5854 16.5384 22.7044C16.7119 22.8208 16.7854 22.9695 16.8115 23.0431L15.8691 23.3777L14.9268 23.7123C15.0038 23.9291 15.1519 24.1825 15.424 24.3651C15.6998 24.5501 15.9971 24.5915 16.2397 24.5733L16.1648 23.5761ZM15.8691 23.3777L16.7932 22.9954L12.9462 13.6973L12.0222 14.0796L11.0981 14.4619L14.9451 23.76L15.8691 23.3777ZM12.0222 14.0796L11.0514 13.8396L8.636 23.6078L9.60676 23.8479L10.5775 24.0879L12.9929 14.3196L12.0222 14.0796ZM9.60676 23.8479L8.62501 23.6577C8.63985 23.5811 8.69028 23.4231 8.84444 23.282C9.0019 23.138 9.1728 23.0983 9.26915 23.091L9.34402 24.0882L9.41889 25.0854C9.6615 25.0672 9.94932 24.9819 10.1944 24.7577C10.4361 24.5366 10.5448 24.2639 10.5885 24.038L9.60676 23.8479ZM9.34402 24.0882L9.26915 23.091L7.43432 23.2288L7.50919 24.226L7.58406 25.2232L9.41889 25.0854L9.34402 24.0882Z" fill="#372F32" mask="url(#path-1-outside-1_2125_6276)"/>
<mask id="path-3-outside-2_2125_6276" maskUnits="userSpaceOnUse" x="20.4304" y="8.94038" width="17.8719" height="17.8719" fill="black">
<rect fill="white" x="20.4304" y="8.94038" width="17.8719" height="17.8719"/>
<path d="M22.1208 25.0046C22.0276 24.9996 21.9624 24.9695 21.9253 24.9141C21.8882 24.8588 21.892 24.7855 21.9369 24.6944L28.5357 10.8428C28.596 10.7125 28.6994 10.6512 28.8458 10.6589L30.7032 10.7569C30.8497 10.7646 30.946 10.8364 30.9923 10.9724L36.0972 25.4414C36.1091 25.4687 36.1137 25.509 36.1109 25.5623C36.1045 25.6821 36.0281 25.7382 35.8817 25.7304L33.3652 25.5977C33.2187 25.59 33.1224 25.5181 33.0761 25.3822L32.1819 22.5912L26.0904 22.2699L24.9075 24.9513C24.8472 25.0816 24.7438 25.1429 24.5974 25.1352L22.1208 25.0046ZM27.1608 19.8228L31.3549 20.0441L29.5507 14.3812L27.1608 19.8228Z"/>
</mask>
<path d="M22.1208 25.0046C22.0276 24.9996 21.9624 24.9695 21.9253 24.9141C21.8882 24.8588 21.892 24.7855 21.9369 24.6944L28.5357 10.8428C28.596 10.7125 28.6994 10.6512 28.8458 10.6589L30.7032 10.7569C30.8497 10.7646 30.946 10.8364 30.9923 10.9724L36.0972 25.4414C36.1091 25.4687 36.1137 25.509 36.1109 25.5623C36.1045 25.6821 36.0281 25.7382 35.8817 25.7304L33.3652 25.5977C33.2187 25.59 33.1224 25.5181 33.0761 25.3822L32.1819 22.5912L26.0904 22.2699L24.9075 24.9513C24.8472 25.0816 24.7438 25.1429 24.5974 25.1352L22.1208 25.0046ZM27.1608 19.8228L31.3549 20.0441L29.5507 14.3812L27.1608 19.8228Z" fill="#46984E"/>
<path d="M21.9253 24.9141L22.7558 24.3571L22.7558 24.3571L21.9253 24.9141ZM21.9369 24.6944L22.8341 25.1363L22.8397 25.1245L21.9369 24.6944ZM28.5357 10.8428L29.4385 11.2729L29.4433 11.2626L28.5357 10.8428ZM30.9923 10.9724L30.0455 11.2944L30.0493 11.3051L30.9923 10.9724ZM36.0972 25.4414L35.1542 25.7741L35.1661 25.808L35.1805 25.8409L36.0972 25.4414ZM33.0761 25.3822L32.1238 25.6873L32.1265 25.6957L32.1294 25.7041L33.0761 25.3822ZM32.1819 22.5912L33.1342 22.2861L32.9237 21.6289L32.2346 21.5926L32.1819 22.5912ZM26.0904 22.2699L26.143 21.2713L25.454 21.2349L25.1754 21.8662L26.0904 22.2699ZM24.9075 24.9513L25.8151 25.3711L25.8188 25.363L25.8224 25.3549L24.9075 24.9513ZM27.1608 19.8228L26.2452 19.4207L25.6634 20.7453L27.1081 20.8215L27.1608 19.8228ZM31.3549 20.0441L31.3023 21.0427L32.7469 21.1189L32.3077 19.7405L31.3549 20.0441ZM29.5507 14.3812L30.5035 14.0776L29.6998 11.5549L28.6351 13.9791L29.5507 14.3812ZM22.1208 25.0046L22.1735 24.0059C22.2177 24.0083 22.31 24.0189 22.4218 24.0706C22.5424 24.1264 22.6643 24.2207 22.7558 24.3571L21.9253 24.9141L21.0948 25.4712C21.3705 25.8822 21.7945 25.9887 22.0681 26.0032L22.1208 25.0046ZM21.9253 24.9141L22.7558 24.3571C22.8699 24.5272 22.9072 24.7137 22.899 24.8704C22.8916 25.0103 22.8499 25.104 22.834 25.1362L21.9369 24.6944L21.0398 24.2527C20.9262 24.4832 20.7669 24.9822 21.0948 25.4712L21.9253 24.9141ZM21.9369 24.6944L22.8397 25.1245L29.4385 11.2729L28.5357 10.8428L27.6329 10.4127L21.0341 24.2644L21.9369 24.6944ZM28.5357 10.8428L29.4433 11.2626C29.4054 11.3445 29.3225 11.4679 29.1685 11.5592C29.0162 11.6495 28.8732 11.6617 28.7931 11.6575L28.8458 10.6589L28.8985 9.66027C28.672 9.64833 28.404 9.68731 28.1483 9.83896C27.891 9.99156 27.7263 10.2107 27.6281 10.423L28.5357 10.8428ZM28.8458 10.6589L28.7931 11.6575L30.6506 11.7555L30.7032 10.7569L30.7559 9.75825L28.8985 9.66027L28.8458 10.6589ZM30.7032 10.7569L30.6506 11.7555C30.5705 11.7513 30.4296 11.7241 30.2876 11.6182C30.1441 11.5112 30.0746 11.3798 30.0455 11.2944L30.9923 10.9724L31.939 10.6504C31.8637 10.429 31.7229 10.1937 31.4831 10.0149C31.2448 9.83716 30.9824 9.7702 30.7559 9.75825L30.7032 10.7569ZM30.9923 10.9724L30.0493 11.3051L35.1542 25.7741L36.0972 25.4414L37.0402 25.1087L31.9353 10.6397L30.9923 10.9724ZM36.0972 25.4414L35.1805 25.8409C35.1352 25.737 35.121 25.6502 35.1159 25.6043C35.1104 25.5558 35.1116 25.5219 35.1122 25.5096L36.1109 25.5623L37.1095 25.6149C37.115 25.5107 37.1192 25.2834 37.0139 25.0419L36.0972 25.4414ZM36.1109 25.5623L35.1122 25.5096C35.1203 25.3568 35.1913 25.0831 35.4572 24.8879C35.6831 24.7222 35.8969 24.7298 35.9344 24.7318L35.8817 25.7304L35.829 26.729C36.0129 26.7387 36.3381 26.7222 36.6404 26.5004C36.9827 26.2493 37.0951 25.8876 37.1095 25.6149L36.1109 25.5623ZM35.8817 25.7304L35.9344 24.7318L33.4179 24.5991L33.3652 25.5977L33.3125 26.5963L35.829 26.729L35.8817 25.7304ZM33.3652 25.5977L33.4179 24.5991C33.4979 24.6033 33.6389 24.6305 33.7808 24.7363C33.9243 24.8433 33.9938 24.9747 34.0229 25.0602L33.0761 25.3822L32.1294 25.7041C32.2047 25.9256 32.3455 26.1609 32.5853 26.3397C32.8236 26.5174 33.086 26.5844 33.3125 26.5963L33.3652 25.5977ZM33.0761 25.3822L34.0284 25.077L33.1342 22.2861L32.1819 22.5912L31.2296 22.8963L32.1238 25.6873L33.0761 25.3822ZM32.1819 22.5912L32.2346 21.5926L26.143 21.2713L26.0904 22.2699L26.0377 23.2685L32.1292 23.5898L32.1819 22.5912ZM26.0904 22.2699L25.1754 21.8662L23.9926 24.5477L24.9075 24.9513L25.8224 25.3549L27.0053 22.6735L26.0904 22.2699ZM24.9075 24.9513L23.9999 24.5315C24.0378 24.4495 24.1207 24.3262 24.2746 24.2349C24.427 24.1446 24.57 24.1324 24.65 24.1366L24.5974 25.1352L24.5447 26.1338C24.7712 26.1458 25.0391 26.1068 25.2948 25.9551C25.5522 25.8025 25.7169 25.5834 25.8151 25.3711L24.9075 24.9513ZM24.5974 25.1352L24.65 24.1366L22.1735 24.0059L22.1208 25.0046L22.0681 26.0032L24.5447 26.1338L24.5974 25.1352ZM27.1608 19.8228L27.1081 20.8215L31.3023 21.0427L31.3549 20.0441L31.4076 19.0455L27.2134 18.8242L27.1608 19.8228ZM31.3549 20.0441L32.3077 19.7405L30.5035 14.0776L29.5507 14.3812L28.5979 14.6848L30.4021 20.3477L31.3549 20.0441ZM29.5507 14.3812L28.6351 13.9791L26.2452 19.4207L27.1608 19.8228L28.0763 20.225L30.4663 14.7833L29.5507 14.3812Z" fill="#372F32" mask="url(#path-3-outside-2_2125_6276)"/>
<mask id="path-5-outside-3_2125_6276" maskUnits="userSpaceOnUse" x="35.2545" y="4.99799" width="13.475" height="17.3604" fill="black">
<rect fill="white" x="35.2545" y="4.99799" width="13.475" height="17.3604"/>
<path d="M37.5657 21.3063C37.3924 21.3112 37.3034 21.227 37.2985 21.0537L36.8985 6.89937C36.8936 6.7261 36.9778 6.63702 37.1511 6.63213L39.3302 6.57055C39.5034 6.56566 39.5925 6.64984 39.5974 6.8231L39.9319 18.6584L47.009 18.4584C47.1823 18.4535 47.2714 18.5377 47.2763 18.711L47.3345 20.7701C47.3394 20.9434 47.2552 21.0325 47.0819 21.0374L37.5657 21.3063Z"/>
</mask>
<path d="M37.5657 21.3063C37.3924 21.3112 37.3034 21.227 37.2985 21.0537L36.8985 6.89937C36.8936 6.7261 36.9778 6.63702 37.1511 6.63213L39.3302 6.57055C39.5034 6.56566 39.5925 6.64984 39.5974 6.8231L39.9319 18.6584L47.009 18.4584C47.1823 18.4535 47.2714 18.5377 47.2763 18.711L47.3345 20.7701C47.3394 20.9434 47.2552 21.0325 47.0819 21.0374L37.5657 21.3063Z" fill="#46984E"/>
<path d="M39.9319 18.6584L38.9323 18.6866L38.9605 19.6862L39.9601 19.658L39.9319 18.6584ZM37.5657 21.3063L37.5375 20.3067C37.6049 20.3048 37.8396 20.3157 38.0558 20.52C38.272 20.7243 38.2962 20.958 38.2981 21.0255L37.2985 21.0537L36.2989 21.082C36.3057 21.3227 36.3768 21.6851 36.6821 21.9736C36.9874 22.2621 37.3532 22.3127 37.594 22.3059L37.5657 21.3063ZM37.2985 21.0537L38.2981 21.0255L37.8981 6.87112L36.8985 6.89937L35.8989 6.92761L36.2989 21.082L37.2985 21.0537ZM36.8985 6.89937L37.8981 6.87112C37.9 6.93857 37.8891 7.17326 37.6848 7.38946C37.4804 7.60567 37.2468 7.62982 37.1793 7.63173L37.1511 6.63213L37.1228 5.63253C36.8821 5.63933 36.5197 5.71047 36.2312 6.01576C35.9427 6.32104 35.8921 6.6869 35.8989 6.92761L36.8985 6.89937ZM37.1511 6.63213L37.1793 7.63173L39.3584 7.57015L39.3302 6.57055L39.3019 5.57095L37.1228 5.63253L37.1511 6.63213ZM39.3302 6.57055L39.3584 7.57015C39.291 7.57206 39.0563 7.56114 38.8401 7.35681C38.6239 7.15249 38.5997 6.9188 38.5978 6.85135L39.5974 6.8231L40.597 6.79486C40.5902 6.55414 40.5191 6.19173 40.2138 5.90322C39.9085 5.61471 39.5427 5.56415 39.3019 5.57095L39.3302 6.57055ZM39.5974 6.8231L38.5978 6.85135L38.9323 18.6866L39.9319 18.6584L40.9315 18.6301L40.597 6.79486L39.5974 6.8231ZM39.9319 18.6584L39.9601 19.658L47.0373 19.458L47.009 18.4584L46.9808 17.4588L39.9036 17.6588L39.9319 18.6584ZM47.009 18.4584L47.0373 19.458C46.9698 19.4599 46.7351 19.449 46.5189 19.2447C46.3027 19.0403 46.2786 18.8066 46.2767 18.7392L47.2763 18.711L48.2759 18.6827C48.2691 18.442 48.1979 18.0796 47.8926 17.7911C47.5874 17.5026 47.2215 17.452 46.9808 17.4588L47.009 18.4584ZM47.2763 18.711L46.2767 18.7392L46.3349 20.7984L47.3345 20.7701L48.3341 20.7419L48.2759 18.6827L47.2763 18.711ZM47.3345 20.7701L46.3349 20.7984C46.333 20.7309 46.3439 20.4962 46.5482 20.28C46.7525 20.0638 46.9862 20.0397 47.0537 20.0378L47.0819 21.0374L47.1102 22.037C47.3509 22.0302 47.7133 21.959 48.0018 21.6537C48.2903 21.3485 48.3409 20.9826 48.3341 20.7419L47.3345 20.7701ZM47.0819 21.0374L47.0537 20.0378L37.5375 20.3067L37.5657 21.3063L37.594 22.3059L47.1102 22.037L47.0819 21.0374Z" fill="#372F32" mask="url(#path-5-outside-3_2125_6276)"/>
<mask id="path-7-outside-4_2125_6276" maskUnits="userSpaceOnUse" x="49.6849" y="6.97729" width="16.5502" height="18.3508" fill="black">
<rect fill="white" x="49.6849" y="6.97729" width="16.5502" height="18.3508"/>
<path d="M51.6317 23.0817C51.4591 23.0652 51.3811 22.9707 51.3976 22.7981L52.7456 8.70243C52.7621 8.52989 52.8567 8.45186 53.0292 8.46837L55.1993 8.6759C55.3718 8.6924 55.4499 8.78692 55.4334 8.95947L54.7936 15.6489L61.2981 9.39978C61.3866 9.31448 61.4972 9.27818 61.63 9.29088L64.1783 9.53459C64.3243 9.54855 64.3923 9.60862 64.3821 9.7148C64.377 9.76789 64.3454 9.81845 64.2872 9.86646L59.1695 14.6409L63.6276 23.9074C63.6465 23.9896 63.6553 24.0373 63.6541 24.0506C63.649 24.1037 63.6246 24.1482 63.581 24.1843C63.5386 24.207 63.4843 24.2152 63.4179 24.2088L60.8496 23.9632C60.7169 23.9505 60.6231 23.8813 60.5681 23.7555L57.2072 16.4624L54.4719 19.0136L54.0854 23.0552C54.0689 23.2277 53.9743 23.3057 53.8018 23.2892L51.6317 23.0817Z"/>
</mask>
<path d="M51.6317 23.0817C51.4591 23.0652 51.3811 22.9707 51.3976 22.7981L52.7456 8.70243C52.7621 8.52989 52.8567 8.45186 53.0292 8.46837L55.1993 8.6759C55.3718 8.6924 55.4499 8.78692 55.4334 8.95947L54.7936 15.6489L61.2981 9.39978C61.3866 9.31448 61.4972 9.27818 61.63 9.29088L64.1783 9.53459C64.3243 9.54855 64.3923 9.60862 64.3821 9.7148C64.377 9.76789 64.3454 9.81845 64.2872 9.86646L59.1695 14.6409L63.6276 23.9074C63.6465 23.9896 63.6553 24.0373 63.6541 24.0506C63.649 24.1037 63.6246 24.1482 63.581 24.1843C63.5386 24.207 63.4843 24.2152 63.4179 24.2088L60.8496 23.9632C60.7169 23.9505 60.6231 23.8813 60.5681 23.7555L57.2072 16.4624L54.4719 19.0136L54.0854 23.0552C54.0689 23.2277 53.9743 23.3057 53.8018 23.2892L51.6317 23.0817Z" fill="#46984E"/>
<path d="M54.7936 15.6489L53.7982 15.5538L53.5414 18.2388L55.4864 16.3701L54.7936 15.6489ZM61.2981 9.39978L61.9909 10.1209L61.9919 10.1199L61.2981 9.39978ZM64.2872 9.86646L63.6507 9.09525L63.6273 9.11456L63.6051 9.13525L64.2872 9.86646ZM59.1695 14.6409L58.4873 13.9097L57.9494 14.4116L58.2683 15.0745L59.1695 14.6409ZM63.6276 23.9074L64.602 23.6829L64.577 23.5743L64.5287 23.4739L63.6276 23.9074ZM63.581 24.1843L64.054 25.0653L64.1412 25.0185L64.2176 24.9555L63.581 24.1843ZM60.5681 23.7555L61.4846 23.3553L61.4805 23.3461L61.4763 23.337L60.5681 23.7555ZM57.2072 16.4624L58.1154 16.0439L57.5365 14.7878L56.5251 15.7311L57.2072 16.4624ZM54.4719 19.0136L53.7898 18.2823L53.5125 18.5409L53.4764 18.9184L54.4719 19.0136ZM51.6317 23.0817L51.7269 22.0862C51.7941 22.0927 52.0256 22.1324 52.215 22.3618C52.4043 22.5913 52.3995 22.8262 52.3931 22.8933L51.3976 22.7981L50.4022 22.7029C50.3792 22.9426 50.4052 23.3111 50.6726 23.635C50.9399 23.9589 51.2968 24.0542 51.5365 24.0772L51.6317 23.0817ZM51.3976 22.7981L52.3931 22.8933L53.7411 8.79763L52.7456 8.70243L51.7502 8.60724L50.4022 22.7029L51.3976 22.7981ZM52.7456 8.70243L53.7411 8.79763C53.7347 8.8648 53.6949 9.09635 53.4655 9.28572C53.2361 9.47508 53.0012 9.47025 52.934 9.46382L53.0292 8.46837L53.1244 7.47291C52.8847 7.44998 52.5163 7.47591 52.1923 7.7433C51.8684 8.01069 51.7731 8.36752 51.7502 8.60724L52.7456 8.70243ZM53.0292 8.46837L52.934 9.46382L55.1041 9.67136L55.1993 8.6759L55.2945 7.68044L53.1244 7.47291L53.0292 8.46837ZM55.1993 8.6759L55.1041 9.67136C55.0369 9.66493 54.8054 9.62516 54.616 9.39575C54.4266 9.16633 54.4315 8.93144 54.4379 8.86427L55.4334 8.95947L56.4288 9.05467C56.4517 8.81495 56.4258 8.44653 56.1584 8.12259C55.891 7.79865 55.5342 7.70336 55.2945 7.68044L55.1993 8.6759ZM55.4334 8.95947L54.4379 8.86427L53.7982 15.5538L54.7936 15.6489L55.7891 15.7441L56.4288 9.05467L55.4334 8.95947ZM54.7936 15.6489L55.4864 16.3701L61.9909 10.1209L61.2981 9.39978L60.6053 8.67866L54.1008 14.9278L54.7936 15.6489ZM61.2981 9.39978L61.9919 10.1199C61.934 10.1757 61.8549 10.2273 61.7592 10.2587C61.6658 10.2894 61.5859 10.2912 61.5348 10.2863L61.63 9.29088L61.7252 8.29542C61.3297 8.2576 60.9223 8.37319 60.6042 8.67966L61.2981 9.39978ZM61.63 9.29088L61.5348 10.2863L64.0831 10.53L64.1783 9.53459L64.2735 8.53913L61.7252 8.29542L61.63 9.29088ZM64.1783 9.53459L64.0831 10.53C64.0651 10.5283 63.8715 10.5118 63.6763 10.3392C63.5687 10.2441 63.4814 10.1185 63.4305 9.97203C63.3816 9.8313 63.3783 9.70643 63.3866 9.6196L64.3821 9.7148L65.3776 9.81C65.407 9.50232 65.3192 9.12224 65.0013 8.84104C64.7381 8.60831 64.4376 8.55482 64.2735 8.53913L64.1783 9.53459ZM64.3821 9.7148L63.3866 9.6196C63.4157 9.31556 63.5899 9.14536 63.6507 9.09525L64.2872 9.86646L64.9238 10.6377C65.1009 10.4915 65.3383 10.2202 65.3776 9.81L64.3821 9.7148ZM64.2872 9.86646L63.6051 9.13525L58.4873 13.9097L59.1695 14.6409L59.8516 15.3721L64.9694 10.5977L64.2872 9.86646ZM59.1695 14.6409L58.2683 15.0745L62.7264 24.341L63.6276 23.9074L64.5287 23.4739L60.0706 14.2074L59.1695 14.6409ZM63.6276 23.9074L62.6531 24.1319C62.6569 24.1486 62.6598 24.1617 62.6619 24.1716C62.663 24.1765 62.6638 24.1802 62.6643 24.1829C62.6649 24.1857 62.6651 24.1869 62.6651 24.1868C62.6651 24.1868 62.6646 24.1845 62.664 24.1803C62.6633 24.1764 62.6621 24.1683 62.6607 24.1572C62.6595 24.1471 62.6572 24.1273 62.6557 24.1013C62.6549 24.0879 62.6542 24.0695 62.6542 24.0473C62.6542 24.0261 62.6549 23.9942 62.6586 23.9554L63.6541 24.0506L64.6495 24.1458C64.6612 24.0234 64.6469 23.9222 64.6455 23.9112C64.6411 23.8759 64.6357 23.8446 64.6317 23.8229C64.6234 23.7782 64.6128 23.7295 64.602 23.6829L63.6276 23.9074ZM63.6541 24.0506L62.6586 23.9554C62.6683 23.8541 62.6985 23.7467 62.7545 23.6442C62.8099 23.5428 62.8793 23.4668 62.9444 23.413L63.581 24.1843L64.2176 24.9555C64.452 24.762 64.6175 24.4802 64.6495 24.1458L63.6541 24.0506ZM63.581 24.1843L63.108 23.3032C63.2949 23.2029 63.4564 23.208 63.5131 23.2134L63.4179 24.2088L63.3227 25.2043C63.5122 25.2224 63.7824 25.2111 64.054 25.0653L63.581 24.1843ZM63.4179 24.2088L63.5131 23.2134L60.9448 22.9678L60.8496 23.9632L60.7544 24.9587L63.3227 25.2043L63.4179 24.2088ZM60.8496 23.9632L60.9448 22.9678C61.0325 22.9762 61.1547 23.0095 61.2735 23.0972C61.3909 23.1838 61.4543 23.2861 61.4846 23.3553L60.5681 23.7555L59.6517 24.1557C59.7369 24.3507 59.8746 24.5505 60.0859 24.7064C60.2986 24.8633 60.534 24.9376 60.7544 24.9587L60.8496 23.9632ZM60.5681 23.7555L61.4763 23.337L58.1154 16.0439L57.2072 16.4624L56.299 16.8809L59.6599 24.174L60.5681 23.7555ZM57.2072 16.4624L56.5251 15.7311L53.7898 18.2823L54.4719 19.0136L55.1539 19.7449L57.8892 17.1937L57.2072 16.4624ZM54.4719 19.0136L53.4764 18.9184L53.0899 22.96L54.0854 23.0552L55.0808 23.1504L55.4673 19.1088L54.4719 19.0136ZM54.0854 23.0552L53.0899 22.96C53.0963 22.8928 53.1361 22.6612 53.3655 22.4719C53.5949 22.2825 53.8298 22.2873 53.897 22.2938L53.8018 23.2892L53.7066 24.2847C53.9463 24.3076 54.3147 24.2817 54.6387 24.0143C54.9626 23.7469 55.0579 23.3901 55.0808 23.1504L54.0854 23.0552ZM53.8018 23.2892L53.897 22.2938L51.7269 22.0862L51.6317 23.0817L51.5365 24.0772L53.7066 24.2847L53.8018 23.2892Z" fill="#372F32" mask="url(#path-7-outside-4_2125_6276)"/>
<mask id="path-9-outside-5_2125_6276" maskUnits="userSpaceOnUse" x="65.6849" y="7.97729" width="7.59112" height="17.494" fill="black">
<rect fill="white" x="65.6849" y="7.97729" width="7.59112" height="17.494"/>
<path d="M67.6317 24.0817C67.4591 24.0652 67.3811 23.9707 67.3976 23.7981L68.7456 9.70243C68.7621 9.52989 68.8567 9.45186 69.0292 9.46837L71.1993 9.6759C71.3718 9.6924 71.4499 9.78692 71.4334 9.95947L70.0854 24.0552C70.0689 24.2277 69.9743 24.3057 69.8018 24.2892L67.6317 24.0817Z"/>
</mask>
<path d="M67.6317 24.0817C67.4591 24.0652 67.3811 23.9707 67.3976 23.7981L68.7456 9.70243C68.7621 9.52989 68.8567 9.45186 69.0292 9.46837L71.1993 9.6759C71.3718 9.6924 71.4499 9.78692 71.4334 9.95947L70.0854 24.0552C70.0689 24.2277 69.9743 24.3057 69.8018 24.2892L67.6317 24.0817Z" fill="#46984E"/>
<path d="M67.6317 24.0817L67.7269 23.0862C67.7941 23.0927 68.0256 23.1324 68.215 23.3618C68.4043 23.5913 68.3995 23.8262 68.3931 23.8933L67.3976 23.7981L66.4022 23.7029C66.3792 23.9426 66.4052 24.3111 66.6726 24.635C66.9399 24.9589 67.2968 25.0542 67.5365 25.0772L67.6317 24.0817ZM67.3976 23.7981L68.3931 23.8933L69.7411 9.79763L68.7456 9.70243L67.7502 9.60724L66.4022 23.7029L67.3976 23.7981ZM68.7456 9.70243L69.7411 9.79763C69.7347 9.8648 69.6949 10.0964 69.4655 10.2857C69.2361 10.4751 69.0012 10.4702 68.934 10.4638L69.0292 9.46837L69.1244 8.47291C68.8847 8.44998 68.5163 8.47591 68.1923 8.7433C67.8684 9.01069 67.7731 9.36752 67.7502 9.60724L68.7456 9.70243ZM69.0292 9.46837L68.934 10.4638L71.1041 10.6714L71.1993 9.6759L71.2945 8.68044L69.1244 8.47291L69.0292 9.46837ZM71.1993 9.6759L71.1041 10.6714C71.0369 10.6649 70.8054 10.6252 70.616 10.3957C70.4266 10.1663 70.4315 9.93144 70.4379 9.86427L71.4334 9.95947L72.4288 10.0547C72.4517 9.81495 72.4258 9.44653 72.1584 9.12259C71.891 8.79865 71.5342 8.70336 71.2945 8.68044L71.1993 9.6759ZM71.4334 9.95947L70.4379 9.86427L69.0899 23.96L70.0854 24.0552L71.0808 24.1504L72.4288 10.0547L71.4334 9.95947ZM70.0854 24.0552L69.0899 23.96C69.0963 23.8928 69.1361 23.6612 69.3655 23.4719C69.5949 23.2825 69.8298 23.2873 69.897 23.2938L69.8018 24.2892L69.7066 25.2847C69.9463 25.3076 70.3147 25.2817 70.6387 25.0143C70.9626 24.7469 71.0579 24.3901 71.0808 24.1504L70.0854 24.0552ZM69.8018 24.2892L69.897 23.2938L67.7269 23.0862L67.6317 24.0817L67.5365 25.0772L69.7066 25.2847L69.8018 24.2892Z" fill="#372F32" mask="url(#path-9-outside-5_2125_6276)"/>
<mask id="path-11-outside-6_2125_6276" maskUnits="userSpaceOnUse" x="72.7963" y="6.08961" width="17.1817" height="18.8897" fill="black">
<rect fill="white" x="72.7963" y="6.08961" width="17.1817" height="18.8897"/>
<path d="M76.8245 23.7346C76.6528 23.7583 76.5551 23.6843 76.5315 23.5126L74.5971 9.4853C74.5735 9.31359 74.6475 9.21589 74.8192 9.19222L77.0976 8.87803C77.2297 8.85981 77.3436 8.90468 77.4392 9.01262L85.3229 18.1614L83.9486 8.19575C83.925 8.02404 83.999 7.92635 84.1707 7.90267L86.2312 7.61853C86.4029 7.59485 86.5006 7.66887 86.5243 7.84058L88.4586 21.8678C88.4823 22.0395 88.4083 22.1372 88.2366 22.1609L85.9779 22.4724C85.8458 22.4906 85.732 22.4457 85.6363 22.3378L77.7301 13.1719L79.1071 23.1574C79.1308 23.3291 79.0568 23.4268 78.885 23.4505L76.8245 23.7346Z"/>
</mask>
<path d="M76.8245 23.7346C76.6528 23.7583 76.5551 23.6843 76.5315 23.5126L74.5971 9.4853C74.5735 9.31359 74.6475 9.21589 74.8192 9.19222L77.0976 8.87803C77.2297 8.85981 77.3436 8.90468 77.4392 9.01262L85.3229 18.1614L83.9486 8.19575C83.925 8.02404 83.999 7.92635 84.1707 7.90267L86.2312 7.61853C86.4029 7.59485 86.5006 7.66887 86.5243 7.84058L88.4586 21.8678C88.4823 22.0395 88.4083 22.1372 88.2366 22.1609L85.9779 22.4724C85.8458 22.4906 85.732 22.4457 85.6363 22.3378L77.7301 13.1719L79.1071 23.1574C79.1308 23.3291 79.0568 23.4268 78.885 23.4505L76.8245 23.7346Z" fill="#46984E"/>
<path d="M77.4392 9.01263L78.1968 8.35978L78.1877 8.34946L77.4392 9.01263ZM85.3229 18.1614L84.5653 18.8142L86.7762 21.3798L86.3135 18.0248L85.3229 18.1614ZM85.6363 22.3378L84.879 22.991L84.8879 23.0009L85.6363 22.3378ZM77.7301 13.1719L78.4873 12.5187L76.2773 9.95652L76.7395 13.3085L77.7301 13.1719ZM76.8245 23.7346L76.6879 22.744C76.7548 22.7348 76.9893 22.7201 77.2264 22.8998C77.4635 23.0794 77.5129 23.3091 77.5221 23.376L76.5315 23.5126L75.5408 23.6492C75.5737 23.8877 75.6838 24.2403 76.0186 24.4939C76.3534 24.7476 76.7226 24.7581 76.9611 24.7252L76.8245 23.7346ZM76.5315 23.5126L77.5221 23.376L75.5878 9.34869L74.5971 9.4853L73.6065 9.6219L75.5408 23.6492L76.5315 23.5126ZM74.5971 9.4853L75.5878 9.34869C75.597 9.41554 75.6116 9.65002 75.432 9.88713C75.2523 10.1242 75.0226 10.1736 74.9558 10.1828L74.8192 9.19222L74.6826 8.20159C74.444 8.23449 74.0915 8.34456 73.8378 8.67936C73.5842 9.01416 73.5736 9.38335 73.6065 9.6219L74.5971 9.4853ZM74.8192 9.19222L74.9558 10.1828L77.2342 9.86865L77.0976 8.87803L76.961 7.8874L74.6826 8.20159L74.8192 9.19222ZM77.0976 8.87803L77.2342 9.86865C77.1458 9.88085 77.0324 9.87446 76.9155 9.82839C76.8018 9.78361 76.7288 9.71875 76.6907 9.67579L77.4392 9.01263L78.1877 8.34946C77.8918 8.01549 77.4552 7.81926 76.961 7.8874L77.0976 8.87803ZM77.4392 9.01263L76.6817 9.66541L84.5653 18.8142L85.3229 18.1614L86.0804 17.5087L78.1968 8.35984L77.4392 9.01263ZM85.3229 18.1614L86.3135 18.0248L84.9393 8.05914L83.9486 8.19575L82.958 8.33235L84.3323 18.298L85.3229 18.1614ZM83.9486 8.19575L84.9393 8.05914C84.9485 8.12599 84.9631 8.36047 84.7835 8.59758C84.6038 8.83469 84.3741 8.88408 84.3073 8.89329L84.1707 7.90267L84.0341 6.91204C83.7955 6.94494 83.443 7.05501 83.1893 7.38981C82.9357 7.72462 82.9251 8.0938 82.958 8.33235L83.9486 8.19575ZM84.1707 7.90267L84.3073 8.89329L86.3678 8.60916L86.2312 7.61853L86.0946 6.6279L84.0341 6.91204L84.1707 7.90267ZM86.2312 7.61853L86.3678 8.60916C86.301 8.61837 86.0665 8.633 85.8294 8.45335C85.5923 8.27371 85.5429 8.04403 85.5337 7.97718L86.5243 7.84058L87.5149 7.70397C87.482 7.46542 87.3719 7.11287 87.0371 6.85921C86.7023 6.60556 86.3331 6.59501 86.0946 6.6279L86.2312 7.61853ZM86.5243 7.84058L85.5337 7.97718L87.468 22.0044L88.4586 21.8678L89.4492 21.7312L87.5149 7.70397L86.5243 7.84058ZM88.4586 21.8678L87.468 22.0044C87.4588 21.9376 87.4441 21.7031 87.6238 21.466C87.8034 21.2289 88.0331 21.1795 88.0999 21.1703L88.2366 22.1609L88.3732 23.1515C88.6117 23.1186 88.9643 23.0086 89.2179 22.6738C89.4716 22.339 89.4821 21.9698 89.4492 21.7312L88.4586 21.8678ZM88.2366 22.1609L88.0999 21.1703L85.8413 21.4817L85.9779 22.4724L86.1145 23.463L88.3732 23.1515L88.2366 22.1609ZM85.9779 22.4724L85.8413 21.4817C85.9298 21.4696 86.0431 21.4759 86.1601 21.522C86.2737 21.5668 86.3467 21.6316 86.3848 21.6746L85.6363 22.3378L84.8879 23.0009C85.1838 23.3349 85.6204 23.5311 86.1145 23.463L85.9779 22.4724ZM85.6363 22.3378L86.3936 21.6846L78.4873 12.5187L77.7301 13.1719L76.9729 13.825L84.8791 22.9909L85.6363 22.3378ZM77.7301 13.1719L76.7395 13.3085L78.1165 23.294L79.1071 23.1574L80.0977 23.0208L78.7207 13.0353L77.7301 13.1719ZM79.1071 23.1574L78.1165 23.294C78.1072 23.2271 78.0926 22.9927 78.2723 22.7556C78.4519 22.5184 78.6816 22.4691 78.7484 22.4598L78.885 23.4505L79.0216 24.4411C79.2602 24.4082 79.6128 24.2981 79.8664 23.9633C80.1201 23.6285 80.1306 23.2593 80.0977 23.0208L79.1071 23.1574ZM78.885 23.4505L78.7484 22.4598L76.6879 22.744L76.8245 23.7346L76.9611 24.7252L79.0216 24.4411L78.885 23.4505Z" fill="#372F32" mask="url(#path-11-outside-6_2125_6276)"/>
<mask id="path-13-outside-7_2125_6276" maskUnits="userSpaceOnUse" x="88.5897" y="4.97729" width="18.6364" height="19.5366" fill="black">
<rect fill="white" x="88.5897" y="4.97729" width="18.6364" height="19.5366"/>
<path d="M97.0556 21.9773C95.6354 21.8415 94.411 21.4096 93.3823 20.6817C92.3548 19.9406 91.597 18.9707 91.1089 17.7721C90.6208 16.5735 90.4491 15.2177 90.5938 13.7046C90.7372 12.2048 91.1688 10.9133 91.8885 9.83024C92.6228 8.73517 93.5639 7.92776 94.7119 7.40802C95.8745 6.87628 97.1526 6.67705 98.5462 6.81033C100.073 6.9563 101.34 7.42578 102.349 8.21878C103.36 8.99851 104.051 10.0357 104.423 11.3303C104.433 11.3581 104.436 11.3985 104.431 11.4516C104.42 11.5711 104.353 11.6384 104.231 11.6535L102.044 12.0471L101.962 12.0593C101.843 12.0479 101.769 11.9806 101.74 11.8573C101.459 11.1607 101.023 10.6033 100.434 10.1853C99.8572 9.76857 99.1576 9.52084 98.3347 9.44215C96.9411 9.30887 95.8029 9.65543 94.9203 10.4818C94.0376 11.3082 93.5239 12.478 93.3792 13.991C93.2358 15.4909 93.5191 16.7301 94.2291 17.7088C94.9537 18.6755 96.0062 19.2249 97.3866 19.3569C98.4882 19.4623 99.424 19.2705 100.194 18.7816C100.979 18.2807 101.474 17.5176 101.679 16.4925L98.0354 16.1441C97.8628 16.1276 97.7848 16.0331 97.8013 15.8605L97.9898 13.8895C98.0063 13.717 98.1008 13.6389 98.2734 13.6554L104.366 14.2381C104.538 14.2546 104.616 14.3491 104.6 14.5216L104.442 16.1741C104.324 17.4085 103.952 18.4913 103.327 19.4228C102.717 20.3422 101.874 21.0317 100.799 21.4915C99.7235 21.9512 98.4758 22.1131 97.0556 21.9773Z"/>
</mask>
<path d="M97.0556 21.9773C95.6354 21.8415 94.411 21.4096 93.3823 20.6817C92.3548 19.9406 91.597 18.9707 91.1089 17.7721C90.6208 16.5735 90.4491 15.2177 90.5938 13.7046C90.7372 12.2048 91.1688 10.9133 91.8885 9.83024C92.6228 8.73517 93.5639 7.92776 94.7119 7.40802C95.8745 6.87628 97.1526 6.67705 98.5462 6.81033C100.073 6.9563 101.34 7.42578 102.349 8.21878C103.36 8.99851 104.051 10.0357 104.423 11.3303C104.433 11.3581 104.436 11.3985 104.431 11.4516C104.42 11.5711 104.353 11.6384 104.231 11.6535L102.044 12.0471L101.962 12.0593C101.843 12.0479 101.769 11.9806 101.74 11.8573C101.459 11.1607 101.023 10.6033 100.434 10.1853C99.8572 9.76857 99.1576 9.52084 98.3347 9.44215C96.9411 9.30887 95.8029 9.65543 94.9203 10.4818C94.0376 11.3082 93.5239 12.478 93.3792 13.991C93.2358 15.4909 93.5191 16.7301 94.2291 17.7088C94.9537 18.6755 96.0062 19.2249 97.3866 19.3569C98.4882 19.4623 99.424 19.2705 100.194 18.7816C100.979 18.2807 101.474 17.5176 101.679 16.4925L98.0354 16.1441C97.8628 16.1276 97.7848 16.0331 97.8013 15.8605L97.9898 13.8895C98.0063 13.717 98.1008 13.6389 98.2734 13.6554L104.366 14.2381C104.538 14.2546 104.616 14.3491 104.6 14.5216L104.442 16.1741C104.324 17.4085 103.952 18.4913 103.327 19.4228C102.717 20.3422 101.874 21.0317 100.799 21.4915C99.7235 21.9512 98.4758 22.1131 97.0556 21.9773Z" fill="#46984E"/>
<path d="M93.3823 20.6817L92.7972 21.4928L92.8046 21.498L93.3823 20.6817ZM91.1089 17.7721L90.1828 18.1493V18.1493L91.1089 17.7721ZM91.8885 9.83024L91.0579 9.27333L91.0556 9.27679L91.8885 9.83024ZM94.7119 7.40802L95.1244 8.31902L95.1279 8.31742L94.7119 7.40802ZM102.349 8.21878L101.732 9.00508L101.738 9.01045L102.349 8.21878ZM104.423 11.3303L103.461 11.6063L103.474 11.6489L103.49 11.6903L104.423 11.3303ZM104.231 11.6535L104.108 10.6611L104.081 10.6645L104.054 10.6693L104.231 11.6535ZM102.044 12.0471L102.193 13.0359L102.207 13.0338L102.221 13.0313L102.044 12.0471ZM101.962 12.0593L101.867 13.0548L101.989 13.0665L102.111 13.0482L101.962 12.0593ZM101.74 11.8573L102.715 11.6328L102.697 11.5558L102.667 11.4825L101.74 11.8573ZM100.434 10.1853L99.8475 10.9957L99.8551 11.0011L100.434 10.1853ZM94.9203 10.4818L94.2368 9.75182L94.9203 10.4818ZM94.2291 17.7088L93.4197 18.2961L93.4243 18.3024L93.4289 18.3086L94.2291 17.7088ZM100.194 18.7816L100.73 19.6258L100.732 19.6244L100.194 18.7816ZM101.679 16.4925L102.659 16.6888L102.877 15.6025L101.774 15.4971L101.679 16.4925ZM103.327 19.4228L102.497 18.8656L102.494 18.8697L103.327 19.4228ZM100.799 21.4915L100.406 20.572V20.572L100.799 21.4915ZM97.0556 21.9773L97.1508 20.9819C95.8809 20.8604 94.8282 20.4798 93.9599 19.8654L93.3823 20.6817L92.8046 21.498C93.9938 22.3395 95.3899 22.8226 96.9604 22.9728L97.0556 21.9773ZM93.3823 20.6817L93.9673 19.8707C93.0954 19.2418 92.454 18.4237 92.0351 17.3949L91.1089 17.7721L90.1828 18.1493C90.74 19.5176 91.6142 20.6393 92.7972 21.4927L93.3823 20.6817ZM91.1089 17.7721L92.0351 17.3949C91.6177 16.37 91.4573 15.1802 91.5893 13.7998L90.5938 13.7046L89.5983 13.6094C89.441 15.2552 89.624 16.7771 90.1828 18.1493L91.1089 17.7721ZM90.5938 13.7046L91.5893 13.7998C91.7195 12.4376 92.1062 11.3094 92.7214 10.3837L91.8885 9.83024L91.0556 9.27679C90.2314 10.5172 89.7549 11.9719 89.5983 13.6094L90.5938 13.7046ZM91.8885 9.83024L92.7191 10.3871C93.3547 9.43923 94.154 8.75832 95.1244 8.31901L94.7119 7.40802L94.2995 6.49703C92.9738 7.0972 91.8909 8.0311 91.0579 9.27334L91.8885 9.83024ZM94.7119 7.40802L95.1279 8.31742C96.1156 7.86563 97.2153 7.68761 98.451 7.80579L98.5462 6.81033L98.6414 5.81487C97.0899 5.6665 95.6334 5.88694 94.296 6.49863L94.7119 7.40802ZM98.5462 6.81033L98.451 7.80579C99.8243 7.93712 100.9 8.35175 101.732 9.00505L102.349 8.21878L102.967 7.43252C101.78 6.49982 100.321 5.97548 98.6414 5.81487L98.5462 6.81033ZM102.349 8.21878L101.738 9.01045C102.57 9.65252 103.145 10.5044 103.461 11.6063L104.423 11.3303L105.384 11.0543C104.957 9.56693 104.149 8.3445 102.96 7.42712L102.349 8.21878ZM104.423 11.3303L103.49 11.6903C103.449 11.5846 103.438 11.4972 103.435 11.4512C103.432 11.4025 103.434 11.3687 103.436 11.3564L104.431 11.4516L105.427 11.5468C105.437 11.4429 105.45 11.216 105.356 10.9702L104.423 11.3303ZM104.431 11.4516L103.436 11.3564C103.446 11.2489 103.494 11.0576 103.662 10.8877C103.828 10.7201 104.013 10.6728 104.108 10.6611L104.231 11.6535L104.354 12.6459C104.571 12.619 104.85 12.5306 105.083 12.2957C105.318 12.0585 105.405 11.7738 105.427 11.5468L104.431 11.4516ZM104.231 11.6535L104.054 10.6693L101.867 11.0629L102.044 12.0471L102.221 13.0313L104.408 12.6377L104.231 11.6535ZM102.044 12.0471L101.895 11.0582L101.813 11.0705L101.962 12.0593L102.111 13.0482L102.193 13.0359L102.044 12.0471ZM101.962 12.0593L102.057 11.0639C102.169 11.0745 102.337 11.1216 102.49 11.261C102.639 11.3967 102.695 11.5489 102.715 11.6328L101.74 11.8573L100.766 12.0818C100.814 12.289 100.921 12.5365 101.144 12.7395C101.371 12.9463 101.636 13.0327 101.867 13.0548L101.962 12.0593ZM101.74 11.8573L102.667 11.4825C102.317 10.616 101.764 9.90275 101.012 9.36958L100.434 10.1853L99.8551 11.0011C100.282 11.3039 100.6 11.7054 100.813 12.2321L101.74 11.8573ZM100.434 10.1853L101.02 9.37501C100.277 8.83807 99.4009 8.53954 98.4299 8.44669L98.3347 9.44215L98.2395 10.4376C98.9144 10.5021 99.4374 10.6991 99.8475 10.9956L100.434 10.1853ZM98.3347 9.44215L98.4299 8.44669C96.8005 8.29086 95.3629 8.69756 94.2368 9.75182L94.9203 10.4818L95.6037 11.2118C96.243 10.6133 97.0817 10.3269 98.2395 10.4376L98.3347 9.44215ZM94.9203 10.4818L94.2368 9.75182C93.134 10.7843 92.5454 12.2047 92.3837 13.8958L93.3792 13.991L94.3746 14.0862C94.5023 12.7512 94.9411 11.8322 95.6037 11.2118L94.9203 10.4818ZM93.3792 13.991L92.3837 13.8958C92.223 15.5763 92.5338 17.075 93.4197 18.2961L94.2291 17.7088L95.0385 17.1216C94.5043 16.3853 94.2485 15.4055 94.3746 14.0862L93.3792 13.991ZM94.2291 17.7088L93.4289 18.3086C94.348 19.5348 95.6764 20.1979 97.2914 20.3524L97.3866 19.3569L97.4818 18.3615C96.336 18.2519 95.5594 17.8163 95.0293 17.1091L94.2291 17.7088ZM97.3866 19.3569L97.2914 20.3524C98.5658 20.4742 99.7349 20.2577 100.73 19.6258L100.194 18.7816L99.6581 17.9374C99.1132 18.2833 98.4106 18.4503 97.4818 18.3615L97.3866 19.3569ZM100.194 18.7816L100.732 19.6244C101.775 18.9584 102.408 17.9445 102.659 16.6888L101.679 16.4925L100.698 16.2962C100.539 17.0907 100.182 17.6029 99.656 17.9387L100.194 18.7816ZM101.679 16.4925L101.774 15.4971L98.1306 15.1486L98.0354 16.1441L97.9402 17.1395L101.584 17.488L101.679 16.4925ZM98.0354 16.1441L98.1306 15.1486C98.1977 15.1551 98.4293 15.1948 98.6186 15.4242C98.808 15.6537 98.8032 15.8885 98.7968 15.9557L97.8013 15.8605L96.8058 15.7653C96.7829 16.005 96.8088 16.3735 97.0762 16.6974C97.3436 17.0213 97.7004 17.1166 97.9402 17.1395L98.0354 16.1441ZM97.8013 15.8605L98.7968 15.9557L98.9852 13.9847L97.9898 13.8895L96.9943 13.7943L96.8058 15.7653L97.8013 15.8605ZM97.9898 13.8895L98.9852 13.9847C98.9788 14.0519 98.9391 14.2834 98.7096 14.4728C98.4802 14.6622 98.2453 14.6573 98.1782 14.6509L98.2734 13.6554L98.3686 12.66C98.1288 12.6371 97.7604 12.663 97.4365 12.9304C97.1125 13.1978 97.0173 13.5546 96.9943 13.7943L97.9898 13.8895ZM98.2734 13.6554L98.1782 14.6509L104.27 15.2335L104.366 14.2381L104.461 13.2426L98.3686 12.66L98.2734 13.6554ZM104.366 14.2381L104.27 15.2335C104.203 15.2271 103.972 15.1873 103.782 14.9579C103.593 14.7285 103.598 14.4936 103.604 14.4264L104.6 14.5216L105.595 14.6168C105.618 14.3771 105.592 14.0087 105.325 13.6847C105.057 13.3608 104.7 13.2655 104.461 13.2426L104.366 14.2381ZM104.6 14.5216L103.604 14.4264L103.446 16.0789L104.442 16.1741L105.437 16.2693L105.595 14.6168L104.6 14.5216ZM104.442 16.1741L103.446 16.0789C103.342 17.1658 103.02 18.0862 102.497 18.8657L103.327 19.4228L104.158 19.9799C104.885 18.8964 105.305 17.6511 105.437 16.2693L104.442 16.1741ZM103.327 19.4228L102.494 18.8697C101.998 19.6168 101.313 20.1841 100.406 20.572L100.799 21.4915L101.192 22.4109C102.435 21.8794 103.436 21.0675 104.16 19.9758L103.327 19.4228ZM100.799 21.4915L100.406 20.572C99.5147 20.9529 98.4407 21.1052 97.1508 20.9819L97.0556 21.9773L96.9604 22.9728C98.5108 23.121 99.9324 22.9494 101.192 22.4109L100.799 21.4915Z" fill="#372F32" mask="url(#path-13-outside-7_2125_6276)"/>
<mask id="path-15-outside-8_2125_6276" maskUnits="userSpaceOnUse" x="21.5469" y="30.0336" width="16.4062" height="18.2268" fill="black">
<rect fill="white" x="21.5469" y="30.0336" width="16.4062" height="18.2268"/>
<path d="M29.538 46.6931C29.3653 46.7081 29.2715 46.6292 29.2566 46.4565L28.2352 34.6205L23.712 35.0108C23.5526 35.0246 23.4654 34.9451 23.4505 34.7724L23.2768 32.7599C23.2619 32.5872 23.3342 32.494 23.4936 32.4802L35.21 31.4691C35.3827 31.4542 35.4765 31.5331 35.4914 31.7058L35.6651 33.7183C35.68 33.891 35.6011 33.9848 35.4284 33.9997L30.9252 34.3883L31.9466 46.2243C31.9615 46.397 31.8827 46.4908 31.71 46.5057L29.538 46.6931Z"/>
</mask>
<path d="M29.538 46.6931C29.3653 46.7081 29.2715 46.6292 29.2566 46.4565L28.2352 34.6205L23.712 35.0108C23.5526 35.0246 23.4654 34.9451 23.4505 34.7724L23.2768 32.7599C23.2619 32.5872 23.3342 32.494 23.4936 32.4802L35.21 31.4691C35.3827 31.4542 35.4765 31.5331 35.4914 31.7058L35.6651 33.7183C35.68 33.891 35.6011 33.9848 35.4284 33.9997L30.9252 34.3883L31.9466 46.2243C31.9615 46.397 31.8827 46.4908 31.71 46.5057L29.538 46.6931Z" fill="#46984E"/>
<path d="M28.2352 34.6205L29.2315 34.5345L29.1455 33.5382L28.1492 33.6242L28.2352 34.6205ZM30.9252 34.3883L30.8392 33.392L29.8429 33.478L29.9289 34.4743L30.9252 34.3883ZM29.538 46.6931L29.4521 45.6969C29.5193 45.691 29.7542 45.6884 29.9819 45.8799C30.2095 46.0713 30.2471 46.3033 30.2529 46.3705L29.2566 46.4565L28.2603 46.5424C28.281 46.7824 28.373 47.1401 28.6945 47.4104C29.0159 47.6808 29.3841 47.7101 29.624 47.6894L29.538 46.6931ZM29.2566 46.4565L30.2529 46.3705L29.2315 34.5345L28.2352 34.6205L27.2389 34.7064L28.2603 46.5424L29.2566 46.4565ZM28.2352 34.6205L28.1492 33.6242L23.626 34.0145L23.712 35.0108L23.798 36.0071L28.3211 35.6168L28.2352 34.6205ZM23.712 35.0108L23.626 34.0145C23.7213 34.0063 23.9724 34.0144 24.2008 34.2226C24.414 34.417 24.4426 34.6381 24.4468 34.6864L23.4505 34.7724L22.4542 34.8584C22.4733 35.0794 22.553 35.4267 22.8533 35.7005C23.1688 35.9882 23.5433 36.0291 23.798 36.0071L23.712 35.0108ZM23.4505 34.7724L24.4468 34.6864L24.2731 32.6739L23.2768 32.7599L22.2805 32.8459L22.4542 34.8584L23.4505 34.7724ZM23.2768 32.7599L24.2731 32.6739C24.2773 32.7222 24.287 32.945 24.1102 33.1731C23.9209 33.4173 23.6748 33.4683 23.5796 33.4765L23.4936 32.4802L23.4076 31.4839C23.1529 31.5059 22.791 31.6104 22.5294 31.9479C22.2805 32.2691 22.2615 32.6249 22.2805 32.8459L23.2768 32.7599ZM23.4936 32.4802L23.5796 33.4765L35.296 32.4654L35.21 31.4691L35.124 30.4728L23.4076 31.4839L23.4936 32.4802ZM35.21 31.4691L35.296 32.4654C35.2288 32.4712 34.9939 32.4738 34.7662 32.2823C34.5386 32.0909 34.5009 31.859 34.4951 31.7917L35.4914 31.7058L36.4877 31.6198C36.467 31.3799 36.375 31.0222 36.0536 30.7518C35.7321 30.4814 35.364 30.4521 35.124 30.4728L35.21 31.4691ZM35.4914 31.7058L34.4951 31.7917L34.6688 33.8043L35.6651 33.7183L36.6614 33.6323L36.4877 31.6198L35.4914 31.7058ZM35.6651 33.7183L34.6688 33.8043C34.663 33.737 34.6603 33.5021 34.8518 33.2744C35.0433 33.0468 35.2752 33.0092 35.3424 33.0034L35.4284 33.9997L35.5144 34.996C35.7543 34.9753 36.112 34.8833 36.3824 34.5618C36.6528 34.2404 36.6821 33.8722 36.6614 33.6323L35.6651 33.7183ZM35.4284 33.9997L35.3424 33.0034L30.8392 33.392L30.9252 34.3883L31.0111 35.3846L35.5144 34.996L35.4284 33.9997ZM30.9252 34.3883L29.9289 34.4743L30.9503 46.3103L31.9466 46.2243L32.9429 46.1383L31.9215 34.3023L30.9252 34.3883ZM31.9466 46.2243L30.9503 46.3103C30.9445 46.2431 30.9419 46.0081 31.1334 45.7805C31.3248 45.5528 31.5567 45.5152 31.624 45.5094L31.71 46.5057L31.7959 47.502C32.0359 47.4813 32.3936 47.3893 32.6639 47.0679C32.9343 46.7464 32.9636 46.3782 32.9429 46.1383L31.9466 46.2243ZM31.71 46.5057L31.624 45.5094L29.4521 45.6969L29.538 46.6931L29.624 47.6894L31.7959 47.502L31.71 46.5057Z" fill="#372F32" mask="url(#path-15-outside-8_2125_6276)"/>
<mask id="path-17-outside-9_2125_6276" maskUnits="userSpaceOnUse" x="35.5533" y="30.1142" width="18.2174" height="19.145" fill="black">
<rect fill="white" x="35.5533" y="30.1142" width="18.2174" height="19.145"/>
<path d="M44.1728 46.9503C42.7629 46.8514 41.5146 46.4498 40.4279 45.7454C39.3554 45.0286 38.54 44.0759 37.9818 42.8873C37.4378 41.6863 37.2185 40.3343 37.3239 38.8313C37.4293 37.3284 37.8346 36.0269 38.54 34.9268C39.2595 33.8145 40.1999 32.9849 41.361 32.4381C42.5363 31.8789 43.8289 31.6488 45.2388 31.7476C46.6486 31.8465 47.8898 32.2543 48.9623 32.9711C50.049 33.6755 50.8644 34.6282 51.4084 35.8292C51.9666 37.0178 52.193 38.3636 52.0876 39.8666C51.9823 41.3695 51.5698 42.6772 50.8502 43.7896C50.1449 44.8896 49.2045 45.7192 48.0292 46.2784C46.8681 46.8252 45.5826 47.0492 44.1728 46.9503ZM44.3574 44.3168C45.2752 44.3811 46.0948 44.2247 46.8163 43.8476C47.5511 43.4714 48.1308 42.9239 48.5554 42.2052C48.981 41.4732 49.2274 40.6284 49.2945 39.6707C49.3617 38.7131 49.2351 37.8488 48.9149 37.0778C48.5957 36.2936 48.0985 35.6639 47.4234 35.1889C46.7616 34.7147 45.9719 34.4455 45.0541 34.3812C44.1364 34.3168 43.3101 34.4727 42.5753 34.8489C41.8538 35.226 41.2803 35.7806 40.8547 36.5126C40.4301 37.2314 40.1842 38.0696 40.117 39.0272C40.0499 39.9848 40.1759 40.8558 40.4952 41.6401C40.8154 42.411 41.3064 43.0335 41.9682 43.5077C42.6433 43.9827 43.4397 44.2524 44.3574 44.3168Z"/>
</mask>
<path d="M44.1728 46.9503C42.7629 46.8514 41.5146 46.4498 40.4279 45.7454C39.3554 45.0286 38.54 44.0759 37.9818 42.8873C37.4378 41.6863 37.2185 40.3343 37.3239 38.8313C37.4293 37.3284 37.8346 36.0269 38.54 34.9268C39.2595 33.8145 40.1999 32.9849 41.361 32.4381C42.5363 31.8789 43.8289 31.6488 45.2388 31.7476C46.6486 31.8465 47.8898 32.2543 48.9623 32.9711C50.049 33.6755 50.8644 34.6282 51.4084 35.8292C51.9666 37.0178 52.193 38.3636 52.0876 39.8666C51.9823 41.3695 51.5698 42.6772 50.8502 43.7896C50.1449 44.8896 49.2045 45.7192 48.0292 46.2784C46.8681 46.8252 45.5826 47.0492 44.1728 46.9503ZM44.3574 44.3168C45.2752 44.3811 46.0948 44.2247 46.8163 43.8476C47.5511 43.4714 48.1308 42.9239 48.5554 42.2052C48.981 41.4732 49.2274 40.6284 49.2945 39.6707C49.3617 38.7131 49.2351 37.8488 48.9149 37.0778C48.5957 36.2936 48.0985 35.6639 47.4234 35.1889C46.7616 34.7147 45.9719 34.4455 45.0541 34.3812C44.1364 34.3168 43.3101 34.4727 42.5753 34.8489C41.8538 35.226 41.2803 35.7806 40.8547 36.5126C40.4301 37.2314 40.1842 38.0696 40.117 39.0272C40.0499 39.9848 40.1759 40.8558 40.4952 41.6401C40.8154 42.411 41.3064 43.0335 41.9682 43.5077C42.6433 43.9827 43.4397 44.2524 44.3574 44.3168Z" fill="#46984E"/>
<path d="M40.4279 45.7454L39.8722 46.5769L39.884 46.5845L40.4279 45.7454ZM37.9818 42.8873L37.0708 43.2999L37.0767 43.3124L37.9818 42.8873ZM38.54 34.9268L37.7003 34.3837L37.6982 34.3871L38.54 34.9268ZM41.361 32.4381L41.787 33.3428L41.7906 33.3411L41.361 32.4381ZM48.9623 32.9711L48.4066 33.8026L48.4184 33.8102L48.9623 32.9711ZM51.4084 35.8292L50.4974 36.2418L50.5032 36.2543L51.4084 35.8292ZM50.8502 43.7896L50.0106 43.2465L50.0084 43.2498L50.8502 43.7896ZM48.0292 46.2784L48.4553 47.1831L48.4588 47.1814L48.0292 46.2784ZM46.8163 43.8476L46.3605 42.9574L46.353 42.9614L46.8163 43.8476ZM48.5554 42.2052L49.4164 42.7139L49.4199 42.7078L48.5554 42.2052ZM48.9149 37.0778L47.9887 37.4549L47.9914 37.4614L48.9149 37.0778ZM47.4234 35.1889L46.841 36.0018L46.8479 36.0067L47.4234 35.1889ZM42.5753 34.8489L42.1196 33.9588L42.1121 33.9627L42.5753 34.8489ZM40.8547 36.5126L41.7157 37.0213L41.7192 37.0152L40.8547 36.5126ZM40.4952 41.6401L39.569 42.0171L39.5717 42.0236L40.4952 41.6401ZM41.9682 43.5077L41.3858 44.3206L41.3927 44.3255L41.9682 43.5077ZM44.1728 46.9503L44.2427 45.9527C42.9859 45.8646 41.9037 45.5103 40.9718 44.9063L40.4279 45.7454L39.884 46.5845C41.1255 47.3893 42.5399 47.8383 44.1028 47.9478L44.1728 46.9503ZM40.4279 45.7454L40.9835 44.914C40.0652 44.3002 39.3693 43.4892 38.887 42.4622L37.9818 42.8873L37.0767 43.3124C37.7108 44.6626 38.6456 45.757 39.8722 46.5768L40.4279 45.7454ZM37.9818 42.8873L38.8927 42.4747C38.4264 41.4453 38.226 40.2626 38.3214 38.9013L37.3239 38.8313L36.3263 38.7614C36.211 40.406 36.4492 41.9273 37.0709 43.2999L37.9818 42.8873ZM37.3239 38.8313L38.3214 38.9013C38.4169 37.5397 38.7799 36.4053 39.3818 35.4666L38.54 34.9268L37.6982 34.3871C36.8894 35.6485 36.4416 37.117 36.3263 38.7614L37.3239 38.8313ZM38.54 34.9268L39.3796 35.47C40.0012 34.509 40.8005 33.8074 41.787 33.3428L41.361 32.4381L40.9349 31.5334C39.5993 32.1624 38.5179 33.1199 37.7003 34.3837L38.54 34.9268ZM41.361 32.4381L41.7906 33.3411C42.7971 32.8622 43.9156 32.6573 45.1688 32.7452L45.2388 31.7476L45.3087 30.7501C43.7421 30.6402 42.2755 30.8956 40.9314 31.5351L41.361 32.4381ZM45.2388 31.7476L45.1688 32.7452C46.4221 32.8331 47.4924 33.1915 48.4067 33.8025L48.9623 32.9711L49.518 32.1397C48.2872 31.3171 46.8751 30.8599 45.3087 30.7501L45.2388 31.7476ZM48.9623 32.9711L48.4184 33.8102C49.3414 34.4085 50.031 35.2118 50.4975 36.2418L51.4084 35.8292L52.3193 35.4166C51.6978 34.0445 50.7566 32.9424 49.5062 32.1319L48.9623 32.9711ZM51.4084 35.8292L50.5032 36.2543C50.9788 37.267 51.1853 38.4385 51.0901 39.7966L52.0876 39.8666L53.0852 39.9365C53.2007 38.2887 52.9544 36.7686 52.3135 35.4041L51.4084 35.8292ZM52.0876 39.8666L51.0901 39.7966C50.9949 41.1545 50.6264 42.2944 50.0106 43.2465L50.8502 43.7896L51.6899 44.3328C52.5132 43.06 52.9696 41.5846 53.0852 39.9365L52.0876 39.8666ZM50.8502 43.7896L50.0084 43.2498C49.4034 44.1933 48.6056 44.8968 47.5996 45.3754L48.0292 46.2784L48.4588 47.1814C49.8035 46.5417 50.8863 45.5859 51.692 44.3294L50.8502 43.7896ZM48.0292 46.2784L47.6032 45.3737C46.612 45.8404 45.4997 46.0409 44.2427 45.9527L44.1728 46.9503L44.1028 47.9478C45.6656 48.0574 47.1242 47.8099 48.4553 47.1831L48.0292 46.2784ZM44.3574 44.3168L44.2875 45.3143C45.3652 45.3899 46.3735 45.2074 47.2795 44.7338L46.8163 43.8476L46.353 42.9614C45.8161 43.242 45.1851 43.3723 44.4274 43.3192L44.3574 44.3168ZM46.8163 43.8476L47.272 44.7377C48.1772 44.2743 48.8966 43.5936 49.4164 42.7139L48.5554 42.2052L47.6945 41.6965C47.3649 42.2543 46.9249 42.6686 46.3605 42.9575L46.8163 43.8476ZM48.5554 42.2052L49.4199 42.7078C49.932 41.827 50.2156 40.8303 50.2921 39.7407L49.2945 39.6707L48.297 39.6008C48.2391 40.4264 48.0299 41.1194 47.6909 41.7026L48.5554 42.2052ZM49.2945 39.6707L50.2921 39.7407C50.3684 38.6514 50.2265 37.6287 49.8385 36.6943L48.9149 37.0778L47.9914 37.4614C48.2437 38.0688 48.3549 38.7747 48.297 39.6008L49.2945 39.6707ZM48.9149 37.0778L49.8411 36.7008C49.4516 35.7439 48.8349 34.9593 47.9989 34.371L47.4234 35.1889L46.8479 36.0067C47.3621 36.3685 47.7398 36.8433 47.9887 37.4549L48.9149 37.0778ZM47.4234 35.1889L48.0058 34.3759C47.1747 33.7805 46.2018 33.4592 45.1241 33.3836L45.0541 34.3812L44.9842 35.3787C45.7419 35.4318 46.3485 35.6489 46.841 36.0018L47.4234 35.1889ZM45.0541 34.3812L45.1241 33.3836C44.0459 33.308 43.0346 33.4903 42.1196 33.9588L42.5753 34.8489L43.031 35.739C43.5856 35.4551 44.2268 35.3256 44.9842 35.3787L45.0541 34.3812ZM42.5753 34.8489L42.1121 33.9627C41.2164 34.4309 40.5067 35.1217 39.9902 36.01L40.8547 36.5126L41.7192 37.0152C42.054 36.4395 42.4913 36.0212 43.0386 35.7351L42.5753 34.8489ZM40.8547 36.5126L39.9938 36.004C39.4791 36.8751 39.1959 37.868 39.1195 38.9573L40.117 39.0272L41.1146 39.0971C41.1725 38.2711 41.3811 37.5876 41.7157 37.0213L40.8547 36.5126ZM40.117 39.0272L39.1195 38.9573C39.0431 40.0469 39.1848 41.0734 39.569 42.0171L40.4952 41.6401L41.4214 41.263C41.1671 40.6382 41.0567 39.9228 41.1146 39.0971L40.117 39.0272ZM40.4952 41.6401L39.5717 42.0236C39.9614 42.9621 40.5685 43.735 41.3858 44.3206L41.9682 43.5077L42.5506 42.6947C42.0443 42.332 41.6693 41.8599 41.4187 41.2565L40.4952 41.6401ZM41.9682 43.5077L41.3927 44.3255C42.2334 44.917 43.2094 45.2387 44.2875 45.3143L44.3574 44.3168L44.4274 43.3192C43.67 43.2661 43.0532 43.0484 42.5437 42.6898L41.9682 43.5077Z" fill="#372F32" mask="url(#path-17-outside-9_2125_6276)"/>
<mask id="path-19-outside-10_2125_6276" maskUnits="userSpaceOnUse" x="53.3992" y="30.4431" width="16.6968" height="19.3873" fill="black">
<rect fill="white" x="53.3992" y="30.4431" width="16.6968" height="19.3873"/>
<path d="M60.9723 47.3756C59.9373 47.2733 58.9956 46.9727 58.1473 46.4735C57.3002 45.9611 56.6373 45.2123 56.1584 44.2271C55.6929 43.2433 55.5322 42.0216 55.6764 40.562L56.5061 32.1629C56.5231 31.9904 56.6179 31.9126 56.7904 31.9297L58.9598 32.144C59.1323 32.161 59.21 32.2558 59.193 32.4283L58.4105 40.3497C58.2755 41.7164 58.4665 42.7669 58.9835 43.5013C59.5137 44.237 60.2632 44.6527 61.2318 44.7484C62.2004 44.844 63.0167 44.583 63.6806 43.9653C64.3446 43.3476 64.744 42.3554 64.879 40.9887L65.6615 33.0672C65.6785 32.8947 65.7733 32.817 65.9458 32.8341L68.1152 33.0484C68.2877 33.0654 68.3655 33.1602 68.3484 33.3327L67.5188 41.7318C67.3746 43.1913 66.9714 44.3574 66.309 45.2298C65.66 46.1036 64.8634 46.7082 63.9192 47.0437C62.9895 47.3672 62.0072 47.4778 60.9723 47.3756Z"/>
</mask>
<path d="M60.9723 47.3756C59.9373 47.2733 58.9956 46.9727 58.1473 46.4735C57.3002 45.9611 56.6373 45.2123 56.1584 44.2271C55.6929 43.2433 55.5322 42.0216 55.6764 40.562L56.5061 32.1629C56.5231 31.9904 56.6179 31.9126 56.7904 31.9297L58.9598 32.144C59.1323 32.161 59.21 32.2558 59.193 32.4283L58.4105 40.3497C58.2755 41.7164 58.4665 42.7669 58.9835 43.5013C59.5137 44.237 60.2632 44.6527 61.2318 44.7484C62.2004 44.844 63.0167 44.583 63.6806 43.9653C64.3446 43.3476 64.744 42.3554 64.879 40.9887L65.6615 33.0672C65.6785 32.8947 65.7733 32.817 65.9458 32.8341L68.1152 33.0484C68.2877 33.0654 68.3655 33.1602 68.3484 33.3327L67.5188 41.7318C67.3746 43.1913 66.9714 44.3574 66.309 45.2298C65.66 46.1036 64.8634 46.7082 63.9192 47.0437C62.9895 47.3672 62.0072 47.4778 60.9723 47.3756Z" fill="#46984E"/>
<path d="M58.1473 46.4735L57.6296 47.3292L57.6402 47.3354L58.1473 46.4735ZM56.1584 44.2271L55.2545 44.6549L55.259 44.6643L56.1584 44.2271ZM58.9835 43.5013L58.1657 44.077L58.1722 44.086L58.9835 43.5013ZM63.6806 43.9653L62.9995 43.2332V43.2332L63.6806 43.9653ZM66.309 45.2298L65.5125 44.6251L65.5063 44.6335L66.309 45.2298ZM63.9192 47.0437L64.2478 47.9881L64.254 47.986L63.9192 47.0437ZM60.9723 47.3756L61.0706 46.3804C60.1716 46.2916 59.3707 46.0331 58.6544 45.6116L58.1473 46.4735L57.6402 47.3354C58.6206 47.9122 59.703 48.2551 60.874 48.3707L60.9723 47.3756ZM58.1473 46.4735L58.6649 45.6179C58 45.2157 57.4617 44.6209 57.0578 43.79L56.1584 44.2271L55.259 44.6643C55.8128 45.8037 56.6003 46.7065 57.6297 47.3291L58.1473 46.4735ZM56.1584 44.2271L57.0624 43.7994C56.6968 43.0268 56.5392 42.0001 56.6716 40.6603L55.6764 40.562L54.6812 40.4637C54.5252 42.043 54.689 43.4597 55.2545 44.6548L56.1584 44.2271ZM55.6764 40.562L56.6716 40.6603L57.5012 32.2612L56.5061 32.1629L55.5109 32.0646L54.6812 40.4637L55.6764 40.562ZM56.5061 32.1629L57.5012 32.2612C57.4946 32.3283 57.4541 32.5597 57.2241 32.7484C56.9941 32.937 56.7592 32.9315 56.6921 32.9248L56.7904 31.9297L56.8887 30.9345C56.649 30.9109 56.2805 30.9356 55.9557 31.202C55.631 31.4684 55.5346 31.8249 55.5109 32.0646L56.5061 32.1629ZM56.7904 31.9297L56.6921 32.9248L58.8615 33.1391L58.9598 32.144L59.0581 31.1488L56.8887 30.9345L56.7904 31.9297ZM58.9598 32.144L58.8615 33.1391C58.7944 33.1325 58.5629 33.092 58.3743 32.862C58.1856 32.632 58.1912 32.3971 58.1978 32.33L59.193 32.4283L60.1881 32.5266C60.2118 32.2869 60.187 31.9184 59.9207 31.5937C59.6543 31.2689 59.2978 31.1725 59.0581 31.1488L58.9598 32.144ZM59.193 32.4283L58.1978 32.33L57.4154 40.2514L58.4105 40.3497L59.4057 40.448L60.1881 32.5266L59.193 32.4283ZM58.4105 40.3497L57.4154 40.2514C57.2688 41.7355 57.4539 43.0657 58.1658 44.077L58.9835 43.5013L59.8012 42.9257C59.4791 42.4682 59.2823 41.6973 59.4057 40.448L58.4105 40.3497ZM58.9835 43.5013L58.1722 44.086C58.8836 45.0731 59.903 45.622 61.1335 45.7435L61.2318 44.7484L61.3301 43.7532C60.6234 43.6834 60.1438 43.4009 59.7947 42.9166L58.9835 43.5013ZM61.2318 44.7484L61.1335 45.7435C62.364 45.8651 63.471 45.5262 64.3618 44.6974L63.6806 43.9653L62.9995 43.2332C62.5624 43.6398 62.0368 43.823 61.3301 43.7532L61.2318 44.7484ZM63.6806 43.9653L64.3618 44.6974C65.2764 43.8465 65.7271 42.5756 65.8742 41.087L64.879 40.9887L63.8839 40.8904C63.7609 42.1352 63.4127 42.8487 62.9995 43.2332L63.6806 43.9653ZM64.879 40.9887L65.8742 41.087L66.6567 33.1655L65.6615 33.0672L64.6664 32.9689L63.8839 40.8904L64.879 40.9887ZM65.6615 33.0672L66.6567 33.1655C66.65 33.2327 66.6095 33.4641 66.3795 33.6528C66.1495 33.8414 65.9147 33.8359 65.8475 33.8292L65.9458 32.8341L66.0441 31.8389C65.8045 31.8152 65.436 31.84 65.1112 32.1064C64.7864 32.3728 64.69 32.7293 64.6664 32.9689L65.6615 33.0672ZM65.9458 32.8341L65.8475 33.8292L68.0169 34.0435L68.1152 33.0484L68.2136 32.0532L66.0441 31.8389L65.9458 32.8341ZM68.1152 33.0484L68.0169 34.0435C67.9498 34.0369 67.7184 33.9964 67.5297 33.7664C67.3411 33.5364 67.3466 33.3015 67.3533 33.2344L68.3484 33.3327L69.3436 33.431C69.3673 33.1913 69.3425 32.8228 69.0761 32.498C68.8097 32.1733 68.4532 32.0769 68.2136 32.0532L68.1152 33.0484ZM68.3484 33.3327L67.3533 33.2344L66.5236 41.6335L67.5188 41.7318L68.5139 41.8301L69.3436 33.431L68.3484 33.3327ZM67.5188 41.7318L66.5236 41.6335C66.3916 42.9697 66.0313 43.9418 65.5126 44.6252L66.309 45.2298L67.1055 45.8344C67.9114 44.7729 68.3576 43.413 68.5139 41.8301L67.5188 41.7318ZM66.309 45.2298L65.5063 44.6335C64.9648 45.3624 64.3256 45.838 63.5844 46.1014L63.9192 47.0437L64.254 47.986C65.4012 47.5784 66.3552 46.8447 67.1118 45.8261L66.309 45.2298ZM63.9192 47.0437L63.5905 46.0992C62.8055 46.3724 61.9696 46.4692 61.0706 46.3804L60.9723 47.3756L60.874 48.3707C62.0449 48.4864 63.1735 48.362 64.2478 47.9881L63.9192 47.0437Z" fill="#372F32" mask="url(#path-19-outside-10_2125_6276)"/>
<mask id="path-21-outside-11_2125_6276" maskUnits="userSpaceOnUse" x="70.2112" y="29.9949" width="14.7378" height="17.6022" fill="black">
<rect fill="white" x="70.2112" y="29.9949" width="14.7378" height="17.6022"/>
<path d="M72.7767 46.5159C72.6035 46.5236 72.5131 46.4408 72.5054 46.2677L71.8795 32.1215C71.8719 31.9483 71.9546 31.8579 72.1278 31.8503L76.5634 31.654C78.5615 31.5656 80.0459 31.9337 81.0166 32.7582C82.0001 33.5689 82.5292 34.8201 82.6041 36.5117C82.6447 37.4308 82.5015 38.2646 82.1742 39.0132C81.8597 39.7478 81.3528 40.3575 80.6536 40.8422L83.6119 45.7162C83.6421 45.7949 83.6575 45.841 83.6581 45.8543C83.6604 45.9076 83.6425 45.9551 83.6043 45.9968C83.5655 46.0252 83.5128 46.0409 83.4462 46.0438L80.9886 46.1526C80.8554 46.1585 80.7529 46.1029 80.681 45.986L78.1323 41.7745C77.7745 41.8304 77.4024 41.8669 77.0161 41.884L75.018 41.9724L75.2028 46.1483C75.2105 46.3215 75.1277 46.4119 74.9546 46.4195L72.7767 46.5159ZM74.6759 34.24L74.9075 39.4748L76.8057 39.3909C77.8713 39.3437 78.6481 39.1025 79.136 38.6671C79.6233 38.2185 79.8469 37.5413 79.8068 36.6355C79.7667 35.7297 79.4845 35.0816 78.96 34.691C78.435 34.2872 77.6397 34.1088 76.574 34.156L74.6759 34.24Z"/>
</mask>
<path d="M72.7767 46.5159C72.6035 46.5236 72.5131 46.4408 72.5054 46.2677L71.8795 32.1215C71.8719 31.9483 71.9546 31.8579 72.1278 31.8503L76.5634 31.654C78.5615 31.5656 80.0459 31.9337 81.0166 32.7582C82.0001 33.5689 82.5292 34.8201 82.6041 36.5117C82.6447 37.4308 82.5015 38.2646 82.1742 39.0132C81.8597 39.7478 81.3528 40.3575 80.6536 40.8422L83.6119 45.7162C83.6421 45.7949 83.6575 45.841 83.6581 45.8543C83.6604 45.9076 83.6425 45.9551 83.6043 45.9968C83.5655 46.0252 83.5128 46.0409 83.4462 46.0438L80.9886 46.1526C80.8554 46.1585 80.7529 46.1029 80.681 45.986L78.1323 41.7745C77.7745 41.8304 77.4024 41.8669 77.0161 41.884L75.018 41.9724L75.2028 46.1483C75.2105 46.3215 75.1277 46.4119 74.9546 46.4195L72.7767 46.5159ZM74.6759 34.24L74.9075 39.4748L76.8057 39.3909C77.8713 39.3437 78.6481 39.1025 79.136 38.6671C79.6233 38.2185 79.8469 37.5413 79.8068 36.6355C79.7667 35.7297 79.4845 35.0816 78.96 34.691C78.435 34.2872 77.6397 34.1088 76.574 34.156L74.6759 34.24Z" fill="#46984E"/>
<path d="M81.0166 32.7582L80.3692 33.5204L80.3748 33.5252L80.3805 33.5299L81.0166 32.7582ZM82.1742 39.0132L81.2579 38.6126L81.2549 38.6196L82.1742 39.0132ZM80.6536 40.8422L80.0839 40.0203L79.3104 40.5565L79.7987 41.361L80.6536 40.8422ZM83.6119 45.7162L84.5457 45.3583L84.5135 45.2743L84.4668 45.1973L83.6119 45.7162ZM83.6043 45.9968L84.1953 46.8035L84.2751 46.745L84.342 46.6719L83.6043 45.9968ZM80.681 45.986L79.8254 46.5038L79.8291 46.5098L80.681 45.986ZM78.1323 41.7745L78.9879 41.2568L78.6407 40.6831L77.9781 40.7865L78.1323 41.7745ZM75.018 41.9724L74.9738 40.9734L73.9748 41.0176L74.019 42.0166L75.018 41.9724ZM74.6759 34.24L74.6317 33.2409L73.6327 33.2851L73.6769 34.2842L74.6759 34.24ZM74.9075 39.4748L73.9085 39.519L73.9527 40.5181L74.9517 40.4739L74.9075 39.4748ZM79.136 38.6671L79.8017 39.4133L79.8075 39.4081L79.8133 39.4028L79.136 38.6671ZM78.96 34.691L78.3503 35.4837L78.3565 35.4884L78.3628 35.4931L78.96 34.691ZM72.7767 46.5159L72.7325 45.5169C72.7999 45.5139 73.0347 45.5211 73.2542 45.7219C73.4736 45.9228 73.5015 46.156 73.5045 46.2235L72.5054 46.2677L71.5064 46.3119C71.5171 46.5524 71.594 46.9137 71.9038 47.1973C72.2137 47.4809 72.5803 47.5256 72.8209 47.5149L72.7767 46.5159ZM72.5054 46.2677L73.5045 46.2235L72.8785 32.0773L71.8795 32.1215L70.8805 32.1657L71.5064 46.3119L72.5054 46.2677ZM71.8795 32.1215L72.8785 32.0773C72.8815 32.1447 72.8744 32.3795 72.6735 32.599C72.4727 32.8184 72.2394 32.8463 72.172 32.8493L72.1278 31.8503L72.0836 30.8512C71.843 30.8619 71.4818 30.9388 71.1982 31.2487C70.9146 31.5585 70.8699 31.9251 70.8805 32.1657L71.8795 32.1215ZM72.1278 31.8503L72.172 32.8493L76.6076 32.653L76.5634 31.654L76.5192 30.655L72.0836 30.8512L72.1278 31.8503ZM76.5634 31.654L76.6076 32.653C78.4915 32.5697 79.6751 32.9308 80.3692 33.5204L81.0166 32.7582L81.664 31.9961C80.4166 30.9365 78.6315 30.5615 76.5192 30.655L76.5634 31.654ZM81.0166 32.7582L80.3805 33.5299C81.0799 34.1063 81.5384 35.0494 81.605 36.5559L82.6041 36.5117L83.6031 36.4675C83.5201 34.5907 82.9203 33.0314 81.6527 31.9866L81.0166 32.7582ZM82.6041 36.5117L81.605 36.5559C81.6398 37.3418 81.5167 38.0208 81.258 38.6126L82.1742 39.0132L83.0905 39.4137C83.4863 38.5085 83.6497 37.5199 83.6031 36.4675L82.6041 36.5117ZM82.1742 39.0132L81.2549 38.6196C81.0192 39.1701 80.6391 39.6354 80.0839 40.0203L80.6536 40.8422L81.2233 41.664C82.0666 41.0795 82.7002 40.3255 83.0935 39.4067L82.1742 39.0132ZM80.6536 40.8422L79.7987 41.361L82.7571 46.235L83.6119 45.7162L84.4668 45.1973L81.5084 40.3233L80.6536 40.8422ZM83.6119 45.7162L82.6781 46.074C82.6843 46.09 82.689 46.1026 82.6924 46.1121C82.6942 46.1168 82.6954 46.1204 82.6964 46.123C82.6973 46.1256 82.6977 46.1268 82.6976 46.1267C82.6976 46.1267 82.6969 46.1245 82.6957 46.1204C82.6945 46.1167 82.6921 46.1088 82.6892 46.098C82.6866 46.0882 82.6816 46.0689 82.6765 46.0433C82.6739 46.0302 82.6705 46.012 82.6675 45.9901C82.6645 45.9691 82.6608 45.9374 82.659 45.8985L83.6581 45.8543L84.6571 45.8101C84.6517 45.6873 84.6234 45.589 84.6205 45.5783C84.6113 45.544 84.6015 45.5137 84.5945 45.4928C84.5801 45.4496 84.5628 45.403 84.5457 45.3583L83.6119 45.7162ZM83.6581 45.8543L82.659 45.8985C82.6545 45.7968 82.6695 45.6863 82.7107 45.577C82.7515 45.4688 82.8096 45.3839 82.8666 45.3216L83.6043 45.9968L84.342 46.6719C84.5472 46.4477 84.6719 46.1456 84.6571 45.8101L83.6581 45.8543ZM83.6043 45.9968L83.0134 45.1901C83.1845 45.0647 83.3451 45.0473 83.402 45.0448L83.4462 46.0438L83.4904 47.0428C83.6806 47.0344 83.9466 46.9857 84.1953 46.8035L83.6043 45.9968ZM83.4462 46.0438L83.402 45.0448L80.9444 45.1535L80.9886 46.1526L81.0328 47.1516L83.4904 47.0428L83.4462 46.0438ZM80.9886 46.1526L80.9444 45.1535C81.0325 45.1496 81.158 45.1656 81.2879 45.2359C81.4163 45.3054 81.4933 45.3979 81.5328 45.4622L80.681 45.986L79.8291 46.5098C79.9406 46.6911 80.1048 46.8697 80.3357 46.9947C80.5682 47.1206 80.8116 47.1614 81.0328 47.1516L80.9886 46.1526ZM80.681 45.986L81.5365 45.4683L78.9879 41.2568L78.1323 41.7745L77.2768 42.2923L79.8254 46.5037L80.681 45.986ZM78.1323 41.7745L77.9781 40.7865C77.659 40.8363 77.3238 40.8694 76.9719 40.885L77.0161 41.884L77.0603 42.883C77.481 42.8644 77.8899 42.8245 78.2866 42.7626L78.1323 41.7745ZM77.0161 41.884L76.9719 40.885L74.9738 40.9734L75.018 41.9724L75.0622 42.9714L77.0603 42.883L77.0161 41.884ZM75.018 41.9724L74.019 42.0166L74.2038 46.1925L75.2028 46.1483L76.2018 46.1041L76.0171 41.9282L75.018 41.9724ZM75.2028 46.1483L74.2038 46.1925C74.2008 46.1251 74.208 45.8903 74.4088 45.6708C74.6097 45.4514 74.8429 45.4235 74.9103 45.4205L74.9546 46.4195L74.9988 47.4186C75.2393 47.4079 75.6006 47.331 75.8842 47.0212C76.1678 46.7113 76.2125 46.3447 76.2018 46.1041L75.2028 46.1483ZM74.9546 46.4195L74.9103 45.4205L72.7325 45.5169L72.7767 46.5159L72.8209 47.5149L74.9988 47.4186L74.9546 46.4195ZM74.6759 34.24L73.6769 34.2842L73.9085 39.519L74.9075 39.4748L75.9065 39.4306L75.6749 34.1958L74.6759 34.24ZM74.9075 39.4748L74.9517 40.4739L76.8499 40.3899L76.8057 39.3909L76.7615 38.3918L74.8633 38.4758L74.9075 39.4748ZM76.8057 39.3909L76.8499 40.3899C78.0108 40.3385 79.0628 40.0726 79.8017 39.4133L79.136 38.6671L78.4702 37.921C78.2333 38.1323 77.7318 38.3489 76.7615 38.3918L76.8057 39.3909ZM79.136 38.6671L79.8133 39.4028C80.5897 38.688 80.8539 37.6774 80.8058 36.5913L79.8068 36.6355L78.8078 36.6797C78.8399 37.4052 78.6569 37.749 78.4586 37.9314L79.136 38.6671ZM79.8068 36.6355L80.8058 36.5913C80.7579 35.5076 80.4061 34.5211 79.5573 33.889L78.96 34.691L78.3628 35.4931C78.5628 35.642 78.7756 35.9519 78.8078 36.6797L79.8068 36.6355ZM78.96 34.691L79.5697 33.8984C78.7734 33.2858 77.6963 33.1053 76.5298 33.1569L76.574 34.156L76.6182 35.155C77.583 35.1123 78.0966 35.2885 78.3503 35.4837L78.96 34.691ZM76.574 34.156L76.5298 33.1569L74.6317 33.2409L74.6759 34.24L74.7201 35.239L76.6182 35.155L76.574 34.156Z" fill="#372F32" mask="url(#path-21-outside-11_2125_6276)"/>
</svg>
