<svg width="73" height="54" viewBox="0 0 73 54" fill="none" xmlns="http://www.w3.org/2000/svg">
<mask id="path-1-outside-1_2097_24245" maskUnits="userSpaceOnUse" x="-0.509556" y="5.83619" width="25.2054" height="18.7492" fill="black">
<rect fill="white" x="-0.509556" y="5.83619" width="25.2054" height="18.7492"/>
<path d="M7.50919 23.0761C7.34964 23.0881 7.24492 23.0291 7.19505 22.8991L1.02775 9.14224C1.01246 9.11665 1.00331 9.0839 1.00032 9.04402C0.996326 8.99083 1.01278 8.9428 1.04967 8.89992C1.09986 8.85604 1.15819 8.8316 1.22467 8.82661L3.75754 8.63644C3.9038 8.62545 4.00236 8.69159 4.05323 8.83485L8.00542 18.466L10.515 8.34969C10.5439 8.20044 10.6315 8.12032 10.7778 8.10934L12.5727 7.97457C12.719 7.96359 12.8175 8.02973 12.8684 8.17299L16.862 17.8211L19.3502 7.68633C19.3791 7.53708 19.4667 7.45696 19.6129 7.44598L22.086 7.2603C22.179 7.25331 22.2475 7.27492 22.2914 7.3251C22.3353 7.37529 22.3474 7.44792 22.3278 7.54299L18.2838 22.0665C18.2539 22.2025 18.1592 22.2765 17.9997 22.2884L16.1648 22.4262C16.0186 22.4372 15.92 22.371 15.8691 22.2278L12.0222 12.9297L9.60676 22.698C9.57786 22.8472 9.49028 22.9273 9.34402 22.9383L7.50919 23.0761Z"/>
</mask>
<path d="M7.50919 23.0761C7.34964 23.0881 7.24492 23.0291 7.19505 22.8991L1.02775 9.14224C1.01246 9.11665 1.00331 9.0839 1.00032 9.04402C0.996326 8.99083 1.01278 8.9428 1.04967 8.89992C1.09986 8.85604 1.15819 8.8316 1.22467 8.82661L3.75754 8.63644C3.9038 8.62545 4.00236 8.69159 4.05323 8.83485L8.00542 18.466L10.515 8.34969C10.5439 8.20044 10.6315 8.12032 10.7778 8.10934L12.5727 7.97457C12.719 7.96359 12.8175 8.02973 12.8684 8.17299L16.862 17.8211L19.3502 7.68633C19.3791 7.53708 19.4667 7.45696 19.6129 7.44598L22.086 7.2603C22.179 7.25331 22.2475 7.27492 22.2914 7.3251C22.3353 7.37529 22.3474 7.44792 22.3278 7.54299L18.2838 22.0665C18.2539 22.2025 18.1592 22.2765 17.9997 22.2884L16.1648 22.4262C16.0186 22.4372 15.92 22.371 15.8691 22.2278L12.0222 12.9297L9.60676 22.698C9.57786 22.8472 9.49028 22.9273 9.34402 22.9383L7.50919 23.0761Z" fill="#E65325"/>
<path d="M7.19505 22.8991L8.12868 22.5408L8.11881 22.5151L8.10755 22.49L7.19505 22.8991ZM1.02775 9.14224L1.94025 8.73316L1.91626 8.67965L1.88618 8.62931L1.02775 9.14224ZM1.04967 8.89992L0.391453 8.14709L0.337955 8.19386L0.291609 8.24773L1.04967 8.89992ZM4.05323 8.83485L3.11087 9.16947L3.11894 9.19219L3.12809 9.21449L4.05323 8.83485ZM8.00542 18.466L7.08028 18.8456L8.24028 21.6724L8.976 18.7068L8.00542 18.466ZM10.515 8.34969L11.4856 8.59047L11.4919 8.5653L11.4968 8.53983L10.515 8.34969ZM12.8684 8.17299L11.9261 8.5076L11.9346 8.53176L11.9444 8.55545L12.8684 8.17299ZM16.862 17.8211L15.938 18.2035L17.1054 21.0238L17.8332 18.0595L16.862 17.8211ZM19.3502 7.68633L20.3213 7.92476L20.3272 7.90075L20.3319 7.87647L19.3502 7.68633ZM22.3278 7.54299L23.2912 7.81123L23.3003 7.77836L23.3072 7.74495L22.3278 7.54299ZM18.2838 22.0665L17.3205 21.7983L17.3131 21.8248L17.3072 21.8517L18.2838 22.0665ZM15.8691 22.2278L16.8115 21.8932L16.8029 21.8691L16.7932 21.8455L15.8691 22.2278ZM12.0222 12.9297L12.9462 12.5474L11.7822 9.73409L11.0514 12.6897L12.0222 12.9297ZM9.60676 22.698L8.636 22.4579L8.62987 22.4827L8.62501 22.5078L9.60676 22.698ZM7.50919 23.0761L7.43432 22.0789C7.48745 22.0749 7.63372 22.0749 7.80184 22.1696C7.98368 22.272 8.08412 22.4247 8.12868 22.5408L7.19505 22.8991L6.26143 23.2574C6.35586 23.5034 6.53359 23.7506 6.82014 23.9121C7.09297 24.0658 7.37137 24.0892 7.58406 24.0733L7.50919 23.0761ZM7.19505 22.8991L8.10755 22.49L1.94025 8.73316L1.02775 9.14224L0.115251 9.55132L6.28255 23.3082L7.19505 22.8991ZM1.02775 9.14224L1.88618 8.62931C1.97294 8.77451 1.99267 8.90468 1.99751 8.96915L1.00032 9.04402L0.00312568 9.11889C0.0139556 9.26313 0.0519705 9.45878 0.169319 9.65517L1.02775 9.14224ZM1.00032 9.04402L1.99751 8.96915C2.00513 9.07066 1.99357 9.18157 1.95572 9.2921C1.91827 9.40144 1.8628 9.4881 1.80773 9.5521L1.04967 8.89992L0.291609 8.24773C0.0933873 8.47813 -0.0220226 8.78394 0.00312568 9.11889L1.00032 9.04402ZM1.04967 8.89992L1.70788 9.65275C1.59518 9.75128 1.44883 9.81259 1.29954 9.8238L1.22467 8.82661L1.1498 7.82942C0.867556 7.85061 0.604532 7.96079 0.391453 8.14709L1.04967 8.89992ZM1.22467 8.82661L1.29954 9.8238L3.83241 9.63363L3.75754 8.63644L3.68267 7.63924L1.1498 7.82942L1.22467 8.82661ZM3.75754 8.63644L3.83241 9.63363C3.73606 9.64086 3.56115 9.62709 3.38394 9.50817C3.21045 9.39176 3.13699 9.24302 3.11087 9.16947L4.05323 8.83485L4.99558 8.50024C4.9186 8.28343 4.77042 8.02999 4.49837 7.84744C4.2226 7.66238 3.92528 7.62103 3.68267 7.63924L3.75754 8.63644ZM4.05323 8.83485L3.12809 9.21449L7.08028 18.8456L8.00542 18.466L8.93055 18.0863L4.97836 8.45522L4.05323 8.83485ZM8.00542 18.466L8.976 18.7068L11.4856 8.59047L10.515 8.34969L9.54446 8.10891L7.03484 18.2252L8.00542 18.466ZM10.515 8.34969L11.4968 8.53983C11.482 8.61647 11.4315 8.7745 11.2774 8.91552C11.1199 9.05956 10.949 9.0993 10.8527 9.10654L10.7778 8.10934L10.7029 7.11215C10.4603 7.13037 10.1725 7.21565 9.92745 7.43981C9.68571 7.66094 9.57703 7.93366 9.53328 8.15954L10.515 8.34969ZM10.7778 8.10934L10.8527 9.10654L12.6476 8.97177L12.5727 7.97457L12.4979 6.97738L10.7029 7.11215L10.7778 8.10934ZM12.5727 7.97457L12.6476 8.97177C12.5513 8.979 12.3763 8.96523 12.1991 8.84631C12.0256 8.72989 11.9522 8.58116 11.9261 8.5076L12.8684 8.17299L13.8108 7.83838C13.7338 7.62157 13.5856 7.36813 13.3136 7.18557C13.0378 7.00052 12.7405 6.95917 12.4979 6.97738L12.5727 7.97457ZM12.8684 8.17299L11.9444 8.55545L15.938 18.2035L16.862 17.8211L17.786 17.4386L13.7924 7.79054L12.8684 8.17299ZM16.862 17.8211L17.8332 18.0595L20.3213 7.92476L19.3502 7.68633L18.379 7.4479L15.8908 17.5826L16.862 17.8211ZM19.3502 7.68633L20.3319 7.87647C20.3171 7.95311 20.2667 8.11114 20.1125 8.25216C19.955 8.3962 19.7841 8.43594 19.6878 8.44318L19.6129 7.44598L19.538 6.44879C19.2954 6.46701 19.0076 6.5523 18.7626 6.77645C18.5208 6.99759 18.4122 7.2703 18.3684 7.49619L19.3502 7.68633ZM19.6129 7.44598L19.6878 8.44318L22.1608 8.2575L22.086 7.2603L22.0111 6.26311L19.538 6.44879L19.6129 7.44598ZM22.086 7.2603L22.1608 8.2575C22.1167 8.26081 22.0238 8.262 21.9063 8.22494C21.7796 8.18498 21.6466 8.10694 21.5386 7.98332L22.2914 7.3251L23.0442 6.66689C22.7185 6.2943 22.2843 6.2426 22.0111 6.26311L22.086 7.2603ZM22.2914 7.3251L21.5386 7.98332C21.2949 7.70464 21.335 7.40608 21.3484 7.34103L22.3278 7.54299L23.3072 7.74495C23.3598 7.48976 23.3756 7.04594 23.0442 6.66689L22.2914 7.3251ZM22.3278 7.54299L21.3644 7.27475L17.3205 21.7983L18.2838 22.0665L19.2472 22.3348L23.2912 7.81123L22.3278 7.54299ZM18.2838 22.0665L17.3072 21.8517C17.3339 21.7302 17.4104 21.5642 17.5749 21.4358C17.727 21.317 17.8716 21.2952 17.9248 21.2912L17.9997 22.2884L18.0745 23.2856C18.2872 23.2697 18.559 23.2049 18.8058 23.0122C19.065 22.8097 19.2039 22.5388 19.2605 22.2814L18.2838 22.0665ZM17.9997 22.2884L17.9248 21.2912L16.09 21.429L16.1648 22.4262L16.2397 23.4234L18.0745 23.2856L17.9997 22.2884ZM16.1648 22.4262L16.09 21.429C16.1863 21.4218 16.3612 21.4355 16.5384 21.5545C16.7119 21.6709 16.7854 21.8196 16.8115 21.8932L15.8691 22.2278L14.9268 22.5624C15.0038 22.7792 15.1519 23.0326 15.424 23.2152C15.6998 23.4002 15.9971 23.4416 16.2397 23.4234L16.1648 22.4262ZM15.8691 22.2278L16.7932 21.8455L12.9462 12.5474L12.0222 12.9297L11.0981 13.312L14.9451 22.6101L15.8691 22.2278ZM12.0222 12.9297L11.0514 12.6897L8.636 22.4579L9.60676 22.698L10.5775 22.938L12.9929 13.1697L12.0222 12.9297ZM9.60676 22.698L8.62501 22.5078C8.63985 22.4312 8.69028 22.2732 8.84444 22.1321C9.0019 21.9881 9.1728 21.9484 9.26915 21.9411L9.34402 22.9383L9.41889 23.9355C9.6615 23.9173 9.94932 23.832 10.1944 23.6078C10.4361 23.3867 10.5448 23.114 10.5885 22.8881L9.60676 22.698ZM9.34402 22.9383L9.26915 21.9411L7.43432 22.0789L7.50919 23.0761L7.58406 24.0733L9.41889 23.9355L9.34402 22.9383Z" fill="#372F32" mask="url(#path-1-outside-1_2097_24245)"/>
<mask id="path-3-outside-2_2097_24245" maskUnits="userSpaceOnUse" x="6.74636" y="30.3019" width="14.7343" height="18.565" fill="black">
<rect fill="white" x="6.74636" y="30.3019" width="14.7343" height="18.565"/>
<path d="M13.8916 46.8615C12.5194 46.8045 11.3806 46.4303 10.4752 45.7388C9.57032 45.034 8.95097 44.0408 8.61716 42.7592C8.60494 42.732 8.59967 42.6985 8.60132 42.6585C8.60575 42.5519 8.6754 42.4814 8.81027 42.447L10.9092 42.0336L10.99 42.017C11.1099 42.022 11.187 42.0919 11.2215 42.2268C11.4608 42.8906 11.794 43.3848 12.2209 43.7095C12.6616 44.0214 13.255 44.1928 14.0011 44.2237C14.7471 44.2547 15.3318 44.1522 15.7553 43.9162C16.1921 43.6808 16.4216 43.2966 16.4437 42.7638C16.4647 42.2575 16.282 41.8363 15.8956 41.5C15.5231 41.1509 14.9366 40.8129 14.1362 40.4861L12.8564 39.9726C10.3872 39.0161 9.19413 37.5387 9.27706 35.5404C9.30968 34.7544 9.55214 34.0572 10.0044 33.4487C10.47 32.8409 11.083 32.3792 11.8434 32.0638C12.6044 31.7351 13.4445 31.5898 14.3637 31.6279C15.6159 31.6799 16.6626 32.0236 17.5036 32.659C18.3585 33.2817 18.941 34.2 19.2509 35.4138C19.2631 35.441 19.2684 35.4746 19.2667 35.5146C19.2623 35.6212 19.1927 35.6917 19.0578 35.7261L16.8364 36.1944L16.7557 36.2111C16.6358 36.2061 16.5586 36.1362 16.5242 36.0013C16.3087 35.4052 16.0197 34.9728 15.6572 34.7042C15.2947 34.4356 14.827 34.2894 14.2542 34.2657C13.6148 34.2391 13.0966 34.3444 12.6998 34.5815C12.3029 34.8186 12.0957 35.1503 12.078 35.5766C12.0592 36.0295 12.236 36.4305 12.6085 36.7796C12.9949 37.1159 13.615 37.4486 14.4688 37.7776L15.4938 38.1604C16.8338 38.6698 17.8022 39.2904 18.3991 40.0225C19.0098 40.7418 19.2905 41.6942 19.2413 42.8799C19.2081 43.6792 18.9585 44.3894 18.4923 45.0106C18.0261 45.6319 17.3926 46.106 16.5917 46.4331C15.7908 46.7601 14.8907 46.9029 13.8916 46.8615Z"/>
</mask>
<path d="M13.8916 46.8615C12.5194 46.8045 11.3806 46.4303 10.4752 45.7388C9.57032 45.034 8.95097 44.0408 8.61716 42.7592C8.60494 42.732 8.59967 42.6985 8.60132 42.6585C8.60575 42.5519 8.6754 42.4814 8.81027 42.447L10.9092 42.0336L10.99 42.017C11.1099 42.022 11.187 42.0919 11.2215 42.2268C11.4608 42.8906 11.794 43.3848 12.2209 43.7095C12.6616 44.0214 13.255 44.1928 14.0011 44.2237C14.7471 44.2547 15.3318 44.1522 15.7553 43.9162C16.1921 43.6808 16.4216 43.2966 16.4437 42.7638C16.4647 42.2575 16.282 41.8363 15.8956 41.5C15.5231 41.1509 14.9366 40.8129 14.1362 40.4861L12.8564 39.9726C10.3872 39.0161 9.19413 37.5387 9.27706 35.5404C9.30968 34.7544 9.55214 34.0572 10.0044 33.4487C10.47 32.8409 11.083 32.3792 11.8434 32.0638C12.6044 31.7351 13.4445 31.5898 14.3637 31.6279C15.6159 31.6799 16.6626 32.0236 17.5036 32.659C18.3585 33.2817 18.941 34.2 19.2509 35.4138C19.2631 35.441 19.2684 35.4746 19.2667 35.5146C19.2623 35.6212 19.1927 35.6917 19.0578 35.7261L16.8364 36.1944L16.7557 36.2111C16.6358 36.2061 16.5586 36.1362 16.5242 36.0013C16.3087 35.4052 16.0197 34.9728 15.6572 34.7042C15.2947 34.4356 14.827 34.2894 14.2542 34.2657C13.6148 34.2391 13.0966 34.3444 12.6998 34.5815C12.3029 34.8186 12.0957 35.1503 12.078 35.5766C12.0592 36.0295 12.236 36.4305 12.6085 36.7796C12.9949 37.1159 13.615 37.4486 14.4688 37.7776L15.4938 38.1604C16.8338 38.6698 17.8022 39.2904 18.3991 40.0225C19.0098 40.7418 19.2905 41.6942 19.2413 42.8799C19.2081 43.6792 18.9585 44.3894 18.4923 45.0106C18.0261 45.6319 17.3926 46.106 16.5917 46.4331C15.7908 46.7601 14.8907 46.9029 13.8916 46.8615Z" fill="#E65325"/>
<path d="M10.4752 45.7388L9.8607 46.5278L9.86827 46.5336L10.4752 45.7388ZM8.61716 42.7592L9.58487 42.5072L9.56373 42.426L9.52936 42.3495L8.61716 42.7592ZM8.81027 42.447L8.61707 41.4658L8.58981 41.4712L8.56289 41.4781L8.81027 42.447ZM10.9092 42.0336L11.1024 43.0148L11.1113 43.013L10.9092 42.0336ZM10.99 42.017L11.0314 41.0178L10.9084 41.0127L10.7879 41.0376L10.99 42.017ZM11.2215 42.2268L10.2526 42.4741L10.2645 42.5207L10.2808 42.5659L11.2215 42.2268ZM12.2209 43.7095L11.6155 44.5055L11.6292 44.5159L11.6433 44.5258L12.2209 43.7095ZM15.7553 43.9162L15.2808 43.0358L15.2686 43.0427L15.7553 43.9162ZM15.8956 41.5L15.2119 42.2296L15.2253 42.2422L15.2391 42.2542L15.8956 41.5ZM14.1362 40.4861L14.5142 39.5603L14.5085 39.558L14.1362 40.4861ZM12.8564 39.9726L13.2288 39.0445L13.2176 39.0401L12.8564 39.9726ZM10.0044 33.4487L9.21054 32.8407L9.20616 32.8464L9.20187 32.8522L10.0044 33.4487ZM11.8434 32.0638L12.2266 32.9875L12.2333 32.9847L12.24 32.9818L11.8434 32.0638ZM17.5036 32.659L16.9008 33.4569L16.9078 33.4622L16.9149 33.4674L17.5036 32.659ZM19.2509 35.4138L18.282 35.6612L18.3033 35.7449L18.3387 35.8236L19.2509 35.4138ZM19.0578 35.7261L19.2641 36.7046L19.2847 36.7002L19.3052 36.695L19.0578 35.7261ZM16.8364 36.1944L17.0385 37.1738L17.0427 37.1729L16.8364 36.1944ZM16.7557 36.2111L16.7142 37.2102L16.8372 37.2153L16.9578 37.1904L16.7557 36.2111ZM16.5242 36.0013L17.4931 35.7539L17.4811 35.7069L17.4646 35.6614L16.5242 36.0013ZM15.6572 34.7042L15.0619 35.5077L15.0619 35.5077L15.6572 34.7042ZM12.6998 34.5815L13.2126 35.44L13.2126 35.44L12.6998 34.5815ZM12.6085 36.7796L11.9248 37.5093L11.9382 37.5218L11.952 37.5339L12.6085 36.7796ZM14.4688 37.7776L14.1091 38.7107L14.1189 38.7144L14.4688 37.7776ZM15.4938 38.1604L15.8491 37.2256L15.8437 37.2236L15.4938 38.1604ZM18.3991 40.0225L17.624 40.6544L17.6303 40.6621L17.6368 40.6697L18.3991 40.0225ZM18.4923 45.0106L19.2921 45.6109V45.6109L18.4923 45.0106ZM16.5917 46.4331L16.9697 47.3588V47.3588L16.5917 46.4331ZM13.8916 46.8615L13.9331 45.8623C12.723 45.8121 11.7934 45.4873 11.0821 44.9441L10.4752 45.7388L9.86827 46.5336C10.9679 47.3733 12.3159 47.7969 13.8501 47.8606L13.8916 46.8615ZM10.4752 45.7388L11.0897 44.9499C10.3845 44.4006 9.87217 43.6102 9.58487 42.5072L8.61716 42.7592L7.64945 43.0113C8.02977 44.4715 8.75615 45.6674 9.86073 46.5278L10.4752 45.7388ZM8.61716 42.7592L9.52936 42.3495C9.59867 42.5038 9.60314 42.6354 9.60046 42.7L8.60132 42.6585L7.60218 42.617C7.59619 42.7615 7.61122 42.9603 7.70496 43.169L8.61716 42.7592ZM8.60132 42.6585L9.60046 42.7C9.59322 42.8746 9.5223 43.0726 9.36829 43.2285C9.23392 43.3645 9.09839 43.4055 9.05766 43.4159L8.81027 42.447L8.56289 41.4781C8.38729 41.5229 8.14948 41.6164 7.94547 41.8229C7.72181 42.0493 7.61385 42.3358 7.60218 42.617L8.60132 42.6585ZM8.81027 42.447L9.00348 43.4281L11.1024 43.0148L10.9092 42.0336L10.716 41.0525L8.61707 41.4658L8.81027 42.447ZM10.9092 42.0336L11.1113 43.013L11.1921 42.9963L10.99 42.017L10.7879 41.0376L10.7071 41.0543L10.9092 42.0336ZM10.99 42.017L10.9485 43.0161C10.8123 43.0105 10.627 42.9598 10.4663 42.8142C10.318 42.6798 10.2679 42.5342 10.2526 42.4741L11.2215 42.2268L12.1904 41.9794C12.1406 41.7844 12.0348 41.5365 11.8093 41.3321C11.5714 41.1166 11.2876 41.0285 11.0314 41.0178L10.99 42.017ZM11.2215 42.2268L10.2808 42.5659C10.5652 43.355 10.9936 44.0325 11.6155 44.5055L12.2209 43.7095L12.8262 42.9135C12.5943 42.7372 12.3564 42.4262 12.1622 41.8876L11.2215 42.2268ZM12.2209 43.7095L11.6433 44.5258C12.2909 44.984 13.0921 45.1869 13.9596 45.2229L14.0011 44.2237L14.0425 43.2246C13.418 43.1987 13.0324 43.0587 12.7985 42.8932L12.2209 43.7095ZM14.0011 44.2237L13.9596 45.2229C14.7982 45.2577 15.5927 45.1516 16.2421 44.7898L15.7553 43.9162L15.2686 43.0427C15.071 43.1528 14.6959 43.2517 14.0425 43.2246L14.0011 44.2237ZM15.7553 43.9162L16.2298 44.7965C17.0044 44.379 17.4074 43.6587 17.4428 42.8052L16.4437 42.7638L15.4446 42.7223C15.4391 42.8542 15.4109 42.9147 15.3965 42.9387C15.3841 42.9594 15.3582 42.9942 15.2809 43.0359L15.7553 43.9162ZM16.4437 42.7638L17.4428 42.8052C17.4766 41.9916 17.1648 41.2789 16.5522 40.7457L15.8956 41.5L15.2391 42.2542C15.3993 42.3937 15.4528 42.5235 15.4446 42.7223L16.4437 42.7638ZM15.8956 41.5L16.5794 40.7703C16.0768 40.2993 15.3604 39.9058 14.5141 39.5603L14.1362 40.4861L13.7582 41.4119C14.5129 41.7201 14.9694 42.0024 15.2119 42.2296L15.8956 41.5ZM14.1362 40.4861L14.5085 39.558L13.2287 39.0445L12.8564 39.9726L12.484 40.9007L13.7638 41.4142L14.1362 40.4861ZM12.8564 39.9726L13.2176 39.0401C12.085 38.6014 11.3394 38.0782 10.8877 37.5189C10.4524 36.9798 10.2442 36.3524 10.2762 35.5818L9.27706 35.5404L8.27792 35.4989C8.22697 36.7267 8.57391 37.8371 9.3317 38.7754C10.0731 39.6935 11.1586 40.3873 12.4951 40.9051L12.8564 39.9726ZM9.27706 35.5404L10.2762 35.5818C10.3008 34.9884 10.4791 34.4863 10.807 34.0453L10.0044 33.4487L9.20187 32.8522C8.62513 33.628 8.31854 34.5204 8.27792 35.4989L9.27706 35.5404ZM10.0044 33.4487L10.7983 34.0568C11.1491 33.5988 11.6158 33.2408 12.2266 32.9875L11.8434 32.0638L11.4603 31.1401C10.5502 31.5176 9.79096 32.0829 9.21054 32.8407L10.0044 33.4487ZM11.8434 32.0638L12.24 32.9818C12.8484 32.719 13.5366 32.5945 14.3222 32.6271L14.3637 31.6279L14.4051 30.6288C13.3524 30.5851 12.3604 30.7512 11.4469 31.1458L11.8434 32.0638ZM14.3637 31.6279L14.3222 32.6271C15.4105 32.6722 16.2508 32.9658 16.9008 33.4569L17.5036 32.659L18.1064 31.8611C17.0743 31.0814 15.8214 30.6876 14.4051 30.6288L14.3637 31.6279ZM17.5036 32.659L16.9149 33.4674C17.5483 33.9287 18.0185 34.6293 18.282 35.6612L19.2509 35.4138L20.2198 35.1665C19.8634 33.7706 19.1688 32.6347 18.0923 31.8507L17.5036 32.659ZM19.2509 35.4138L18.3387 35.8236C18.2694 35.6693 18.2649 35.5377 18.2676 35.4731L19.2667 35.5146L20.2659 35.5561C20.2719 35.4115 20.2568 35.2128 20.1631 35.0041L19.2509 35.4138ZM19.2667 35.5146L18.2676 35.4731C18.2748 35.2985 18.3458 35.1005 18.4998 34.9446C18.6341 34.8086 18.7697 34.7676 18.8104 34.7572L19.0578 35.7261L19.3052 36.695C19.4808 36.6502 19.7186 36.5567 19.9226 36.3502C20.1462 36.1238 20.2542 35.8372 20.2659 35.5561L19.2667 35.5146ZM19.0578 35.7261L18.8515 34.7476L16.6302 35.2159L16.8364 36.1944L17.0427 37.1729L19.2641 36.7046L19.0578 35.7261ZM16.8364 36.1944L16.6344 35.215L16.5536 35.2317L16.7557 36.2111L16.9578 37.1904L17.0385 37.1738L16.8364 36.1944ZM16.7557 36.2111L16.7972 35.2119C16.9334 35.2176 17.1186 35.2682 17.2794 35.4139C17.4277 35.5483 17.4778 35.6938 17.4931 35.7539L16.5242 36.0013L15.5553 36.2487C15.605 36.4436 15.7109 36.6916 15.9364 36.8959C16.1743 37.1115 16.4581 37.1996 16.7142 37.2102L16.7557 36.2111ZM16.5242 36.0013L17.4646 35.6614C17.2083 34.9522 16.8252 34.3251 16.2526 33.9007L15.6572 34.7042L15.0619 35.5077C15.2142 35.6206 15.4091 35.8581 15.5837 36.3412L16.5242 36.0013ZM15.6572 34.7042L16.2526 33.9007C15.6906 33.4844 15.0145 33.2964 14.2957 33.2665L14.2542 34.2657L14.2127 35.2648C14.6396 35.2825 14.8988 35.3869 15.0619 35.5077L15.6572 34.7042ZM14.2542 34.2657L14.2957 33.2665C13.5339 33.2349 12.8037 33.3545 12.1869 33.723L12.6998 34.5815L13.2126 35.44C13.3896 35.3343 13.6956 35.2433 14.2127 35.2648L14.2542 34.2657ZM12.6998 34.5815L12.1869 33.723C11.5293 34.1159 11.1118 34.7398 11.0788 35.5351L12.078 35.5766L13.0771 35.618C13.0794 35.5619 13.0912 35.5437 13.0947 35.538C13.1003 35.5291 13.1257 35.4919 13.2126 35.44L12.6998 34.5815ZM12.078 35.5766L11.0788 35.5351C11.0464 36.3174 11.3699 36.9893 11.9248 37.5093L12.6085 36.7796L13.2923 36.0499C13.1022 35.8717 13.072 35.7416 13.0771 35.618L12.078 35.5766ZM12.6085 36.7796L11.952 37.5339C12.4697 37.9845 13.2183 38.3674 14.1092 38.7107L14.4688 37.7776L14.8284 36.8445C14.0118 36.5298 13.5202 36.2473 13.2651 36.0253L12.6085 36.7796ZM14.4688 37.7776L14.1189 38.7144L15.1439 39.0972L15.4938 38.1604L15.8437 37.2236L14.8186 36.8408L14.4688 37.7776ZM15.4938 38.1604L15.1385 39.0952C16.3927 39.5719 17.1811 40.1112 17.624 40.6544L18.3991 40.0225L19.1741 39.3906C18.4233 38.4697 17.2749 37.7676 15.8491 37.2257L15.4938 38.1604ZM18.3991 40.0225L17.6368 40.6697C18.0458 41.1515 18.2837 41.8365 18.2422 42.8384L19.2413 42.8799L20.2404 42.9213C20.2973 41.5519 19.9737 40.332 19.1614 39.3753L18.3991 40.0225ZM19.2413 42.8799L18.2422 42.8384C18.2171 43.4421 18.0334 43.9561 17.6925 44.4104L18.4923 45.0106L19.2921 45.6109C19.8835 44.8228 20.1991 43.9163 20.2404 42.9213L19.2413 42.8799ZM18.4923 45.0106L17.6925 44.4104C17.3469 44.8709 16.8667 45.2406 16.2136 45.5073L16.5917 46.4331L16.9697 47.3588C17.9185 46.9714 18.7054 46.3928 19.2921 45.6109L18.4923 45.0106ZM16.5917 46.4331L16.2136 45.5073C15.5648 45.7722 14.811 45.8988 13.9331 45.8623L13.8916 46.8615L13.8501 47.8606C14.9705 47.9071 16.0167 47.748 16.9697 47.3588L16.5917 46.4331Z" fill="#372F32" mask="url(#path-3-outside-2_2097_24245)"/>
<mask id="path-5-outside-3_2097_24245" maskUnits="userSpaceOnUse" x="21.8939" y="30.4652" width="15.4118" height="17.3622" fill="black">
<rect fill="white" x="21.8939" y="30.4652" width="15.4118" height="17.3622"/>
<path d="M24.1451 46.7821C23.9718 46.7864 23.8831 46.7019 23.8788 46.5286L23.5321 32.3728C23.5279 32.1996 23.6124 32.1108 23.7857 32.1065L25.965 32.0532C26.1383 32.0489 26.2271 32.1334 26.2313 32.3067L26.3689 37.925L33.1669 37.7585L33.0293 32.1402C33.025 31.9669 33.1095 31.8782 33.2828 31.8739L35.4622 31.8206C35.6355 31.8163 35.7242 31.9008 35.7285 32.0741L36.0752 46.2299C36.0794 46.4031 35.9949 46.4919 35.8216 46.4962L33.6423 46.5495C33.469 46.5538 33.3802 46.4693 33.376 46.296L33.2291 40.2978L26.4311 40.4643L26.578 46.4625C26.5823 46.6358 26.4977 46.7245 26.3245 46.7288L24.1451 46.7821Z"/>
</mask>
<path d="M24.1451 46.7821C23.9718 46.7864 23.8831 46.7019 23.8788 46.5286L23.5321 32.3728C23.5279 32.1996 23.6124 32.1108 23.7857 32.1065L25.965 32.0532C26.1383 32.0489 26.2271 32.1334 26.2313 32.3067L26.3689 37.925L33.1669 37.7585L33.0293 32.1402C33.025 31.9669 33.1095 31.8782 33.2828 31.8739L35.4622 31.8206C35.6355 31.8163 35.7242 31.9008 35.7285 32.0741L36.0752 46.2299C36.0794 46.4031 35.9949 46.4919 35.8216 46.4962L33.6423 46.5495C33.469 46.5538 33.3802 46.4693 33.376 46.296L33.2291 40.2978L26.4311 40.4643L26.578 46.4625C26.5823 46.6358 26.4977 46.7245 26.3245 46.7288L24.1451 46.7821Z" fill="#E65325"/>
<path d="M26.3689 37.925L25.3692 37.9495L25.3937 38.9492L26.3934 38.9247L26.3689 37.925ZM33.1669 37.7585L33.1914 38.7582L34.1911 38.7338L34.1666 37.7341L33.1669 37.7585ZM33.2291 40.2978L34.2288 40.2733L34.2043 39.2736L33.2046 39.2981L33.2291 40.2978ZM26.4311 40.4643L26.4066 39.4646L25.4069 39.4891L25.4314 40.4888L26.4311 40.4643ZM24.1451 46.7821L24.1206 45.7824C24.1881 45.7808 24.4227 45.7926 24.6382 45.9977C24.8536 46.2029 24.8769 46.4366 24.8785 46.5041L23.8788 46.5286L22.8791 46.5531C22.885 46.7938 22.9548 47.1565 23.259 47.4461C23.5632 47.7358 23.9289 47.7877 24.1696 47.7818L24.1451 46.7821ZM23.8788 46.5286L24.8785 46.5041L24.5318 32.3483L23.5321 32.3728L22.5324 32.3973L22.8791 46.5531L23.8788 46.5286ZM23.5321 32.3728L24.5318 32.3483C24.5335 32.4158 24.5217 32.6504 24.3165 32.8659C24.1114 33.0813 23.8776 33.1046 23.8102 33.1062L23.7857 32.1065L23.7612 31.1068C23.5204 31.1127 23.1578 31.1825 22.8681 31.4867C22.5785 31.7909 22.5265 32.1566 22.5324 32.3973L23.5321 32.3728ZM23.7857 32.1065L23.8102 33.1062L25.9895 33.0529L25.965 32.0532L25.9405 31.0535L23.7612 31.1068L23.7857 32.1065ZM25.965 32.0532L25.9895 33.0529C25.922 33.0545 25.6874 33.0427 25.472 32.8376C25.2565 32.6324 25.2333 32.3987 25.2316 32.3312L26.2313 32.3067L27.231 32.2822C27.2251 32.0415 27.1553 31.6788 26.8511 31.3892C26.5469 31.0995 26.1813 31.0476 25.9405 31.0535L25.965 32.0532ZM26.2313 32.3067L25.2316 32.3312L25.3692 37.9495L26.3689 37.925L27.3686 37.9006L27.231 32.2822L26.2313 32.3067ZM26.3689 37.925L26.3934 38.9247L33.1914 38.7582L33.1669 37.7585L33.1424 36.7588L26.3444 36.9253L26.3689 37.925ZM33.1669 37.7585L34.1666 37.7341L34.029 32.1157L33.0293 32.1402L32.0296 32.1647L32.1672 37.783L33.1669 37.7585ZM33.0293 32.1402L34.029 32.1157C34.0306 32.1832 34.0188 32.4178 33.8137 32.6333C33.6086 32.8487 33.3748 32.872 33.3073 32.8736L33.2828 31.8739L33.2583 30.8742C33.0176 30.8801 32.6549 30.9499 32.3653 31.2541C32.0756 31.5583 32.0237 31.924 32.0296 32.1647L33.0293 32.1402ZM33.2828 31.8739L33.3073 32.8736L35.4867 32.8203L35.4622 31.8206L35.4377 30.8209L33.2583 30.8742L33.2828 31.8739ZM35.4622 31.8206L35.4867 32.8203C35.4192 32.8219 35.1846 32.8101 34.9691 32.605C34.7537 32.3998 34.7304 32.1661 34.7288 32.0986L35.7285 32.0741L36.7282 32.0496C36.7223 31.8089 36.6525 31.4462 36.3483 31.1566C36.0441 30.8669 35.6784 30.815 35.4377 30.8209L35.4622 31.8206ZM35.7285 32.0741L34.7288 32.0986L35.0755 46.2544L36.0752 46.2299L37.0749 46.2054L36.7282 32.0496L35.7285 32.0741ZM36.0752 46.2299L35.0755 46.2544C35.0738 46.1869 35.0856 45.9523 35.2908 45.7368C35.4959 45.5214 35.7297 45.4981 35.7971 45.4965L35.8216 46.4962L35.8461 47.4959C36.0868 47.49 36.4495 47.4202 36.7392 47.116C37.0288 46.8118 37.0808 46.4461 37.0749 46.2054L36.0752 46.2299ZM35.8216 46.4962L35.7971 45.4965L33.6178 45.5498L33.6423 46.5495L33.6668 47.5492L35.8461 47.4959L35.8216 46.4962ZM33.6423 46.5495L33.6178 45.5498C33.6852 45.5482 33.9199 45.56 34.1353 45.7651C34.3508 45.9703 34.374 46.204 34.3757 46.2715L33.376 46.296L32.3763 46.3205C32.3822 46.5612 32.452 46.9239 32.7562 47.2135C33.0604 47.5032 33.426 47.5551 33.6668 47.5492L33.6423 46.5495ZM33.376 46.296L34.3757 46.2715L34.2288 40.2733L33.2291 40.2978L32.2294 40.3223L32.3763 46.3205L33.376 46.296ZM33.2291 40.2978L33.2046 39.2981L26.4066 39.4646L26.4311 40.4643L26.4556 41.464L33.2536 41.2975L33.2291 40.2978ZM26.4311 40.4643L25.4314 40.4888L25.5783 46.487L26.578 46.4625L27.5777 46.438L27.4308 40.4398L26.4311 40.4643ZM26.578 46.4625L25.5783 46.487C25.5767 46.4195 25.5885 46.1849 25.7936 45.9694C25.9987 45.754 26.2325 45.7307 26.3 45.7291L26.3245 46.7288L26.349 47.7285C26.5897 47.7226 26.9524 47.6528 27.242 47.3486C27.5317 47.0444 27.5836 46.6787 27.5777 46.438L26.578 46.4625ZM26.3245 46.7288L26.3 45.7291L24.1206 45.7824L24.1451 46.7821L24.1696 47.7818L26.349 47.7285L26.3245 46.7288Z" fill="#372F32" mask="url(#path-5-outside-3_2097_24245)"/>
<mask id="path-7-outside-4_2097_24245" maskUnits="userSpaceOnUse" x="37.5626" y="30.3428" width="17.0845" height="18.0798" fill="black">
<rect fill="white" x="37.5626" y="30.3428" width="17.0845" height="18.0798"/>
<path d="M46.1591 46.6625C44.7458 46.6692 43.471 46.3618 42.3347 45.7405C41.2117 45.1058 40.3276 44.2166 39.6822 43.073C39.05 41.9159 38.7304 40.5841 38.7233 39.0774C38.7163 37.5708 39.0233 36.2427 39.6446 35.093C40.2791 33.93 41.1549 33.0326 42.272 32.4007C43.4023 31.7553 44.6741 31.4293 46.0874 31.4227C47.5007 31.416 48.7689 31.7301 49.8919 32.3648C51.0281 32.9861 51.9123 33.8753 52.5445 35.0323C53.1899 36.176 53.5161 37.5011 53.5232 39.0078C53.5303 40.5144 53.2166 41.8492 52.582 43.0122C51.9608 44.1618 51.085 45.0593 49.9547 45.7046C48.8376 46.3366 47.5724 46.6559 46.1591 46.6625ZM46.1467 44.0225C47.0667 44.0182 47.8723 43.8011 48.5637 43.3712C49.2683 42.9412 49.8056 42.352 50.1754 41.6036C50.5451 40.8418 50.7277 39.9809 50.7232 39.0209C50.7187 38.061 50.528 37.2085 50.1512 36.4636C49.7743 35.7054 49.2315 35.1146 48.5228 34.6913C47.8275 34.2679 47.0198 34.0583 46.0998 34.0627C45.1798 34.067 44.3675 34.2841 43.6629 34.7141C42.9715 35.1441 42.441 35.7399 42.0713 36.5016C41.7014 37.2501 41.5188 38.1043 41.5233 39.0642C41.5278 40.0242 41.7185 40.8834 42.0955 41.6416C42.4723 42.3865 43.0084 42.9706 43.7037 43.394C44.4124 43.8174 45.2267 44.0269 46.1467 44.0225Z"/>
</mask>
<path d="M46.1591 46.6625C44.7458 46.6692 43.471 46.3618 42.3347 45.7405C41.2117 45.1058 40.3276 44.2166 39.6822 43.073C39.05 41.9159 38.7304 40.5841 38.7233 39.0774C38.7163 37.5708 39.0233 36.2427 39.6446 35.093C40.2791 33.93 41.1549 33.0326 42.272 32.4007C43.4023 31.7553 44.6741 31.4293 46.0874 31.4227C47.5007 31.416 48.7689 31.7301 49.8919 32.3648C51.0281 32.9861 51.9123 33.8753 52.5445 35.0323C53.1899 36.176 53.5161 37.5011 53.5232 39.0078C53.5303 40.5144 53.2166 41.8492 52.582 43.0122C51.9608 44.1618 51.085 45.0593 49.9547 45.7046C48.8376 46.3366 47.5724 46.6559 46.1591 46.6625ZM46.1467 44.0225C47.0667 44.0182 47.8723 43.8011 48.5637 43.3712C49.2683 42.9412 49.8056 42.352 50.1754 41.6036C50.5451 40.8418 50.7277 39.9809 50.7232 39.0209C50.7187 38.061 50.528 37.2085 50.1512 36.4636C49.7743 35.7054 49.2315 35.1146 48.5228 34.6913C47.8275 34.2679 47.0198 34.0583 46.0998 34.0627C45.1798 34.067 44.3675 34.2841 43.6629 34.7141C42.9715 35.1441 42.441 35.7399 42.0713 36.5016C41.7014 37.2501 41.5188 38.1043 41.5233 39.0642C41.5278 40.0242 41.7185 40.8834 42.0955 41.6416C42.4723 42.3865 43.0084 42.9706 43.7037 43.394C44.4124 43.8174 45.2267 44.0269 46.1467 44.0225Z" fill="#E65325"/>
<path d="M42.3347 45.7405L41.8427 46.6112L41.855 46.6179L42.3347 45.7405ZM39.6822 43.073L38.8045 43.5524L38.8113 43.5644L39.6822 43.073ZM39.6446 35.093L38.7668 34.6141L38.7648 34.6176L39.6446 35.093ZM42.272 32.4007L42.7644 33.271L42.7678 33.2691L42.272 32.4007ZM49.8919 32.3648L49.3998 33.2354L49.4121 33.2422L49.8919 32.3648ZM52.5445 35.0323L51.6668 35.5118L51.6736 35.5238L52.5445 35.0323ZM52.582 43.0122L51.7042 42.5333L51.7023 42.5368L52.582 43.0122ZM49.9547 45.7046L50.4471 46.575L50.4505 46.5731L49.9547 45.7046ZM48.5637 43.3712L48.0428 42.5175L48.0356 42.522L48.5637 43.3712ZM50.1754 41.6036L51.0719 42.0466L51.075 42.0402L50.1754 41.6036ZM50.1512 36.4636L49.2557 36.9087L49.2589 36.915L50.1512 36.4636ZM48.5228 34.6913L48.0027 35.5454L48.01 35.5497L48.5228 34.6913ZM43.6629 34.7141L43.142 33.8605L43.1348 33.8649L43.6629 34.7141ZM42.0713 36.5016L42.9678 36.9447L42.9709 36.9383L42.0713 36.5016ZM42.0955 41.6416L41.2 42.0867L41.2031 42.093L42.0955 41.6416ZM43.7037 43.394L43.1836 44.2482L43.1909 44.2525L43.7037 43.394ZM46.1591 46.6625L46.1544 45.6625C44.8945 45.6685 43.789 45.3959 42.8145 44.8631L42.3347 45.7405L41.855 46.6179C43.1531 47.3277 44.5971 47.6699 46.1638 47.6625L46.1591 46.6625ZM42.3347 45.7405L42.8268 44.8699C41.8652 44.3264 41.1107 43.5697 40.5531 42.5815L39.6822 43.073L38.8113 43.5644C39.5444 44.8636 40.5583 45.8851 41.8427 46.6111L42.3347 45.7405ZM39.6822 43.073L40.5597 42.5935C40.0179 41.6018 39.7298 40.4374 39.7233 39.0727L38.7233 39.0774L37.7234 39.0821C37.7311 40.7308 38.0822 42.2301 38.8046 43.5524L39.6822 43.073ZM38.7233 39.0774L39.7233 39.0727C39.7169 37.7078 39.9942 36.5494 40.5244 35.5685L39.6446 35.093L38.7648 34.6176C38.0525 35.9359 37.7156 37.4338 37.7234 39.0821L38.7233 39.0774ZM39.6446 35.093L40.5224 35.572C41.0706 34.5673 41.8153 33.808 42.7643 33.271L42.272 32.4007L41.7796 31.5303C40.4946 32.2572 39.4877 33.2928 38.7668 34.6141L39.6446 35.093ZM42.272 32.4007L42.7678 33.2691C43.7358 32.7164 44.8359 32.4286 46.0921 32.4227L46.0874 31.4227L46.0827 30.4227C44.5123 30.4301 43.0688 30.7942 41.7761 31.5322L42.272 32.4007ZM46.0874 31.4227L46.0921 32.4227C47.3485 32.4168 48.4426 32.6943 49.3998 33.2354L49.8919 32.3648L50.3839 31.4942C49.0952 30.7658 47.6529 30.4153 46.0827 30.4227L46.0874 31.4227ZM49.8919 32.3648L49.4121 33.2422C50.3772 33.7699 51.1248 34.5195 51.6669 35.5118L52.5445 35.0323L53.422 34.5529C52.6999 33.2311 51.6791 32.2023 50.3716 31.4874L49.8919 32.3648ZM52.5445 35.0323L51.6736 35.5238C52.2234 36.4982 52.5168 37.651 52.5232 39.0125L53.5232 39.0078L54.5232 39.0031C54.5154 37.3512 54.1563 35.8538 53.4154 34.5409L52.5445 35.0323ZM53.5232 39.0078L52.5232 39.0125C52.5296 40.3737 52.2472 41.5379 51.7042 42.5333L52.582 43.0122L53.4599 43.4912C54.1859 42.1605 54.531 40.6552 54.5232 39.0031L53.5232 39.0078ZM52.582 43.0122L51.7023 42.5368C51.1694 43.5228 50.4263 44.2839 49.4589 44.8362L49.9547 45.7046L50.4505 46.5731C51.7436 45.8348 52.7521 44.8009 53.4618 43.4877L52.582 43.0122ZM49.9547 45.7046L49.4623 44.8343C48.5087 45.3737 47.4145 45.6566 46.1544 45.6625L46.1591 46.6625L46.1638 47.6625C47.7304 47.6551 49.1665 47.2994 50.4471 46.575L49.9547 45.7046ZM46.1467 44.0225L46.1514 45.0225C47.2318 45.0174 48.2236 44.7603 49.0918 44.2203L48.5637 43.3712L48.0356 42.522C47.5211 42.8419 46.9016 43.019 46.142 43.0226L46.1467 44.0225ZM48.5637 43.3712L49.0846 44.2248C49.9527 43.695 50.6192 42.9626 51.0719 42.0466L50.1754 41.6036L49.2788 41.1606C48.9919 41.7413 48.584 42.1873 48.0428 42.5175L48.5637 43.3712ZM50.1754 41.6036L51.075 42.0402C51.5199 41.1236 51.7283 40.1085 51.7232 39.0162L50.7232 39.0209L49.7232 39.0257C49.7271 39.8533 49.5703 40.56 49.2757 41.1669L50.1754 41.6036ZM50.7232 39.0209L51.7232 39.0162C51.7181 37.9244 51.5002 36.915 51.0435 36.0122L50.1512 36.4636L49.2589 36.915C49.5558 37.502 49.7193 38.1976 49.7232 39.0257L50.7232 39.0209ZM50.1512 36.4636L51.0466 36.0185C50.5868 35.0933 49.9133 34.357 49.0356 33.8328L48.5228 34.6913L48.01 35.5497C48.5497 35.8722 48.9618 36.3174 49.2557 36.9087L50.1512 36.4636ZM48.5228 34.6913L49.0429 33.8371C48.1697 33.3054 47.1755 33.0576 46.0951 33.0627L46.0998 34.0627L46.1045 35.0626C46.8641 35.0591 47.4853 35.2303 48.0027 35.5454L48.5228 34.6913ZM46.0998 34.0627L46.0951 33.0627C45.0144 33.0677 44.0195 33.325 43.142 33.8605L43.6629 34.7141L44.1838 35.5678C44.7156 35.2432 45.3453 35.0662 46.1045 35.0626L46.0998 34.0627ZM43.6629 34.7141L43.1348 33.8649C42.2765 34.3987 41.6203 35.1406 41.1716 36.065L42.0713 36.5016L42.9709 36.9383C43.2617 36.3392 43.6666 35.8894 44.191 35.5633L43.6629 34.7141ZM42.0713 36.5016L41.1747 36.0586C40.7265 36.9658 40.5182 37.9771 40.5233 39.069L41.5233 39.0642L42.5233 39.0595C42.5194 38.2315 42.6764 37.5344 42.9678 36.9446L42.0713 36.5016ZM41.5233 39.0642L40.5233 39.069C40.5285 40.1613 40.7464 41.1743 41.2 42.0867L42.0955 41.6416L42.9909 41.1965C42.6907 40.5924 42.5272 39.8872 42.5233 39.0595L41.5233 39.0642ZM42.0955 41.6416L41.2031 42.093C41.6619 42.9997 42.3249 43.7253 43.1836 44.2482L43.7037 43.394L44.2238 42.5399C43.6919 42.216 43.2827 41.7732 42.9878 41.1902L42.0955 41.6416ZM43.7037 43.394L43.1909 44.2525C44.0734 44.7797 45.0707 45.0276 46.1514 45.0225L46.1467 44.0225L46.142 43.0226C45.3828 43.0261 44.7514 42.855 44.2166 42.5355L43.7037 43.394Z" fill="#372F32" mask="url(#path-7-outside-4_2097_24245)"/>
<mask id="path-9-outside-5_2097_24245" maskUnits="userSpaceOnUse" x="53.6049" y="30.2967" width="14.4925" height="17.4032" fill="black">
<rect fill="white" x="53.6049" y="30.2967" width="14.4925" height="17.4032"/>
<path d="M55.4934 46.3443C55.3202 46.3393 55.2361 46.2501 55.2412 46.0768L55.6564 31.9229C55.6615 31.7497 55.7506 31.6656 55.9239 31.6707L60.362 31.8008C62.2678 31.8568 63.7008 32.3456 64.6608 33.2675C65.6213 34.1761 66.0774 35.45 66.0293 37.0893C65.9812 38.7286 65.451 39.9803 64.4385 40.8443C63.4265 41.695 61.9676 42.0924 60.0617 42.0364L58.0626 41.9778L57.94 46.156C57.9349 46.3293 57.8457 46.4133 57.6725 46.4083L55.4934 46.3443ZM58.2895 34.2411L58.1359 39.4789L60.0351 39.5346C62.1142 39.5956 63.1799 38.7331 63.2323 36.9472C63.2573 36.0943 63.0095 35.4467 62.4889 35.0046C61.9684 34.5625 61.2016 34.3266 60.1887 34.2968L58.2895 34.2411Z"/>
</mask>
<path d="M55.4934 46.3443C55.3202 46.3393 55.2361 46.2501 55.2412 46.0768L55.6564 31.9229C55.6615 31.7497 55.7506 31.6656 55.9239 31.6707L60.362 31.8008C62.2678 31.8568 63.7008 32.3456 64.6608 33.2675C65.6213 34.1761 66.0774 35.45 66.0293 37.0893C65.9812 38.7286 65.451 39.9803 64.4385 40.8443C63.4265 41.695 61.9676 42.0924 60.0617 42.0364L58.0626 41.9778L57.94 46.156C57.9349 46.3293 57.8457 46.4133 57.6725 46.4083L55.4934 46.3443ZM58.2895 34.2411L58.1359 39.4789L60.0351 39.5346C62.1142 39.5956 63.1799 38.7331 63.2323 36.9472C63.2573 36.0943 63.0095 35.4467 62.4889 35.0046C61.9684 34.5625 61.2016 34.3266 60.1887 34.2968L58.2895 34.2411Z" fill="#E65325"/>
<path d="M64.6608 33.2675L63.9682 33.9888L63.9736 33.994L64.6608 33.2675ZM64.4385 40.8443L65.082 41.6098L65.0877 41.6049L64.4385 40.8443ZM58.0626 41.9778L58.0919 40.9782L57.0923 40.9489L57.063 41.9485L58.0626 41.9778ZM58.2895 34.2411L58.3188 33.2416L57.3193 33.2122L57.29 34.2118L58.2895 34.2411ZM58.1359 39.4789L57.1363 39.4495L57.107 40.4491L58.1065 40.4784L58.1359 39.4789ZM62.4889 35.0046L63.1363 34.2424L63.1363 34.2424L62.4889 35.0046ZM55.4934 46.3443L55.5227 45.3448C55.5902 45.3467 55.8239 45.3712 56.0279 45.5876C56.232 45.804 56.2427 46.0387 56.2407 46.1062L55.2412 46.0768L54.2416 46.0475C54.2345 46.2882 54.2847 46.6541 54.5729 46.9597C54.861 47.2653 55.2234 47.3368 55.4641 47.3439L55.4934 46.3443ZM55.2412 46.0768L56.2407 46.1062L56.6559 31.9522L55.6564 31.9229L54.6568 31.8936L54.2416 46.0475L55.2412 46.0768ZM55.6564 31.9229L56.6559 31.9522C56.654 32.0197 56.6296 32.2534 56.4131 32.4574C56.1967 32.6615 55.962 32.6722 55.8946 32.6702L55.9239 31.6707L55.9532 30.6711C55.7125 30.664 55.3466 30.7142 55.041 31.0024C54.7354 31.2905 54.6639 31.6529 54.6568 31.8936L55.6564 31.9229ZM55.9239 31.6707L55.8946 32.6702L60.3326 32.8004L60.362 31.8008L60.3913 30.8013L55.9532 30.6711L55.9239 31.6707ZM60.362 31.8008L60.3326 32.8004C62.0969 32.8522 63.2513 33.3004 63.9682 33.9888L64.6608 33.2675L65.3534 32.5462C64.1502 31.3909 62.4388 30.8613 60.3913 30.8013L60.362 31.8008ZM64.6608 33.2675L63.9736 33.994C64.6787 34.661 65.0717 35.6317 65.0298 37.06L66.0293 37.0893L67.0289 37.1186C67.0832 35.2683 66.5638 33.6912 65.348 32.5411L64.6608 33.2675ZM66.0293 37.0893L65.0298 37.06C64.9879 38.4876 64.5385 39.4443 63.7894 40.0836L64.4385 40.8443L65.0877 41.6049C66.3635 40.5162 66.9746 38.9696 67.0289 37.1186L66.0293 37.0893ZM64.4385 40.8443L63.7951 40.0788C63.0394 40.714 61.8586 41.0887 60.091 41.0369L60.0617 42.0364L60.0324 43.036C62.0765 43.096 63.8136 42.6759 65.082 41.6098L64.4385 40.8443ZM60.0617 42.0364L60.091 41.0369L58.0919 40.9782L58.0626 41.9778L58.0332 42.9774L60.0324 43.036L60.0617 42.0364ZM58.0626 41.9778L57.063 41.9485L56.9404 46.1267L57.94 46.156L58.9396 46.1853L59.0621 42.0071L58.0626 41.9778ZM57.94 46.156L56.9404 46.1267C56.9424 46.0592 56.9668 45.8256 57.1832 45.6215C57.3997 45.4174 57.6344 45.4067 57.7018 45.4087L57.6725 46.4083L57.6432 47.4078C57.8839 47.4149 58.2498 47.3647 58.5554 47.0765C58.861 46.7884 58.9325 46.426 58.9396 46.1853L57.94 46.156ZM57.6725 46.4083L57.7018 45.4087L55.5227 45.3448L55.4934 46.3443L55.4641 47.3439L57.6432 47.4078L57.6725 46.4083ZM58.2895 34.2411L57.29 34.2118L57.1363 39.4495L58.1359 39.4789L59.1354 39.5082L59.2891 34.2704L58.2895 34.2411ZM58.1359 39.4789L58.1065 40.4784L60.0057 40.5342L60.0351 39.5346L60.0644 38.535L58.1652 38.4793L58.1359 39.4789ZM60.0351 39.5346L60.0057 40.5342C61.1653 40.5682 62.2288 40.3534 63.0228 39.7108C63.8466 39.0442 64.1999 38.0666 64.2319 36.9765L63.2323 36.9472L62.2327 36.9179C62.2123 37.6137 62.0066 37.9604 61.7646 38.1561C61.4929 38.376 60.9839 38.562 60.0644 38.535L60.0351 39.5346ZM63.2323 36.9472L64.2319 36.9765C64.2634 35.903 63.9451 34.9293 63.1363 34.2424L62.4889 35.0046L61.8416 35.7668C62.074 35.9641 62.2513 36.2855 62.2327 36.9179L63.2323 36.9472ZM62.4889 35.0046L63.1363 34.2424C62.3763 33.597 61.3523 33.3305 60.218 33.2973L60.1887 34.2968L60.1594 35.2964C61.0509 35.3226 61.5604 35.5279 61.8416 35.7668L62.4889 35.0046ZM60.1887 34.2968L60.218 33.2973L58.3188 33.2416L58.2895 34.2411L58.2602 35.2407L60.1594 35.2964L60.1887 34.2968Z" fill="#372F32" mask="url(#path-9-outside-5_2097_24245)"/>
<mask id="path-11-outside-6_2097_24245" maskUnits="userSpaceOnUse" x="21.6244" y="11.2092" width="18.3" height="19.2223" fill="black">
<rect fill="white" x="21.6244" y="11.2092" width="18.3" height="19.2223"/>
<path d="M31.3393 28.0785C29.93 28.1843 28.6368 27.9672 27.4597 27.4271C26.2949 26.8728 25.3505 26.0478 24.6264 24.9523C23.9147 23.8425 23.5024 22.5363 23.3896 21.0339C23.2768 19.5315 23.4899 18.1851 24.029 16.9947C24.5803 15.79 25.391 14.8333 26.4609 14.1246C27.5431 13.4015 28.7889 12.9871 30.1983 12.8812C31.6077 12.7754 32.8947 12.9997 34.0595 13.554C35.2366 14.0941 36.181 14.919 36.8928 16.0289C37.6168 17.1244 38.0353 18.4234 38.1481 19.9258C38.2609 21.4282 38.0416 22.7818 37.4902 23.9865C36.9512 25.1768 36.1405 26.1335 35.0583 26.8566C33.9884 27.5654 32.7487 27.9726 31.3393 28.0785ZM31.1417 25.4459C32.0591 25.377 32.8475 25.1039 33.507 24.6265C34.1797 24.1481 34.6743 23.5227 34.9907 22.7501C35.306 21.9643 35.4278 21.0927 35.3559 20.1354C35.284 19.1781 35.034 18.3412 34.6058 17.6246C34.1766 16.8946 33.5937 16.3434 32.8571 15.9708C32.1338 15.5973 31.3134 15.4449 30.396 15.5138C29.4786 15.5827 28.6835 15.8563 28.0107 16.3347C27.3513 16.8121 26.8639 17.4437 26.5485 18.2295C26.2321 19.002 26.1099 19.867 26.1817 20.8243C26.2536 21.7816 26.5041 22.6252 26.9333 23.3551C27.3615 24.0717 27.9373 24.6168 28.6606 24.9904C29.3972 25.3629 30.2243 25.5148 31.1417 25.4459Z"/>
</mask>
<path d="M31.3393 28.0785C29.93 28.1843 28.6368 27.9672 27.4597 27.4271C26.2949 26.8728 25.3505 26.0478 24.6264 24.9523C23.9147 23.8425 23.5024 22.5363 23.3896 21.0339C23.2768 19.5315 23.4899 18.1851 24.029 16.9947C24.5803 15.79 25.391 14.8333 26.4609 14.1246C27.5431 13.4015 28.7889 12.9871 30.1983 12.8812C31.6077 12.7754 32.8947 12.9997 34.0595 13.554C35.2366 14.0941 36.181 14.919 36.8928 16.0289C37.6168 17.1244 38.0353 18.4234 38.1481 19.9258C38.2609 21.4282 38.0416 22.7818 37.4902 23.9865C36.9512 25.1768 36.1405 26.1335 35.0583 26.8566C33.9884 27.5654 32.7487 27.9726 31.3393 28.0785ZM31.1417 25.4459C32.0591 25.377 32.8475 25.1039 33.507 24.6265C34.1797 24.1481 34.6743 23.5227 34.9907 22.7501C35.306 21.9643 35.4278 21.0927 35.3559 20.1354C35.284 19.1781 35.034 18.3412 34.6058 17.6246C34.1766 16.8946 33.5937 16.3434 32.8571 15.9708C32.1338 15.5973 31.3134 15.4449 30.396 15.5138C29.4786 15.5827 28.6835 15.8563 28.0107 16.3347C27.3513 16.8121 26.8639 17.4437 26.5485 18.2295C26.2321 19.002 26.1099 19.867 26.1817 20.8243C26.2536 21.7816 26.5041 22.6252 26.9333 23.3551C27.3615 24.0717 27.9373 24.6168 28.6606 24.9904C29.3972 25.3629 30.2243 25.5148 31.1417 25.4459Z" fill="#E65325"/>
<path d="M27.4597 27.4271L27.0299 28.3302L27.0427 28.336L27.4597 27.4271ZM24.6264 24.9523L23.7846 25.4922L23.7922 25.5037L24.6264 24.9523ZM24.029 16.9947L23.1197 16.5785L23.118 16.5822L24.029 16.9947ZM26.4609 14.1246L27.0132 14.9582L27.0164 14.956L26.4609 14.1246ZM34.0595 13.554L33.6297 14.4571L33.6425 14.4629L34.0595 13.554ZM36.8928 16.0289L36.0509 16.5687L36.0585 16.5802L36.8928 16.0289ZM37.4902 23.9865L36.5809 23.5703L36.5793 23.5739L37.4902 23.9865ZM35.0583 26.8566L35.6106 27.6903L35.6138 27.6881L35.0583 26.8566ZM33.507 24.6265L32.9274 23.8115L32.9206 23.8165L33.507 24.6265ZM34.9907 22.7501L35.9161 23.1291L35.9187 23.1226L34.9907 22.7501ZM34.6058 17.6246L33.7438 18.1314L33.7474 18.1375L34.6058 17.6246ZM32.8571 15.9708L32.3982 16.8594L32.4058 16.8632L32.8571 15.9708ZM28.0107 16.3347L27.4312 15.5197L27.4243 15.5247L28.0107 16.3347ZM26.5485 18.2295L27.4739 18.6085L27.4765 18.602L26.5485 18.2295ZM26.9333 23.3551L26.0713 23.862L26.0749 23.868L26.9333 23.3551ZM28.6606 24.9904L28.2017 25.8789L28.2093 25.8827L28.6606 24.9904ZM31.3393 28.0785L31.2645 27.0813C30.0081 27.1756 28.8861 26.9813 27.8767 26.5182L27.4597 27.4271L27.0427 28.336C28.3874 28.953 29.8519 29.193 31.4142 29.0757L31.3393 28.0785ZM27.4597 27.4271L27.8894 26.5242C26.8921 26.0495 26.0863 25.3475 25.4607 24.4009L24.6264 24.9523L23.7922 25.5037C24.6147 26.7481 25.6978 27.696 27.0299 28.3301L27.4597 27.4271ZM24.6264 24.9523L25.4682 24.4124C24.8581 23.4612 24.489 22.3198 24.3868 20.959L23.3896 21.0339L22.3924 21.1088C22.5158 22.7528 22.9712 24.2238 23.7847 25.4921L24.6264 24.9523ZM23.3896 21.0339L24.3868 20.959C24.2846 19.5979 24.4799 18.423 24.9399 17.4072L24.029 16.9947L23.118 16.5822C22.4999 17.9471 22.269 19.465 22.3924 21.1088L23.3896 21.0339ZM24.029 16.9947L24.9383 17.4109C25.4146 16.3702 26.1041 15.5604 27.0132 14.9582L26.4609 14.1246L25.9087 13.2909C24.6779 14.1062 23.7461 15.2099 23.1197 16.5785L24.029 16.9947ZM26.4609 14.1246L27.0164 14.956C27.9433 14.3368 29.0205 13.9725 30.2732 13.8784L30.1983 12.8812L30.1234 11.884C28.5574 12.0016 27.143 12.4662 25.9054 13.2931L26.4609 14.1246ZM30.1983 12.8812L30.2732 13.8784C31.5261 13.7844 32.6369 13.9844 33.6298 14.457L34.0595 13.554L34.4893 12.6511C33.1526 12.0149 31.6893 11.7665 30.1234 11.884L30.1983 12.8812ZM34.0595 13.554L33.6425 14.4629C34.6423 14.9216 35.4406 15.6169 36.051 16.5687L36.8928 16.0289L37.7345 15.489C36.9214 14.2211 35.8309 13.2665 34.4765 12.6451L34.0595 13.554ZM36.8928 16.0289L36.0585 16.5802C36.6754 17.5136 37.0489 18.643 37.1509 20.0007L38.1481 19.9258L39.1453 19.8509C39.0216 18.2037 38.5582 16.7352 37.727 15.4775L36.8928 16.0289ZM38.1481 19.9258L37.1509 20.0007C37.2528 21.3581 37.0528 22.5393 36.5809 23.5703L37.4902 23.9865L38.3995 24.4026C39.0304 23.0243 39.2689 21.4984 39.1453 19.8509L38.1481 19.9258ZM37.4902 23.9865L36.5793 23.5739C36.1169 24.5949 35.4291 25.4062 34.5028 26.0251L35.0583 26.8566L35.6138 27.6881C36.852 26.8609 37.7854 25.7587 38.4012 24.399L37.4902 23.9865ZM35.0583 26.8566L34.506 26.0229C33.5927 26.6279 32.521 26.9869 31.2645 27.0813L31.3393 28.0785L31.4142 29.0757C32.9764 28.9584 34.384 28.5028 35.6106 27.6903L35.0583 26.8566ZM31.1417 25.4459L31.2166 26.4431C32.2939 26.3622 33.2652 26.036 34.0934 25.4365L33.507 24.6265L32.9206 23.8165C32.4299 24.1717 31.8243 24.3918 31.0668 24.4487L31.1417 25.4459ZM33.507 24.6265L34.0865 25.4414C34.9153 24.8521 35.5288 24.0747 35.9161 23.1291L34.9907 22.7501L34.0653 22.3711C33.8197 22.9706 33.4441 23.4441 32.9275 23.8115L33.507 24.6265ZM34.9907 22.7501L35.9187 23.1226C36.2982 22.177 36.4349 21.1498 36.3531 20.0606L35.3559 20.1354L34.3587 20.2103C34.4207 21.0357 34.3139 21.7516 34.0626 22.3777L34.9907 22.7501ZM35.3559 20.1354L36.3531 20.0606C36.2714 18.9717 35.9832 17.9802 35.4643 17.1116L34.6058 17.6246L33.7474 18.1375C34.0848 18.7021 34.2967 19.3845 34.3587 20.2103L35.3559 20.1354ZM34.6058 17.6246L35.4678 17.1177C34.9442 16.2271 34.2207 15.5399 33.3084 15.0785L32.8571 15.9708L32.4058 16.8632C32.9668 17.1469 33.4091 17.5622 33.7438 18.1314L34.6058 17.6246ZM32.8571 15.9708L33.316 15.0823C32.4076 14.6132 31.3984 14.4357 30.3211 14.5166L30.396 15.5138L30.4708 16.511C31.2283 16.4541 31.86 16.5814 32.3982 16.8594L32.8571 15.9708ZM30.396 15.5138L30.3211 14.5166C29.2434 14.5976 28.269 14.924 27.4312 15.5198L28.0107 16.3347L28.5902 17.1497C29.098 16.7886 29.7137 16.5679 30.4708 16.511L30.396 15.5138ZM28.0107 16.3347L27.4243 15.5247C26.6057 16.1173 26.0032 16.9034 25.6205 17.8571L26.5485 18.2295L27.4765 18.602C27.7246 17.984 28.0969 17.5069 28.5971 17.1447L28.0107 16.3347ZM26.5485 18.2295L25.6231 17.8505C25.2396 18.7869 25.1028 19.8103 25.1845 20.8991L26.1817 20.8243L27.1789 20.7494C27.1169 19.9236 27.2246 19.2172 27.4739 18.6085L26.5485 18.2295ZM26.1817 20.8243L25.1845 20.8991C25.2663 21.9884 25.5549 22.9836 26.0713 23.862L26.9333 23.3551L27.7954 22.8482C27.4534 22.2667 27.2409 21.5748 27.1789 20.7494L26.1817 20.8243ZM26.9333 23.3551L26.0749 23.868C26.5961 24.7403 27.3085 25.4175 28.2018 25.8789L28.6606 24.9904L29.1195 24.1018C28.5661 23.8161 28.1269 23.4031 27.7918 22.8422L26.9333 23.3551ZM28.6606 24.9904L28.2093 25.8827C29.1266 26.3467 30.1388 26.524 31.2166 26.4431L31.1417 25.4459L31.0668 24.4487C30.3097 24.5055 29.6679 24.3792 29.1119 24.098L28.6606 24.9904Z" fill="#372F32" mask="url(#path-11-outside-6_2097_24245)"/>
<mask id="path-13-outside-7_2097_24245" maskUnits="userSpaceOnUse" x="39.5894" y="4.9891" width="15.0912" height="17.8867" fill="black">
<rect fill="white" x="39.5894" y="4.9891" width="15.0912" height="17.8867"/>
<path d="M41.5113 21.077C41.3384 21.0655 41.2576 20.9733 41.269 20.8004L42.2034 6.67123C42.2148 6.49828 42.307 6.41752 42.48 6.42895L46.9103 6.72192C48.9059 6.85388 50.3408 7.38305 51.2149 8.30941C52.1032 9.22335 52.4915 10.5251 52.3798 12.2148C52.3191 13.1328 52.0849 13.9458 51.6773 14.6537C51.2839 15.3493 50.713 15.8995 49.9647 16.3043L52.3688 21.4742C52.3901 21.5558 52.4003 21.6033 52.3995 21.6166C52.3959 21.6698 52.3729 21.715 52.3303 21.7523C52.2887 21.7763 52.2346 21.7861 52.1681 21.7817L49.7134 21.6193C49.5804 21.6105 49.4845 21.5441 49.4259 21.4199L47.3561 16.9536C46.9943 16.9698 46.6204 16.9651 46.2346 16.9396L44.239 16.8076L43.9632 20.9785C43.9517 21.1515 43.8595 21.2322 43.6866 21.2208L41.5113 21.077ZM44.7497 9.0845L44.4039 14.3131L46.2998 14.4385C47.3641 14.5088 48.1627 14.3545 48.6956 13.9755C49.2293 13.5832 49.526 12.9347 49.5859 12.03C49.6457 11.1253 49.4365 10.4501 48.9582 10.0042C48.4808 9.54503 47.7099 9.28025 46.6455 9.20987L44.7497 9.0845Z"/>
</mask>
<path d="M41.5113 21.077C41.3384 21.0655 41.2576 20.9733 41.269 20.8004L42.2034 6.67123C42.2148 6.49828 42.307 6.41752 42.48 6.42895L46.9103 6.72192C48.9059 6.85388 50.3408 7.38305 51.2149 8.30941C52.1032 9.22335 52.4915 10.5251 52.3798 12.2148C52.3191 13.1328 52.0849 13.9458 51.6773 14.6537C51.2839 15.3493 50.713 15.8995 49.9647 16.3043L52.3688 21.4742C52.3901 21.5558 52.4003 21.6033 52.3995 21.6166C52.3959 21.6698 52.3729 21.715 52.3303 21.7523C52.2887 21.7763 52.2346 21.7861 52.1681 21.7817L49.7134 21.6193C49.5804 21.6105 49.4845 21.5441 49.4259 21.4199L47.3561 16.9536C46.9943 16.9698 46.6204 16.9651 46.2346 16.9396L44.239 16.8076L43.9632 20.9785C43.9517 21.1515 43.8595 21.2322 43.6866 21.2208L41.5113 21.077ZM44.7497 9.0845L44.4039 14.3131L46.2998 14.4385C47.3641 14.5088 48.1627 14.3545 48.6956 13.9755C49.2293 13.5832 49.526 12.9347 49.5859 12.03C49.6457 11.1253 49.4365 10.4501 48.9582 10.0042C48.4808 9.54503 47.7099 9.28025 46.6455 9.20987L44.7497 9.0845Z" fill="#E65325"/>
<path d="M51.2149 8.30941L50.4876 8.99571L50.4927 9.00108L50.4978 9.00638L51.2149 8.30941ZM51.6773 14.6537L50.8106 14.1548L50.8069 14.1614L51.6773 14.6537ZM49.9647 16.3043L49.4888 15.4248L48.6611 15.8726L49.0579 16.726L49.9647 16.3043ZM52.3688 21.4742L53.3363 21.2213L53.3135 21.1342L53.2755 21.0526L52.3688 21.4742ZM52.3303 21.7523L52.8289 22.6191L52.9148 22.5698L52.9893 22.5045L52.3303 21.7523ZM49.4259 21.4199L48.5186 21.8404L48.5216 21.8468L49.4259 21.4199ZM47.3561 16.9536L48.2634 16.5332L47.9815 15.9247L47.3115 15.9546L47.3561 16.9536ZM44.239 16.8076L44.305 15.8098L43.3071 15.7438L43.2412 16.7417L44.239 16.8076ZM44.7497 9.0845L44.8157 8.08668L43.8178 8.0207L43.7519 9.01852L44.7497 9.0845ZM44.4039 14.3131L43.4061 14.2471L43.3401 15.2449L44.3379 15.3109L44.4039 14.3131ZM48.6956 13.9755L49.2752 14.7904L49.2815 14.7859L49.2878 14.7813L48.6956 13.9755ZM48.9582 10.0042L48.265 10.7249L48.2706 10.7303L48.2763 10.7357L48.9582 10.0042ZM41.5113 21.077L41.5773 20.0791C41.6446 20.0836 41.8773 20.1166 42.0733 20.3403C42.2693 20.5641 42.2713 20.799 42.2669 20.8664L41.2691 20.8004L40.2712 20.7344C40.2553 20.9747 40.2921 21.3422 40.5688 21.6581C40.8456 21.9741 41.2051 22.0589 41.4453 22.0748L41.5113 21.077ZM41.2691 20.8004L42.2669 20.8664L43.2012 6.73722L42.2034 6.67123L41.2055 6.60525L40.2712 20.7344L41.2691 20.8004ZM42.2034 6.67123L43.2012 6.73722C43.1967 6.80455 43.1638 7.03716 42.94 7.23317C42.7162 7.42918 42.4813 7.43123 42.414 7.42678L42.48 6.42895L42.5459 5.43113C42.3056 5.41524 41.9381 5.45196 41.6222 5.72872C41.3062 6.00549 41.2214 6.36496 41.2055 6.60525L42.2034 6.67123ZM42.48 6.42895L42.414 7.42678L46.8443 7.71974L46.9103 6.72192L46.9763 5.7241L42.5459 5.43113L42.48 6.42895ZM46.9103 6.72192L46.8443 7.71974C48.7259 7.84416 49.8626 8.33335 50.4876 8.99571L51.2149 8.30941L51.9422 7.62311C50.819 6.43275 49.086 5.8636 46.9763 5.7241L46.9103 6.72192ZM51.2149 8.30941L50.4978 9.00638C51.1295 9.65628 51.4814 10.6441 51.3819 12.1488L52.3798 12.2148L53.3776 12.2808C53.5015 10.4062 53.0769 8.79041 51.932 7.61243L51.2149 8.30941ZM52.3798 12.2148L51.3819 12.1488C51.33 12.9337 51.1329 13.5951 50.8107 14.1548L51.6773 14.6537L52.5439 15.1527C53.0369 14.2964 53.3081 13.3318 53.3776 12.2808L52.3798 12.2148ZM51.6773 14.6537L50.8069 14.1614C50.5121 14.6827 50.0831 15.1033 49.4888 15.4248L49.9647 16.3043L50.4405 17.1839C51.343 16.6957 52.0557 16.0159 52.5477 15.1461L51.6773 14.6537ZM49.9647 16.3043L49.0579 16.726L51.462 21.8959L52.3688 21.4742L53.2755 21.0526L50.8714 15.8827L49.9647 16.3043ZM52.3688 21.4742L51.4013 21.7272C51.4056 21.7437 51.4089 21.7567 51.4113 21.7666C51.4125 21.7714 51.4134 21.7751 51.414 21.7778C51.4146 21.7806 51.4149 21.7818 51.4149 21.7817C51.4149 21.7817 51.4144 21.7794 51.4136 21.7752C51.4128 21.7713 51.4114 21.7633 51.4097 21.7522C51.4081 21.7422 51.4053 21.7224 51.403 21.6965C51.4019 21.6831 51.4005 21.6647 51.3999 21.6426C51.3993 21.6213 51.3991 21.5894 51.4016 21.5506L52.3995 21.6166L53.3973 21.6825C53.4054 21.5599 53.3881 21.4591 53.3864 21.4481C53.381 21.4131 53.3746 21.3819 53.37 21.3603C53.3604 21.3158 53.3483 21.2675 53.3363 21.2213L52.3688 21.4742ZM52.3995 21.6166L51.4016 21.5506C51.4083 21.449 51.4354 21.3408 51.4884 21.2367C51.5408 21.1337 51.6079 21.0557 51.6714 21.0001L52.3303 21.7523L52.9893 22.5045C53.2179 22.3043 53.3751 22.0177 53.3973 21.6825L52.3995 21.6166ZM52.3303 21.7523L51.8318 20.8855C52.0156 20.7797 52.1772 20.7801 52.234 20.7838L52.1681 21.7817L52.1021 22.7795C52.292 22.792 52.5617 22.7728 52.8289 22.6191L52.3303 21.7523ZM52.1681 21.7817L52.234 20.7838L49.7794 20.6215L49.7134 21.6193L49.6474 22.6172L52.1021 22.7795L52.1681 21.7817ZM49.7134 21.6193L49.7794 20.6215C49.8673 20.6273 49.9904 20.657 50.1117 20.7412C50.2317 20.8244 50.298 20.9248 50.3302 20.993L49.4259 21.4199L48.5216 21.8468C48.6125 22.0393 48.7561 22.2349 48.9718 22.3846C49.189 22.5352 49.4265 22.6026 49.6474 22.6172L49.7134 21.6193ZM49.4259 21.4199L50.3333 20.9995L48.2634 16.5332L47.3561 16.9536L46.4488 17.3741L48.5186 21.8404L49.4259 21.4199ZM47.3561 16.9536L47.3115 15.9546C46.9889 15.969 46.6521 15.965 46.3006 15.9418L46.2346 16.9396L46.1686 17.9374C46.5888 17.9652 46.9997 17.9705 47.4007 17.9526L47.3561 16.9536ZM46.2346 16.9396L46.3006 15.9418L44.305 15.8098L44.239 16.8076L44.173 17.8055L46.1686 17.9374L46.2346 16.9396ZM44.239 16.8076L43.2412 16.7417L42.9653 20.9125L43.9632 20.9785L44.961 21.0445L45.2368 16.8736L44.239 16.8076ZM43.9632 20.9785L42.9653 20.9125C42.9698 20.8452 43.0028 20.6126 43.2265 20.4166C43.4503 20.2206 43.6852 20.2185 43.7526 20.223L43.6866 21.2208L43.6206 22.2186C43.8609 22.2345 44.2284 22.1978 44.5444 21.921C44.8603 21.6443 44.9451 21.2848 44.961 21.0445L43.9632 20.9785ZM43.6866 21.2208L43.7526 20.223L41.5773 20.0791L41.5113 21.077L41.4453 22.0748L43.6206 22.2186L43.6866 21.2208ZM44.7497 9.0845L43.7519 9.01852L43.4061 14.2471L44.4039 14.3131L45.4018 14.3791L45.7475 9.15049L44.7497 9.0845ZM44.4039 14.3131L44.3379 15.3109L46.2338 15.4363L46.2998 14.4385L46.3658 13.4406L44.4699 13.3153L44.4039 14.3131ZM46.2998 14.4385L46.2338 15.4363C47.3934 15.513 48.4682 15.3644 49.2752 14.7904L48.6956 13.9755L48.1159 13.1606C47.8572 13.3446 47.3349 13.5047 46.3658 13.4406L46.2998 14.4385ZM48.6956 13.9755L49.2878 14.7813C50.1382 14.1562 50.512 13.1808 50.5837 12.096L49.5859 12.03L48.588 11.964C48.5401 12.6886 48.3204 13.0102 48.1033 13.1698L48.6956 13.9755ZM49.5859 12.03L50.5837 12.096C50.6553 11.0136 50.4142 9.99438 49.64 9.27273L48.9582 10.0042L48.2763 10.7357C48.4587 10.9057 48.6361 11.2371 48.588 11.964L49.5859 12.03ZM48.9582 10.0042L49.6514 9.28345C48.9272 8.587 47.8766 8.28909 46.7115 8.21205L46.6455 9.20987L46.5796 10.2077C47.5432 10.2714 48.0343 10.5031 48.265 10.7249L48.9582 10.0042ZM46.6455 9.20987L46.7115 8.21205L44.8157 8.08668L44.7497 9.0845L44.6837 10.0823L46.5796 10.2077L46.6455 9.20987Z" fill="#372F32" mask="url(#path-13-outside-7_2097_24245)"/>
<mask id="path-15-outside-8_2097_24245" maskUnits="userSpaceOnUse" x="57.2152" y="8.9788" width="15.3435" height="17.3023" fill="black">
<rect fill="white" x="57.2152" y="8.9788" width="15.3435" height="17.3023"/>
<path d="M59.401 25.2434C59.2277 25.2469 59.1393 25.162 59.1358 24.9887L58.8471 10.8317C58.8436 10.6584 58.9284 10.5699 59.1017 10.5664L61.2813 10.522C61.4546 10.5184 61.543 10.6033 61.5465 10.7766L61.6835 17.4952L67.4229 10.5368C67.5009 10.4418 67.6066 10.393 67.7399 10.3903L70.2994 10.3381C70.4461 10.3351 70.5205 10.3869 70.5226 10.4936C70.5237 10.5469 70.4981 10.6007 70.4459 10.6552L65.9137 15.9887L71.412 24.6784C71.4403 24.7578 71.4546 24.8042 71.4549 24.8175C71.4559 24.8708 71.4369 24.9179 71.3977 24.9587C71.3583 24.9862 71.3052 25.0006 71.2386 25.002L68.6591 25.0546C68.5258 25.0573 68.4246 24.9993 68.3555 24.8807L64.1748 18.0245L61.7524 20.8745L61.8352 24.9337C61.8388 25.107 61.7539 25.1954 61.5806 25.1989L59.401 25.2434Z"/>
</mask>
<path d="M59.401 25.2434C59.2277 25.2469 59.1393 25.162 59.1358 24.9887L58.8471 10.8317C58.8436 10.6584 58.9284 10.5699 59.1017 10.5664L61.2813 10.522C61.4546 10.5184 61.543 10.6033 61.5465 10.7766L61.6835 17.4952L67.4229 10.5368C67.5009 10.4418 67.6066 10.393 67.7399 10.3903L70.2994 10.3381C70.4461 10.3351 70.5205 10.3869 70.5226 10.4936C70.5237 10.5469 70.4981 10.6007 70.4459 10.6552L65.9137 15.9887L71.412 24.6784C71.4403 24.7578 71.4546 24.8042 71.4549 24.8175C71.4559 24.8708 71.4369 24.9179 71.3977 24.9587C71.3583 24.9862 71.3052 25.0006 71.2386 25.002L68.6591 25.0546C68.5258 25.0573 68.4246 24.9993 68.3555 24.8807L64.1748 18.0245L61.7524 20.8745L61.8352 24.9337C61.8388 25.107 61.7539 25.1954 61.5806 25.1989L59.401 25.2434Z" fill="#E65325"/>
<path d="M61.6835 17.4952L60.6837 17.5156L60.7387 20.2123L62.455 18.1315L61.6835 17.4952ZM67.4229 10.5368L68.1943 11.173L68.1952 11.1719L67.4229 10.5368ZM70.4459 10.6552L69.7245 9.96261L69.7035 9.98449L69.6839 10.0076L70.4459 10.6552ZM65.9137 15.9887L65.1517 15.3411L64.6753 15.9017L65.0687 16.5234L65.9137 15.9887ZM71.412 24.6784L72.354 24.3429L72.3167 24.2379L72.2571 24.1437L71.412 24.6784ZM71.3977 24.9587L71.9693 25.7793L72.0505 25.7227L72.1191 25.6513L71.3977 24.9587ZM68.3555 24.8807L69.2196 24.3774L69.2145 24.3687L69.2093 24.3601L68.3555 24.8807ZM64.1748 18.0245L65.0286 17.5039L64.3086 16.3231L63.4129 17.3769L64.1748 18.0245ZM61.7524 20.8745L60.9905 20.2269L60.7449 20.5158L60.7527 20.8949L61.7524 20.8745ZM59.401 25.2434L59.3806 24.2436C59.4481 24.2422 59.6827 24.255 59.8973 24.461C60.1119 24.667 60.1342 24.9009 60.1356 24.9683L59.1358 24.9887L58.136 25.0091C58.1409 25.2499 58.2092 25.6128 58.5122 25.9037C58.8152 26.1946 59.1807 26.2481 59.4214 26.2432L59.401 25.2434ZM59.1358 24.9887L60.1356 24.9683L59.8469 10.8113L58.8471 10.8317L57.8473 10.852L58.136 25.0091L59.1358 24.9887ZM58.8471 10.8317L59.8469 10.8113C59.8483 10.8787 59.8355 11.1133 59.6295 11.3279C59.4235 11.5425 59.1896 11.5648 59.1221 11.5662L59.1017 10.5664L59.0814 9.56662C58.8406 9.57153 58.4776 9.63982 58.1867 9.94283C57.8958 10.2458 57.8424 10.6113 57.8473 10.852L58.8471 10.8317ZM59.1017 10.5664L59.1221 11.5662L61.3017 11.5218L61.2813 10.522L61.2609 9.52217L59.0814 9.56662L59.1017 10.5664ZM61.2813 10.522L61.3017 11.5218C61.2342 11.5231 60.9996 11.5104 60.785 11.3044C60.5704 11.0983 60.5481 10.8645 60.5467 10.797L61.5465 10.7766L62.5463 10.7562C62.5414 10.5155 62.4731 10.1525 62.1701 9.8616C61.8671 9.5707 61.5017 9.51726 61.2609 9.52217L61.2813 10.522ZM61.5465 10.7766L60.5467 10.797L60.6837 17.5156L61.6835 17.4952L62.6833 17.4748L62.5463 10.7562L61.5465 10.7766ZM61.6835 17.4952L62.455 18.1315L68.1943 11.173L67.4229 10.5368L66.6514 9.90047L60.9121 16.8589L61.6835 17.4952ZM67.4229 10.5368L68.1952 11.1719C68.1441 11.2341 68.0715 11.2945 67.9801 11.3367C67.8908 11.378 67.8117 11.389 67.7603 11.3901L67.7399 10.3903L67.7196 9.39047C67.3223 9.39857 66.9311 9.56043 66.6505 9.90158L67.4229 10.5368ZM67.7399 10.3903L67.7603 11.3901L70.3198 11.3379L70.2994 10.3381L70.279 9.33828L67.7196 9.39047L67.7399 10.3903ZM70.2994 10.3381L70.3198 11.3379C70.3017 11.3382 70.1075 11.3442 69.8936 11.1953C69.7758 11.1132 69.6745 10.9985 69.6071 10.8589C69.5423 10.7248 69.5246 10.6011 69.5228 10.5139L70.5226 10.4936L71.5224 10.4732C71.5161 10.1641 71.3851 9.79675 71.0368 9.55414C70.7485 9.35336 70.4438 9.33492 70.279 9.33828L70.2994 10.3381ZM70.5226 10.4936L69.5228 10.5139C69.5166 10.2086 69.67 10.0194 69.7245 9.96261L70.4459 10.6552L71.1673 11.3477C71.3263 11.1821 71.5308 10.8852 71.5224 10.4732L70.5226 10.4936ZM70.4459 10.6552L69.6839 10.0076L65.1517 15.3411L65.9137 15.9887L66.6757 16.6362L71.2079 11.3027L70.4459 10.6552ZM65.9137 15.9887L65.0687 16.5234L70.567 25.2131L71.412 24.6784L72.2571 24.1437L66.7588 15.454L65.9137 15.9887ZM71.412 24.6784L70.47 25.0139C70.4757 25.03 70.4801 25.0427 70.4834 25.0523C70.485 25.057 70.4862 25.0606 70.487 25.0633C70.4879 25.0659 70.4882 25.0671 70.4882 25.067C70.4882 25.067 70.4875 25.0648 70.4864 25.0607C70.4853 25.0569 70.4831 25.049 70.4805 25.0381C70.4781 25.0282 70.4735 25.0088 70.469 24.9832C70.4667 24.97 70.4638 24.9517 70.4613 24.9297C70.4588 24.9086 70.4559 24.8768 70.4551 24.8379L71.4549 24.8175L72.4546 24.7971C72.4521 24.6742 72.4262 24.5753 72.4236 24.5645C72.4152 24.5301 72.4062 24.4996 72.3997 24.4785C72.3863 24.435 72.3701 24.3879 72.354 24.3429L71.412 24.6784ZM71.4549 24.8175L70.4551 24.8379C70.453 24.7361 70.4706 24.626 70.5144 24.5177C70.5578 24.4106 70.6179 24.3271 70.6763 24.2662L71.3977 24.9587L72.1191 25.6513C72.3296 25.432 72.4615 25.133 72.4546 24.7971L71.4549 24.8175ZM71.3977 24.9587L70.8262 24.1382C71.0002 24.0169 71.1612 24.0033 71.2182 24.0022L71.2386 25.002L71.259 26.0018C71.4492 25.9979 71.7163 25.9555 71.9693 25.7793L71.3977 24.9587ZM71.2386 25.002L71.2182 24.0022L68.6387 24.0548L68.6591 25.0546L68.6795 26.0544L71.259 26.0018L71.2386 25.002ZM68.6591 25.0546L68.6387 24.0548C68.7268 24.053 68.852 24.072 68.9801 24.1453C69.1068 24.2179 69.1816 24.3121 69.2196 24.3774L68.3555 24.8807L67.4914 25.3841C67.5985 25.5679 67.7585 25.7505 67.9863 25.881C68.2157 26.0123 68.4581 26.0589 68.6795 26.0544L68.6591 25.0546ZM68.3555 24.8807L69.2093 24.3601L65.0286 17.5039L64.1748 18.0245L63.3211 18.5451L67.5017 25.4013L68.3555 24.8807ZM64.1748 18.0245L63.4129 17.3769L60.9905 20.2269L61.7524 20.8745L62.5144 21.5221L64.9368 18.6722L64.1748 18.0245ZM61.7524 20.8745L60.7527 20.8949L60.8354 24.9541L61.8352 24.9337L62.835 24.9133L62.7522 20.8541L61.7524 20.8745ZM61.8352 24.9337L60.8354 24.9541C60.8341 24.8866 60.8468 24.652 61.0528 24.4374C61.2588 24.2228 61.4927 24.2005 61.5602 24.1991L61.5806 25.1989L61.601 26.1987C61.8417 26.1938 62.2047 26.1255 62.4956 25.8225C62.7865 25.5195 62.8399 25.154 62.835 24.9133L61.8352 24.9337ZM61.5806 25.1989L61.5602 24.1991L59.3806 24.2436L59.401 25.2434L59.4214 26.2432L61.601 26.1987L61.5806 25.1989Z" fill="#372F32" mask="url(#path-15-outside-8_2097_24245)"/>
</svg>
