<svg width="44" height="44" viewBox="0 0 44 44" fill="none" xmlns="http://www.w3.org/2000/svg">
<path d="M23.5686 32.3686C23.9895 31.9462 24.2 31.4233 24.2 30.8C24.2 30.1767 23.9888 29.6545 23.5664 29.2336C23.144 28.8127 22.6219 28.6015 22 28.6C21.3781 28.5985 20.856 28.8097 20.4336 29.2336C20.0112 29.6575 19.8 30.1796 19.8 30.8C19.8 31.4204 20.0112 31.9433 20.4336 32.3686C20.856 32.7939 21.3781 33.0044 22 33C22.6219 32.9956 23.1447 32.7866 23.5686 32.3686ZM19.8 24.2H24.2V11H19.8V24.2ZM22 44C18.9567 44 16.0967 43.4221 13.42 42.2664C10.7433 41.1107 8.415 39.5435 6.435 37.565C4.455 35.5865 2.88787 33.2581 1.7336 30.58C0.579336 27.9019 0.00146945 25.0419 2.78481e-06 22C-0.00146388 18.9581 0.576403 16.0981 1.7336 13.42C2.8908 10.7419 4.45793 8.41353 6.435 6.435C8.41206 4.45647 10.7404 2.88933 13.42 1.7336C16.0996 0.577867 18.9596 0 22 0C25.0404 0 27.9004 0.577867 30.58 1.7336C33.2596 2.88933 35.5879 4.45647 37.565 6.435C39.542 8.41353 41.1099 10.7419 42.2686 13.42C43.4272 16.0981 44.0044 18.9581 44 22C43.9956 25.0419 43.4177 27.9019 42.2664 30.58C41.115 33.2581 39.5479 35.5865 37.565 37.565C35.5821 39.5435 33.2537 41.1114 30.58 42.2686C27.9062 43.4258 25.0463 44.0029 22 44ZM22 39.6C26.9133 39.6 31.075 37.895 34.485 34.485C37.895 31.075 39.6 26.9133 39.6 22C39.6 17.0867 37.895 12.925 34.485 9.515C31.075 6.105 26.9133 4.4 22 4.4C17.0867 4.4 12.925 6.105 9.515 9.515C6.105 12.925 4.4 17.0867 4.4 22C4.4 26.9133 6.105 31.075 9.515 34.485C12.925 37.895 17.0867 39.6 22 39.6Z" fill="#FEFDF5"/>
</svg>
