<svg width="15" height="15" viewBox="0 0 15 15" fill="none" xmlns="http://www.w3.org/2000/svg">
<path d="M0.833333 15C0.597222 15 0.399445 14.92 0.24 14.76C0.0805556 14.6 0.000555556 14.4022 0 14.1667V12.1458C0 11.9236 0.0416667 11.7117 0.125 11.51C0.208333 11.3083 0.326389 11.1314 0.479167 10.9792L11 0.479167C11.1667 0.326389 11.3508 0.208333 11.5525 0.125C11.7542 0.0416667 11.9658 0 12.1875 0C12.4092 0 12.6244 0.0416667 12.8333 0.125C13.0422 0.208333 13.2228 0.333333 13.375 0.5L14.5208 1.66667C14.6875 1.81944 14.8089 2 14.885 2.20833C14.9611 2.41667 14.9994 2.625 15 2.83333C15 3.05556 14.9617 3.2675 14.885 3.46917C14.8083 3.67083 14.6869 3.85472 14.5208 4.02083L4.02083 14.5208C3.86806 14.6736 3.69083 14.7917 3.48917 14.875C3.2875 14.9583 3.07583 15 2.85417 15H0.833333ZM12.1667 4L13.3333 2.83333L12.1667 1.66667L11 2.83333L12.1667 4Z" fill="#372F32"/>
</svg>
