<svg width="11" height="12" viewBox="0 0 11 12" fill="none" xmlns="http://www.w3.org/2000/svg">
<path d="M0 10.3333V4.33333C0 4.12222 0.0473332 3.92222 0.142 3.73333C0.236667 3.54444 0.367111 3.38889 0.533333 3.26667L4.53333 0.266667C4.76667 0.0888889 5.03333 0 5.33333 0C5.63333 0 5.9 0.0888889 6.13333 0.266667L10.1333 3.26667C10.3 3.38889 10.4307 3.54444 10.5253 3.73333C10.62 3.92222 10.6671 4.12222 10.6667 4.33333V10.3333C10.6667 10.7 10.536 11.014 10.2747 11.2753C10.0133 11.5367 9.69955 11.6671 9.33333 11.6667H7.33333C7.14444 11.6667 6.98622 11.6027 6.85867 11.4747C6.73111 11.3467 6.66711 11.1884 6.66667 11V7.66667C6.66667 7.47778 6.60267 7.31956 6.47467 7.192C6.34667 7.06444 6.18844 7.00044 6 7H4.66667C4.47778 7 4.31956 7.064 4.192 7.192C4.06444 7.32 4.00044 7.47822 4 7.66667V11C4 11.1889 3.936 11.3473 3.808 11.4753C3.68 11.6033 3.52178 11.6671 3.33333 11.6667H1.33333C0.966667 11.6667 0.652889 11.5362 0.392 11.2753C0.131111 11.0144 0.000444444 10.7004 0 10.3333Z" fill="#FDFAF3"/>
</svg>
