<svg width="44" height="44" viewBox="0 0 44 44" fill="none" xmlns="http://www.w3.org/2000/svg">
<rect x="0.5" y="0.5" width="43" height="43" rx="21.5" fill="#FFFAC9"/>
<rect x="0.5" y="0.5" width="43" height="43" rx="21.5" stroke="#372F32"/>
<path d="M21.999 12.5C22.4091 12.4991 22.7759 12.644 23.0664 12.9346C23.3565 13.2247 23.5014 13.5908 23.5 14V20.5H30C30.4095 20.5 30.7762 20.6444 31.0664 20.9346C31.3566 21.2248 31.5009 21.5915 31.5 22.001C31.499 22.4092 31.3546 22.7752 31.0664 23.0654C30.7767 23.357 30.4098 23.5004 30 23.499V23.5H23.5V30C23.5 30.4095 23.3556 30.7762 23.0654 31.0664C22.7752 31.3566 22.4085 31.5009 21.999 31.5C21.5922 31.499 21.2262 31.3568 20.9355 31.0674L20.9346 31.0664C20.6444 30.7762 20.5 30.4095 20.5 30V23.5H14C13.5905 23.5 13.2234 23.3552 12.9336 23.0645C12.6451 22.7747 12.501 22.4091 12.5 22.001C12.4991 21.5909 12.6444 21.2237 12.9355 20.9336C13.2256 20.6447 13.5913 20.5 14 20.5H20.5V14C20.5 13.5905 20.6448 13.2234 20.9355 12.9336C21.2253 12.645 21.5909 12.501 21.999 12.5Z" fill="#372F32" stroke="#372F32"/>
</svg>
