<svg preserveAspectRatio="none" width="100%" height="100%" overflow="visible" style="display: block;" viewBox="0 0 51.5 49.6746" fill="none" xmlns="http://www.w3.org/2000/svg">
<g id="Group">
<g id="Group_2">
<path id="Vector" d="M16.8509 48.754C18.4625 49.3532 23.855 31.1195 25.485 31.1887C27.1739 31.2599 31.0229 49.862 32.6163 49.4163C34.2259 48.9656 27.879 31.0493 29.2719 30.1255C30.6516 29.2108 44.7005 42.0174 45.7505 40.6927C46.7639 39.4148 31.1043 28.6634 31.7036 27.0528C32.3029 25.4412 51.1817 27.5412 51.2498 25.9122C51.321 24.2233 32.3171 24.731 31.8715 23.1377C31.4208 21.5281 47.936 12.1187 47.0121 10.7248C46.0975 9.34513 31.025 20.9074 29.7003 19.8574C28.4224 18.844 36.2598 1.51993 34.6491 0.920655C33.0375 0.321378 27.645 18.5551 26.0151 18.4859C24.3261 18.4147 20.4771 -0.187345 18.8838 0.258298C17.2742 0.709027 23.621 18.6253 22.2281 19.5491C20.8485 20.4638 6.79954 7.65718 5.74953 8.9819C4.73615 10.2598 20.3957 21.0112 19.7964 22.6218C19.1971 24.2334 0.318391 22.1334 0.250222 23.7624C0.179001 25.4513 19.1829 24.9436 19.6285 26.537C20.0793 28.1466 3.56405 37.5559 4.48789 38.9498C5.40258 40.3295 20.4751 28.7672 21.7998 29.8172C23.0777 30.8306 15.2403 48.1547 16.8509 48.754Z" fill="var(--fill-0, #FFFAC9)" stroke="var(--stroke-0, #382F32)" stroke-width="0.5" stroke-miterlimit="10"/>
<path id="Vector_2" d="M16.8509 48.754C18.4625 49.3532 23.855 31.1195 25.485 31.1887C27.1739 31.2599 31.0229 49.862 32.6163 49.4163C34.2259 48.9656 27.879 31.0493 29.2719 30.1255C30.6516 29.2108 44.7005 42.0174 45.7505 40.6927C46.7639 39.4148 31.1043 28.6634 31.7036 27.0528C32.3029 25.4412 51.1817 27.5412 51.2498 25.9122C51.321 24.2233 32.3171 24.731 31.8715 23.1377C31.4208 21.5281 47.936 12.1187 47.0121 10.7248C46.0975 9.34513 31.025 20.9074 29.7003 19.8574C28.4224 18.844 36.2598 1.51993 34.6491 0.920655C33.0375 0.321378 27.645 18.5551 26.0151 18.4859C24.3261 18.4147 20.4771 -0.187345 18.8838 0.258298C17.2742 0.709027 23.621 18.6253 22.2281 19.5491C20.8485 20.4638 6.79954 7.65718 5.74953 8.9819C4.73615 10.2598 20.3957 21.0112 19.7964 22.6218C19.1971 24.2334 0.318391 22.1334 0.250222 23.7624C0.179001 25.4513 19.1829 24.9436 19.6285 26.537C20.0793 28.1466 3.56405 37.5559 4.48789 38.9498C5.40258 40.3295 20.4751 28.7672 21.7998 29.8172C23.0777 30.8306 15.2403 48.1547 16.8509 48.754Z" fill="var(--fill-0, #FFFAC9)" stroke="var(--stroke-0, #382F32)" stroke-width="0.5" stroke-miterlimit="10"/>
</g>
<path id="Vector_3" d="M25.7508 27.1041C27.0027 27.1041 28.0177 26.0892 28.0177 24.8373C28.0177 23.5853 27.0027 22.5704 25.7508 22.5704C24.4988 22.5704 23.4839 23.5853 23.4839 24.8373C23.4839 26.0892 24.4988 27.1041 25.7508 27.1041Z" fill="var(--fill-0, #FFFEF6)" stroke="var(--stroke-0, #382F32)" stroke-width="0.5" stroke-miterlimit="10"/>
</g>
</svg>
