<svg preserveAspectRatio="none" width="100%" height="100%" overflow="visible" style="display: block;" viewBox="0 0 37.156 35.8442" fill="none" xmlns="http://www.w3.org/2000/svg">
<g id="Group 21808384">
<g id="Group">
<path id="Vector" d="M12.1818 35.112C13.3402 35.5428 17.216 22.4374 18.3875 22.4871C19.6014 22.5383 22.3679 35.9084 23.5131 35.5881C24.67 35.2641 20.1082 22.3869 21.1093 21.7229C22.101 21.0655 32.1985 30.2702 32.9532 29.3181C33.6816 28.3996 22.4264 20.6721 22.8571 19.5145C23.2878 18.3561 36.8568 19.8655 36.9058 18.6947C36.957 17.4808 23.2981 17.8457 22.9778 16.7005C22.6538 15.5436 34.524 8.78067 33.86 7.77881C33.2026 6.78719 22.3693 15.0975 21.4172 14.3428C20.4987 13.6145 26.1318 1.16287 24.9742 0.732146C23.8158 0.30142 19.94 13.4068 18.7685 13.357C17.5546 13.3059 14.7881 -0.0642212 13.6429 0.256082C12.486 0.580041 17.0478 13.4572 16.0466 14.1212C15.055 14.7787 4.95745 5.57398 4.20276 6.52612C3.4744 7.44461 14.7296 15.1721 14.2989 16.3297C13.8682 17.4881 0.299162 15.9787 0.250166 17.1495C0.198976 18.3634 13.8579 17.9985 14.1782 19.1437C14.5022 20.3006 2.63196 27.0635 3.29597 28.0654C3.95339 29.057 14.7866 20.7467 15.7388 21.5014C16.6573 22.2297 11.0242 34.6813 12.1818 35.112Z" fill="var(--fill-0, #E87E8D)" stroke="var(--stroke-0, #382F32)" stroke-width="0.5" stroke-miterlimit="10"/>
<path id="Vector_2" d="M12.1818 35.112C13.3402 35.5428 17.216 22.4374 18.3875 22.4871C19.6014 22.5383 22.3679 35.9084 23.5131 35.5881C24.67 35.2641 20.1082 22.3869 21.1093 21.7229C22.101 21.0655 32.1985 30.2702 32.9532 29.3181C33.6816 28.3996 22.4264 20.6721 22.8571 19.5145C23.2878 18.3561 36.8568 19.8655 36.9058 18.6947C36.957 17.4808 23.2981 17.8457 22.9778 16.7005C22.6538 15.5436 34.524 8.78067 33.86 7.77881C33.2026 6.78719 22.3693 15.0975 21.4172 14.3428C20.4987 13.6145 26.1318 1.16287 24.9742 0.732146C23.8158 0.30142 19.94 13.4068 18.7685 13.357C17.5546 13.3059 14.7881 -0.0642212 13.6429 0.256082C12.486 0.580041 17.0478 13.4572 16.0466 14.1212C15.055 14.7787 4.95745 5.57398 4.20276 6.52612C3.4744 7.44461 14.7296 15.1721 14.2989 16.3297C13.8682 17.4881 0.299162 15.9787 0.250166 17.1495C0.198976 18.3634 13.8579 17.9985 14.1782 19.1437C14.5022 20.3006 2.63196 27.0635 3.29597 28.0654C3.95339 29.057 14.7866 20.7467 15.7388 21.5014C16.6573 22.2297 11.0242 34.6813 12.1818 35.112Z" fill="var(--fill-0, #E87E8D)" stroke="var(--stroke-0, #382F32)" stroke-width="0.5" stroke-miterlimit="10"/>
</g>
<path id="Vector_3" d="M18.5785 19.5515C19.4784 19.5515 20.2078 18.822 20.2078 17.9222C20.2078 17.0224 19.4784 16.2929 18.5785 16.2929C17.6787 16.2929 16.9492 17.0224 16.9492 17.9222C16.9492 18.822 17.6787 19.5515 18.5785 19.5515Z" fill="var(--fill-0, #FFFEF6)" stroke="var(--stroke-0, #382F32)" stroke-width="0.5" stroke-miterlimit="10"/>
</g>
</svg>
